<svg width="325" height="325" xmlns="http://www.w3.org/2000/svg">

  <defs>
    <marker id="Triangle" viewBox="0 0 30 20" refX="1" refY="5" 
            markerUnits="strokeWidth" markerWidth="40" markerHeight="30"
            orient="auto">
      <path d="M 0 0 L 10 5 L 0 10 z" fill="red" opacity="0.5"/>
    </marker>
  </defs>

  <style>
    circle {
      fill: none; stroke: black; opacity: 0.2;
    }
    path {
      stroke: black; stroke-width: 2; 
    }
  </style>

  <path d="M 80 80
           A 45 45, 0, 0, 0, 125 125
           L 125 80 Z" fill="green"  
           marker-start="url(#Triangle)" />
  <circle cx="125" cy="80" r="45" stroke="black" fill="none" />
  <circle cx="80" cy="125" r="45" stroke="black" fill="none" />

  <path d="M 230 80
           A 45 45, 0, 1, 0, 275 125
           L 275 80 Z" fill="red"
           marker-start="url(#Triangle)"/>
  <circle cx="275" cy="80" r="45" stroke="black" fill="none" />
  <circle cx="230" cy="125" r="45" stroke="black" fill="none" />

  <path d="M 80 230
           A 45 45, 0, 0, 1, 125 275
           L 125 230 Z" fill="purple"
           marker-start="url(#Triangle)"/>
  <circle cx="125" cy="230" r="45" stroke="black" fill="none" />
  <circle cx="80" cy="275" r="45" stroke="black" fill="none" />

  <path d="M 230 230
           A 45 45, 0, 1, 1, 275 275
           L 275 230 Z" fill="blue"
           marker-start="url(#Triangle)"/>
  <circle cx="275" cy="230" r="45" stroke="black" fill="none" />
  <circle cx="230" cy="275" r="45" stroke="black" fill="none" />
</svg>