<svg xmlns="http://www.w3.org/2000/svg"
     width="400" height="400" viewBox="0 0 400 400">
  <defs>
    <marker id="Triangle" viewBox="0 0 10 10" refX="1" refY="5" 
            markerUnits="strokeWidth" markerWidth="4" markerHeight="3"
            orient="auto">
      <path d="M 0 0 L 10 5 L 0 10 z" fill="context-stroke"/>
    </marker>
  </defs>

  <g fill="none" stroke-width="10" marker-mid="url(#Triangle)">
    <path stroke="crimson" d="M272.81408,42.064 L80.14336,42.064 C65.03552,42.064 52.75072,54.64448 52.75072,70.09728 L52.75072,314.77248 C52.75072,318.99648 56.09472,322.41792 60.22016,322.41792 C60.64256,322.41792 61.04384,322.37568 61.44512,322.30528 C61.86752,322.38272 62.28992,322.41792 62.71232,322.41792 C64.33152,322.41792 65.95776,321.88288 67.33056,320.7776 L104.77632,295.98272 L135.53408,320.7776 C138.24448,322.96 142.0672,322.96 144.7776,320.7776 L176.68992,295.05344 L207.62368,319.98912 C210.33408,322.17152 214.1568,322.17152 216.8672,319.98912 L247.60384,295.21536 L285.6128,320.4608 C287.07712,321.64352 288.83712,322.16448 290.56192,322.08704 C291.2448,322.29824 291.96992,322.41792 292.7232,322.41792 C296.84864,322.41792 300.192652,318.99648 300.192652,314.77248 L300.192652,70.10432 C300.20672,54.64448 287.91488,42.064 272.81408,42.064 Z"/>
    <path stroke="olivedrab" d="M 175,125 C 150,150 125,150 100,125"/>
  </g>
</svg>