<svg t="1673317118283" class="icon" viewBox="0 0 1024 1024" version="1.1"
    xmlns="http://www.w3.org/2000/svg" p-id="936" width="32" height="32">
    <path d="M686.72 269.4656H343.1424L231.9872 512l111.1552 242.5344h343.5776L797.8752 512z" fill="#00FFAA" opacity=".1" p-id="937"></path>
    <path d="M514.944 380.6208c72.448 0 131.3792 58.9312 131.3792 131.3792s-58.9312 131.3792-131.3792 131.3792S383.5648 584.448 383.5648 512s58.9312-131.3792 131.3792-131.3792m0-60.6208a192 192 0 1 0 0 384 192 192 0 0 0 0-384z" fill="#17E5A1" p-id="938"></path>
    <path d="M716.3136 229.0432a5.632 5.632 0 0 1 1.28 0.1536l117.0944 276.5056 1.7152 4.0704 1.3568 2.2272-1.3568 2.2272-1.7152 4.0704-117.0688 276.48a4.5312 4.5312 0 0 1-1.28 0.1792H313.5488a5.632 5.632 0 0 1-1.28-0.1536L195.1744 518.2976l-1.7152-4.0704L192.1024 512l1.3568-2.2272 1.7152-4.0704 117.0688-276.48a4.5312 4.5312 0 0 1 1.28-0.1792h402.7904m0-60.6208H313.5488c-22.2464 0-42.7776 11.264-53.888 29.5168l-120.32 284.1344a57.4976 57.4976 0 0 0 0 59.8784l120.32 284.1344c11.0848 18.2528 31.6416 29.5168 53.888 29.5168h402.7648c22.2464 0 42.7776-11.264 53.888-29.5168l120.32-284.1344a57.4976 57.4976 0 0 0 0-59.8784l-120.32-284.1344c-11.0848-18.2784-31.6416-29.5168-53.888-29.5168z" p-id="939"></path>
</svg>