<svg xml:space="preserve" style="enable-background:new 0 0 2520.63 1655.97;" viewBox="0 0 2520.63 1655.97" y="0px" x="0px" xmlns:xlink="http://www.w3.org/1999/xlink" xmlns="http://www.w3.org/2000/svg" id="레이어_1" version="1.1">
<style type="text/css">
	.st0{fill:#1CBCCD;}
	.st1{fill:none;stroke:#000000;stroke-width:1.5;stroke-linecap:round;stroke-linejoin:round;stroke-miterlimit:10;}
	.st2{fill:#FFFFFF;stroke:#000000;stroke-linecap:round;stroke-linejoin:round;stroke-miterlimit:10;}
	.st3{stroke:#000000;stroke-linecap:round;stroke-linejoin:round;stroke-miterlimit:10;}
	.st4{fill:none;stroke:#FFFFFF;stroke-width:0.5;stroke-linecap:round;stroke-linejoin:round;stroke-miterlimit:10;}
	.st5{fill:#FFFFFF;}
	.st6{fill:none;stroke:#000000;stroke-linecap:round;stroke-linejoin:round;stroke-miterlimit:10;}
	.st7{fill:#F2B3B3;}
	.st8{fill:none;stroke:#FFFFFF;stroke-linecap:round;stroke-linejoin:round;stroke-miterlimit:10;}
	.st9{fill:#D91C42;stroke:#000000;stroke-linecap:round;stroke-linejoin:round;stroke-miterlimit:10;}
	.st10{fill:none;stroke:#000000;stroke-width:0.5;stroke-linecap:round;stroke-linejoin:round;stroke-miterlimit:10;}
	.st11{fill:#FFFFFF;stroke:#000000;stroke-width:0.5;stroke-linecap:round;stroke-linejoin:round;stroke-miterlimit:10;}
	.st12{fill:none;stroke:#FFFFFF;stroke-width:1.5;stroke-linecap:round;stroke-linejoin:round;stroke-miterlimit:10;}
	.st13{stroke:#FFFFFF;stroke-linecap:round;stroke-linejoin:round;stroke-miterlimit:10;}
	.st14{fill:none;}
</style>
<rect height="1655.97" width="2520.38" class="st0"></rect>
<path d="M540.81,860.05c26.62-10.79,35.83-25.76,45.37-46.44c10.24-22.16,13.55-46.48,19.78-69.89" class="st1"></path>
<path d="M673.83,800.34c-19.47,46.89-38.38,83.23-60.33,129.03c-16.61,34.64-41.59,67.81-59.59,101.77
	c-14.6-5.51-23.43-11.22-35.38-21.26c16.57-28.59,36.67-67.53,51.78-96.92c13.55-40.64,24.44-65.64,37-101.14" class="st2"></path>
<path d="M753.92,1073.88c-23.72,15.99-83.48,11.94-128.64,9.09c-19.38-1.23-33.96-18.13-32.31-37.47
	c4.32-50.55,18.79-81.55,16.36-134.93" class="st2"></path>
<path d="M840.79,1410.37c21.42,5.04,42.86,9.04,63.33,16.59c26.27,9.72,37.82,58.22,38.91,82.78
	c0.64,14.45,7.05,31.59,18.32,9.89c8.59-16.53,8.84-26.33,5.74-44.36c-2.82-16.4,2.2-29.07,5.74-44.42
	c4.3-18.6-6.78-24.2-23.85-26.19c-35.23-4.09-68.93-19.75-102.47-35.42" class="st2"></path>
<path d="M638.6,1028.99c-18.81,70.24-35.77,207.99-24.22,281.74c1.73,11.04,3.99,21.87,6.76,32.56
	c3.17,12.27,11.1,30.94,25.16,35.3c16.63,10.98,51.88,17.02,70.65,20.74c54.45,10.81,105.37,15.95,155.86,28.59
	c17.62-14.47,19.1-43.93,19.2-57.66c-50.18-16.47-89.03-24.24-138.65-42.37c-15.79-5.76-46.77-14.66-51.88-18.6
	c-5.61-4.32,3.08-12.64-8.82-11.33c12.89-68.53,70.96-186.88,97.5-253.85" class="st3"></path>
<path d="M888.79,1393.12c-50.18-16.47-99.84-29.81-149.46-47.94c-15.79-5.76-46.77-14.66-51.88-18.6
	c-5.61-4.32,3.08-12.64-8.82-11.33c12.89-68.53,42.72-182.07,69.29-249.06" class="st4"></path>
<path d="M489.45,1424.9c-5.08,21.42-9.09,42.86-16.69,63.31c-9.76,26.25-58.28,37.74-82.84,38.79
	c-14.47,0.62-31.6,7.01-9.91,18.3c16.51,8.61,26.31,8.88,44.36,5.8c16.4-2.8,29.07,2.24,44.42,5.8c18.6,4.32,24.22-6.74,26.23-23.82
	c4.15-35.23,19.84-68.92,35.58-102.41" class="st2"></path>
<path d="M727.9,810.66c-11.14-12.74-22.28-25.49-33.4-38.25c-16.24-18.64-40.41-36.41-47.9-60.95
	c-5.36-17.56-6.52-36.26-8.65-54.54c-12.97,6.11-32.87,25.98-45.8,32.21c0,0,7.71,44.57,6.04,105.27" class="st2"></path>
<path d="M672.35,605.26c-6.37-24.36-29.09-39.53-57.43-39.32c-6.23,0.06-12.46,0.74-18.56,2.1
	c-18.95,4.21-35.85,15.91-41.13,35.36c-5.2,19.16-0.64,35.15-16.34,49.56c5.08,6.39,9.41,5.76,11.51,13.67
	c1.73,6.52-2.16,16.14,3.31,21.13c0.04,0.04-0.04-0.04,0,0c8.04,8.1,36.53,8.9,51,7.24c33.67-3.84,63.72-32.01,68.68-65.74
	C674.68,620.55,674.25,612.51,672.35,605.26z" class="st5"></path>
<path d="M558.23,621.72c12.79-6.54,24.28,6.62,24.28,6.62" class="st6"></path>
<path d="M567.7,635.87c-0.72,2.51-2.57,4.17-4.13,3.72c-1.56-0.45-2.26-2.84-1.54-5.36c0.72-2.51,2.57-4.17,4.13-3.72
	C567.74,630.97,568.42,633.36,567.7,635.87z"></path>
<path d="M586.31,655.25c1.81-5.41-1.09-11.27-6.5-13.09s-11.27,1.09-13.09,6.5s1.09,11.27,6.5,13.09
	S584.48,660.66,586.31,655.25z" class="st7"></path>
<path d="M565.44,667.52c-4.73,0.43-9.89,0.33-14.92-0.35c1.03,4.77-0.1,6.8,0.14,12.01
	C550.97,679.18,562.52,682.53,565.44,667.52z" class="st2"></path>
<path d="M644.91,677.66c14.92-12.11,25.7-29.38,28.51-48.41c1.29-8.7,0.84-16.75-1.05-23.99
	c-6.37-24.36-29.09-39.53-57.43-39.32c-6.23,0.06-12.46,0.74-18.56,2.1c-18.95,4.21-35.85,15.91-41.13,35.36
	c-5.2,19.16-0.64,35.15-16.34,49.56c5.08,6.39,9.41,5.76,11.51,13.67c1.73,6.52-2.16,16.14,3.31,21.13c0.04,0.04-0.04-0.04,0,0
	c6.56,6.62,26.76,8.35,41.83,7.87" class="st6"></path>
<path d="M662.2,714.02c-2.73-3.72-16.24-10.42-16.24-10.42c-14.94,13.88-32.05,29.27-46.75,42.96
	c-2.08,1.95-8.92,7.73-10.57,10.15c0,0,4.85,160.36,50.34,276.38c15.71-0.41,31.8-2.26,47.16-5.04L662.2,714.02z" class="st2"></path>
<path d="M662.16,1036.24c-4.75,11.82-37.7,59.49-50.4,74.7c-31.96,38.23-62.7,77.93-90.24,119.53
	c-11,16.61-17.1,51.86-20.86,70.63c-10.89,54.43-16.1,105.35-28.82,155.82c14.45,17.64,43.91,19.18,57.64,19.3
	c16.55-50.16,28.82-101.01,47.03-150.6c5.78-15.79,21.21-54.43,25.14-59.53c4.32-5.61,12.64,3.1,11.35-8.8
	c38.19-19.84,80.97-53.78,115.44-79.88c22.51-17.04,44.61-34.55,59.37-58.79c8.78-14.41,13.57-28.37,15.11-44.96
	c2.57-27.79-10.42-41.63-25.12-64.92" class="st3"></path>
<path d="M609.43,1264.03c2.45-0.02,4.23-0.82,3.58-6.76c38.19-19.84,80.97-53.78,115.44-79.88
	c2.45-1.85,4.89-3.7,7.32-5.59" class="st8"></path>
<path d="M501.72,1473.29c16.55-50.16,32.13-114.21,50.32-163.81c5.78-15.79,21.21-54.43,25.14-59.53
	c4.32-5.61,12.64,3.1,11.35-8.8c38.19-19.84,151.44-117.4,166.2-141.65c8.78-14.41,13.57-28.37,15.11-44.96
	c2.57-27.79-10.42-41.63-25.12-64.92" class="st4"></path>
<path d="M615.91,637.84c4.25-11.04,1.6-27.32-0.12-33.3c-2.08-7.21-24.2-10.13-30.12-10.52
	c-13.16-0.9-24.26-3.06-33.4-14.04c1.44,0.35,2.1-0.45,3.37-0.06c-5.02-5.84,1.36-15.15,6.11-18.97c-3.68,7.4,25.72,0.72,29.01,0.27
	c27.34-3.72,62.14,1.05,77.52,27.11c11.57,1.56,14.96,22.96,14.45,32.58c-1.42,26.17-21.36,44.42-41.17,60.44
	C633.93,669.76,622.63,650.13,615.91,637.84z" class="st3"></path>
<g>
	<path d="M614.41,660.56c9.66-0.74,19.92-12.29,17.7-22.49c-1.99-9.15-14.39-9.91-18.73-2.18" class="st2"></path>
	<path d="M615.06,647.13c-0.45-5.67,7.79-7.36,11.35-4.01" class="st6"></path>
	<path d="M615.08,646.45c1.85-3,5.98,0.23,6.68,2.59" class="st6"></path>
</g>
<path d="M589.2,782.27c0,0,3.35,49.38,4.46,84.86c1.77,57.15-14.82,139.49,34.84,182.89
	c7.44-8.57,16.12-39.94,16.12-39.94c-8.2-8.39-20.19-45.96-22.02-67.79c-2.78-33.22-2.57-66.77-7.89-99.88
	c-1.36-8.43-10.71-46.58-19.12-63.19" class="st9"></path>
<path d="M606.43,773.39c0,0-4.42,10.13-7.3,15.34c-3.21-1.91-7.26-2.77-10.98-0.86c-0.25-7.67-5.69-25.61,1.69-31.14
	C589.84,756.74,596.32,759.59,606.43,773.39z" class="st9"></path>
<path d="M688.1,1305.8c-4.11,3.89-8.2,7.77-12.31,11.66" class="st4"></path>
<path d="M696.88,1311.47c-7.54,10.16-14.74,20.97-23.06,30.55" class="st4"></path>
<path d="M604.21,1255.8c-6.13-4.77-11.98-9-17.29-14.49" class="st4"></path>
<path d="M594.96,1259.81c-13.07-4.62-25.92-9.56-38.81-14.68" class="st4"></path>
<path d="M611.98,761.65c-0.51,2.2-0.99,4.34-1.48,6.35c-4.95,21.07-7.34,46.4-20.47,64.3
	c-11.35,15.48-30.63,28.51-50.47,27.55" class="st1"></path>
<g>
	<g>
		<path d="M542.97,850l-9.74,20.04l-68.1,8.3L477.21,858L542.97,850z" class="st2"></path>
	</g>
	<g>
		<polygon points="528.05,855.33 522.79,867.8 480.05,873.02 487.62,860.26" class="st9"></polygon>
	</g>
	<g>
		<polygon points="542.5,857.51 540.65,861.6 538.02,861.92 529.3,862.99 531.13,858.9 540.45,857.83" class="st9"></polygon>
	</g>
</g>
<g>
	<path d="M1531.73,774.89c27.59,7.93,44.09,1.83,64.36-8.55c21.73-11.14,39.34-28.22,58.69-42.78" class="st1"></path>
	<g>
		<path d="M1787.43,995.95c-0.58-0.51-0.99-1.13-1.29-1.83c-0.9,1.71-2.14,3.1-4.32,2.94
			c-2.57-0.16-3.52-1.97-4.23-3.97c-0.35,0.45-0.72,0.86-1.13,1.21c-5.26,4.44-8.39-1.54-9.04-6.31c-1.44,1.73-2.86,2.88-4.01,2.94
			c-5.88,0.39-5.3-7.22-4.09-12.95l0,0l0,0c0.14-0.68,0.29-1.34,0.45-1.97c-1.13-0.88-2.14-1.79-2.92-2.88
			c-6.37-8.98,11.84-23.52,22.35-29.68c3-1.75,5.32-3.93,7.24-6.89c1.99-3.02,6.56-11.86,8.12-15.13
			c4.19-8.82,25.16-78.05,25.16-78.05l41.48,5.96c0,0-50.69,89.83-54.31,99.99c-1.21,3.41-0.92,7.3-1.3,10.83
			c-0.43,3.99-0.68,8.22-1.44,12.17c-0.64,3.39-2.59,6.58-3.93,9.76C1798.76,985.55,1793.97,1001.71,1787.43,995.95z" class="st5"></path>
		<polyline points="1779.04,949.62 1759.51,966.76 1761.63,974.28 1759.41,978.4 1760.91,986.8 1783.75,988.16" class="st6"></polyline>
		<path d="M1794.4,991.74c1.62-3.23,1.99-10.48,1.29-14c-1.64-8.33-6.95-0.16-8.22,3.8c-1.21,3.76-3.17,11.2,0.43,14.25
			c6.64,5.63,11.1-10.63,12.5-14.14c1.29-3.19,3.15-6.43,3.72-9.83c0.66-3.97,0.84-8.2,1.19-12.19c0.31-3.54-0.08-7.42,1.07-10.85
			c7.03-12.7,47.01-85.56,54.82-99.43" class="st6"></path>
		<path d="M1777.48,991.68c0.86,2.49,1.64,5.2,4.83,5.34c3.41,0.14,4.5-3.37,5.45-6.08c1.52-4.32,2.75-9.33,2.34-13.92
			c-0.31-3.56-2.2-7.42-6-4.5C1779.64,975.95,1777.71,984.03,1777.48,991.68z" class="st2"></path>
		<path d="M1767.55,985.92c-0.19,4.69,3.27,13.79,9.33,8.45c3.27-2.88,4.26-9.56,5.16-13.65
			c0.66-3.04,2.78-13.44-3.25-10.75C1773.7,972.23,1771.35,979.44,1767.55,985.92z" class="st2"></path>
		<path d="M1760.69,972.87c-0.9,3.51-5.24,19.12,3.08,18.4c5.16-0.45,15.19-22.28,9.58-24.19
			c-4.15-1.42-11.06,13.88-11.94,16.84" class="st2"></path>
		<path d="M1792.07,957.37c-2.16,3.84-9.15,7.01-13.44,8.08c-1.83,0.47-3.84,0.56-5.63,1.09
			c-2.69,0.8-5.28,2.51-8.12,2.92c4.13,0.31,7.69,4.34,9.07,7.95c0.7,1.81,1.27,6.29-1.09,7.61c-1.69,0.95-3.82-1.81-5.06-3.02
			c-3.1-2.98-8.35-4.89-10.98-8.41c-6.54-8.84,11.35-23.76,21.73-30.12c5.69-3.49,7.5-8.18,9.68-14.16
			c2.34-6.43,4.79-12.81,7.3-19.2c1.75-4.46,22.39-62.27,24.17-66.71" class="st2"></path>
	</g>
	<path d="M1666.09,812.92c16.86,10.18,41.34,14.8,61.53,17.88c23.25,3.54,54.08,7.09,75.59,16.63
		c-0.51-0.23-0.18,3.72-0.06,4.05c1.19,3.06,1.19,2.94,4.13,3.74c2.8,4.25-20,64.85-22.9,72.24c6.06,11.35,17.92,15.97,33.1,17.31
		c0,0,32.05-54.84,49.21-88.27c5.51-10.75,4.38-21.67-3.76-32.97c-4.11-5.69-33.07-21.95-39.18-25.16
		c-24.36-12.81-42.65-19.49-89.58-38.65" class="st2"></path>
	<path d="M1813.23,852.12c5.34-1.3,6.46-3.56,11.45-5.86" class="st10"></path>
	<path d="M1809.53,845.91c8.47-5.73,12.54-11.64,21.38-16.65" class="st10"></path>
	<path d="M1743.67,836.41c-3.23-18.23-11.08-47.98-20.54-61.61c-13.81-19.9-33.34-38.75-37.99-63.44
		c-3.33-17.7-4.56-37.12-4.67-55.17c-13.3,4.58-34.82,21.77-48.08,26.44c0,0,11.59,48.78-14.96,125.21" class="st2"></path>
	<path d="M1689.66,739.74c-16.26,13.57-70.75,48.08-70.75,48.08c-3.88,10.61-6.56,21.34-10.11,31.96
		c-5.98,17.92-13.96,30.53-11.18,49.29c5.26,35.44,18.3,69.46,31.33,102.86c8.12,20.84,24.07,48.57,24.07,48.57
		c9.39,3.86,25.57,10.96,37.82,11.41c30.42,1.13,31.35-16.67,33.42-42.14c4.21-51.82-0.12-103.34-4.05-155.12
		c-1.01-13.32-0.35-27.61-2.53-40.72C1714.68,775.79,1694.93,757.31,1689.66,739.74z" class="st2"></path>
	<path d="M1487.53,1084.96c-24.38,13.46-39.61,17.74-37.93,45.33c0.82,13.44,45.12,200.92,44.79,209.88
		c-0.53,14.57-14.8,35.3-27.13,61.01c-14.37,29.97,26.05,12.74,36.12,2.36c8.94-9.21,8.86-18.66,15.31-29.42
		c6.45-10.77,18.4-17.45,17.72-31.25c-0.58-11.98-12.62-18.34-16.36-29.29c-6.72-19.63-5.18-68.78-4.01-89.24
		c0.92-16.05,0.82-31.7-1.58-47.36c-2.03-13.28-9.11-26.41-9.81-39.45" class="st2"></path>
	<path d="M1472.1,1390.41c-7.83,6.91-34.6,26.74-36.63,28.41c-3.14,2.63-0.18,4.26,3.84,5.02
		c11.53,2.2,54.8-1.58,61.81-6.64c8.96-6.47,10.83-16.22,14.53-26.04c3.51-9.29,6.74-19.16,13.48-24.4
		c1.71,18.19,2.36,31.39,3.76,49.33c1.99-0.99,4.3-2.32,6.54-2.59c0,0,0.02-29.4,1.54-42.96c1.81-16.4,3.15-26.97-8.72-39
		c-6.25,14.74-17.35,30.48-27.13,43.23C1497.26,1385.08,1485.29,1390.06,1472.1,1390.41z" class="st3"></path>
	<path d="M1716.49,1133.99c-58.87,0.66-134.6-2.1-193.02-5.16c0.08,4.99-0.18,10.22-6.02,9.6
		c-2.63,10.2,4.32,36.32,5.2,46.56c3.29,38.93-0.33,74.46,4.48,114.93c-17.64,10.75-27.48,12.46-46.93,10.15
		c0,0-17.21-89.01-29.01-143.79c-4.15-19.26-14.55-47.12-5.74-66.03c8.22-17.62,33.2-24.77,50.44-30.81
		c24.38-8.53,50.14-13.67,75.28-20.21c23.43-6.11,81.85-28.72,81.85-28.72c30.59,3.66,62.31-5.39,93.3-9.5" class="st9"></path>
	<path d="M1694.62,1116.76c-58.87,0.66-131.01,2.45-189.43-0.6c0.08,4.99-0.18,10.22-6.02,9.6
		c-2.63,10.2,0.74,31.76,1.62,42c3.29,38.93,5.37,99.78,10.16,140.24" class="st10"></path>
	<path d="M1782.91,1311.8c1.87,13.32,136.25,146.96,136.27,166.2c0.02,14.59-11.98,36.36-22.24,62.96
		c-11.96,31,26.97,10.65,36.2-0.51c8.18-9.89,7.36-19.3,12.95-30.53c5.59-11.26,16.98-18.85,15.21-32.56
		c-1.54-11.88-13.07-15.73-20.82-24.32c-17.37-19.24-56.16-116.76-95.42-145.52" class="st2"></path>
	<path d="M1900.92,1529.84c-7.26,7.52-32.4,29.37-34.27,31.22c-2.92,2.86,0.16,4.26,4.23,4.71
		c11.66,1.29,54.51-5.88,61.11-11.49c8.41-7.15,9.52-17.02,12.44-27.11c2.77-9.52,5.2-19.63,11.51-25.37
		c3.14,17.99,4.83,31.1,7.61,48.88c1.89-1.15,4.11-2.65,6.31-3.1c0,0-2.28-29.33-1.85-42.94c0.53-16.49,1.01-27.15-11.76-38.21
		c-5.06,15.19-14.9,31.74-23.64,45.24C1925.57,1522.56,1914.02,1528.46,1900.92,1529.84z" class="st3"></path>
	<path d="M1751.91,1013.38c11.86,7.71,24.91,29.91,29.56,42.98c5.76,16.16,9.58,31.62,12.77,48.49
		c11.78,62.31,7.98,102.1,29.64,162.7c6.48,2.26,4.23,6.93,7.96,11.22c34.31,39.2,98.65,133.78,109.13,147.18
		c-14.1,13.38-25.98,24.59-43.21,33.53c-29.35-38.23-85.12-104.18-115.24-141.22c-54.68-67.24-74.27-138.24-113.29-211.61" class="st9"></path>
	<path d="M1733.26,1028.43c11.84,7.71,20.14,29.48,24.79,42.55c5.76,16.16,9.58,31.62,12.77,48.49
		c11.78,62.31,12.77,102.53,34.41,163.15c6.48,2.26,4.23,6.93,7.96,11.22c34.31,39.2,98.65,133.78,109.13,147.18" class="st10"></path>
	<path d="M1669.52,1098.45c-6.02-19.1-8.98-42.08-8.33-63.03" class="st10"></path>
	<path d="M1638.89,1026.7c16.86,5.53,36.63,12.17,54.72,12.6c29.74,0.7,46.64,3.89,68.14-7.48" class="st10"></path>
	<path d="M1719.55,609.55c-3.58-24.44-24.09-41.65-51.72-44.48c-6.08-0.62-12.23-0.62-18.3,0.04
		c-18.91,2.06-36.65,11.64-43.87,30.03c-7.13,18.11-4.42,34.18-21.26,46.52c4.26,6.78,8.53,6.62,9.74,14.55
		c0.99,6.54-3.86,15.5,0.95,20.95c0.04,0.04-0.04-0.04,0,0c6.95,8.76,34.64,12.6,48.92,12.56c33.22-0.12,65.53-24.34,74-56.65
		C1720.17,624.7,1720.6,616.81,1719.55,609.55z" class="st5"></path>
	<path d="M1606.58,613.3c13.16-4.99,22.94,9.05,22.94,9.05" class="st6"></path>
	<path d="M1614.3,628.1c-0.97,2.36-2.94,3.8-4.42,3.19c-1.48-0.6-1.89-3.02-0.92-5.37c0.97-2.36,2.94-3.8,4.42-3.19
		C1614.84,623.33,1615.25,625.73,1614.3,628.1z"></path>
	<path d="M1630.32,649c2.36-5.06,0.16-11.1-4.93-13.46c-5.08-2.36-11.1-0.16-13.46,4.93
		c-2.36,5.06-0.16,11.1,4.93,13.46C1621.95,656.26,1627.97,654.06,1630.32,649z" class="st7"></path>
	<path d="M1608.67,658.7c-4.65-0.1-9.68-0.74-14.49-1.95c0.49,4.75-0.82,6.6-1.17,11.72
		C1593.32,668.51,1604.21,673.01,1608.67,658.7z" class="st2"></path>
	<path d="M1685,677.14c15.83-10.2,28.2-25.86,32.99-44.11c2.18-8.33,2.61-16.24,1.56-23.48
		c-3.58-24.44-24.09-41.65-51.72-44.48c-6.08-0.62-12.23-0.62-18.3,0.04c-18.91,2.06-36.65,11.64-43.87,30.03
		c-7.13,18.11-4.42,34.18-21.26,46.52c4.26,6.78,8.53,6.62,9.74,14.55c0.99,6.54-3.86,15.5,0.95,20.95c0.04,0.04-0.04-0.04,0,0
		c5.69,7.15,25.18,11.02,39.92,12.17" class="st6"></path>
	<path d="M1809.36,1016.1c-22.32,18.38-89.79,46.29-128.95,51.66c-13.49-51.14-52.83-142.27-56.57-189.88
		c-4.25-53.98,33.34-120.07,67.47-160.63c14.06,23.31,30.92,46.05,43.7,70.22c15.25,28.82,17.19,60.35,20.7,92.28
		c1.46,13.42,2.08,27.01,3.45,40.6c0.97,9.79,2.12,19.08,5.65,28.29C1771.95,967.38,1800.03,998.56,1809.36,1016.1z" class="st2"></path>
	<g>
		<g>
			<path d="M1572.62,891.24c-7.48-9.37-76.08-85.92-78.22-91.62c-1.52-4.01-1.44-22.96-5.1-27.87
				c-3.62-4.85-8.06-15.07-15.19-13.79c-2.73-1.83-6.11-6.43-9.95-2.06c-2.36,2.67-0.56,5.12,0.56,7.89
				c-5.37-1.54-6.66,5.61-5.41,9.19c-3.02,0-4.46,2.61-5.45,4.97c-0.51,1.17,0.35,2.43-0.19,3.52c-0.68,1.4-2.53,1.79-3.19,3.25
				c-3,6.72,8.24,18.67,12.44,22.43c4.28,3.82,13.28,7.46,16.69,12.54c7.98,11.94,48.7,81.77,61.52,97.46L1572.62,891.24z" class="st2"></path>
			<path d="M1472.36,756.63c0,0,1.25,1.23,2.57,2.73c3,3.43,6.7,7.3,9.44,10.92" class="st6"></path>
			<path d="M1464.1,762.56c1.46,2.26,3.04,4.38,4.71,6.48" class="st6"></path>
			<path d="M1473.91,768.85c0.49,1.09,1.34,1.97,2.08,2.9" class="st6"></path>
			<path d="M1464.7,775.3c0.82,1.17,1.52,2.28,2.69,3.1" class="st6"></path>
			<path d="M1458.39,781.92c0.82,0.88,1.64,1.73,2.49,2.55" class="st6"></path>
			<path d="M1453.23,788.31c0.58,1.13,1.4,1.97,2.49,2.55" class="st6"></path>
		</g>
		<g>
			<path d="M1483.34,827.72l-3.43-5.36c16.81-8.14,21.42-14.84,21.5-14.92l3.52,5.39
				C1504.58,813.17,1500.73,819.29,1483.34,827.72z" class="st2"></path>
			<ellipse ry="6.82" rx="6.82" cy="817.78" cx="1492.89" class="st2"></ellipse>
			<path d="M1497.57,816.87c-0.47-2.63-2.96-4.36-5.59-3.89c-2.63,0.47-4.36,2.96-3.89,5.59
				c0.47,2.63,2.96,4.36,5.59,3.89C1496.29,821.98,1498.02,819.48,1497.57,816.87z" class="st11"></path>
		</g>
	</g>
	<path d="M1680.19,781.61c-17.16,9.68-33.22,28.72-45.82,44.79c-14.53,18.5-30.36,40.29-49.23,54.35
		c0.45-0.33-3.15-1.99-3.51-2.04c-3.23-0.47-3.15-0.41-5.28,1.75c-5.06,0.35-47.85-47.65-52.85-53.82
		c-12.87-0.31-25.57,8.2-34.21,20.74c0,0,33.63,56.08,54.31,87.47c6.64,10.09,16.73,14.47,30.55,12.93
		c6.97-0.78,35.36-18.01,41.17-21.75c23.13-14.92,37.95-27.53,77.72-58.98" class="st2"></path>
	<path d="M1576.11,887.15c-1.48,5.3-2.51,10.67-2.96,16.16" class="st10"></path>
	<path d="M1583.35,886.98c0.82,10.18,1.56,19.96,1.56,30.11" class="st10"></path>
	<path d="M1657.72,894.83c12.15-10.2,26.79-13.69,40.68-20.93" class="st10"></path>
	<path d="M1711.23,760.44c-6.35-6.23-13.83-11.33-22.59-16.57c-8.16-4.87-15.31-11.61-20-19.84
		c-9.27-16.28-8.1-36.36-5.3-54.89c1.67-11.02,4.65-24.65,0.18-34.86c-2.8-6.41-8.82-9.56-13.79-14.47
		c-5.76-5.67-11.55-11.35-17.31-17.02c-4.87-4.79-9.87-9.81-12.09-16.26c-2.22-6.45-0.68-14.74,5.26-18.09
		c14.8-8.35,32.17-10.65,48.88-7.61c16.71,3.04,32.52,12.54,41.5,26.97c7.87,12.66,11.12,28.22,10.03,43.07
		c-0.93,12.81-0.78,27.18,1.19,39.88c2.78,17.93,10.75,28.76,29.23,30.69c9.66,1.01,23.48,5.39,32.13,9.81
		c8.65,4.42,15.85,13.03,15.68,22.73c-1.69-7.05-6.93-12.25-13.75-14.74s-14.23-2.63-21.48-2.53c9.43-0.55,17.49,6.15,22.67,14.04
		c7.3,11.12,7.87,23.87,10.26,36.47c2.53,13.36,9.13,27.4,19.9,36.04c6.58,5.3,15.23,8.94,23.43,6.99
		c-1.29,1.66-2.08,2.49-3.74,3.78c-3.91,3.02-8.63,4.81-13.32,6.35c-6.48,2.14-13.07,3.91-19.75,5.3
		c-9.56,1.99-19.67,3.15-28.98,0.18c-12.25-3.91-24.48-9.95-30.18-22.18c-5.65-12.15-4.87-26.27-15.97-35.58
		c5.8,10.9,7.98,17.72,5.32,29.79c-2.04,9.29-7.2,18.52-15.83,22.51c15.33-7.11,8.18-28.18,2.82-39.55
		C1721.67,772.53,1716.9,766.03,1711.23,760.44z" class="st3"></path>
	<path d="M1662.8,647.77c-7.28,23.95-14.43,50.16-3.35,73.1c4.26,8.82,11.12,16.63,19.65,22.41
		c7.3,4.95,19.82,9.04,27.69,13.16" class="st6"></path>
	<g>
		<path d="M1659.18,657.76c9.5,0.33,20.74-9.83,19.67-20.02c-0.95-9.13-12.95-11.2-18.01-4.13" class="st2"></path>
		<path d="M1661.25,644.75c0.18-5.57,8.39-6.33,11.49-2.69" class="st6"></path>
		<path d="M1661.34,644.07c2.12-2.73,5.8,0.88,6.23,3.25" class="st6"></path>
	</g>
	<path d="M1725.7,616.71c0.33,16.9,0.66,44.85,10.13,59.24c10.75,16.34,29.77,17.35,46.01,9.42" class="st6"></path>
	<path d="M1772.86,714.1c9.23,3.47,16.3,5.34,22.73,13.63c5.08,6.54,8.76,15.21,10.98,23.09
		c4.44,15.75,10.98,49.89,36.53,38.44" class="st6"></path>
	<path d="M1683.21,906.12c18.4,48.23,30.18,101.9,58.42,144.45" class="st10"></path>
	<polygon points="1738.79,968.61 1688.02,984.38 1686,977.24 1737.25,961.99" class="st2"></polygon>
	<path d="M1696.04,720.91c-19.14-3.7-38.87,13.49-52.66,24.54c-16.88,13.53-34.39,31.99-55.77,37.97
		c-18.5,5.18-41.69,3.54-56.72-9.44" class="st1"></path>
	<g>
		<g>
			<path d="M1539.64,768.33l-20.02,9.76l-58.71-35.48l22.04-8.55L1539.64,768.33z" class="st2"></path>
		</g>
		<g>
			<polygon points="1524.6,763.32 1512.78,769.89 1475.92,747.61 1489.75,742.25" class="st9"></polygon>
		</g>
		<g>
			<polygon points="1534.63,773.96 1530.64,776.02 1528.38,774.66 1520.86,770.12 1524.84,768.04 1532.82,772.94" class="st9"></polygon>
		</g>
	</g>
	<path d="M1818.67,1275.15c-7.59,5.61-14.84,11.63-21.75,18.03" class="st10"></path>
	<path d="M1517.34,1128.77c-7.01-7.22-14.76-17.8-24.15-22.49" class="st10"></path>
	<path d="M1507.56,1132.77c-5.51-3.91-11.29-7.36-17.33-10.32" class="st10"></path>
	<path d="M1682.82,1105.19c13.69,0.51,27.26,2.12,40.7,4.87" class="st10"></path>
	<path d="M1660.08,1099.74c-8.35-5.47-16.34-11.63-23.99-17.99" class="st10"></path>
</g>
<g>
	<g>
		<path d="M997.25,686.23c-7.34-13.61-1.29-102.49-3.95-108.76c-1.44-3.39-10.92-6.5-11.49-10.15
			c-1.32-8.78,11.96-19.94,18.85-25.53c2.24,7.32,3.86,19.26,7.22,26.13c2.88,5.88-2.38,63.46,2.3,68.04
			C1014.86,640.55,1002.34,695.65,997.25,686.23z" class="st2"></path>
		<path d="M996.65,579.42c-0.88-18.99-5.78-31.96-8.78-50.73c-1.34-8.37-10.38-40.64-14.99-49.46
			c-2.88,0.12-18.85-1.3-24.3-1.62c-15.91-0.9-31.97-4.69-47.88-6.95c0,0,17.08,40.31,23.19,56.84
			c9.74,26.33,13.65,52.19,9.79,80.37C937.55,606.55,981.17,588.18,996.65,579.42z" class="st2"></path>
		<path d="M998.69,578.78c1.01-18.97-2.59-32.36-3.7-51.33c-0.51-8.47-6.29-41.46-10.01-50.71
			c-2.86-0.18-18.64-3.17-24.03-4.01c-15.73-2.47-31.35-7.85-46.97-11.66c0,0,12.99,41.81,17.45,58.87
			c7.09,27.16,8.41,53.28,1.79,80.93C937.22,599.91,982.43,585.96,998.69,578.78z" class="st2"></path>
		<path d="M996.14,580.74c3.51-18.67,1.67-32.42,3.08-51.39c0.62-8.45-0.8-41.93-3.27-51.58
			c-2.82-0.55-18.05-5.59-23.29-7.13c-15.27-4.52-30.05-11.9-45.02-17.72c0,0,7.4,43.15,9.56,60.64
			c3.47,27.87,1.34,53.92-8.86,80.46C932.43,593.62,979.09,585.73,996.14,580.74z" class="st2"></path>
		<path d="M1002.57,561.47c0,0-9.74-5.12-11.06-19.06c-0.25-2.63-0.35-5.1-1.13-7.48c-1.11-3.37-3.58-6-5.04-9.19
			c-0.74-1.62-3.37-10.07-0.35-11.1c2.2-0.74,5.86,5.8,7.11,6.99c4.6,4.4,9.5,8.61,13.48,13.88c4.26,5.65,6.76,17.37,6.45,24.28
			c-0.29,6.7,22.32,115.12,18.46,119.56l-32.21,9.58" class="st2"></path>
	</g>
	<g>
		<path d="M1336.34,1027.73c-2.28,0.18-4.44-1.27-5.08-3.56l-27.16-99.62c-0.7-2.59,0.82-5.26,3.41-5.98l134.97-36.8
			c2.59-0.7,5.26,0.82,5.98,3.41l27.16,99.62c0.7,2.59-0.82,5.26-3.41,5.98L1336.34,1027.73z" class="st9"></path>
		<path d="M1340.13,1030.3l-1.58-5.76c-2.28,0.18-4.44-1.27-5.08-3.56l-27.16-99.62c-0.7-2.59,0.82-5.26,3.41-5.98
			l134.97-36.8c2.59-0.7,5.26,0.82,5.98,3.41l27.16,99.62c0.7,2.59-0.82,5.26-3.41,5.98l-85,23.17l1.54,5.67
			c0.7,2.59-0.82,5.26-3.41,5.98l-41.48,11.31C1343.52,1034.43,1340.84,1032.89,1340.13,1030.3z" class="st9"></path>
		<path d="M1351.76,992.54c-0.99,0-2.03-1.01-2.41-2.47l-14.33-52.54c-0.45-1.64,0.08-3.21,1.19-3.51l10.67-2.9
			c1.09-0.29,2.36,0.78,2.8,2.41l14.33,52.54c0.45,1.64-0.08,3.21-1.19,3.51L1351.76,992.54z" class="st2"></path>
	</g>
	<g>
		<path d="M1353.63,1039.22c-2.22,0.55-4.6-0.55-5.57-2.73l-42.59-94.05c-1.11-2.45-0.02-5.34,2.43-6.45l127.45-57.7
			c2.45-1.11,5.34-0.02,6.45,2.43l42.59,94.05c1.11,2.45,0.02,5.34-2.43,6.45L1353.63,1039.22z" class="st2"></path>
		<path d="M1357.8,1041.17l-2.45-5.43c-2.22,0.55-4.6-0.55-5.57-2.73l-42.59-94.05c-1.11-2.45-0.02-5.34,2.43-6.45
			l127.45-57.7c2.45-1.11,5.34-0.02,6.45,2.43l42.59,94.05c1.11,2.45,0.02,5.34-2.41,6.45l-80.25,36.34l2.43,5.36
			c1.11,2.45,0.02,5.34-2.43,6.45l-39.16,17.72C1361.77,1044.69,1358.89,1043.6,1357.8,1041.17z" class="st2"></path>
		<path d="M1363.29,1002.02c-0.97,0.16-2.16-0.68-2.77-2.06l-22.45-49.6c-0.7-1.54-0.43-3.17,0.6-3.64l10.07-4.56
			c1.03-0.47,2.45,0.41,3.15,1.95l22.45,49.6c0.7,1.54,0.43,3.17-0.6,3.64L1363.29,1002.02z" class="st2"></path>
	</g>
	<g>
		<path d="M1381.05,1047.34c-2.12,0.88-4.63,0.16-5.92-1.85l-56.34-86.54c-1.46-2.26-0.84-5.26,1.42-6.74l117.25-76.33
			c2.26-1.46,5.26-0.84,6.74,1.42l56.34,86.54c1.46,2.26,0.84,5.26-1.42,6.74L1381.05,1047.34z" class="st9"></path>
		<path d="M1385.45,1048.62l-3.25-5c-2.12,0.88-4.63,0.16-5.92-1.85l-56.34-86.54c-1.46-2.26-0.84-5.26,1.42-6.74
			l117.25-76.33c2.26-1.46,5.26-0.84,6.74,1.42l56.34,86.54c1.46,2.26,0.84,5.26-1.42,6.74l-73.82,48.06l3.21,4.93
			c1.46,2.26,0.84,5.26-1.42,6.74l-36.03,23.45C1389.93,1051.51,1386.91,1050.88,1385.45,1048.62z" class="st9"></path>
		<path d="M1384.96,1009.11c-0.95,0.29-2.24-0.35-3.06-1.62l-29.72-45.63c-0.93-1.42-0.9-3.08,0.06-3.7l9.27-6.04
			c0.95-0.62,2.47,0.02,3.41,1.44l29.72,45.63c0.93,1.42,0.9,3.08-0.06,3.7L1384.96,1009.11z" class="st2"></path>
	</g>
	<path d="M1093.24,834.95c-27.22-40.76-64.61-90.98-92.85-131.37c0,0,29.03-32.38,39.36-31.8
		c0,0,23.21,25.82,40.27,44.55c9.48,10.42,41.4,38.26,52.73,45.7" class="st9"></path>
	<path d="M1101.01,826.98c-27.22-40.76-64.61-90.98-92.85-131.37" class="st10"></path>
	<g>
		<g>
			<path d="M1030.26,664.63c3.19-0.58,9.62-3.91,12.54-2.04c3.95,2.51-0.99,7.03,4.67,8.65
				c2.94,0.84,8.63,0.74,6.87,6.06c-1.79,5.37-13.94,10.53-18.32,13.28c-9.83,6.11-19.88,13.11-30.44,17.82
				c-4.54,2.03-11.57,6.04-14.78,0.47c-2.53-4.4-0.86-8.49-4.52-12.5c-3-3.29-6.43-5.37-2.82-9.48
				C988.61,680.99,1008.29,672.33,1030.26,664.63z" class="st9"></path>
			<path d="M984.01,693.94c2.73,2.94,5.84,5.84,8.92,8.41" class="st6"></path>
			<path d="M1029.38,671.9c5.96-0.86,11.31-1.21,17.33-0.51" class="st6"></path>
			<path d="M1031.51,683.46c-12.11,3.14-25.26,8.55-38.01,8.39" class="st10"></path>
		</g>
	</g>
	<path d="M1048.27,863.06c17.72-5.73,24.3-29.68,31.64-44.44c12.75-25.67,28.53-46.99,46.81-68.72" class="st1"></path>
	<path d="M1114.56,694.21c-6.27,5.41-12.19,9.48-19.84,12.66" class="st6"></path>
	<path d="M1122.52,682.22c-1.77,12.09-7.32,24.69-16.1,33.32c10.71,5.84,24.05,0.76,30.65-8.8
		c-2.69,6.7-7.75,10.94-11.98,16.34c9-0.8,20.17-6.56,23.97-15.03c3.6-8.04,2.65-16.61-1.93-24.01
		C1141.28,674.57,1130.45,668.88,1122.52,682.22z" class="st3"></path>
	<path d="M1066.93,1250.91c-20.08,17.72-33.45,24.91-26.13,50.45c3.56,12.44,84.24,179.09,85.8,187.56
		c2.53,13.79-6.52,36.2-12.72,62.9c-7.22,31.12,27.09,6.5,34.39-5.34c6.46-10.5,4.42-19.36,8.22-30.81
		c3.82-11.45,13.63-20.21,10.11-33.03c-3.06-11.1-15.66-14.59-21.46-24.07c-10.4-17-19.22-63.44-22.39-82.9
		c-2.49-15.25-5.86-29.91-11.37-44.11c-4.67-12.03-14.06-22.88-17.43-34.97" class="st2"></path>
	<path d="M1116.18,1540.71c-5.9,8.12-26.89,32.31-28.43,34.31c-2.4,3.12,0.72,4.03,4.65,3.91
		c11.27-0.33,51.08-12.91,56.61-19.14c7.05-7.95,6.78-17.47,8.2-27.46c1.34-9.44,2.32-19.38,7.56-25.68
		c5.41,16.71,8.76,28.96,13.81,45.51c1.66-1.34,3.56-3.06,5.59-3.8c0,0-6.11-27.59-7.52-40.62c-1.71-15.75-2.67-25.96-16.32-34.78
		c-2.78,15.13-9.93,32.21-16.42,46.23C1138.67,1530.44,1128.46,1537.61,1116.18,1540.71z" class="st9"></path>
	<path d="M1070.53,1303.17c16.61,20.99,23.08,34.74,48.97,28.78c12.6-2.9,183.34-74.56,191.87-75.67
		c13.9-1.79,35.81,8.43,62.14,16.07c30.69,8.88,7.95-26.72-3.49-34.62c-10.15-7.01-19.08-5.43-30.32-9.85
		c-11.24-4.42-19.45-14.7-32.42-11.86c-11.26,2.45-15.4,14.86-25.18,20.15c-17.55,9.46-64.38,15.79-83.97,17.93
		c-15.34,1.67-30.18,4.25-44.65,9c-12.27,4.03-23.58,12.81-35.85,15.54" class="st2"></path>
	<path d="M1362.55,1269.49c7.79,6.33,30.83,28.57,32.73,30.22c2.98,2.57,4.07-0.51,4.17-4.44
		c0.27-11.27-10.16-51.7-16.08-57.54c-7.56-7.48-17.08-7.69-26.99-9.66c-9.35-1.85-19.22-3.35-25.26-8.92
		c16.98-4.5,29.38-7.2,46.17-11.35c-1.27-1.71-2.86-3.72-3.49-5.78c0,0-27.89,4.63-40.95,5.36c-15.83,0.88-26.07,1.29-35.6,14.43
		c14.96,3.58,31.62,11.63,45.27,18.87C1353.51,1246.49,1360.11,1257.04,1362.55,1269.49z" class="st9"></path>
	<path d="M1200.16,795.98c-9.17-21.34-23.89-42.8-23.54-66.91c0.25-17.27,2.82-35.75,6.17-52.73
		c-13.38,1.75-36.9,13.79-50.26,15.64c0,0,1.54,48.08-38.05,114.81" class="st2"></path>
	<path d="M1221.02,627.89c-3.76-23.39-23.64-39.63-50.18-41.98c-5.84-0.53-11.74-0.43-17.55,0.29
		c-18.11,2.22-34.99,11.64-41.69,29.38c-6.6,17.47-3.78,32.85-19.77,44.89c4.19,6.45,8.28,6.23,9.52,13.83
		c1.03,6.25-3.49,14.92,1.19,20.08c0.04,0.04-0.04-0.04,0,0c6.8,8.32,33.4,11.63,47.07,11.39c31.86-0.55,62.53-24.2,70.22-55.3
		C1221.82,642.42,1222.13,634.84,1221.02,627.89z" class="st5"></path>
	<path d="M1112.73,632.99c12.56-4.97,22.12,8.37,22.12,8.37" class="st6"></path>
	<path d="M1120.3,647.07c-0.9,2.28-2.78,3.68-4.21,3.12s-1.85-2.86-0.95-5.14c0.9-2.28,2.78-3.68,4.21-3.12
		C1120.79,642.49,1121.2,644.79,1120.3,647.07z"></path>
	<path d="M1135.98,666.89c2.2-4.89,0-10.63-4.89-12.83c-4.89-2.2-10.63,0-12.83,4.89s0,10.63,4.89,12.83
		C1128.03,673.98,1133.78,671.8,1135.98,666.89z" class="st7"></path>
	<path d="M1115.32,676.49c-4.46-0.02-9.29-0.58-13.92-1.67c0.53,4.56-0.7,6.35-0.95,11.26
		C1100.73,686.11,1111.25,690.28,1115.32,676.49z" class="st2"></path>
	<path d="M1188.77,693.18c15.05-9.99,26.72-25.18,31.04-42.72c1.99-8.02,2.3-15.6,1.19-22.55
		c-3.76-23.39-23.64-39.63-50.18-41.98c-5.84-0.53-11.74-0.43-17.55,0.29c-18.11,2.22-34.99,11.64-41.69,29.38
		c-6.6,17.47-3.78,32.85-19.77,44.89c4.19,6.45,8.28,6.23,9.52,13.83c1.03,6.25-3.49,14.92,1.19,20.08c0.04,0.04-0.04-0.04,0,0
		c5.55,6.8,24.28,10.24,38.44,11.16" class="st6"></path>
	<g>
		<g>
			<path d="M1373.55,876.79c5.84,9.91,60.7,92.09,61.96,97.81c0.9,4.03-1.75,22.04,1.07,27.2
				c2.78,5.12,5.63,15.44,12.58,15.19c2.34,2.12,4.95,6.95,9.19,3.31c2.59-2.22,1.23-4.79,0.55-7.58c4.91,2.18,7.09-4.42,6.41-8
				c2.86,0.41,4.6-1.87,5.86-3.97c0.62-1.03,0-2.36,0.66-3.33c0.84-1.25,2.65-1.34,3.49-2.67c3.76-5.98-5.3-18.89-8.78-23.04
				c-3.56-4.23-11.63-8.92-14.18-14.2c-5.98-12.44-35.21-84.42-45.27-101.08L1373.55,876.79z" class="st2"></path>
			<path d="M1450.64,1018.52c0,0-1.01-1.32-2.06-2.94c-2.4-3.66-5.37-7.85-7.5-11.68" class="st6"></path>
			<path d="M1459.31,1013.98c-1.07-2.36-2.3-4.58-3.6-6.82" class="st6"></path>
			<path d="M1450.84,1006.68c-0.31-1.11-1.01-2.04-1.6-3.04" class="st6"></path>
			<path d="M1460.48,1001.79c-0.62-1.21-1.15-2.38-2.14-3.31" class="st6"></path>
			<path d="M1467.39,996.34c-0.66-0.93-1.32-1.87-2.03-2.78" class="st6"></path>
			<path d="M1473.16,990.96c-0.39-1.15-1.07-2.06-2.03-2.77" class="st6"></path>
		</g>
		<g>
			<path d="M1449.88,949.39l2.55,5.55c-17.1,5.45-22.39,11.22-22.47,11.27l-2.61-5.61
				C1427.67,960.33,1432.18,955.04,1449.88,949.39z" class="st3"></path>
			<path d="M1432.94,957.84c0.12,3.62,3.15,6.45,6.76,6.33c3.62-0.12,6.45-3.15,6.33-6.76
				c-0.12-3.62-3.15-6.45-6.76-6.33C1435.65,951.2,1432.83,954.22,1432.94,957.84z" class="st3"></path>
			<path d="M1434.48,957.78c0.1,2.77,2.41,4.95,5.18,4.85c2.77-0.1,4.95-2.41,4.85-5.18c-0.1-2.77-2.41-4.95-5.18-4.85
				C1436.55,952.7,1434.38,955.02,1434.48,957.78z" class="st11"></path>
		</g>
	</g>
	<g>
		<g>
			<path d="M1047.49,853.83l-1.64,21.34l-57.93,31.47l3.6-22.43L1047.49,853.83z" class="st2"></path>
		</g>
		<g>
			<polygon points="1036.04,863.86 1035.75,876.85 999.38,896.62 1001.63,882.54" class="st9"></polygon>
		</g>
		<g>
			<polygon points="1049.73,860.71 1049.52,865.03 1047.3,866.24 1039.86,870.27 1040.06,865.97 1048.02,861.72" class="st9"></polygon>
		</g>
	</g>
	<path d="M1261.64,843.22c-11.94,20.72-33.08,75.52-38.54,98.65c-3.95,16.69-8.76,32.15-10.44,49.25
		c-1.05,10.75-3.08,19.65-14.06,24.42c-12.81,5.57-28.94,6.19-42.7,6.54c-11.27,0.29-50.05-10.92-52.19-24.56
		c-2.73-17.19-6.37-57.78-9.33-74.93c-4.52-26.11-12.79-54.62-11.92-72.98c0.97-20.33,12.58-49.05,24.67-70.43
		c4.81-2.2,13.61-5.51,18.13-11.43c8.68-11.39,11.7-27.26,11.7-27.26c20.02-8.68,33.69-18.23,43.46-21.03
		c7.09,5.82,15.89,18.73,15.89,18.73s45.33-1.67,62.14,10.9c44.24,33.14,92.63,63.72,138.71,95.48c0,0-15.91,40.48-25.78,43.54
		c0,0-30.77-16.08-53.3-27.67c-20.82-10.71-41.38-16.79-65.74-17.9" class="st9"></path>
	<path d="M1368.31,869.22c0,0-38.4-20.23-60.93-31.82c-20.82-10.71-41.38-16.79-65.74-17.9" class="st10"></path>
	<path d="M1245.71,837.19c-11.55-23.33-10.34-66.33,4.26-87.53" class="st10"></path>
	<path d="M1176.95,751.04c12.5-2.41,61.13,0.72,67.67,7.24" class="st10"></path>
	<path d="M1238.76,818.12c-11.47,23.99-27.34,46.05-38.91,70.43c-15.97,33.69-19.77,73.43-22.18,110.94" class="st10"></path>
	<path d="M1101.84,991.2c1.69,52.46-27.38,113.43-40.15,163.26c-12.72,49.58-32.23,98.79-34.88,149.2
		c47.12,16.98,134.87-25.88,178.18-51.31c-8.08-26.42-22-42.84-5.73-75.65c14.53-29.25,37.35-69.99,38.62-104.59
		c0.93-25.67-11.2-60.68-24.58-80.42C1196.09,999.06,1120.99,1001.65,1101.84,991.2z" class="st2"></path>
	<g>
		<g>
			<path d="M1382.76,891.5c-2.78,1.67-7.63,7.03-11.02,6.29c-4.58-0.97-1.52-6.95-7.4-6.47
				c-3.04,0.25-8.35,2.32-8.55-3.27c-0.19-5.67,9.37-14.74,12.52-18.83c7.07-9.17,14.04-19.22,22.3-27.32
				c3.54-3.49,8.74-9.7,13.69-5.59c3.91,3.23,3.76,7.65,8.61,10.15c3.95,2.04,7.91,2.78,5.96,7.91
				C1416.08,861.62,1400.66,876.62,1382.76,891.5z" class="st9"></path>
			<path d="M1415.87,847.88c-3.58-1.79-7.52-3.45-11.29-4.77" class="st6"></path>
			<path d="M1381.07,884.39c-5.28,2.88-10.18,5.08-16.07,6.52" class="st6"></path>
			<path d="M1375.01,874.3c10.24-7.17,20.68-16.84,32.68-21.13" class="st10"></path>
		</g>
	</g>
	<path d="M1191.85,1208.71c-1.34-29.79,9.07-51.84,10.26-76.59" class="st6"></path>
	<path d="M1174.46,998.01c2.22-0.78,2.3,40.99,1.44,50.05c-1.79,18.6-4.15,35.11-10.05,52.64
		c-16.45,48.84-26.64,108.62-20.97,180.85" class="st10"></path>
	<path d="M1139.43,997.62c-2.18,25.86-4.65,58.19-7.3,84.01" class="st10"></path>
	<path d="M1048.23,864.06c8.18-6.89,19.78-10.71,28.43-17.56c9.72-7.69,17.9-15.38,26.25-24.54
		c10.73-11.76,17.14-24.98,24.42-39.04c4.42-8.53,9.54-15.99,14.76-23.89c2.65-4.03,5.36-7.42,8.18-10.42" class="st1"></path>
	<path d="M1137.99,741.75c9.06,0,9.13,23.6,12.64,30.09c10.65-11.57,33.42-24.09,45.7-33.65" class="st9"></path>
	<path d="M1156.04,998.44c3.23-16.42,6.21-33.2,7.36-49.91" class="st10"></path>
	<path d="M1120.73,994.74c-0.9-11.16-0.56-22.57-2.3-33.63" class="st10"></path>
	<path d="M1209.45,687.59c-3.47,14.45-10.24,21.34-24.22,27.61c-8.35,3.76-26.66,9.21-26.66,9.21
		c7.81-8.31,13.55-24.81,14.84-36.43c-2.18,9.74-11.57,22.04-21.17,25.53c14.18-22.73,15.79-38.11,14.94-59.55
		c-0.47-11.68-9.33-15.52-16.16-25.1c-7.83-10.98-12.5-23.85-12.5-23.85c-2.47-4.13-4.73-8.41-9.23-7.44
		c-9.72,2.12-16.22,15.36-19.51,23.54c3.7-20.56,18.99-33.57,37.31-39.53c7.32-2.38,19.04-3.84,25.67,1.29
		c37.88-6.37,81.05,34.04,73,77.95c-1.48,8.12-3.72,15.21-7.21,22.55c4.07-9.72,2.12-23.04,0.39-33.34
		c-0.39,22.02-8.8,51.16-30.9,61.77C1210.66,702.18,1211.36,697.17,1209.45,687.59z" class="st3"></path>
	<path d="M1166.96,672.5c-1.48,10.13-7.77,29.19-19.69,30.2" class="st6"></path>
	<path d="M1126.3,597.73c12.01,0.8,12.6,17.78,15.73,26.31c2.73,7.4,15.79,25.84,25.39,25.31" class="st6"></path>
	<path d="M1163.42,580.84c-18.69,1.21-34.7-1.46-47.61,14.62c-10.92,13.61-7.52,26.64-10.05,42.32" class="st6"></path>
	<path d="M1122.48,826.49c-0.62,13.2-1.54,25.31-0.27,41.24c0,0,13.03,13.22,17.84,17.88
		c9.93-5.28,25.98-15.31,25.98-15.31c6.23-20.6,7.19-40.33,7.19-40.33L1122.48,826.49z" class="st10"></path>
	<path d="M1127.63,826.75c-0.49,10.53-1.5,26.07-0.51,38.77c0,0,10.4,10.53,14.23,14.25
		c7.93-4.21,20.72-12.21,20.72-12.21c4.97-16.44,6.02-38.05,6.02-38.05" class="st10"></path>
	<line y2="838.28" x2="1122.89" y1="841.62" x1="1171.67" class="st10"></line>
	<g>
		<path d="M1163.75,674.94c9.11,0.19,19.77-9.7,18.6-19.45c-1.03-8.74-12.58-10.57-17.33-3.72" class="st2"></path>
		<path d="M1165.56,662.41c0.1-5.36,7.96-6.19,10.98-2.73" class="st6"></path>
		<path d="M1165.66,661.77c1.99-2.65,5.59,0.76,6.02,3.04" class="st6"></path>
	</g>
	<path d="M1169.18,679.73c-0.41,4.42-2.49,7.85-4.65,7.65c-2.16-0.19-3.58-3.95-3.17-8.37
		c0.41-4.42,2.49-7.85,4.65-7.65C1168.17,671.57,1169.59,675.31,1169.18,679.73z" class="st9"></path>
	<path d="M1172.47,583.32c31.57-14.8,67.34,15.77,73.9,46.01c2.32,10.67,1.99,25.55-2.24,38.65" class="st6"></path>
</g>
<g>
	<path d="M389.27,1537.83c-3.8-4.73-0.68-12.58,2.73-15.5c22.12-3.14,61.34-18.3,66.68-18.29
		c1.64,0.02,3.14,0.86,3.95,2.26c3,5.12,4.4,15.48-3.86,15.31C458.78,1521.58,420.79,1538.72,389.27,1537.83z" class="st2"></path>
	<path d="M390.88,1543.16c0.58-5.9,5.26-12.91,10.65-15.7c4.34-2.24,46.21-18.79,48.8-18.73
		c5.67,0.12,8.37,6.11,12.15,9.58c5.43,4.99,12.01,7.46,19.43,7.28c6.78-0.16,11.31-5.2,16.07-10.2c2.9,1.38,4.48,6.48,4.93,9.43
		c1.5,9.8,0.62,21.13-1.83,30.67" class="st2"></path>
	<path d="M395.73,1533.33c1.15-3.17,2.88-8.84,1.29-12.11c-10.13-1.21-24.91,1.77-32.77,8.51
		c0,0,11.88,8.16,17.43,10.83C387.44,1543.34,393.41,1539.79,395.73,1533.33z" class="st2"></path>
	<path d="M503.42,1551.38c-6.6,1.27-13.11,1.64-19.92,1.5c-9.89-0.21-19.77-1.6-29.64-2.2
		c-8.3-0.51-66.5-7.65-89.61-20.97c-1.93,2.78-1.71,7.96-1.17,11.06c0.86,3.49,29.37,11.04,37.8,13.28
		c20.21,5.35,32.89,5.76,53.61,7.03c18.91,1.15,26.41,3.76,45.39,3.58C501.96,1564.66,503.94,1553.89,503.42,1551.38z" class="st2"></path>
	<path d="M441.14,1506.59c2.04,2.96,3.86,12.42,3.86,12.42" class="st6"></path>
	<path d="M433.55,1508.91c1.21,2.53,2.77,12.64,2.77,12.64" class="st6"></path>
	<path d="M425.93,1510.91c0.64,3.41,1.13,9.74,1.81,13.16" class="st6"></path>
	<path d="M417.37,1514.03c0,0,0.68,9.52,0.97,12.79" class="st6"></path>
	<path d="M408.52,1516.85c0,0-0.19,8.68,0.06,12.81" class="st6"></path>
</g>
<path d="M2289.35,765.93c-30.73,2.96-123.89-1.75-152.03-9.11c-5.08-5.55-8.33-1.5-13.88-2.2
	c-17.7-2.26-96.61-56.86-108.64-70.69c-12.05,5.14-24.05,17.37-28.18,29.6c29.29,33.36,64.61,65.47,97.68,88.17
	c13.98,9.6,32.31,10.9,48.37,15.09c68.56,17.9,139.1,27.18,208.15,43.04" class="st3"></path>
<path d="M2040.07,705.74c-13.36,5.49-26.64,18.54-31.23,31.57" class="st4"></path>
<path d="M2011.66,731.13c24.52,25.14,51.55,48.45,77.23,66.07c13.98,9.6,32.31,10.9,48.37,15.09
	c38.85,10.15,78.34,17.53,117.83,24.89" class="st4"></path>
<path d="M2123.52,760.27c-2.86,4.34-5.92,8.41-7.5,13.4" class="st4"></path>
<path d="M2131.05,760.56c-2.9,9.93-5.47,19.8-7.98,29.83" class="st4"></path>
<path d="M2003.11,719.59c-0.1-1.69-1.54-3-3.23-2.9c-1.69,0.1-3,1.54-2.9,3.23s1.54,3,3.23,2.9
	C2001.89,722.72,2003.19,721.28,2003.11,719.59z" class="st4"></path>
<path d="M2173.23,893.68c17.74-7.79,22.02-33.3,28.04-49.34c10.5-27.9,30.94-53.34,47.57-77.76" class="st12"></path>
<path d="M2337.84,784.37c-16.61-17.19-38.61-32.46-47.05-55.79c-6.06-16.71-10.32-35.44-13.3-52.99
	c-12.23,6.56-30.48,26.74-42.65,33.38c0,0,18.11,76.63,30.79,150.8" class="st2"></path>
<path d="M2308.18,623.97c-7.36-23.23-30.07-36.77-57.43-35.15c-6.02,0.35-12.01,1.34-17.82,2.94
	c-18.09,5-33.84,17.14-37.99,36.2c-4.07,18.77,1.11,34-13.34,48.68c5.24,5.92,9.37,5.1,11.78,12.64c2.01,6.21-1.3,15.7,4.25,20.25
	c0.04,0.04-0.04-0.04,0,0c8.16,7.44,35.73,6.78,49.64,4.48c32.34-5.37,59.98-34.08,63.11-66.91
	C2311.18,638.64,2310.36,630.87,2308.18,623.97z" class="st5"></path>
<path d="M2198.74,645.51c12.03-6.95,23.78,5.18,23.78,5.18" class="st6"></path>
<path d="M2208.57,658.71c-0.56,2.45-2.28,4.17-3.82,3.8c-1.54-0.35-2.32-2.63-1.75-5.08c0.56-2.45,2.28-4.17,3.82-3.8
	C2208.36,653.98,2209.14,656.26,2208.57,658.71z"></path>
<path d="M2227.52,676.53c1.5-5.32-1.62-10.83-6.93-12.33c-5.32-1.5-10.83,1.62-12.33,6.93
	c-1.5,5.32,1.62,10.83,6.93,12.33C2220.51,684.96,2226.02,681.83,2227.52,676.53z" class="st7"></path>
<path d="M2207.95,689.42c-4.54,0.64-9.54,0.82-14.43,0.41c1.23,4.56,0.25,6.56,0.72,11.61
	C2194.55,701.4,2205.89,704.05,2207.95,689.42z" class="st2"></path>
<path d="M2285.24,695.28c13.81-12.44,23.39-29.66,25.14-48.18c0.8-8.47-0.02-16.22-2.2-23.13
	c-7.36-23.23-30.07-36.77-57.43-35.15c-6.02,0.35-12.01,1.34-17.82,2.94c-18.09,5-33.84,17.14-37.99,36.2
	c-4.07,18.77,1.11,34-13.34,48.68c5.24,5.92,9.37,5.1,11.78,12.64c2.01,6.21-1.3,15.7,4.25,20.25c0.04,0.04-0.04-0.04,0,0
	c6.66,6.08,26.27,6.76,40.82,5.55" class="st6"></path>
<path d="M2506.41,1366.64c-7.34,0.49-14.74,0.92-22.24,1.27c-19.12,0.88-54.8,3.45-73.57-3.23
	c-14.68-0.88-26.85-17.1-32.89-28.26c-5.26-9.72-10.03-19.69-14.35-29.99c-28.86-68.84-45.39-206.63-43.95-279.34l126.38-31.41
	l-3.04,105.8c-5.35,62.26-8.88,130.22-6.45,173.82c11.24-4.11,4.81,6.06,11.27,8.9c5.9,2.59,38.11,3.82,54.82,5.63L2506.41,1366.64z" class="st2"></path>
<path d="M2419.18,1103.56c-5.35,62.26,5.45,146.87,7.89,190.49c11.24-4.11,4.81,6.06,11.27,8.9
	c5.9,2.59,38.11,3.82,54.82,5.63c2.49,0.27,4.97,0.53,7.46,0.78" class="st10"></path>
<path d="M2122.35,1397.25c-7.69,20.62-14.35,41.4-24.44,60.74c-12.95,24.85-62.53,30.18-87.02,28.18
	c-14.43-1.19-32.23,3.02-12.11,16.94c15.33,10.59,25,12.09,43.29,11.27c16.63-0.74,28.57,5.84,43.35,11.29
	c17.92,6.6,24.87-3.66,28.98-20.37c8.49-34.43,28.27-65.92,48.04-97.19" class="st2"></path>
<path d="M2323.76,1058.73c-14.27,16.9-31.6,33.45-41.03,42.22c-36.45,33.94-71.89,69.52-104.41,107.37
	c-12.99,15.11-23.41,49.33-29.48,67.47c-17.58,52.64-29.07,102.53-47.98,151.01c12.15,19.3,41.19,24.48,54.78,26.31
	c22.67-47.71,41.17-96.63,65.39-143.57c7.71-14.94,27.81-51.35,32.36-55.93c4.99-5.02,12.15,4.63,12.37-7.32
	c40.35-14.94,87.02-43.31,124.47-64.88c24.46-14.1,48.57-28.72,66.23-50.94c32.68-41.07,11-86.81-8.12-127.63" class="st2"></path>
<path d="M2132.24,1448.07c22.67-47.71,40.52-108.7,64.75-155.65c7.71-14.94,27.81-51.35,32.36-55.93
	c4.99-5.02,12.15,4.63,12.37-7.32c40.35-14.94,154.56-88.76,172.22-110.98c20.97-26.35,19.55-54.64,10.79-82.31" class="st10"></path>
<path d="M2433.76,1283.97c-3.06,4.75-6.09,9.52-9.15,14.27" class="st10"></path>
<path d="M2443.65,1287.36c-4.89,11.66-9.29,23.89-15.07,35.19" class="st10"></path>
<path d="M2257.26,1243.72c-5.49-5.49-12.25-12.03-16.84-18.13" class="st10"></path>
<path d="M2247.56,1246.55c-12.4-6.19-24.54-12.7-36.67-19.4" class="st10"></path>
<path d="M2289.89,712.4c-14.86,15.71-36.69,32.77-50.28,49.66c0,0,9.68,49.85,12.01,60.17
	c4.58,20.1,9.42,40.37,15.25,60.13c14.96,50.84,33.14,105.17,52.46,154.52c22.63,6.02,97.58-17.53,129.01-34.08
	c-17.92-47.3-36.53-138.55-48.62-167.7C2376.96,780.25,2323.7,730.43,2289.89,712.4z" class="st3"></path>
<path d="M2320.41,1056.04c24.44,5.92,102.97-16.67,137.05-33.38" class="st10"></path>
<path d="M2305.69,738.92c76.72,6.33,147.16,68.72,212.06,104.63l-3.64,58.36c-56.74-23.19-112.65-48.74-168.15-74.85" class="st3"></path>
<path d="M2520.38,897.77c-56.74-23.19-126.32-54.35-181.82-80.44" class="st4"></path>
<path d="M2240.47,766.46c2.41,12.42,9.25,47.32,11.16,55.77c1.56,6.85,3.15,13.71,4.79,20.56" class="st8"></path>
<path d="M2407.24,855.47c-20.51-9.35-40.91-18.85-61.28-28.43" class="st8"></path>
<path d="M2276.22,840.63c3.39,13.34,6.13,25.67,12.21,41.13c0,0,16.98,9.21,23.15,12.4c8.3-8.26,21.23-23.1,21.23-23.1
	c-0.04-22.39-5.04-42.31-5.04-42.31L2276.22,840.63z" class="st4"></path>
<path d="M2281.4,839.33c2.69,10.63,6.39,26.41,11.22,38.75c0,0,13.53,7.34,18.48,9.89c6.6-6.58,16.94-18.42,16.94-18.42
	c-0.02-17.88-5.51-39.69-5.51-39.69" class="st4"></path>
<line y2="852.24" x2="2280.18" y1="840.83" x1="2329.75" class="st4"></line>
<path d="M2351.49,829.65c21.19,60.02,37.76,129.63,54.84,190.58" class="st4"></path>
<path d="M2320.29,743.62c-7.42,25.47,8.61,59.02,21.38,80.25" class="st4"></path>
<path d="M2252.52,777.81c-0.1-1.69-1.54-3-3.23-2.9s-3,1.54-2.9,3.23c0.1,1.69,1.54,3,3.23,2.9
	C2251.32,780.95,2252.6,779.51,2252.52,777.81z" class="st4"></path>
<path d="M2264.17,834.3c-0.1-1.69-1.54-3-3.23-2.9c-1.69,0.1-3,1.54-2.9,3.23s1.54,3,3.23,2.9
	C2262.96,837.44,2264.27,836,2264.17,834.3z" class="st4"></path>
<path d="M2278.83,889.7c-0.1-1.69-1.54-3-3.23-2.9s-3,1.54-2.9,3.23c0.1,1.69,1.54,3,3.23,2.9
	S2278.93,891.38,2278.83,889.7z" class="st4"></path>
<path d="M2293.67,936.71c-0.1-1.69-1.54-3-3.23-2.9c-1.69,0.1-3,1.54-2.9,3.23c0.1,1.69,1.54,3,3.23,2.9
	C2292.46,939.87,2293.77,938.41,2293.67,936.71z" class="st4"></path>
<path d="M2308.37,981.58c-0.1-1.69-1.54-3-3.23-2.9c-1.69,0.1-3,1.54-2.9,3.23c0.1,1.69,1.54,3,3.23,2.9
	S2308.47,983.27,2308.37,981.58z" class="st4"></path>
<path d="M2397.27,1045.22c6.62,16.51,13.34,38.52,27.96,49.81" class="st10"></path>
<path d="M2173.29,894.71c7.73-8,19.34-13.18,27.57-21.19c9.23-9,16.9-17.82,24.56-28.18
	c9.85-13.32,15.09-27.67,21.13-43c3.66-9.31,8.2-17.55,12.76-26.31c2.32-4.44,4.75-8.26,7.36-11.66" class="st12"></path>
<g>
	<g>
		<path d="M2171.44,884.21l0.56,22.28l-56.65,38.71l1.36-23.6L2171.44,884.21z" class="st2"></path>
	</g>
	<g>
		<polygon points="2160.65,895.8 2161.72,909.29 2126.16,933.6 2127.02,918.78" class="st9"></polygon>
	</g>
	<g>
		<polygon points="2174.5,891.11 2174.71,895.58 2172.55,897.06 2165.29,902.03 2165.03,897.55 2172.82,892.31" class="st9"></polygon>
	</g>
</g>
<path d="M2241.13,763.05c7.24,5.88,18.73,13.9,26.07,19.65c14.55-20.54,25.59-38.75,38.6-60.42" class="st13"></path>
<path d="M2282.3,698.26c-7.22-2.55-13.96-14.76-17.68-21.15c-2.94-5.06-3.1-11.74-5.88-16.59
	c-5.72-10.03-21.52-9.87-25.68-21.21c1.52,5.49,1.97,9.39,7.17,15.52c-20.68-7.77-37.35-17.21-38.34-33.2
	c-0.29,5.06-4.3,13.65-1.95,18.67c-10.3-12.27-3.82-29.4,6.66-38.58c8.84-7.73,21.77-12.87,33.01-15.62
	c21.6-5.26,42.94,2.9,58.83,17.37c12.66,11.53,15.33,31.23,12.93,47.36c-1.3,8.84-4.48,16.84-9.5,24.26
	C2300.12,677.76,2284.52,699.06,2282.3,698.26z" class="st3"></path>
<g>
	<path d="M2257,680.5c9.31-1.19,18.64-12.85,15.99-22.61c-2.38-8.74-14.39-8.86-18.21-1.17" class="st2"></path>
	<path d="M2256.95,667.5c-0.72-5.45,7.17-7.5,10.77-4.44" class="st6"></path>
	<path d="M2256.95,666.82c1.64-3,5.8-0.08,6.58,2.18" class="st6"></path>
</g>
<g>
	<path d="M2008.9,1495.8c-3.19-5.14,0.84-12.58,4.58-15.07c22.34-0.45,63.11-10.79,68.41-10.13
		c1.62,0.21,3,1.23,3.66,2.73c2.36,5.43,2.49,15.91-5.67,14.72C2079.86,1488.07,2040.07,1500.5,2008.9,1495.8z" class="st3"></path>
	<path d="M2009.85,1501.31c1.29-5.78,6.78-12.17,12.46-14.29c4.58-1.69,48.14-13.09,50.71-12.74
		c5.63,0.8,7.57,7.07,10.9,10.96c4.79,5.61,11.04,8.86,18.42,9.56c6.74,0.66,11.84-3.8,17.18-8.2c2.73,1.73,3.66,6.97,3.76,9.95
		c0.31,9.89-1.93,21.05-5.51,30.22" class="st3"></path>
	<path d="M2009.85,1501.31c1.29-5.78,6.78-12.17,12.46-14.29c4.58-1.69,48.14-13.09,50.71-12.74
		c5.63,0.8,7.57,7.07,10.9,10.96c0.37,0.43,0.74,0.86,1.13,1.25" class="st4"></path>
	<path d="M2015.85,1492.12c1.52-3.02,3.91-8.43,2.73-11.88c-9.91-2.41-24.93-1.25-33.55,4.5c0,0,10.81,9.54,15.99,12.85
		C2006.42,1501.06,2012.77,1498.26,2015.85,1492.12z" class="st2"></path>
	<path d="M2120.58,1523.01c-6.72,0.47-13.22,0.06-19.94-0.92c-9.79-1.4-19.43-3.97-29.17-5.76
		c-8.16-1.5-65.1-15.62-86.44-31.6c-2.24,2.53-2.65,7.71-2.49,10.85c0.43,3.56,27.83,14.49,35.93,17.72
		c19.41,7.75,31.96,9.68,52.36,13.44c18.64,3.43,25.74,6.91,44.63,9.04C2117.54,1536.01,2120.81,1525.56,2120.58,1523.01z" class="st2"></path>
	<path d="M2064.14,1471.05c1.67,3.19,2.32,12.79,2.32,12.79" class="st8"></path>
	<path d="M2056.33,1472.43c0.9,2.67,1.23,12.89,1.23,12.89" class="st8"></path>
	<path d="M2048.53,1473.51c0.21,3.47-0.06,9.81,0.21,13.28" class="st8"></path>
	<path d="M2039.65,1475.55c0,0-0.49,9.52-0.56,12.81" class="st8"></path>
	<path d="M2030.55,1477.3c0,0-1.25,8.61-1.48,12.74" class="st8"></path>
</g>
<g>
	<path d="M953.5,1508.73c-4.65,3.88-12.58,0.92-15.56-2.45c-3.54-22.06-19.43-61.01-19.49-66.34
		c-0.02-1.64,0.8-3.15,2.18-3.99c5.06-3.08,15.4-4.67,15.36,3.58C936.01,1439.53,953.85,1477.21,953.5,1508.73z" class="st2"></path>
	<path d="M958.81,1507.02c-5.9-0.47-13.01-5.02-15.87-10.36c-2.32-4.3-19.63-45.86-19.63-48.45
		c0-5.67,5.96-8.47,9.37-12.31c4.89-5.51,7.24-12.15,6.93-19.57c-0.29-6.78-5.39-11.22-10.5-15.87c1.34-2.92,6.39-4.6,9.35-5.1
		c9.76-1.67,21.11-1.01,30.69,1.29" class="st2"></path>
	<path d="M948.9,1502.35c-3.19-1.09-8.88-2.71-12.13-1.07c-1.01,10.15,2.22,24.87,9.09,32.6c0,0,7.95-12.03,10.52-17.62
		C959.05,1510.47,955.39,1504.55,948.9,1502.35z" class="st2"></path>
	<path d="M964.99,1394.35c1.38,6.58,1.89,13.09,1.87,19.88c-0.02,9.89-1.23,19.78-1.66,29.68
		c-0.35,8.3-6.45,66.64-19.32,89.98c2.82,1.87,8,1.56,11.08,0.97c3.49-0.92,10.5-29.56,12.58-38.03
		c4.99-20.31,5.16-32.99,6.06-53.73c0.8-18.93,3.27-26.46,2.77-45.45C978.29,1395.57,967.48,1393.78,964.99,1394.35z" class="st2"></path>
	<path d="M921.35,1457.44c2.94-2.1,12.35-4.07,12.35-4.07" class="st6"></path>
	<path d="M923.8,1465c2.51-1.27,12.6-3,12.6-3" class="st6"></path>
	<path d="M925.92,1472.57c3.39-0.7,9.72-1.3,13.12-2.06" class="st6"></path>
	<path d="M929.2,1481.08c0,0,9.5-0.84,12.77-1.21" class="st6"></path>
	<path d="M932.19,1489.86c0,0,8.7,0.04,12.81-0.29" class="st6"></path>
</g>
<g>
	<path d="M2045.6,597.73c1.81-1.54,4.54-1.64,6.45-0.08l83.54,67.55c2.18,1.75,2.51,4.95,0.76,7.11l-91.52,113.18
		c-1.75,2.18-4.95,2.51-7.11,0.76l-83.54-67.55c-2.18-1.75-2.51-4.95-0.76-7.11L2045.6,597.73z" class="st2"></path>
	<path d="M2040.83,597.88l4.83,3.91c1.81-1.54,4.54-1.64,6.45-0.08l83.54,67.55c2.18,1.75,2.51,4.95,0.76,7.11
		l-91.52,113.18c-1.75,2.18-4.95,2.51-7.11,0.76l-83.54-67.55c-2.18-1.75-2.51-4.95-0.76-7.11l57.64-71.27l-4.75-3.86
		c-2.18-1.75-2.51-4.95-0.76-7.11l28.12-34.78C2035.46,596.46,2038.65,596.11,2040.83,597.88z" class="st2"></path>
	<path d="M2053.98,636.83c0.84-0.6,2.32-0.37,3.54,0.62l44.05,35.64c1.38,1.11,1.89,2.77,1.13,3.68l-7.22,8.94
		c-0.74,0.92-2.45,0.76-3.84-0.35l-44.05-35.64c-1.38-1.11-1.89-2.77-1.13-3.68L2053.98,636.83z" class="st2"></path>
</g>
<g>
	<path d="M2024.01,598.56c1.56-1.81,4.21-2.32,6.37-1.09l93.18,53.49c2.41,1.38,3.25,4.48,1.87,6.91l-72.48,126.24
		c-1.38,2.41-4.48,3.25-6.91,1.87l-93.18-53.49c-2.41-1.38-3.25-4.48-1.87-6.91L2024.01,598.56z" class="st9"></path>
	<path d="M2019.32,599.46l5.39,3.1c1.56-1.81,4.21-2.32,6.37-1.09l93.18,53.49c2.41,1.38,3.25,4.48,1.87,6.91
		l-72.48,126.24c-1.38,2.41-4.48,3.25-6.91,1.87l-93.18-53.49c-2.41-1.38-3.25-4.48-1.87-6.91l45.64-79.49l-5.32-3.06
		c-2.41-1.38-3.25-4.48-1.87-6.91l22.26-38.79C2013.8,598.89,2016.9,598.06,2019.32,599.46z" class="st9"></path>
	<path d="M2038.48,635.83c0.74-0.72,2.24-0.72,3.58,0.06l49.13,28.22c1.54,0.88,2.3,2.43,1.71,3.45l-5.72,9.97
		c-0.58,1.03-2.32,1.15-3.84,0.27l-49.13-28.22c-1.54-0.88-2.3-2.43-1.71-3.45L2038.48,635.83z" class="st2"></path>
</g>
<g>
	<path d="M1995.93,608.38c1.27-2.03,3.82-2.94,6.11-2.04l100.19,38.77c2.61,1.01,3.89,3.93,2.9,6.54l-52.52,135.77
		c-1.01,2.61-3.93,3.89-6.54,2.9l-100.19-38.77c-2.61-1.01-3.89-3.93-2.9-6.54L1995.93,608.38z" class="st2"></path>
	<path d="M1991.43,609.97l5.8,2.24c1.27-2.03,3.82-2.94,6.11-2.04l100.19,38.77c2.61,1.01,3.89,3.93,2.9,6.54
		l-52.52,135.77c-1.01,2.61-3.93,3.89-6.54,2.9l-100.19-38.77c-2.61-1.01-3.89-3.93-2.9-6.54l33.08-85.49l-5.71-2.2
		c-2.61-1.01-3.89-3.93-2.9-6.54l16.14-41.71C1985.9,610.27,1988.82,608.96,1991.43,609.97z" class="st2"></path>
	<path d="M2015.87,643.04c0.62-0.82,2.1-1.05,3.56-0.49l52.83,20.45c1.66,0.64,2.63,2.04,2.2,3.15l-4.15,10.73
		c-0.43,1.11-2.1,1.48-3.76,0.86l-52.83-20.45c-1.66-0.64-2.63-2.04-2.2-3.15L2015.87,643.04z" class="st2"></path>
</g>
<g>
	<path d="M1958.09,691.25c-2.14,0.39-2.65,1.93-2.4,3.93c0.41,3.17,3.23,4.81,5.84,6.25c3.49,1.91,6.21,3.6,10.24,2.98
		c1.73-0.27,7.89-2.73,7.36-5.37c-0.33-1.71-3.95-1.6-5.14-1.79c-1.83-0.29-3.66-0.6-5.3-1.58
		C1965.63,693.86,1962.26,692.66,1958.09,691.25z" class="st2"></path>
	<path d="M1959.3,684.57c-5.39,0.68-3.17,6.93-0.1,9.33c3.76,2.94,8.92,5.57,13.61,6.43c4.25,0.76,9.29-2.75,11.22-6.45
		c1.09-2.08,0.31-2.53-1.87-3c-2.18-0.47-4.42-0.23-6.58-0.76c-4.67-1.09-8.61-3.82-13.2-5.04L1959.3,684.57z" class="st2"></path>
	<path d="M1964.69,675.99c-2.32,0-3.74,0.56-5.49,2.03c-2.36,1.97-3.1,3.78-1.03,6.33c1.91,2.34,4.5,3.68,7.03,5.26
		c3.1,1.91,6.74,4.09,10.46,4.4c3.19,0.27,10.36-0.53,12.56-4.38c0.7-1.21,0.86-1.77-0.51-2.65c-2.1-1.36-5.08-1.89-7.44-2.67
		C1974.94,682.55,1969.5,680.45,1964.69,675.99z" class="st2"></path>
	<path d="M1963.58,676.69c4.97,7.44,8.24,8.7,16.45,10.36c2.47,0.49,8.53,2.12,10.96,0.95
		c4.09-1.97-0.82-4.26-2.92-5.47c-6.33-3.66-13.53-6.7-16.96-13.71c-0.64-1.32-4.97-0.62-6.27-0.23
		C1960.64,669.83,1961.09,672.93,1963.58,676.69z" class="st2"></path>
</g>
<path d="M589.84,756.74c9.95,4.5,18.77,20.78,24.65,26.15c14.68-11.72,40.06-47.42,50.53-63.17" class="st2"></path>
<path d="M760.89,915.49c9.35,32.6,58.79,74.58,79.02,101.61c-14.96,24.38-75.5,49.31-117.77,65.43
	c-18.13,6.91-38.42-2.41-44.94-20.72c-17.02-47.79-48.16-106.85-49.81-146.77c-3.12-75.07,16.03-152.05,27.52-208.28
	c38.98,13.94,61.2,44.11,77.56,80.74C748.82,824.12,749.81,876.93,760.89,915.49z" class="st2"></path>
<path d="M668.82,711.45c6.78,15.09,9.09,52.67,9.09,52.67s-19.03,7.26-25.32,8.92c5.22,8.04,18.77,16.12,18.77,16.12
	c-9.02,45.12-29.03,82.39-44.01,125.89" class="st6"></path>
<polygon points="759.68,966.49 710.96,987.75 708.16,980.86 757.42,960.08" class="st6"></polygon>
<g>
	<g>
		<polygon points="553.52,911.44 503.67,907.62 501.28,928.07 504.04,929.53 504.04,935.37 500.79,937.16 
			500.07,944.66 502.48,944.99 500.92,961.21 496.33,961.5 496.04,966.93 499.6,967.42 498.14,978.77 495.69,978.62 494.71,983.23 
			497.5,983.7 496.37,992.62 491.4,992.95 490.37,1001.11 495.18,1001.73 492.73,1020.91 490.66,1020.43 490.18,1023.48 
			492.32,1024.07 491.25,1032.34 489.75,1033.26 488.89,1036.14 490.68,1036.73 490.14,1041.01 485.62,1042.18 485.62,1052.69 
			488.56,1053.3 486.94,1065.86 483.03,1068.27 482.39,1073.37 485.74,1075.26 484.45,1085.33 529.86,1095.48 561.56,1099.29 
			594.51,916.36" class="st2"></polygon>
		<line y2="921.56" x2="508.09" y1="924.68" x1="548.67" class="st10"></line>
		<line y2="1085.52" x2="524.76" y1="1077.76" x1="490" class="st10"></line>
		<line y2="1070.61" x2="526.18" y1="1062.84" x1="491.4" class="st10"></line>
		<polygon points="491.07,992.97 489.61,1001.01 490.37,1001.11 491.4,992.95" class="st14"></polygon>
		<line y2="1064.28" x2="526.12" y1="1056.51" x1="491.36" class="st10"></line>
		<line y2="1043.91" x2="528.23" y1="1036.14" x1="493.47" class="st10"></line>
		<line y2="1026.17" x2="529.59" y1="1018.38" x1="494.83" class="st10"></line>
		<line y2="1020.04" x2="535.94" y1="1012.25" x1="501.18" class="st10"></line>
		<line y2="993.98" x2="538.45" y1="986.21" x1="503.69" class="st10"></line>
		<line y2="990.11" x2="535.94" y1="982.32" x1="501.18" class="st10"></line>
		<line y2="1006.04" x2="537.07" y1="997.21" x1="497.67" class="st10"></line>
		<line y2="935.64" x2="507.39" y1="938.76" x1="547.97" class="st10"></line>
		<line y2="947.44" x2="506.42" y1="950.56" x1="545.05" class="st10"></line>
		<line y2="958.09" x2="505.48" y1="962.05" x1="544.04" class="st10"></line>
		<line y2="971.76" x2="504.31" y1="978.25" x1="542.52" class="st10"></line>
	</g>
	<polygon points="659.57,1111.03 529.86,1095.48 529.86,1090.02 528.23,1084.82 529.86,1074.11 532.94,1071.5 
		535.14,1054.48 534.48,1051.47 535.9,1033.08 540.81,1030.26 542.97,1014.39 541.02,1008.72 543.47,989.62 547.04,981.62 
		548.67,968.96 546.96,962.42 548.67,949.14 553.52,933.27 552.22,921.56 553.52,911.44 683.21,926.99 678.97,960.08 675.4,968.67 
		677.82,969 676.26,985.22 671.66,985.51 671.37,990.96 674.94,991.43 673.48,1002.78 671.02,1002.63 670.05,1007.26 
		672.83,1007.73 671.7,1016.65 666.41,1017 664.95,1025.02 670.52,1025.74 668.06,1044.94 666.02,1044.44 665.51,1047.49 
		667.65,1048.1 666.6,1056.35 665.08,1057.29 664.23,1060.15 666.04,1060.76 665.47,1065.02 660.95,1066.19 660.95,1076.7 
		663.89,1077.31 662.28,1089.87 658.36,1092.28 657.72,1097.38 661.07,1099.29" class="st2"></polygon>
	<line y2="1077.95" x2="529.59" y1="1092.59" x1="651.74" class="st10"></line>
	<line y2="1064.9" x2="542.97" y1="1078.83" x1="659.22" class="st10"></line>
	<line y2="1059.39" x2="537.07" y1="1073.26" x1="652.66" class="st10"></line>
	<line y2="1041.48" x2="542.99" y1="1055.34" x1="658.58" class="st10"></line>
	<line y2="1026.17" x2="543.3" y1="1040.02" x1="658.89" class="st10"></line>
	<line y2="1022.08" x2="547.93" y1="1035.93" x1="663.52" class="st10"></line>
	<path d="M612.86,1011.57c-3.91,8.18-15.6,35.11-19.51,43.29c-1.73,3.62-3.68,7.48-7.24,9.35
		c-3.91,2.06-8.63,1.15-13.05,1.27c-6.7,0.18-13.05,2.84-19.41,4.99c-9.35,3.17-19.06,5.3-28.88,6.33c-0.31,3.7,3.35,6.66,7.01,7.34
		c3.66,0.66,7.38-0.21,11.1-0.31c3.72-0.1,7.89,0.92,9.79,4.11c-1.77,6.68-7.91,9.62-10.61,9.54c-2.4-0.08-6.87-1.13-6.87-1.13
		c1.89,4.05,8.04,8.2,12.48,8.8c0.37,1.73,0.55,3.43,1.83,4.67c1.29,1.23,3.89,2.12,5.49,1.36c-0.66,1.81-0.76,3.78,0.68,5.06
		c1.44,1.29,5.69,1.11,7.4,0.23c0.62,2.96,5.49,2.01,8.55,1.38c5.28-1.07,9.85-4.19,13.96-7.46c8.9-7.07,12.79-14.22,19.3-23.52
		c8.76-12.54,25.02-47.67,38.19-71.08L612.86,1011.57z" class="st2"></path>
	<path d="M544.04,1104.14c2.94,1.23,6.41,1.15,9.27-0.21" class="st6"></path>
	<path d="M553.07,1111.42c1.42,0.25,2.88-0.19,4.19-0.84c1.3-0.64,2.49-1.48,3.8-2.08" class="st6"></path>
	<path d="M560.16,1117.07c2.71-0.68,5.2-2.16,7.13-4.19" class="st6"></path>
	<path d="M552.59,1099.16c0.86-0.58,1.71-1.17,2.57-1.77" class="st6"></path>
	<path d="M559.25,1104.71c0.78-0.64,1.54-1.29,2.32-1.93" class="st6"></path>
	<path d="M566.28,1109.38c0.6-0.56,1.13-1.23,1.54-1.93" class="st6"></path>
	<path d="M572.37,1114.25c0.86-0.39,1.56-1.13,1.93-2.01" class="st6"></path>
	<g>
		<path d="M618.31,1065.43l-3.23,6.08c-16.59-11.59-25.37-12.4-25.49-12.42l3.23-6.17
			C593.3,1053.02,601.13,1053.43,618.31,1065.43z" class="st9"></path>
		<path d="M603.49,1057c-3.15,2.59-3.62,7.22-1.05,10.38c2.59,3.15,7.22,3.62,10.38,1.05
			c3.15-2.59,3.62-7.22,1.05-10.38C611.3,1054.89,606.64,1054.43,603.49,1057z" class="st9"></path>
		<path d="M605.63,1059.63c-1.71,1.4-1.97,3.91-0.56,5.63s3.91,1.97,5.63,0.56c1.71-1.4,1.97-3.91,0.56-5.63
			C609.86,1058.48,607.34,1058.22,605.63,1059.63z" class="st11"></path>
	</g>
	<path d="M600.3,1029.99c-1.36,4.07-3.88,8.92-5.78,12.72c0,0,19.51,13.44,30.46,13.65c0,0,5.96-9.58,7.79-14.18" class="st2"></path>
	<line y2="998.4" x2="549.43" y1="1012.25" x1="665.02" class="st10"></line>
	<line y2="990.11" x2="550.48" y1="1003.95" x1="666.08" class="st10"></line>
	<line y2="973.91" x2="552.82" y1="987.77" x1="668.41" class="st10"></line>
	<line y2="960.08" x2="563.59" y1="973.2" x1="673.05" class="st10"></line>
	<line y2="945.77" x2="555.88" y1="958.89" x1="665.35" class="st10"></line>
	<line y2="927.81" x2="560.82" y1="940.94" x1="670.28" class="st10"></line>
	<line y2="922.28" x2="557.44" y1="935.41" x1="666.89" class="st10"></line>
	<path d="M731.04,810.86c-15.56,48.33-31.41,86.11-49.5,133.55c-13.71,35.89-35.87,71-51,106.32
		c-15.01-4.28-24.28-9.25-37.02-18.29c14.18-29.85,30.98-70.32,43.64-100.85c10.16-41.63,18.95-67.44,28.55-103.85" class="st2"></path>
</g>
</svg>
