<svg xml:space="preserve" style="enable-background:new 0 0 2976.06 2009.83;" viewBox="0 0 2976.06 2009.83" y="0px" x="0px" xmlns:xlink="http://www.w3.org/1999/xlink" xmlns="http://www.w3.org/2000/svg" id="레이어_1" version="1.1">
<style type="text/css">
	.st0{fill:none;}
	.st1{fill:#F0CB53;}
	.st2{fill:#FFBA00;stroke:#000000;stroke-width:1.5;stroke-linecap:round;stroke-linejoin:round;stroke-miterlimit:10;}
	.st3{fill:#260F70;stroke:#000000;stroke-width:1.5;stroke-linecap:round;stroke-linejoin:round;stroke-miterlimit:10;}
	.st4{fill:none;stroke:#000000;stroke-width:1.5;stroke-linecap:round;stroke-linejoin:round;stroke-miterlimit:10;}
	.st5{fill:none;stroke:#000000;stroke-width:0.75;stroke-linecap:round;stroke-linejoin:round;stroke-miterlimit:10;}
	.st6{fill:#1A1A1A;stroke:#000000;stroke-width:1.5;stroke-linecap:round;stroke-linejoin:round;stroke-miterlimit:10;}
	.st7{fill:#F6B24B;stroke:#000000;stroke-width:1.5;stroke-linecap:round;stroke-linejoin:round;stroke-miterlimit:10;}
	.st8{fill:#FFFFFF;stroke:#000000;stroke-width:1.5;stroke-linecap:round;stroke-linejoin:round;stroke-miterlimit:10;}
	.st9{fill:#EDAEAE;}
	.st10{fill:#FFFFFF;}
	.st11{clip-path:url(#SVGID_2_);}
	.st12{fill:none;stroke:#260F70;stroke-width:0.75;stroke-linecap:round;stroke-linejoin:round;stroke-miterlimit:10;}
	.st13{enable-background:new    ;}
	.st14{fill:url(#SVGID_5_);stroke:#000000;stroke-width:1.5;stroke-linecap:round;stroke-linejoin:round;stroke-miterlimit:10;}
	.st15{fill:none;stroke:#000000;stroke-width:4;stroke-linecap:round;stroke-linejoin:round;stroke-miterlimit:10;}
	.st16{clip-path:url(#SVGID_9_);}
	.st17{fill:none;stroke:#FFBA00;stroke-width:1.5;stroke-linecap:round;stroke-linejoin:round;stroke-miterlimit:10;}
	.st18{clip-path:url(#SVGID_12_);}
	.st19{clip-path:url(#SVGID_14_);}
	.st20{clip-path:url(#SVGID_16_);}
	.st21{fill:#260F70;stroke:#000000;stroke-width:0.75;stroke-linecap:round;stroke-linejoin:round;stroke-miterlimit:10;}
	.st22{fill:#FFFFFF;stroke:#000000;stroke-width:0.75;stroke-linecap:round;stroke-linejoin:round;stroke-miterlimit:10;}
	.st23{fill:none;stroke:#000000;stroke-width:0.25;stroke-linecap:round;stroke-linejoin:round;stroke-miterlimit:10;}
	.st24{fill:#E0C8BC;}
	.st25{fill:#FFFFFF;stroke:#000000;stroke-width:0.75;stroke-miterlimit:10;}
</style>
<pattern style="overflow:visible;" viewBox="0 -850.39 1275.59 850.39" id="SVGID_3_" patternUnits="userSpaceOnUse" height="850.39" width="1275.59" y="1409.07" x="847.53">
	<g>
		<rect height="850.39" width="1275.59" class="st0" y="-850.39"></rect>
	</g>
</pattern>
<rect height="2050.24" width="3001.64" class="st1" x="-25.58"></rect>
<path d="M805.76,1069.52l-7.82-2.07c4.57-17.33,1.55-31.34-1.96-47.56c-0.63-2.97-1.28-5.97-1.89-9.06
	c-2.48-12.46-4.53-26.88,2.37-40.37l7.21,3.67c-5.14,10.07-4.37,21.34-1.62,35.12c0.61,3.04,1.24,6.02,1.87,8.92
	C807.45,1034.71,810.83,1050.32,805.76,1069.52z" class="st2"></path>
<path d="M1062.09,1949.78c1.55-56.91-11.9-221.56-44.7-353.66c-13.7-55.15-36.25-109.84-36.25-109.84l-212.82-3.45
	c0,0-29.09,81.27-39.63,195.41c-4.87,52.81-17.48,271.51-17.48,271.51C790.69,1949.76,981.27,1965.76,1062.09,1949.78z" class="st2"></path>
<path d="M771.11,1494.13l-30.26-163.91h269.44c1.26,41.21-26.83,102.49-30.44,143.59" class="st3"></path>
<g>
	<path d="M1018.02,1116.07c-8.85,4.66-16.99-36.84-17.33-41.73c-1.49-22.33-2.84-37.31-1.46-59.14
		c0.86-13.86,0.2-27.85-2.91-41.41c-3.18-13.74-8.92-27.08-18.07-37.96c-12.86-15.25-43.89-29.76-45.44-24.04
		c-1.26,4.57,0.25,11.94,0.47,16.97c0.56,12.46,6.74,23.86,6.92,36.54c0.29,20.95,1.67,47.61-7.39,67.34
		c9.1-10.07,13.43-23.14,13.83-35.55c-0.88,26.45-3.74,53.62,3.94,79.62C956.06,1095.27,986.3,1132.78,1018.02,1116.07z" class="st3"></path>
	<path d="M978.25,935.82c17.64,20.21,21.25,36.59,24.11,58.31c2.1,15.97-4.78,69.75,21.18,69.55" class="st4"></path>
	<path d="M942.23,924.65c29.85,6.13,43.55,55.51,46.35,80.48" class="st4"></path>
	<path d="M939.68,932.31c15.01,12.37,27.46,30.3,28.57,50.04" class="st4"></path>
	<path d="M959.6,1015.69c-3.04,38.39-1.62,69.44,22.76,102.45" class="st4"></path>
	<path d="M946.69,1001.48c0,13.2-4.21,32.51-5.99,45.44c-2.88,21.09,0.25,36.16,10.57,54.39" class="st4"></path>
</g>
<path d="M2151.62,1716.07c11.02,47.99,35.12,192.14,55.02,262.37h122.68c-2.64-49.95-10.34-147.57-17.01-237.02
	c-5.77-77.39-12.59-148.68-19.67-177.63c-6.13-25.05-22.91-59.39-22.91-59.39s-88.86,5.23-125.16,8.61
	c-25.12,2.32-50.58,1.92-75.52,0.45c-15.43-0.9-50.83,1.55-62.12-8.27c3.13,2.73-7.34,23.93-7.73,28.01
	c-11.76,126.67,13.14,425.96,16.22,445.25h125.38C2141.12,1909.43,2149.18,1727.2,2151.62,1716.07z" class="st2"></path>
<path d="M2008.98,1533.17c-11.76,126.67,13.14,425.96,16.22,445.25" class="st5"></path>
<path d="M2319.81,1978.44c-2.64-49.75-10.3-146.72-16.92-235.85c-5.79-77.87-12.64-149.71-19.76-178.8" class="st5"></path>
<path d="M2144.16,1537.84c8,69.66,9.4,169.02,9.4,169.02" class="st5"></path>
<path d="M2229.05,1531.3c4.24,23.41,47.38,120.22,75.88,115.2" class="st5"></path>
<path d="M2059.29,1537.84c-8.49,44.52-23.27,86.34-63.06,108.69" class="st5"></path>
<path d="M2076.52,1707.58c21.81,0,43.57,0.54,65.29-1.31" class="st5"></path>
<path d="M2103.94,1731.08c13.52-4.89,28.73-9.03,41.79-15.66" class="st5"></path>
<path d="M2167.93,1712.81c24.94-2.73,50.54-6.42,75.72-6.53" class="st5"></path>
<path d="M2171.56,1539.14c2.07,29.65,17.37,104.2-19.53,113.24" class="st5"></path>
<path d="M2010.58,1534.05c16.7,6.44,36,6.38,53.69,7.1c18.61,0.74,98.17-1.89,116.71-3.24
	c45.35-3.29,69.08-7.34,88.75-14.55l9.6,25.1c-12.57,5-52.34,15.05-75.59,16.79c-29.13,2.19-58.58,5.25-87.73,3.6
	c-36.18-2.05-74.89,2.39-109.5-6.78C2008.59,1551.4,2010.58,1534.05,2010.58,1534.05z" class="st6"></path>
<path d="M2087.95,1532.81c0,14.28,1.73,28.46,0.83,42.7c-3.36-0.09-6.15-0.34-9.51-0.83
	c-0.68-8.9-2.57-17.71-3.09-27.04c-0.2-3.67-0.77-12.21,0.11-15.52C2076.3,1532.11,2084.16,1533.13,2087.95,1532.81z" class="st2"></path>
<path d="M2208.89,1528.76c2.03,14.19,2.32,28.43,5.23,42.47c3.31-0.43,6.06-0.95,9.3-1.78
	c-0.59-8.9,0.05-17.84-0.77-27.15c-0.32-3.67-0.97-12.21-2.3-15.39C2220.36,1526.89,2212.67,1528.69,2208.89,1528.76z" class="st2"></path>
<path d="M2177.98,1538.02c-0.09-1.87-1.44-3.36-3.02-3.29l-57.34,2.41c-1.58,0.07-2.82,1.64-2.73,3.51l1.22,28.93
	c0.07,1.87,1.44,3.36,3.02,3.29l57.34-2.41c1.58-0.07,2.82-1.64,2.73-3.51L2177.98,1538.02z M2165.56,1562.42l-36.25,1.53
	c-0.99,0.05-1.85-0.72-1.89-1.71l-0.63-15.21c-0.05-0.99,0.74-1.82,1.73-1.87l36.25-1.53c0.99-0.05,1.85,0.72,1.89,1.71l0.63,15.21
	C2167.34,1561.54,2166.58,1562.39,2165.56,1562.42z" class="st7"></path>
<path d="M2134.63,1551.67c-4.24,0.43-7.95,0.32-12.08,0.05c-0.09,1.13-0.81,5.07,0.25,5.9c0.92,0.72,6.06,0.2,7.32,0.02
	C2132.53,1557.26,2142.58,1553.79,2134.63,1551.67z" class="st7"></path>
<path d="M2158.24,1570.44c5.43,20.46,9.24,41.46,17.75,59.84c51.73-4.48,130.65-16.06,126.51-68.38
	C2268.93,1560.97,2191.31,1566.22,2158.24,1570.44" class="st8"></path>
<path d="M2137.92,1570.44c-5.43,20.46-9.24,41.46-17.75,59.84c-51.73-4.48-130.65-16.06-126.51-68.38
	C2027.2,1560.97,2104.82,1566.22,2137.92,1570.44" class="st8"></path>
<path d="M2320.35,1190.37c0,91.92-0.29,185.4-10.18,276.38c-3.06,28.23,8.92,92.65-4.91,110.02
	c-14.76,2.93-32.89,5.27-48.44,5.25c-89.13-0.09-178.04,2.05-266.92-5.14c-11.72-15.07-5.75-28.32-6.29-47.16
	c-3.24-110.8-0.14-217.51-3.24-339.38" class="st3"></path>
<path d="M1999.2,1533.17c-1.17,15.73,0.38,28.7,2.75,44.45" class="st4"></path>
<path d="M2019.72,1534.88c-0.9,14.8-0.97,29.65-0.25,44.45" class="st4"></path>
<path d="M2038.87,1536.03c0.11,13.88,0.63,27.76,1.53,41.61" class="st4"></path>
<path d="M2060.84,1538.31c0.07,14.1,1.01,28.19,2.88,42.18" class="st4"></path>
<path d="M2082.31,1538.31c-0.09,13.92,1.08,27.85,3.54,41.59" class="st4"></path>
<path d="M2104.37,1536.01c0.9,13.68,1.8,27.37,2.7,41.05" class="st4"></path>
<path d="M2122.26,1538.31c0.47,13.29,0.95,26.61,1.42,39.9" class="st4"></path>
<path d="M2141.59,1538.89c-0.56,13.68-0.63,27.35-0.2,41.03" class="st4"></path>
<path d="M2161.8,1538.31c-0.63,14.8-0.36,29.65,0.81,44.43" class="st4"></path>
<path d="M2185.46,1538.89c0.43,13.68,0.86,27.35,1.28,41.03" class="st4"></path>
<path d="M2207.78,1537.75c0.27,14.06,0.56,28.12,0.83,42.18" class="st4"></path>
<path d="M2230.16,1539.46c-0.83,13.86-0.56,27.78,0.81,41.59" class="st4"></path>
<path d="M2249.8,1541.17c-0.14,11.58,0.09,23.18,0.65,34.76" class="st4"></path>
<path d="M2269.95,1536.6c0.25,13.68,0.47,27.35,0.72,41.03" class="st4"></path>
<path d="M2293.38,1537.75c-0.52,11.96-0.77,23.93-0.77,35.89" class="st4"></path>
<path d="M2307.39,1531.87c-14.98,2.93-33.37,5.27-49.14,5.25c-90.41-0.09-180.58,2.05-270.73-5.14" class="st4"></path>
<path d="M2277.49,1067.49c0,0-30.55-7.77-43.08-10.3c-12.53-2.52-25.39-7.64-33.23-18.5
	c-4.06-5.63-6.49-12.44-8.2-19.31c-2.1-8.4-3.18-17.1-3.24-25.8h-70.77c-0.07,8.7-1.17,17.39-3.27,25.8
	c-1.71,6.89-4.15,13.7-8.2,19.31c-7.84,10.88-20.71,15.97-33.23,18.5c-12.53,2.52-43.08,10.3-43.08,10.3v99.81h246.26v-99.81
	H2277.49z" class="st8"></path>
<path d="M2224.21,884.41c-2.79-11.54-8.38-22.08-15.91-31.05c-12.35-14.76-29.88-25.26-48.49-28.97h-12.37
	c-18.61,3.72-36.14,14.22-48.49,28.97c-7.53,8.97-13.11,19.51-15.91,31.05c-5.36,22.19-0.83,45.29,3.7,67.46
	c4.53,22.12,10.18,44.27,27.71,57.72c10.52,8.07,21.7,13.88,37.31,13.88h3.74c17.42,0,26.79-5.84,37.31-13.88
	c17.53-13.45,23.18-35.6,27.71-57.72C2225.04,929.7,2229.57,906.6,2224.21,884.41z" class="st8"></path>
<path d="M2121.99,973.65c3.88-7.43,0.99-16.6-6.44-20.5c-7.44-3.88-16.6-0.99-20.5,6.44c-3.88,7.43-0.99,16.6,6.44,20.5
	C2108.92,983.99,2118.09,981.11,2121.99,973.65z" class="st9"></path>
<path d="M2185.84,973.65c-3.88-7.43-0.99-16.6,6.44-20.5c7.44-3.88,16.6-0.99,20.5,6.44c3.88,7.43,0.99,16.6-6.44,20.5
	C2198.91,983.99,2189.72,981.11,2185.84,973.65z" class="st9"></path>
<path d="M2168.29,918.97c21.25-9.53,38.32,3.29,38.32,3.29" class="st4"></path>
<path d="M2138.93,918.97c-21.25-9.53-38.32,3.29-38.32,3.29" class="st4"></path>
<path d="M2188.18,938.86c-0.09,4.26-2.32,7.66-4.98,7.62c-2.66-0.05-4.75-3.56-4.66-7.8c0.09-4.24,2.32-7.66,4.98-7.62
	C2186.18,931.11,2188.27,934.61,2188.18,938.86z"></path>
<path d="M2120.57,938.86c0.09,4.26,2.32,7.66,4.98,7.62c2.66-0.05,4.75-3.56,4.66-7.8c-0.09-4.26-2.32-7.66-4.98-7.62
	C2122.57,931.11,2120.48,934.61,2120.57,938.86z"></path>
<path d="M2152.36,925.68c3.67,8.16,0.83,19.56,0,28.12c-0.5,5.2-2.61,11.63,3.11,14.71" class="st4"></path>
<path d="M2158.89,1006.1c11.31-3.38,15.28-18.75,17.53-28.48c-13.54,3.49-29.83,4.71-43.46,1.69
	c0,0,3.47,13.34,7.53,19.33C2144.43,1004.41,2151.5,1008.3,2158.89,1006.1z" class="st8"></path>
<path d="M2153.51,871.07c2.75-5.7,14.55-9.15,19.17-4.8c4.62,4.35,6.04,11.02,7.21,17.24
	c2.97,15.55,6.71,33.21,20.12,43.71c8.38,6.56,35.37,11.63,44.18,3.09c-6.74-8.92-10.63-20.98-11.11-32.13
	c-1.51-36.61-17.53-59.64-32.58-68.94c-14.31-8.85-29.4-14.17-46.66-10.27h-0.23c-17.26-3.9-32.35,1.42-46.66,10.27
	c-15.05,9.31-31.09,32.33-32.58,68.94c-0.45,11.15-4.37,23.21-11.11,32.13c15.86,1.19,44.27,2.95,55.15-11.24
	c6.83-8.92,7.1-24.74,9.17-35.55c1.19-6.22,2.61-12.89,7.21-17.24C2139.43,861.95,2150.76,865.37,2153.51,871.07z" class="st3"></path>
<path d="M2154.88,851.63c5.43-6.2,15.64-6.33,22.58-1.89c6.94,4.44,10.93,12.37,12.82,20.37
	c1.89,8,2.01,16.31,2.97,24.49" class="st4"></path>
<path d="M2155.47,839.15c8.49-10.66,28.28-3.29,34.07,6.78" class="st4"></path>
<path d="M2218.08,871.88c0.7,9.33,3.97,18.27,8.11,26.65c2.59,5.25,5.63,10.43,10.12,14.22
	c4.48,3.76,10.66,5.95,16.31,4.39" class="st4"></path>
<path d="M2149.41,846.74c-4.46-8.18-16.51-9.67-24.58-4.96c-8.04,4.69-12.62,13.7-15.12,22.69
	c-2.5,8.99-3.38,18.38-6.38,27.19c-3.58,10.57-10.21,20.07-18.86,27.1" class="st4"></path>
<path d="M2090.83,872.83c-3.42,10.34-7.01,20.93-12.95,30.15c-3.02,4.66-14.58,20.25-24.36,9.24" class="st4"></path>
<path d="M2320.35,1190.37c0,36.79-0.04,73.85-0.74,110.87" class="st4"></path>
<path d="M1981.85,1309.78c-0.11-38.57-0.45-78.11-1.51-119.41" class="st4"></path>
<g>
	<path d="M2206.07,1367.78c-8.83-3.22-19.31-6.26-31.18-1.31c-4.46,1.87-6.42,10.36-0.59,10.5
		c9.71,0.23,16,4.17,22.58,5.61c6.15,1.33,29.83,4.48,35.67,4.48C2225.79,1381.79,2213.24,1373.59,2206.07,1367.78z" class="st8"></path>
	<path d="M2220.29,1367.69c-3.54-2.73-9.01-4.69-13.34-5.54c-3.29-0.65-11.08,0.36-11.18,5.29
		c-0.05,2.84,6.98,7.82,8.76,10.18c4.33,5.75,11.06,10.57,17.75,13c2.25,0.81,13.97,4.64,16.31,4.98
		c5.59,0.81,21.02,9.8,25.59,12.68c5.68,3.58,41.23,20.98,62.7,26.27l34.49-48.67c-10.03,0.16-20.05,0.07-30.08-0.27
		c-7.57-0.25-18.11,1.19-24.51-3.74l-10.27-18.07c-4.84,8.83-16.65,6.92-21.65-0.83c-2.57-3.97-3.76-7.39-9.03-8.22
		c-4.33-0.7-12.39-0.52-11.56,5.77c0.36,2.68,2.66,4.24,3.79,6.49c0.88,1.73,0.9,3.69,1.1,5.66c0.45,4.69,2.25,7.1,5.11,11.13" class="st8"></path>
	<path d="M2392.02,1398.69c-6.78-4.48-10.54-21.61-29.58-22.33c-9.08-0.36-35.55,4.33-46.39,5.36
		c-1.24,0.11-1.92,1.46-1.31,2.55c3.2,5.81,0.68,16.56-0.56,22.15c-0.86,3.81-3.54,22.82-14.55,17.44c-2.1,3.79-1.53,4.57,4.01,9.08
		c16.63,13.47,63.78,31.95,72.91,31c18.43-1.92,30.39-19.13,35.73-35.8c3.54-11.02,1.01-20.89-1.08-32.15
		c-1.53-8.18,1.01-14.71,0.14-22.62c-0.99-9.06-4.19-18.47-6.33-27.4c-2.61-10.86-10.16-140.54-10.16-140.54s-0.5-69.3-12.12-95.06
		c-14.01-31.09-24.15-42.56-56.93-45.74c-45.71-4.44-76.74-10.14-110.89-22.33c0,0-20.23,67.28-61.24,66.42
		c-40.98,0.86-70.59-66.42-70.59-66.42v267.5l228.75,23.84l2.73,49.72" class="st3"></path>
	<path d="M2371.15,1378.12c17.66,5.66,28.21,19.65,38.05,34.92" class="st5"></path>
	<path d="M2362.43,1376.36c11.4-5.07,29.06,0.92,33.25,1.62" class="st5"></path>
	<path d="M2236.98,1387.51c-4.89-3.27-6.74-5.88-9.12-10.72c-0.77-1.55-1.49-3.11-2.61-4.48
		c-1.6-1.94-4.24-3.09-5.54-5.23c-2.48-4.03,2.05-7.32,5.5-8.72c4.28-1.73,8.52-1.26,12.23,1.53c6.58,4.93,12.39,16.99,22.33,15.46
		c0,0,0.63,3.29,3.67,7.23" class="st8"></path>
	<path d="M2298.74,1391.93c4.3-7.16,15.61-14.78,18.11-23.21c1.31-4.42-1.6-5.59-2.28-14.67
		c-0.41-5.52-5.47-3.11-8.52-1.49c-10.54,5.66-11.47,10.45-7.55,21.25" class="st8"></path>
	<path d="M2314.17,1406.42c1.24-5.59,3.79-16.33,0.56-22.15c-0.16-0.29-0.23-0.61-0.2-0.92
		c-2.41-0.52-4.66-0.88-5.68-0.54c0,0-0.54,3.85-1.31,6.62c-2.48,9.12-20.41,33.01-20.41,33.01c4.93,1.96,8.47,3.33,11.42,4.46
		C2308.25,1429.58,2313.36,1410,2314.17,1406.42z" class="st8"></path>
</g>
<path d="M2346.53,1382.49c0,19.67-1.87,50.6-17.01,65.41" class="st4"></path>
<path d="M2306.33,1423.72c4.24,4.51,23,16.02,29,13.74" class="st4"></path>
<path d="M2313.45,1414.55c8.22,3.6,19.94,9.26,29,9.17" class="st4"></path>
<path d="M2315.59,1403.15c9.51,1.78,20.05,4.33,29.67,3.74" class="st4"></path>
<path d="M2317.01,1391.5c9.89-0.05,19.62,1.01,29.51,1.01" class="st4"></path>
<path d="M2153.64,1108.7c-40.98,0.86-70.59-66.42-70.59-66.42c-30.51,18.16-55.83,17.91-101.54,22.33
	c-32.8,3.18-52.92,11.65-66.94,42.74c-15.3,33.91-14.6,61.04-15.41,98.82c-1.35,62.68-1.64,103.62-1.58,136.13
	c0.05,22.85,12.14,57.81,37.18,56.37c29.67-1.71,59.68-19.17,85.3-31.86c27.69-13.72,56.98-23.7,81.61-42.99" class="st3"></path>
<path d="M1004.59,1092.27c-65.61-1.6-73.76-1.69-90.41-32.69c-10.9-20.28-16.92-83.29-23.32-83.29
	c-18.72,8.74-61.37,31.54-80.03,40.42c1.85-0.81,20.93,50.58,8.27,63.94c-10.43,11.02-49.25-4.78-76.78,7.48l4.26,174.41
	l278.18-81.11L1004.59,1092.27z" class="st8"></path>
<path d="M771.79,879.99c-7.77,8.52-13.72,18.63-16.94,29.88c-6.2,21.61-2.7,44.52,0.81,66.51
	c3.51,21.94,8.09,45.83,24.76,59.77c13.86,11.6,33.62,13.65,51.39,9.76c56.46-12.32,90.41-67.7,82.33-123.53
	c-5.29-36.63-38.91-65.77-74.89-69.42C814.57,850.48,788.82,861.32,771.79,879.99z" class="st10"></path>
<path d="M785.42,947.04c-12.35-9.08-25.14,4.01-25.14,4.01" class="st4"></path>
<path d="M817.75,944.07c16.24-16.45,40.42-2.16,40.42-2.16" class="st4"></path>
<path d="M783.12,966.17c0.18,4.19-1.8,7.66-4.44,7.77c-2.61,0.11-4.89-3.2-5.05-7.39c-0.18-4.19,1.8-7.66,4.44-7.77
	C780.69,958.67,782.94,961.98,783.12,966.17z"></path>
<path d="M839.35,960.88c0.18,4.19-1.8,7.66-4.44,7.77c-2.61,0.11-4.89-3.2-5.05-7.39c-0.18-4.19,1.8-7.66,4.44-7.77
	C836.92,953.4,839.17,956.71,839.35,960.88z"></path>
<path d="M789.25,951.19c4.78,7.39,3.72,18.93,4.17,27.37c0.27,5.14-0.81,11.72,5.2,13.86" class="st4"></path>
<ellipse ry="16.63" rx="16.63" cy="987.09" cx="853.87" class="st9"></ellipse>
<path d="M762.53,1006.21c6.35,1.94,13.29-1.06,16.06-7.28c3-6.74-0.05-14.62-6.78-17.62
	c-4.96-2.21-10.54-1.13-14.35,2.3C758.72,991.23,760.27,998.89,762.53,1006.21z" class="st9"></path>
<path d="M914.16,922.37c-5.29-36.63-38.91-65.77-74.89-69.42c-24.72-2.5-50.45,8.34-67.48,27.01
	c-7.77,8.52-13.72,18.63-16.94,29.88c-6.2,21.61-2.7,44.52,0.81,66.51c3.51,21.94,8.09,45.83,24.76,59.77
	c13.86,11.6,33.62,13.65,51.39,9.76c4.51-0.99,8.85-2.23,13.07-3.74" class="st4"></path>
<path d="M813.6,1028.49c10.72-4.53,12.98-19.98,14.15-29.74c-12.89,4.84-28.7,7.77-42.36,6.26
	c0,0,4.82,12.68,9.42,18.11C799.27,1028.38,806.6,1031.44,813.6,1028.49z" class="st8"></path>
<path d="M901.04,967.73c0.54,16.18-1.73,33.57-4.06,49.18c21.54-6.04,32.47-30.78,36.54-43.96
	c12.75-41.14,3.54-85.84-31.61-113.6c-28.55-22.53-74.13-30.62-106.25-11.36c-28.57,5.09-59.82,70.68-44.59,102.65
	c13.68-2.7,7.98-8.2,11.31-21.13c2.5-9.73,5.59-30.39,12.46-37.45c-7.01,9.8-5.93,38.5-6.22,51.73c5.99-11.49,7.55-41.1,17.17-50.02
	c-1.64,9.62-2.37,36.63,1.49,45.87c12.84-2.32,28.14,0.09,40.49-2.88c2.88-9.46,2.3-33.34,4.3-42.83
	c0.74,9.73-0.14,31.07,14.31,48.76c-1.82-14.26-6.58-39.16-5.59-48.67c7.41,27.1,20.3,48.62,34.54,56.55
	c-6.42-20.39-12.91-39.61-15.05-49.3c5.41,13.05,17.71,49.79,37.92,48.53" class="st3"></path>
<g>
	<path d="M896.02,980.79c13.52-4.42,24.11-24.49,17.37-38.26c-6.04-12.35-23.97-9.1-27.46,3.45" class="st8"></path>
	<path d="M892.23,961.42c-2.64-7.93,8.54-13.23,14.78-9.69" class="st4"></path>
	<path d="M892.03,960.43c1.58-4.91,8.61-1.76,10.43,1.35" class="st4"></path>
</g>
<path d="M902.98,1072.58l-7.82-2.07c4.57-17.33,1.55-31.34-1.96-47.56c-0.63-2.97-1.28-5.97-1.89-9.06
	c-2.48-12.46-4.53-26.88,2.37-40.37l7.21,3.67c-5.14,10.07-4.37,21.34-1.62,35.12c0.61,3.04,1.24,6.02,1.87,8.92
	C904.67,1037.77,908.03,1053.36,902.98,1072.58z" class="st2"></path>
<path d="M653.59,1337.36c11.04-7.84,41.59-40.46,57.59-48.69c16-8.22,68.74-17.37,80.59-13.81
	c4.51,11.31,19.51,29.65,24.9,40.49c-33.91,26.83-103.89,75.21-149.35,83.34c-44.7,8-39.02-30.17-31.79-60.83
	c17.17-72.73,41.7-149.22,59.53-206.15c7.48-23.9,22.06-44.02,47-49.25c26.9-5.63,39.41-3.79,66.58-1.76
	c8.13,0.61,31.79,134.15,35.58,149.29c14.04,56.3,59.3,194.37,77.55,249.41l-153.48,13.14l-21.2-128.51" class="st3"></path>
<path d="M1072.88,1365.05c-9.51-35.53-37.49-38.89-65.27-44.54c-17.21-3.49-67.23-23.66-81.38-10.93
	c-14.13,12.71-16.06,22.01-18.29,39.02c5.2,11.11,6.06,16.76,16.27,23.16c0,0,51.82,20.68,84.62,40.24
	c23.7,14.13,52.27,17.35,67.61,3.6c17.96-16.09,18.99-58.76,20.41-79.26c2.52-36.23-6.06-132.77-5.43-168.93
	c0.59-33.48,4.21-77.39-44.75-84.6c-42.09-3.49-90.37,2.03-116.78-8.61c-27.44,53.71-54.55,88.05-87.8,129.26
	c-27.35,33.91-30.39,92.19-31.7,135.77" class="st3"></path>
<path d="M1037.98,1326.5c21.13,0,33.89,8.65,45.53,27.89" class="st5"></path>
<path d="M1013.72,1319.67c-3.36-57.09,3.2-101.09-3.36-124.23" class="st4"></path>
<path d="M914.45,1339.28c2.93,7.03,15.77,13.52,22.76,15.46" class="st5"></path>
<path d="M927.45,1318.14c4.1,1.33,15.07,5.09,19.06,6.35" class="st5"></path>
<path d="M2051.11,1263.66c-19.42,11.11-41.23,18.93-61.08,27.51c-29.33,12.68-34,29.58-49.63,58.76" class="st4"></path>
<path d="M1977.12,1296.24c-16.94-3-41.23,20.12-47.63,35.42" class="st4"></path>
<path d="M1985.68,1291.38c-0.05-35.31,3.85-70.99,1.22-106.23" class="st4"></path>
<path d="M939.66,927.89c-7.66-26.99-35.58-54.7-61.78-62.61" class="st4"></path>
<path d="M938.85,935.21c-10.59-11.65-16.94-22.8-30.89-31.7" class="st4"></path>
<path d="M904.69,992.94c16.36-8.97,29.31-31.32,34.16-48.78c-6.24,11.49-15.64,21.34-26.83,28.46" class="st4"></path>
<path d="M732.34,1281.55c-1.62-5.47-1.01-26.43,2.46-43.46" class="st4"></path>
<path d="M1008.47,1181.59c0-37.63,8.25-75.5,31.84-92.83" class="st5"></path>
<path d="M731.48,1181.59c0-27.24,10.34-70.52,3.42-89.47" class="st5"></path>
<g>
	<g>
		<defs>
			<path d="M1062.09,1949.78c1.55-56.91-11.9-221.56-44.7-353.66c-13.7-55.15-36.25-109.84-36.25-109.84l-212.82-3.45
				c0,0-29.09,81.27-39.63,195.41c-4.87,52.81-17.48,271.51-17.48,271.51C790.69,1949.76,981.27,1965.76,1062.09,1949.78z" id="SVGID_1_"></path>
		</defs>
		<clipPath id="SVGID_2_">
			<use style="overflow:visible;" xlink:href="#SVGID_1_"></use>
		</clipPath>
		<g class="st11">
			<g>
				<path d="M786.9,1477.68c0.63,15.23-5.25,31.16-8.52,45.94c-8.97,40.49-17.08,81.92-21.81,123.15
					c-13.79,120.31-9.58,240.67-12.77,361.3" class="st12"></path>
				<path d="M797.18,1485.23c1.13,15.19-4.24,31.32-7.03,46.21c-7.66,40.76-14.42,82.42-17.82,123.8
					c-9.89,120.7-7.68,240.85-6.98,361.52" class="st12"></path>
				<path d="M965.62,1470.58c0.45,15.23,7.48,30.71,11.81,45.22c11.85,39.74,22.91,80.48,30.6,121.28
					c22.4,119.03,20.95,239.36,32.83,359.45" class="st12"></path>
				<path d="M955.88,1478.85c-0.05,15.23,6.47,30.93,10.32,45.58c10.57,40.1,20.3,81.18,26.65,122.2
					c18.52,119.68,19.04,240.11,27.01,360.51" class="st12"></path>
				<path d="M825.7,1479.82c0.02,48.31-4.03,96.05-7.46,144.26c-7.71,108.35-5,213.18-1.15,321.46" class="st12"></path>
				<path d="M840.8,1479.82c0.02,48.31-4.03,96.05-7.46,144.26c-7.71,108.35-5,213.18-1.15,321.46" class="st12"></path>
				<path d="M933.49,1480.23c3.11,48.22,10.25,95.57,16.81,143.47c14.73,107.61,18.84,212.42,22.03,320.72" class="st12"></path>
				<path d="M918.41,1481.22c3.11,48.22,10.25,95.57,16.81,143.47c14.73,107.61,18.84,212.42,22.03,320.72" class="st12"></path>
				<path d="M870.78,1469.05c7.64,82.42,7.01,165.15,8.63,247.88c1.55,78.59,2.14,241.57,2.14,241.57" class="st12"></path>
				<path d="M887.21,1469.05c7.64,82.42,7.01,165.15,8.63,247.88c1.55,78.59,2.14,241.57,2.14,241.57" class="st12"></path>
				<path d="M731.55,1522.22c44.41,4.93,89.72,3.13,134.39,2.97c71.53-0.23,142.75-3.38,213.48-14.49" class="st12"></path>
				<path d="M731.55,1538.08c44.41,4.93,89.72,3.13,134.39,2.97c71.53-0.23,142.75-3.38,213.48-14.49" class="st12"></path>
				<path d="M718.66,1582.76c44.41,4.93,89.72,3.13,134.39,2.97c71.53-0.23,142.75-3.38,213.48-14.49" class="st12"></path>
				<path d="M718.66,1598.6c44.41,4.93,89.72,3.13,134.39,2.97c71.53-0.23,142.75-3.38,213.48-14.49" class="st12"></path>
				<path d="M705.79,1643.28c44.41,4.93,89.72,3.13,134.39,2.97c71.53-0.23,142.75-3.38,213.48-14.49" class="st12"></path>
				<path d="M705.79,1659.12c44.41,4.93,89.72,3.13,134.39,2.97c71.53-0.23,142.75-3.38,213.48-14.49" class="st12"></path>
				<path d="M705.84,1703.79c44.41,4.93,89.72,3.13,134.39,2.97c71.53-0.23,142.75-3.38,213.48-14.49" class="st12"></path>
				<path d="M705.84,1719.66c44.41,4.93,89.72,3.13,134.39,2.97c71.53-0.23,142.75-3.38,213.48-14.49" class="st12"></path>
				<path d="M708.05,1764.31c44.41,4.93,89.72,3.13,134.39,2.97c71.53-0.23,142.75-3.38,213.48-14.49" class="st12"></path>
				<path d="M708.05,1780.17c44.41,4.93,89.72,3.13,134.39,2.97c71.53-0.23,142.75-3.38,213.48-14.49" class="st12"></path>
				<path d="M703.9,1824.85c47.02,4.93,94.99,3.13,142.26,2.97c75.72-0.23,151.13-3.38,225.98-14.49" class="st12"></path>
				<path d="M703.9,1840.69c47.02,4.93,94.99,3.13,142.26,2.97c75.72-0.23,151.13-3.38,225.98-14.49" class="st12"></path>
				<path d="M706.2,1885.37c48.46,4.93,97.87,3.13,146.61,2.97c78.05-0.23,155.75-3.38,232.87-14.49" class="st12"></path>
				<path d="M706.2,1901.23c48.46,4.93,97.87,3.13,146.61,2.97c78.05-0.23,155.75-3.38,232.87-14.49" class="st12"></path>
			</g>
		</g>
	</g>
</g>
<path d="M763.74,1464.88c-0.5,7.93-0.88,23.54-0.99,31.5c68.09,1.8,153.48-2.19,221.59-3.6l-3.13-30.82
	c-68.11,1.42-148.23,4.3-216.31,2.48" class="st2"></path>
<path d="M696.78,1297.14c-17.26,3.11-23.27,15.16-38.48,25.03" class="st5"></path>
<g>
	<path d="M860.44,1351.91c-0.07,0-0.11,0-0.18,0c-1.98-0.07-3.7-1.4-4.28-3.29c-0.86-2.77-21.2-68.09-24.96-87.94
		l-0.52-2.68c-13.25-69.89-19.89-104.97-22.26-179.16c-0.09-2.59,9.28-2.88,9.35-0.29c2.34,73.45,8.54,106.14,22.1,177.72l0.52,2.68
		c2.68,14.1,14.49,53.55,20.77,74.08c6.8-17.57,18.97-49.63,24.65-68.81c10.5-35.46,22.01-77.39,28.01-119.43
		c3.79-26.63,11.58-70.93,11.65-71.38c0.45-2.55,11.38-1.73,10.93,0.81c-0.07,0.45-9.53,45.4-13.32,71.87
		c-6.08,42.63-17.71,84.96-28.3,120.76c-8.2,27.73-28.93,79.87-29.81,82.08C864.07,1350.74,862.36,1351.91,860.44,1351.91z" class="st8"></path>
	<g>
		
			<rect height="62.52" width="84" class="st8" transform="matrix(0.2041 -0.979 0.979 0.2041 -677.4839 1938.4194)" y="1354.59" x="811.37"></rect>
		
			<rect height="39.25" width="52.72" class="st2" transform="matrix(0.2041 -0.979 0.979 0.2041 -677.475 1938.4338)" y="1366.23" x="827.02"></rect>
		
			<rect height="12.62" width="13.99" class="st2" transform="matrix(0.2041 -0.979 0.979 0.2041 -634.6246 1916.2683)" y="1342.11" x="854.18"></rect>
	</g>
</g>
<g>
	<g>
		<g>
			<g class="st13">
				<g>
					<g>
						<path d="M825.03,1150.76c8.56-0.77,19.58,4.33,24.49,11.36l38.84,168.87c2.5,7.71,1.92,13.36-6.65,14.13
							l-115.06,10.32c-8.56,0.77-19.58-4.33-24.47-11.33l-38.84-168.87c-3.74-9.37-1.92-13.38,6.65-14.15L825.03,1150.76z" class="st2"></path>
					</g>
				</g>
				<path d="M701.58,1165.86l5.05-11.04c0.02-0.02,0.02-0.05,0.05-0.07c0.02-0.02,0.02-0.05,0.05-0.09
					c0.09-0.16,0.18-0.34,0.27-0.5c0.02-0.02,0.02-0.07,0.05-0.09c0.02-0.02,0.02-0.05,0.05-0.07c0.11-0.18,0.25-0.36,0.38-0.54l0,0
					l0,0c0.14-0.18,0.29-0.36,0.47-0.52c0.02-0.02,0.04-0.05,0.04-0.07c0.02-0.02,0.05-0.05,0.09-0.07
					c0.16-0.14,0.32-0.29,0.47-0.43c0.02-0.02,0.05-0.05,0.07-0.07c0,0,0.02,0,0.02-0.02c0.2-0.16,0.41-0.32,0.63-0.45
					c0.02-0.02,0.05-0.02,0.07-0.05c0.02-0.02,0.07-0.02,0.09-0.05c0.25-0.16,0.52-0.32,0.79-0.45l0,0
					c0.18-0.09,0.36-0.18,0.56-0.25c0.05-0.02,0.09-0.05,0.14-0.05c0.14-0.07,0.27-0.11,0.43-0.16h0.02
					c0.23-0.09,0.47-0.16,0.72-0.23c0.07-0.02,0.11-0.02,0.18-0.05c0.2-0.05,0.38-0.11,0.59-0.16c0.02,0,0.07-0.02,0.09-0.02
					c0.04-0.02,0.11-0.02,0.16-0.02c0.23-0.05,0.45-0.09,0.68-0.14c0.09-0.02,0.18-0.02,0.27-0.05c0.32-0.05,0.63-0.09,0.95-0.11
					l118.04-10.59c0.41-0.05,0.83-0.05,1.24-0.07c0.07,0,0.14,0,0.23,0c0.41,0,0.81,0,1.22,0.02c0.09,0,0.16,0,0.25,0.02
					c0.43,0.02,0.86,0.04,1.28,0.09c0.02,0,0.07,0,0.09,0.02c0.41,0.05,0.83,0.11,1.26,0.18c0.05,0,0.09,0,0.14,0.02
					c0.02,0,0.07,0.02,0.09,0.02c0.29,0.04,0.61,0.11,0.9,0.18c0.02,0,0.05,0,0.07,0.02c0.32,0.07,0.65,0.14,0.97,0.23
					c0.02,0,0.05,0,0.07,0.02c0.05,0,0.07,0.02,0.11,0.02c0.52,0.14,1.01,0.27,1.53,0.43c0.02,0,0.02,0,0.05,0
					c0.05,0,0.07,0.02,0.11,0.05c0.41,0.14,0.81,0.27,1.22,0.41c0.05,0.02,0.09,0.02,0.11,0.05c0.02,0,0.05,0.02,0.07,0.02
					c0.38,0.14,0.77,0.29,1.15,0.45c0.05,0.02,0.07,0.02,0.11,0.05c0.05,0.02,0.11,0.05,0.16,0.07c0.32,0.14,0.63,0.27,0.92,0.41
					c0.05,0.02,0.09,0.05,0.14,0.07c0.02,0,0.05,0.02,0.05,0.02c0.36,0.16,0.7,0.34,1.04,0.5c0.02,0.02,0.07,0.02,0.09,0.05
					c0.05,0.02,0.11,0.07,0.16,0.09c0.27,0.14,0.54,0.29,0.81,0.43c0.04,0.02,0.11,0.07,0.16,0.09c0.02,0.02,0.07,0.05,0.09,0.05
					c0.34,0.18,0.68,0.38,0.99,0.59c0.02,0,0.02,0.02,0.05,0.02c0.05,0.02,0.07,0.05,0.11,0.07c0.29,0.18,0.56,0.36,0.86,0.54
					c0.05,0.02,0.09,0.07,0.14,0.09c0.05,0.02,0.07,0.05,0.11,0.07c0.34,0.23,0.65,0.45,0.97,0.7l0.02,0.02
					c0.02,0.02,0.04,0.05,0.07,0.05c0.32,0.25,0.63,0.5,0.95,0.74c0.05,0.02,0.09,0.07,0.11,0.09c0.02,0.02,0.05,0.02,0.07,0.05
					c0.36,0.29,0.72,0.61,1.06,0.92c0.02,0.02,0.07,0.05,0.09,0.09c0.05,0.05,0.09,0.09,0.11,0.11c0.14,0.11,0.25,0.25,0.38,0.36
					c0.09,0.09,0.18,0.18,0.27,0.27c0.14,0.14,0.25,0.27,0.38,0.41c0.07,0.07,0.11,0.14,0.18,0.18c0.02,0.02,0.02,0.02,0.05,0.05
					c0.27,0.29,0.52,0.59,0.77,0.88c0.05,0.07,0.11,0.14,0.16,0.2c0.25,0.32,0.47,0.61,0.7,0.92l37.78,165.04
					c1.55,3.76,2.34,8.07,1.73,9.35l-8.13,16.42c1.17-2.55,0.5-7.46-0.59-10.63l-38.75-168.96c-0.23-0.32-0.45-0.63-0.7-0.92
					c-0.05-0.07-0.11-0.14-0.16-0.2c-0.25-0.29-0.5-0.59-0.77-0.88c-0.07-0.09-0.16-0.16-0.23-0.25c-0.14-0.14-0.25-0.27-0.38-0.41
					c-0.09-0.09-0.18-0.18-0.27-0.27c-0.14-0.14-0.25-0.25-0.38-0.36c-0.07-0.07-0.14-0.14-0.23-0.2c-0.34-0.32-0.7-0.61-1.06-0.92
					c-0.07-0.05-0.11-0.09-0.18-0.14c-0.32-0.25-0.63-0.5-0.95-0.74c-0.02-0.02-0.07-0.05-0.09-0.07c-0.32-0.23-0.65-0.47-0.97-0.7
					c-0.09-0.05-0.16-0.11-0.25-0.16c-0.27-0.18-0.56-0.36-0.86-0.54c-0.05-0.02-0.09-0.07-0.16-0.09c-0.32-0.2-0.65-0.38-0.99-0.59
					c-0.09-0.05-0.18-0.09-0.27-0.14c-0.27-0.16-0.54-0.29-0.81-0.43c-0.09-0.05-0.16-0.09-0.25-0.14c-0.34-0.18-0.7-0.34-1.04-0.5
					c-0.07-0.02-0.14-0.07-0.2-0.09c-0.32-0.14-0.63-0.27-0.92-0.41c-0.09-0.04-0.18-0.07-0.27-0.11c-0.38-0.16-0.77-0.29-1.15-0.45
					c-0.07-0.02-0.11-0.05-0.18-0.07c-0.41-0.14-0.81-0.27-1.22-0.41c-0.04-0.02-0.09-0.02-0.14-0.04
					c-0.52-0.16-1.01-0.29-1.53-0.43c-0.07-0.02-0.11-0.02-0.18-0.05c-0.32-0.09-0.65-0.16-0.97-0.23c-0.02,0-0.05,0-0.07-0.02
					c-0.29-0.07-0.61-0.11-0.9-0.18c-0.07-0.02-0.16-0.02-0.23-0.05c-0.43-0.07-0.83-0.14-1.26-0.18c-0.02,0-0.07,0-0.09-0.02
					c-0.43-0.05-0.86-0.07-1.28-0.09c-0.09,0-0.16,0-0.25-0.02c-0.41-0.02-0.81-0.02-1.22-0.02c-0.07,0-0.14,0-0.23,0
					c-0.43,0-0.83,0.02-1.24,0.07l-115.06,10.32c-0.34,0.02-0.65,0.07-0.95,0.11c-0.09,0.02-0.18,0.02-0.27,0.05
					c-0.23,0.05-0.45,0.09-0.68,0.14c-0.09,0.02-0.16,0.05-0.25,0.05c-0.2,0.05-0.41,0.09-0.59,0.16c-0.07,0.02-0.11,0.02-0.18,0.05
					c-0.25,0.07-0.5,0.16-0.72,0.23c-0.16,0.05-0.32,0.11-0.45,0.18c-0.05,0.02-0.09,0.05-0.14,0.05c-0.2,0.09-0.38,0.16-0.56,0.25
					c-0.27,0.14-0.54,0.29-0.79,0.45c-0.05,0.02-0.11,0.07-0.16,0.09c-0.23,0.14-0.43,0.29-0.63,0.45
					c-0.02,0.02-0.07,0.05-0.09,0.07c-0.16,0.14-0.32,0.27-0.47,0.43c-0.04,0.05-0.09,0.09-0.14,0.14
					c-0.16,0.16-0.32,0.34-0.47,0.52l0,0c-0.14,0.18-0.27,0.36-0.38,0.54c-0.05,0.05-0.07,0.11-0.09,0.16
					c-0.09,0.16-0.18,0.32-0.27,0.5C701.63,1165.75,701.6,1165.81,701.58,1165.86L701.58,1165.86L701.58,1165.86z" class="st2"></path>
			</g>
		</g>
		<g>
			<path d="M874.89,1260.6L874.89,1260.6c1.46,2.28,3.06,4.3,4.78,5.93L874.89,1260.6z" class="st8"></path>
			<path d="M909.9,1296.6c-4.66-6.92-6.98-18.72-7.34-26.81c-0.43-10.03-5.2-12.73-11.51-19.87
				c-5.59-6.33-7.66-13.74-12.23-20.44c-5.77-8.49-11.72-2.48-11.81,6.35c-0.09,7.5,3.13,17.39,7.84,24.74l0,0l4.78,5.93
				c-1.71-1.62-3.31-3.67-4.78-5.93c-13.63,1.51-33.68-11.15-46.05-17.26c-7.59-3.74-14.69-8.47-22.87-10.7
				c-14.35-3.92-6.96,6.17,0.32,11.6c9.8,7.32,25.98,16.9,32.58,24.51c-10.25-1.94-32.24-12.73-44.14-17.8
				c-5.09-2.19-14.53-6.15-20.03-4.06c-9.33,3.54,2.68,8.85,6.98,11.4c3.92,2.32,17.6,9.4,21.52,11.63c11.85,6.69,21.45,10,21.45,10
				c-12.14-1.78-23.05-8.04-34.27-13.29c-5.81-2.7-11.36-5.84-17.01-8.65c-2.37-1.17-5.23-3.18-6.51,0
				c-1.15,2.86,2.23,6.8,4.06,8.54c13.34,12.75,32.65,21.79,49.61,28.46c-7.91-2.05-12.57-0.25-20.5-2.07
				c-7.89-1.8-14.98-4.06-22.98-4.84c-2.61-0.25-9.49-0.92-6.83,3.94c1.35,2.48,9.35,4.69,11.9,5.95
				c11.69,5.75,22.87,7.05,35.67,9.28c10.59,1.85,30.39,13.74,40.55,17.24c13.02,4.46,20.55,4.87,30.62,8.83
				c3.9-12.98,12.5-26.59,21.07-36.57C909.99,1296.69,909.94,1296.67,909.9,1296.6z" class="st8"></path>
		</g>
		<path d="M829.28,1303.18c1.37,0.52,2.84,0.95,4.26,1.22" class="st4"></path>
		<path d="M833.56,1290.38c1.22,0.36,4.08,1.35,4.08,1.35" class="st4"></path>
		<path d="M839.26,1278.15c1.62,0.86,3.54,1.76,3.54,1.76" class="st4"></path>
		<line y2="1266.61" x2="851.84" y1="1264.14" x1="848.14" class="st4"></line>
	</g>
	<path d="M933.96,1303.5l-20.53-10.54c-11.81,12.41-24.87,33.03-26.47,50.24l23.5,12.82
		C910.46,1356.02,912.42,1334.59,933.96,1303.5z" class="st3"></path>
</g>
<path d="M2243.18,1054.27c0,0-16.6,85.71-87.82,85.71c-63.31,0-101.84-82.01-101.84-82.01" class="st4"></path>
<line y2="1138.44" x2="2156.98" y1="1109.76" x1="2156.98" class="st4"></line>
<path d="M2168.56,1110.01c2.14,8.99,4.28,18,6.42,26.99" class="st4"></path>
<path d="M2197.8,1114.76c1.31,4.17,3.2,8.13,5.59,11.78" class="st4"></path>
<path d="M2203.05,1101.53c3.97,4.84,11.45,11.45,11.45,11.45" class="st4"></path>
<path d="M2206.66,1085.18c6.2,6.85,19.98,15.34,19.98,15.34" class="st4"></path>
<path d="M2210.98,1070.33c8.11,2.48,16.24,4.96,24.36,7.44" class="st4"></path>
<path d="M2142.63,1109.98c-1.82,9.69-4.19,19.26-7.07,28.7" class="st4"></path>
<path d="M2096.57,1100.97c-3.02,3.36-6.92,7.68-6.92,7.68" class="st4"></path>
<path d="M2089.73,1087.77c-4.06,3.09-8.31,5.9-12.73,8.43" class="st4"></path>
<path d="M2083.89,1076.1c-5.07,1.58-10.03,3.58-14.76,5.99" class="st4"></path>
<path d="M2076.41,1061.59c-6.51,2.05-12.84,4.69-18.88,7.86" class="st4"></path>
<g>
	<path d="M2147.79,1393.35c-0.05,0-0.07,0-0.11,0c-2.05-0.09-3.79-1.51-4.33-3.47c-0.23-0.88-23.43-88.52-28.55-111.57
		c-9.98-44.9-14.22-78.68-18.72-114.41c-3.92-31.23-8-63.54-16.27-104c-0.52-2.52,1.13-5,3.65-5.52c2.52-0.52,5,1.13,5.52,3.65
		c8.34,40.8,12.44,73.29,16.38,104.7c4.46,35.51,8.7,69.06,18.57,113.53c3.81,17.12,17.75,70.5,24.6,96.57
		c7.34-20.84,20.71-59.64,26.77-82.71c9.82-37.49,13.81-76.4,17.66-114.05c0.92-8.94,1.82-17.91,2.84-26.88
		c3.72-33.59,6.89-64.77,9.67-95.39c0.23-2.57,2.48-4.44,5.09-4.24c2.57,0.23,4.48,2.52,4.24,5.09
		c-2.79,30.66-5.97,61.91-9.69,95.57c-0.99,8.94-1.92,17.87-2.82,26.79c-3.9,37.99-7.93,77.28-17.93,115.47
		c-8.63,32.94-31.86,97.13-32.08,97.76C2151.62,1392.15,2149.79,1393.39,2147.79,1393.35z" class="st8"></path>
	<g>
		
			<rect height="73.75" width="99.05" class="st8" transform="matrix(0.1734 -0.9849 0.9849 0.1734 357.1297 3294.3884)" y="1397.57" x="2091.57"></rect>
		
			<rect height="46.28" width="62.16" class="st2" transform="matrix(0.1734 -0.9849 0.9849 0.1734 357.1344 3294.3684)" y="1411.29" x="2110"></rect>
		
			<rect height="14.87" width="16.52" class="st2" transform="matrix(0.1734 -0.9849 0.9849 0.1734 407.3017 3265.375)" y="1382.61" x="2140.64"></rect>
	</g>
</g>
<g>
	<g>
		<path d="M2342.79,1150.36c-0.32,0-0.63,0-0.95,0c-101.61,0-203.22-0.16-304.84-0.16c-14.26,0-24.27,4.19-24.02,18.93
			c0.32,19.08,3.27,38.53,5.2,57.52c3.83,37.54,8.49,74.98,14.01,112.29c0.45,3.06,0.99,6.31,2.97,8.7
			c3.2,3.83,8.85,4.15,13.86,4.15c90.87-0.02,181.71-0.05,272.57-0.05c9.26,0,13.65-3.36,14.82-12.89
			c7.05-56.82,20.01-116.91,20.01-174.18c0.34-3.33,0.59-6.96-1.24-9.76C2352.66,1151.06,2347.47,1150.43,2342.79,1150.36z" class="st8"></path>
	</g>
	<g>
		<path d="M2342.79,1157.39c-0.32,0-0.63,0-0.95,0c-101.61,0-203.22-0.14-304.84-0.14c-14.26,0-24.27,4.03-24.02,18.27
			c0.32,18.41,3.27,37.18,5.2,55.49c3.83,36.21,8.49,72.35,14.01,108.35c0.45,2.95,0.99,6.08,2.97,8.38
			c3.2,3.7,8.85,3.99,13.86,3.99c90.87-0.02,181.71-0.02,272.57-0.05c9.26,0,13.65-3.24,14.82-12.44
			c7.05-54.82,20.01-112.79,20.01-168.08c0.34-3.22,0.59-6.71-1.24-9.42C2352.66,1158.06,2347.47,1157.45,2342.79,1157.39z" class="st8"></path>
	</g>
	<path d="M2332.2,1366.76h-294.25c-3.83,0-6.92-3.11-6.92-6.92v-1.17c0-3.83,3.11-6.92,6.92-6.92h294.22
		c3.83,0,6.92,3.11,6.92,6.92v1.17C2339.11,1363.65,2336.01,1366.76,2332.2,1366.76z" class="st8"></path>
</g>
<g>
	<path d="M2148.51,1098.9c-16.56,5.72-28.55,25.44-36.72,41.5c-21.02-31.84-46.34-94.54-46.34-94.54
		c10.39-6.31,24.33-29.92,28.32-31.34c5.45-1.94,18.84,1.85,22.8,1.1c0,0-2.68,14.55-9.06,23.05" class="st8"></path>
</g>
<g>
	<path d="M2158.76,1098.9c16.56,5.72,28.55,25.44,36.72,41.5c21.02-31.84,46.35-94.54,46.35-94.54
		c-10.39-6.31-24.33-29.92-28.32-31.34c-5.45-1.94-17.44,1.62-21.4,0.88c0,0,2.73,14.78,9.1,23.27" class="st8"></path>
	<path d="M2210.06,1024.82c-10.45,25.19-36.84,51.8-56.42,70.77c-19.58-18.97-45.96-45.58-56.42-70.77" class="st4"></path>
</g>
<path d="M2561.99,853.84c0.95,45.02,13.23,150.03-50.96,163.59c24.38,51.39,101.21,29.65,123.22-11.99
	c15.34-29,9.4-73.99,2.91-104.68c-3.31-15.7-10.32-31.54-20.41-44.25C2600.9,836.55,2586.34,845.77,2561.99,853.84z" class="st3"></path>
<path d="M2800.04,967.21c-16.67,7.75-66.69,0-81.47-15.3c-12.89-13.32-16.72-86.9-23.72-86.9
	c-20.48,9.55-67.1,34.49-87.51,44.2c2.01-0.88,22.89,55.31,9.06,69.91c-11.42,12.05-71.78-5.23-101.88,8.18l22.58,190.72
	l304.16-88.7L2800.04,967.21z" class="st8"></path>
<path d="M2640.28,1506.43l136.56-55.72c8.94-10.41,10.03-19.24,13.77-31.14c25.75-81.81,70.41-278.7,72.01-286.23
	l-166.95-89.36c-1.76,31.29-210.57,105.85-210.57,105.85c0,34.74-1.85,43.93-0.34,78.47c4.03,92.01,36.14,135.59,53.65,224.16
	L2640.28,1506.43" class="st2"></path>
<path d="M2868.71,1988.11c-5.05-65.23-5.47-280.14-34.49-388.58c-12.71-47.49-34-96.99-55.72-148.81
	c-156.02,24.31-243.26-6.11-243.26-6.11s-18.52,143.81-28.25,218.16c-10.86,82.98-23.45,346.32-23.45,346.32" class="st3"></path>
<pattern patternTransform="matrix(0.0579 0.018 0.018 -0.0579 -16024.3984 -13514.4854)" xlink:href="#SVGID_3_" id="SVGID_5_">
</pattern>
<path d="M2867.97,1978.44c-5.07-63.51-5.27-272.53-33.73-378.92c-12.71-47.49-34-96.99-55.72-148.81
	c-156.02,24.31-243.26-6.11-243.26-6.11s-18.52,143.81-28.25,218.16c-10.25,78.23-22.26,336.29-22.26,336.29" class="st14"></path>
<path d="M2838.21,1978.44c-6.15-76.22-20.19-312.05-33.41-361.52c-12.86-48.15-31.99-111.17-53.37-162.2" class="st5"></path>
<path d="M2525.49,1496.52c0,0,95.84,37.63,265.66,2.73" class="st5"></path>
<g>
	<path d="M2411.57,1259.27c41.79-16.88,152.1-37.29,173.73-48.78c12.68-6.74,16.18-16.51,22.6-21.56
		c13.27-10.48,39.52-10.86,55.7-13.32l2.34,0.7c4.24,1.24,7.28,4.96,7.68,9.35c7.39-0.34,14.53,0.5,21.9,0.09
		c5.52-0.32,12.08-0.23,16.2,3.97c5.61,5.7,2.73,16.2-4.08,19.53c4.06,3.76,3.65,10.07-1.35,13.34c-4.17,2.73-11.13,3.09-16.09,2.55
		c4.01,0.9,10.12,2.59,12.3,5.5c2.93,3.92-0.16,9.08-3.6,11.54c-2.28,1.62-8.72,1.44-12.08,1.01c3.65,0.79,10.43,2.57,9.69,6.85
		c-1.58,9.06-16.92,9.55-23.75,9.8c-8.97,0.32-22.12,2.61-31.09,1.98c-19.42-1.37-37.81-6.89-37.81-6.89
		c-9.26,1.37-142.64,75.79-142.64,75.79c-30.75,13.47-47.49,13.9-71.94,12.39c-66.24-4.03,11.94-133.43,18.47-144.13l60.97,32.78" class="st8"></path>
	<path d="M2672.63,1197.72c2.48-0.52,5.11-0.43,7.66-0.36" class="st5"></path>
	<path d="M2672.74,1216.71c2.37-0.65,4.78-0.97,7.21-0.97" class="st5"></path>
	<path d="M2670.49,1233.7c2.34-0.23,4.73-0.29,7.03,0.07" class="st5"></path>
	<path d="M2669.64,1248.75c1.62-0.27,3.24-0.18,4.84,0.25" class="st5"></path>
	<path d="M2706.34,1209.05c-7.07,0.14-11.18-0.02-18.25,0.05" class="st8"></path>
	<path d="M2670.27,1185.6c-12.3,0.99-31.11,2.82-31.11,2.82" class="st8"></path>
</g>
<path d="M2564.69,759.68c-8.49,9.31-15.01,20.39-18.52,32.67c-6.78,23.61-2.97,48.67,0.9,72.73
	c3.85,23.99,8.83,50.11,27.08,65.36c15.16,12.68,36.77,14.92,56.19,10.68c61.73-13.47,98.84-74.03,90.03-135.09
	c-5.79-40.06-42.54-71.89-81.88-75.88C2611.46,727.42,2583.32,739.29,2564.69,759.68z" class="st10"></path>
<path d="M2579.42,820.49c-12.84-10.75-27.71,2.68-27.71,2.68" class="st4"></path>
<path d="M2614.91,819.43c18.84-16.85,44.25,0.36,44.25,0.36" class="st4"></path>
<path d="M2575.64,841.22c-0.09,4.57-2.5,8.25-5.36,8.18c-2.86-0.07-5.11-3.83-5.02-8.4c0.09-4.57,2.5-8.25,5.36-8.18
	C2573.5,832.88,2575.73,836.64,2575.64,841.22z"></path>
<path d="M2637.37,839.26c-0.09,4.57-2.5,8.25-5.36,8.18c-2.86-0.07-5.11-3.83-5.02-8.4c0.09-4.57,2.5-8.25,5.36-8.18
	C2635.21,830.9,2637.46,834.66,2637.37,839.26z"></path>
<path d="M2583.34,825.29c4.73,8.38,2.77,20.91,2.7,30.15c-0.05,5.63-1.69,12.73,4.73,15.48" class="st4"></path>
<path d="M2667.54,877.2c4.64-8.9,1.17-19.87-7.73-24.51c-8.9-4.64-19.87-1.17-24.51,7.73
	c-4.64,8.9-1.17,19.87,7.73,24.51C2651.93,889.57,2662.9,886.1,2667.54,877.2z" class="st9"></path>
<path d="M2550.45,883.53c6.8,2.55,14.58-0.27,18.02-6.87c3.72-7.14,0.95-15.97-6.2-19.69
	c-5.27-2.75-11.42-1.94-15.82,1.53C2547.32,866.93,2548.51,875.4,2550.45,883.53z" class="st9"></path>
<path d="M2720.37,806.05c-5.79-40.06-42.54-71.89-81.88-75.88c-27.01-2.73-55.15,9.12-73.79,29.54
	c-8.49,9.31-15.01,20.39-18.52,32.67c-6.78,23.61-2.97,48.67,0.9,72.73c3.85,23.99,8.83,50.11,27.08,65.36
	c15.16,12.68,36.77,14.92,56.19,10.68c4.91-1.08,9.69-2.46,14.28-4.1" class="st4"></path>
<path d="M2604.7,911.29c12.01-4.21,15.5-20.93,17.44-31.52c-14.4,4.42-31.84,6.56-46.66,3.99c0,0,4.42,14.17,9.06,20.41
	C2589.07,910.21,2596.86,914.04,2604.7,911.29z" class="st8"></path>
<path d="M2544.03,842.46c0.95-9.33-1.19-18.68-1.85-28.03c-1.44-20.98,4.06-49.32,18.02-64.91
	c30.57-34.13,49.05-26.09,49.05-26.09c18.52-14.67,44.81-15.75,67.05-8.79c51.37,16.09,66.46,73.43,73.11,121.03
	c20.75,148.63,48.15,163.03,84.76,173.69c-20.01,13.86-83.99,8.99-97.33-15.97c1.4,16.9,15.84,33.66,34.29,30.73
	c-91.23,9.67-69.3-103.59-67.19-163.93c0.83-23.84-15.66-36.7-34.38-51.59c-12.57-10-18.18-25.86-18.18-25.86
	s13.11,35.1,29.24,50.72c-14.19-4.75-40.71-29.58-47.43-46.44c3.81,17.53,12.17,28.55,18.18,39.99c-12.46,0-36.97-3.92-48.6-8.07
	c-19.49-6.94-27.33-32.89-27.33-54.75c-6.92,4.62-17.82,23.03-20.62,30.93C2550.16,808.59,2545.47,828.33,2544.03,842.46z" class="st3"></path>
<g>
	<path d="M2700.52,869.92c14.78-4.84,26.36-26.77,18.99-41.84c-6.6-13.5-26.23-9.96-30.03,3.76" class="st8"></path>
	<path d="M2696.38,848.74c-2.88-8.67,9.35-14.46,16.15-10.59" class="st4"></path>
	<path d="M2696.15,847.66c1.73-5.38,9.42-1.92,11.4,1.49" class="st4"></path>
</g>
<path d="M2713.89,874.97c0-6.62-5.38-12.01-12.01-12.01c-6.62,0-12.01,5.38-12.01,12.01c0,6.62,5.38,12.01,12.01,12.01
	C2708.5,886.98,2713.89,881.62,2713.89,874.97z" class="st2"></path>
<path d="M2486.89,1274.88c-33.53-2.82-77.68-18.79-106.88-34.67c0,0,47.13-131.28,65.83-187.81
	c14.17-42.83,28.66-69.17,59.46-74.35c26.86-4.53,75.7,7.62,101.61-5.59c8.63-4.39,8-18.72,8-18.72s63.9,4.82,89.33,0
	c0,0,7.16,17.21,16.11,17.1c63.92-0.79,154.4-27.73,181.55,15.1c13.99,22.08,25.96,67.32,27.42,89.87
	c4.24,64.84,18.59,108.62,24.81,172.79c0,0,2.39,57.48-63.47,51.89c0,0-43.17-75.97-73.16-151.63" class="st2"></path>
<path d="M2672,782.77c11.15,13.9,25.41,21.25,32.17,38.89" class="st5"></path>
<path d="M2710.84,818.98c0.72-9.8-6.2-17.39-10.72-25.48" class="st5"></path>
<g>
	<path d="M2741.17,971.13c4.78,42.29,0.41,86.04-4.03,128.18c-3.27,31.02-6.35,62.18-13.11,92.69
		c-5.5,24.87-9.89,50.85-22.82,84.44c0,0-19.2-60.22-26.09-90.37c-13.88-60.54-76.96-127.18-72.01-219.22" class="st15"></path>
	<g>
		
			<rect height="113.55" width="84.53" class="st8" transform="matrix(0.9943 -0.1062 0.1062 0.9943 -125.8757 294.8748)" y="1272.53" x="2663.42"></rect>
		
			<rect height="71.26" width="53.06" class="st2" transform="matrix(0.9943 -0.1062 0.1062 0.9943 -125.8741 294.8735)" y="1293.66" x="2679.15"></rect>
		
			<rect height="18.92" width="17.05" class="st2" transform="matrix(0.9943 -0.1062 0.1062 0.9943 -120.4502 294.0006)" y="1268.46" x="2691.66"></rect>
	</g>
</g>
<path d="M166.06,963.94c58.76-23.12,94.72-32.22,109.77-47.79c13.11-13.56,27.04-99.25,27.42-102.69
	c20.86,9.71,68.31,35.12,89.11,45.02c-2.05-0.9-21.79,49.63-7.71,64.5c11.63,12.26,87.55,12.84,118.19,26.5l16.81,29.47
	l-365.47,62.9L166.06,963.94z" class="st8"></path>
<path d="M502.89,1524.79L502.89,1524.79C502.89,1524.66,502.89,1524.63,502.89,1524.79z" class="st3"></path>
<path d="M346.16,1973.55c-0.54-87.15-0.38-258.24-4.24-289.43c-3.65,8.36-6.11,19.11-8.92,27.51
	c-14.31,42.67-81.49,265.59-81.49,265.59H104.25c10.23-164.49,20.91-238.12,29.54-300.15c15.34-110.35,27.8-180.27,58.98-270.05
	l319.68,86.79c0.02,2.95,9.6,80.48,7.14,188.11c-1.85,80.73-20.57,291.3-20.57,291.3L346.16,1973.55z" class="st3"></path>
<path d="M126.79,1977.2c10.23-164.49,20.91-238.12,29.54-300.15c15.34-110.35,27.8-180.27,58.98-270.05" class="st5"></path>
<path d="M317.28,1696.9c0,0-45.04,9.8-64.1,17.78" class="st5"></path>
<path d="M332.98,1680.99c-32.71,4.73-90.55,6.13-122.79,13.2" class="st5"></path>
<path d="M341.14,1689.47c9.51-41.88,10.03-182.95,10.03-182.95" class="st5"></path>
<path d="M347.83,1669.35c36.68-29.58,40.98-118.53,38.8-166.41" class="st5"></path>
<path d="M239.6,1523.35c0,0-8.16,42.6-18.99,69.35c-10.41,25.68-43.73,50.72-60.09,54.95" class="st5"></path>
<line y2="1694.58" x2="405.6" y1="1689.69" x1="355.29" class="st5"></line>
<path d="M471.59,1529.68c5.63,59.57,15.75,93.86,44.27,98.62" class="st5"></path>
<path d="M41.53,997.56c33.98-9.69,123.24-35.46,175.62-53.89c8.22-2.88,16.9-4.3,24.65-9.31
	c14.67-9.42,23.36-26.25,34.99-37.67c15.5,32.89,36.21,63.33,66.35,89.96c22.76-9.37,44.7-63.74,44.7-63.74s44.27,6.87,44.14,7.21
	c-0.14,0.34,89.42,26.63,100.53,30.44c11.74,4.03,106.5,95.89,109.68,109.7c0,0.02-62.41,211.04-62.41,211.04
	c-34.61-58.31-43.03-89.18-60.09-126.96c0,0,0.65,260.27-7.21,339.44c0,0-146.9,35.55-340.95-8.65c0,0-55.47-130.56-83.29-303.89
	l-55.06,67.91" class="st8"></path>
<g>
	<path d="M519.54,1499.08c-5.5,2.37-20.46,4.17-61.64,8.38c-26.2,2.68-195.65,3.56-291.09-14.15l-8.11,37.4
		c17.73,6.17,177.36,16.99,218.57,15.19c51.14-2.23,92.6,0,141.56-10.9L519.54,1499.08z" class="st2"></path>
	<path d="M443.65,1500.12c0.23,17.42-1.67,34.72-0.36,52.05c4.08-0.16,7.5-0.5,11.56-1.15
		c0.7-10.86,2.86-21.63,3.36-33.01c0.18-4.48,0.74-14.89-0.36-18.93C457.85,1499.08,448.27,1500.44,443.65,1500.12z" class="st3"></path>
	<path d="M290.54,1498.79c-1.78,17.39-1.46,34.74-4.33,51.98c-4.06-0.36-7.44-0.86-11.42-1.71
		c0.29-10.88-0.9-21.74-0.36-33.12c0.2-4.48,0.59-14.92,2.07-18.86C276.5,1497.06,285.92,1498.88,290.54,1498.79z" class="st3"></path>
	<path d="M323.45,1546.89c0,2.28,1.58,4.17,3.49,4.17l69.98,0.18c1.94,0,3.51-1.87,3.51-4.15l0.09-35.31
		c0-2.28-1.58-4.17-3.49-4.17l-69.98-0.18c-1.94,0-3.51,1.87-3.51,4.15L323.45,1546.89z M337.63,1538.56l0.05-18.54
		c0-1.19,1.01-2.19,2.23-2.19l44.25,0.11c1.22,0,2.21,0.99,2.21,2.19l-0.05,18.54c0,1.19-1.01,2.19-2.23,2.19l-44.25-0.11
		C338.62,1540.74,337.63,1539.77,337.63,1538.56z" class="st8"></path>
	<path d="M377.01,1526.17c5.18,0.32,9.71,0,14.71-0.54c0.16,1.37,1.24,6.13,0,7.21c-1.1,0.95-7.39,0.54-8.92,0.38
		C379.82,1532.88,367.41,1529.14,377.01,1526.17z" class="st8"></path>
</g>
<g>
	<g>
		<defs>
			<path d="M41.53,997.56c33.98-9.69,123.24-35.46,175.62-53.89c8.22-2.88,16.9-4.3,24.65-9.31
				c14.67-9.42,23.36-26.25,34.99-37.67c15.5,32.89,36.21,63.33,66.35,89.96c22.76-9.37,44.7-63.74,44.7-63.74l44.14,7.21
				c0,0,89.42,26.63,100.53,30.44c11.74,4.03,106.5,95.89,109.68,109.7c0,0.02-62.41,211.04-62.41,211.04
				c-33.25-56.71-43.03-89.18-60.09-126.96c0,0,0.65,260.27-7.21,339.44c0,0-168.35,26.23-340.95-8.65
				c0,0-55.47-130.56-83.29-303.89l-63.65,77.23" id="SVGID_7_"></path>
		</defs>
		<clipPath id="SVGID_9_">
			<use style="overflow:visible;" xlink:href="#SVGID_7_"></use>
		</clipPath>
		<g class="st16">
			<path d="M110.77,929.7c41.7,206.67,86.47,432.22,122.93,637.21" class="st17"></path>
			<path d="M92.63,929.7c43.12,213.63,92.06,439.46,127.21,637.21" class="st17"></path>
			<path d="M57.37,930.57c47.25,212.73,100.22,438.01,139.22,635.09" class="st17"></path>
			<path d="M168.4,922.01c31.54,207.14,64.26,433.89,90.96,641.46" class="st17"></path>
			<path d="M150.28,921.13c31.54,207.14,64.26,433.89,90.96,641.46" class="st17"></path>
			<path d="M225.09,926.29c25.89,207.93,52.92,435.02,73.94,643.27" class="st17"></path>
			<path d="M206.99,924.92c25.89,207.93,52.92,435.02,73.94,643.27" class="st17"></path>
			<path d="M283.15,922.98c15.86,208.92,32.87,436.26,43.87,645.27" class="st17"></path>
			<path d="M265.14,920.75c15.86,208.92,32.87,436.26,43.87,645.27" class="st17"></path>
			<path d="M356.28,917.03c9.24,209.33,19.67,436.53,24.06,645.79" class="st17"></path>
			<path d="M338.35,914.24c9.24,209.33,19.67,436.53,24.06,645.79" class="st17"></path>
			<path d="M308.11,920.03c14.53,209.04,30.21,436.35,39.86,645.43" class="st17"></path>
			<path d="M414.41,918.34c-0.81,209.53-0.41,436.17-6.06,645.41" class="st17"></path>
			<path d="M396.63,914.69c-0.81,209.53-0.41,436.17-6.06,645.41" class="st17"></path>
			<path d="M459.06,924.54c-4.6,205.66,2.91,434.72-6.65,639.89" class="st17"></path>
			<path d="M440.75,923.68c-4.6,205.64,3.13,431.32-6.42,636.51" class="st17"></path>
			<path d="M528.37,937.15c-13.41,203.58-26,422.9-44.41,625.74" class="st17"></path>
			<path d="M510.28,931.99c-13.41,203.58-26,422.9-44.41,625.74" class="st17"></path>
		</g>
	</g>
	<g>
		<path d="M41.53,997.56c33.98-9.69,123.24-35.46,175.62-53.89c8.22-2.88,16.9-4.3,24.65-9.31
			c14.67-9.42,23.36-26.25,34.99-37.67c15.5,32.89,36.21,63.33,66.35,89.96c22.76-9.37,44.7-63.74,44.7-63.74l44.14,7.21
			c0,0,89.42,26.63,100.53,30.44c11.74,4.03,106.5,95.89,109.68,109.7c0,0.02-62.41,211.04-62.41,211.04
			c-33.25-56.71-43.03-89.18-60.09-126.96c0,0,0.65,260.27-7.21,339.44c0,0-168.35,26.23-340.95-8.65c0,0-55.47-130.56-83.29-303.89
			l-63.65,77.23" class="st4" id="SVGID_4_"></path>
	</g>
</g>
<path d="M442.66,714.91c7.55,10.36,12.89,22.31,15.07,35.15c4.19,24.67-2.48,49.59-9.08,73.49
	c-6.6,23.86-14.58,49.7-34.74,63.11c-16.76,11.13-38.89,10.97-58.06,4.48c-60.94-20.57-91.72-86.02-75.93-146.81
	c10.36-39.88,51.14-67.97,91.38-67.59C398.95,676.99,426.1,692.16,442.66,714.91z" class="st10"></path>
<path d="M420.45,779.12c14.22-9.42,27.76,5.81,27.76,5.81" class="st4"></path>
<path d="M384.65,774.05c-17.17-19.17-44.84-4.62-44.84-4.62" class="st4"></path>
<path d="M421.96,800.53c-0.43,4.64,1.6,8.63,4.51,8.9c2.91,0.27,5.61-3.29,6.02-7.93c0.43-4.64-1.6-8.63-4.51-8.9
	S422.36,795.89,421.96,800.53z"></path>
<path d="M359.7,791.58c-0.43,4.64,1.6,8.63,4.51,8.9s5.61-3.29,6.02-7.93c0.43-4.64-1.6-8.63-4.51-8.9
	C362.81,783.38,360.11,786.94,359.7,791.58z"></path>
<path d="M415.94,783.54c-5.72,7.95-5.16,20.84-6.13,30.21c-0.59,5.7,0.27,13.07-6.53,15.14" class="st4"></path>
<path d="M324.92,826.62c-3.7-9.53,1.04-20.25,10.57-23.95s20.25,1.04,23.95,10.57c3.7,9.53-1.04,20.25-10.57,23.95
	C339.31,840.86,328.59,836.13,324.92,826.62z" class="st9"></path>
<path d="M442.66,846.17c-7.16,1.8-14.73-1.89-17.46-8.97c-2.97-7.66,0.83-16.27,8.49-19.22
	c5.63-2.19,11.78-0.68,15.82,3.33C447.71,829.73,445.57,838.15,442.66,846.17z" class="st9"></path>
<path d="M279.92,744.31c10.36-39.88,51.14-67.97,91.38-67.59c27.64,0.27,54.79,15.43,71.35,38.17
	c7.55,10.36,12.89,22.31,15.07,35.15c4.19,24.67-2.48,49.59-9.08,73.49c-6.6,23.86-14.58,49.7-34.74,63.11
	c-16.76,11.13-38.89,10.97-58.06,4.48c-4.87-1.64-9.53-3.56-13.99-5.75" class="st4"></path>
<path d="M384.67,868.16c-11.67-5.61-13.34-22.91-14.1-33.84c14.06,6.08,31.5,10.21,46.77,9.26
	c0,0-6.06,13.86-11.47,19.65C400.6,868.82,392.28,871.84,384.67,868.16z" class="st8"></path>
<path d="M302.03,681.07c16.99-25.21,51.89-44.79,114.66-13.25c14.8,7.43,28.97,15.88,42.72,24.76
	c7.44,4.8,12.86,7.53,20.84,3.29c1.8,6.76-3.24,20.05-9.17,23.97c3.15,0.83,5.16,2.05,7.89,0.59c0.95,29.2-57.75,2.68-71.6-1.51
	c-11.33-3.42-56.69-12.05-65.65-0.79c-18.09,0-34,48.06-33.91,57.25c-7.46,6.47-14.53,13.23-16.6,23.18
	c-2.1,10.05,10.66,48.87,4.03,58.06c1.31-1.8-19.35-15.05-32.94-45.47c-6.24-13.97-17.26-42.06-12.41-71.38
	C254.38,712.52,269.74,683.98,302.03,681.07z" class="st3"></path>
<g>
	<path d="M292.81,811.19c-14.42-6.56-23.68-30.06-14.51-44.48c8.2-12.91,27.64-7.12,29.97,7.19" class="st8"></path>
	<path d="M299.39,790.21c3.88-8.45-7.82-15.68-15.16-12.55" class="st4"></path>
	<path d="M299.75,789.15c-1.15-5.63-9.33-3-11.72,0.23" class="st4"></path>
</g>
<path d="M294.59,760.06c-3.36-17.39,2.66-37.29,14.64-50.24" class="st5"></path>
<path d="M287.27,761.1c-4.73-9.62-3.58-18.7,0-28.25" class="st5"></path>
<path d="M327.04,701.44c11.31-35.06,75.14,1.06,96.27-1.04" class="st5"></path>
<path d="M321.81,690.99c6.62-31.11,49.09-10.95,68.02-12.55" class="st5"></path>
<path d="M266.34,741.21c-7.57,30.84-1.98,51.5,13.61,79.53" class="st5"></path>
<path d="M370.54,1032.5c0,0,31.27,254.37,31.27,410.44l-40.01,57.5l-43.51-56.42c0,0,21.2-283.59,23.88-405.25
	l7.1-35.71L370.54,1032.5z" class="st2"></path>
<path d="M408.33,951.28c-5.97,56.62-10.84,112.79-20.53,169.14c-3.97,23.07-8.34,46.1-13.09,69.03
	c-3.56,17.12-16.22,45.94-11.76,62.86c-7.77-29.54-25.01-57.9-34.83-87.17c-19.76-58.74-28.28-119.86-54.88-176.28" class="st15"></path>
<g>
	
		<rect height="113.31" width="84.36" class="st8" transform="matrix(0.979 -0.2041 0.2041 0.979 -258.3434 103.4601)" y="1247.58" x="330.25"></rect>
	
		<rect height="71.13" width="52.95" class="st3" transform="matrix(0.979 -0.2041 0.2041 0.979 -258.3434 103.4602)" y="1268.67" x="345.95"></rect>
	
		<rect height="18.88" width="17.01" class="st2" transform="matrix(0.979 -0.2041 0.2041 0.979 -248.2589 100.2526)" y="1244.3" x="353.41"></rect>
</g>
<path d="M323.66,1007.15c0,0,14.26-24.65,23.27-30.46c0,0,20.82,18.97,27.96,27.19c0,0-0.95,25.71-4.33,37.99
	c0,0-6.98-6.6-28.39,6.26C342.15,1048.11,323.66,1025.54,323.66,1007.15z" class="st2"></path>
<path d="M280.76,908.31c4.1-6.4,6.6-19.35,6.6-19.35c-7.44,0-13.9-3.45-22.08,3.63c-5.38,4.64-26.23,30.75-34.54,41.21
	c0,0,19.53,29.4,25.71,37.72c16.13,21.7,34.63,44.88,54.88,62.77c4.6-14.6,22.4-49.09,35.58-57.57c12.68,8.79,37.58,37.4,47,50.24
	c0,0,15.37-22.8,21.29-34.54c12.19-24.18,18.59-35.15,25.03-61.44c-5.47-5.72-39-27.92-42.85-27.73
	c-3.09,0.14-17.71,4.87-17.71,4.87s1.28,14.17,8.58,16.81" class="st8"></path>
<path d="M274.65,898.72c18.9,30.96,42.94,58.47,72.28,77.98c21.09-9.67,39.29-46.05,48.15-66.46" class="st4"></path>
<g>
	<g>
		<defs>
			<path d="M280.76,908.31c4.1-6.4,6.6-19.35,6.6-19.35c-7.44,0-13.9-3.45-22.08,3.63
				c-5.38,4.64-26.23,30.75-34.54,41.21c0,0,19.53,29.4,25.71,37.72c16.13,21.7,34.63,44.88,54.88,62.77
				c4.6-14.6,22.4-49.09,35.58-57.57c12.68,8.79,37.58,37.4,47,50.24c0,0,15.37-22.8,21.29-34.54
				c12.19-24.18,18.59-35.15,25.03-61.44c-5.47-5.72-39-27.92-42.85-27.73c-3.09,0.14-17.71,4.87-17.71,4.87s1.28,14.17,8.58,16.81" id="SVGID_11_"></path>
		</defs>
		<clipPath id="SVGID_12_">
			<use style="overflow:visible;" xlink:href="#SVGID_11_"></use>
		</clipPath>
		<g class="st18">
			<path d="M235.92,909.3c20.25,37.29,63.04,79.26,89.87,111.73" class="st17"></path>
			<path d="M244.01,898.56c20.25,37.29,63.04,79.26,89.87,111.73" class="st17"></path>
			<path d="M252.05,871.03c-3.13,3.54,13.47,26.81,15.91,30.62c22.8,35.78,57.09,62.88,86.13,93.39" class="st17"></path>
			<path d="M447.03,893.11c-14.4,52.29-47.85,100.53-62.14,129.21" class="st17"></path>
			<path d="M436.69,884.5c-11.27,40.92-43.37,91.52-62.14,129.21" class="st17"></path>
			<path d="M422.61,859.51c3.85,2.73-7.03,29.18-8.54,33.44c-14.08,40.01-41.32,74.22-62.66,110.51" class="st17"></path>
		</g>
	</g>
	<g>
		<path d="M280.76,908.31c4.1-6.4,6.6-19.35,6.6-19.35c-7.44,0-13.9-3.45-22.08,3.63
			c-5.38,4.64-26.23,30.75-34.54,41.21c0,0,19.53,29.4,25.71,37.72c16.13,21.7,34.63,44.88,54.88,62.77
			c4.6-14.6,22.4-49.09,35.58-57.57c12.68,8.79,37.58,37.4,47,50.24c0,0,15.37-22.8,21.29-34.54
			c12.19-24.18,18.59-35.15,25.03-61.44c-5.47-5.72-39-27.92-42.85-27.73c-3.09,0.14-17.71,4.87-17.71,4.87s1.28,14.17,8.58,16.81" class="st4" id="SVGID_6_"></path>
	</g>
</g>
<path d="M253.68,1497.06c-10.27-35.31-28.05-100.89-28.14-137.32" class="st5"></path>
<path d="M280.35,1495.68c-3.33-19.62-1.44-55.81,0-75.25" class="st5"></path>
<path d="M464.56,1499.85c6.74-36.36,3.76-127.57,3.76-127.57" class="st5"></path>
<path d="M51.02,1003.78c9.31,24.06,37.02,145.1,35.06,171.66" class="st5"></path>
<line y2="957.25" x2="246.53" y1="1015.81" x1="54.94" class="st5"></line>
<line y2="976.69" x2="542.74" y1="945.6" x1="436.2" class="st5"></line>
<path d="M520.21,1145.76c-1.42-33.34,8.83-68.18,15.03-100.85" class="st5"></path>
<path d="M526.66,1136.82c24.9,42.74,43.42,96.34,73.47,135.9" class="st17"></path>
<path d="M528.86,1111.06c24.9,42.74,43.42,96.34,73.47,135.9" class="st17"></path>
<path d="M546.86,1087.86c24.9,42.74,43.42,96.34,73.47,135.9" class="st17"></path>
<path d="M549.05,1062.11c24.9,42.74,43.42,96.34,73.47,135.9" class="st17"></path>
<g>
	<path d="M652.74,1228.22c4.28-26.59,18.59-147.71,21.18-161.43c1.13-5.95-3.72-23.12-2.48-29.11
		c-13.54-0.88-20.23-0.34-34.27-0.74c1.55,23.52-74.03,177.49-69.17,207.08c3.54,21.45,13.79,49.32,28.79,47.52
		C629.33,1287.59,648.48,1254.7,652.74,1228.22z" class="st8"></path>
	<polygon points="675.09,889.82 612,1123.41 426.46,1133.21 500.5,804.38" class="st8"></polygon>
	<polygon points="697.8,892.75 622.97,1122.85 437.16,1123.25 527.78,798.57" class="st2"></polygon>
	<path d="M673.37,982.73c-2.77-3.38-3.54-10.86-3.42-15.1c-4.17-0.81-6.24-3.88-10.61-4.35
		c-4.48-0.5-8.94-0.83-13.29-2.12c-4.57-1.35-14.37-9.96-6.31-11.81c6.83-1.55,16.2-3.2,23.18-2.12c6.2,1.01,11.54,2.93,16.9,5.25
		c4.89,2.12,6.33,4.35,7.41,9.17c2.41,10.63,1.13,24.6,9.15,33.19c2.73,2.91,5.41,5.11,5.47,9.24c0.07,3.99-2.14,7.21-4.48,10.09
		c6.4,5.72,3.63,9.62-1.58,15.07c2.77,3.6,1.96,8.29,0.02,11.99c-1.49,2.82-3.9,4.93-6.13,7.12c-6.22,6.08-8.7,14.85-16.2,19.87
		c-4.17,2.79-6.96,5.23-13.38,5.32" class="st8"></path>
	<path d="M682.57,987.58c-9.21-4.84-19.31-9.15-24.45-9.91c-4.08-0.61-24.85-3.42-29.06-3.27
		c-4.48,0.18-14.67,0.59-16.83,3.49c-5.61,7.5,16.51,13.86,20.48,14.33c18,2.07,34.09,8.94,51.39,13.97" class="st8"></path>
	<path d="M684.28,1025.4c-8.25-1.19-23.32-6.42-31.29-9.31c-5.97-2.16-11.63-3.88-17.82-5.47
		c-8.18-2.1-17.69-3-23.57-9.78c-2.75-3.18-6.76-10.32-0.68-11.81c3.65-0.9,11.22,2.37,15.43,3.06c6.51,1.08,12.96,1.71,19.56,2.79
		c0,0,23.81,6.15,35.01,10.34" class="st8"></path>
	<path d="M670.33,1051.88c-6.29-3.67-6.87-7.64-10.66-12.62c-2.21-2.93-4.66-4.39-8.07-5.47
		c-5.61-1.8-11.2-3.67-16.74-5.27c-7.5-2.14-15.1-3.94-20.82-9.67c-5.02-5.02-3-9.44,3.63-9.42c12.8,0.07,24.06,3.7,36.41,6.83
		c0,0,20.59,8.07,26.95,8.61" class="st8"></path>
	<g>
		<path d="M586.97,1171.4c0.09-0.09,0.18-0.18,0.27-0.27c-11.24,22.53-12.41,49.86-3.15,73.27
			c4.66,11.81,13.32,23.59,25.86,25.5c9.06,1.4,18.32-2.88,24.74-9.4s10.43-15.05,13.52-23.68c3.79-10.59,4.93-21.72,8.13-32.31
			c6.6,6.29,6.62,21.65,5.25,30.26c-1.13,7.12-3.76,13.95-4.73,21.09c-0.83,6.08-0.47,12.39-2.21,18.27
			c-4.75,16-22.64,23.48-38.44,28.86c-10.03,3.42-21.11,6.83-30.91,2.82c-5.54-2.25-9.96-6.69-13.38-11.6
			c-15.16-21.72-12.19-50.78-8.61-77.03c1.01-7.39,2.05-14.92,5.02-21.76C572.37,1186.07,579.69,1178.57,586.97,1171.4z" class="st8"></path>
		<g>
			<g>
				<path d="M586.97,1171.4c0.09-0.09,0.18-0.18,0.27-0.27c-11.24,22.53-12.41,49.86-3.15,73.27
					c4.66,11.81,13.32,23.59,25.86,25.5c9.06,1.4,18.32-2.88,24.74-9.4s10.43-15.05,13.52-23.68c3.79-10.59,4.93-21.72,8.13-32.31
					c6.6,6.29,6.62,21.65,5.25,30.26c-1.13,7.12-3.76,13.95-4.73,21.09c-0.83,6.08-0.47,12.39-2.21,18.27
					c-4.75,16-22.64,23.48-38.44,28.86c-10.03,3.42-21.11,6.83-30.91,2.82c-5.54-2.25-9.96-6.69-13.38-11.6
					c-15.16-21.72-12.19-50.78-8.61-77.03c1.01-7.39,2.05-14.92,5.02-21.76C572.37,1186.07,579.69,1178.57,586.97,1171.4z" class="st10" id="SVGID_8_"></path>
			</g>
			<g>
				<defs>
					<path d="M586.97,1171.4c0.09-0.09,0.18-0.18,0.27-0.27c-11.24,22.53-12.41,49.86-3.15,73.27
						c4.66,11.81,13.32,23.59,25.86,25.5c9.06,1.4,18.32-2.88,24.74-9.4s10.43-15.05,13.52-23.68c3.79-10.59,4.93-21.72,8.13-32.31
						c6.6,6.29,6.62,21.65,5.25,30.26c-1.13,7.12-3.76,13.95-4.73,21.09c-0.83,6.08-0.47,12.39-2.21,18.27
						c-4.75,16-22.64,23.48-38.44,28.86c-10.03,3.42-21.11,6.83-30.91,2.82c-5.54-2.25-9.96-6.69-13.38-11.6
						c-15.16-21.72-12.19-50.78-8.61-77.03c1.01-7.39,2.05-14.92,5.02-21.76C572.37,1186.07,579.69,1178.57,586.97,1171.4z" id="SVGID_13_"></path>
				</defs>
				<clipPath id="SVGID_14_">
					<use style="overflow:visible;" xlink:href="#SVGID_13_"></use>
				</clipPath>
				<g class="st19">
					<path d="M585.28,1210.2c-11.92,21-28.3,67.23-15.57,91.23" class="st17"></path>
					<path d="M591.61,1228.02c-13.38,26.63-24.99,64.08-5.05,90.82" class="st17"></path>
					<path d="M613.15,1251.25c1.37,16.85,8.16,52.07-3.88,65.5" class="st17"></path>
					<path d="M625.86,1258.57c2.3,20.62,3.42,35.85,1.64,55.58" class="st17"></path>
					<path d="M649.85,1229.64c0.86,24.94,0.25,49.84-1.85,74.69" class="st17"></path>
				</g>
			</g>
			<g>
				<path d="M586.97,1171.4c0.09-0.09,0.18-0.18,0.27-0.27c-11.24,22.53-12.41,49.86-3.15,73.27
					c4.66,11.81,13.32,23.59,25.86,25.5c9.06,1.4,18.32-2.88,24.74-9.4s10.43-15.05,13.52-23.68c3.79-10.59,4.93-21.72,8.13-32.31
					c6.6,6.29,6.62,21.65,5.25,30.26c-1.13,7.12-3.76,13.95-4.73,21.09c-0.83,6.08-0.47,12.39-2.21,18.27
					c-4.75,16-22.64,23.48-38.44,28.86c-10.03,3.42-21.11,6.83-30.91,2.82c-5.54-2.25-9.96-6.69-13.38-11.6
					c-15.16-21.72-12.19-50.78-8.61-77.03c1.01-7.39,2.05-14.92,5.02-21.76C572.37,1186.07,579.69,1178.57,586.97,1171.4z" class="st4"></path>
			</g>
		</g>
		<path d="M659.45,1242.91c-6.13,11.85-12.44,23.07-22.03,32.49" class="st4"></path>
		<path d="M565.36,1206.32c-1.73,21.29-0.2,50.47,10.48,69.91" class="st4"></path>
	</g>
</g>
<path d="M81.77,1158.29c0,0-26.34,31.66-50.72,59.71" class="st17"></path>
<path d="M78.01,1137.52c0,0-23.03,27.69-45.94,54.21" class="st17"></path>
<path d="M69.36,1094.73c0,0-14.53,17.46-31.97,37.94" class="st17"></path>
<path d="M65.59,1073.96c0,0-13.11,15.77-29.4,34.9" class="st17"></path>
<path d="M194.58,1490.09c0,0-80.16-175.06-107.97-348.39" class="st5"></path>
<g>
	<path d="M33.13,1383.93c30.75-16.9,102.81-60.2,133.81-76.49c8.49-4.46,21.81-10.72,30.84-12.84l56.08-93.64
		c0,0-23.61-0.25-29.99,2.37c-8.13,3.33-24.33,12.82-34.56,22.8c-7.55,7.37-14.24,23.77-22.35,29.58
		c-15.21,10.86-115.6,40.83-133.81,48.6" class="st8"></path>
	<g>
		<g class="st13">
			<g>
				<g>
					<path d="M343.73,1169.08c5.32,0,7.53,3.76,4.87,8.36l-61.06,106.23c-2.64,4.6-9.15,8.34-14.46,8.34l-51.21-0.05
						c-5.32,0-7.53-3.76-4.89-8.36l61.06-106.23c2.64-4.6,9.15-8.34,14.46-8.34L343.73,1169.08z" class="st3"></path>
				</g>
			</g>
			<path d="M349.18,1171.58l-5.11-8.94c0-0.02-0.02-0.02-0.02-0.05s-0.02-0.02-0.02-0.05c-0.07-0.09-0.14-0.2-0.2-0.29
				c-0.02-0.02-0.02-0.05-0.05-0.05c0-0.02-0.02-0.02-0.02-0.05c-0.09-0.11-0.18-0.23-0.27-0.32l0,0l0,0
				c-0.09-0.11-0.2-0.2-0.32-0.29c-0.02-0.02-0.02-0.02-0.05-0.05c-0.02-0.02-0.05-0.02-0.05-0.05c-0.09-0.09-0.2-0.16-0.32-0.23
				c-0.02,0-0.02-0.02-0.05-0.02c0,0,0,0-0.02,0c-0.14-0.09-0.27-0.18-0.43-0.25c-0.02,0-0.02-0.02-0.05-0.02
				c-0.02,0-0.05-0.02-0.07-0.02c-0.16-0.09-0.34-0.16-0.52-0.23l0,0c-0.11-0.05-0.23-0.09-0.36-0.14c-0.02,0-0.07-0.02-0.09-0.02
				c-0.09-0.02-0.18-0.05-0.27-0.09h-0.02c-0.16-0.05-0.29-0.07-0.45-0.11c-0.05,0-0.07-0.02-0.11-0.02
				c-0.11-0.02-0.25-0.05-0.38-0.07c-0.02,0-0.05,0-0.05,0c-0.02,0-0.07,0-0.09,0c-0.14-0.02-0.29-0.02-0.43-0.05
				c-0.05,0-0.11,0-0.16-0.02c-0.2,0-0.38-0.02-0.59-0.02l-51.21-0.05c-0.25,0-0.52,0-0.77,0.02c-0.05,0-0.09,0-0.14,0
				c-0.25,0.02-0.5,0.05-0.74,0.07c-0.05,0-0.09,0.02-0.16,0.02c-0.27,0.05-0.52,0.09-0.79,0.14c-0.02,0-0.05,0-0.05,0.02
				c-0.25,0.05-0.52,0.11-0.77,0.18c-0.02,0-0.05,0.02-0.09,0.02c-0.02,0-0.05,0-0.05,0.02c-0.18,0.05-0.36,0.09-0.54,0.16
				c-0.02,0-0.02,0-0.05,0c-0.2,0.07-0.38,0.11-0.59,0.18c-0.02,0-0.02,0-0.05,0.02c-0.02,0-0.05,0.02-0.07,0.02
				c-0.32,0.11-0.61,0.23-0.92,0.34h-0.02c-0.02,0-0.05,0.02-0.07,0.02c-0.25,0.09-0.5,0.2-0.72,0.32
				c-0.02,0.02-0.05,0.02-0.07,0.02c-0.02,0-0.02,0.02-0.05,0.02c-0.23,0.11-0.45,0.23-0.68,0.34c-0.02,0-0.05,0.02-0.07,0.02
				c-0.02,0.02-0.07,0.05-0.09,0.05c-0.18,0.09-0.36,0.2-0.56,0.29c-0.02,0.02-0.07,0.02-0.09,0.05l-0.02,0.02
				c-0.2,0.11-0.41,0.25-0.61,0.36c-0.02,0-0.05,0.02-0.05,0.02c-0.02,0.02-0.07,0.05-0.09,0.07c-0.16,0.11-0.32,0.2-0.47,0.32
				c-0.02,0.02-0.07,0.05-0.09,0.07c-0.02,0.02-0.05,0.02-0.05,0.05c-0.2,0.14-0.38,0.27-0.59,0.41c0,0-0.02,0-0.02,0.02
				c-0.02,0.02-0.05,0.02-0.07,0.05c-0.16,0.14-0.34,0.25-0.5,0.38c-0.02,0.02-0.05,0.05-0.09,0.07c-0.02,0.02-0.05,0.05-0.07,0.05
				c-0.2,0.16-0.38,0.32-0.56,0.47c0,0,0,0-0.02,0.02c-0.02,0.02-0.02,0.02-0.05,0.05c-0.18,0.16-0.36,0.34-0.54,0.5
				c-0.02,0.02-0.05,0.05-0.07,0.07c-0.02,0-0.02,0.02-0.02,0.02c-0.2,0.2-0.41,0.41-0.61,0.63c-0.02,0.02-0.05,0.05-0.05,0.07
				c-0.02,0.02-0.05,0.05-0.07,0.09c-0.07,0.09-0.14,0.16-0.23,0.25c-0.05,0.07-0.09,0.11-0.16,0.18c-0.07,0.09-0.14,0.18-0.2,0.27
				c-0.02,0.05-0.07,0.09-0.11,0.14l-0.02,0.02c-0.14,0.2-0.29,0.38-0.43,0.59c-0.02,0.05-0.07,0.09-0.09,0.14
				c-0.14,0.2-0.27,0.41-0.38,0.61l-61.06,106.23c-0.65,1.15-1.01,2.23-1.1,3.22s0.11,1.89,0.54,2.64l5.11,8.94
				c-0.86-1.51-0.74-3.58,0.56-5.86l61.06-106.23c0.11-0.2,0.25-0.41,0.38-0.61c0.02-0.05,0.05-0.09,0.09-0.14
				c0.14-0.2,0.27-0.38,0.43-0.59c0.05-0.05,0.09-0.11,0.14-0.16c0.07-0.09,0.14-0.18,0.2-0.27c0.05-0.07,0.09-0.11,0.16-0.18
				c0.07-0.09,0.14-0.16,0.23-0.25c0.05-0.05,0.09-0.09,0.11-0.14c0.2-0.2,0.38-0.43,0.61-0.63c0.02-0.02,0.07-0.07,0.09-0.09
				c0.18-0.18,0.36-0.34,0.54-0.52c0.02-0.02,0.05-0.05,0.05-0.05c0.18-0.16,0.38-0.32,0.56-0.47c0.05-0.05,0.09-0.07,0.14-0.11
				c0.16-0.14,0.34-0.25,0.5-0.38c0.02-0.02,0.07-0.05,0.09-0.07c0.18-0.14,0.38-0.27,0.59-0.41c0.05-0.05,0.11-0.07,0.16-0.11
				c0.16-0.11,0.32-0.2,0.47-0.32c0.05-0.02,0.09-0.07,0.16-0.09c0.2-0.14,0.41-0.25,0.61-0.36c0.05-0.02,0.07-0.05,0.11-0.07
				c0.18-0.11,0.36-0.2,0.56-0.29c0.05-0.02,0.11-0.07,0.16-0.09c0.23-0.11,0.45-0.23,0.7-0.34c0.05-0.02,0.07-0.02,0.11-0.05
				c0.25-0.11,0.5-0.23,0.72-0.32c0.02-0.02,0.07-0.02,0.09-0.05c0.32-0.14,0.61-0.25,0.92-0.34c0.05-0.02,0.07-0.02,0.11-0.05
				c0.2-0.07,0.38-0.14,0.59-0.18c0.02,0,0.02,0,0.05,0c0.18-0.05,0.36-0.11,0.56-0.16c0.05-0.02,0.09-0.02,0.14-0.02
				c0.25-0.07,0.52-0.14,0.77-0.18c0.02,0,0.05,0,0.05-0.02c0.27-0.05,0.52-0.09,0.79-0.14c0.05,0,0.09-0.02,0.16-0.02
				c0.25-0.02,0.5-0.07,0.74-0.07c0.05,0,0.09,0,0.14,0c0.27-0.02,0.52-0.02,0.77-0.02l51.21,0.05c0.2,0,0.41,0,0.59,0.02
				c0.07,0,0.11,0,0.16,0.02c0.14,0,0.29,0.02,0.43,0.05c0.05,0,0.11,0.02,0.16,0.02c0.14,0.02,0.25,0.05,0.38,0.07
				c0.05,0,0.07,0.02,0.11,0.02c0.16,0.02,0.32,0.07,0.45,0.11c0.09,0.02,0.2,0.05,0.29,0.09c0.02,0,0.07,0.02,0.09,0.02
				c0.11,0.05,0.25,0.09,0.36,0.14c0.18,0.07,0.34,0.16,0.52,0.23c0.02,0.02,0.07,0.05,0.09,0.05c0.14,0.07,0.29,0.16,0.43,0.25
				c0.02,0.02,0.05,0.02,0.07,0.05c0.11,0.07,0.2,0.16,0.32,0.23c0.02,0.02,0.07,0.05,0.09,0.07c0.11,0.09,0.23,0.2,0.32,0.29l0,0
				c0.09,0.09,0.18,0.2,0.27,0.32c0.02,0.02,0.05,0.07,0.07,0.09c0.07,0.09,0.14,0.18,0.2,0.29
				C349.14,1171.51,349.16,1171.54,349.18,1171.58L349.18,1171.58L349.18,1171.58z" class="st3"></path>
		</g>
	</g>
	<path d="M187.93,1293.61c18.23,3.36,30.84,2.82,45.15,1.22c8.74-0.97,18.66-7.19,25.86-12.44
		c5.97-4.35,11.94-8.13,17.57-12.53c6.02-4.69,12.86-8.97,18.5-13.92c3.9-3.42,20.98-18.09,8.7-16.65l-79.85-12.75" class="st8"></path>
	<path d="M206.14,1231.08c0,0-6.31,0.14-9.35,1.96" class="st4"></path>
	<path d="M211.57,1255.71c-2.86,1.08-8.85,1.49-8.85,1.49" class="st4"></path>
	<path d="M221.48,1272.74c-2.79,0.65-5.57,1.82-8.38,1.96" class="st4"></path>
	<path d="M229.32,1288.78c0,0-2.86,1.01-5.59,1.35" class="st4"></path>
	<path d="M284.43,1233.04c5.61-2.86,11.92-4.93,18.11-5.95c3.94-0.63,16.51-1.94,16.6,3.94
		c0.07,3.29-16.85,14.15-21.45,16.9c-10.9,6.56-22.8,12.73-34.56,17.96c-8.04,3.58-16.24,9.4-24.51,11.94" class="st8"></path>
	<path d="M229.28,1260.62c1.96-0.27,20.05-4.66,30.24-8.43c7.57-2.79,20.3-7.98,29.09-11.99
		c5.93-2.7,11.83-6.56,17.57-9.71c5.84-3.2,10.7-9.49,2.39-11.76c-6.96-1.89-19.76-0.14-25.75,2.95l-58.94,11.33" class="st8"></path>
	<path d="M221.41,1217.3c8.61,0,18.61,1.37,26.41,0.41c6.22-0.79,14.73-3.33,20.91-4.78c4.64-1.08,10.63-3.2,15.66-3.7
		c12.93-1.26,16.4,3.47,14.04,5.9c-2.91,2.97-19.44,12.01-24.54,14.04c-8.36,3.33-19.71,8.43-28.34,9.76
		c-8,1.24-17.51,3.63-25.59,2.97" class="st8"></path>
</g>
<g>
	<path d="M83.75,1360.54c0.43,5.27,5.38,16.09,1.15,20.62c-5.72,6.13-13.34-2.46-17.71,6.6
		c-2.25,4.66-3.36,13.95-13.18,10.45c-9.96-3.54-17.19-23.88-21.47-31.32c-9.6-16.69-20.82-33.84-27.53-51.55
		c-2.88-7.62-9.03-19.53,2.39-24.09c9.03-3.6,16.51-0.41,25.1-5.88c7.01-4.48,11.78-9.82,18.9-3.47
		C61.54,1290.93,73.82,1323.93,83.75,1360.54z" class="st8"></path>
	<g>
		<g>
			<path d="M83.75,1360.54c0.43,5.27,5.38,16.09,1.15,20.62c-5.72,6.13-13.34-2.46-17.71,6.6
				c-2.25,4.66-3.36,13.95-13.18,10.45c-9.96-3.54-17.19-23.88-21.47-31.32c-9.6-16.69-20.82-33.84-27.53-51.55
				c-2.88-7.62-9.03-19.53,2.39-24.09c9.03-3.6,16.51-0.41,25.1-5.88c7.01-4.48,11.78-9.82,18.9-3.47
				C61.54,1290.93,73.82,1323.93,83.75,1360.54z" class="st10" id="SVGID_10_"></path>
		</g>
		<g>
			<defs>
				<path d="M83.75,1360.54c0.43,5.27,5.38,16.09,1.15,20.62c-5.72,6.13-13.34-2.46-17.71,6.6
					c-2.25,4.66-3.36,13.95-13.18,10.45c-9.96-3.54-17.19-23.88-21.47-31.32c-9.6-16.69-20.82-33.84-27.53-51.55
					c-2.88-7.62-9.03-19.53,2.39-24.09c9.03-3.6,16.51-0.41,25.1-5.88c7.01-4.48,11.78-9.82,18.9-3.47
					C61.54,1290.93,73.82,1323.93,83.75,1360.54z" id="SVGID_15_"></path>
			</defs>
			<clipPath id="SVGID_16_">
				<use style="overflow:visible;" xlink:href="#SVGID_15_"></use>
			</clipPath>
			<g class="st20">
				<path d="M85.26,1369.71c-3.88,6.83-12.91,3.13-18.34,6.74c-5.25,3.49-12.73,17.21-20.39,14.19" class="st17"></path>
				<path d="M83.5,1360.7c-2.43,3.88-9.51,5.32-13.61,4.53c-8.22,5.9-19.13,18.59-31.05,13.65" class="st17"></path>
				<path d="M76.81,1337.43c-9.26,4.84-21.45,8.7-32.11,8.88" class="st17"></path>
				<path d="M42.66,1338.04c4.96,0.72,11.38-1.58,16.29-2.75c4.98-1.19,10.75-2.16,14.55-5.36" class="st17"></path>
				<path d="M39.46,1321.45c10.03,0.54,19.02-8,28.03-10.45" class="st17"></path>
				<path d="M39.01,1313.28c8.04-1.92,17.69-6.35,23.77-10.95" class="st17"></path>
				<path d="M50.47,1282.27c-5.34,3.88-11.15,6.78-16.49,10.99c-6.51,5.16-12.91,8.45-20.98,10.39
					c-2.07,0.5-4.24,0.86-6.24,1.49c-2.73,0.88-4.55,2.91-7.14,3.97" class="st17"></path>
				<path d="M44.55,1352.28c-2.37,1.17-14.37,9.94-15.79,4.89" class="st17"></path>
				<path d="M42.52,1342.2c-3.45,3.69-12.73,10.52-17.75,6.13" class="st17"></path>
				<path d="M39.8,1324.41c-5.81,4.08-17.96,11.74-25.62,9.51" class="st17"></path>
				<path d="M38.17,1317.62c-8.74,4.35-19.08,9.58-28.7,6.08" class="st17"></path>
			</g>
		</g>
		<g>
			<path d="M83.75,1360.54c0.43,5.27,5.38,16.09,1.15,20.62c-5.72,6.13-13.34-2.46-17.71,6.6
				c-2.25,4.66-3.36,13.95-13.18,10.45c-9.96-3.54-17.19-23.88-21.47-31.32c-9.6-16.69-20.82-33.84-27.53-51.55
				c-2.88-7.62-9.03-19.53,2.39-24.09c9.03-3.6,16.51-0.41,25.1-5.88c7.01-4.48,11.78-9.82,18.9-3.47
				C61.54,1290.93,73.82,1323.93,83.75,1360.54z" class="st4"></path>
		</g>
	</g>
	<path d="M37.61,1281.91c-6.26,4.1-12.55,8.81-18.18,13.52" class="st4"></path>
	<path d="M69.99,1358.27c0.34,9.78-0.18,18.54-2.88,28.23" class="st4"></path>
	<path d="M47.23,1360.39c-3.33-20.05-10.86-42.06-7.68-62.77" class="st5"></path>
</g>
<g>
	<path d="M133.72,1265.02l14.49-6.06c10.48,38.39,22.69,50.69,22.82,50.87l-14.6,6.22
		C155.87,1315.24,144.56,1304.76,133.72,1265.02z" class="st21"></path>
	<circle r="14.51" cy="1289.44" cx="149.92" class="st21"></circle>
	<path d="M149.83,1300.19c5.93,0.07,10.79-4.71,10.86-10.63c0.07-5.93-4.71-10.79-10.63-10.86
		c-5.93-0.07-10.79,4.71-10.86,10.63C139.13,1295.27,143.89,1300.12,149.83,1300.19z" class="st22"></path>
	<path d="M149.86,1298.13c4.8,0.05,8.72-3.81,8.79-8.61c0.05-4.8-3.81-8.72-8.61-8.79c-4.8-0.05-8.72,3.81-8.79,8.61
		C141.2,1294.15,145.06,1298.09,149.86,1298.13z" class="st23"></path>
	<path d="M149.86,1297.03c4.19,0.05,7.64-3.33,7.68-7.53c0.05-4.19-3.33-7.64-7.53-7.68
		c-4.19-0.05-7.64,3.33-7.68,7.53C142.29,1293.56,145.67,1296.99,149.86,1297.03z" class="st23"></path>
</g>
<g>
	<path d="M2440.1,1082.11c0.32-4.21,3.58-7.75,7.93-8.25l189.28-21.4c4.93-0.56,9.37,2.97,9.91,7.91l29,256.46
		c0.56,4.93-2.97,9.37-7.91,9.91l-189.28,21.4c-4.93,0.56-9.37-2.97-9.91-7.91L2440.1,1082.11z" class="st8"></path>
	<path d="M2434.35,1088.31l10.95-1.24c0.32-4.21,3.58-7.75,7.93-8.25l189.28-21.4c4.93-0.56,9.37,2.97,9.91,7.91
		l29,256.46c0.56,4.93-2.97,9.37-7.91,9.91l-189.28,21.4c-4.93,0.56-9.37-2.97-9.91-7.91l-18.25-161.5l-10.79,1.22
		c-4.93,0.56-9.37-2.97-9.91-7.91l-8.9-78.79C2425.88,1093.31,2429.42,1088.87,2434.35,1088.31z" class="st8"></path>
	<path d="M2499.89,1120.17c0.29-1.8,2.43-3.38,5.18-3.7l99.81-11.29c3.11-0.36,5.84,1.06,6.06,3.15l2.3,20.25
		c0.23,2.1-2.1,4.06-5.2,4.42l-99.81,11.29c-3.11,0.36-5.84-1.06-6.06-3.15L2499.89,1120.17z" class="st8"></path>
</g>
<g>
	<path d="M2497.95,1087.23c1.15-4.08,5.05-6.89,9.42-6.51l189.77,16.45c4.93,0.43,8.58,4.78,8.16,9.71l-22.28,257.14
		c-0.43,4.93-4.78,8.58-9.71,8.16l-189.77-16.45c-4.93-0.43-8.58-4.78-8.16-9.71L2497.95,1087.23z" class="st2"></path>
	<path d="M2491.08,1092.18l10.97,0.95c1.15-4.08,5.05-6.89,9.42-6.51l189.77,16.45c4.93,0.43,8.58,4.78,8.16,9.71
		l-22.28,257.14c-0.43,4.93-4.78,8.58-9.71,8.16l-189.77-16.45c-4.93-0.43-8.58-4.78-8.16-9.71l14.04-161.9l-10.81-0.95
		c-4.93-0.43-8.58-4.78-8.16-9.71l6.85-79.01C2481.8,1095.41,2486.15,1091.76,2491.08,1092.18z" class="st2"></path>
	<path d="M2549.05,1136.39c0.65-1.71,3.06-2.84,5.81-2.61l100.08,8.67c3.11,0.27,5.5,2.19,5.32,4.28l-1.76,20.32
		c-0.18,2.1-2.86,3.58-5.97,3.31l-100.08-8.67c-3.11-0.27-5.5-2.19-5.32-4.28L2549.05,1136.39z" class="st8"></path>
</g>
<g>
	<path d="M2479.59,1124.2c0.79-4.15,4.44-7.3,8.83-7.28l190.49,0.27c4.96,0,8.97,4.03,8.97,8.99l-0.38,258.09
		c0,4.96-4.03,8.97-8.99,8.97l-190.49-0.27c-4.96,0-8.97-4.03-8.97-8.99L2479.59,1124.2z" class="st3"></path>
	<path d="M2473.15,1129.7l11.02,0.02c0.79-4.15,4.44-7.3,8.83-7.28l190.49,0.27c4.96,0,8.97,4.03,8.97,8.99
		l-0.38,258.09c0,4.96-4.03,8.97-8.99,8.97l-190.49-0.27c-4.96,0-8.97-4.03-8.97-8.99l0.25-162.51l-10.86-0.02
		c-4.96,0-8.97-4.03-8.97-8.99l0.11-79.31C2464.18,1133.71,2468.21,1129.7,2473.15,1129.7z" class="st3"></path>
	<path d="M2473.15,1119.2l11.02,0.02c0.79-4.15,4.44-7.3,8.83-7.28l190.49,0.27c4.96,0,8.97,4.03,8.97,8.99
		l-0.38,258.09c0,4.96-4.03,8.97-8.99,8.97l-190.49-0.27c-4.96,0-8.97-4.03-8.97-8.99l0.25-162.51l-10.86-0.02
		c-4.96,0-8.97-4.03-8.97-8.99l0.11-79.31C2464.18,1123.21,2468.21,1119.2,2473.15,1119.2z" class="st3"></path>
</g>
<g>
	<path d="M2411.57,1259.27c41.79-16.88,152.1-37.29,173.73-48.78c12.68-6.74,16.18-16.51,22.6-21.56
		c13.27-10.48,39.52-10.86,55.7-13.32l2.34,0.7c4.24,1.24,7.28,4.96,7.68,9.35c7.39-0.34,14.53,0.5,21.9,0.09
		c5.52-0.32,12.08-0.23,16.2,3.97c5.61,5.7,2.73,16.2-4.08,19.53c4.06,3.76,3.65,10.07-1.35,13.34c-4.17,2.73-11.13,3.09-16.09,2.55
		c4.01,0.9,10.12,2.59,12.3,5.5c2.93,3.92-0.16,9.08-3.6,11.54c-2.28,1.62-8.72,1.44-12.08,1.01c3.65,0.79,10.43,2.57,9.69,6.85
		c-1.58,9.06-16.92,9.55-23.75,9.8c-8.97,0.32-22.12,2.61-31.09,1.98c-19.42-1.37-37.81-6.89-37.81-6.89
		c-9.26,1.37-142.64,75.79-142.64,75.79" class="st8"></path>
	<path d="M2672.63,1197.72c2.48-0.52,5.11-0.43,7.66-0.36" class="st4"></path>
	<path d="M2672.74,1216.71c2.37-0.65,4.78-0.97,7.21-0.97" class="st4"></path>
	<path d="M2670.49,1233.7c2.34-0.23,4.73-0.29,7.03,0.07" class="st4"></path>
	<path d="M2669.64,1248.75c1.62-0.27,3.24-0.18,4.84,0.25" class="st4"></path>
	<path d="M2706.34,1209.05c-7.07,0.14-11.18-0.02-18.25,0.05" class="st8"></path>
	<path d="M2670.27,1185.6c-12.3,0.99-31.11,2.82-31.11,2.82" class="st8"></path>
</g>
<path d="M2555.43,1505.37c-10.84,49.41-19.58,155.69-19.58,155.69" class="st5"></path>
<path d="M2724.93,1508.88c13.07,46.1,13.02,104.61,14.08,152.17" class="st5"></path>
<path d="M2610.34,979.83c34.27,9.78,76.38,11.06,110.24-0.88" class="st5"></path>
<path d="M2763.02,911.18c18.75,78.9,42.06,89.74,71.17,98.23c-20.01,13.86-83.99,8.99-97.33-15.97
	c1.4,16.9,15.84,33.66,34.29,30.73c-64.64,6.85-72.48-48.06-70.79-102.09" class="st3"></path>
<g>
	<polygon points="2849.09,1049.02 2798.33,1196.48 2757.3,1187.24 2716.27,1178.03 2733.53,1023.02" class="st8"></polygon>
	<polygon points="2814.28,1155.83 2836.59,1091.91 2726.46,1067.15 2719.27,1134.45" class="st2"></polygon>
	<path d="M2792.99,1028.58l54.93,12.35c3.58,0.81,5.93,4.53,5.5,8.74l-0.59,5.88c-0.07,0.7-0.72,1.17-1.42,1.01
		l-61.62-13.86l-61.62-13.86c-0.68-0.16-1.08-0.88-0.83-1.53l2.01-5.57c1.42-3.99,5.14-6.35,8.72-5.54L2792.99,1028.58z" class="st8"></path>
	<path d="M2792.7,1029.93l53.13,11.94l0.77-6.87c0.45-4.01-1.44-7.5-4.46-8.18l-46.39-10.43l-46.39-10.43
		c-3.02-0.68-6.24,1.67-7.55,5.47l-2.23,6.53L2792.7,1029.93z" class="st8"></path>
</g>
<g>
	<g>
		<path d="M2788.1,1105.7c10.43,1.26,21.97,5.88,31.54,8.85L2788.1,1105.7z" class="st24"></path>
		<path d="M2975.31,1308.7c-26.63-48.46-50.27-104.88-78.9-152.87c-14.92-25.03-31.39-44.05-49.97-66.4
			c-5.66-6.8-13.29-10.41-21-12.84c-10.48-3.29-20.53-7.53-31.7-7.82c-5.84-0.16-13,4.06-18.86,6.13
			c-6.24,2.21-13.38,5.05-18.99,8.85c-4.84,3.29-8.92,13.79,0.05,12.91l32.17,9.03c10.43,1.26,21.97,5.88,31.54,8.85l-31.54-8.85
			c-1.67-0.2-3.33-0.34-4.93-0.36c-5.29-0.02-12.73,3.42-17.89,5.47c-4.28,1.69-8.83,2.66-13.05,4.57
			c-2.19,0.99-4.08,1.85-4.33,4.42c-0.18,1.8,0.95,4.71,3.04,4.82c11.08,0.56,20.01-2.52,30.62-3.63c8.61-0.9,29.81,12.3,29.81,12.3
			c-7.25-3.92-22.01-8.7-30.21-8.54c-6.22,0.11-11.02,1.85-17.44,2.16c-4.46,0.23-11.31,1.17-15.57,3.13
			c-6.67,3.09,3.94,9.26,7.05,10.12c8.65,2.39,17.8-0.83,26.45,1.19c6.26,1.46,11.81,6.94,17.51,10.12
			c6.38,3.54,12.14,6.98,17.28,12.32c3.13,3.24,5.56,7.03,9.01,10.05c3.88,3.4,17.98,6.65,25.23,9.53l5.47,4.37
			c5.52,8.18,10.63,27.96,40.42,104.95c12.05,31.16,22.73,67.77,38.68,81" class="st8"></path>
	</g>
	<g>
		<path d="M2779.54,1105.34c0,0-13.88,2.41-18.99,2.91c-2.73,0.25-5.79,1.55-8.54,1.08c-5.09-0.86-5.34-6.87-1.73-9.73
			c3.65-2.91,8.58-3.65,12.8-5.38c5.79-2.39,11.6-4.64,17.42-7.16c6.11-2.64,9.73-1.8,16.06-0.16c9.71,2.52,18.81,6.17,28.57,9.31" class="st8"></path>
	</g>
	<g>
		<path d="M2819.67,1114.56c-9.6-2.97-21.11-7.59-31.54-8.85c0,0-7.62-0.74-11.18,0.59" class="st4"></path>
	</g>
	<g>
		<path d="M2755.9,1096.67c2.39-0.86,4.87-1.51,7.14-2.43c5.79-2.39,11.6-4.64,17.42-7.16
			c6.11-2.64,9.73-1.8,16.06-0.16c9.71,2.52,18.81,6.17,28.57,9.31" class="st4"></path>
	</g>
	<path d="M2811.28,1148.1c1.51,1.04,3.22,1.73,5,1.98" class="st4"></path>
	<path d="M2820.39,1128.89c2.28,0.7,4.37,1.89,6.13,3.45" class="st4"></path>
	<path d="M2828.39,1108.2c1.67,1.87,3.4,3.63,5.23,5.29" class="st4"></path>
	<path d="M2840.39,1092c1.22,1.44,2.16,3.18,2.64,4.96" class="st4"></path>
</g>
<g>
	<path d="M2861.14,1204.63l-4.19-8.38c38.48-14.8,49.86-28.68,50.04-28.84l4.35,8.49
		C2910.6,1176.56,2900.98,1189.31,2861.14,1204.63z" class="st21"></path>
	<path d="M2901.23,1186.99c-0.77-8.27-8.07-14.35-16.33-13.61c-8.27,0.77-14.35,8.07-13.61,16.33
		c0.77,8.27,8.07,14.35,16.33,13.61C2895.91,1202.58,2901.99,1195.26,2901.23,1186.99z" class="st21"></path>
	<path d="M2897.35,1187.35c-0.56-6.13-5.97-10.63-12.1-10.07c-6.13,0.56-10.63,5.97-10.07,12.1s5.97,10.63,12.1,10.07
		C2893.39,1198.89,2897.89,1193.48,2897.35,1187.35z" class="st22"></path>
	<path d="M2895.23,1187.56c-0.45-4.96-4.84-8.61-9.78-8.13c-4.96,0.45-8.61,4.84-8.13,9.78
		c0.45,4.96,4.84,8.61,9.78,8.13C2892.03,1196.88,2895.68,1192.49,2895.23,1187.56z" class="st23"></path>
	<path d="M2894.11,1187.65c-0.41-4.33-4.24-7.53-8.56-7.12c-4.33,0.41-7.52,4.24-7.12,8.56
		c0.41,4.33,4.24,7.53,8.56,7.12S2894.49,1191.97,2894.11,1187.65z" class="st23"></path>
</g>
<path d="M2595.04,747.04c14.8-10.7,30.71,11.02,38.19,24.65" class="st5"></path>
<path d="M2600.33,738.46c19.2-10.09,49.93,7.48,59.93,19.49" class="st5"></path>
<path d="M2735.2,899.44c1.76,14.67,2.3,31.05,6.62,45.31c5.16,17.06,18.52,32.69,30.08,45.94" class="st5"></path>
<path d="M2727.27,936.14c4.87,20.59,8.36,33.66,22.8,48.6" class="st5"></path>
<path d="M2580.51,934.16c0.63,7.98-2.23,15.14-3.97,22.8" class="st5"></path>
<path d="M2589.43,939.11c0.25,11.27-3.11,20.82-4.96,31.72" class="st5"></path>
<path d="M1495.03,758.46c0,47.67,21.83,74.37,63.31,94.79c18.07,8.9,36.99,15.79,54.37,26
	c44.81,26.32,57.93,60.11,52.02,113.13c0,0-3.58-28.01-7.3-37.02c-11.63-28.07-32.44-37.13-55.38-57.77
	c15.52,14.85,33.57,45.08,35.24,66.92c1.33,17.42-3.45,38.41-9.26,54.68c-11.11,31.16-49.18,33.28-76.45,45.04
	c-18.05,7.77-41.7,1.78-59.62-3.04c-46.91-12.66-86.67-44.18-105.13-90.1c-17.71-44.02-20.3-93.82-4.19-138.45
	c8.34-23.12,15.03-49.3,32.94-66.17C1440.33,743.17,1464.69,751.91,1495.03,758.46z" class="st3"></path>
<path d="M1501.79,798.52c17.44,60.83,116.68,33.82,146.13,86.45" class="st4"></path>
<path d="M1455.29,820.76c6.83,16.13,13.65,30.24,30.96,38.98" class="st5"></path>
<path d="M1444.97,826.51c0.88,17.84,15.59,33.55,26.61,46.48c17.35,20.39,34.31,37.81,47.92,61.28" class="st5"></path>
<path d="M1224.29,899.32c18.99,8.83,76.04,0,92.89-17.44c14.69-15.19,23.7-116.84,24.13-120.7
	c23.34,10.88,76.51,39.34,99.76,50.4c-2.3-1.01-26.09,63.06-10.32,79.71c13.02,13.74,81.83-5.97,116.14,9.33l-25.73,217.42
	l-346.77-101.09L1224.29,899.32z" class="st8"></path>
<path d="M1218.11,1115.48c-13.25,27.92-68.06,95.3-120.74,84.51c-22.26-4.57-51.28-59.37-42.15-92.87
	c24.45-89.69,34.7-147.44,55.65-203.88c6.11-16.45,28.19-37.09,45.78-39.72c32.92-4.91,136.2,20.32,156.47,17.26
	c8.04,16.29,26.02,32.76,38.91,45.8c6.17,6.24,7.91,4.96,9.49,14.51c1.31,7.91-0.5,16.72-0.05,24.74
	c1.76,31.54,23.3,55.88,42.47,79.69c6.49,8.04,42.9,340.75,39.92,403.59l-182.27-56.51c-9.01-10.48-14.78-31.09-18.54-43.1
	c-25.93-82.42-38.26-203.16-39.88-210.73" class="st2"></path>
<path d="M1281.38,1392.6c-9.01-10.48-14.78-31.09-18.54-43.1c-25.93-82.42-43.1-226.45-44.72-234.05" class="st5"></path>
<path d="M1562.22,1084.12c4.28,10.86,42.31,188.42,62.52,219.11c15.03,22.85,51.75,43.69,74.28,23.88
	c32.56-28.64,86.54-214.94,99.67-228.82c7.12-7.53,35.08-6.44,40.06-15.5c12.01-21.79-12.03-64.08-24.69-85.5
	c-13.02,17.06-28.88,46.89-44.43,61.71c-13.29,12.66-55.52,169.2-72.28,176.68c-16.76,7.48-36.25,10.18-53.58,4.19
	c-19.06-6.6-25.93-177.7-40.58-191.55c-9.98-9.46-12.77-35.06-28.59-28.16c-16.18,7.05-18.07,44-14.28,58.33
	C1560.87,1080.4,1561.48,1082.27,1562.22,1084.12z" class="st8"></path>
<path d="M1489.72,641.13c9.69,10.61,17.1,23.25,21.11,37.24c7.73,26.92,3.38,55.49-1.01,82.91
	c-4.39,27.35-10.07,57.11-30.87,74.53c-17.28,14.44-41.91,17.01-64.05,12.17c-70.36-15.37-112.7-84.4-102.65-154
	c6.6-45.67,48.51-81.99,93.34-86.52C1436.39,604.33,1468.49,617.85,1489.72,641.13z" class="st10"></path>
<path d="M1472.93,710.45c14.64-12.26,31.61,3.04,31.61,3.04" class="st4"></path>
<path d="M1432.47,709.23c-21.47-19.22-50.47,0.41-50.47,0.41" class="st4"></path>
<path d="M1477.24,734.09c0.11,5.23,2.84,9.4,6.11,9.33c3.27-0.07,5.81-4.35,5.72-9.58c-0.09-5.23-2.84-9.4-6.11-9.33
	C1479.69,724.56,1477.15,728.86,1477.24,734.09z"></path>
<path d="M1406.87,731.83c0.11,5.23,2.84,9.4,6.11,9.33c3.27-0.07,5.81-4.35,5.72-9.58c-0.11-5.23-2.84-9.4-6.11-9.33
	C1409.33,722.3,1406.76,726.61,1406.87,731.83z"></path>
<path d="M1468.47,715.93c-5.38,9.55-3.15,23.84-3.09,34.38c0.05,6.42,1.92,14.51-5.41,17.64" class="st4"></path>
<path d="M1372.47,775.09c-5.29-10.14-1.35-22.67,8.81-27.94c10.14-5.29,22.67-1.35,27.94,8.81
	c5.27,10.16,1.35,22.67-8.81,27.94C1390.27,789.17,1377.76,785.25,1372.47,775.09z" class="st9"></path>
<path d="M1505.94,782.32c-7.75,2.91-16.63-0.29-20.55-7.82c-4.26-8.16-1.08-18.2,7.07-22.44
	c6.02-3.13,13.02-2.21,18.02,1.73C1509.52,763.38,1508.17,773.04,1505.94,782.32z" class="st9"></path>
<path d="M1312.25,693.98c6.6-45.67,48.51-81.99,93.34-86.52c30.8-3.13,62.88,10.41,84.13,33.66
	c9.69,10.61,17.1,23.25,21.11,37.24c7.73,26.92,3.38,55.49-1.01,82.91c-4.39,27.35-10.07,57.11-30.87,74.53
	c-17.28,14.44-41.91,17.01-64.05,12.17c-5.61-1.22-11.04-2.79-16.29-4.66" class="st4"></path>
<path d="M1444.09,813.96c-13.68-4.8-17.69-23.86-19.89-35.91c16.4,5.05,36.3,7.48,53.19,4.53
	c0,0-5.02,16.15-10.34,23.27C1461.94,812.72,1453.04,817.09,1444.09,813.96z" class="st8"></path>
<path d="M1806.83,1067.38c7.95-46.57,24.06-77.05,37.2-122.48c5.86-20.25,38.05-97.11,52.16-117.45
	c7.05,1.17,46.93,2.57,60.49,3.47c39.52,2.66,80.34-1.8,120.29-2.46c0,0-54.5,94.24-74.67,133.15
	c-32.13,61.98-49.68,124.59-48.82,195.29C1944.31,1152.43,1842.34,1093.74,1806.83,1067.38z" class="st8"></path>
<path d="M1789.89,1047.15c0,0,30.62-3.97,47.67-39.36c3.22-6.69,5.88-13.11,10.25-18.59c6.2-7.8,15.25-12.3,22.19-19.26
	c3.51-3.51,18.66-23.18,11.69-28.84c-5.05-4.1-21.07,9.55-25.5,11.47c-16.36,7.1-33.37,13.38-48.96,23.36
	c-16.7,10.7-34.67,39.09-40.6,57.59c-5.75,17.91-91.41,162.2-97.94,185.25c-6.15-12.66-38.55-231.14-61.37-260
	c-24.13-30.51-29.94-14.06-62.81-19.98c-0.56,42.27,6.87,83.2,12.68,124.93c37.9,23.59,46.14,226.81,80.84,254.82l55.63,14.71" class="st8"></path>
<path d="M1574.86,1071.19c6.08,88.68,7.34,224.58,5.23,259.35c-1.8,29.6-17.03,67.64-17.03,67.64l-138.36,50.58
	c8.74-93.82-17.48-185.67-19.71-269.13c-1.04-38.37-3.02-98.95-2.41-128.02c0,0,21.79-36.54,22.82-56.57
	c0.72-14.15-11.54-42.38-5.09-47.94c17.15-17.62,19.6-63.72,19.6-63.72s46.37,6.53,134.98,21.65c23.18,3.94,31.95,9.28,42.92,27.35
	c19.51,32.13,60,234.88,60,234.88c0.54,15.91-7.37,54.66-4.15,70.18c2.97,14.35,6.83,84.62-7.57,94.09
	c-35.55,23.36-65.56-51.37-85.68-119.79" class="st2"></path>
<path d="M1674.17,1314.78c-42.74,28.1-74.19-76.76-95.06-153.16" class="st5"></path>
<path d="M1415.55,1965.04c-5.61-27.73-13.74-219.45-17.87-244.7l14.8-75.21c-5.29,25.64-10.25,51.08-14.8,75.21
	c-5.61,29.76-46.03,205.97-50.15,229.7l-176.55,21.45c0,0,4.08-172.67,15.75-263.49c16.24-126.31,22.73-195.14,73.16-315.4
	c157.19,24.49,303.17,5.54,303.17,5.54s9.71,52.27,18.75,203.25c5.18,86.27-9.87,280.91-15.07,362.15L1415.55,1965.04z" class="st8"></path>
<path d="M1200.79,1971.5c0,0,6.22-180.13,14.44-252.05c12.19-106.43,21.61-162.47,55.85-272.14" class="st5"></path>
<path d="M1397.68,1720.35L1397.68,1720.35L1397.68,1720.35z" class="st25"></path>
<g>
	<path d="M1641.05,1215.22c1.85-7.93,8.7-22.91,15.41-27.85c9.08-6.67,6.15,6.08,15.01-5.47
		c4.57-5.95,3.63-20.5,13.09-11.31c14.31,13.92,13.18,44.68,14.01,63.87c1.13,26.14,4.64,52.38,4.42,78.56
		c-0.11,12.44,1.55,32.51-13.23,34.52c-11.67,1.58-18.63-6.22-30.62-1.64c-9.8,3.74-17.48,9.64-22.64-2.66
		C1629.11,1325.73,1630.35,1292.71,1641.05,1215.22z" class="st2"></path>
	<path d="M1651.89,1348.87c8.79-3.47,17.89-7.82,26.25-12.44" class="st4"></path>
	<path d="M1655.43,1224.28c3.9-14.55,8.34-27.26,15.59-40.44" class="st4"></path>
	<path d="M1675.55,1229.21c-5.05,30.93-6.31,66.51-18.93,95.73" class="st5"></path>
</g>
<path d="M1572.74,1450.42c0,0-154.49,26.23-325.56-8.92" class="st5"></path>
<path d="M1416.54,1634.29c9.78-59.91,20.91-174.45,20.91-174.45" class="st5"></path>
<path d="M1190.83,912.86c0,0,8.29,63,7.64,94.79" class="st5"></path>
<path d="M1519.53,668.73c4.78,24.24,1.06,52.41-11.31,73.2c8.92-38.5-11.6-82.42-37.58-111.17
	c0.05,0.07-33.12,19.76-36.36,21.4c-11.99,6.06-24.45,10.93-36.3,17.33c-22.12,11.96-49.07,28.84-60.27,52.16
	c-12.59,26.25-14.4,55.67-17.78,84.15c-3.04,25.64,12.68,23.93,9.31,49.54c-4.19,31.97-31.5,50.65-40.17,80.88
	c-4.06,14.17-5.95,30.42-3.81,44.93c5.34,36.36,42.45,52.47,47.81,90.23c-4.98-15.77-20.91-20.34-33.64-30.66
	c-23.88-19.4-41.34-47.04-39.74-77.71c-18.45,59.68,89.49,129.48,15.3,178.24c12.5-21.13-51.87-44-66.51-55.02
	c-35.69-26.88-39.54-87.03-29.9-126.1c6.33-25.64,19.96-47.02,19.96-47.02c-20.89,18.54-28.64,15.32-41.21,83.63
	c-14.19-31.05-6.24-77.23,13.83-102.22c12.55-15.59,34.36-35.49,45.69-52.14c40.06-58.71,22.85-124.62,58.51-187.75
	c37.27-65.99,95.48-98.03,180.06-58.11C1484.2,593.68,1512.9,635.25,1519.53,668.73z" class="st3"></path>
<path d="M1388.04,649.93c-22.67,19.51-45.83,31.68-53.8,60.27" class="st5"></path>
<path d="M1326.82,709.64c-0.34-10.88,1.69-24.51,7.39-33.73" class="st5"></path>
<path d="M1205.34,948.03c-10.43,34.13-8.16,74.98,12.32,104.34c5.66,8.11,12.08,15.34,19.51,21.85
	c7.98,6.96,21.22,12.05,27.78,19.42" class="st5"></path>
<path d="M1465.11,618.98c-1.64-10.75-11.4-15.43-18.34-22.94" class="st4"></path>
<path d="M1231.72,873.5c0,47.97-26.34,106.79-5.72,152.49" class="st5"></path>
<path d="M1412.75,1059.58c0-3.11,2.52-5.63,5.63-5.63c3.11,0,5.63,2.52,5.63,5.63s-2.52,5.63-5.63,5.63
	C1415.28,1065.22,1412.75,1062.69,1412.75,1059.58z" class="st4"></path>
<path d="M1415.64,1154.23c0-3.11,2.52-5.63,5.63-5.63c3.11,0,5.63,2.52,5.63,5.63c0,3.11-2.52,5.63-5.63,5.63
	C1418.16,1159.87,1415.64,1157.34,1415.64,1154.23z" class="st4"></path>
<path d="M1413.47,1241.72c0-3.11,2.52-5.63,5.63-5.63c3.11,0,5.63,2.52,5.63,5.63s-2.52,5.63-5.63,5.63
	S1413.47,1244.83,1413.47,1241.72z" class="st4"></path>
<path d="M1440.58,1321.75c0-3.11,2.52-5.63,5.63-5.63c3.11,0,5.63,2.52,5.63,5.63s-2.52,5.63-5.63,5.63
	C1443.1,1327.38,1440.58,1324.86,1440.58,1321.75z" class="st4"></path>
<path d="M1341.9,960.27c0-3.11,2.52-5.63,5.63-5.63c3.11,0,5.63,2.52,5.63,5.63c0,3.11-2.52,5.63-5.63,5.63
	C1344.42,965.9,1341.9,963.38,1341.9,960.27z" class="st4"></path>
<path d="M1594.78,917.42c-13.97,40.44-20.5,98.5-19.92,142.17" class="st5"></path>
<path d="M1590.14,934.27c0,0-77.62-16.06-105.67-24.65" class="st5"></path>
<line y2="969.01" x2="1444.16" y1="965.9" x1="1430.82" class="st4"></line>
<path d="M1444.97,899.89c-6.17,58.67-11.22,116.87-21.27,175.24c-4.12,23.9-8.63,47.74-13.56,71.51
	c-3.67,17.73-16.81,47.58-12.19,65.11c-8.04-30.6-25.91-60-36.09-90.3c-20.48-60.85-29.29-124.19-56.87-182.63" class="st15"></path>
<g>
	
		<rect height="117.39" width="87.4" class="st8" transform="matrix(0.979 -0.2041 0.2041 0.979 -228.664 313.944)" y="1206.89" x="1364.04"></rect>
	
		<rect height="73.68" width="54.86" class="st2" transform="matrix(0.979 -0.2041 0.2041 0.979 -228.6637 313.9442)" y="1228.75" x="1380.31"></rect>
	
		<rect height="19.56" width="17.64" class="st2" transform="matrix(0.979 -0.2041 0.2041 0.979 -218.2202 310.6192)" y="1203.51" x="1388.02"></rect>
</g>
<path d="M1434.36,951.44c3.27,0.65,7.44,3.18,10.32,5.05c16.31,10.57,14.22,35.24,30.12,43.01
	c0.02-36.32,12.75-73.88,8.99-109.81c-23.81-8.9-30.46-20.46-43.93-28.37c-5.07-2.97-13.56-1.17-13.56-1.17
	c0,13.74-3.85,26.36,8.79,34.74" class="st2"></path>
<path d="M1419.13,960.27c-1.06-6.2-1.17-11.18,1.15-13.18c17.15-17.62,19.6-63.72,19.6-63.72" class="st4"></path>
<path d="M1351.58,942.7c-14.8-7.5-40.01,49.86-44.57,56.8c-9.06-10.5-36.7-34.04-45.35-44.86" class="st2"></path>
<g>
	<g>
		<path d="M1334.87,766.78c-16.85-5.52-30.06-30.53-21.65-47.7c7.53-15.39,29.9-11.33,34.22,4.3" class="st8"></path>
		<path d="M1339.58,742.65c3.29-9.89-10.66-16.49-18.41-12.08" class="st4"></path>
		<path d="M1339.85,741.41c-1.96-6.13-10.75-2.19-13,1.69" class="st4"></path>
	</g>
	<g>
		<g>
			<g>
				<path d="M1305.82,699.14l-20.1,27.87c-0.68,3.11-1.76,8.02,1.8,14.85l52.99,101.81c3.56,6.85,8.56,11.33,11.13,10
					l32.29-4.44" class="st2"></path>
			</g>
			<path d="M1315.35,698.8l72.84,139.96c1.85,3.56,0.45,8-3.11,9.87l-1.08,0.56c-0.34,0.18-0.77,0.05-0.95-0.29
				l-77.48-148.86c-0.18-0.34-0.05-0.77,0.29-0.95l3.92-2.05C1311.82,696.01,1314.32,696.8,1315.35,698.8z" class="st2"></path>
		</g>
		<g>
			<path d="M1313.51,810.19c3.2-7.53,11.72-15.93,16.54-22.71c5.32-7.46,18.59-14.73,27.44-15.73
				c3.45-0.38,9.01,1.42,13,1.96c4.17,0.56,8.27-0.2,5.27,4.75c-2.23,3.72-8.9,4.48-12.66,5.5c-5.32,1.42-14.4,3.58-18.29,8.34
				c-3.83,4.69-7.03,20.32-7.89,26.61c-0.7,4.93,0.02,6.15,3.09,10.63c6.31,9.19,10.16,19.06,12.26,30.15
				c5.11,27.04-9.51,45.15-9.51,45.15c-4.28,1.62-112.38,170.92-124.12,192.64l-68.54-48.55c9.78-14.33,141.02-141.2,142.84-146.65
				c0.7-2.1,0.88-3.99,0.97-6.2c0.14-3.45-16.9-64.91-22.08-80.16c-2.39-7.05,2.57-19.96,4.44-26.97
				c2.16-8.16,4.12-16.85,7.14-24.42c4.15-10.43,11.45-20.16,16.45-30.24c1.96-3.97,3.31-10.54,6.89-13.36
				c3.24-2.57,6.87-2.82,5.38,3.38" class="st8"></path>
			<path d="M1279.91,804c5.27-25.23,10.32-46.98,24.94-68.97c2.57-3.85,12.59-22.26,17.33-20.01
				c7.03,3.33-4.24,25.03-6.22,29.24c-8.45,17.91-18.86,38.62-19.31,58.8" class="st8"></path>
			<path d="M1292.82,804.72c0.56-10.18,3.02-24.24,4.84-33.82c2.23-11.81,14.58-18,23.79-25.57
				c3.49-2.88,24.18-17.15,27.46-13.61c5.11,5.47-11.96,20.25-15.21,23.23c-5.2,4.8-10.14,11.56-14.37,17.33
				c-5.86,7.98-5,36.18-5,36.18" class="st8"></path>
			<path d="M1283.65,814.07c-0.72,4.73-0.23,6.62,2.5,10.63" class="st4"></path>
			<path d="M1299.74,819.3c-0.7,3.54-0.09,6.4,1.31,9.64" class="st4"></path>
			<path d="M1317.61,825.54c-0.9,5.14-0.52,7.1,2.77,11.27" class="st4"></path>
		</g>
	</g>
	<g>
		<path d="M1240.35,1067.09c3.58,5.29,14.6,14.22,13.54,20.93c-1.42,9.08-13.45,3.74-11.87,15.23
			c0.81,5.93,5.45,16.11-5.47,17.12c-11.08,1.01-29.94-16.76-38.3-22.51c-18.75-12.86-39.23-25.44-56.01-40.71
			c-7.23-6.58-19.96-16.06-12.46-26.23c5.93-8.02,14.58-8.2,18.95-17.98c3.56-7.98,4.62-15.79,14.85-12.55
			C1178.17,1005.01,1209.24,1033.61,1240.35,1067.09z" class="st2"></path>
		<path d="M1151.22,1006.93c-3.13,7.23-5.93,15.1-8.11,22.67" class="st4"></path>
		<path d="M1226.61,1071.19c6.24,10.03,11.08,19.4,14.53,30.78" class="st4"></path>
		<path d="M1207.48,1084.14c-15.16-19.31-35.28-38.71-45.02-61.78" class="st5"></path>
	</g>
</g>
<path d="M1133.74,1048.9c-6.62,6.02-29.09,23.99-31.66,32.65" class="st4"></path>
<path d="M1330.92,1399c-10.12-18.23-17.89-100.04-17.89-100.04" class="st5"></path>
<path d="M1357.24,1401.03c-4.06-20.25-1.69-61.58-1.69-61.58" class="st5"></path>
<path d="M1518.76,1404.64c8.72-19.62,8.43-87.89,8.43-87.89" class="st5"></path>
</svg>
