<svg xml:space="preserve" style="enable-background:new 0 0 1024 1024;" viewBox="0 0 1024 1024" y="0px" x="0px" xmlns:xlink="http://www.w3.org/1999/xlink" xmlns="http://www.w3.org/2000/svg" id="图层_1" version="1.1">
<style type="text/css">
	.st0{fill:url(#SVGID_1_);}
	.st1{fill:url(#SVGID_2_);}
	.st2{fill:url(#SVGID_3_);}
	.st3{fill:url(#SVGID_4_);}
	.st4{fill:url(#SVGID_5_);}
	.st5{fill:url(#SVGID_6_);}
	.st6{fill:url(#SVGID_7_);}
	.st7{fill:url(#SVGID_8_);}
	.st8{opacity:0.2;clip-path:url(#SVGID_10_);fill:url(#SVGID_11_);}
	.st9{opacity:0.2;clip-path:url(#SVGID_10_);fill:url(#SVGID_12_);}
	.st10{opacity:0.2;clip-path:url(#SVGID_10_);fill:url(#SVGID_13_);}
	.st11{opacity:0.3;clip-path:url(#SVGID_10_);fill:url(#SVGID_14_);}
	.st12{opacity:0.8;clip-path:url(#SVGID_10_);fill:url(#SVGID_15_);}
	.st13{fill:url(#SVGID_16_);}
	.st14{fill:url(#SVGID_17_);}
	.st15{opacity:0.8;fill:url(#SVGID_18_);}
	.st16{fill:url(#SVGID_19_);}
	.st17{fill:url(#SVGID_20_);}
	.st18{opacity:0.8;fill:url(#SVGID_21_);}
	.st19{fill:url(#SVGID_22_);}
	.st20{fill:url(#SVGID_23_);}
	.st21{fill:url(#SVGID_24_);}
	.st22{fill:url(#SVGID_25_);}
	.st23{fill:url(#SVGID_26_);}
	.st24{fill:url(#SVGID_27_);}
	.st25{fill:url(#SVGID_28_);}
	.st26{fill:url(#SVGID_29_);}
	.st27{fill:url(#SVGID_30_);}
	.st28{fill:url(#SVGID_31_);}
	.st29{fill:url(#SVGID_32_);}
	.st30{fill:url(#SVGID_33_);}
	.st31{fill:url(#SVGID_34_);}
	.st32{fill:url(#SVGID_35_);}
	.st33{fill:url(#SVGID_36_);}
	.st34{fill:url(#SVGID_37_);}
	.st35{fill:url(#SVGID_38_);}
	.st36{fill:url(#SVGID_39_);}
	.st37{fill:url(#SVGID_40_);}
	.st38{fill:url(#SVGID_41_);}
	.st39{fill:url(#SVGID_42_);}
	.st40{fill:url(#SVGID_43_);}
	.st41{fill:url(#SVGID_44_);}
	.st42{fill:url(#SVGID_45_);}
	.st43{fill:url(#SVGID_46_);}
	.st44{fill:url(#SVGID_47_);}
	.st45{fill:url(#SVGID_48_);}
	.st46{fill:url(#SVGID_49_);}
	.st47{fill:url(#SVGID_50_);}
	.st48{fill:url(#SVGID_51_);}
	.st49{fill:url(#SVGID_52_);}
	.st50{fill:url(#SVGID_53_);}
	.st51{fill:url(#SVGID_54_);}
	.st52{fill:url(#SVGID_55_);}
	.st53{fill:url(#SVGID_56_);}
	.st54{fill:url(#SVGID_57_);}
	.st55{fill:url(#SVGID_58_);}
	.st56{fill:url(#SVGID_59_);}
	.st57{fill:url(#SVGID_60_);}
	.st58{fill:url(#SVGID_61_);}
	.st59{fill:url(#SVGID_62_);}
	.st60{fill:url(#SVGID_63_);}
	.st61{fill:url(#SVGID_64_);}
	.st62{fill:url(#SVGID_65_);}
	.st63{fill:#FFFFFF;}
</style>
<g>
	<rect height="1023" width="1023" y="0.5" x="0.5"></rect>
	<path d="M1023,1v1022H1V1H1023 M1024,0H0v1024h1024V0L1024,0z"></path>
</g>
<g>
	<g>
		<linearGradient y2="490.0514" x2="692.1873" y1="490.0514" x1="331.8123" gradientUnits="userSpaceOnUse" id="SVGID_1_">
			<stop style="stop-color:#DF8E95;stop-opacity:0.5" offset="0"></stop>
			<stop style="stop-color:#DF3B95;stop-opacity:0.1" offset="0.1308"></stop>
			<stop style="stop-color:#DF3B95;stop-opacity:0.1" offset="0.3238"></stop>
			<stop style="stop-color:#DF3B95;stop-opacity:0.6" offset="0.5037"></stop>
			<stop style="stop-color:#DF3B95;stop-opacity:0.1" offset="0.6919"></stop>
			<stop style="stop-color:#DF3B95;stop-opacity:0.1" offset="0.8776"></stop>
			<stop style="stop-color:#DF8E95;stop-opacity:0.5" offset="1"></stop>
		</linearGradient>
		<path d="M512,263.1c-99.5,0-180.2-13.4-180.2-29.8V717c0,16.5,80.7,29.8,180.2,29.8s180.2-13.4,180.2-29.8V233.3
			C692.2,249.7,611.5,263.1,512,263.1z" class="st0"></path>
		<linearGradient y2="233.2635" x2="692.1874" y1="233.2635" x1="331.8126" gradientUnits="userSpaceOnUse" id="SVGID_2_">
			<stop style="stop-color:#50647E" offset="5.144848e-02"></stop>
			<stop style="stop-color:#19486B" offset="0.1135"></stop>
			<stop style="stop-color:#112B42" offset="0.18"></stop>
			<stop style="stop-color:#263D53" offset="0.2735"></stop>
			<stop style="stop-color:#8993A4" offset="0.4035"></stop>
			<stop style="stop-color:#FFFFFF" offset="0.5315"></stop>
			<stop style="stop-color:#8993A4" offset="0.7118"></stop>
			<stop style="stop-color:#43566F" offset="1"></stop>
		</linearGradient>
		<path d="M597.4,207c-25.4-2.3-54.5-3.6-85.4-3.6c-30.9,0-60,1.3-85.4,3.6h-94.8v26.3c0,16.5,80.7,29.8,180.2,29.8
			c99.5,0,180.2-13.4,180.2-29.8h0V207H597.4z" class="st1"></path>
		
			<radialGradient gradientUnits="userSpaceOnUse" gradientTransform="matrix(1 0 0 0.1749 0 170.7873)" r="175.3889" cy="206.9791" cx="511.9998" id="SVGID_3_">
			<stop style="stop-color:#8993A4" offset="5.783907e-02"></stop>
			<stop style="stop-color:#8993A4" offset="0.2608"></stop>
			<stop style="stop-color:#8993A4" offset="0.7302"></stop>
			<stop style="stop-color:#8993A4" offset="0.8359"></stop>
			<stop style="stop-color:#A7B1C1" offset="0.9476"></stop>
			<stop style="stop-color:#BAC2CE" offset="1"></stop>
		</radialGradient>
		<ellipse ry="29.8" rx="180.2" cy="207" cx="512" class="st2"></ellipse>
		<linearGradient y2="745.058" x2="692.1874" y1="745.058" x1="331.8126" gradientUnits="userSpaceOnUse" id="SVGID_4_">
			<stop style="stop-color:#50647E" offset="5.783907e-02"></stop>
			<stop style="stop-color:#19486B" offset="0.125"></stop>
			<stop style="stop-color:#112B42" offset="0.2106"></stop>
			<stop style="stop-color:#8993A4" offset="0.4035"></stop>
			<stop style="stop-color:#FFFFFF" offset="0.5315"></stop>
			<stop style="stop-color:#8993A4" offset="0.7118"></stop>
			<stop style="stop-color:#112B42" offset="0.8351"></stop>
			<stop style="stop-color:#43566F" offset="1"></stop>
		</linearGradient>
		<path d="M692.2,717c0,16.5-80.7,29.8-180.2,29.8c-99.5,0-180.2-13.4-180.2-29.8v26.3c0,16.5,80.7,29.8,180.2,29.8
			c99.5,0,180.2-13.4,180.2-29.8h0L692.2,717L692.2,717z" class="st3"></path>
		<g>
			<linearGradient y2="569.6263" x2="691.1058" y1="569.6263" x1="330.7308" gradientUnits="userSpaceOnUse" id="SVGID_5_">
				<stop style="stop-color:#9E7DDA;stop-opacity:0.1" offset="0"></stop>
				<stop style="stop-color:#A776DA;stop-opacity:0.3676" offset="7.060116e-02"></stop>
				<stop style="stop-color:#C063DA;stop-opacity:0.8" offset="0.1847"></stop>
				<stop style="stop-color:#C063DA;stop-opacity:0.1" offset="0.4859"></stop>
				<stop style="stop-color:#C063DA;stop-opacity:0.8" offset="0.8567"></stop>
				<stop style="stop-color:#9E7DDA;stop-opacity:0.1" offset="0.9954"></stop>
			</linearGradient>
			<path d="M510.9,391.6c-99.5,0-180.2,13.4-180.2,29.8v296.3c0,16.5,80.7,29.8,180.2,29.8s180.2-13.4,180.2-29.8V421.5
				C691.1,405,610.4,391.6,510.9,391.6z" class="st4"></path>
			<linearGradient y2="446.8777" x2="511.2675" y1="392.9809" x1="511.2675" gradientUnits="userSpaceOnUse" id="SVGID_6_">
				<stop style="stop-color:#9E4EDA" offset="0"></stop>
				<stop style="stop-color:#A057DB" offset="0.1601"></stop>
				<stop style="stop-color:#A571DE" offset="0.4262"></stop>
				<stop style="stop-color:#AD9AE2" offset="0.7634"></stop>
				<stop style="stop-color:#B3BBE6" offset="1"></stop>
			</linearGradient>
			<ellipse ry="29.8" rx="180.2" cy="421.5" cx="511.3" class="st5"></ellipse>
			
				<radialGradient gradientUnits="userSpaceOnUse" gradientTransform="matrix(1 0 0 0.1661 0 351.4403)" r="177.9701" cy="421.452" cx="511.2675" id="SVGID_7_">
				<stop style="stop-color:#00E8BE;stop-opacity:0" offset="0"></stop>
				<stop style="stop-color:#09E9C0;stop-opacity:0" offset="7.341047e-02"></stop>
				<stop style="stop-color:#23EBC7;stop-opacity:0" offset="0.1956"></stop>
				<stop style="stop-color:#4DEFD2;stop-opacity:0" offset="0.3515"></stop>
				<stop style="stop-color:#86F4E0;stop-opacity:0" offset="0.535"></stop>
				<stop style="stop-color:#CFFBF3;stop-opacity:0" offset="0.7393"></stop>
				<stop style="stop-color:#FFFFFF;stop-opacity:0" offset="0.8645"></stop>
				<stop style="stop-color:#FFFFFF;stop-opacity:0.6" offset="1"></stop>
			</radialGradient>
			<ellipse ry="29.8" rx="180.2" cy="421.5" cx="511.3" class="st6"></ellipse>
			<linearGradient y2="749.5801" x2="513.0818" y1="690.6218" x1="513.0818" gradientUnits="userSpaceOnUse" id="SVGID_8_">
				<stop style="stop-color:#BFCAFF" offset="0"></stop>
				<stop style="stop-color:#BFC1FF" offset="0.3152"></stop>
				<stop style="stop-color:#BDA7FF" offset="0.8377"></stop>
				<stop style="stop-color:#BD9EFF" offset="1"></stop>
			</linearGradient>
			<ellipse ry="29.8" rx="180.2" cy="717.8" cx="513.1" class="st7"></ellipse>
		</g>
		<g>
			<defs>
				<path d="M512,236.8c-99.5,0-180.2-13.4-180.2-29.8v536.3c0,16.5,80.7,29.8,180.2,29.8s180.2-13.4,180.2-29.8V207
					C692.2,223.5,611.5,236.8,512,236.8z" id="SVGID_9_"></path>
			</defs>
			<clipPath id="SVGID_10_">
				<use style="overflow:visible;" xlink:href="#SVGID_9_"></use>
			</clipPath>
			<linearGradient y2="764.1796" x2="401.5287" y1="282.1741" x1="401.5287" gradientUnits="userSpaceOnUse" id="SVGID_11_">
				<stop style="stop-color:#FFFFFF;stop-opacity:0.7" offset="0"></stop>
				<stop style="stop-color:#FFFFFF;stop-opacity:0" offset="0.5348"></stop>
			</linearGradient>
			<rect height="561.2" width="37.6" class="st8" y="217.4" x="382.7"></rect>
			<linearGradient y2="490.0514" x2="692.1873" y1="490.0514" x1="613.877" gradientUnits="userSpaceOnUse" id="SVGID_12_">
				<stop style="stop-color:#FFFFFF;stop-opacity:0.7" offset="0"></stop>
				<stop style="stop-color:#FFFFFF;stop-opacity:0" offset="0.3945"></stop>
			</linearGradient>
			<rect height="561.2" width="78.3" class="st9" y="209.5" x="613.9"></rect>
			<linearGradient y2="776.1483" x2="411.4895" y1="232.4291" x1="411.4895" gradientUnits="userSpaceOnUse" id="SVGID_13_">
				<stop style="stop-color:#FFFFFF;stop-opacity:0.7" offset="0"></stop>
				<stop style="stop-color:#FFFFFF;stop-opacity:0" offset="0.6909"></stop>
			</linearGradient>
			<rect height="561.2" width="17.7" class="st10" y="217.4" x="402.6"></rect>
			<linearGradient y2="490.0514" x2="692.1874" y1="490.0514" x1="634.7893" gradientUnits="userSpaceOnUse" id="SVGID_14_">
				<stop style="stop-color:#FFFFFF;stop-opacity:0.7" offset="0"></stop>
				<stop style="stop-color:#FFFFFF;stop-opacity:0" offset="0.3945"></stop>
			</linearGradient>
			<rect height="561.2" width="57.4" class="st11" y="209.5" x="634.8"></rect>
			<linearGradient y2="497.936" x2="582.0043" y1="497.936" x1="420.3331" gradientUnits="userSpaceOnUse" id="SVGID_15_">
				<stop style="stop-color:#FFFFFF;stop-opacity:0.6" offset="0"></stop>
				<stop style="stop-color:#FFFFFF;stop-opacity:0" offset="0.3945"></stop>
			</linearGradient>
			<rect height="561.2" width="161.7" class="st12" y="217.4" x="420.3"></rect>
		</g>
		<g>
			
				<radialGradient gradientUnits="userSpaceOnUse" gradientTransform="matrix(1 0 0 10.8191 0 -4763.9692)" r="23.4311" cy="485.1732" cx="334.4016" id="SVGID_16_">
				<stop style="stop-color:#00D3FF;stop-opacity:0.9" offset="0"></stop>
				<stop style="stop-color:#0092FF;stop-opacity:0" offset="1"></stop>
			</radialGradient>
			<path d="M365.6,734.1V250.4c-20.6-4.9-32.7-10.8-32.7-17.1V717C332.9,723.4,345,729.3,365.6,734.1z" class="st13"></path>
			
				<radialGradient gradientUnits="userSpaceOnUse" gradientTransform="matrix(1 0 0 5.662 0 -2261.8845)" r="23.4311" cy="485.1732" cx="334.4016" id="SVGID_17_">
				<stop style="stop-color:#00FFFF;stop-opacity:0.9" offset="0"></stop>
				<stop style="stop-color:#0092FF;stop-opacity:0" offset="0.5268"></stop>
			</radialGradient>
			<path d="M365.6,734.1V250.4c-20.6-4.9-32.7-10.8-32.7-17.1V717C332.9,723.4,345,729.3,365.6,734.1z" class="st14"></path>
			<linearGradient y2="483.7346" x2="365.6024" y1="483.7346" x1="332.8943" gradientUnits="userSpaceOnUse" id="SVGID_18_">
				<stop style="stop-color:#FFFFFF;stop-opacity:0.3" offset="0"></stop>
				<stop style="stop-color:#FFFFFF;stop-opacity:0" offset="0.9295"></stop>
			</linearGradient>
			<path d="M365.6,760.5V224.1c-20.6-4.9-32.7-10.8-32.7-17.1v536.4C332.9,749.7,345,755.6,365.6,760.5z" class="st15"></path>
		</g>
		<g>
			
				<radialGradient gradientUnits="userSpaceOnUse" gradientTransform="matrix(-1 0 0 10.8191 -372.9467 -4763.9692)" r="23.4311" cy="485.1732" cx="-1062.5453" id="SVGID_19_">
				<stop style="stop-color:#00D3FF;stop-opacity:0.9" offset="0"></stop>
				<stop style="stop-color:#0092FF;stop-opacity:0" offset="1"></stop>
			</radialGradient>
			<path d="M658.4,734.1V250.4c20.6-4.9,32.7-10.8,32.7-17.1V717C691.1,723.4,679,729.3,658.4,734.1z" class="st16"></path>
			
				<radialGradient gradientUnits="userSpaceOnUse" gradientTransform="matrix(-1 0 0 5.662 -372.9467 -2261.8845)" r="23.4311" cy="485.1732" cx="-1062.5453" id="SVGID_20_">
				<stop style="stop-color:#00FFFF;stop-opacity:0.9" offset="0"></stop>
				<stop style="stop-color:#0092FF;stop-opacity:0" offset="0.5268"></stop>
			</radialGradient>
			<path d="M658.4,734.1V250.4c20.6-4.9,32.7-10.8,32.7-17.1V717C691.1,723.4,679,729.3,658.4,734.1z" class="st17"></path>
			
				<linearGradient gradientTransform="matrix(-1 0 0 1 -372.9467 0)" y2="483.7346" x2="-1031.3445" y1="483.7346" x1="-1064.0525" gradientUnits="userSpaceOnUse" id="SVGID_21_">
				<stop style="stop-color:#FFFFFF;stop-opacity:0.3" offset="0"></stop>
				<stop style="stop-color:#FFFFFF;stop-opacity:0" offset="0.9295"></stop>
			</linearGradient>
			<path d="M658.4,760.5V224.1c20.6-4.9,32.7-10.8,32.7-17.1v536.4C691.1,749.7,679,755.6,658.4,760.5z" class="st18"></path>
		</g>
	</g>
	<g>
		<g>
			<radialGradient gradientUnits="userSpaceOnUse" r="3.3152" cy="713.4775" cx="599.5052" id="SVGID_22_">
				<stop style="stop-color:#FFFFFF" offset="0"></stop>
				<stop style="stop-color:#FFFFFF;stop-opacity:0" offset="1"></stop>
			</radialGradient>
			<circle r="3.3" cy="714.5" cx="600.2" class="st19"></circle>
			<radialGradient gradientUnits="userSpaceOnUse" r="3.3254" cy="714.4751" cx="600.1555" id="SVGID_23_">
				<stop style="stop-color:#FFFFFF;stop-opacity:0" offset="0.7363"></stop>
				<stop style="stop-color:#FFFFFF;stop-opacity:0.5" offset="1"></stop>
			</radialGradient>
			<circle r="3.3" cy="714.5" cx="600.2" class="st20"></circle>
		</g>
		<g>
			<radialGradient gradientUnits="userSpaceOnUse" r="5.3873" cy="653.6055" cx="461.1897" id="SVGID_24_">
				<stop style="stop-color:#FFFFFF" offset="0"></stop>
				<stop style="stop-color:#FFFFFF;stop-opacity:0" offset="1"></stop>
			</radialGradient>
			<circle r="5.4" cy="655.2" cx="462.2" class="st21"></circle>
			<radialGradient gradientUnits="userSpaceOnUse" r="5.4038" cy="655.2266" cx="462.2463" id="SVGID_25_">
				<stop style="stop-color:#FFFFFF;stop-opacity:0" offset="0.7363"></stop>
				<stop style="stop-color:#FFFFFF;stop-opacity:0.5" offset="1"></stop>
			</radialGradient>
			<circle r="5.4" cy="655.2" cx="462.2" class="st22"></circle>
		</g>
		<g>
			<radialGradient gradientUnits="userSpaceOnUse" r="3.9783" cy="630.225" cx="484.8825" id="SVGID_26_">
				<stop style="stop-color:#FFFFFF" offset="0"></stop>
				<stop style="stop-color:#FFFFFF;stop-opacity:0" offset="1"></stop>
			</radialGradient>
			<circle r="4" cy="631.4" cx="485.7" class="st23"></circle>
			<radialGradient gradientUnits="userSpaceOnUse" r="3.9905" cy="631.4222" cx="485.6627" id="SVGID_27_">
				<stop style="stop-color:#FFFFFF;stop-opacity:0" offset="0.7363"></stop>
				<stop style="stop-color:#FFFFFF;stop-opacity:0.5" offset="1"></stop>
			</radialGradient>
			<circle r="4" cy="631.4" cx="485.7" class="st24"></circle>
		</g>
		<g>
			<radialGradient gradientUnits="userSpaceOnUse" r="2.6648" cy="597.1445" cx="412.8678" id="SVGID_28_">
				<stop style="stop-color:#FFFFFF" offset="0"></stop>
				<stop style="stop-color:#FFFFFF;stop-opacity:0" offset="1"></stop>
			</radialGradient>
			<circle r="2.7" cy="597.9" cx="413.4" class="st25"></circle>
			<radialGradient gradientUnits="userSpaceOnUse" r="2.673" cy="597.9464" cx="413.3904" id="SVGID_29_">
				<stop style="stop-color:#FFFFFF;stop-opacity:0" offset="0.7363"></stop>
				<stop style="stop-color:#FFFFFF;stop-opacity:0.5" offset="1"></stop>
			</radialGradient>
			<circle r="2.7" cy="597.9" cx="413.4" class="st26"></circle>
		</g>
		<g>
			<radialGradient gradientUnits="userSpaceOnUse" r="2.0476" cy="474.7921" cx="536.795" id="SVGID_30_">
				<stop style="stop-color:#FFFFFF" offset="0"></stop>
				<stop style="stop-color:#FFFFFF;stop-opacity:0" offset="1"></stop>
			</radialGradient>
			<circle r="2.1" cy="475.4" cx="537.2" class="st27"></circle>
			<radialGradient gradientUnits="userSpaceOnUse" r="2.0539" cy="475.4082" cx="537.1966" id="SVGID_31_">
				<stop style="stop-color:#FFFFFF;stop-opacity:0" offset="0.7363"></stop>
				<stop style="stop-color:#FFFFFF;stop-opacity:0.5" offset="1"></stop>
			</radialGradient>
			<circle r="2.1" cy="475.4" cx="537.2" class="st28"></circle>
		</g>
		<g>
			<radialGradient gradientUnits="userSpaceOnUse" r="2.8555" cy="488.6265" cx="564.9025" id="SVGID_32_">
				<stop style="stop-color:#FFFFFF" offset="0"></stop>
				<stop style="stop-color:#FFFFFF;stop-opacity:0" offset="1"></stop>
			</radialGradient>
			<circle r="2.9" cy="489.5" cx="565.5" class="st29"></circle>
			<radialGradient gradientUnits="userSpaceOnUse" r="2.8643" cy="489.4858" cx="565.4626" id="SVGID_33_">
				<stop style="stop-color:#FFFFFF;stop-opacity:0" offset="0.7363"></stop>
				<stop style="stop-color:#FFFFFF;stop-opacity:0.5" offset="1"></stop>
			</radialGradient>
			<circle r="2.9" cy="489.5" cx="565.5" class="st30"></circle>
		</g>
		<g>
			<radialGradient gradientUnits="userSpaceOnUse" r="1.7859" cy="457.5054" cx="554.3977" id="SVGID_34_">
				<stop style="stop-color:#FFFFFF" offset="0"></stop>
				<stop style="stop-color:#FFFFFF;stop-opacity:0" offset="1"></stop>
			</radialGradient>
			<circle r="1.8" cy="458" cx="554.7" class="st31"></circle>
			<radialGradient gradientUnits="userSpaceOnUse" r="1.7914" cy="458.0428" cx="554.748" id="SVGID_35_">
				<stop style="stop-color:#FFFFFF;stop-opacity:0" offset="0.7363"></stop>
				<stop style="stop-color:#FFFFFF;stop-opacity:0.5" offset="1"></stop>
			</radialGradient>
			<circle r="1.8" cy="458" cx="554.7" class="st32"></circle>
		</g>
		<g>
			<radialGradient gradientUnits="userSpaceOnUse" r="1.2446" cy="455.8769" cx="582.576" id="SVGID_36_">
				<stop style="stop-color:#FFFFFF" offset="0"></stop>
				<stop style="stop-color:#FFFFFF;stop-opacity:0" offset="1"></stop>
			</radialGradient>
			<circle r="1.2" cy="456.3" cx="582.8" class="st33"></circle>
			<radialGradient gradientUnits="userSpaceOnUse" r="1.2485" cy="456.2514" cx="582.8201" id="SVGID_37_">
				<stop style="stop-color:#FFFFFF;stop-opacity:0" offset="0.7363"></stop>
				<stop style="stop-color:#FFFFFF;stop-opacity:0.5" offset="1"></stop>
			</radialGradient>
			<circle r="1.2" cy="456.3" cx="582.8" class="st34"></circle>
		</g>
		<g>
			<radialGradient gradientUnits="userSpaceOnUse" r="1.2446" cy="447.8467" cx="659.7532" id="SVGID_38_">
				<stop style="stop-color:#FFFFFF" offset="0"></stop>
				<stop style="stop-color:#FFFFFF;stop-opacity:0" offset="1"></stop>
			</radialGradient>
			<circle r="1.2" cy="448.2" cx="660" class="st35"></circle>
			<radialGradient gradientUnits="userSpaceOnUse" r="1.2485" cy="448.2212" cx="659.9974" id="SVGID_39_">
				<stop style="stop-color:#FFFFFF;stop-opacity:0" offset="0.7363"></stop>
				<stop style="stop-color:#FFFFFF;stop-opacity:0.5" offset="1"></stop>
			</radialGradient>
			<circle r="1.2" cy="448.2" cx="660" class="st36"></circle>
		</g>
		<g>
			<radialGradient gradientUnits="userSpaceOnUse" r="1.2446" cy="454.6284" cx="666.164" id="SVGID_40_">
				<stop style="stop-color:#FFFFFF" offset="0"></stop>
				<stop style="stop-color:#FFFFFF;stop-opacity:0" offset="1"></stop>
			</radialGradient>
			<circle r="1.2" cy="455" cx="666.4" class="st37"></circle>
			<radialGradient gradientUnits="userSpaceOnUse" r="1.2485" cy="455.003" cx="666.4081" id="SVGID_41_">
				<stop style="stop-color:#FFFFFF;stop-opacity:0" offset="0.7363"></stop>
				<stop style="stop-color:#FFFFFF;stop-opacity:0.5" offset="1"></stop>
			</radialGradient>
			<circle r="1.2" cy="455" cx="666.4" class="st38"></circle>
		</g>
		<g>
			<radialGradient gradientUnits="userSpaceOnUse" r="1.2446" cy="453.38" cx="366.3121" id="SVGID_42_">
				<stop style="stop-color:#FFFFFF" offset="0"></stop>
				<stop style="stop-color:#FFFFFF;stop-opacity:0" offset="1"></stop>
			</radialGradient>
			<circle r="1.2" cy="453.8" cx="366.6" class="st39"></circle>
			<radialGradient gradientUnits="userSpaceOnUse" r="1.2485" cy="453.7545" cx="366.5562" id="SVGID_43_">
				<stop style="stop-color:#FFFFFF;stop-opacity:0" offset="0.7363"></stop>
				<stop style="stop-color:#FFFFFF;stop-opacity:0.5" offset="1"></stop>
			</radialGradient>
			<circle r="1.2" cy="453.8" cx="366.6" class="st40"></circle>
		</g>
		<g>
			<radialGradient gradientUnits="userSpaceOnUse" r="1.2446" cy="470.5612" cx="354.8509" id="SVGID_44_">
				<stop style="stop-color:#FFFFFF" offset="0"></stop>
				<stop style="stop-color:#FFFFFF;stop-opacity:0" offset="1"></stop>
			</radialGradient>
			<circle r="1.2" cy="470.9" cx="355.1" class="st41"></circle>
			<radialGradient gradientUnits="userSpaceOnUse" r="1.2485" cy="470.9358" cx="355.095" id="SVGID_45_">
				<stop style="stop-color:#FFFFFF;stop-opacity:0" offset="0.7363"></stop>
				<stop style="stop-color:#FFFFFF;stop-opacity:0.5" offset="1"></stop>
			</radialGradient>
			<circle r="1.2" cy="470.9" cx="355.1" class="st42"></circle>
		</g>
		<g>
			<radialGradient gradientUnits="userSpaceOnUse" r="1.2446" cy="490.9253" cx="368.2634" id="SVGID_46_">
				<stop style="stop-color:#FFFFFF" offset="0"></stop>
				<stop style="stop-color:#FFFFFF;stop-opacity:0" offset="1"></stop>
			</radialGradient>
			<circle r="1.2" cy="491.3" cx="368.5" class="st43"></circle>
			<radialGradient gradientUnits="userSpaceOnUse" r="1.2485" cy="491.2999" cx="368.5075" id="SVGID_47_">
				<stop style="stop-color:#FFFFFF;stop-opacity:0" offset="0.7363"></stop>
				<stop style="stop-color:#FFFFFF;stop-opacity:0.5" offset="1"></stop>
			</radialGradient>
			<circle r="1.2" cy="491.3" cx="368.5" class="st44"></circle>
		</g>
		<g>
			<radialGradient gradientUnits="userSpaceOnUse" r="1.2446" cy="510.9886" cx="356.0993" id="SVGID_48_">
				<stop style="stop-color:#FFFFFF" offset="0"></stop>
				<stop style="stop-color:#FFFFFF;stop-opacity:0" offset="1"></stop>
			</radialGradient>
			<circle r="1.2" cy="511.4" cx="356.3" class="st45"></circle>
			<radialGradient gradientUnits="userSpaceOnUse" r="1.2485" cy="511.3632" cx="356.3434" id="SVGID_49_">
				<stop style="stop-color:#FFFFFF;stop-opacity:0" offset="0.7363"></stop>
				<stop style="stop-color:#FFFFFF;stop-opacity:0.5" offset="1"></stop>
			</radialGradient>
			<circle r="1.2" cy="511.4" cx="356.3" class="st46"></circle>
		</g>
		<g>
			<radialGradient gradientUnits="userSpaceOnUse" r="1.2446" cy="471.3171" cx="658.5048" id="SVGID_50_">
				<stop style="stop-color:#FFFFFF" offset="0"></stop>
				<stop style="stop-color:#FFFFFF;stop-opacity:0" offset="1"></stop>
			</radialGradient>
			<circle r="1.2" cy="471.7" cx="658.7" class="st47"></circle>
			<radialGradient gradientUnits="userSpaceOnUse" r="1.2485" cy="471.6917" cx="658.7489" id="SVGID_51_">
				<stop style="stop-color:#FFFFFF;stop-opacity:0" offset="0.7363"></stop>
				<stop style="stop-color:#FFFFFF;stop-opacity:0.5" offset="1"></stop>
			</radialGradient>
			<circle r="1.2" cy="471.7" cx="658.7" class="st48"></circle>
		</g>
		<g>
			<radialGradient gradientUnits="userSpaceOnUse" r="1.2446" cy="496.2271" cx="668.6609" id="SVGID_52_">
				<stop style="stop-color:#FFFFFF" offset="0"></stop>
				<stop style="stop-color:#FFFFFF;stop-opacity:0" offset="1"></stop>
			</radialGradient>
			<circle r="1.2" cy="496.6" cx="668.9" class="st49"></circle>
			<radialGradient gradientUnits="userSpaceOnUse" r="1.2485" cy="496.6017" cx="668.905" id="SVGID_53_">
				<stop style="stop-color:#FFFFFF;stop-opacity:0" offset="0.7363"></stop>
				<stop style="stop-color:#FFFFFF;stop-opacity:0.5" offset="1"></stop>
			</radialGradient>
			<circle r="1.2" cy="496.6" cx="668.9" class="st50"></circle>
		</g>
		<g>
			<radialGradient gradientUnits="userSpaceOnUse" r="1.2446" cy="497.4756" cx="583.8245" id="SVGID_54_">
				<stop style="stop-color:#FFFFFF" offset="0"></stop>
				<stop style="stop-color:#FFFFFF;stop-opacity:0" offset="1"></stop>
			</radialGradient>
			<circle r="1.2" cy="497.9" cx="584.1" class="st51"></circle>
			<radialGradient gradientUnits="userSpaceOnUse" r="1.2485" cy="497.8501" cx="584.0685" id="SVGID_55_">
				<stop style="stop-color:#FFFFFF;stop-opacity:0" offset="0.7363"></stop>
				<stop style="stop-color:#FFFFFF;stop-opacity:0.5" offset="1"></stop>
			</radialGradient>
			<circle r="1.2" cy="497.9" cx="584.1" class="st52"></circle>
		</g>
		<g>
			<radialGradient gradientUnits="userSpaceOnUse" r="1.2446" cy="475.8391" cx="574.0131" id="SVGID_56_">
				<stop style="stop-color:#FFFFFF" offset="0"></stop>
				<stop style="stop-color:#FFFFFF;stop-opacity:0" offset="1"></stop>
			</radialGradient>
			<circle r="1.2" cy="476.2" cx="574.3" class="st53"></circle>
			<radialGradient gradientUnits="userSpaceOnUse" r="1.2485" cy="476.2137" cx="574.2572" id="SVGID_57_">
				<stop style="stop-color:#FFFFFF;stop-opacity:0" offset="0.7363"></stop>
				<stop style="stop-color:#FFFFFF;stop-opacity:0.5" offset="1"></stop>
			</radialGradient>
			<circle r="1.2" cy="476.2" cx="574.3" class="st54"></circle>
		</g>
		<g>
			<radialGradient gradientUnits="userSpaceOnUse" r="3.3152" cy="694.8821" cx="582.7057" id="SVGID_58_">
				<stop style="stop-color:#FFFFFF" offset="0"></stop>
				<stop style="stop-color:#FFFFFF;stop-opacity:0" offset="1"></stop>
			</radialGradient>
			<circle r="3.3" cy="695.9" cx="583.4" class="st55"></circle>
			<radialGradient gradientUnits="userSpaceOnUse" r="3.3254" cy="695.8797" cx="583.356" id="SVGID_59_">
				<stop style="stop-color:#FFFFFF;stop-opacity:0" offset="0.7363"></stop>
				<stop style="stop-color:#FFFFFF;stop-opacity:0.5" offset="1"></stop>
			</radialGradient>
			<circle r="3.3" cy="695.9" cx="583.4" class="st56"></circle>
		</g>
		<g>
			<radialGradient gradientUnits="userSpaceOnUse" r="1.6576" cy="678.9201" cx="601.3206" id="SVGID_60_">
				<stop style="stop-color:#FFFFFF" offset="0"></stop>
				<stop style="stop-color:#FFFFFF;stop-opacity:0" offset="1"></stop>
			</radialGradient>
			<circle r="1.7" cy="679.4" cx="601.6" class="st57"></circle>
			<radialGradient gradientUnits="userSpaceOnUse" r="1.6627" cy="679.4189" cx="601.6457" id="SVGID_61_">
				<stop style="stop-color:#FFFFFF;stop-opacity:0" offset="0.7363"></stop>
				<stop style="stop-color:#FFFFFF;stop-opacity:0.5" offset="1"></stop>
			</radialGradient>
			<circle r="1.7" cy="679.4" cx="601.6" class="st58"></circle>
		</g>
		<g>
			<radialGradient gradientUnits="userSpaceOnUse" r="1.6576" cy="668.1125" cx="611.343" id="SVGID_62_">
				<stop style="stop-color:#FFFFFF" offset="0"></stop>
				<stop style="stop-color:#FFFFFF;stop-opacity:0" offset="1"></stop>
			</radialGradient>
			<circle r="1.7" cy="668.6" cx="611.7" class="st59"></circle>
			<radialGradient gradientUnits="userSpaceOnUse" r="1.6627" cy="668.6113" cx="611.668" id="SVGID_63_">
				<stop style="stop-color:#FFFFFF;stop-opacity:0" offset="0.7363"></stop>
				<stop style="stop-color:#FFFFFF;stop-opacity:0.5" offset="1"></stop>
			</radialGradient>
			<circle r="1.7" cy="668.6" cx="611.7" class="st60"></circle>
		</g>
		<g>
			<radialGradient gradientUnits="userSpaceOnUse" r="2.2378" cy="654.5532" cx="591.7755" id="SVGID_64_">
				<stop style="stop-color:#FFFFFF" offset="0"></stop>
				<stop style="stop-color:#FFFFFF;stop-opacity:0" offset="1"></stop>
			</radialGradient>
			<circle r="2.2" cy="655.2" cx="592.2" class="st61"></circle>
			<radialGradient gradientUnits="userSpaceOnUse" r="2.2447" cy="655.2266" cx="592.2144" id="SVGID_65_">
				<stop style="stop-color:#FFFFFF;stop-opacity:0" offset="0.7363"></stop>
				<stop style="stop-color:#FFFFFF;stop-opacity:0.5" offset="1"></stop>
			</radialGradient>
			<circle r="2.2" cy="655.2" cx="592.2" class="st62"></circle>
		</g>
	</g>
</g>
<g>
	<path d="M473,513.8h-50l-2,13.9h50l-6.7,48.8H398c-2.6,0-4.6-0.9-6.1-2.6c-1.5-1.7-2.1-3.8-1.7-6.4l9.4-66.1h75.1
		L473,513.8z M419.2,540.2l-3.4,23.8h25.1l3.3-23.8H419.2z" class="st63"></path>
	<path d="M495.8,510.3c0.4-2.6,1.5-4.7,3.5-6.4c2-1.7,4.2-2.6,6.8-2.6h66.1l-9.2,66.1c-0.4,2.6-1.6,4.7-3.6,6.4
		c-1.9,1.7-4.2,2.6-6.7,2.6h-66.1L495.8,510.3z M520.5,513.8l-7.1,50.2h24.9l7.1-50.2H520.5z" class="st63"></path>
	<path d="M629.4,575.3h-20.3l2.3-16.5l-15.6,17.9h-11.6l21.6-24.8h-19.5l2.5-17.5h20.3l-2.3,16.5l14.2-16.2l-1.5-1.7
		h14.6l-21.6,24.8h19.5L629.4,575.3z M595.7,546.2h2.9l0.8-5.8h-2.9L595.7,546.2z M622.3,563.6h-2.9l-0.8,5.8h2.9L622.3,563.6z" class="st63"></path>
</g>
<g>
	<path d="M416.3,880.1c0.3,1,0.9,2.5,1.4,3.1c-10.3,7.5-11.8,8.6-12.7,9.7c-0.4-0.9-1.5-2.5-2.2-3.3
		c1.1-0.7,2.9-2.6,2.9-5.2v-21.5h-8.5v-3.8h12.2v25.7L416.3,880.1z M410.9,853.3c-1.8-2.5-5.7-6.4-8.8-9.1l2.5-2.4
		c3.1,2.6,7.1,6.3,8.9,8.7L410.9,853.3z M427.3,849.4c0,5.4-1.9,11.7-10.3,15.8c-0.4-0.8-1.8-2.3-2.5-2.9c7.8-3.6,9.2-8.6,9.2-13
		v-6.5h18.1v13.7c0,1.6,0.2,2.2,1.1,2.2h4.2c0.8,0,2-0.1,2.7-0.2c0.1,0.9,0.2,2.5,0.4,3.3c-0.7,0.2-1.9,0.3-3,0.3h-4.5
		c-3.8,0-4.6-1.5-4.6-5.6v-10h-10.7V849.4z M447.1,867.5c-2.3,7.2-6.4,12.9-11.4,17.2c4.3,2.9,9.4,5,15.1,6.2
		c-0.9,0.9-1.9,2.4-2.4,3.5c-6-1.5-11.4-3.9-15.8-7.3c-4.7,3.3-10.1,5.6-15.7,7.2c-0.3-1.1-1.2-2.6-1.9-3.4
		c5.2-1.2,10.2-3.3,14.6-6.2c-4.3-3.9-7.7-8.7-10.1-14.3l0.5-0.2h-2.8v-3.7H444l0.7-0.2L447.1,867.5z M423.1,870.2
		c2.2,4.7,5.4,8.9,9.5,12.2c4.1-3.2,7.3-7.3,9.6-12.2H423.1z" class="st63"></path>
	<path d="M500.3,847.2c-3.2,4.8-8,8.9-13.7,12.1c6.9,2.9,15,4.9,23.4,5.8c-0.8,0.9-1.8,2.5-2.3,3.6
		c-9-1.2-17.8-3.6-25.1-7.1c-8,3.9-17.1,6.5-25.5,8c-0.4-1.1-1.1-2.8-1.8-3.7c7.6-1.1,16-3.3,23.2-6.5c-3.3-1.9-6.3-4.3-8.8-6.9
		c-2.6,2.2-5.6,4.2-9,6c-0.6-0.9-1.8-2.2-2.7-2.8c8.4-4,14.1-10,17-15.1l4.1,0.9c-0.8,1.4-1.9,2.9-3.1,4.3H497l0.7-0.2L500.3,847.2z
		 M463.6,868.7h37.9V894h-4.1v-1.8h-29.8v1.9h-4V868.7z M467.6,872.2v6.4h13v-6.4H467.6z M480.6,888.8v-7h-13v7H480.6z M472.4,849.9
		c2.6,2.9,6,5.5,10.2,7.5c4.5-2.3,8.4-5,11.3-8.2h-20.8L472.4,849.9z M497.4,872.2h-12.9v6.4h12.9V872.2z M497.4,888.8v-7h-12.9v7
		H497.4z" class="st63"></path>
	<path d="M527.4,858.5c-2.9,3.6-6.9,7-10.6,9c-0.5-1-1.4-2.2-2.2-3c4.2-1.9,8.7-5.6,11.6-9.6h-11v-3.3h12.3v-11h3.6v11
		h12.2v3.3h-11.5c2.9,1.7,8.3,5.3,9.8,6.3l-2.2,2.9c-1.5-1.4-5.4-4.4-8.3-6.5v8.4h-3.6V858.5z M536.4,889.8
		c-1.4-1.1-3.2-2.2-5.2-3.3c-4.2,3.5-9.3,5.8-14.6,7.2c-0.4-0.9-1.2-2.3-1.9-3c4.9-1.1,9.5-3.1,13.3-5.9c-3-1.5-6.2-3.1-9.1-4.1
		c1.2-1.8,2.6-4,3.8-6.4h-6.4v-3.3h8c0.6-1.4,1.2-2.6,1.6-3.8l3.5,0.6c-0.4,1.1-0.8,2.1-1.4,3.2h10l0.6-0.1l2.2,0.9
		c-1.5,5-4,9.2-7.1,12.4c1.9,1.1,3.8,2.2,5.1,3.1L536.4,889.8z M521.2,851.1c-0.6-2.1-2.1-5.3-3.8-7.7l2.8-1.2
		c1.7,2.3,3.3,5.5,3.9,7.6L521.2,851.1z M526.4,874.2c-0.8,1.8-1.8,3.5-2.8,5c2.3,1,4.8,2.1,7,3.2c2.4-2.2,4.4-5,5.7-8.2H526.4z
		 M541.5,843.4c-1.7,2.7-3.6,5.6-5.2,7.6l-2.5-1.2c1.5-2.1,3.5-5.5,4.5-7.9L541.5,843.4z M563.3,855.7c-1.4,8.9-3.3,16.2-6.5,22.2
		c3,5.6,6.9,10,11.9,12.6c-0.9,0.7-2,2.1-2.6,3.1c-4.7-2.8-8.4-6.9-11.3-12.1c-3.5,5.3-8,9.5-14.1,12.7c-0.4-0.8-1.5-2.4-2.2-3.1
		c6.5-3.2,11.1-7.6,14.4-13.3c-2.3-4.8-4-10.3-5.3-16.3c-1.2,3.1-2.6,5.8-4.2,8.1c-0.6-0.6-2.1-1.8-2.9-2.3
		c4.5-6.2,7.1-15.9,8.6-26.1l3.5,0.5c-0.5,3.5-1.2,7-2.1,10.3h16.8v3.6H563.3z M549.7,855.7c1.2,6.6,2.9,12.9,5.2,18.3
		c2.2-5.2,3.7-11.2,4.7-18.3H549.7z" class="st63"></path>
	<path d="M591.3,869.9c-2.2,0.8-4.6,1.6-6.8,2.3v17c0,2.3-0.5,3.3-1.9,3.9c-1.3,0.6-3.5,0.8-7.2,0.7
		c-0.2-0.9-0.6-2.5-1.2-3.6c2.6,0.1,4.9,0.1,5.6,0c0.8,0,1.1-0.2,1.1-1.1v-15.8l-7.2,2.3l-1.1-3.8c2.2-0.6,5.1-1.5,8.2-2.5v-13.2
		h-7.5v-3.6h7.5v-11.9h3.6v11.9h6.8v3.6h-6.8v12.1l6.3-2L591.3,869.9z M613.4,868.2v7.5h11.4V894h-3.6v-2.3h-18.7v2.5H599v-18.5
		h10.7v-7.5h-12c-0.5,8.7-2.1,18.7-7.1,25.9c-0.6-0.7-2.3-1.8-3.1-2.2c6-9,6.6-21.8,6.6-31.1v-17.6h30.6V858h-11.2v6.7h13.3v3.5
		H613.4z M609.7,864.7V858h-11.9v2.8c0,1.2,0,2.5-0.1,3.9H609.7z M597.8,846.7v7.9h23.1v-7.9H597.8z M621.2,879.1h-18.7v9.4h18.7
		V879.1z" class="st63"></path>
</g>
<g>
</g>
<g>
</g>
<g>
</g>
<g>
</g>
<g>
</g>
<g>
</g>
<g>
</g>
<g>
</g>
<g>
</g>
<g>
</g>
<g>
</g>
<g>
</g>
<g>
</g>
<g>
</g>
<g>
</g>
</svg>
