<svg xmlns="http://www.w3.org/2000/svg" fill="none" viewBox="0 0 1024 1024" height="1024" width="1024">
<path fill="url(#paint0_linear_1507_110501)" d="M569.676 335.514L636.331 339.861L631.916 407.554L565.261 403.206L569.676 335.514Z"></path>
<path fill="url(#paint1_linear_1507_110501)" d="M581.177 357.682C544.883 351.072 521.645 311.76 529.273 269.875C536.901 227.99 572.507 199.394 608.801 206.004C645.095 212.614 668.334 251.927 660.706 293.812C653.077 335.696 617.471 364.292 581.177 357.682Z"></path>
<path fill="url(#paint2_linear_1507_110501)" d="M615.813 293.319C615.813 293.319 615.812 293.319 615.812 293.32C612.488 290.47 608.398 287.236 603.854 283.673C584.418 269.734 563.061 261.734 549.042 256.482C540.693 253.355 534.947 251.202 533.76 249.351C531.188 245.342 536.24 210.861 559.552 193.894C564.053 189.888 569.316 186.399 575.049 183.32C645.776 152.473 689.309 206.063 695.218 213.337L695.218 213.337C695.583 213.787 695.805 214.059 695.88 214.124C696.006 214.913 696.129 215.696 696.247 216.475C700.42 221.281 703.121 225.272 704.375 227.124C704.806 227.762 705.066 228.146 705.156 228.224C714.908 294.746 694.616 317.365 669.852 334.656C652.23 346.16 638.928 342.61 636.625 341.996L636.625 341.995C636.347 341.921 636.229 341.89 636.284 341.933C636.284 341.933 625.683 336.4 624.378 326.095C632.565 330.405 654.995 320.509 650.005 295.252C640.512 275.896 625.396 287.419 618.532 292.651C617.811 293.201 617.182 293.681 616.659 294.049C616.418 293.778 616.172 293.508 615.921 293.24C615.906 293.251 615.891 293.262 615.876 293.273C615.859 293.286 615.842 293.298 615.825 293.31C615.823 293.314 615.82 293.319 615.818 293.323C615.816 293.322 615.815 293.32 615.813 293.319Z" clip-rule="evenodd" fill-rule="evenodd"></path>
<rect fill="#FEE4C3" transform="matrix(-0.997157 -0.0753565 -0.0753565 0.997157 453.738 809.967)" height="37.7397" width="28.3048"></rect>
<path fill="#7B7B7B" d="M385.191 860.99C386.557 873.945 402.322 873.415 423.05 871.229C443.778 869.043 465.931 866.707 469.138 852.138C468.988 852.776 472.84 842.26 457.282 829.67C457.282 829.67 444.198 840.537 424.442 833.133C406.513 838.665 384.174 851.34 385.191 860.99Z"></path>
<rect fill="#FEE4C3" transform="matrix(-0.997483 -0.0709073 -0.0709073 0.997483 395.749 777.533)" height="37.7397" width="28.3048"></rect>
<path fill="#7B7B7B" d="M322.467 833.38C324.004 846.316 339.761 845.578 360.458 843.118C381.155 840.659 403.275 838.031 406.29 823.42C406.148 824.06 409.861 813.495 394.138 801.111C394.138 801.111 381.199 812.15 361.347 805.007C343.492 810.776 321.322 823.745 322.467 833.38Z"></path>
<path fill="url(#paint3_linear_1507_110501)" d="M566.293 372.537C566.293 372.537 532.126 379.197 514.967 399.085C486.691 431.87 463.615 492.061 463.615 492.061C463.615 492.061 459.447 510.843 440.338 535.32C419.548 561.945 413.174 564.653 413.174 564.653C413.174 564.653 442.087 581.027 435.685 581.314C427.873 581.668 394.685 603.314 394.685 603.314L478.185 631.814C478.185 631.814 411 623.674 448.386 613.946C476.312 606.672 491.582 577.6 491.582 577.6L566.293 372.537Z" clip-rule="evenodd" fill-rule="evenodd"></path>
<path fill="url(#paint4_linear_1507_110501)" d="M565.84 368.328C587.249 402.239 618.777 386.206 631.864 373.951C633.419 374.196 644.066 381.402 656.168 401.637C675.073 433.245 692.5 577.6 670.274 686C597.787 680.95 421.488 689.177 431.891 671.727C444.895 649.915 478.49 497.732 490.507 451.905C495.29 433.666 526.326 376.423 565.84 368.328Z"></path>
<path fill="#DCDCDC" d="M664.5 685C664.5 685 651.584 770.991 611.841 778.258C611.841 778.258 544.369 798.746 501.779 707.714L465.397 815.398C464.845 817.022 463.831 818.402 462.501 819.338C461.171 820.274 459.593 820.719 457.995 820.608C456.066 820.468 453.691 820.262 451.034 819.919C444.214 819.109 437.46 817.648 430.851 815.551C423.791 813.452 417.141 809.893 411.267 805.07C409.702 803.718 408.257 802.208 406.952 800.56C406.952 800.56 405.086 800.039 402.057 799.107C399.926 798.424 397.14 797.581 394.063 796.594C387.935 794.595 380.589 792.079 374.188 789.523C368.933 787.878 363.979 785.2 359.574 781.623C354.243 774.869 329.935 499.128 411.335 481.884C411.335 481.884 430.856 479.524 447.83 508.303C448.052 508.672 448.283 509.062 448.508 509.453C449.542 509.311 450.566 509.105 451.575 508.836C456.036 507.655 461.56 505.389 461.56 505.389C461.56 505.389 491.681 474.62 516.394 511.094C541.107 547.567 571.066 669.132 576.684 678.314L664.5 685Z"></path>
<path fill="#D5D5D5" d="M455 508C452.216 526.204 416.281 782.401 411.518 805.163C409.824 803.817 408.263 802.311 406.855 800.664C406.855 800.664 404.824 800.159 401.528 799.25L450.5 509.501L455 508Z"></path>
<path fill="#FB955B" d="M555.496 371.764C555.496 371.764 560.89 367.839 565.55 368.574C586.693 397.634 617.875 384.673 631.523 374.204C632.038 373.792 636.183 374.936 640.108 380.33C593.223 411.143 564.164 387.458 555.496 371.764Z"></path>
<path fill="url(#paint5_linear_1507_110501)" d="M434.21 565.59C429.429 575.003 419.119 571.59 403.252 565.379C387.385 559.169 371.678 550.091 376.137 538.698C380.596 527.306 399.727 523.12 415.595 529.33C453.377 523.26 467.265 561.102 434.21 565.59Z"></path>
<path fill="url(#paint6_linear_1507_110501)" d="M551.685 368.316C520 341 445.378 392.252 401.684 419.817C379.128 434.046 298.204 501.658 318.684 528.816C335.069 550.543 358.184 559.816 398.684 563.315L417.684 528.816C394.198 509.733 394.296 516.85 380.603 506.051C383.095 504.038 390.691 486.03 412.185 481.816C435.685 483.316 584.685 401.317 551.685 368.316Z"></path>
<path fill="url(#paint7_linear_1507_110501)" d="M445.609 543.947C450.096 534.39 460.506 537.481 476.559 543.195C492.611 548.909 508.593 557.495 504.49 569.021C500.388 580.546 481.395 585.325 465.343 579.611C427.767 586.852 412.709 549.461 445.609 543.947Z"></path>
<path fill="url(#paint8_linear_1507_110501)" d="M692.357 442.487C692.357 391.5 652.96 385.983 640.185 381.315C634.185 382.814 628.386 387.315 623.685 393.314C598.51 425.439 569.992 517.746 555 546.5C536.832 541.552 500.109 541.991 470.396 542.118L458.181 584.542C492.559 590.999 544.795 602.889 572 603.5C606.006 604.263 692.357 469.156 692.357 442.487Z"></path>
<path fill="#585449" d="M534.231 231.859C568.722 250.687 580.9 257.044 624.053 282.798C689.999 322.153 695.719 320.462 709.301 295.497C732.005 245.439 717.17 195.404 671.875 174.86C626.579 154.315 557.859 161.268 534.231 231.859Z"></path>
<ellipse fill="#585449" transform="matrix(-0.91306 -0.407826 -0.407826 0.91306 559.412 223.64)" ry="18.526" rx="71.5308"></ellipse>
<ellipse fill="#FFE9CD" transform="matrix(0.824536 0.565809 0.565809 -0.824536 632.287 304.784)" ry="20.2558" rx="18.2395"></ellipse>
<defs>
<linearGradient gradientUnits="userSpaceOnUse" y2="405.38" x2="598.588" y1="346.436" x1="602.433" id="paint0_linear_1507_110501">
<stop stop-color="#FFCDA5"></stop>
<stop stop-color="#FFE8D1" offset="1"></stop>
</linearGradient>
<linearGradient gradientUnits="userSpaceOnUse" y2="337.127" x2="516.094" y1="207.844" x1="618.903" id="paint1_linear_1507_110501">
<stop stop-color="#FFF2DF"></stop>
<stop stop-color="#FEE0BC" offset="1"></stop>
</linearGradient>
<linearGradient gradientUnits="userSpaceOnUse" y2="333.648" x2="674.165" y1="214.438" x1="571.676" id="paint2_linear_1507_110501">
<stop stop-color="#777CA7"></stop>
<stop stop-color="#636681" offset="1"></stop>
</linearGradient>
<linearGradient gradientUnits="userSpaceOnUse" y2="713.852" x2="558.002" y1="341.673" x1="444.902" id="paint3_linear_1507_110501">
<stop stop-color="#FFE194"></stop>
<stop stop-color="#FFBF84" offset="1"></stop>
</linearGradient>
<linearGradient gradientUnits="userSpaceOnUse" y2="713.852" x2="558.002" y1="341.673" x1="444.902" id="paint4_linear_1507_110501">
<stop stop-color="#FFE194"></stop>
<stop stop-color="#FFBF84" offset="1"></stop>
</linearGradient>
<linearGradient gradientUnits="userSpaceOnUse" y2="566.549" x2="406.24" y1="525.231" x1="422.411" id="paint5_linear_1507_110501">
<stop stop-color="#FEE4C3"></stop>
<stop stop-color="#FFD1AC" offset="1"></stop>
</linearGradient>
<linearGradient gradientUnits="userSpaceOnUse" y2="603.617" x2="477.787" y1="324.732" x1="547.266" id="paint6_linear_1507_110501">
<stop stop-color="#FFE194"></stop>
<stop stop-color="#FFBF84" offset="1"></stop>
</linearGradient>
<linearGradient gradientUnits="userSpaceOnUse" y2="542.119" x2="473.536" y1="583.92" x1="458.657" id="paint7_linear_1507_110501">
<stop stop-color="#FEE4C3"></stop>
<stop stop-color="#FFD1AC" offset="1"></stop>
</linearGradient>
<linearGradient gradientUnits="userSpaceOnUse" y2="623.914" x2="567.448" y1="363.406" x1="660.129" id="paint8_linear_1507_110501">
<stop stop-color="#FFE194"></stop>
<stop stop-color="#FFBF84" offset="1"></stop>
</linearGradient>
</defs>
</svg>
