<svg xmlns:xlink="http://www.w3.org/1999/xlink" xmlns="http://www.w3.org/2000/svg" fill="none" viewBox="0 0 1024 2224.74" height="2224.740234" width="1024.000000">
	<desc>
			Created with Pixso.
	</desc>
	<path fill="#C4C4C4" fill-rule="evenodd" d="M276.013 2155.8C298.46 2134.95 382.369 2104.49 421.917 2088.46L527.738 2033.94L548.581 2131.75L548.581 2173.43C548.581 2192.03 533.507 2207.1 514.911 2207.1L276.013 2207.1C265.325 2188.94 257.121 2173.34 276.013 2155.8Z"></path>
	<path fill="#EBBAAA" fill-rule="evenodd" d="M276.013 2155.8C298.46 2134.95 382.369 2104.49 421.917 2088.46L527.738 2033.94L548.581 2131.75L548.581 2173.43C548.581 2192.03 533.507 2207.1 514.911 2207.1L276.013 2207.1C265.325 2188.94 257.121 2173.34 276.013 2155.8Z"></path>
	<path fill="#2E2622" fill-rule="evenodd" d="M239.137 2224.74C239.137 2207.02 253.493 2192.67 271.204 2192.67L554.995 2192.67L561.408 2224.74L239.137 2224.74Z"></path>
	<path fill="#2E2622" fill-rule="evenodd" d="M312.598 2153.9L312.581 2153.94L312.505 2154.06C312.437 2154.19 312.331 2154.37 312.194 2154.61C311.922 2155.07 311.521 2155.76 311.03 2156.63C310.044 2158.36 308.701 2160.75 307.267 2163.43C304.242 2169.09 301.359 2174.97 300.166 2178.55C299.395 2180.86 299.31 2183.52 299.579 2185.95C299.708 2187.11 299.9 2188.06 300.044 2188.66C300.115 2188.97 300.173 2189.16 300.198 2189.26C300.203 2189.27 300.206 2189.29 300.209 2189.29C302.499 2196.39 298.645 2204.04 291.547 2206.4C284.407 2208.79 276.688 2204.92 274.309 2197.79L287.133 2193.51C274.309 2197.79 274.307 2197.79 274.306 2197.77L274.303 2197.77L274.298 2197.76L274.287 2197.72L274.259 2197.63C274.239 2197.58 274.216 2197.5 274.192 2197.42C274.142 2197.26 274.081 2197.07 274.012 2196.83C273.876 2196.36 273.708 2195.74 273.528 2194.98C273.172 2193.47 272.762 2191.42 272.489 2188.97C271.958 2184.19 271.872 2177.23 274.309 2169.92C276.323 2163.88 280.253 2156.13 283.241 2150.57C284.812 2147.64 286.276 2145.02 287.344 2143.15C287.88 2142.2 288.321 2141.43 288.628 2140.9C288.784 2140.64 288.906 2140.44 288.991 2140.29L289.092 2140.12L289.132 2140.05C289.132 2140.05 289.134 2140.05 300.48 2146.75L289.134 2140.05C292.962 2133.56 301.319 2131.41 307.8 2135.24C314.279 2139.07 316.427 2147.43 312.598 2153.9Z"></path>
	<path fill="#2E2622" fill-rule="evenodd" d="M301.338 2203.83C301.342 2203.82 301.343 2203.82 286.435 2200.69C271.528 2197.56 271.531 2197.56 271.531 2197.55L271.536 2197.53L271.544 2197.48L271.564 2197.39C271.581 2197.32 271.6 2197.24 271.621 2197.15C271.664 2196.95 271.722 2196.71 271.792 2196.42C271.933 2195.86 272.134 2195.11 272.401 2194.21C272.937 2192.42 273.753 2189.96 274.943 2187.09C277.308 2181.39 281.225 2173.79 287.499 2166.15C300.426 2150.44 322.479 2135.75 357.784 2135.75C392.809 2135.75 417.571 2150.17 433.382 2164.58C441.224 2171.73 446.875 2178.88 450.598 2184.29C452.466 2187 453.867 2189.31 454.833 2190.99C455.317 2191.84 455.692 2192.53 455.963 2193.06C456.099 2193.31 456.21 2193.52 456.293 2193.7C456.337 2193.78 456.372 2193.86 456.402 2193.91L456.441 2193.99L456.458 2194.02L456.465 2194.04C456.468 2194.05 456.471 2194.05 442.761 2200.69C429.049 2207.33 429.052 2207.33 429.056 2207.34L429.062 2207.34L429.072 2207.38L429.085 2207.39L429.086 2207.39C429.077 2207.38 429.043 2207.31 428.989 2207.22C428.878 2206.99 428.677 2206.62 428.384 2206.11C427.796 2205.08 426.842 2203.51 425.503 2201.56C422.814 2197.64 418.645 2192.37 412.857 2187.09C401.413 2176.66 383.685 2166.22 357.784 2166.22C332.161 2166.22 318.541 2176.38 311.026 2185.52C307.077 2190.32 304.582 2195.14 303.089 2198.75C302.349 2200.55 301.874 2201.97 301.603 2202.89C301.467 2203.35 301.383 2203.67 301.342 2203.83C301.323 2203.91 301.313 2203.96 301.313 2203.96L301.321 2203.91L301.331 2203.88L301.335 2203.85L301.338 2203.83Z"></path>
	<path fill="#DCB1A3" fill-rule="evenodd" d="M287.564 2175.79C285.382 2162.67 294.232 2150.3 307.333 2148.1L336.194 2143.29C349.296 2141.11 361.687 2149.96 363.87 2163.06C366.054 2176.17 357.204 2188.55 344.101 2190.75L315.241 2195.56C302.14 2197.74 289.748 2188.89 287.564 2175.79Z"></path>
	<path fill="#C4C4C4" fill-rule="evenodd" d="M904.523 2155.8C882.076 2134.95 798.169 2104.49 758.619 2088.46L652.799 2033.94L631.955 2131.75L631.955 2173.43C631.955 2192.03 647.03 2207.1 665.625 2207.1L904.523 2207.1C915.212 2188.94 923.415 2173.34 904.523 2155.8Z"></path>
	<path fill="#EBBAAA" fill-rule="evenodd" d="M904.523 2155.8C882.076 2134.95 798.169 2104.49 758.619 2088.46L652.799 2033.94L631.955 2131.75L631.955 2173.43C631.955 2192.03 647.03 2207.1 665.625 2207.1L904.523 2207.1C915.212 2188.94 923.415 2173.34 904.523 2155.8Z"></path>
	<path fill="#2E2622" fill-rule="evenodd" d="M941.4 2224.74C941.4 2207.02 927.044 2192.67 909.333 2192.67L625.542 2192.67L619.128 2224.74L941.4 2224.74Z"></path>
	<path fill="#2E2622" fill-rule="evenodd" d="M867.939 2153.9L867.958 2153.94L868.033 2154.06C868.103 2154.19 868.207 2154.37 868.343 2154.61C868.617 2155.07 869.016 2155.76 869.507 2156.63C870.493 2158.36 871.837 2160.75 873.27 2163.43C876.295 2169.09 879.178 2174.97 880.371 2178.55C881.142 2180.86 881.227 2183.52 880.958 2185.95C880.83 2187.11 880.639 2188.06 880.493 2188.66C880.423 2188.97 880.365 2189.16 880.339 2189.26C880.334 2189.27 880.331 2189.29 880.328 2189.29C878.038 2196.39 881.894 2204.04 888.991 2206.4C896.13 2208.79 903.849 2204.92 906.23 2197.79L893.406 2193.51C906.23 2197.79 906.231 2197.79 906.231 2197.77L906.235 2197.77L906.24 2197.76L906.252 2197.72L906.28 2197.63C906.299 2197.58 906.321 2197.5 906.347 2197.42C906.397 2197.26 906.456 2197.07 906.525 2196.83C906.661 2196.36 906.83 2195.74 907.009 2194.98C907.365 2193.47 907.775 2191.42 908.048 2188.97C908.579 2184.19 908.665 2177.23 906.23 2169.92C904.216 2163.88 900.285 2156.13 897.298 2150.57C895.725 2147.64 894.262 2145.02 893.193 2143.15C892.658 2142.2 892.218 2141.43 891.909 2140.9C891.753 2140.64 891.631 2140.44 891.546 2140.29L891.447 2140.12L891.405 2140.05C891.405 2140.05 891.405 2140.05 880.057 2146.75L891.405 2140.05C887.577 2133.56 879.219 2131.41 872.739 2135.24C866.259 2139.07 864.11 2147.43 867.939 2153.9Z"></path>
	<path fill="#2E2622" fill-rule="evenodd" d="M879.199 2203.83C879.197 2203.82 879.196 2203.82 894.104 2200.69C909.01 2197.56 909.007 2197.56 909.007 2197.55L909.003 2197.53L908.994 2197.48L908.973 2197.39C908.957 2197.32 908.939 2197.24 908.917 2197.15C908.874 2196.95 908.817 2196.71 908.745 2196.42C908.604 2195.86 908.405 2195.11 908.136 2194.21C907.601 2192.42 906.784 2189.96 905.596 2187.09C903.23 2181.39 899.313 2173.79 893.039 2166.15C880.111 2150.44 858.059 2135.75 822.755 2135.75C787.728 2135.75 762.968 2150.17 747.156 2164.58C739.314 2171.73 733.662 2178.88 729.939 2184.29C728.071 2187 726.67 2189.31 725.705 2190.99C725.222 2191.84 724.845 2192.53 724.574 2193.06C724.438 2193.31 724.329 2193.52 724.244 2193.7C724.202 2193.78 724.166 2193.86 724.136 2193.91L724.096 2193.99L724.081 2194.02L724.072 2194.04C724.069 2194.05 724.066 2194.05 737.778 2200.69C751.488 2207.33 751.485 2207.33 751.482 2207.34L751.477 2207.34L751.467 2207.38L751.453 2207.39L751.451 2207.39C751.462 2207.38 751.494 2207.31 751.549 2207.22C751.659 2206.99 751.862 2206.62 752.155 2206.11C752.742 2205.08 753.696 2203.51 755.035 2201.56C757.725 2197.64 761.894 2192.37 767.68 2187.09C779.126 2176.66 796.853 2166.22 822.755 2166.22C848.376 2166.22 861.998 2176.38 869.513 2185.52C873.46 2190.32 875.957 2195.14 877.45 2198.75C878.189 2200.55 878.663 2201.97 878.936 2202.89C879.071 2203.35 879.156 2203.67 879.196 2203.83C879.217 2203.91 879.226 2203.96 879.225 2203.96L879.217 2203.91L879.208 2203.88L879.202 2203.85L879.199 2203.83Z"></path>
	<path fill="#DCB1A3" fill-rule="evenodd" d="M892.972 2175.79C895.156 2162.67 886.305 2150.3 873.203 2148.1L844.343 2143.29C831.24 2141.11 818.85 2149.96 816.666 2163.06C814.482 2176.17 823.333 2188.55 836.435 2190.75L865.295 2195.56C878.397 2197.74 890.788 2188.89 892.972 2175.79Z"></path>
	<path fill="#EBBAAA" fill-rule="evenodd" d="M685.602 1539.82C718.475 1533.02 750.637 1554.16 757.438 1587.03C768.575 1640.85 775.12 1739.3 775.947 1839.89C776.778 1941.14 771.881 2052.09 757.76 2131.52C751.886 2164.57 720.329 2186.6 687.278 2180.73C654.226 2174.84 632.196 2143.29 638.073 2110.25C650.236 2041.81 655.196 1939.63 654.385 1840.9C653.569 1741.51 646.971 1653.12 638.395 1611.65C631.594 1578.78 652.729 1546.62 685.602 1539.82Z"></path>
	<path fill="#EBBAAA" fill-rule="evenodd" d="M458.046 1537.88C425.011 1531.92 393.396 1553.87 387.434 1586.9C370.709 1679.56 375.888 1791.97 387.076 1891.53C398.391 1992.24 416.488 2084.93 428.183 2140.07C435.148 2172.9 467.417 2193.88 500.254 2186.9C533.093 2179.94 554.067 2147.67 547.101 2114.83C535.797 2061.54 518.574 1973.14 507.882 1877.97C497.061 1781.66 493.543 1683.4 507.065 1608.5C513.028 1575.46 491.083 1543.85 458.046 1537.88Z"></path>
	<path fill="#928056" fill-rule="evenodd" d="M326.309 1504.43L573.914 1504.43L556.637 2030.32L293.832 1998.16L326.309 1504.43Z"></path>
	<path fill="#89754A" fill-rule="evenodd" d="M287.115 2025.93L290.322 1990.65L561.286 2011.5L558.079 2046.77L287.115 2025.93Z"></path>
	<path fill="#928056" fill-rule="evenodd" d="M573.214 1625.07C676.26 1625.07 759.796 1585.5 759.796 1536.69C759.796 1487.88 676.26 1448.31 573.214 1448.31C470.167 1448.31 386.631 1487.88 386.631 1536.69C386.631 1585.5 470.167 1625.07 573.214 1625.07Z"></path>
	<path fill="#928056" fill-rule="evenodd" d="M564.853 1504.43L820.36 1504.43L848.974 1988.69L608.469 2027.12L564.853 1504.43Z"></path>
	<path fill="#89754A" fill-rule="evenodd" d="M854.819 2020.56L853.216 1986.11L604.576 2006.69L607.783 2041.96L854.819 2020.56Z"></path>
	<path fill="#EBBAAA" fill-rule="evenodd" d="M839.163 961.08C868.555 943.817 906.376 953.65 923.639 983.042C926.464 987.853 929.336 992.715 932.232 997.618C947.957 1024.25 964.375 1052.05 977.75 1078.81C993.62 1110.56 1007.94 1145.98 1012.33 1183.21C1016.93 1222.32 1010.42 1262.42 986.607 1300.48C963.725 1337.04 927.649 1367.28 880.939 1393.51C851.218 1410.2 813.594 1399.64 796.902 1369.92C780.209 1340.2 790.771 1302.57 820.492 1285.88C856.57 1265.62 873.809 1248.03 881.965 1234.99C889.192 1223.45 891.443 1212.17 889.733 1197.65C887.803 1181.26 880.734 1160.81 867.335 1134C856.062 1111.45 842.244 1088.03 826.47 1061.29C823.45 1056.18 820.359 1050.94 817.2 1045.56C799.937 1016.17 809.77 978.345 839.163 961.08Z"></path>
	<path fill="#EBBAAA" fill-rule="evenodd" d="M410.515 824.191C441.923 841.451 453.391 880.905 436.131 912.313C421.36 939.191 404.763 965.194 389.173 989.619C384.799 996.472 380.505 1003.2 376.352 1009.79C356.774 1040.85 338.414 1071.68 322.254 1107.16C290.551 1176.77 273.846 1188.75 273.846 1336.54C273.846 1372.37 244.795 1401.42 208.957 1401.42C173.119 1401.42 144.067 1372.37 144.067 1336.54C144.067 1172.19 163.966 1141.6 204.147 1053.37C223.927 1009.94 245.927 973.325 266.56 940.589C271.612 932.576 276.488 924.931 281.207 917.533C296.345 893.801 309.871 872.599 322.395 849.81C339.653 818.402 379.107 806.933 410.515 824.191Z"></path>
	<path fill="#3C4255" fill-rule="evenodd" d="M328.41 807.844C392.706 746.723 496.44 757.709 546.508 830.938C593.197 899.229 572.887 992.725 502.073 1035.49L313.869 1149.14L131.003 995.507L328.41 807.844Z"></path>
	<path fill="#3C4255" fill-rule="evenodd" d="M843.699 817.586C784.977 751.094 671.609 747.571 615.35 816.159C562.885 880.119 584.042 980.455 650.859 1029.23L828.44 1158.85L1024 1021.74L843.699 817.586Z"></path>
	<path fill="#3C4255" fill-rule="evenodd" d="M331.066 938.396C336.359 844.369 413.298 770.356 507.459 768.711L632.538 766.529C731.023 764.81 812.559 842.644 815.415 941.102L822.638 1190.14L825.726 1504.84C825.726 1504.84 660.814 1514.46 567.82 1514.46C474.827 1514.46 312.674 1504.84 312.674 1504.84L316.407 1198.89L331.066 938.396Z"></path>
	<path fill="#465479" fill-rule="evenodd" d="M624.274 1066.92C622.489 1063.5 619.796 1061.83 616.029 1061.83L582.749 1061.83C582.071 1061.83 581.428 1061.53 580.996 1061C580.564 1060.48 580.388 1059.79 580.517 1059.13L590.955 1004.9C591.131 1004.15 591.238 1003.39 591.273 1002.63C591.258 997.698 587.105 993.374 582.37 993.374L581.1 993.374C578.831 993.724 576.77 994.899 575.313 996.676L574.822 997.327L510.212 1082.72C508.045 1085.5 507.77 1089.31 509.516 1092.37C511.124 1095.45 514.289 1097.4 517.76 1097.45L551.041 1097.63C551.708 1097.63 552.34 1097.93 552.768 1098.44C553.197 1098.95 553.378 1099.63 553.265 1100.29L542.676 1162.08C542.017 1166.32 544.279 1170.48 548.197 1172.23L548.288 1172.28C549.442 1172.78 550.699 1173.01 551.956 1172.94C554.634 1172.94 557.054 1171.64 558.945 1169.15L623.525 1076.66C625.742 1073.87 626.038 1070.01 624.274 1066.92L624.274 1066.92Z"></path>
	<path fill="#202637" fill-rule="evenodd" d="M567.314 936.788C629.951 935.695 679.842 884.031 678.749 821.394C677.655 758.757 625.991 708.866 563.354 709.959C500.717 711.053 450.826 762.716 451.92 825.353C453.013 887.99 504.677 937.882 567.314 936.788Z"></path>
	<rect fill="#EBBAAA" transform="rotate(-1 488.838135 701.959229)" height="196.940002" width="150.701385" rx="11.749000" y="701.959229" x="488.838135"></rect>
	<path fill="#C5585C" fill-rule="evenodd" d="M877.654 1417.87C882.649 1437.19 843.879 1463.92 791.059 1477.58C738.24 1491.24 691.371 1486.65 686.375 1467.34C680.062 1460.59 673.327 1414.32 682.66 1405.86C697.597 1392.33 736.77 1401.77 769.279 1393.36C801.787 1384.95 832.741 1359.66 852.366 1364.25C866.209 1373.62 875.624 1410.02 877.654 1417.87Z"></path>
	<path fill="#FF6766" fill-rule="evenodd" d="M777.426 1427.8C825.91 1415.26 861.165 1389.44 856.169 1370.13C851.174 1350.81 807.821 1345.32 759.337 1357.86C710.853 1370.4 675.598 1396.22 680.593 1415.53C685.588 1434.85 728.942 1440.34 777.426 1427.8Z"></path>
	<path fill="#C5585C" fill-rule="evenodd" d="M722.733 1327.18C721.324 1313.85 729.879 1301.51 742.847 1298.16C755.424 1294.9 768.537 1301.06 774.071 1312.81L793.894 1354.92C803.209 1374.7 792.236 1398.08 771.066 1403.56C750.432 1408.89 729.879 1394.65 727.635 1373.45L722.733 1327.18Z"></path>
	<path fill="#FF6766" fill-rule="evenodd" d="M757.833 1349.11C788.579 1341.16 807.058 1309.78 799.107 1279.04C791.155 1248.29 759.785 1229.81 729.039 1237.77C698.292 1245.72 679.814 1277.09 687.765 1307.83C695.717 1338.58 727.087 1357.06 757.833 1349.11Z"></path>
	<path fill="#EBBAAA" fill-rule="evenodd" d="M828.334 1401.95C866.444 1401.28 896.799 1369.85 896.134 1331.74C895.469 1293.63 864.035 1263.27 825.925 1263.94C787.815 1264.6 757.46 1296.04 758.125 1334.15C758.79 1372.26 790.224 1402.61 828.334 1401.95Z"></path>
	<rect fill="#C5CED2" transform="matrix(-0.970296 -0.241922 -0.241922 0.970296 517.312 1293.43)" height="296.335724" width="434.859467"></rect>
	<rect fill="#D4DDE1" transform="matrix(-0.970296 -0.241922 -0.241922 0.970296 493.633 1304.78)" height="296.335724" width="434.859467"></rect>
	<path fill="#7193B1" fill-rule="evenodd" d="M520.538 1328.16C521.71 1323.46 518.851 1318.7 514.151 1317.53L369.512 1281.47C367.098 1280.86 364.542 1281.32 362.48 1282.71L310.385 1317.94C308.323 1319.33 305.765 1319.79 303.351 1319.18L82.8867 1264.22C78.1882 1263.04 73.4299 1265.9 72.2585 1270.6L16.2639 1495.18C15.0925 1499.88 17.9517 1504.64 22.6499 1505.81L441.19 1610.16C445.888 1611.33 450.646 1608.48 451.817 1603.78L520.538 1328.16Z"></path>
	<path fill="#EBBAAA" fill-rule="evenodd" d="M242.958 1119.19C277.077 1130.16 295.845 1166.7 284.879 1200.82C265.206 1262.03 265.55 1308.16 267.253 1339.59C268.818 1368.47 275.246 1381.06 276.331 1383.19C276.504 1383.52 276.541 1383.6 276.398 1383.42C299.18 1411.09 295.223 1451.98 267.559 1474.76C239.895 1497.55 199 1493.59 176.217 1465.92C152.736 1437.41 140.257 1394.48 137.664 1346.61C134.957 1296.67 137.707 1234.59 161.323 1161.11C172.29 1126.99 208.84 1108.22 242.958 1119.19Z"></path>
	<path fill="#EBBAAA" fill-rule="evenodd" d="M300.48 585.671C353.165 585.671 395.875 545.159 395.875 495.186C395.875 445.212 353.165 404.701 300.48 404.701C247.794 404.701 205.084 445.212 205.084 495.186C205.084 545.159 247.794 585.671 300.48 585.671Z"></path>
	<path fill="#EBBAAA" fill-rule="evenodd" d="M831.365 592.687C884.051 592.687 926.761 552.176 926.761 502.202C926.761 452.229 884.051 411.717 831.365 411.717C778.68 411.717 735.97 452.229 735.97 502.202C735.97 552.176 778.68 592.687 831.365 592.687Z"></path>
	<path fill="#EED4CC" fill-rule="evenodd" d="M292.891 326.668C284.658 169.286 410.049 37.1659 567.646 37.1659C725.894 37.1659 851.524 170.336 842.311 328.317L829.208 552.961C821.084 692.257 705.754 801.057 566.22 801.057C426.917 801.057 311.998 691.993 304.722 552.879L292.891 326.668Z"></path>
	<path fill="#C99584" fill-rule="evenodd" d="M534.467 662.522C582.365 664.872 634.436 649.135 681.478 617.149C686.97 613.414 688.395 605.935 684.66 600.443C680.926 594.951 673.447 593.526 667.955 597.261C625.107 626.396 578.152 640.586 535.645 638.5C529.012 638.175 523.371 643.288 523.045 649.922C522.72 656.555 527.833 662.196 534.467 662.522Z"></path>
	<path fill="#393939" fill-rule="evenodd" d="M504.626 343.67L399.833 332.095C398.83 331.985 397.829 332.342 397.124 333.066L376.577 354.1C374.627 356.094 375.896 359.458 378.677 359.671L507.464 369.521C512.109 369.877 515.639 365.418 514.227 360.978L510.167 348.211C509.38 345.735 507.209 343.955 504.626 343.67Z"></path>
	<path fill="#393939" fill-rule="evenodd" d="M621.528 342.635L726.506 332.891C727.513 332.796 728.507 333.172 729.2 333.908L749.376 355.296C751.291 357.326 749.965 360.667 747.18 360.831L618.241 368.432C613.589 368.705 610.137 364.187 611.627 359.771L615.908 347.077C616.738 344.616 618.941 342.875 621.528 342.635Z"></path>
	<path fill="#000000" fill-rule="evenodd" d="M467.278 403.414C478.166 403.414 486.991 412.238 486.991 423.127L486.991 469.564C486.991 480.451 478.165 489.277 467.278 489.277C456.389 489.277 447.565 480.451 447.565 469.563L447.565 423.127C447.565 412.238 456.391 403.412 467.278 403.414Z"></path>
	<path fill="#000000" fill-rule="evenodd" d="M667.287 403.414C678.175 403.414 687 412.238 687 423.127L687 469.564C687 480.451 678.174 489.277 667.287 489.277C656.398 489.277 647.574 480.451 647.574 469.563L647.574 423.127C647.574 412.238 656.4 403.412 667.287 403.414Z"></path>
	<path fill="#EBBAAA" fill-rule="evenodd" d="M537.579 484.389C541.087 474.881 543.381 468.505 543.941 464.428L571.608 468.224C570.592 475.628 567.196 484.817 564.297 492.658C564.122 493.129 563.951 493.594 563.781 494.054C560.449 503.087 557.388 511.551 555.904 519.05C554.323 527.035 555.29 530.4 555.972 531.47C555.972 531.47 555.974 531.471 555.976 531.474C556.064 531.624 557.767 534.502 568.52 534.502L568.52 562.428C553.162 562.428 539.851 558.112 532.434 546.499C525.663 535.893 526.614 523.195 528.509 513.626C530.495 503.592 534.39 493.034 537.56 484.44L537.579 484.389Z"></path>
	<path fill="#6E6C6C" fill-rule="evenodd" d="M754.486 221.545C749.131 176.604 744.298 144.333 740.728 114.372C738.199 93.149 737.936 87.736 798.267 132.205C858.597 176.674 867.642 274.236 851.23 357.161L836.037 452.346L817.409 447.742L814.951 326.064C784.553 295.466 759.841 266.487 754.486 221.545Z"></path>
	<path fill="#6E6C6C" fill-rule="evenodd" d="M332.655 269.48C335.147 224.293 330.056 226.62 331.717 196.495C332.894 175.157 340.247 179.826 302.155 218.953C281.13 240.548 289.046 333.33 293.521 394.01L298.839 449.936L307.337 450.405L311.173 380.839C326.19 332.634 330.163 314.667 332.655 269.48Z"></path>
	<path fill="#282B34" fill-rule="evenodd" d="M574.238 10.061L574.236 10.061C574.11 10.061 573.981 10.061 573.853 10.061C573.727 10.061 573.598 10.061 573.471 10.061L573.47 10.061C491.995 10.344 296.915 55.518 289.584 266.926C311.247 240.885 344.704 229.525 374.42 212.531C436.976 176.758 479.705 174.067 562.247 174.067C644.787 174.067 702.359 189.427 750.607 212.531C793.766 233.2 815.177 236.121 857.359 266.926C850.027 55.5185 655.708 10.344 574.238 10.061Z"></path>
	<path fill="#282B34" fill-rule="evenodd" d="M362.103 74.0429L345.381 133.44L565.791 99.3063L817.682 145.353L817.152 120.914L799.183 113.445L798.766 94.2423L776.116 94.7347L775.471 65.0578L746.35 65.6908L739.385 43.1374L713.497 43.7L697.635 21.3401L671.092 28.9031L662.698 15.1134L635.195 15.7113L634.853 0L597.983 16.52L587.935 1.01984L572.097 17.0828L555.576 1.72318L525.178 18.1027L505.422 2.81335L484.731 18.9818L470.171 19.2983L454.295 33.6155L447.521 19.7907L420.661 50.0653L402.714 43.4693L379.993 78.0204L362.103 74.0429Z"></path>
	<path fill-opacity="0.350000" fill="#FFFFFF" fill-rule="evenodd" d="M537.758 458.907C537.758 507.302 498.526 546.534 450.129 546.534C401.734 546.534 362.501 507.302 362.501 458.907C362.501 410.51 401.734 371.278 450.129 371.278C498.526 371.278 537.758 410.51 537.758 458.907Z"></path>
	<path fill-opacity="1.000000" fill="#2E2622" fill-rule="evenodd" clip-rule="evenodd" d="M537.757 458.907C537.757 507.303 498.525 546.535 450.128 546.535C401.733 546.535 362.501 507.303 362.501 458.907C362.501 410.51 401.733 371.278 450.128 371.278C498.525 371.278 537.757 410.51 537.757 458.907ZM521.722 458.907C521.722 498.447 489.668 530.501 450.127 530.501C410.587 530.501 378.533 498.447 378.533 458.907C378.533 419.366 410.587 387.312 450.127 387.312C489.668 387.312 521.722 419.366 521.722 458.907Z"></path>
	<path fill-opacity="0.350000" fill="#FFFFFF" fill-rule="evenodd" d="M755.46 463.015C755.46 511.41 716.228 550.642 667.831 550.642C619.436 550.642 580.204 511.41 580.204 463.015C580.204 414.618 619.436 375.386 667.831 375.386C716.228 375.386 755.46 414.618 755.46 463.015Z"></path>
	<path fill-opacity="1.000000" fill="#2E2622" fill-rule="evenodd" clip-rule="evenodd" d="M755.459 463.015C755.459 511.41 716.227 550.642 667.831 550.642C619.435 550.642 580.203 511.41 580.203 463.015C580.203 414.618 619.435 375.386 667.831 375.386C716.227 375.386 755.459 414.618 755.459 463.015ZM739.428 463.015C739.428 502.555 707.374 534.609 667.832 534.609C628.292 534.609 596.238 502.555 596.238 463.015C596.238 423.473 628.292 391.419 667.832 391.419C707.374 391.419 739.428 423.473 739.428 463.015Z"></path>
	<path fill="#2E2622" fill-rule="evenodd" d="M577.454 460.951C574 459.147 568.076 457.057 558.98 457.057C549.883 457.057 543.756 459.149 540.082 461.003C538.227 461.939 536.949 462.838 536.201 463.432C535.826 463.728 535.584 463.948 535.469 464.057C535.437 464.087 535.414 464.11 535.403 464.121C532.426 467.312 527.43 467.538 524.175 464.604C520.886 461.639 520.625 456.571 523.59 453.282L529.487 458.599C523.59 453.282 523.593 453.279 523.596 453.274L523.603 453.268L523.615 453.252L523.646 453.22C523.667 453.196 523.691 453.17 523.716 453.143C523.769 453.087 523.83 453.023 523.902 452.949C524.043 452.803 524.225 452.625 524.444 452.417C524.884 452 525.48 451.469 526.241 450.866C527.768 449.657 529.955 448.153 532.86 446.688C538.712 443.736 547.305 441.023 558.98 441.023C570.657 441.023 579.129 443.738 584.876 446.739C587.728 448.227 589.856 449.76 591.339 451.001C592.08 451.621 592.658 452.168 593.086 452.601C593.3 452.817 593.476 453.005 593.615 453.159C593.685 453.236 593.745 453.303 593.797 453.363C593.824 453.393 593.846 453.42 593.869 453.446L593.899 453.481L593.912 453.499L593.92 453.507C593.923 453.51 593.927 453.515 587.85 458.583L593.927 453.515C596.763 456.914 596.306 461.969 592.905 464.806C589.55 467.605 584.579 467.196 581.724 463.914C581.714 463.905 581.701 463.89 581.684 463.873C581.592 463.78 581.382 463.576 581.047 463.295C580.378 462.734 579.203 461.865 577.454 460.951Z"></path>
	<defs></defs>
</svg>
