<svg xml:space="preserve" style="enable-background:new 0 0 1024 1024;" viewBox="0 0 1024 1024" y="0px" x="0px"
    xmlns:xlink="http://www.w3.org/1999/xlink"
    xmlns="http://www.w3.org/2000/svg" id="图层_1" version="1.1">
    <style type="text/css">
	.st0{fill:#FFDE8A;stroke:#26282B;stroke-width:13;stroke-linecap:round;stroke-linejoin:round;stroke-miterlimit:10;}
	.st1{fill:#8DBBFF;stroke:#26282B;stroke-width:13;stroke-linecap:round;stroke-linejoin:round;stroke-miterlimit:10;}
	.st2{fill:#FFABB7;}
	.st3{fill:#FFFDF8;stroke:#26282B;stroke-width:13;stroke-linecap:round;stroke-linejoin:round;stroke-miterlimit:10;}
	.st4{fill:#FFABB7;stroke:#26282B;stroke-width:13;stroke-linecap:round;stroke-linejoin:round;stroke-miterlimit:10;}
    </style>
    <g>
        <path d="M136.27,852.8c0-0.42,0.01-0.85,0.02-1.27c0.06-2.46,0.06-2.46,0.06-2.55c-0.04,0.14-0.07,1.18-0.07,1.19
		V852.8" class="st0"></path>
        <path d="M617.89,700.78c16.79,1.57,33.18,3.52,49.07,5.83c38.52,15.62,67.88,30.05,98.17,48.27
		c-13.06-3.86-26.87-7.38-41.33-10.57C690.28,727.67,657.61,714.24,617.89,700.78" class="st0"></path>
        <path d="M610.11,698.47c1.29,0.16,1.29,0.16,7.78,2.31c16.79,1.57,33.18,3.52,49.07,5.83
		c38.52,15.62,67.88,30.05,98.17,48.27c-13.06-3.86-26.87-7.38-41.33-10.57l0.87,0.44c0.23,0.18,0.54,0.41,0.78,0.59
		c-1.09,0.64-1.09,0.64-2.88,0.32c15.21,3.32,29.72,7.02,43.39,11.08c3.91,1.16,7.69,2.33,11.36,3.52
		c-2.33-0.79-4.97-1.68-15.14-7.63c-12.01-7.04-43.93-25.73-96.17-46.4c-0.22-0.12-0.52-0.28-0.75-0.41c0.17-0.21,0.4-0.49,0.57-0.7
		c1.4-0.07,1.4-0.07,2.44,0.06c-18.83-2.76-38.37-5.02-58.44-6.75C609.91,698.45,610.03,698.46,610.11,698.47" class="st0"></path>
        <path d="M556.53,696.77c17.56,0.66,34.86,1.72,51.79,3.15c40.44,13.28,73.5,26.42,107.2,42.61
		c-14.7-3.05-30.02-5.76-45.85-8.11C632.88,719.66,597.99,708.05,556.53,696.77" class="st0"></path>
        <path d="M548.4,694.88c1.34,0.09,1.34,0.09,8.12,1.89c17.56,0.66,34.86,1.72,51.79,3.15
		c40.44,13.28,73.5,26.42,107.2,42.61c-14.7-3.05-30.02-5.76-45.85-8.11l0.95,0.39c0.26,0.16,0.6,0.38,0.85,0.54
		c-0.89,0.73-0.94,0.77-3.16,0.49c18.86,2.77,37.01,6.05,54.25,9.81c0.67,0.11,1.58,0.2,2.26,0.21c0.04-0.29,0.09-0.67,0.13-0.96
		c-0.34-0.18-0.8-0.41-1.15-0.59c-33.52-16.64-66.18-30.07-105.91-43.53l-5.66-1.88c-1.44-0.36-1.44-0.36-2.39-0.45
		c-20.11-1.73-40.74-2.93-61.72-3.57C548.2,694.88,548.31,694.88,548.4,694.88" class="st0"></path>
        <path d="M493.09,696.09c6.28-0.1,12.58-0.15,18.91-0.15c11.59,0,23.11,0.17,34.53,0.5
		c42.08,11.05,77.27,22.37,114.1,36.69c-16.02-2.21-32.54-4.06-49.43-5.54C571.62,714.73,537.4,705.6,493.09,696.09" class="st0"></path>
        <path d="M484.91,694.64c1.37,0.02,1.37,0.02,8.19,1.45c6.28-0.1,12.58-0.15,18.91-0.15c11.59,0,23.11,0.17,34.53,0.5
		c42.08,11.05,77.27,22.37,114.1,36.69c-16.02-2.21-32.54-4.06-49.43-5.54l1.01,0.33c0.27,0.15,0.64,0.35,0.91,0.49
		c-0.95,0.78-1,0.82-3.38,0.66c20.11,1.73,39.69,3.99,58.55,6.76c1.81,0.2,1.84,0.19,3.12-0.14c-0.44-0.48-1.16-1.02-1.76-1.27
		c-36.79-14.77-71.68-26.38-113.14-37.65l-5.92-1.58c-1.5-0.28-1.5-0.28-2.5-0.32c-11.94-0.36-23.99-0.55-36.11-0.55
		c-9.18,0-18.31,0.11-27.39,0.32C484.7,694.64,484.82,694.64,484.91,694.64" class="st0"></path>
        <path d="M430.7,698.76c17.14-1.21,34.62-2.04,52.32-2.47c32.99,6.85,70.19,15.29,118.57,30.51
		c-17.03-1.33-34.41-2.28-52.04-2.84C525.26,717.64,486.51,708.17,430.7,698.76" class="st0"></path>
        <path d="M422.82,697.73c1.32-0.06,1.32-0.06,7.88,1.03c17.14-1.21,34.62-2.04,52.32-2.47
		c32.99,6.85,70.19,15.29,118.57,30.51c-17.03-1.33-34.41-2.28-52.04-2.84l1.06,0.28c0.29,0.13,0.67,0.31,0.96,0.45
		c-0.99,0.83-1.05,0.88-3.52,0.84c20.97,0.64,41.61,1.83,61.71,3.56c1.94,0.1,1.97,0.09,3.33-0.32c-0.48-0.46-1.25-0.96-1.89-1.17
		c-39.59-12.86-73.81-21.99-118.12-31.51l-5.98-1.26c-1.51-0.2-1.51-0.2-2.5-0.19c-21.07,0.49-41.82,1.53-62.07,3.11
		C422.63,697.75,422.74,697.74,422.82,697.73" class="st0"></path>
        <path d="M371.19,704.66c16.17-2.09,32.82-3.83,49.82-5.18c26.64,4.31,67.91,11.51,118.51,24.19
		c-9.12-0.21-18.3-0.32-27.52-0.32c-8.69,0-17.35,0.09-25.95,0.28C445.75,715.36,410.32,709.51,371.19,704.66" class="st0"></path>
        <path d="M539.52,723.68c-38.96-9.74-76.62-17.43-118.51-24.19c-17,1.35-33.65,3.08-49.82,5.18
		c39.54,4.91,74.97,10.76,114.86,18.98c8.6-0.19,17.26-0.28,25.95-0.28C521.22,723.36,530.4,723.46,539.52,723.68 M363.75,704.05
		c18.79-2.6,38.54-4.71,58.79-6.29l0.28-0.02c1.5-0.03,1.5-0.03,7.88,1.03c42.92,7.26,80.68,15.26,118.85,25.19l1.06,0.28
		c0.29,0.13,0.67,0.31,0.96,0.45c-0.93,0.77-0.93,0.77-2.99,0.85c-12.45-0.37-24.48-0.55-36.58-0.55c-9.2,0-18.36,0.11-27.46,0.32
		l0.53-0.02c2.02-0.18,2.02-0.18,3.07-0.9c-0.81-0.4-50.92-11.79-122.38-20.36C365.16,703.99,364.35,703.99,363.75,704.05" class="st0"></path>
        <path d="M315.66,713.66c14.9-2.94,30.39-5.54,46.39-7.77c39.1,4.57,74.25,10.13,113.97,18.01
		c-17.64,0.54-35.04,1.47-52.09,2.78C385.03,720.46,351.64,716.45,315.66,713.66" class="st0"></path>
        <path d="M476.02,723.9c-40.13-7.95-75.28-13.5-113.97-18.01c-15.99,2.23-31.49,4.83-46.39,7.77
		c36.36,2.84,69.75,6.85,108.26,13.02C440.97,725.37,458.38,724.44,476.02,723.9 M308.83,713.43c17.24-3.58,35.61-6.72,54.66-9.35
		l0.26-0.03c0.2-0.01,47.33,4.13,123.36,19.82c0.29,0.12,0.68,0.28,0.97,0.39c-0.93,0.82-0.93,0.82-3.01,1.01
		c-21.6,0.51-42.35,1.56-62.6,3.14l0.51-0.05c1.88-0.28,1.9-0.29,2.93-0.94c-1.77-1.04-55.47-9.74-115.24-14.12
		C310.12,713.31,309.38,713.34,308.83,713.43" class="st0"></path>
        <path d="M265.27,725.61c13.3-3.75,27.34-7.17,42.01-10.24c35.79,2.51,68.79,6.24,107.02,12.09
		c-16.91,1.45-33.44,3.28-49.49,5.47C327.98,728.71,297.29,726.45,265.27,725.61" class="st0"></path>
        <path d="M259.18,725.75c1.78-0.43,4.26-0.16,6.09-0.14c13.3-3.75,27.34-7.17,42.01-10.24
		c35.79,2.51,68.79,6.24,107.02,12.09c-16.91,1.45-33.44,3.28-49.49,5.47l0.96,0.11c0.26,0.09,0.61,0.21,0.87,0.3
		c-0.91,0.98-0.96,1.04-3.2,1.39c19.05-2.63,38.8-4.75,59.05-6.33c1.58-0.18,1.58-0.18,2.96-0.61c-0.04-0.26-0.1-0.62-0.15-0.88
		c-52.29-8.51-90.45-11.85-114.61-13.62c-1.26,0.03-1.26,0.03-2.09,0.19c-17.48,3.63-34.09,7.75-49.62,12.33
		C259.03,725.8,259.12,725.77,259.18,725.75" class="st0"></path>
        <path d="M191.02,754.42c16.87-9.25,38.62-18.25,66.5-26.56c15.44,0.09,48.72,1.03,98.23,6.36
		c-15.86,2.33-31.21,5.02-45.95,8.05C270.52,741.51,244.58,741.01,191.02,754.42" class="st0"></path>
        <path d="M355.74,734.22c-52.65-5.65-86.23-6.33-98.23-6.36c-27.87,8.31-49.62,17.31-66.5,26.56
		c54.41-13.46,77.27-12.99,118.77-12.15C324.52,739.23,339.88,736.55,355.74,734.22 M180.25,760.1c0.79-1.31,0.79-1.31,2.54-2.53
		c18.33-11.15,42.61-21.79,75.26-31.48c0.3-0.09,0.61-0.18,0.91-0.27l0.22-0.06c1.79-0.36,4.26-0.16,6.09-0.14
		c32.38,0.86,63.08,3.12,99.53,7.33l0.96,0.11c0.28,0.12,0.64,0.28,0.92,0.41c-0.98,0.84-0.98,0.84-3.26,1.28
		c-19.05,2.63-37.42,5.77-54.9,9.4c-1.36,0.21-1.36,0.21-7.99,0.14c-23.84-0.24-63.73-0.65-119.48,15.72
		C180.82,760.01,180.5,760.07,180.25,760.1" class="st0"></path>
        <path d="M675.92,707.95c15.7,2.44,30.87,5.25,45.4,8.39c82.97,37.11,110.45,61.87,119.48,70
		c-15.33-9.32-35.33-18.45-61.25-26.98C710.88,722.3,710.88,722.3,675.92,707.95" class="st0"></path>
        <path d="M840.79,786.35c-13.01-11.64-37.21-33.31-119.48-70c-14.53-3.15-29.7-5.95-45.4-8.39
		c35.43,14.54,35.43,14.54,103.63,51.41C805.47,767.89,825.47,777.03,840.79,786.35 M665.14,705.69c0.6-0.35,1.54-0.6,2.23-0.6
		c19.8,2.87,37.98,6.16,55.24,9.93l0.24,0.06c0.75,0.23,84.24,32.79,126.95,77.38c0.19,0.22,0.44,0.52,0.63,0.74
		c-0.66,0.12-1.61-0.12-2.19-0.46c-16.9-11.41-39.7-22.39-70.93-32.48c-1.23-0.41-4.97-1.68-15.14-7.63
		c-12.01-7.04-43.93-25.73-96.17-46.4C665.75,706.06,665.34,705.92,665.14,705.69" class="st0"></path>
        <path d="M857.08,829.22v-5.45c0,2.38-0.3,4.75-0.89,7.09C856.72,830.3,857.04,829.97,857.08,829.22" class="st0"></path>
        <path d="M857.08,829.22v-5.45c0,2.38-0.3,4.75-0.89,7.09C856.72,830.3,857.04,829.97,857.08,829.22 M855.48,831.67
		c-0.01,0.02-0.02,0.06-0.03,0.08c1.08-3.16,1.63-6.36,1.63-9.6v7.07c-0.1,0.71-0.22,1.15-1.39,2.03
		C855.64,831.31,855.58,831.37,855.48,831.67" class="st0"></path>
        <path d="M886.06,835.59c1.18,4.61,1.67,9.04,1.67,13.21c0,27.5-21.13,66.59-121.78,96.68
		C697,966.09,606.81,977.44,512,977.44c-94.81,0-185-11.35-253.95-31.96c-100.65-30.09-121.78-69.18-121.78-96.68
		c0-4.55,0.58-9.41,2.01-14.49" class="st1"></path>
        <path d="M765.57,724.57c100.97,28.89,122.16,67.71,122.16,95.19c0,27.5-21.13,66.59-121.78,96.68
		C697,937.05,606.81,948.4,512,948.4c-94.81,0-185-11.35-253.95-31.96c-100.65-30.09-121.78-69.18-121.78-96.68
		c0-27.48,21.19-66.3,122.16-95.19" class="st1"></path>
        <polygon points="166.92,648.75 166.92,825.36 857.08,825.36 857.08,642.06" class="st2"></polygon>
        <path d="M871.4,562.04c0-62.56-160.91-113.28-359.4-113.28c-194.53,0-352.95,48.71-359.2,109.55h-0.2v78.92
		c0,0-2.48,51.59,50.24,23.67c0,0,60.14-38.34,86.46,32.15c0,0,13.61,41.03,89.6,3.68c0,0,35.88-20.5,79.54,26.24
		c0,0,42.78,54.91,106.04-23.17c0,0,24.11-32.49,85.69,17.94c0,0,30.74,33.55,76.42-47.98c0,0,26.1-44.13,68.68,11.65
		c0,0,39.93,57.92,67.31-10.83c0,0,8.18-20.54,8.18-45.55v-56.34C871.19,566.48,871.4,564.27,871.4,562.04z" class="st3"></path>
        <path d="M244.13,361.43v191c0,39.31,119.93,71.18,267.87,71.18s267.87-31.87,267.87-71.18v-191H244.13z" class="st4"></path>
        <line y2="823.77" x2="166.92" y1="668.13" x1="166.92" class="st0"></line>
        <line y2="823.77" x2="857.08" y1="682.51" x1="857.08" class="st0"></line>
        <path d="M857.08,825.36c0,52.41-154.59,94.89-345.3,94.89s-345.3-42.48-345.3-94.89" class="st4"></path>
        <path d="M789.32,361.43c0-39.31-124.16-71.18-277.32-71.18s-277.32,31.87-277.32,71.18v67.14
		c0,0-3.02,31.38,49.38,4.04c0,0,30.45-13.65,57.06,26.71c0,0,26.72,68.25,94.99,10.95c0,0,31.97-24.42,75.89,30.38
		c0,0,53.11,82.48,98.47-9.52c0,0,36.17-81.56,63.04-29.44c0,0,33.8,68.76,59.55-4.76c0,0,11.65-44.3,36.17,4.76
		c0,0,19.94,38.96,19.94-9.33v-88.6C789.26,362.99,789.32,362.21,789.32,361.43z" class="st3"></path>
        <g>
            <g>
                <g>
                    <defs>
                        <path d="M481.57,179.19v174.94h0.01c0.11,6.09,13.68,11.01,30.41,11.01c16.73,0,30.3-4.92,30.41-11.01
						l0.01-26.94v-148H481.57z" id="XMLID_8_"></path>
                    </defs>
                    <use style="overflow:visible;fill:#FFDE8A;" xlink:href="#XMLID_8_"></use>
                    <clipPath id="XMLID_2_">
                        <use style="overflow:visible;" xlink:href="#XMLID_8_"></use>
                    </clipPath>

                    <use style="overflow:visible;fill:none;stroke:#26282B;stroke-width:13;stroke-linecap:round;stroke-linejoin:round;stroke-miterlimit:10;" xlink:href="#XMLID_8_"></use>
                </g>
                <ellipse ry="10.16" rx="30.42" cy="177.69" cx="511.98" class="st0"></ellipse>
            </g>
            <line y2="175.49" x2="511.98" y1="148.06" x1="511.98" class="st0"></line>
            <g>
                <path d="M540.96,114.19c0,25.65-16.85,36.15-28.97,36.15c-14,0-28.97-10.96-28.97-36.15
				c0-28.66,28.97-67.63,28.97-67.63S540.96,85.53,540.96,114.19z" class="st0"></path>
                <ellipse ry="25.08" rx="14" cy="122.79" cx="511.98" class="st0"></ellipse>
            </g>
        </g>
    </g>
</svg>
