<svg xml:space="preserve" style="enable-background:new 0 0 2695.52 1797.01;" viewBox="0 0 2695.52 1797.01" y="0px" x="0px" xmlns:xlink="http://www.w3.org/1999/xlink" xmlns="http://www.w3.org/2000/svg" id="레이어_1" version="1.1">
<style type="text/css">
	.st0{fill:#FEC261;}
	.st1{fill:#EDA340;}
	.st2{fill:#25255D;stroke:#000000;stroke-linecap:round;stroke-linejoin:round;stroke-miterlimit:10;}
	.st3{fill:none;stroke:#000000;stroke-linecap:round;stroke-linejoin:round;stroke-miterlimit:10;}
	.st4{fill:#FFFFFF;stroke:#000000;stroke-linecap:round;stroke-linejoin:round;stroke-miterlimit:10;}
	.st5{fill:none;stroke:#000000;stroke-width:0.5;stroke-linecap:round;stroke-linejoin:round;stroke-miterlimit:10;}
	.st6{stroke:#000000;stroke-linecap:round;stroke-linejoin:round;stroke-miterlimit:10;}
	.st7{fill:#FFFFFF;}
	.st8{fill:#F4B5B5;}
	.st9{fill:#DA2864;stroke:#000000;stroke-linecap:round;stroke-linejoin:round;stroke-miterlimit:10;}
	.st10{fill:#FFFFFF;stroke:#000000;stroke-width:0.5;stroke-linecap:round;stroke-linejoin:round;stroke-miterlimit:10;}
	.st11{fill:#DB1C42;stroke:#000000;stroke-linecap:round;stroke-linejoin:round;stroke-miterlimit:10;}
	.st12{stroke:#000000;stroke-width:1.5;stroke-linecap:round;stroke-linejoin:round;stroke-miterlimit:10;}
</style>
<rect height="1797.01" width="2695.52" class="st0"></rect>
<g>
	<rect height="36.64" width="432.92" class="st1" y="1612.42" x="125.73"></rect>
	<rect height="36.64" width="432.92" class="st1" y="1477.05" x="628.52"></rect>
	<rect height="36.64" width="432.92" class="st1" y="1341.71" x="1131.3"></rect>
	<rect height="36.64" width="432.92" class="st1" y="1206.36" x="1634.08"></rect>
	<rect height="36.64" width="432.92" class="st1" y="1071.01" x="2136.87"></rect>
</g>
<g>
	<g>
		<path d="M2006.04,611.25c22.4,10.5,11.28,41.08,11.28,41.08c-2.3,7.37-6.55,9.45-6.55,9.45l-2.2,11.18l6.42,3.02
			l8.16-11.47c0,0-1.2-5.77,0.85-10.82c0,0,15.15-34.7-14.98-48.84c-30.13-14.14-47.14,19.67-47.14,19.67
			c-2.58,4.8-7.78,7.57-7.78,7.57l-3.61,13.59l6.42,3.02l7.18-8.83c0,0-1.1-4.61,3.09-11.07
			C1967.22,628.83,1983.66,600.75,2006.04,611.25z" class="st2"></path>
		<path d="M1895.8,622.01c1.56-2.94,8.11-6.06,11.14-4.65l157.75,74.05c3,1.42,4.54,9.19,3.3,12.28" class="st2"></path>
		<path d="M2012.59,822.8l-173.49-81.44c-3-1.42-4.21-5.03-2.64-7.97l58.94-110.73c1.56-2.94,5.14-4.12,8.14-2.7
			l161.3,75.71c3,1.42,4.37,4.92,3.11,7.99l-47.55,116.08C2019.16,822.82,2015.59,824.22,2012.59,822.8z" class="st2"></path>
		
			<rect height="9.85" width="120.7" class="st3" transform="matrix(0.4249 -0.9052 0.9052 0.4249 458.9445 2146.7837)" y="707.26" x="1858.73"></rect>
		
			<rect height="9.85" width="120.7" class="st3" transform="matrix(0.4249 -0.9052 0.9052 0.4249 468.6169 2223.053)" y="737.78" x="1923.6"></rect>
		<path d="M2007.2,608.78c24.96,11.71,12.57,45.79,12.57,45.79c-2.56,8.2-7.29,10.54-7.29,10.54l-2.45,12.45l7.16,3.36
			l9.09-12.78c0,0-1.33-6.42,0.95-12.07c0,0,16.88-38.67-16.69-54.43c-33.58-15.76-52.53,21.93-52.53,21.93
			c-2.87,5.37-8.66,8.43-8.66,8.43l-4.04,15.15l7.16,3.36l8.01-9.83c0,0-1.23-5.13,3.44-12.34
			C1963.95,628.37,1982.25,597.07,2007.2,608.78z" class="st2"></path>
		<path d="M1947.51,662.2l-8.03-3.76c-1.73-0.82-2.49-2.9-1.67-4.65l3.76-8.03c0.82-1.73,2.9-2.49,4.65-1.67l8.03,3.76
			c1.73,0.82,2.49,2.89,1.67,4.65l-3.76,8.03C1951.33,662.26,1949.24,663.02,1947.51,662.2z M1941.57,655.08l7.21,3.38l3.38-7.21
			l-7.21-3.38L1941.57,655.08z M1952.56,651.44L1952.56,651.44L1952.56,651.44z" class="st4"></path>
		<path d="M2002.57,684.2l3.76-8.03c0.82-1.73,2.9-2.49,4.65-1.67l8.03,3.76c1.73,0.82,2.49,2.9,1.67,4.65l-3.76,8.03
			c-0.82,1.73-2.9,2.49-4.65,1.67l-8.03-3.76C2002.51,688.02,2001.77,685.95,2002.57,684.2z M2016.92,681.64l-7.21-3.38l-3.38,7.21
			l7.21,3.38L2016.92,681.64z M2009.32,678.07L2009.32,678.07L2009.32,678.07z" class="st4"></path>
	</g>
</g>
<path d="M879.05,988.85c22.51,10.54,71.74-0.87,109-9.3c15.98-3.61,25.32-20.03,20.69-36.37
	c-12.11-42.69-29.44-67.3-36.37-113.31" class="st2"></path>
<path d="M799.98,1285.58c-11.24,14.56-23.05,28.4-32.33,44.14c-11.92,20.24,6.21,59.21,18.45,76.48
	c7.21,10.16,12.11,25.15-6.68,16.23c-14.31-6.78-19.63-13.31-27.15-27.2c-6.83-12.62-16.78-18.62-27.18-27.22
	c-12.62-10.42-8.39-19.97,1.65-30.2c20.69-21.07,34.3-49.22,47.78-77.28" class="st4"></path>
<path d="M961.34,935.83c-3,17.48-18.68,87.36-21.87,103.86c-7.99,41.54-17.58,83.05-30.09,123.34
	c-4.99,16.1-24.68,38.5-34.89,50.78c-29.61,35.61-59.95,65.53-86.03,100.33c-19.08-0.7-35.59-19.97-42.9-29.25
	c23.86-37.26,50.42-71.93,73.05-110.01c7.21-12.13,24.17-42.62,25.42-47.95c1.35-5.85-8.66-6.99-0.27-12.3
	c-7.25-36.26-7.73-82.98-8.94-119.94c-0.8-24.15-1.06-48.26,6.89-70.88c4.73-13.44,11.28-23.94,21.26-33.58
	c16.69-16.14,32.54-14.48,55.41-16.52" class="st4"></path>
<path d="M762.07,1302.32c23.86-37.26,57.27-81.04,79.9-119.12c7.21-12.13,24.17-42.62,25.42-47.95
	c1.35-5.85-8.66-6.99-0.27-12.3c-7.25-36.26-3.53-163.9,4.42-186.51c4.73-13.44,11.28-23.94,21.26-33.58
	c16.69-16.14,32.54-14.48,55.41-16.52" class="st5"></path>
<path d="M849.34,1119.87c6.32,1.71,12.17,3.49,18.53,4.27" class="st5"></path>
<path d="M851.62,1128.24c9.89,6.51,19.86,12.7,29.99,18.81" class="st5"></path>
<g>
	<path d="M779.42,1412.26c5.07,0.13,8.54-6.06,8.62-9.89c-9.61-16.67-20.43-51.24-23.27-54.86
		c-0.87-1.1-2.2-1.69-3.55-1.52c-4.9,0.61-12.38,5.03-7.9,10.54C753.32,1356.54,762.22,1391.28,779.42,1412.26z" class="st2"></path>
	<path d="M775.11,1413.96c3.53-3.44,5.6-10.27,4.59-15.38c-0.82-4.12-12.15-41.19-13.55-42.94
		c-3.06-3.8-8.37-2.54-12.62-3.3c-6.11-1.1-11.18-4.33-14.98-9.47c-3.47-4.69-2.58-10.38-1.84-16.21c-2.43-1.27-6.57,0.3-8.73,1.52
		c-7.14,4.06-14.05,10.52-18.96,17.14" class="st2"></path>
	<path d="M778.93,1405.54c1.46-2.43,4.23-6.53,7.18-7.16c6.13,6.28,11.96,17.88,11.75,26.71c0,0-11.56-3.87-16.23-6.25
		C776.8,1416.39,775.95,1410.47,778.93,1405.54z" class="st2"></path>
	<path d="M710.44,1341.6c2.66,5.16,5.83,9.78,9.51,14.33c5.35,6.61,11.45,12.64,17.05,19.04
		c4.69,5.37,40.02,41.31,60.84,50.15c-0.8,2.75-4.27,5.28-6.57,6.53c-2.73,1.23-22.65-14.26-28.55-18.85
		c-14.14-10.99-21.07-19.4-32.82-32.86c-10.71-12.28-16.36-16.02-26.25-29.03C702.6,1349.46,708.54,1342.53,710.44,1341.6z" class="st6"></path>
	<path d="M772.36,1360.79c-3,0.15-10.1,3.82-10.1,3.82" class="st3"></path>
	<path d="M774.87,1367.17c-2.28,0.49-9.68,4.67-9.68,4.67" class="st3"></path>
	<path d="M777.58,1373.38c-2.56,1.33-6.93,4.27-9.51,5.58" class="st3"></path>
	<path d="M780.07,1380.82c0,0-6.53,4.48-8.83,5.96" class="st3"></path>
	<path d="M782.88,1388.3c0,0-5.54,4.65-8.35,6.59" class="st3"></path>
</g>
<g>
	<path d="M1473.76,852.38c0.46-0.44,0.78-0.99,0.99-1.61c0.82,1.39,1.94,2.49,3.76,2.28c2.16-0.25,2.87-1.82,3.38-3.53
		c0.32,0.36,0.66,0.7,1.01,0.95c4.61,3.49,6.99-1.67,7.31-5.73c1.29,1.39,2.54,2.28,3.51,2.3c4.94,0.06,4.12-6.3,2.85-11.07l0,0l0,0
		c-0.15-0.57-0.32-1.12-0.46-1.63c0.91-0.78,1.73-1.61,2.32-2.56c4.94-7.82-11.01-19.23-20.12-23.92c-2.6-1.35-4.63-3.06-6.4-5.45
		c-1.82-2.45-6.06-9.68-7.5-12.34c-3.93-7.23-24.68-64.43-24.68-64.43l-34.57,6.89c0,0,46.68,73.18,50.17,81.55
		c1.18,2.81,1.1,6.09,1.58,9.04c0.55,3.34,0.95,6.87,1.75,10.16c0.7,2.81,2.47,5.43,3.74,8.01
		C1463.76,844.16,1468.54,857.52,1473.76,852.38z" class="st7"></path>
	<polyline points="1478.7,813.08 1495.9,826.6 1494.47,833.01 1496.52,836.37 1495.63,843.51 1476.5,845.66" class="st3"></polyline>
	<path d="M1467.71,849.17c-1.5-2.64-2.13-8.71-1.71-11.71c0.99-7.08,5.83-0.44,7.08,2.83c1.18,3.11,3.17,9.28,0.3,12
		c-5.33,5.03-9.83-8.43-11.16-11.31c-1.23-2.62-2.94-5.26-3.57-8.09c-0.74-3.3-1.08-6.85-1.54-10.19c-0.42-2.96-0.27-6.23-1.39-9.07
		c-6.49-10.33-43.38-69.78-50.57-81.06" class="st3"></path>
	<path d="M1481.94,848.35c-0.61,2.13-1.14,4.44-3.8,4.71c-2.85,0.27-3.93-2.62-4.86-4.86c-1.48-3.57-2.73-7.71-2.6-11.6
		c0.11-3,1.5-6.34,4.84-4.04C1479.4,835.25,1481.39,841.94,1481.94,848.35z" class="st4"></path>
	<path d="M1490.01,843.06c0.38,3.93-2.13,11.75-7.46,7.52c-2.87-2.26-4.02-7.84-4.97-11.24
		c-0.7-2.51-2.94-11.16,2.24-9.19C1484.22,831.82,1486.52,837.78,1490.01,843.06z" class="st4"></path>
	<path d="M1495.18,831.78c0.91,2.9,5.26,15.83-1.75,15.6c-4.35-0.15-13.78-18.03-9.15-19.88
		c3.42-1.39,9.93,11.16,10.8,13.61" class="st4"></path>
	<path d="M1468.12,820.18c1.99,3.13,8.01,5.47,11.64,6.17c1.56,0.3,3.25,0.32,4.78,0.68c2.3,0.55,4.54,1.86,6.95,2.09
		c-3.44,0.44-6.28,3.99-7.27,7.08c-0.51,1.56-0.78,5.35,1.25,6.34c1.48,0.72,3.13-1.71,4.12-2.77c2.47-2.66,6.8-4.48,8.85-7.57
		c5.11-7.71-10.61-19.44-19.63-24.32c-4.94-2.68-6.68-6.53-8.77-11.45c-2.26-5.3-4.61-10.57-6.99-15.79
		c-1.67-3.68-21.64-51.31-23.33-54.96" class="st4"></path>
</g>
<path d="M1567.41,693.09c-13.71,9.32-34.06,14.31-50.91,17.81c-19.38,4.04-45.12,8.41-62.76,17.39
	c0.42-0.21,0.32,3.13,0.23,3.4c-0.85,2.62-0.87,2.54-3.3,3.32c-2.16,3.7,19.74,53.59,22.53,59.68
	c-4.59,9.81-14.33,14.22-27.03,16.04c0,0-29.42-44.63-45.35-71.93c-5.11-8.77-4.67-18.03,1.67-27.87
	c3.19-4.97,26.79-19.93,31.78-22.91c19.88-11.88,62.11-31.85,100.67-50.06" class="st2"></path>
<path d="M1445.55,732.72c-4.54-0.87-5.6-2.7-9.89-4.4" class="st5"></path>
<path d="M1448.38,727.31c-7.38-4.44-11.07-9.21-18.72-13.02" class="st5"></path>
<path d="M1503.28,716.34c1.9-15.47,7.14-40.83,14.47-52.7c10.71-17.35,26.25-34.06,29.03-55.03
	c2.01-15.02,2.16-31.4,1.44-46.55c11.39,3.23,30.24,16.72,41.61,20.03c0,0-7.52,41.52,18.24,104.54" class="st4"></path>
<path d="M1544.29,632.68c14.29,10.67,61.62,37.19,61.62,37.19c3.74,8.73,6.49,17.64,9.93,26.39
	c5.83,14.79,13.12,25.02,11.64,40.91c-2.81,30.01-12.24,59.19-21.66,87.84c-5.87,17.88-18.03,41.9-18.03,41.9
	c-7.71,3.66-20.98,10.38-31.27,11.31c-25.51,2.32-27.09-12.57-29.99-33.9c-5.9-43.36-4.59-86.85-3.63-130.53
	c0.25-11.22-0.95-23.2,0.3-34.34C1524.9,664.1,1540.66,647.68,1544.29,632.68z" class="st4"></path>
<path d="M1729.79,913.56c21.11,10.21,34.09,13.1,33.94,36.37c-0.06,11.33-28.8,170.87-28.1,178.37
	c1.1,12.21,14.03,28.99,25.55,50.04c13.44,24.53-21.3,11.88-30.26,3.61c-7.92-7.33-8.28-15.28-14.2-24.03
	c-5.92-8.77-16.27-13.82-16.31-25.46c-0.04-10.08,9.76-16,12.43-25.36c4.75-16.8,1.25-58.03-0.68-75.19
	c-1.5-13.44-2.11-26.6-0.82-39.88c1.1-11.26,6.47-22.61,6.45-33.6" class="st4"></path>
<path d="M1756.6,1169.53c6.89,5.45,30.28,20.9,32.06,22.21c2.75,2.05,0.34,3.57-3,4.4c-9.59,2.39-46.11,1.16-52.24-2.79
	c-7.82-5.03-9.83-13.14-13.4-21.22c-3.36-7.63-6.53-15.79-12.43-19.88c-0.61,15.36-0.57,26.48-0.91,41.63
	c-1.71-0.76-3.72-1.75-5.62-1.88c0,0-1.35-24.72-3.23-36.03c-2.28-13.69-3.87-22.53,5.56-33.18c5.92,12.11,15.95,24.81,24.75,35.1
	C1735.24,1166.19,1745.51,1169.82,1756.6,1169.53z" class="st2"></path>
<path d="M1539.62,965.16c49.49-2.11,112.99-7.88,161.95-13.1c0.17,4.18,0.61,8.58,5.49,7.8
	c2.68,8.45-1.99,30.7-2.24,39.35c-0.99,32.86,3.66,62.55,1.46,96.78c15.32,8.22,23.67,9.23,39.88,6.4c0,0,10.42-75.57,17.86-122.12
	c2.62-16.38,10.08-40.26,1.84-55.75c-7.69-14.43-29.01-19.31-43.78-23.6c-20.88-6.06-42.75-9.21-64.18-13.57
	c-19.97-4.08-70.07-20.43-70.07-20.43c-25.53,4.46-52.6-1.71-78.82-3.74" class="st2"></path>
<path d="M1557.21,949.69c49.49-2.11,110.2-3.89,159.14-9.11c0.17,4.18,0.61,8.58,5.49,7.8
	c2.68,8.45,0.82,26.71,0.55,35.35c-0.99,32.86,0.02,84.08-2.18,118.32" class="st5"></path>
<path d="M1491.89,1117.59c-0.95,11.28-107.83,129.66-106.97,145.83c0.66,12.26,11.71,30.01,21.53,51.9
	c11.45,25.51-22.17,10.16-30.45,1.23c-7.33-7.92-7.06-15.87-12.26-25.08c-5.2-9.19-15.13-15.07-14.26-26.67
	c0.74-10.06,10.27-13.82,16.4-21.39c13.71-16.95,41.88-100.65,73.58-126.6" class="st4"></path>
<path d="M1402.63,1306.14c6.45,5.98,28.55,23.2,30.22,24.66c2.58,2.26,0.06,3.59-3.34,4.14
	c-9.74,1.61-46.07-2.47-51.86-6.89c-7.4-5.62-8.77-13.86-11.69-22.21c-2.75-7.88-5.26-16.25-10.82-20.79
	c-1.82,15.26-2.64,26.35-4.18,41.42c-1.65-0.89-3.57-2.03-5.45-2.32c0,0,0.59-24.75-0.4-36.16c-1.18-13.84-2.09-22.76,8.16-32.63
	c4.94,12.53,13.97,25.99,21.91,36.94C1381.58,1301.13,1391.56,1305.57,1402.63,1306.14z" class="st2"></path>
<path d="M1504.4,865.42c-9.61,7.02-19.57,26.27-22.89,37.47c-4.12,13.84-6.61,27.01-8.54,41.33
	c-7.08,52.89-2.09,86.13-17.52,138.05c-5.35,2.2-3.23,6.02-6.19,9.78c-27.05,34.49-76.81,116.88-85.01,128.61
	c12.45,10.61,22.95,19.48,37.83,26.2c22.93-33.45,66.8-91.39,90.42-123.89c42.9-58.98,56.15-119.52,85.6-182.94" class="st2"></path>
<path d="M1520.75,877.21c-9.61,7.02-15.57,25.67-18.89,36.87c-4.12,13.84-6.61,27.01-8.54,41.33
	c-7.08,52.89-6.09,86.72-21.51,138.64c-5.35,2.2-3.23,6.02-6.19,9.78c-27.05,34.49-76.81,116.88-85.01,128.61" class="st5"></path>
<path d="M1577.49,933.17c4.18-16.33,5.62-35.78,4.14-53.34" class="st5"></path>
<path d="M1599.98,871.49c-13.93,5.41-30.24,11.88-45.39,13.06c-24.96,1.94-39.01,5.39-57.58-3.19" class="st5"></path>
<g>
	<path d="M1122.93,732.86c-0.55-0.34-1.16-0.51-1.8-0.57c1.14-1.14,1.92-2.51,1.25-4.21c-0.78-2.01-2.47-2.32-4.25-2.37
		c0.27-0.4,0.51-0.8,0.68-1.2c2.2-5.33-3.38-6.3-7.35-5.6c1.01-1.61,1.56-3.02,1.33-3.95c-1.2-4.8-7.12-2.37-11.39,0.06l0,0l0,0
		c-0.51,0.3-0.99,0.59-1.46,0.87c-0.97-0.68-1.99-1.25-3.04-1.58c-8.79-2.79-15.74,15.49-17.96,25.44
		c-0.63,2.85-1.78,5.24-3.63,7.57c-1.9,2.37-7.8,8.28-10,10.35c-5.98,5.6-7.97,7.78-14.56,12.7l1.25,1.12l-0.97,0.78l15.34,13.63
		c0,0,17.18-20.05,24.36-25.53c2.41-1.84,5.6-2.6,8.3-3.8c3.06-1.37,6.38-2.66,9.34-4.27c2.54-1.37,4.61-3.76,6.78-5.64
		C1117.54,744.57,1129.21,736.6,1122.93,732.86z" class="st7"></path>
	<polyline points="1083.8,738.04 1092.46,718.05 1099.01,717.8 1101.74,714.99 1108.84,714.04 1115.77,731.91" class="st3"></polyline>
	<path d="M1121.35,739.5c-2.16,2.11-7.86,4.27-10.84,4.61c-7.08,0.82-1.9-5.52,0.93-7.54c2.68-1.92,8.14-5.41,11.5-3.32
		c6.19,3.87-5.64,11.6-8.07,13.61c-2.22,1.84-4.33,4.16-6.89,5.49c-3,1.54-6.32,2.77-9.42,4.08c-2.75,1.16-5.94,1.84-8.39,3.63
		c-8.33,8.85-17.5,18.64-26.56,28.42" class="st3"></path>
	<path d="M1116.97,726c2.2,0.04,4.56-0.04,5.49,2.49c0.99,2.68-1.52,4.46-3.44,5.9c-3.06,2.32-6.74,4.59-10.52,5.43
		c-2.92,0.66-6.49,0.15-5.11-3.63C1104.97,731.76,1110.93,728.15,1116.97,726z" class="st4"></path>
	<path d="M1109.83,719.55c3.7-1.35,11.85-0.93,9.15,5.28c-1.46,3.34-6.53,5.85-9.57,7.63
		c-2.26,1.31-10.02,5.66-9.42,0.17C1100.47,727.98,1105.62,724.24,1109.83,719.55z" class="st4"></path>
	<path d="M1097.66,717.42c2.56-1.63,13.93-9.09,15.47-2.26c0.97,4.23-13.88,17.84-16.86,13.86
		c-2.2-2.96,8.24-12.38,10.38-13.84" class="st4"></path>
	<path d="M1093.33,746.43c2.51-2.7,3.25-9.09,3-12.78c-0.11-1.58-0.53-3.21-0.57-4.78c-0.06-2.35,0.66-4.86,0.25-7.25
		c1.31,3.21,5.43,5.03,8.66,5.2c1.63,0.08,5.35-0.59,5.79-2.81c0.32-1.61-2.43-2.58-3.7-3.28c-3.19-1.71-6.04-5.43-9.53-6.61
		c-8.73-2.96-16.06,15.15-18.49,25.08c-1.33,5.43-4.61,8.09-8.81,11.37c-4.54,3.51-9,7.12-13.44,10.73
		c-3.11,2.54-6.21,5.09-9.3,7.67" class="st4"></path>
</g>
<path d="M1039.12,813.65c17.71-13.63,50.44-46.45,50.44-46.45c-4.94-8.69-11.6-14.39-19.44-20.29
	c-2.87,1.29-37.61,29.39-45.98,35.44" class="st4"></path>
<path d="M965.82,745.31c12.15,12.11,34.06,48.62,38.33,48.5c10.33-7.48,53.29-42.22,56.87-43.83
	c9.7,7.29,17.9,14.37,24.03,25.08c0,0-40.49,40.57-62.38,57.44c-4.04,3.11-13.9,8.47-19.21,8.83c-2.32,0.17-5.24-0.17-7.57-0.74
	c-14.28-3.49-46.28-41.97-46.28-41.97" class="st2"></path>
<path d="M1161.16,1225.12c8.41,16.44,15.95,33.09,26.2,48.22c13.16,19.44,54.98,19.1,75.19,15.09
	c11.9-2.37,27.13-0.59,11.73,12.93c-11.75,10.31-19.65,12.49-34.97,13.57c-13.93,0.99-23.22,7.61-35.02,13.59
	c-14.29,7.23-21.07-0.66-26.1-14.18c-10.4-27.85-29.9-52.17-49.38-76.31" class="st4"></path>
<path d="M1513.27,524.63c1.9-20.69,18.34-36.09,41.44-39.73c5.07-0.8,10.25-1.08,15.38-0.8
	c15.98,0.87,31.32,8.11,38.23,23.24c6.8,14.9,5.26,28.53,19.97,38.12c-3.28,5.9-6.87,5.96-7.52,12.66
	c-0.53,5.54,3.93,12.85,0.15,17.64c-0.02,0.04,0.02-0.04,0,0c-5.45,7.67-28.53,12.15-40.53,12.76
	c-27.91,1.42-56.17-17.48-64.75-44.25C1513.44,537.4,1512.7,530.78,1513.27,524.63z" class="st7"></path>
<path d="M1608.34,522.67c-11.28-3.59-18.87,8.64-18.87,8.64" class="st3"></path>
<path d="M1602.55,535.45c0.93,1.94,2.64,3.04,3.87,2.47c1.2-0.57,1.46-2.62,0.53-4.56s-2.64-3.04-3.87-2.47
	C1601.88,531.46,1601.62,533.51,1602.55,535.45z"></path>
<path d="M1590.02,553.73c-2.22-4.16-0.63-9.32,3.53-11.52c4.16-2.22,9.32-0.63,11.52,3.53
	c2.22,4.16,0.63,9.32-3.53,11.52C1597.4,559.46,1592.24,557.89,1590.02,553.73z" class="st8"></path>
<path d="M1608.66,560.92c3.91-0.27,8.09-1.06,12.09-2.28c-0.19,4.01,0.99,5.52,1.5,9.81
	C1622,568.46,1613.06,572.73,1608.66,560.92z" class="st4"></path>
<path d="M1545.37,579.87c-13.78-7.86-24.87-20.46-29.71-35.56c-2.22-6.91-2.94-13.52-2.37-19.67
	c1.9-20.69,18.34-36.09,41.44-39.73c5.07-0.8,10.25-1.08,15.38-0.8c15.98,0.87,31.32,8.11,38.23,23.24
	c6.8,14.9,5.26,28.53,19.97,38.12c-3.28,5.9-6.87,5.96-7.52,12.66c-0.53,5.54,3.93,12.85,0.15,17.64c-0.02,0.04,0.02-0.04,0,0
	c-4.46,6.28-20.65,10.4-32.99,12.05" class="st3"></path>
<path d="M865.38,762.43c8.01-11.71,16.02-23.43,24.01-35.16c11.66-17.12,30.05-34.32,33.85-55.49
	c2.73-15.17,1.84-30.83,1.82-46.26c11.41,3.8,29.94,18.38,41.31,22.27c0,0-2.01,37.87,5.39,88.25" class="st4"></path>
<path d="M891.31,585.91c2.9-20.92,20.31-35.8,43.91-38.42c5.2-0.57,10.46-0.61,15.66-0.08
	c16.19,1.63,31.42,9.7,37.74,25.38c6.23,15.43,4.02,29.2,18.51,39.64c-3.61,5.83-7.25,5.73-8.22,12.51
	c-0.8,5.6,3.4,13.23-0.68,17.92c-0.02,0.04,0.02-0.04,0,0c-5.9,7.54-29.54,11.03-41.76,11.07c-28.42,0.15-56.23-20.35-63.69-47.93
	C890.86,598.87,890.44,592.13,891.31,585.91z" class="st7"></path>
<path d="M987.94,588.32c-11.31-4.18-19.57,7.9-19.57,7.9" class="st3"></path>
<path d="M981.46,601.05c0.85,2.01,2.56,3.21,3.8,2.68c1.27-0.53,1.58-2.6,0.76-4.61c-0.85-2.01-2.56-3.21-3.8-2.68
	C980.95,596.97,980.61,599.02,981.46,601.05z"></path>
<path d="M967.89,619.03c-2.05-4.33-0.21-9.49,4.12-11.54s9.49-0.21,11.54,4.12c2.05,4.33,0.21,9.49-4.12,11.54
	C975.09,625.18,969.94,623.34,967.89,619.03z" class="st8"></path>
<path d="M986.48,627.16c3.97-0.11,8.26-0.7,12.38-1.78c-0.38,4.08,0.76,5.64,1.08,10.02
	C999.67,635.45,990.39,639.38,986.48,627.16z" class="st4"></path>
<path d="M921.32,643.48c-13.63-8.62-24.3-21.91-28.53-37.49c-1.92-7.12-2.35-13.86-1.5-20.08
	c2.9-20.92,20.31-35.8,43.91-38.42c5.2-0.57,10.46-0.61,15.66-0.08c16.19,1.63,31.42,9.7,37.74,25.38
	c6.23,15.43,4.01,29.2,18.51,39.64c-3.61,5.83-7.25,5.73-8.22,12.51c-0.8,5.6,3.4,13.23-0.68,17.92c-0.02,0.04,0.02-0.04,0,0
	c-4.82,6.17-21.45,9.61-34.04,10.69" class="st3"></path>
<path d="M914.83,675.85c1.9-3.36,6.53-7.42,8.2-10.67c13.82,10.08,29.58,21.19,43.17,31.15c1.94,1.42,8.2,5.56,9.81,7.4
	c0,0,11.83,134-14.56,235.09c-13.12,1.2-26.69,1.27-39.77,0.46L914.83,675.85z" class="st4"></path>
<path d="M955.29,955.89c13.65,13.08,34.32,31.02,43.7,37.91c33.64,24.77,66.59,50.97,97.31,79.35
	c12.28,11.35,24.26,38.82,31.06,53.36c19.72,42.16,34.11,82.58,54.52,121.15c-8.24,17.24-31.93,24.36-43.09,27.2
	c-23.48-37.55-43.59-76.52-68.3-113.29c-7.86-11.71-28.13-40.09-32.35-43.47c-4.63-3.7-9.68,5.03-11.01-4.9
	c-35.06-8.54-76.67-27.68-109.93-42.05c-21.72-9.38-43.21-19.25-60.08-36.03c-10.02-9.97-16.72-20.39-21.26-33.62
	c-7.63-22.12,0.19-35.99,7.52-57.88" class="st4"></path>
<path d="M1160.82,1266.99c-23.48-37.55-48.92-86.62-73.62-123.39c-7.86-11.71-28.13-40.09-32.35-43.47
	c-4.63-3.7-9.68,5.03-11.01-4.9c-35.06-8.54-146.72-65.44-163.58-82.22c-10.02-9.97-16.72-20.39-21.26-33.62
	c-7.63-22.12,0.19-35.99,7.52-57.88" class="st5"></path>
<path d="M941.52,607.47c-4.63-8.77-4.04-22.59-3.19-27.75c1.01-6.19,19.15-10.82,24.05-11.75
	c10.86-2.05,19.91-4.94,26.41-14.98c-1.18,0.42-1.8-0.17-2.81,0.27c3.61-5.37-2.64-12.49-6.95-15.17c3.8,5.79-21.34,3.15-24.11,3.11
	c-23.14-0.38-51.62,7.02-61.87,30.24c-9.49,2.45-10.19,20.6-8.79,28.55c3.78,21.66,22.17,34.87,40.26,46.24
	C929.68,635.81,937.14,618.33,941.52,607.47z" class="st6"></path>
<g>
	<path d="M945.02,626.21c-8.11,0.34-17.81-8.26-16.97-16.97c0.76-7.82,10.99-9.68,15.38-3.66" class="st4"></path>
	<path d="M943.17,615.1c-0.19-4.78-7.23-5.37-9.85-2.22" class="st3"></path>
	<path d="M943.06,614.53c-1.84-2.32-4.97,0.78-5.3,2.81" class="st3"></path>
</g>
<path d="M978.79,725.51c2.43,25.02,12.57,47.74,26.96,67.58c28.13,38.82,65.91,94.29,46.07,145.89
	c-8.88-3.44-27.58-23.31-27.58-23.31c2.79-9.45-3-41.97-10.21-58.89c-10.93-25.74-24.24-50.53-33.24-77.15
	c-2.3-6.78-10.29-38.73-10.54-54.33" class="st9"></path>
<path d="M962.84,719.36c0,0,4.67,7.99,7.61,12.05c2.49-1.9,5.77-3.02,9.07-1.8c-0.55-6.42,2.2-21.89-4.5-25.76
	C975.01,703.87,969.9,706.87,962.84,719.36z" class="st9"></path>
<path d="M975.01,703.87c-7.84,4.73-13.57,19.15-17.94,24.22c-13.4-8.3-38.04-35.52-48.33-47.59" class="st4"></path>
<path d="M853.33,781.66c5.64,15.26-2.81,57.67-5.03,71.32c-4.56,28.06-40.97,81.1-55.15,105.62
	c14.88,18.83,65.91,36.35,103.84,37.3c22.93,0.57,31.87-13.48,35.48-29.35c9.45-41.48,13.61-83.22,11.03-116.63
	c-4.84-62.8-12.49-135.52-27.62-181.2c-14.81,6.78-35.08,13.71-52.11,15.89c-24.03,3.06-64.35,72.67-79.75,95.56
	c-8.03,11.92-16.88,31.68-15.93,39.07c1.33,10.5,8.54,18.41,25.08,29.12c23.2,15.02,77.3,38.46,77.3,38.46
	c8.07-9.36,9.66-18.28,13.29-29.84c-2.7-2.83-49.76-31.74-60.27-38.99c0.76-1.08,1.37-2.37,2.11-3.3c-1.31-1.06-2.62-2.26-3.87-3.32
	c1.01-1.16,2.05-2.32,3.06-3.51c14.18-16.4,24.7-23.05,41.8-36.28" class="st2"></path>
<g>
	<g>
		<path d="M861.41,849.26c8.96,4.52,41.99,20.81,47.04,21.6c3.55,0.55,19.08-2.77,23.75-0.59
			c4.61,2.13,13.76,4.04,13.93,10.08c1.97,1.92,6.32,3.93,3.4,7.82c-1.8,2.39-4.1,1.35-6.57,0.89c2.18,4.14-3.44,6.42-6.61,6.02
			c0.53,2.47-1.37,4.1-3.13,5.33c-0.87,0.61-2.05,0.15-2.85,0.76c-1.04,0.8-1.04,2.39-2.11,3.19c-4.99,3.61-16.76-3.55-20.54-6.36
			c-3.87-2.85-8.41-9.61-13.16-11.54c-11.18-4.5-44.25-12.76-59.34-20.58L861.41,849.26z" class="st4"></path>
		<path d="M947.54,881.55c0,0-1.23-0.8-2.68-1.63c-3.34-1.88-7.14-4.25-10.59-5.87" class="st3"></path>
		<path d="M944.09,889.34c-2.11-0.8-4.12-1.75-6.13-2.77" class="st3"></path>
		<path d="M937.25,882.39c-0.97-0.21-1.84-0.76-2.73-1.2" class="st3"></path>
		<path d="M933.53,891.05c-1.1-0.46-2.13-0.87-3-1.67" class="st3"></path>
		<path d="M929.18,897.37c-0.85-0.53-1.71-1.06-2.54-1.61" class="st3"></path>
		<path d="M924.82,902.7c-1.01-0.27-1.86-0.82-2.54-1.61" class="st3"></path>
	</g>
	<g>
		<path d="M887.31,884.78l4.99,1.9c3.78-15.19,8.49-20.14,8.54-20.2l-5.03-1.97
			C895.6,864.83,891.24,869.06,887.31,884.78z" class="st2"></path>
		<path d="M893.72,869.56c3.15-0.11,5.79,2.37,5.9,5.54c0.11,3.15-2.37,5.79-5.54,5.9c-3.15,0.11-5.79-2.37-5.9-5.54
			C888.1,872.29,890.57,869.65,893.72,869.56z" class="st2"></path>
		<path d="M893.8,872.16c1.71-0.06,3.15,1.29,3.19,3c0.06,1.71-1.29,3.15-3,3.19c-1.71,0.06-3.15-1.29-3.19-3
			C890.74,873.66,892.09,872.23,893.8,872.16z" class="st10"></path>
	</g>
</g>
<path d="M901.43,674.58c-4.14,13.23-2.37,44.76-2.37,44.76s16.55,4.16,21.96,4.92c-3.55,7.23-14.03,15.28-14.03,15.28
	s9.04,38.37,13.67,56.15c5.66,21.77,14.43,44.19,20.5,67.81" class="st3"></path>
<path d="M868.3,767.71c4.1-15.55,2.41-28.21,0.7-42.22c-2.32-19.06-13.76-32.88-13.76-32.88" class="st5"></path>
<path d="M879.47,856.34c2.98,1.75,7.1,3.36,10.27,4.67c0,0-4.75,18.53-11.31,24.47c0,0-8.71-2.68-12.26-4.5" class="st4"></path>
<path d="M793.15,848.33c23.2,15.02,77.3,38.46,77.3,38.46c8.07-9.36,10.71-17.84,14.35-29.39
	c-2.7-2.83-50.82-32.18-61.32-39.43" class="st2"></path>
<polygon points="854.37,895.3 897.03,908.17 898.68,902.17 855.6,889.74" class="st3"></polygon>
<path d="M818.13,813.38c-4.25-0.17-8.47,0.17-12.49,1.61" class="st5"></path>
<path d="M820.41,817.71c-6.42,4.14-13.78,6.83-20.65,10.14" class="st5"></path>
<path d="M1456.26,870.32c19.59,14.43,77.55,34.82,110.69,37.57c9.02-43.57,37.93-121.95,38.92-162.12
	c1.12-45.54-33.45-99.36-63.99-131.9c-10.76,20.22-23.9,40.11-33.54,60.99c-11.5,24.91-11.71,51.48-13.21,78.48
	c-0.61,11.33-0.53,22.78-1.06,34.28c-0.38,8.28-0.91,16.12-3.47,24.03C1485.46,827.68,1463.3,855.15,1456.26,870.32z" class="st2"></path>
<g>
	<g>
		<path d="M1649.49,754.67c5.85-8.2,60.03-75.63,61.58-80.53c1.1-3.44,0.17-19.36,3.02-23.65
			c2.83-4.25,6.11-13.04,12.13-12.28c2.2-1.67,4.86-5.66,8.26-2.18c2.09,2.13,0.72,4.27-0.11,6.66c4.44-1.52,5.85,4.4,4.97,7.48
			c2.54-0.15,3.87,1.99,4.82,3.93c0.46,0.95-0.17,2.05,0.32,2.96c0.63,1.16,2.22,1.37,2.83,2.6c2.83,5.52-6.09,16.08-9.45,19.42
			c-3.42,3.4-10.82,6.87-13.44,11.31c-6.17,10.4-37.21,70.92-47.27,84.67L1649.49,754.67z" class="st4"></path>
		<path d="M1727.63,636.99c0,0-0.99,1.08-2.03,2.41c-2.37,3.02-5.3,6.42-7.44,9.61" class="st3"></path>
		<path d="M1734.84,641.62c-1.12,1.97-2.37,3.82-3.68,5.66" class="st3"></path>
		<path d="M1726.89,647.34c-0.36,0.93-1.04,1.71-1.63,2.51" class="st3"></path>
		<path d="M1734.92,652.33c-0.63,1.01-1.18,1.97-2.11,2.73" class="st3"></path>
		<path d="M1740.52,657.64c-0.66,0.76-1.29,1.52-1.99,2.26" class="st3"></path>
		<path d="M1745.15,662.77c-0.44,0.97-1.1,1.73-1.99,2.26" class="st3"></path>
	</g>
	<g>
		<path d="M1721.63,697.24l2.64-4.65c-14.5-6.09-18.68-11.5-18.74-11.56l-2.7,4.69
			C1703.12,685.97,1706.65,690.94,1721.63,697.24z" class="st4"></path>
		<path d="M1707.51,688.57c0.38-3.15,3.23-5.39,6.38-4.99c3.15,0.38,5.39,3.23,4.99,6.38
			c-0.38,3.15-3.23,5.39-6.38,4.99C1709.37,694.55,1707.13,691.7,1707.51,688.57z" class="st4"></path>
		<path d="M1709.18,688.76c0.27-2.22,2.28-3.8,4.52-3.53c2.22,0.27,3.8,2.28,3.53,4.52c-0.27,2.22-2.28,3.8-4.52,3.53
			C1710.49,693.01,1708.93,690.98,1709.18,688.76z" class="st10"></path>
	</g>
</g>
<path d="M1561.47,542.87c2.07-5.49,6.97-8.43,10.93-12.78c4.59-5.03,9.17-10.06,13.78-15.09
	c3.87-4.25,7.86-8.69,9.42-14.2c1.56-5.52-0.11-12.43-5.24-14.96c-12.81-6.34-27.51-7.48-41.42-4.18
	c-13.9,3.3-26.75,12.02-33.64,24.55c-7.35,13.4-5.92,30.09-0.19,44.25c5.73,14.16,17.24,25.89,31.32,31.87
	c5.47-10.86,12.02-18.36,14.75-30.22" class="st6"></path>
<g>
	<path d="M1566.19,562.42c-7.97,0.7-17.88-7.31-17.43-15.93c0.4-7.71,10.38-10,14.94-4.29" class="st4"></path>
	<path d="M1563.86,551.58c-0.4-4.67-7.33-4.94-9.78-1.73" class="st3"></path>
	<path d="M1563.74,551.01c-1.9-2.2-4.84,0.99-5.09,3" class="st3"></path>
</g>
<path d="M1557.27,772.19c-13.27,41.35-20.73,87-42.52,124.02" class="st5"></path>
<polygon points="1513.4,827.2 1556.76,838.16 1558.14,832.08 1514.39,821.57" class="st2"></polygon>
<path d="M1034.01,1110.27c4.04-5.11,7.97-9.72,11.2-15.26" class="st5"></path>
<path d="M1042.34,1111.69c9.72-6.36,19.21-12.95,28.68-19.69" class="st5"></path>
<path d="M1460.19,1088.4c6.64,4.37,13,9.11,19.1,14.16" class="st5"></path>
<path d="M1706.73,951.74c5.56-6.38,11.58-15.62,19.27-19.99" class="st5"></path>
<path d="M1715.12,954.66c4.46-3.53,9.15-6.7,14.09-9.47" class="st5"></path>
<path d="M1566.61,939.45c-11.5,1.04-22.8,3.02-33.96,5.94" class="st5"></path>
<path d="M1585.48,933.82c6.76-4.97,13.19-10.5,19.34-16.21" class="st5"></path>
<g>
	<path d="M520.26,672.39c-0.61,0.06-1.18,0.3-1.73,0.61c0.21-1.56,0.02-3.06-1.48-3.99c-1.78-1.1-3.28-0.36-4.69,0.63
		c-0.02-0.46-0.08-0.91-0.19-1.33c-1.39-5.43-6.32-2.94-9-0.08c-0.15-1.84-0.55-3.25-1.27-3.87c-3.72-3.04-6.93,2.3-8.85,6.68l0,0
		l0,0c-0.23,0.53-0.44,1.04-0.63,1.52c-1.16,0.04-2.28,0.17-3.3,0.53c-8.47,2.96-3.25,21.24,0.85,30.3c1.16,2.6,1.67,5.14,1.56,8.01
		c-0.11,2.96-1.25,10.99-1.75,13.9c-1.37,7.86-22.51,70.41-22.51,70.41l30.41,15.64c0,0,11.09-90.34,13.48-98.79
		c0.8-2.83,2.83-5.28,4.25-7.82c1.61-2.85,3.42-5.79,4.8-8.77c1.18-2.56,1.39-5.6,2.01-8.35
		C522.88,684.66,527.32,671.65,520.26,672.39z" class="st7"></path>
	<polyline points="492.77,699.24 487.89,678.62 492.85,674.6 493.32,670.82 498.28,665.94 514.13,675.85" class="st3"></polyline>
	<path d="M522.9,678.49c-0.44,2.92-3.63,7.9-5.77,9.91c-5.03,4.78-4.69-3.17-3.68-6.42c0.97-3.06,3.19-8.96,7.02-9.28
		c7.08-0.59,2.37,12.32,1.65,15.32c-0.66,2.73-0.95,5.77-2.18,8.3c-1.44,2.96-3.32,5.85-4.97,8.66c-1.46,2.49-3.55,4.9-4.42,7.73
		c-1.33,11.77-11.52,85.75-12.89,98.66" class="st3"></path>
	<path d="M511.62,670.53c1.75-1.25,3.55-2.68,5.73-1.27c2.32,1.5,1.39,4.37,0.76,6.61c-1.04,3.59-2.58,7.5-5.03,10.38
		c-1.9,2.22-4.97,3.89-6.11,0.15C505.61,682,508.15,675.72,511.62,670.53z" class="st4"></path>
	<path d="M502.28,669.68c2.09-3.21,8.71-7.63,10.21-1.2c0.8,3.47-1.67,8.37-3.02,11.52c-0.99,2.32-4.5,10.25-7.25,5.62
		C499.91,681.68,501.75,675.77,502.28,669.68z" class="st4"></path>
	<path d="M491.56,675.09c1.06-2.75,5.56-15.19,10.73-10.78c3.21,2.75-0.42,22-5.05,20.62
		c-3.44-1.01-0.8-14.45,0.02-16.84" class="st4"></path>
	<path d="M505.11,700.24c0.38-3.57-2.77-8.98-5.11-11.73c-0.99-1.18-2.28-2.2-3.21-3.38c-1.42-1.8-2.32-4.16-4.01-5.79
		c2.89,1.75,7.16,0.74,9.78-0.99c1.31-0.89,3.82-3.57,2.87-5.58c-0.68-1.44-3.4-0.59-4.78-0.38c-3.49,0.53-7.86-0.7-11.28,0.4
		c-8.54,2.79-3.68,21.17,0.21,30.32c2.13,5.01,1.12,8.98-0.25,13.99c-1.48,5.39-2.87,10.8-4.23,16.21
		c-0.95,3.8-16.88,58.62-17.81,62.42" class="st4"></path>
</g>
<path d="M407.61,937.73c24.77-33.43,59.57-67.81,85.2-100.88c6.3-8.11,6.76-17.56,8.18-27.34
	c3.82-26.41,9.7-57.16,10.97-83.87c-9.09-3.78-18.7-5.41-28.38-3.61c-3.23,11.98-20.65,75.42-22.84,81.69
	c0,0-68.53,55.94-78.44,61.79" class="st4"></path>
<path d="M406.72,925.29c24.49-33.32,53.84-58.83,79.18-91.82c6.21-8.09,6.68-17.52,8.05-27.3
	c2.83-20.1,6.85-42.71,9.13-64.13" class="st5"></path>
<path d="M509.48,744.08c-10.19-3.97-21-5.58-31.95-3.44" class="st5"></path>
<path d="M397.57,798.27c1.01,10.33,5.18,21.24,12.28,28.93c-9.32,4.5-20.43-0.34-25.63-8.73
	c2.01,5.79,6.13,9.59,9.47,14.35c-7.61-1.06-16.84-6.4-19.72-13.74c-2.73-6.97-1.56-14.2,2.64-20.29
	C381.97,791,391.42,786.62,397.57,798.27z" class="st6"></path>
<path d="M402.45,1253.95c0,0,6.42,85.12,1.14,105.21c-2.79,10.63-41.61,166.45-41.52,173.76
	c0.15,11.9,11.37,29.1,20.9,50.31c11.12,24.75-21.51,9.87-29.52,1.18c-7.1-7.69-6.85-15.4-11.9-24.32
	c-5.05-8.92-14.67-14.6-13.84-25.84c0.72-9.74,10.65-14.71,13.95-23.56c5.87-15.87,5.62-56,5.07-72.73
	c-0.42-13.1-0.02-25.89,2.24-38.61c3.87-21.68,12.47-42.35,9.91-65.34c-3.21-28.93-13.06-61.81-16.99-90.65" class="st4"></path>
<path d="M379.25,1574.36c6.25,5.81,27.7,22.51,29.31,23.92c2.51,2.2,0.06,3.49-3.23,4.04
	c-9.45,1.56-44.67-2.39-50.29-6.66c-7.18-5.45-8.52-13.44-11.33-21.53c-2.66-7.65-5.11-15.76-10.5-20.16
	c-1.78,14.81-2.56,25.57-4.06,40.17c-1.58-0.87-3.47-1.97-5.28-2.24c0,0,0.57-24.01-0.38-35.08c-1.16-13.42-2.03-22.06,7.9-31.66
	c4.8,12.15,13.55,25.21,21.26,35.82C358.84,1569.5,368.49,1573.79,379.25,1574.36z" class="st2"></path>
<path d="M367.44,1268.23c-9.4,21.89-18.81,43.78-28.21,65.66c-3.44,8.03-7.04,16.25-13.08,22.55
	c-9.55,9.93-22.59,13.69-35.73,17.79c-10.48,3.25-166.39,23.5-173.13,26.33c-10.97,4.61-22.67,21.47-38.76,38.29
	c-18.74,19.61-17.24-16.21-12.21-26.9c4.46-9.49,11.69-12.13,18.05-20.18c6.36-8.03,8.01-19.08,18.74-22.55
	c9.3-3,17.64,4.33,27.09,4.04c16.91-0.53,58.01-18.36,73.31-25.17c13.63-6.06,28.95-10.1,44-12.7c11.77-2.03,37.3-3.55,40.15-7.29
	c1.31-1.71,2.13-3.76,2.77-5.83c10.67-34.91,18.62-70.66,23.69-106.8" class="st4"></path>
<path d="M85.35,1432.06c-3.02,7.97-10.42,34.13-11.14,36.16c-1.1,3.15-3.21,1.35-4.94-1.48
	c-5.01-8.16-14.6-42.28-12.74-49.11c2.35-8.71,9.26-12.93,15.68-18.6c6.06-5.35,12.68-10.67,14.73-17.33
	c-14.39,3.93-24.64,7.25-38.73,11.37c0.19-1.8,0.53-3.95,0.08-5.75c0,0,22.44-8.49,32.35-13.55c11.98-6.13,19.69-10.19,32.29-4.59
	c-9.45,9.02-18.26,22.04-25.19,33.18C82.16,1411.31,81.82,1421.9,85.35,1432.06z" class="st2"></path>
<path d="M323.74,891.52c8.66-17.73,22.04-35.31,22.72-55.77c0.49-14.67-0.93-30.45-3.06-44.97
	c11.26,2.03,30.73,13.23,41.97,15.34c0,0-0.85,27.37,9.19,60.01" class="st4"></path>
<path d="M313,748.12c4.14-19.67,21.7-32.63,44.29-33.54c4.97-0.19,9.97,0.13,14.88,0.97
	c15.26,2.64,29.18,11.33,34.13,26.63c4.88,15.09,1.86,28,14.92,38.88c-3.82,5.28-7.27,4.94-8.64,11.33
	c-1.14,5.26,2.35,12.78-1.84,16.97c-0.02,0.02,0.02-0.04,0,0c-6.11,6.76-28.8,8.47-40.38,7.71c-27.01-1.78-52.03-23.12-57.27-49.81
	C311.71,760.4,311.78,753.97,313,748.12z" class="st7"></path>
<path d="M404.61,756.91c-10.44-4.73-19.1,6.19-19.1,6.19" class="st3"></path>
<path d="M397.59,768.55c0.68,1.97,2.2,3.23,3.44,2.81c1.23-0.42,1.69-2.35,1.01-4.33c-0.68-1.97-2.2-3.23-3.44-2.81
	C397.4,764.65,396.94,766.59,397.59,768.55z"></path>
<path d="M383.5,784.72c-1.65-4.25,0.44-9.02,4.69-10.67s9.02,0.44,10.67,4.69c1.65,4.25-0.44,9.02-4.69,10.67
	C389.94,791.06,385.17,788.95,383.5,784.72z" class="st8"></path>
<path d="M400.61,793.7c3.78,0.17,7.9-0.11,11.88-0.85c-0.63,3.85,0.34,5.41,0.34,9.59
	C412.59,802.45,403.51,805.56,400.61,793.7z" class="st4"></path>
<path d="M337.64,804.82c-12.36-9.11-21.62-22.46-24.58-37.51c-1.35-6.89-1.31-13.33-0.06-19.17
	c4.14-19.67,21.7-32.63,44.29-33.54c4.97-0.19,9.97,0.13,14.88,0.97c15.26,2.64,29.18,11.33,34.13,26.63
	c4.88,15.09,1.86,28,14.92,38.88c-3.82,5.28-7.27,4.94-8.64,11.33c-1.14,5.26,2.35,12.78-1.84,16.97c-0.02,0.02,0.02-0.04,0,0
	c-4.99,5.54-21.03,7.67-33.05,7.86" class="st3"></path>
<path d="M280.29,952.55c7.37,20.39,15.62,49.03,17.96,61.77c2.66,14.33,6.11,27.64,6.83,42.2
	c0.44,9.17,1.8,16.78,10.9,21.28c10.65,5.26,24.28,6.45,35.94,7.31c9.55,0.72,42.88-7.18,45.28-18.66
	c3.02-14.48,6.85-48.52,8.9-63.16c3.76-26.71,6.7-49.11,6.72-64.73c0.02-17.29-19.95-86.43-19.95-86.43
	c-16.63-8.2-41.08-21.91-49.26-24.7c-6.25,4.65-14.24,15.24-14.24,15.24s-37.15-1.14-53.15,6.68" class="st4"></path>
<path d="M345.27,854.37c-10.5-2.58-51.88-1.9-57.69,3.34" class="st5"></path>
<path d="M298.55,926.68c7.31,14.33,15.4,28.4,21.64,43.36c12.15,29.22,13.74,63.1,14.22,95.01" class="st5"></path>
<path d="M399.05,1061.14c5.56,52.68,16.84,234.96,17.01,277.82c-23.05,5.3-94.08,8.77-143.12-6.85
	c17.58-46.68,0.55-149.27,5.28-205.88c1.82-21.74,14.12-53.1,26.29-69.31C318.79,1063.93,382.4,1069.21,399.05,1061.14z" class="st2"></path>
<path d="M296.84,1070.48c15.26,6.57,83.87,13.5,102.13,7.14" class="st5"></path>
<path d="M315.24,1338.68c7.25-101.05-8.96-150.52-4.23-207.15c1.35-16.27,8.6-37.93,17.24-54.58" class="st5"></path>
<path d="M368.13,1080.14c0.78,22.02,1.69,53,2.85,75.02" class="st5"></path>
<path d="M391.48,852.91c-7.67-0.38-12.19,22.93-15.43,28.27c0,0-36.64-29.9-46.66-38.52" class="st4"></path>
<path d="M352.79,1065.03c-2.05-14.05-3.91-28.4-4.18-42.64" class="st5"></path>
<path d="M382.88,1063.36c1.23-9.42,1.39-19.1,3.34-28.42" class="st5"></path>
<path d="M312.07,797.84c2.22,7.21,11.14,22.84,19.88,27.3c6.93,3.53,30.01,7.42,30.01,7.42
	c-6.28-7.37-10.46-21.6-11.09-31.51c1.46,8.35,8.9,19.17,16.91,22.53c-11.07-19.84-11.81-32.97-10.21-51.12
	c0.87-9.89,8.56-12.76,14.75-20.62c7.1-9,11.58-19.72,11.58-19.72c2.28-3.4,4.35-6.95,8.14-5.92c8.16,2.2,13.12,13.69,15.57,20.77
	c-2.28-17.58-14.71-29.25-30.01-35.06c-6.11-2.32-16-4.04-21.83,0.04C286.46,719.97,306.47,779.69,312.07,797.84z" class="st6"></path>
<path d="M357,788.19c0.85,8.64,5.39,25.06,15.45,26.41" class="st3"></path>
<path d="M394.55,726.44c-10.23,0.19-11.41,14.56-14.43,21.66c-2.62,6.17-14.45,21.26-22.57,20.41" class="st3"></path>
<g>
	<path d="M359.62,790.38c-7.73-0.21-16.36-9.04-14.96-17.26c1.25-7.37,11.09-8.45,14.86-2.45" class="st4"></path>
	<path d="M358.6,779.69c0.15-4.54-6.51-5.58-9.19-2.77" class="st3"></path>
	<path d="M358.54,779.14c-1.58-2.32-4.75,0.42-5.22,2.32" class="st3"></path>
</g>
<path d="M354.8,794.23c0.17,3.76,1.8,6.76,3.63,6.68c1.84-0.08,3.21-3.19,3.04-6.97c-0.17-3.76-1.8-6.76-3.63-6.68
	C356,787.34,354.63,790.45,354.8,794.23z" class="st11"></path>
<g>
	<path d="M1265.25,1297.12c2.16-4.61-1.94-10.4-5.33-12.09c-18.64,1.86-53.61-2.68-57.94-1.61
		c-1.33,0.34-2.39,1.33-2.77,2.62c-1.42,4.75-0.49,13.48,6.19,11.69C1205.41,1297.75,1239.77,1304.13,1265.25,1297.12z" class="st2"></path>
	<path d="M1265.02,1301.79c-1.65-4.69-6.85-9.47-11.79-10.65c-3.99-0.95-41.38-6.09-43.49-5.54
		c-4.61,1.23-5.6,6.64-7.99,10.23c-3.42,5.16-8.3,8.47-14.39,9.81c-5.56,1.23-10.25-1.99-15.11-5.11c-2.09,1.71-2.37,6.17-2.13,8.66
		c0.72,8.26,3.7,17.33,7.61,24.6" class="st2"></path>
	<path d="M1259.1,1294.75c-1.56-2.37-4.1-6.61-3.47-9.61c8.01-3,20.62-3.51,28.38,0.4c0,0-8.05,9.02-12.02,12.3
		C1267.85,1301.26,1262.27,1299.55,1259.1,1294.75z" class="st2"></path>
	<path d="M1175,1330.93c5.64-0.27,11.01-1.27,16.52-2.75c8.01-2.13,15.79-5.24,23.71-7.71
		c6.66-2.07,52.64-19.48,68.8-34.93c2.13,1.88,2.98,6.15,3.17,8.77c0,3.02-21.72,14.83-28.13,18.34
		c-15.38,8.39-25.63,11.24-42.26,16.4c-15.17,4.71-20.75,8.33-36.24,11.96C1178.82,1341.43,1175.06,1333.06,1175,1330.93z" class="st6"></path>
	<path d="M1216.8,1282.03c-1.08,2.83-0.66,10.88-0.66,10.88" class="st3"></path>
	<path d="M1223.45,1282.41c-0.49,2.3,0.27,10.84,0.27,10.84" class="st3"></path>
	<path d="M1230.05,1282.52c0.17,2.9,1.01,8.16,1.14,11.07" class="st3"></path>
	<path d="M1237.63,1283.34c0,0,1.35,7.88,1.75,10.61" class="st3"></path>
	<path d="M1245.39,1283.89c0,0,1.9,7.04,2.51,10.44" class="st3"></path>
</g>
<path d="M2195.91,447.08c10.4-18.17,25.8-35.9,27.94-57.52c1.54-15.49,1.14-32.33-0.13-47.88
	c11.79,2.94,31.63,16.14,43.43,19.17c0,0,1.12,68.99,6.34,134.71" class="st4"></path>
<path d="M2186.53,304.44c1.25-21.32,17.6-37.7,41.21-42.22c5.18-0.99,10.48-1.46,15.76-1.35
	c16.44,0.34,32.44,7.27,40.07,22.57c7.5,15.07,6.38,29.12,21.83,38.48c-3.17,6.15-6.85,6.36-7.29,13.27
	c-0.36,5.71,4.48,13.06,0.76,18.11c-0.02,0.04,0.02-0.04,0,0c-5.33,8.07-28.89,13.46-41.19,14.5
	c-28.63,2.41-58.28-16.02-68.02-43.24C2187.14,317.54,2186.17,310.78,2186.53,304.44z" class="st7"></path>
<path d="M2284.13,299.16c-11.73-3.3-19.08,9.53-19.08,9.53" class="st3"></path>
<path d="M2278.62,312.49c1.01,1.97,2.83,3.04,4.06,2.41c1.23-0.63,1.39-2.75,0.38-4.69c-1.01-1.97-2.83-3.04-4.06-2.41
	C2277.77,308.42,2277.6,310.53,2278.62,312.49z"></path>
<path d="M2266.36,331.7c-2.41-4.18-0.97-9.55,3.23-11.96c4.18-2.41,9.55-0.97,11.96,3.23
	c2.41,4.21,0.97,9.55-3.23,11.96C2274.14,337.32,2268.77,335.89,2266.36,331.7z" class="st8"></path>
<path d="M2285.76,338.42c3.99-0.42,8.28-1.35,12.34-2.77c-0.06,4.14,1.2,5.62,1.88,10.02
	C2299.73,345.71,2290.68,350.42,2285.76,338.42z" class="st4"></path>
<path d="M2221.39,360.06c-14.41-7.59-26.25-20.16-31.74-35.5c-2.51-7.02-3.49-13.8-3.11-20.12
	c1.25-21.32,17.6-37.7,41.21-42.22c5.18-0.99,10.48-1.46,15.76-1.35c16.44,0.34,32.44,7.27,40.07,22.57
	c7.5,15.07,6.38,29.12,21.83,38.48c-3.17,6.15-6.85,6.36-7.29,13.27c-0.36,5.71,4.48,13.06,0.76,18.11c-0.02,0.04,0.02-0.04,0,0
	c-4.35,6.59-20.86,11.39-33.47,13.5" class="st3"></path>
<path d="M2224.52,361.98c5.58-3.72,8.69-15.53,10.46-21.77c1.42-4.94,0.11-10.63,1.42-15.36
	c2.71-9.74,16.14-13.04,17.24-23.54c-0.11,4.99,0.34,8.39-2.75,14.73c15.89-11.05,28-22.67,25.4-36.45
	c1.35,4.23,6.59,10.67,5.66,15.45c6.11-12.64-3.11-25.8-13.97-31.32c-9.17-4.67-21.26-6.25-31.4-6.15
	c-19.46,0.19-35.84,11.73-46.21,27.43c-8.26,12.51-6.28,29.84-0.78,43c3.02,7.23,7.44,13.36,13.29,18.55
	C2204.95,348.4,2222.81,363.12,2224.52,361.98z" class="st6"></path>
<g>
	<path d="M2242.16,341.42c-8.16,0.99-18.62-6.91-18.45-15.76c0.15-7.95,10.31-10.63,15.21-4.92" class="st4"></path>
	<path d="M2239.42,330.37c-0.57-4.8-7.71-4.82-10.1-1.46" class="st3"></path>
	<path d="M2239.27,329.8c-2.03-2.2-4.94,1.18-5.11,3.28" class="st3"></path>
</g>
<path d="M2190.94,700.74c22.08,9.36,70.6-3.55,107.33-13.12c15.74-4.1,25.04-20.37,20.58-36.01
	c-11.64-40.91-28.53-64.11-35.06-108.43" class="st4"></path>
<path d="M2056.61,934.25c-18.43,1.06-36.71,1.23-54.71,4.5c-23.1,4.21-39.69,42.58-44.17,62.7
	c-2.64,11.85-10.42,25.06-16.57,5.49c-4.69-14.9-3.49-23.03,1.71-37.47c4.71-13.12,2.41-24.32,1.71-37.51
	c-0.85-15.98,9.11-19,23.52-18.15c29.69,1.75,59.8-6.28,89.77-14.35" class="st4"></path>
<path d="M2279.02,648.76c5.3,60.73-0.72,176.96-20.96,236.17c-3.04,8.88-6.47,17.48-10.31,25.91
	c-4.42,9.68-13.67,23.94-25.91,25.51c-15.32,6.64-45.31,6.51-61.37,6.85c-46.53,1.01-89.32-2.16-132.85,0.95
	c-12.45-14.52-9.38-39.05-7.48-50.4c43.85-6.32,77.05-7.06,120.66-14.81c13.88-2.47,40.76-5.3,45.54-7.82
	c5.26-2.75-0.7-10.88,8.94-8.09c-0.68-58.45-31.4-164.61-43.59-223.78" class="st2"></path>
<path d="M2019.5,913.03c43.85-6.32,86.77-10.1,130.38-17.84c13.88-2.47,40.76-5.3,45.54-7.82
	c5.26-2.75-0.7-10.88,8.94-8.09c-0.68-58.45-8.79-156.56-20.98-215.73" class="st5"></path>
<g>
	<path d="M2424.87,431.44c-0.57-0.3-1.18-0.4-1.84-0.42c1.06-1.23,1.73-2.64,0.93-4.29c-0.93-1.94-2.64-2.13-4.42-2.05
		c0.23-0.4,0.44-0.82,0.57-1.27c1.8-5.47-3.85-6.04-7.76-5.05c0.89-1.67,1.33-3.13,1.04-4.04c-1.54-4.69-7.27-1.84-11.35,0.89l0,0
		l0,0c-0.49,0.34-0.95,0.66-1.39,0.97c-1.04-0.59-2.07-1.1-3.15-1.37c-8.98-2.13-14.56,16.59-16.04,26.71
		c-0.42,2.9-1.39,5.37-3.06,7.8c-1.71,2.49-7.16,8.83-9.21,11.07c-5.54,6.04-7.37,8.35-13.59,13.74l1.33,1.01l-0.91,0.85
		l16.31,12.47c0,0,15.66-21.26,22.42-27.26c2.26-2.01,5.39-3,8.01-4.42c2.96-1.58,6.17-3.13,9-4.94c2.43-1.56,4.31-4.08,6.34-6.13
		C2420.35,443.51,2431.4,434.72,2424.87,431.44z" class="st7"></path>
	<polyline points="2386.2,439.49 2393.38,418.93 2399.89,418.19 2402.41,415.17 2409.4,413.71 2417.64,431.04" class="st3"></polyline>
	<path d="M2423.77,438.18c-2.01,2.26-7.52,4.84-10.48,5.41c-6.99,1.35-2.3-5.35,0.36-7.59c2.54-2.11,7.71-6,11.2-4.14
		c6.47,3.4-4.78,11.98-7.04,14.16c-2.07,1.99-4.02,4.48-6.47,5.98c-2.87,1.78-6.11,3.23-9.11,4.75c-2.66,1.35-5.79,2.28-8.09,4.25
		c-7.65,9.45-16.08,19.86-24.41,30.3" class="st3"></path>
	<path d="M2418.4,425.04c2.2-0.11,4.56-0.38,5.66,2.07c1.18,2.6-1.2,4.56-3,6.15c-2.9,2.54-6.38,5.07-10.08,6.19
		c-2.87,0.87-6.47,0.63-5.37-3.25C2406.86,431.68,2412.53,427.64,2418.4,425.04z" class="st4"></path>
	<path d="M2410.79,419.14c3.59-1.63,11.75-1.8,9.51,4.59c-1.2,3.44-6.09,6.32-8.98,8.3c-2.16,1.46-9.57,6.38-9.38,0.87
		C2402.09,428.23,2406.97,424.13,2410.79,419.14z" class="st4"></path>
	<path d="M2398.52,417.92c2.43-1.8,13.21-10.08,15.26-3.4c1.27,4.14-12.53,18.81-15.79,15.07
		c-2.41-2.79,7.31-12.95,9.34-14.58" class="st4"></path>
	<path d="M2396.34,447.17c2.3-2.9,2.56-9.32,2.05-12.97c-0.21-1.56-0.76-3.15-0.91-4.71c-0.23-2.35,0.3-4.88-0.27-7.23
		c1.54,3.11,5.79,4.61,9.02,4.54c1.63-0.04,5.28-0.99,5.58-3.23c0.21-1.63-2.62-2.39-3.93-2.98c-3.3-1.48-6.42-4.97-10-5.9
		c-8.94-2.3-14.9,16.29-16.59,26.37c-0.93,5.52-3.99,8.41-7.97,11.98c-4.27,3.85-8.45,7.76-12.62,11.71
		c-2.92,2.77-5.81,5.54-8.71,8.33" class="st4"></path>
</g>
<path d="M2347.25,518.19c16.65-14.9,46.87-50.04,46.87-50.04c-5.58-8.28-12.64-13.5-20.88-18.81
	c-2.77,1.5-35.33,32.08-43.24,38.73" class="st4"></path>
<path d="M2269.11,455.47c13.02,11.18,37.57,43.87,41.8,43.43c9.76-8.22,50.04-43.93,53.46-45.79
	c10.21,6.55,18.91,13,25.82,23.24c0,0-37.38,43.47-57.96,61.89c-3.8,3.4-13.25,9.47-18.51,10.23c-2.3,0.34-5.24,0.21-7.61-0.17
	c-14.5-2.41-49.24-38.44-49.24-38.44" class="st4"></path>
<path d="M2464.81,947.26c7.61,16.82,14.35,33.81,23.88,49.43c12.24,20.05,54.01,21.72,74.38,18.66
	c12-1.8,27.13,0.7,11.09,13.48c-12.21,9.72-20.22,11.54-35.59,11.88c-13.95,0.32-23.56,6.51-35.63,11.9
	c-14.6,6.53-21-1.67-25.4-15.41c-9.04-28.32-27.37-53.53-45.69-78.59" class="st4"></path>
<path d="M2213.11,389.96c1.65-3.49,5.96-7.86,7.37-11.24c14.52,9.04,31.06,18.96,45.37,27.87
	c2.03,1.27,8.58,4.92,10.33,6.66c0,0,21.68,132.75,2.83,235.51c-13,2.18-26.52,3.23-39.62,3.4L2213.11,389.96z" class="st4"></path>
<path d="M2260.44,655.06c5.81,8.96,40.55,42.92,53.44,53.4c32.42,26.33,64.07,54.1,93.4,83.91
	c11.71,11.92,22.38,39.94,28.46,54.79c17.69,43.04,30.11,84.12,48.69,123.62c-9.07,16.84-33.07,22.8-44.33,25.1
	c-21.66-38.63-39.9-78.5-62.82-116.41c-7.29-12.07-26.16-41.4-30.24-44.97c-4.46-3.91-9.91,4.56-10.76-5.43
	c-34.59-10.21-75.25-31.3-107.79-47.25c-21.26-10.42-42.24-21.28-58.28-38.86c-9.53-10.44-15.72-21.17-19.63-34.59
	c-6.57-22.46,1.9-35.92,10.27-57.46" class="st2"></path>
<path d="M2462.48,989.06c-21.66-38.63-44.74-88.86-67.66-126.77c-7.29-12.07-26.16-41.4-30.24-44.97
	c-4.46-3.91-9.91,4.56-10.76-5.43c-34.61-10.21-143.44-72.38-159.48-89.96c-9.53-10.44-15.72-21.17-19.63-34.59
	c-6.57-22.46,1.9-35.92,10.27-57.46" class="st5"></path>
<path d="M2281.03,430.2c0.93,29.52,1.82,52.09,10.54,75c17.1,44.8,39.18,108.17,6.61,152.84
	c-7.67-5.64-20.58-29.67-20.58-29.67c5.05-20.75,7.99-41.31,5.43-59.51c-3.87-27.68-10.29-55.07-12.07-83.13
	c-0.46-7.14,1.12-38.73,2.51-58.39" class="st9"></path>
<path d="M2264.2,429.79c0,0,5.26,7.63,8.47,11.45c2.35-2.09,5.54-3.44,8.9-2.45c-1.01-6.36,0.57-21.98-6.38-25.36
	C2275.19,413.44,2270.31,416.82,2264.2,429.79z" class="st9"></path>
<path d="M2275.19,413.44c-7.48,5.3-12.13,20.1-16.1,25.48c-13.97-7.29-40.55-32.61-51.71-43.89" class="st4"></path>
<g>
	<g>
		<path d="M2046.76,543.14c-4.31,9.07-19.78,42.47-20.46,47.55c-0.46,3.57,3.23,19.02,1.18,23.73
			c-2.03,4.65-3.7,13.86-9.74,14.16c-1.86,2.03-3.76,6.42-7.73,3.59c-2.43-1.73-1.44-4.06-1.06-6.55c-4.1,2.28-6.51-3.3-6.19-6.47
			c-2.47,0.59-4.14-1.27-5.41-3c-0.63-0.85-0.19-2.05-0.82-2.85c-0.82-1.01-2.41-0.97-3.23-2.05c-3.74-4.9,3.15-16.84,5.85-20.69
			c2.77-3.95,9.4-8.64,11.2-13.44c4.23-11.28,11.69-44.55,19.12-59.8L2046.76,543.14z" class="st4"></path>
		<path d="M2016.59,630.04c0,0,0.78-1.25,1.56-2.73c1.8-3.38,4.06-7.25,5.62-10.73" class="st3"></path>
		<path d="M2008.7,626.78c0.74-2.13,1.65-4.16,2.6-6.19" class="st3"></path>
		<path d="M2015.51,619.77c0.19-0.97,0.72-1.86,1.14-2.77" class="st3"></path>
		<path d="M2006.76,616.28c0.44-1.1,0.8-2.13,1.61-3.04" class="st3"></path>
		<path d="M2000.31,612.08c0.51-0.87,1.01-1.73,1.54-2.58" class="st3"></path>
		<path d="M1994.9,607.85c0.25-1.04,0.78-1.88,1.54-2.58" class="st3"></path>
	</g>
	<g>
		<path d="M2011.89,569.9l-1.78,5.03c15.28,3.42,20.33,8.01,20.41,8.05l1.84-5.07
			C2032.03,577.69,2027.7,573.45,2011.89,569.9z" class="st2"></path>
		<path d="M2027.26,575.94c0.17,3.15-2.24,5.85-5.39,6.02c-3.15,0.17-5.85-2.24-6.02-5.39
			c-0.17-3.15,2.24-5.85,5.39-6.02C2024.38,570.38,2027.09,572.79,2027.26,575.94z" class="st2"></path>
		<path d="M2024.66,576.09c0.11,1.71-1.2,3.17-2.92,3.28c-1.71,0.11-3.17-1.2-3.28-2.92c-0.11-1.71,1.2-3.17,2.92-3.28
			C2023.09,573.07,2024.55,574.38,2024.66,576.09z" class="st10"></path>
	</g>
</g>
<path d="M2040.13,561.38c-1.69,3.02-3.19,7.16-4.42,10.38c0,0-18.64-4.29-24.75-10.69c0,0,2.47-8.77,4.18-12.36" class="st4"></path>
<path d="M2157.47,478.57c6.76,14.79,1.67,75.31-3.97,92.94c-8.64,27.09-30.09,70.79-42.41,96.28
	c16.23,17.67,70.03,28.49,107.41,34.99c16.04,2.79,31.23-8.16,33.66-24.24c6.36-42.05,7.44-84,2.39-117.11
	c-9.47-62.27-22.44-134.23-40.91-178.67c-11.75,6.47-18.11,8.45-31,12.3c-12.7,3.8-24.28,3.57-35.61,11.26
	c-21.34,14.52-70.01,36.98-88.77,54.69l-5.68,6.15c-14.45,23.56-43.11,85.98-43.11,85.98c9.55,7.84,18.09,10.27,29.73,13.63
	c2.77-2.77,37.49-59.36,44.48-70.03c1.52-0.42,3.49,0.61,4.78-1.08c1.8-2.66-0.74-4.31,2.35-5.79
	C2107.83,481.74,2157.47,478.57,2157.47,478.57z" class="st4"></path>
<path d="M2197.89,870.11c2.83,3.8,5.64,7.61,8.47,11.43" class="st5"></path>
<path d="M2189.82,873.52c4.73,9.49,9.13,19.46,14.58,28.59" class="st5"></path>
<path d="M2343.28,826.46c4.29-4.9,12.47-14.33,15.95-19.69" class="st5"></path>
<path d="M2351.54,828.29c10.02-5.9,19.8-12.02,29.58-18.3" class="st5"></path>
<g>
	<path d="M2565.35,1024.14c2.37-4.5-1.46-10.46-4.73-12.32c-18.7,0.97-53.42-5.24-57.82-4.37
		c-1.33,0.27-2.43,1.2-2.9,2.49c-1.65,4.69-1.14,13.44,5.62,11.98C2505.55,1021.92,2539.57,1029.93,2565.35,1024.14z" class="st2"></path>
	<path d="M2564.89,1028.81c-1.42-4.75-6.4-9.78-11.28-11.2c-3.93-1.14-41.04-8.05-43.17-7.61
		c-4.65,0.99-5.92,6.36-8.45,9.83c-3.68,4.99-8.71,8.07-14.83,9.11c-5.6,0.95-10.14-2.47-14.86-5.81c-2.18,1.61-2.64,6.04-2.56,8.56
		c0.34,8.3,2.87,17.5,6.42,24.94" class="st2"></path>
	<path d="M2559.31,1021.48c-1.46-2.43-3.78-6.8-3-9.76c8.14-2.62,20.77-2.54,28.34,1.75c0,0-8.47,8.62-12.59,11.71
		C2567.74,1028.39,2562.27,1026.42,2559.31,1021.48z" class="st2"></path>
	<path d="M2473.58,1053.6c5.64-0.02,11.05-0.74,16.63-1.94c8.11-1.75,16.02-4.48,24.05-6.57
		c6.74-1.75,53.5-16.95,70.39-31.61c2.03,1.99,2.68,6.28,2.75,8.92c-0.15,3.02-22.4,13.78-28.97,16.97
		c-15.76,7.65-26.14,10.02-42.98,14.37c-15.38,3.97-21.13,7.31-36.79,10.23C2476.92,1064.27,2473.56,1055.73,2473.58,1053.6z" class="st6"></path>
	<path d="M2517.68,1006.75c-1.2,2.77-1.18,10.84-1.18,10.84" class="st3"></path>
	<path d="M2524.29,1007.45c-0.59,2.28-0.25,10.84-0.25,10.84" class="st3"></path>
	<path d="M2530.86,1007.87c0.02,2.92,0.63,8.2,0.61,11.12" class="st3"></path>
	<path d="M2538.43,1009.05c0,0,0.97,7.95,1.25,10.69" class="st3"></path>
	<path d="M2546.14,1009.98c0,0,1.56,7.12,2.01,10.54" class="st3"></path>
</g>
<g>
	<path d="M1949.24,999.08c3.28,3.87,10.25,2.58,13.21,0.23c6.13-17.69,24.91-47.55,25.74-51.94
		c0.25-1.33-0.21-2.7-1.23-3.61c-3.74-3.28-12.04-6.11-13.21,0.72C1973.75,944.48,1953.55,973,1949.24,999.08z" class="st2"></path>
	<path d="M1945.1,996.9c4.94,0.46,11.47-2.26,14.62-6.25c2.54-3.21,22.89-35.02,23.24-37.15
		c0.82-4.69-3.68-7.86-5.94-11.54c-3.23-5.26-4.21-11.09-2.87-17.16c1.23-5.56,6.09-8.47,10.97-11.58
		c-0.68-2.62-4.61-4.73-6.97-5.58c-7.82-2.81-17.29-3.91-25.53-3.4" class="st2"></path>
	<path d="M1953.97,994.47c2.81-0.42,7.73-0.95,10.19,0.89c-0.63,8.54-5.45,20.2-12.26,25.59c0,0-4.82-11.09-6.13-16.08
		C1944.4,999.69,1948.29,995.36,1953.97,994.47z" class="st2"></path>
	<path d="M1956.38,902.97c-2.11,5.24-3.47,10.52-4.44,16.14c-1.42,8.18-1.86,16.52-2.94,24.75
		c-0.91,6.91-4.37,55.96,2.87,77.11c-2.6,1.14-6.83,0.13-9.3-0.8c-2.75-1.27-4.37-25.93-4.86-33.24
		c-1.16-17.5,0.53-27.98,2.81-45.24c2.09-15.74,1.14-22.31,4.33-37.93C1945.24,902.04,1954.42,902.13,1956.38,902.97z" class="st6"></path>
	<path d="M1983.26,961.4c-2.11-2.16-9.59-5.16-9.59-5.16" class="st3"></path>
	<path d="M1980.13,967.3c-1.88-1.39-9.97-4.31-9.97-4.31" class="st3"></path>
	<path d="M1977.26,973.24c-2.7-1.08-7.84-2.49-10.54-3.61" class="st3"></path>
	<path d="M1973.33,979.79c0,0-7.71-2.07-10.38-2.85" class="st3"></path>
	<path d="M1969.59,986.59c0,0-7.18-1.23-10.54-2.11" class="st3"></path>
</g>
<path d="M1594.5,488.86c5.9,5.26,5.9,14.88,2.2,21.85c-3.72,6.97-10.25,11.9-16.61,16.59
	c-5.11,3.8-12.57,9.81-17.69,13.59" class="st3"></path>
<path d="M1517.08,552.27c-0.61,10-11.6,14.37-19.08,11.54c-6.59-2.51-9.23-8.43-11.33-14.86
	c-5.16-15.85,5.24-31.38,22.38-24.15C1513.25,526.58,1521.43,546.31,1517.08,552.27z" class="st12"></path>
<path d="M2160.55,476.01c0-37.09-8.9-69.14-8.9-69.14" class="st5"></path>
<path d="M2199.65,389.67c-3.15,13.5,0.95,44.8,0.95,44.8s16.82,2.94,22.25,3.28c-3,7.46-12.87,16.27-12.87,16.27
	s11.85,37.61,17.77,54.98c7.25,21.3,17.64,43,25.44,66.12" class="st3"></path>
<circle r="2.62" cy="733.86" cx="506.86" class="st5"></circle>
<circle r="2.62" cy="861.32" cx="389.07" class="st5"></circle>
<circle r="2.62" cy="898.51" cx="398.94" class="st5"></circle>
<circle r="2.62" cy="935.14" cx="406.72" class="st5"></circle>
<circle r="2.62" cy="970.93" cx="404.12" class="st5"></circle>
<circle r="2.62" cy="1011.61" cx="399.43" class="st5"></circle>
<circle r="2.62" cy="1049.16" cx="394.55" class="st5"></circle>
<path d="M462,808.73c2.47,2.11,4.92,4.23,7.4,6.34" class="st5"></path>
<path d="M466.2,805.58c4.59,2.81,9.17,5.62,13.74,8.45" class="st5"></path>
<path d="M2080.51,490.89c-3.51-3.19-7.02-6.38-10.52-9.57" class="st5"></path>
<line y2="471.78" x2="2076.37" y1="491.31" x1="2085.47" class="st5"></line>
<path d="M2204.4,533.26c0,0-4.59,39.16-8.26,54.24c-8.49,34.76-16.97,69.52-25.46,104.28" class="st5"></path>
<polygon points="2169.01,613.26 2212.52,622.96 2213.7,616.85 2169.83,607.64" class="st4"></polygon>
<line y2="518.19" x2="2313.19" y1="503.48" x1="2309.32" class="st5"></line>
<path d="M2313.19,501.79c4.9,7.46,12.97,19.15,12.97,19.15" class="st5"></path>
<path d="M1554.14,667.42c14.86,7.35,29.22,22.63,40.53,35.56c13.04,14.9,27.32,32.48,43.83,43.43
	c-0.4-0.25,2.56-1.82,2.85-1.88c2.7-0.55,2.64-0.49,4.52,1.23c4.27,0.06,38.04-42.22,41.97-47.63c10.8-0.85,21.87,5.73,29.69,15.87
	c0,0-25.72,48.64-41.65,75.97c-5.11,8.77-13.4,12.91-25.08,12.26c-5.9-0.34-30.54-13.52-35.59-16.4
	c-20.12-11.47-33.13-21.41-67.98-46.02" class="st2"></path>
<path d="M1646.38,751.38c1.5,4.37,2.6,8.85,3.21,13.44" class="st5"></path>
<path d="M1640.3,751.57c-0.23,8.6-0.4,16.84,0.04,25.36" class="st5"></path>
<path d="M1578.15,761.54c-10.67-8.03-23.14-10.27-35.12-15.74" class="st5"></path>
<g>
	<path d="M172.71,1146.68c24.51,8.01,16.95,41.06,16.95,41.06c-1.44,7.9-5.56,10.61-5.56,10.61l-0.85,11.83l7.04,2.3
		l6.95-12.91c0,0-1.99-5.81-0.51-11.31c0,0,11.22-37.83-21.74-48.6c-32.99-10.78-46.26,26.39-46.26,26.39
		c-2.05,5.3-7.08,8.83-7.08,8.83l-2.01,14.52l7.04,2.3l6.32-10.06c0,0-1.73-4.63,1.78-11.85
		C134.8,1169.82,148.2,1138.67,172.71,1146.68z" class="st2"></path>
	<path d="M60.03,1171.94c1.25-3.23,7.63-7.31,10.93-6.23l172.67,56.4c3.3,1.08,5.87,8.94,4.97,12.28" class="st2"></path>
	<path d="M206.58,1364.7l-189.91-62.04c-3.28-1.08-4.99-4.67-3.76-7.9l46.79-122.1c1.25-3.23,4.8-4.92,8.07-3.85
		l176.58,57.67c3.3,1.08,5.16,4.54,4.25,7.88l-34.32,126.18C213.37,1363.87,209.86,1365.75,206.58,1364.7z" class="st2"></path>
	
		<rect height="10.27" width="125.84" class="st3" transform="matrix(0.3105 -0.9506 0.9506 0.3105 -1133.9336 961.3556)" y="1257.18" x="32.79"></rect>
	
		<rect height="10.27" width="125.84" class="st3" transform="matrix(0.3105 -0.9506 0.9506 0.3105 -1107.0035 1044.6901)" y="1280.28" x="103.7"></rect>
	<path d="M173.6,1143.98c27.32,8.92,18.87,45.75,18.87,45.75c-1.61,8.81-6.19,11.83-6.19,11.83l-0.93,13.19l7.84,2.56
		l7.76-14.39c0,0-2.2-6.49-0.57-12.59c0,0,12.51-42.16-24.24-54.16c-36.75-12-51.54,29.42-51.54,29.42c-2.28,5.92-7.9,9.85-7.9,9.85
		l-2.22,16.19l7.84,2.56l7.04-11.2c0,0-1.94-5.16,1.99-13.21C131.35,1169.76,146.27,1135.06,173.6,1143.98z" class="st2"></path>
	<path d="M118.67,1206.89l-8.79-2.87c-1.9-0.61-2.96-2.68-2.32-4.59l2.87-8.79c0.61-1.9,2.68-2.96,4.59-2.32l8.79,2.87
		c1.9,0.61,2.96,2.68,2.32,4.59l-2.87,8.79C122.63,1206.46,120.58,1207.5,118.67,1206.89z M111.62,1200.25l7.88,2.58l2.58-7.88
		l-7.88-2.58L111.62,1200.25z M122.52,1195.1L122.52,1195.1L122.52,1195.1z" class="st4"></path>
	<path d="M178.46,1222.59l2.87-8.79c0.61-1.9,2.68-2.96,4.59-2.32l8.79,2.87c1.9,0.61,2.96,2.68,2.32,4.59l-2.87,8.79
		c-0.61,1.9-2.68,2.96-4.59,2.32l-8.79-2.87C178.88,1226.56,177.84,1224.49,178.46,1222.59z M192.97,1218.11l-7.88-2.58l-2.58,7.88
		l7.88,2.58L192.97,1218.11z M184.65,1215.38L184.65,1215.38L184.65,1215.38z" class="st4"></path>
</g>
<g>
	<g>
		<path d="M227.93,1032.78c-3.38,10.16-32.5,86.07-32.54,91.52c-0.04,3.85,5.87,19.72,4.31,24.98
			c-1.54,5.2-2.11,15.15-8.49,16.27c-1.71,2.39-3.17,7.29-7.71,4.8c-2.79-1.52-2.05-4.12-1.97-6.8c-4.04,2.94-7.31-2.64-7.4-6.04
			c-2.54,0.93-4.54-0.82-6.13-2.47c-0.78-0.82-0.46-2.13-1.25-2.9c-1.01-0.97-2.68-0.72-3.68-1.75c-4.59-4.71,1.16-18.24,3.53-22.67
			c2.43-4.54,8.85-10.38,10.14-15.68c3.02-12.49,14.05-76.22,19.97-93.38L227.93,1032.78z" class="st4"></path>
		<path d="M190.16,1167.24c0,0,0.68-1.42,1.31-3.09c1.46-3.8,3.38-8.2,4.56-12.09" class="st3"></path>
		<path d="M181.39,1164.81c0.53-2.35,1.2-4.63,1.97-6.91" class="st3"></path>
		<path d="M187.69,1156.49c0.06-1.06,0.53-2.07,0.85-3.06" class="st3"></path>
		<path d="M177.97,1153.93c0.32-1.23,0.59-2.37,1.31-3.42" class="st3"></path>
		<path d="M170.62,1150.3c0.42-0.99,0.85-1.97,1.31-2.92" class="st3"></path>
		<path d="M164.32,1146.54c0.15-1.12,0.57-2.09,1.31-2.92" class="st3"></path>
	</g>
	<g>
		<path d="M177.42,1104.15l-1.23,5.56c16.63,1.65,22.57,5.85,22.65,5.9l1.29-5.62
			C199.78,1109.81,194.64,1105.86,177.42,1104.15z" class="st6"></path>
		<path d="M194.49,1108.54c0.59,3.32-1.61,6.49-4.92,7.08s-6.49-1.61-7.08-4.92c-0.59-3.32,1.61-6.49,4.92-7.08
			S193.88,1105.24,194.49,1108.54z" class="st6"></path>
		<path d="M193.08,1108.79c0.46,2.54-1.23,4.97-3.78,5.43c-2.54,0.46-4.97-1.23-5.43-3.78
			c-0.46-2.54,1.23-4.97,3.78-5.43C190.21,1104.57,192.64,1106.26,193.08,1108.79z" class="st10"></path>
	</g>
</g>
<path d="M278.73,848.31c-13.08,3.57-24.91,23.5-34.89,44.08c-10.54,21.74-29.58,54.37-37.28,77.3
	c-8.77,26.1-23.22,78.61-31.59,121.17c11.16,5.24,33.28,9.53,33.28,9.53c13.63-40.59,27.87-76.31,39.62-108.02l46.68-53.19" class="st4"></path>
<path d="M296.84,937.73c5.18-23.92-1.92-68.97-13.42-87.55" class="st5"></path>
<path d="M178.54,1072.45c12.28,5.45,36.47,10.14,36.47,10.14" class="st5"></path>
<path d="M207.98,1081.09c11.66-33.24,23.43-63.04,33.41-89.98l57.16-64.41" class="st5"></path>
<path d="M209.01,1090.39c0.27-1.42-0.66-2.79-2.07-3.06c-1.42-0.27-2.79,0.66-3.06,2.07s0.66,2.79,2.07,3.06
	C207.39,1092.73,208.74,1091.8,209.01,1090.39z" class="st5"></path>
<path d="M244.49,991.98c-6.47-3.63-14.77-8.14-20.67-12.64" class="st5"></path>
</svg>
