<svg xml:space="preserve" style="enable-background:new 0 0 5544.66 3743.78;" viewBox="0 0 5544.66 3743.78" y="0px" x="0px" xmlns:xlink="http://www.w3.org/1999/xlink" xmlns="http://www.w3.org/2000/svg" id="레이어_1" version="1.1">
<style type="text/css">
	.st0{fill:#99BFE0;}
	.st1{fill:#13345B;stroke:#000000;stroke-width:1.5;stroke-linecap:round;stroke-linejoin:round;stroke-miterlimit:10;}
	.st2{fill:none;stroke:#000000;stroke-width:0.75;stroke-linecap:round;stroke-linejoin:round;stroke-miterlimit:10;}
	.st3{fill:#FFFFFF;stroke:#000000;stroke-width:1.5;stroke-linecap:round;stroke-linejoin:round;stroke-miterlimit:10;}
	.st4{fill:none;stroke:#000000;stroke-width:1.5;stroke-linecap:round;stroke-linejoin:round;stroke-miterlimit:10;}
	.st5{fill:#FFFFFF;}
	.st6{fill:#F4B5B5;}
	.st7{fill:#F2555D;stroke:#000000;stroke-width:1.5;stroke-linecap:round;stroke-linejoin:round;stroke-miterlimit:10;}
	.st8{stroke:#000000;stroke-width:1.5;stroke-linecap:round;stroke-linejoin:round;stroke-miterlimit:10;}
	.st9{fill:#D4D4D4;stroke:#000000;stroke-width:1.5;stroke-linecap:round;stroke-linejoin:round;stroke-miterlimit:10;}
</style>
<rect height="3738.59" width="5607.91" class="st0"></rect>
<path d="M5276.07,3699.07l-539.34-5.67c0,0-5.84-405.91,35.09-743.05c6.1,0.9,70.19-49.98,74.84-53.56l469.07,67.2
	c0,0,66.78,159.1,60.04,461.43c-2.05,92.7-12.03,184.9-17.1,276.96C5309.59,3699.11,5326.35,3699.07,5276.07,3699.07z" class="st1"></path>
<path d="M5248.01,2964.08c0,0,66.78,159.1,60.04,461.43c-2.05,92.7-12.02,184.9-17.1,276.96" class="st2"></path>
<path d="M4742.53,3015.42c0,0,288.13,55.05,619.68,10.92" class="st2"></path>
<path d="M4854.42,3049.58c0,0-16.29,129.51-20.98,253.89" class="st2"></path>
<path d="M5132.32,3057.55c0,0,16.29,129.51,20.98,253.89" class="st2"></path>
<path d="M5283.79,2015.88c0,0-203.79,18.76-222.47-12.75c-9.13-15.44-31.09-118.84-32.07-124.6
	c-34.33,18.46-112.06,66.05-146.26,84.82c3.37-1.71,20.3,45.54,1.49,62.81c-20.94,19.19-167.29,21.32-167.29,21.32l71.6,385.57
	l514.78-182.94L5283.79,2015.88z" class="st3"></path>
<path d="M5070.62,2000.91c0,0-61.36,67.29-113.34,103.49c-22.64-23.75-52.71-67.2-74.54-92.53l-51.17,11.39v539.9
	h336.15l-29.12-557.64L5070.62,2000.91z" class="st3"></path>
<path d="M4858.05,2078.65c10.79,19.96,12.49,79.53,33.13,103.71c0,0,48.44-71.64,68.23-73.52
	c25.88-2.43,79.02,76.29,79.02,76.29s37.57-51.64,62.68-116.88" class="st4"></path>
<path d="M5377.6,2505.2c-16.12,125.92-23.2,388.69-12.88,560.58c-104.6,23.28-369.54,20.13-369.54,20.13
	c-13.39-99.19-29.47-111.89-34.16-211.89c-1.96-41.15-8.06-279.31-8.96-358.92c0,0,54.07-94.71,104.94-244.47
	c39.62-116.58,52.15-273.21,52.15-273.21c59.1,0,232.06,7.72,232.06,7.72c32.49,0,52.15,5.5,77.95,29.85
	c71.68,67.72,108.7,302.51,124.69,389.88" class="st1"></path>
<path d="M4974.59,2496.68c180.8-124.73,216.67-327.28,216.67-327.28l-58.16-36.76l54.16-33.9
	c-5.88-27.72-22.39-76.12-32.88-105.71" class="st4"></path>
<g>
	<g>
		<path d="M5270.57,2426.15c-17.44-22.73-56.46-84.65-60.13-86.52c0,0-11.22,3.16-31.21-1.24
			c-29.25-6.44-30.7-36.63-43.71-59.7c-10.75,5.12-38.42,22.39-51.17,22.39c-20.68,0-25.84-31.94-21.92-77.78
			c1.92-22.39,9.68-41.66,37.31-44.77l60.94-13.9l164.56,230.27L5270.57,2426.15z" class="st3"></path>
		<path d="M5168.23,2278.35c-11.13,9.17-22.56,16.25-36.25,16.93c31,6.4,12.11,21.49-13.13,13.77
			c-53.69-16.42-10.79-44.26,13.22-61.06c-8.83,6.69-46.1,34.11-52.24,10.53c-4.09-15.74,31.85-34.16,42-40.25
			c-10.45,7.76-42.47,28.61-51.64,10.36c-9.81-19.53,35.91-37.14,45.5-43.92c-11.77,9.21-56.8,31.98-52.19,0.34
			c7.59-7.16,44.22-26.78,54.92-31.47c15.31-6.65,41.66-21.45,57.57-14.54c10.96,4.78,14.67,13.9,18.12,24.48
			c16.08,49.08,44.95,81.36,59.36,106.31c22.34,38.8,69.68,66.61,103.75,89.55l-47.59,66.82" class="st3"></path>
	</g>
	<path d="M5297.22,2292.29c-7.51-6.87-14.84-14.33-22.81-20.9c-5.29-4.39-13.3-2.17-15.95,4.18
		c-7.72,18.63-26.4,46.95-40.21,62.39c-5.93,6.61-7.16,16.2-2.81,23.92c7.21,12.88,15.27,25.33,27.42,33.77
		C5273.9,2373.74,5334.41,2326.28,5297.22,2292.29z" class="st3"></path>
	<path d="M5511.54,2449.04c-11.98-31.9-221.1-168.82-221.1-168.82l-73.9,108.01c0,0,181.36,181.79,196.58,192.91
		c71.09,51.94,90.4,102.17,130.79,76.46" class="st1"></path>
</g>
<path d="M5361.95,2320.39c-18.34-91.51-9.08-208.91,18.25-295.38" class="st2"></path>
<path d="M4959.41,2108.84c0,0-1.45,94.07-0.6,136.03c1.41,68.36,6.57,155.13,6.65,223.57" class="st4"></path>
<path d="M5166.86,2916.11c48.4-1.75,98.08-0.64,145.84-5.71l-0.17-13.65c-47.76,5.07-97.44,3.97-145.84,5.71
	L5166.86,2916.11z" class="st2"></path>
<path d="M4818.99,1826.12c3.58,24.09-21.83,55.56-37.87,70.4c-11.77,10.92-27.42,28.14-44.99,27.59
	c29.94,15.39,103.24,39.44,126.56,35.22c19.91-3.58,31.94-18.25,34.46-38.85c2.64-21.92-5.88-48.87-15.18-68.31
	C4867.43,1821.52,4853.06,1821.82,4818.99,1826.12z" class="st1"></path>
<g>
	<g>
		<path d="M778.78,2380.43c-14.84-11.34-35.99-22.05-42.39-41.66c-3.41-10.4,3.75-21.58,11.43-29.94
			c0.43-9.98,5.24-22.6,11.9-31.47c0,0,1.32-15.44,3.54-20.77c1.58-3.84,4.61-6.57,7.89-9.17c-1.32-3.41-0.81-8.7,0.17-12.28
			c-5.5-5.42-4.14-8.87,1.19-11.09l0.6-1.28c4.43-6.61,14.54-10.66,21.92-5.24l0.3,0.3c6.57-2.17,13.18-4.35,18.98-4.31
			c14.5,0.09,27.33,23.03,36.2,32.62c15.52,16.76,23.54,39.96,31.56,61.23c6.48,17.1,5.54,37.1,13.48,53.52
			c7.93,16.38,27.55,43.54,38.76,58.42l-26.4,22.52l-16.33,64.69c-12.41-27.5-28.1-51.34-46.1-75.18
			c-4.31-5.71-18.34-16.12-23.97-20.6C808.03,2400.01,792.6,2390.97,778.78,2380.43z" class="st5"></path>
	</g>
	<path d="M934.43,2419.15c-11.21-14.88-30.83-42.05-38.76-58.42c-7.93-16.42-7.04-36.42-13.48-53.52
		c-8.02-21.24-16.03-44.48-31.56-61.23c-8.87-9.55-21.66-32.54-36.2-32.62c-10.23-0.04-23.24,6.78-33.56,8.44
		c-13.01,2.09-18.76,6.74-5.29,16.72c12.15,9,39.27,10.49,43.37-9.85" class="st4"></path>
	<path d="M804.79,2243.34c-1.28,6.57,7.04,13.52,11,17.61c7.29,7.51,10.53,9.59,10.36,20.3
		c-0.34,19.62,0.09,46.86,19.23,64.3" class="st4"></path>
	<path d="M759.85,2277.24c0,0,1.32-15.44,3.54-20.77c2.94-7.08,10.87-10.49,16.08-15.91" class="st4"></path>
	<path d="M825.09,2272.72c2.6,9.55,1.07,13.26-5.03,18.21" class="st4"></path>
	<path d="M747.95,2308.71c0.51-12.88,8.4-30.15,18-38.08c5.03-4.18,10.83-10.36,17.7-8.7
		c5.63,1.36,10.19,6.31,14.67,9.64c6.4,4.78,13.3,9.47,18.46,15.69c6.52,7.8,3.03,25.97-8.66,28.91" class="st4"></path>
	<path d="M771.27,2247.35c-1.41-3.58-0.77-9.25,0.3-12.84" class="st4"></path>
	<path d="M773.24,2222.61c4.43-6.61,14.54-10.66,21.92-5.24" class="st4"></path>
	<path d="M780.7,2325.89c1.15,5.24-0.64,7.38,4.39,8.95c2.6,0.81,6.74-0.38,9.21-1.28c5.76-2.05,12.24-6.78,13.73-13.05
		c2.9-11.98-18.21-26.31-27.33-29.85c-10.11-3.92-20.08,5.84-27.08,12.32c-9.08,8.4-21.36,22.64-17.1,35.65
		c6.4,19.62,27.55,30.32,42.39,41.66c13.82,10.58,29.25,19.62,42.73,30.28c5.63,4.43,19.66,14.88,23.97,20.6
		c18,23.84,33.69,47.67,46.1,75.18" class="st4"></path>
	<path d="M790.25,2327.98c-7.89,0.38-13.86-4.65-18.59-10.58" class="st4"></path>
	<path d="M780.06,2325.04c-5.46,4.9-15.95,8.44-22.9,9.3" class="st4"></path>
	<path d="M780.27,2328.24c-3.03,8.95-10.62,14.5-18.34,19.15" class="st4"></path>
</g>
<path d="M873.49,2500.43l-28.44-41.66c0,0,32.15-45.41,74.58-74.54l39.49,40.47L873.49,2500.43z" class="st3"></path>
<path d="M1872.69,2121.42c-27.93,14.97-185.03,42.64-203.66,11.09c-9.13-15.44-31.09-118.84-32.07-124.6
	c-34.33,18.46-112.06,66.05-146.26,84.82c3.37-1.71,20.3,45.54,1.49,62.81c-20.94,19.19-174.15,13.86-174.15,13.86l78.46,393.04
	l514.78-182.94L1872.69,2121.42z" class="st3"></path>
<path d="M1482.89,1772.44c-17.91,12.28-33.22,28.31-43.96,47.55c-20.64,37.01-24.09,80.55-27.08,122.47
	c-2.98,41.79-4.86,87.59,19.79,120.38c20.47,27.25,55.86,39.49,90.15,40.04c108.95,1.66,195.05-85.41,204.26-191.38
	c6.01-69.51-43.15-137.44-107.63-159.61C1574.11,1736.66,1522.17,1745.49,1482.89,1772.44z" class="st5"></path>
<path d="M1483.7,1880.32c-17.36-23.07-47.59-6.4-47.59-6.4" class="st4"></path>
<path d="M1543.7,1892.47c38.25-20.89,74.16,18,74.16,18" class="st4"></path>
<path d="M1469.2,1913.63c-1.96,7.68-7.42,12.88-12.2,11.64c-4.78-1.24-7.08-8.44-5.12-16.08c1.96-7.68,7.42-12.88,12.2-11.64
	C1468.86,1898.79,1471.17,1905.95,1469.2,1913.63z"></path>
<path d="M1573.59,1934.61c-1.96,7.68-7.42,12.88-12.2,11.64c-4.78-1.24-7.08-8.44-5.12-16.08c1.96-7.68,7.42-12.88,12.2-11.64
	C1573.3,1919.72,1575.56,1926.93,1573.59,1934.61z"></path>
<path d="M1488.39,1889.92c4.65,15.95-3.58,36.16-7.33,51.68c-2.3,9.42-7.8,20.72,1.88,27.85" class="st4"></path>
<path d="M1609.33,2010.17c11.3-13.13,9.81-32.92-3.33-44.18c-13.13-11.3-32.92-9.81-44.18,3.33
	c-11.3,13.13-9.81,32.92,3.33,44.18C1578.28,2024.75,1598.03,2023.3,1609.33,2010.17z" class="st6"></path>
<path d="M1410.27,1974.77c10.4,6.95,24.56,5.29,32.96-4.43c9.08-10.53,7.89-26.44-2.69-35.48
	c-7.76-6.69-18.42-7.76-27.12-3.67C1411.55,1945.65,1410.19,1960.32,1410.27,1974.77z" class="st6"></path>
<path d="M1726,1911.49c6.01-69.51-43.15-137.44-107.63-159.61c-44.26-15.22-96.2-6.35-135.48,20.55
	c-17.91,12.28-33.22,28.31-43.96,47.55c-20.64,37.01-24.09,80.55-27.08,122.47c-2.98,41.79-4.86,87.59,19.79,120.38
	c20.47,27.25,55.86,39.49,90.15,40.04c8.7,0.13,17.23-0.3,25.59-1.28" class="st4"></path>
<path d="M1490.44,2042.7c21.79-2.35,34.24-29.04,41.66-46.05c-25.88,1.75-56.03-1.54-79.87-11.68
	c0,0,1.83,25.54,7.21,37.82C1464.6,2034.69,1476.2,2044.24,1490.44,2042.7z" class="st3"></path>
<path d="M1678.28,2130.33c0,0-61.36,67.29-113.34,103.49c-22.64-23.75-52.71-67.2-74.54-92.53l-51.17,11.39v539.9
	h336.15l-29.12-557.64L1678.28,2130.33z" class="st3"></path>
<path d="M1465.75,2208.07c0,0,12.49,79.53,33.13,103.71c0,0,48.4-71.9,68.23-73.52c31.13-2.56,79.02,76.29,79.02,76.29
	s37.57-51.64,62.68-116.88" class="st4"></path>
<polygon points="1553.55,2320.86 1529.89,2685.75 1641.05,2676.54 1577.3,2320.86" class="st7"></polygon>
<path d="M1534.53,2264.79c0,0,18.42-22.94,30.02-26.23c11.6-3.28,32.75,11.94,39.79,21.15l-25.29,69.46
	c0,0-8.27-4.18-15.78-4.18s-12.28,4.18-12.28,4.18L1534.53,2264.79z" class="st7"></path>
<g>
	<g>
		<g>
			<path d="M1520.16,3660.6l3.75-0.17c-0.68-1.11-1.36-2.3-2.09-3.37L1520.16,3660.6z" class="st1"></path>
			<path d="M1517.09,3660.77c32.24-85.37,79.06-223.11,94.62-267.67c2.73,13.43,2.9,30.02,4.35,43.24
				c7.46,67.25,1.32,230.44,9.38,306.68l270.65-13.13c20.3-174.62,51.26-516.66,29.42-695.76l-524.29,6.99
				c-1.49,6.65-102.13,502.76-127.76,599.34L1517.09,3660.77z" class="st1"></path>
			<path d="M1870.56,3729.94c20.3-174.62,51.26-516.66,29.42-695.75" class="st2"></path>
		</g>
		<path d="M1635.89,3417.97c23.88,21.36,44.77,35.56,70.23,53.35" class="st2"></path>
		<path d="M1638.92,3398.91c46.57,17.36,91.72,35.31,136.88,55.99" class="st2"></path>
		<path d="M1611.16,3401.25c-0.64-64.56,39.66-214.83,39.66-214.83" class="st2"></path>
		<path d="M1607.75,3369.53c-44.48-55.09-26.31-130.02-7.89-199.69" class="st2"></path>
		<path d="M1801.35,3207.36c0.6,43.62,8.83,87.16,24.86,127.76c13.77,34.92,46.27,90.53,70.1,101.96" class="st2"></path>
		<path d="M1596.45,3401.98c-35.56-5.16-72.96-1.66-107.93-8.61" class="st2"></path>
	</g>
	<path d="M1355.73,3320.96c55.65-27.16,94.58-102.26,111.3-166.95" class="st2"></path>
</g>
<path d="M1325.67,2643.96l18.85,343.06l-0.9,253.68c71.6,30.92,224.68,36.42,224.68,36.42
	c12.45-257.18,0-647.23,0-647.23c-47.5-113.13-116.07-484.12-116.07-484.12c-35.91-0.6-112.79,15.35-161.1,15.56
	c-50.23,0.21-60.3,94.75-78.63,173.04c-10.87,46.57-42.13,233.81-42.13,233.81c-67.38-53.69-211.25-170.06-211.25-170.06
	c-27.67,7.12-107.97,102.34-107.97,102.34s151.51,193.26,226.69,261.36c45.5,41.24,95.99,117.27,179.44,53.3
	C1322.09,2765.41,1325.67,2643.96,1325.67,2643.96z" class="st1"></path>
<path d="M1952.43,3263c-104.6,23.28-361.99,16.84-361.99,16.84c-13.39-99.19-17.01-176.41-21.7-276.45
	c-1.96-41.15-8.06-279.31-8.95-358.92c0,0,54.07-94.71,104.94-244.47c39.61-116.58,52.15-273.21,52.15-273.21
	c59.1,0,170.44-10.19,223.87-32.45l232.36,434.53l-167.88,156.88c0,0-30.36,180.8-36.84,318.37
	C1961.9,3141.69,1952.43,3263,1952.43,3263z" class="st1"></path>
<path d="M1170.37,2568.15c0,0,60.34,85.92,70.49,115.26" class="st4"></path>
<path d="M1181.71,2551.69c23.67,16.42,50.32,46.1,50.32,46.1" class="st2"></path>
<path d="M1567.54,2643.96c180.8-124.73,231.34-345.19,231.34-345.19l-58.16-36.76l54.16-33.9
	c-5.88-27.72-22.39-76.12-32.88-105.71" class="st4"></path>
<path d="M1409.72,2149.23c0,0-19.62,76.97-22.52,122.04l49.72,20.38l-45.54,47.33c0,0,69.59,228.01,176.97,290.95" class="st4"></path>
<line y2="2457.19" x2="1324.86" y1="2676.54" x1="1322.56" class="st4"></line>
<path d="M1282.86,2176.86c34.71,72.58,39.53,172.57,39.7,253.94" class="st2"></path>
<path d="M1624.17,2685.75c0-9.34-7.55-16.89-16.89-16.89s-16.89,7.55-16.89,16.89c0,9.3,7.55,16.89,16.89,16.89
	C1616.62,2702.64,1624.17,2695.09,1624.17,2685.75z" class="st4"></path>
<path d="M1633.81,2879.69c0-9.3-7.55-16.89-16.89-16.89c-9.34,0-16.89,7.55-16.89,16.89c0,9.34,7.55,16.89,16.89,16.89
	C1626.21,2896.58,1633.81,2889.03,1633.81,2879.69z" class="st4"></path>
<path d="M1641.05,3080.03c0-9.34-7.55-16.89-16.89-16.89c-9.3,0-16.89,7.55-16.89,16.89c0,9.3,7.55,16.89,16.89,16.89
	C1633.51,3096.87,1641.05,3089.32,1641.05,3080.03z" class="st4"></path>
<path d="M1649.58,2059.59c37.48-40.77,31.21-72.45,19.32-117.61c-6.35-24.22,26.95-118.46-42.77-123.11
	c-16.67-26.82-66.82,17.18-91.6,23.54c-43.24,11.04-86.69-36.2-114.24,29.21c-43.62-20.98,24.35-111.34,71.85-133.98
	c33.6-15.99,72.79-16.25,100.89-13.52c29.81,2.9,58.63,20.34,75.82,46.05c20.38-3.33,46.61,18.34,57.99,33.6
	c14.67,19.7,22.56,45.97,26.61,70.15c3.03,18.12,3.54,37.65-0.43,55.56C1732.74,2021.08,1684.72,2032.81,1649.58,2059.59z" class="st1"></path>
<g>
	<path d="M1667.58,2010.89c26.74-2.3,54.8-34.58,48.31-62.77c-5.8-25.24-40.13-26.99-51.9-5.46" class="st3"></path>
	<path d="M1668.94,1973.71c-1.41-15.69,21.36-20.6,31.3-11.43" class="st4"></path>
	<path d="M1669.03,1971.79c5.03-8.36,16.59,0.47,18.55,6.99" class="st4"></path>
</g>
<g>
	<g>
		<path d="M4295.29,2209.09c-11.56-14.67-29.42-30.28-30.79-50.87c-0.73-10.92,8.95-19.96,18.46-26.18
			c2.86-9.59,10.7-20.6,19.27-27.59c0,0,5.12-14.63,8.57-19.27c2.47-3.33,6.1-5.25,9.94-6.91c-0.43-3.62,1.36-8.61,3.2-11.85
			c-4.01-6.61-1.79-9.64,3.92-10.45l0.9-1.11c5.93-5.33,16.72-6.74,22.56,0.34l0.21,0.38c6.87-0.51,13.86-0.94,19.45,0.51
			c14.03,3.67,20.77,29.08,26.99,40.55c10.92,20.04,12.92,44.56,15.48,67.12c2.05,18.17-3.79,37.31-0.17,55.18
			c3.62,17.82,15.91,49,23.11,66.18l-31.13,15.31l-31.77,58.63c-5.2-29.72-14.54-56.71-26.1-84.26
			c-2.77-6.61-13.82-20.17-18.17-25.88C4318.79,2235.32,4306.08,2222.74,4295.29,2209.09z" class="st5"></path>
	</g>
	<path d="M4436.53,2285.13c-7.21-17.19-19.49-48.36-23.11-66.18c-3.62-17.87,2.17-37.01,0.17-55.18
		c-2.52-22.56-4.56-47.08-15.48-67.12c-6.23-11.47-12.96-36.89-26.99-40.55c-9.89-2.56-24.18,0.81-34.58-0.13
		c-13.09-1.19-19.83,1.88-9.25,14.88c9.55,11.73,35.48,19.87,44.48,1.15" class="st4"></path>
	<path d="M4354.35,2082.7c-2.86,6.06,3.5,14.84,6.31,19.79c5.2,9.04,7.85,11.9,4.99,22.22
		c-5.2,18.93-11.51,45.41,2.73,67.08" class="st4"></path>
	<path d="M4302.42,2104.45c0,0,5.12-14.63,8.57-19.27c4.61-6.14,13.13-7.51,19.49-11.47" class="st4"></path>
	<path d="M4366.76,2116.18c0.17,9.89-2.26,13.09-9.34,16.37" class="st4"></path>
	<path d="M4283.14,2132c3.71-12.32,15.61-27.12,26.82-32.45c5.93-2.81,13.05-7.38,19.32-4.05
		c5.12,2.73,8.36,8.61,11.85,12.96c5.03,6.23,10.53,12.45,14.03,19.74c4.39,9.17-3.45,25.88-15.56,25.88" class="st4"></path>
	<path d="M4320.92,2078.31c-0.47-3.84,1.54-9.13,3.45-12.37" class="st4"></path>
	<path d="M4328.9,2054.86c5.93-5.33,16.72-6.74,22.56,0.34" class="st4"></path>
	<path d="M4310.65,2156.77c-0.17,5.33-2.47,6.99,2.05,9.77c2.35,1.45,6.65,1.28,9.25,1.02
		c6.1-0.6,13.52-3.54,16.55-9.25c5.8-10.87-11.13-29.98-19.1-35.69c-8.78-6.31-20.9,0.68-29.3,5.25
		c-10.92,5.88-26.27,16.63-25.37,30.32c1.36,20.6,19.19,36.16,30.79,50.87c10.75,13.65,23.5,26.23,33.94,39.91
		c4.35,5.71,15.39,19.27,18.17,25.88c11.56,27.55,20.85,54.54,26.1,84.26" class="st4"></path>
	<path d="M4319.39,2161.16c-7.76-1.58-12.28-7.93-15.39-14.84" class="st4"></path>
	<path d="M4310.22,2155.79c-6.48,3.41-17.53,4.26-24.48,3.37" class="st4"></path>
	<path d="M4309.62,2158.9c-5.12,7.93-13.86,11.43-22.47,14.03" class="st4"></path>
</g>
<path d="M4357.42,2348.79l-17.27-47.42c0,0,42.39-36.08,90.7-53.81l28.27,49L4357.42,2348.79z" class="st3"></path>
<path d="M4875.19,1643.06c-17.91,12.28-33.22,28.31-43.96,47.55c-20.64,37.01-24.09,80.55-27.08,122.47
	c-2.98,41.79-4.86,87.59,19.79,120.38c20.47,27.25,55.86,39.49,90.15,40.04c108.91,1.66,195.05-85.41,204.26-191.38
	c6.01-69.51-43.15-137.44-107.63-159.61C4966.4,1607.28,4914.51,1616.11,4875.19,1643.06z" class="st5"></path>
<path d="M4876.04,1750.94c-17.36-23.07-47.59-6.4-47.59-6.4" class="st4"></path>
<path d="M4936.04,1763.1c38.25-20.89,74.16,18,74.16,18" class="st4"></path>
<path d="M4861.5,1784.25c-1.96,7.68-7.42,12.88-12.2,11.64c-4.78-1.24-7.08-8.44-5.12-16.08c1.96-7.68,7.42-12.88,12.2-11.64
	C4861.2,1769.37,4863.46,1776.57,4861.5,1784.25z"></path>
<path d="M4965.93,1805.19c-1.96,7.68-7.42,12.88-12.2,11.64c-4.78-1.24-7.08-8.44-5.12-16.08c1.96-7.68,7.42-12.88,12.2-11.64
	C4965.59,1790.35,4967.89,1797.55,4965.93,1805.19z"></path>
<path d="M4880.73,1760.54c4.65,15.95-3.58,36.16-7.33,51.68c-2.3,9.42-7.8,20.72,1.88,27.85" class="st4"></path>
<ellipse ry="31.34" rx="31.34" cy="1860.47" cx="4977.6" class="st6" transform="matrix(0.6943 -0.7196 0.7196 0.6943 182.5668 4150.769)"></ellipse>
<path d="M4802.61,1845.35c10.4,6.95,24.56,5.29,32.96-4.43c9.08-10.53,7.89-26.44-2.69-35.48
	c-7.76-6.69-18.42-7.76-27.12-3.67C4803.89,1816.27,4802.53,1830.94,4802.61,1845.35z" class="st6"></path>
<path d="M5118.34,1782.07c6.01-69.51-43.15-137.44-107.63-159.61c-44.26-15.22-96.2-6.35-135.48,20.55
	c-17.91,12.28-33.22,28.31-43.96,47.55c-20.64,37.01-24.09,80.55-27.08,122.47c-2.98,41.79-4.86,87.59,19.79,120.38
	c20.47,27.25,55.86,39.49,90.15,40.04c8.7,0.13,17.23-0.3,25.59-1.28" class="st4"></path>
<path d="M4882.78,1913.28c21.79-2.35,34.24-29.04,41.66-46.05c-25.88,1.75-56.03-1.54-79.87-11.68
	c0,0,1.83,25.54,7.21,37.82C4856.94,1905.31,4868.54,1914.82,4882.78,1913.28z" class="st3"></path>
<path d="M4715.28,2510.15c27.25,339.99,22.17,551.54,25.54,552.52c105.71,30.92,215.56,18.98,215.56,18.98
	c12.45-257.18,18.21-577.89,18.21-577.89c-47.5-113.13-127.42-483.31-127.42-483.31s-105.33-4.39-150.91,11.47
	c-53,18.42-139.19,398.84-134.75,405.7c-40.98-62.9-106.99-177.44-106.99-177.44c-27.67,7.12-114.32,73-114.32,73
	s59.23,142.13,96.37,209.46c38.04,69,116.93,195.99,196.67,127.42C4681.12,2628.87,4715.28,2510.15,4715.28,2510.15z" class="st1"></path>
<path d="M4560.06,2422.73c16.25,21.53,32.2,62.51,42.34,91.85" class="st4"></path>
<path d="M4579.25,2424.87c23.67,16.42,45.07,43.58,45.07,43.58" class="st2"></path>
<path d="M4966.19,2510.15c-107.42-62.94-182.51-300.59-182.51-300.59l45.54-47.33l-49.72-20.38
	c2.9-45.07,22.52-122.04,22.52-122.04" class="st4"></path>
<line y2="2327.81" x2="4717.2" y1="2525.12" x1="4715.11" class="st4"></line>
<path d="M4687.99,2047.44c34.71,72.58,26.74,172.57,26.91,253.94" class="st2"></path>
<path d="M4952.84,2551.98c0.13-8.66-6.82-15.74-15.44-15.86c-8.66-0.13-15.73,6.82-15.86,15.44
	c-0.13,8.66,6.82,15.74,15.44,15.86C4945.64,2567.55,4952.76,2560.64,4952.84,2551.98z" class="st4"></path>
<ellipse ry="15.65" rx="15.65" cy="2732.24" cx="4932.29" class="st4" transform="matrix(0.4074 -0.9132 0.9132 0.4074 427.5856 6123.4482)"></ellipse>
<path d="M4948.19,2916.96c0.13-8.66-6.82-15.74-15.44-15.86c-8.66-0.13-15.73,6.82-15.86,15.44
	c-0.13,8.66,6.82,15.74,15.44,15.86C4940.99,2932.53,4948.11,2925.62,4948.19,2916.96z" class="st4"></path>
<g>
	<g>
		<g>
			<path d="M1820.24,2348.83c-2.81-6.31-4.99-12.84-7.55-19.23c-8.7-21.92-20.98-42.17-29.64-64.22
				c-5.03-12.79-9.34-20.17-21.02-27.55c-14.84-9.38-31.68-28.14-47.93-16.42l-0.43,0.6c-16.8-6.74-30.96-6.65-33.26,10.4
				c-1.07,7.76,3.5,14.37,9.17,19.91c-5.12-3.33-10.79-4.9-16.46-1.11c-10.58,7.08-8.14,19.87-2.9,30.19l-0.21,0.26
				c-9.85,2.69-13.56,19.23-6.87,26.99c-9,2.05-10.87,18.76-5.5,33.43c2.69,7.38,29,25.67,36.42,30.96
				c30.57,21.79,43.45,23.54,51.98,24.35c17.31,1.62,26.35,11.9,38.51,24.86l85.03-24.31
				C1851.41,2387.13,1829.11,2368.83,1820.24,2348.83z" class="st5"></path>
			<path d="M1764.85,2258.6c-11.6-12.28-78.68-68.48-84.43-26.14c-1.66,12.07,10.23,21.32,18.98,28.19
				c-6.95-6.7-16.59-15.91-26.27-9.38c-14.8,9.94-4.09,31.04,4.09,40.98" class="st4"></path>
			<path d="M1784.55,2422.31c-12.15-12.92-21.19-23.2-38.51-24.86c-8.53-0.81-21.36-2.56-51.98-24.35
				c-7.42-5.29-33.73-23.54-36.42-30.96c-5.37-14.67-3.5-31.43,5.5-33.43c-6.65-7.76-2.98-24.31,6.87-26.99" class="st4"></path>
			<path d="M1714.1,2221.46c16.25-11.73,33.09,7.08,47.93,16.42c11.68,7.38,15.99,14.75,21.02,27.55
				c8.66,22.05,20.94,42.3,29.64,64.22c2.56,6.4,4.73,12.92,7.55,19.23c8.87,20,31.21,38.29,49.34,49.17" class="st4"></path>
		</g>
		<path d="M1729.92,2258.39c2.77,3.45,6.48,5.88,9.89,8.61" class="st4"></path>
		<path d="M1704.42,2289.52c4.05,3.97,11,7.29,11,7.29" class="st4"></path>
		<path d="M1686.55,2317.24c2.26,2.81,5.16,4.86,8.49,6.23" class="st4"></path>
		<path d="M1674.87,2339.11c2.35,3.2,5.5,4.78,5.5,4.78" class="st4"></path>
	</g>
	<path d="M1804.72,2474.16l-31.47-40.81c0,0,30.11-48.23,71.64-80.42l42.64,38.93L1804.72,2474.16z" class="st3"></path>
	<path d="M2071.7,2531.73l-201.36-159.35c0,0-54.11,46.35-84.77,95.48l208.39,256.96
		c40.25,49.04,122.47,47.84,144.26,4.99" class="st1"></path>
</g>
<path d="M5139.7,1654.36c23.67,28.53,38.89,69.08,43.15,114.67c5.63,60.42,27.33,106.14,8.36,157.65
	c-25.97,70.45-121.4,32.92-181.02,34.84c20.3-8.4,52.75-67.63,56.2-94.88c9.17-72.32-44.65-132.19-44.86-203.62
	c-42.47,13.77-84.69,17.7-128.99,24.52c-40.13,6.18-73.43,22.98-79.95,67.16c-6.74-16.72-4.56-44.6,0.43-61.62
	c8.32-28.49,25.07-54.11,47.93-73.05c25.5-21.11,52.66-23.92,83.88-31c17.57-3.97,34.16-8.32,52.15-9.21
	c33.86-1.62,59.49,7.25,83.54,31.26C5105.08,1603.44,5125.5,1637.26,5139.7,1654.36z" class="st1"></path>
<g>
	<path d="M5059.92,1881.52c26.74-2.3,54.8-34.58,48.31-62.77c-5.8-25.24-40.13-26.99-51.9-5.46" class="st3"></path>
	<path d="M5061.28,1844.33c-1.41-15.69,21.36-20.6,31.3-11.43" class="st4"></path>
	<path d="M5061.32,1842.41c5.03-8.36,16.59,0.47,18.55,6.99" class="st4"></path>
</g>
<path d="M4734.9,2885.06c34.92,8.53,81.62,10.96,81.62,10.96l0.04,15.14c0,0-46.22-1.66-81.58-10.4" class="st2"></path>
<path d="M1782.29,3052.44c48.4-1.75,98.08-0.64,145.84-5.71l-0.17-13.65c-47.76,5.07-97.44,3.97-145.84,5.71
	L1782.29,3052.44z" class="st2"></path>
<path d="M1345.8,3012.05c34.92,8.53,37.27,13.35,72.53,20.34l-2.52,15.14c-35.73-7.08-38.55-11.94-73.9-20.68" class="st2"></path>
<path d="M5089.77,1799.47c1.54-27.5-6.18-55.26-14.92-81.02" class="st2"></path>
<path d="M5104.69,1810.13c5.59-18.72,8.91-33.73,8.53-53.3" class="st2"></path>
<path d="M5160.13,1839.98c0,35.18-6.1,86.86-53.3,89.55" class="st2"></path>
<path d="M5030.07,1633.17c-28.27-17.95-112.11,13.73-138.59,24.65" class="st2"></path>
<path d="M5053.52,1622.5c-1.71-19.23-49.38-14.75-61.83-12.79" class="st2"></path>
<path d="M1666.3,1807.27c11.26-3.03,26.78,14.54,29.89,24.09c4.82,14.84,0.9,38.98-4.31,52.66" class="st2"></path>
<path d="M1671.97,1793.07c23.03-5.97,37.27,17.48,44.05,35.52" class="st2"></path>
<path d="M1630.73,1785.95c-22.81-14.88-54.41-9.85-75.86,5.12c-9.04,6.31-17.1,15.52-28.61,16.2
	c-12.71,0.72-25.07-4.26-39.1-4.26" class="st2"></path>
<path d="M1568.22,1766.04c-15.74-1.62-19.87,8.19-31.26,15.65c-11.56,7.51-18.34,4.82-30.7,2.98
	c-32.32-4.86-58.25,11.3-70.23,42.51" class="st2"></path>
<g>
	<g>
		<path d="M1874.95,1208.74c-2.69-20.77-10.87-46.01-0.34-66.61c5.59-10.92,20.13-14.03,32.79-14.58
			c8.27-7.55,22.13-13.69,34.41-15.44c0,0,13.3-11.13,19.32-13.6c4.31-1.75,8.87-1.54,13.52-0.94c1.66-3.75,6.27-7.51,9.89-9.55
			c-0.04-8.66,3.8-10.32,9.77-7.8l1.49-0.55c8.78-1.71,19.96,3.11,21.49,13.3v0.47c6.91,3.5,13.86,7.08,18.38,11.68
			c11.39,11.6,3.28,39.91,2.64,54.54c-1.07,25.54-13.18,50.28-23.71,73.43c-8.49,18.63-25.12,33.73-31.9,53
			c-6.78,19.23-12.88,56.29-15.82,76.97l-38.72-3.2l-64.3,38.12c12.07-31.6,18.59-62.9,23.37-96.03c1.15-7.93-1.66-27.33-2.6-35.31
			C1882.45,1247.46,1877.42,1228.06,1874.95,1208.74z" class="st5"></path>
	</g>
	<path d="M1967.06,1363.07c2.94-20.68,9.04-57.74,15.82-76.97c6.78-19.27,23.41-34.33,31.9-53
		c10.58-23.15,22.69-47.89,23.71-73.43c0.6-14.63,8.74-42.94-2.64-54.54c-8.02-8.19-23.71-13.09-33.22-20
		c-11.94-8.66-20.17-9.59-17.44,9c2.43,16.76,22.69,39.53,42.09,26.69" class="st4"></path>
	<path d="M2004.41,1121.11c-6.23,4.18-5.2,16.29-5.29,22.64c-0.17,11.73,0.68,15.95-7.97,24.26
		c-15.86,15.22-37.18,37.1-35.95,66.05" class="st4"></path>
	<path d="M1941.98,1112.16c0,0,13.3-11.13,19.32-13.6c7.93-3.28,16.93,0.34,25.33,0.21" class="st4"></path>
	<path d="M1997.12,1160.47c-5.5,9.64-9.68,11.3-18.42,10.4" class="st4"></path>
	<path d="M1907.57,1127.6c10.66-9.72,30.62-17.14,44.48-15.78c7.29,0.72,16.8,0.43,20.89,7.21
		c3.37,5.54,3.07,13.09,3.92,19.27c1.28,8.87,2.99,18.04,2.13,27.08c-1.07,11.34-18.21,22.9-29.85,15.95" class="st4"></path>
	<path d="M1974.77,1097.66c1.75-3.97,6.74-7.93,10.4-9.89" class="st4"></path>
	<path d="M1995.97,1079.71c8.78-1.71,19.96,3.11,21.49,13.3" class="st4"></path>
	<path d="M1919.81,1167.21c-3.24,5.03-6.4,5.33-3.67,10.58c1.41,2.73,5.63,5.03,8.27,6.31
		c6.18,2.94,15.01,4.35,21.19,0.64c11.81-7.16,6.52-35.22,2.13-45.33c-4.86-11.13-20.51-11.34-31.17-11.81
		c-13.86-0.6-34.84,0.9-41.83,14.54c-10.53,20.6-2.35,45.84,0.34,66.61c2.52,19.32,7.51,38.72,9.68,57.87
		c0.9,7.97,3.71,27.38,2.6,35.31c-4.73,33.13-11.3,64.43-23.37,96.03" class="st4"></path>
	<path d="M1925.65,1176.46c-6.52-5.97-7.25-14.67-6.31-23.11" class="st4"></path>
	<path d="M1919.98,1166.06c-8.23-0.47-19.32-5.97-25.46-10.83" class="st4"></path>
	<path d="M1917.59,1168.7c-9.51,4.69-19.91,2.98-29.68,0.55" class="st4"></path>
</g>
<g>
	<g>
		<path d="M2761.74,1158.6c-1.62-20.89,1.24-47.29-13.3-65.29c-7.72-9.55-22.56-9.64-35.09-7.55
			c-9.64-5.71-24.48-8.87-36.84-8.06c0,0-15.31-8.19-21.66-9.38c-4.56-0.85-9,0.34-13.43,1.83c-2.39-3.33-7.68-6.06-11.64-7.33
			c-1.71-8.49-5.84-9.3-11.17-5.63l-1.58-0.26c-8.91,0.13-18.89,7.16-18.34,17.4l0.09,0.47c-6.06,4.82-12.11,9.77-15.61,15.18
			c-8.78,13.69,4.99,39.74,8.57,53.9c6.27,24.82,23.2,46.52,38.29,67.03c12.15,16.5,31.47,27.85,42.09,45.33
			c10.58,17.44,24.14,52.45,31.26,72.07l37.27-11.09l70.74,24.14c-18.29-28.44-31.13-57.74-42.56-89.21
			c-2.73-7.55-3.97-27.08-4.73-35.09C2762.3,1198.04,2763.23,1178,2761.74,1158.6z" class="st5"></path>
	</g>
	<path d="M2703.19,1328.53c-7.12-19.62-20.68-54.63-31.26-72.07c-10.58-17.48-29.94-28.83-42.09-45.33
		c-15.1-20.51-32.02-42.22-38.29-67.03c-3.58-14.16-17.36-40.21-8.57-53.9c6.18-9.64,20.51-17.7,28.4-26.4
		c9.89-10.92,17.74-13.52,18.93,5.24c1.07,16.93-14.11,43.32-35.73,34.75" class="st4"></path>
	<path d="M2617.01,1099.41c6.95,2.81,8.44,14.88,9.85,21.11c2.6,11.43,2.6,15.74,12.75,22.13
		c18.63,11.64,44.01,28.66,48.7,57.31" class="st4"></path>
	<path d="M2676.33,1077.83c0,0-15.31-8.19-21.66-9.38c-8.44-1.58-16.5,3.8-24.78,5.37" class="st4"></path>
	<path d="M2632.24,1136.38c7.38,8.27,11.81,9.08,20.17,6.4" class="st4"></path>
	<path d="M2713.17,1085.89c-12.41-7.33-33.47-10.49-46.78-6.31c-6.99,2.17-16.37,3.84-18.98,11.34
		c-2.13,6.1-0.3,13.43,0.09,19.66c0.6,8.95,0.77,18.25,3.45,26.95c3.37,10.87,22.52,18.68,32.49,9.51" class="st4"></path>
	<path d="M2641.23,1070.37c-2.52-3.5-8.19-6.35-12.24-7.55" class="st4"></path>
	<path d="M2616.84,1057.11c-8.91,0.13-18.89,7.16-18.34,17.4" class="st4"></path>
	<path d="M2709.29,1127.17c4.22,4.26,7.33,3.88,5.76,9.59c-0.81,2.94-4.48,6.1-6.82,7.89
		c-5.46,4.14-13.82,7.38-20.64,4.95c-13.05-4.56-13.6-33.13-11.39-43.92c2.47-11.85,17.74-15.31,28.1-17.95
		c13.47-3.41,34.28-6.27,43.92,5.67c14.54,18,11.68,44.39,13.3,65.29c1.49,19.4,0.6,39.44,2.39,58.63
		c0.77,8.02,1.96,27.55,4.69,35.09c11.43,31.47,24.26,60.77,42.56,89.21" class="st4"></path>
	<path d="M2705.45,1137.4c5.2-7.16,4.09-15.86,1.41-23.92" class="st4"></path>
	<path d="M2708.91,1126.06c7.93-2.13,17.65-9.81,22.69-15.82" class="st4"></path>
	<path d="M2711.76,1128.15c10.28,2.64,20.08-1.15,29.17-5.54" class="st4"></path>
</g>
<path d="M2610.7,3733.31l-546.68-6.06c0,0-40.38-433.89,3.41-794.26c6.48,0.94,75.01-53.43,80-57.23l492.86,71.85
	c0,0,84.18,170.06,76.97,493.25c-2.22,99.1-12.84,197.65-18.25,296.02C2646.48,3733.35,2664.43,3733.31,2610.7,3733.31z" class="st1"></path>
<path d="M2567.89,2947.58c0,0,84.18,170.06,76.97,493.25c-2.22,99.1-12.84,197.65-18.25,296.02" class="st2"></path>
<path d="M2517.4,2282.1c-141.19-131.72-63.03-294.7-28.91-450.05c104.6,52.19,43.75,215.09,49.55,289.03
	C2542.6,2179.16,2517.4,2222.14,2517.4,2282.1z" class="st1"></path>
<path d="M2506.57,2019.42c-31.34,16.8-74.75,32.83-95.73-2.6c-10.23-17.31-25.5-83.15-26.61-89.63
	c-38.51,20.72-125.84,74.2-164.22,95.22c3.8-1.92,27.8,69.08,6.69,88.48c-23.5,21.58-133.51-47.46-133.51-47.46l21.07,486.38
	l577.98-205.41L2506.57,2019.42z" class="st3"></path>
<path d="M2926,1731.16c-14.07-92.11-110.91-429.92-126.95-439.35c0,0-86.39,5.84-119.27,36.67l39.87,408.22
	c-31.13,54.8-63.28,106.69-102.34,155.82c-29.17,36.72-100.47,113.34-100.47,113.34c-18.42,13.56-66.86,16.8-66.86,16.8
	c-37.27,61.45-78.5,117.86-121.66,174.88c-31.51-15.22-103.37-105.16-103.37-105.16s-19.02-7.97-51.34-22.56
	c-22.05-27.42-37.1-47.72-59.74-76.59c-66.91-85.29-110.32-272.83-110.32-272.83c-12.15-103.02-15.61-367.54-15.61-367.54
	c-37.44-11.94-87.89-9-121.49,0c-21.15,92.24-40.55,269.46-47.08,386.64c-0.34,6.44-5.54,52.36,4.56,89.51
	c41.79,153.43,167.5,514.31,191.89,599c0,0,57.06,325.92,51.6,504.84c0,0,281.53,44.9,572.86,14.63l16.33-180.04l105.84-421.31
	c2.35-22.3,7.33-44.18,14.84-65.29c41.53-116.63,140.04-444.63,140.04-444.63C2926.73,1806.21,2933.29,1778.83,2926,1731.16z" class="st3"></path>
<path d="M2057.71,3022.12c0,0,279.61,55.05,611.15,10.92" class="st2"></path>
<path d="M1874.56,1458.29c-12.79,89.38-23.11,196.24-27.5,275.56c-0.34,6.44-5.54,52.36,4.56,89.51
	c41.79,153.43,167.5,514.31,191.89,599c0,0,57.06,325.92,51.6,504.84" class="st2"></path>
<path d="M4564.62,879.71c-2.3,1.36-4.14,3.28-5.63,5.46c-1.96-6.44-5.42-11.98-12.96-12.92
	c-8.96-1.11-13.39,4.48-17.1,10.92c-0.9-1.79-1.92-3.41-3.11-4.86c-15.18-18.63-29.85-0.09-35.14,15.91
	c-3.84-6.91-7.97-11.73-11.9-12.71c-19.96-5.12-22.81,21.41-22.39,41.92l0,0l0,0c0.04,2.47,0.13,4.82,0.26,7.08
	c-4.43,2.26-8.57,4.78-11.9,8.02c-27.68,26.74,25.54,88.48,57.74,116.41c9.21,7.97,15.69,16.97,20.51,28.36
	c4.9,11.68,14.92,45.03,18.17,57.23c8.74,33.05,12.75,44.69,17.65,78.63l6.57-2.35l0.94,5.07l80.47-29.25
	c0,0-39.44-102.81-45.33-140.08c-1.96-12.49,1.54-25.67,2.52-38.08c1.07-13.99,2.9-28.66,2.9-42.73c0-12.07-4.65-24.31-7.25-36.08
	C4596.86,922.74,4590.76,864.11,4564.62,879.71z" class="st5"></path>
<polyline points="4505.95,1033.57 4449.83,962.1 4461.94,937.58 4456.99,922.02 4467.57,894.09 4546.97,904.15" class="st4"></polyline>
<path d="M4585.86,898.69c3.45,12.11,0.04,37.27-4.6,48.95c-11,27.63-24.01-3.92-25.84-18.38
	c-1.75-13.69-3.71-40.55,10.62-48.7c26.48-15.05,31.34,43.71,33.9,56.63c2.35,11.77,6.69,24.14,6.48,36.2
	c-0.26,14.07-2.39,28.7-3.75,42.69c-1.19,12.37-5.03,25.46-3.28,37.99c32.2,96.84,71,213.47,105.24,307.28" class="st4"></path>
<path d="M4527.61,887.99c4.52-7.97,8.95-16.84,20.04-15.27c11.77,1.71,13.3,14.46,14.84,24.39
	c2.43,15.86,3.45,33.86-0.9,49.38c-3.37,12.03-12.32,24.09-23.54,11.56C4524.97,943.42,4523.52,914.43,4527.61,887.99z" class="st3"></path>
<path d="M4489.83,901.42c2.39-16.29,20.13-45.33,37.53-23.07c9.38,11.98,8.53,35.61,8.96,50.28
	c0.3,10.87,0.9,47.97-18.08,34.88C4502.15,952.42,4498.7,926.11,4489.83,901.42z" class="st3"></path>
<path d="M4457.85,941.8c-0.85-12.62-5.71-69.08,22.43-61.23c17.44,4.86,37.91,86.35,17.4,89.34
	c-15.18,2.22-29.13-54.8-30.23-65.54" class="st3"></path>
<path d="M4555.71,1015.28c-4.99-14.58-26.95-29.94-40.98-36.42c-6.01-2.77-12.79-4.43-18.59-7.38
	c-8.74-4.43-16.5-12.03-26.05-15.31c14.37,1.62,29.25-9.98,36.29-21.45c3.54-5.8,8.44-20.77,1.19-26.82
	c-5.24-4.35-14.29,3.8-19.32,7.08c-12.58,8.27-31.9,11.39-43.15,21.88c-28.23,26.18,23.75,88.99,55.31,117.57
	c17.31,15.65,20.55,32.92,24.18,54.92c3.92,23.62,8.23,47.16,12.75,70.66c9.04,47.12,18.85,94.11,27.59,141.27
	c6.69,36.08,11.13,106.86,15.69,143.28" class="st3"></path>
<g>
	<g>
		<g>
			<path d="M3819.4,3044.97L3819.4,3044.97C3819.45,3044.72,3819.45,3044.67,3819.4,3044.97z" class="st1"></path>
			<path d="M4050.23,3659.92c18.55-110.53,42.3-261.95,50.49-319.39c6.48,15.56,10.62,35.48,15.52,51.09
				c24.95,79.23,63.92,262.72,63.92,262.72l302.16-6.57c-17.01-215.39-23.33-563.9-92.15-774.69l-587.36,114.28
				c-0.26,8.36-17.14,534.65-25.12,657.08L4050.23,3659.92z" class="st1"></path>
		</g>
		<path d="M4385.01,2975.85c61.28,284.38,47.12,526.98,59.23,661.26" class="st2"></path>
		<path d="M4135.73,3364.79c33.82,20.08,62.39,32.2,97.27,47.59" class="st2"></path>
		<path d="M4134.83,3341.13c60.21,9.85,127.46,20.81,186.73,34.97" class="st2"></path>
		<path d="M4101.95,3350.46c-16.12-77.65-10.4-334.06-10.4-334.06" class="st2"></path>
		<path d="M4090.31,3313.11c-66.69-55.86-69.76-216.2-64.09-304.51" class="st2"></path>
		<path d="M4277.9,3050.94c11.04,52.41,23.11,118.29,52.02,163.41c24.9,38.8,89,71.21,120.42,79.36" class="st2"></path>
		<path d="M4084.43,3354.86c-44.09,2.22-88.31,15.31-132.06,15.22" class="st2"></path>
	</g>
	<path d="M3877.01,3055.04c-12.45,109.76-39.15,174.41-91.94,182.17" class="st2"></path>
</g>
<path d="M4291.41,1887.31c-31.34,16.8-74.75,32.83-95.73-2.6c-10.23-17.31-25.5-83.15-26.61-89.63
	c-38.51,20.72-125.84,74.2-164.22,95.22c3.8-1.92,27.8,69.08,6.69,88.48c-23.5,21.58-149.21,14.71-149.21,14.71l36.76,424.21
	l577.98-205.41L4291.41,1887.31z" class="st3"></path>
<path d="M4758.48,1547.33c-14.07-92.11-106.99-418.2-123.02-427.62c0,0-87.67,1.07-120.55,31.9l37.18,401.27
	c-31.13,54.8-110.87,158.46-149.93,207.63c-20.98,26.4-69,80.38-94.37,108.65c-2.05,1.62-4.09,3.2-6.1,4.69
	c-18.42,13.56-75.73,27.89-75.73,27.89c-29.72,60.21-69,115.65-125.58,163.79c-41.7-18.08-80.34-119.19-80.34-119.19
	s-76.67,33.82-76.42,34.46c0.26,0.64-171.25,23.41-191.85,30.06c-21.83,7.08-85.88,37.44-92.19,62.86
	c0,0.04-188.05,755.54-188.05,755.54c96.16-133.81,261.95-367.71,294.74-436.83c0,0,24.78,448.6,36.54,594.99
	c0,0,256.54,55.05,616.23-19.91c0,0,40.08-27.33,97.4-346.3c34.84-193.94,88.48-510.35,93.34-524.08l140.04-444.63
	C4759.2,1622.38,4765.77,1595,4758.48,1547.33z" class="st3"></path>
<path d="M4376.27,2975.85c0,0,49.29-39.15,106.61-358.11c34.84-193.94,88.48-510.35,93.34-524.08l140.04-444.63
	c9.42-30.11,15.95-57.48,8.66-105.16c-9.04-59.23-50.7-215.22-83.54-321.52" class="st2"></path>
<path d="M4020.98,1525.58c-20.77,12.79-38.76,29.98-51.85,50.96c-25.16,40.38-31.39,89.04-36.97,135.9
	c-5.59,46.74-10.15,97.99,15.69,136.07c21.49,31.64,60.51,47.29,98.93,49.72c122.09,7.72,223.36-85.28,239.35-203.66
	c10.49-77.65-41.02-156.46-112.11-184.77C4125.19,1490.36,4066.47,1497.48,4020.98,1525.58z" class="st5"></path>
<path d="M4016.07,1646.6c-18.21-26.82-53-9.77-53-9.77" class="st4"></path>
<path d="M4082.72,1663.48c44.01-21.36,82.21,24.18,82.21,24.18" class="st4"></path>
<path d="M3998.03,1683.18c-2.6,8.49-9.04,14.03-14.33,12.41c-5.29-1.62-7.46-9.85-4.86-18.29c2.6-8.49,9.04-14.03,14.33-12.41
	C3998.46,1666.51,4000.63,1674.7,3998.03,1683.18z"></path>
<path d="M4113.98,1712.31c-2.6,8.49-9.04,14.03-14.33,12.41c-5.29-1.62-7.46-9.81-4.86-18.29c2.6-8.49,9.04-14.03,14.33-12.41
	C4114.4,1695.64,4116.62,1703.82,4113.98,1712.31z"></path>
<path d="M4020.85,1657.64c4.35,18.12-5.93,40.38-11,57.57c-3.07,10.45-9.89,22.81,0.6,31.34" class="st4"></path>
<ellipse ry="35.18" rx="35.18" cy="1774.76" cx="4124.3" class="st6"></ellipse>
<path d="M3928.65,1748.56c11.3,8.36,27.29,7.25,37.18-3.2c10.75-11.34,10.23-29.21-1.07-39.96
	c-8.36-7.93-20.26-9.68-30.23-5.54C3931.64,1715.98,3929.34,1732.39,3928.65,1748.56z" class="st6"></path>
<path d="M4286.13,1694.57c10.49-77.65-41.02-156.46-112.11-184.77c-48.83-19.44-107.54-12.32-153.04,15.78
	c-20.77,12.79-38.76,29.98-51.85,50.96c-25.16,40.38-31.39,89.04-36.97,135.9c-5.59,46.74-10.15,97.99,15.69,136.07
	c21.49,31.64,60.51,47.29,98.93,49.72c9.72,0.6,19.32,0.6,28.78-0.04" class="st4"></path>
<path d="M4014.92,1829.06c24.6-1.45,40-30.7,49.21-49.38c-29.13,0.6-62.77-4.73-88.95-17.4c0,0,0.68,28.74,6.01,42.81
	C3986.39,1818.7,3998.84,1830,4014.92,1829.06z" class="st3"></path>
<path d="M3943.62,1980.79c12.07,22.39,57.27,140.04,80.38,167.07c0,0,54.2-80.51,76.42-82.34
	c34.84-2.86,88.48,85.41,88.48,85.41s96.88-114.79,118.93-281.78" class="st4"></path>
<path d="M4100.38,2065.52c0,0-39.36,813.32-29.59,933.1" class="st4"></path>
<path d="M2211.27,1662.8c-20.13,13.77-37.27,31.81-49.34,53.39c-23.2,41.53-27.08,90.44-30.4,137.48
	c-3.33,46.95-5.46,98.33,22.17,135.18c22.98,30.57,62.73,44.35,101.19,44.95c122.3,1.83,219.01-95.9,229.33-214.88
	c6.78-78.08-48.44-154.32-120.85-179.18C2313.65,1622.63,2255.36,1632.57,2211.27,1662.8z" class="st5"></path>
<path d="M2212.17,1783.95c-19.49-25.93-53.43-7.21-53.43-7.21" class="st4"></path>
<path d="M2279.54,1797.59c42.94-23.45,83.28,20.21,83.28,20.21" class="st4"></path>
<ellipse ry="10.02" rx="16.08" cy="1818.96" cx="2186.21" transform="matrix(0.2482 -0.9687 0.9687 0.2482 -118.4599 3485.2837)"></ellipse>
<ellipse ry="10.02" rx="16.08" cy="1842.48" cx="2303.43" transform="matrix(0.2482 -0.9687 0.9687 0.2482 -53.1125 3616.5264)"></ellipse>
<path d="M2217.45,1794.7c5.2,17.91-4.01,40.64-8.23,58.04c-2.56,10.58-8.78,23.24,2.09,31.26" class="st4"></path>
<ellipse ry="35.18" rx="35.18" cy="1906.86" cx="2326.56" class="st6"></ellipse>
<path d="M2129.74,1889.96c11.68,7.8,27.59,5.93,37.01-4.99c10.19-11.81,8.83-29.68-2.99-39.87
	c-8.74-7.51-20.68-8.7-30.49-4.09C2131.19,1857.29,2129.65,1873.75,2129.74,1889.96z" class="st6"></path>
<path d="M2484.22,1818.92c6.78-78.08-48.44-154.32-120.85-179.18c-49.72-17.1-108.01-7.16-152.11,23.07
	c-20.13,13.77-37.27,31.81-49.34,53.39c-23.2,41.53-27.08,90.44-30.4,137.48c-3.33,46.95-5.46,98.33,22.17,135.18
	c22.98,30.57,62.73,44.35,101.19,44.95c9.76,0.13,19.32-0.34,28.74-1.41" class="st4"></path>
<path d="M2219.76,1966.25c24.48-2.64,38.46-32.58,46.78-51.68c-29.08,1.96-62.94-1.71-89.68-13.09
	c0,0,2.05,28.66,8.06,42.47C2190.76,1957.25,2203.76,1967.95,2219.76,1966.25z" class="st3"></path>
<path d="M2173.62,2069.87c3.24,44.05,55.22,174.45,78.33,201.53c0,0,54.2-71.98,76.42-73.81
	c34.84-2.86,94.28,69.38,94.28,69.38s91.77-120.17,94.24-261.06" class="st4"></path>
<path d="M2034.18,2504.01" class="st2"></path>
<path d="M2737.09,1739c19.49,15.14,38.59,30.28,58.93,44.22" class="st2"></path>
<path d="M2755.52,1720.58c37.99,16.76,73.05,37.7,110.49,55.26" class="st2"></path>
<path d="M2266.92,1658.58c-60.94,10.49-107.59,62.09-129.38,118.38c-4.52-40.98,21.58-89.98,52.45-117.74
	c33.01-29.72,143.02-63.67,169.76-6.31L2266.92,1658.58z" class="st1"></path>
<path d="M2328.32,2197.62c0,0-9.59,638.36,0.17,758.18" class="st4"></path>
<path d="M4569.57,1555.13c19.49,15.14,38.59,30.28,58.93,44.22" class="st2"></path>
<path d="M4587.95,1536.75c37.99,16.76,73.05,37.7,110.49,55.26" class="st2"></path>
<path d="M4411.96,1762.54c83.71,113.43,139.87,229.63,170.74,367.54" class="st2"></path>
<path d="M3747.72,2025.01c2.05,104.47,1.36,241.83,22.26,343.7" class="st2"></path>
<path d="M4301.26,1572.44c23.67,46.91,19.62,99.27,10.75,148.69c-10.7,59.57-64.65,108.4-121.49,135.65
	c36.2-41.88,55.31-111.42,14.88-152.36c-42.81-43.41-65.33-39.4-134.88-122c4.05,18.59,37.18,57.06,37.18,57.06
	s-15.69-6.1-35.73-23.84c-23.33-20.64-45.54-49.29-50.83-75.31c-30.19,5.8-62.26,63.96-71.47,88.65
	c-3.41-60.13,64.77-150.74,128.14-134.75C4144.08,1456.58,4263.4,1497.31,4301.26,1572.44z" class="st1"></path>
<g>
	<path d="M4215.3,1802.93c30.11-1.15,63.32-35.82,57.57-67.8c-5.12-28.61-43.54-32.45-57.91-8.95" class="st3"></path>
	<path d="M4218.84,1761.31c-0.77-17.65,25.07-21.96,35.69-11.13" class="st4"></path>
	<path d="M4218.96,1759.17c6.06-9.08,18.55,1.41,20.47,8.83" class="st4"></path>
</g>
<path d="M1991.79,1737.64c-12.96,6.87-25.71,13.94-38.38,21.32" class="st2"></path>
<line y2="1810.13" x2="1949.15" y1="1758.96" x1="2000.32" class="st2"></line>
<path d="M2107.22,1989.74c-40.04,91.08-93.56,270.57-102.04,369.33" class="st2"></path>
<path d="M2617.31,1892.56c51.3,79.02,103.15,143.19,142.04,228.86" class="st2"></path>
<path d="M2227.6,1671.76c25.63,35.86,77.48,49.76,108.57,80.42c28.61,28.19,71.04,62.51,83.92,102.73
	c12.03,37.53,0.43,93.17-21.66,128.4c0,0,70.96-52.75,86.61-87.97c32.37-72.79,41.62-141.62-6.18-206.43
	C2430.67,1623.49,2307.17,1580.25,2227.6,1671.76z" class="st1"></path>
<g>
	<path d="M2418.64,1930.55c30.02-2.6,61.53-38.85,54.24-70.49c-6.48-28.36-45.03-30.32-58.25-6.14" class="st3"></path>
	<path d="M2420.18,1888.81c-1.58-17.61,24.01-23.11,35.14-12.84" class="st4"></path>
	<path d="M2420.26,1886.63c5.63-9.38,18.59,0.55,20.85,7.85" class="st4"></path>
</g>
<path d="M4298.02,1924.2c0,0,74.07-82.85,128.01-142.17" class="st2"></path>
<path d="M3961.7,2010.04c0,0-149.97,14.2-213.51,45.03" class="st2"></path>
<path d="M4111.76,2158.05h-26.57c0,0-42.34,293.68-265.02,658.83l13.82,128.23l135.09-52.11
	C3969.12,2892.95,4088.65,2630.36,4111.76,2158.05z" class="st7"></path>
<path d="M4063.92,2095.28c0,0,20.64-25.67,33.6-29.34s36.67,13.39,44.56,23.71l-28.27,77.78c0,0-9.25-4.65-17.65-4.65
	c-8.4,0-13.77,4.65-13.77,4.65L4063.92,2095.28z" class="st7"></path>
<g>
	<path d="M3789.47,3001.99c10.06,4.56,80.89,19.87,126.99,22.09c48.57,2.35,260.55,4.69,308.73-0.77
		c129.38-14.67,150.66-24.99,202.21-40.51l13.69,69.34c-32.92,10.79-82.85,18.85-148.48,28.53
		c-75.35,11.13-174.62,12.37-250.61,7.63c-94.33-5.88-162.38-3.16-252.4-24.99L3789.47,3001.99z" class="st8"></path>
	<path d="M3929.38,3011.37c-1.02,32.15,1.88,64.18-1.11,96.07c-7.55-0.43-13.82-1.15-21.32-2.52
		c-0.9-20.08-4.52-40.04-5.03-61.06c-0.21-8.27-0.9-27.55,1.32-34.88C3903.24,3008.98,3920.89,3011.8,3929.38,3011.37z" class="st1"></path>
	<path d="M4212.27,3004.21c2.69,32.15,1.49,64.18,6.23,96.12c7.51-0.51,13.73-1.32,21.15-2.77
		c-0.17-20.08,2.43-40.08,1.79-61.15c-0.26-8.27-0.6-27.55-3.16-34.88C4238.24,3001.52,4220.8,3004.55,4212.27,3004.21z" class="st1"></path>
	<path d="M4142.38,3026.76c0.08-4.22-2.77-7.72-6.35-7.76l-129.16-2.09c-3.54-0.04-6.52,3.33-6.61,7.55l-1.07,65.16
		c-0.09,4.22,2.77,7.72,6.35,7.76l129.16,2.09c3.54,0.04,6.52-3.33,6.61-7.55L4142.38,3026.76z M4111.29,3080.03l-81.7-1.32
		c-2.26-0.04-4.05-1.88-4.01-4.09l0.55-34.24c0.04-2.22,1.92-4.01,4.14-3.97l81.7,1.32c2.26,0.04,4.05,1.88,4.01,4.09l-0.55,34.24
		C4115.43,3078.28,4113.55,3080.07,4111.29,3080.03z" class="st9"></path>
	<path d="M4043.19,3051.8c-9.59,0.38-17.91-0.34-27.16-1.49c-0.34,2.52-2.52,11.3-0.21,13.3
		c2,1.75,13.6,1.24,16.46,0.98C4037.78,3064.08,4060.8,3057.6,4043.19,3051.8z" class="st9"></path>
</g>
<path d="M4526.89,1249.38c39.49-27.59,114.15-37.1,151.38-23.45" class="st2"></path>
<path d="M2743.41,2280.05l140.04-444.63c9.42-30.11,15.95-57.48,8.66-105.16c-9.04-59.23-50.7-215.22-83.54-321.52" class="st2"></path>
<path d="M2694.07,1435.77c39.49-27.59,114.15-37.1,151.38-23.45" class="st2"></path>
<circle r="10.96" cy="1171.94" cx="4632.26" class="st2"></circle>
<circle r="10.96" cy="2238.13" cx="2357.41" class="st4"></circle>
<circle r="10.96" cy="2393.57" cx="2353.14" class="st4"></circle>
<circle r="10.96" cy="1341.53" cx="2795.77" class="st2"></circle>
<path d="M1991.79,1463.15c-44.35-18.81-143.53-1.79-143.53-1.79" class="st2"></path>
<path d="M1871.54,1408.4c-1.24-5.93,2.52-11.73,8.44-12.96s11.73,2.52,12.96,8.44s-2.52,11.73-8.44,12.96
	C1878.62,1418.12,1872.77,1414.32,1871.54,1408.4z" class="st2"></path>
<circle r="10.96" cy="2548.96" cx="2353.14" class="st4"></circle>
<circle r="10.96" cy="2704.39" cx="2350.11" class="st4"></circle>
<circle r="10.96" cy="2859.78" cx="2351.99" class="st4"></circle>
<path d="M2516.8,2037.37c0,0,65.37-57.27,117.01-119.87" class="st2"></path>
<path d="M2180.14,2102.92c0,0-60.25-41.45-83.79-81.83" class="st2"></path>
<path d="M2198.31,2947.75c-9.08-43.96-14.2-105.75-10.36-152.57" class="st2"></path>
<path d="M2494.97,2961.48c0,0,13.05-50.19,17.06-76.76" class="st2"></path>
<path d="M2545.12,2955c0,0,44.05-128.74,56.46-198.2" class="st2"></path>
<path d="M2155.66,3039c0,0-17.44,138.42-22.43,271.38" class="st2"></path>
<path d="M2444.23,3047.53c0,0,30.23,138.42,35.22,271.38" class="st2"></path>
<path d="M2352.12,1709.92c0,0,41.88,48.06,58.63,72.41c12.2,17.74,22.39,35.86,28.78,55.52" class="st2"></path>
<path d="M2458.72,1842.11c3.45-31.47-13.39-77.06-36.25-98.08" class="st2"></path>
<path d="M2499.23,1871.96c11.56,30.32,15.82,61.41,14.93,93.81" class="st2"></path>
<path d="M2490.71,1891.15c-0.3,16.84,5.88,34.92,0,51.17" class="st2"></path>
<path d="M4050.01,1530.82c39.27,18.25,70.06,53.9,95.95,89.55" class="st2"></path>
<path d="M4052.87,1514.83c24.78,1.24,43.5,13.77,59.7,31.98" class="st2"></path>
<path d="M4266.77,1769.62c32.02-40.81,39.15-97.65,29.85-147.12" class="st2"></path>
<path d="M4271.03,1733.38c5.07-28.14,12.49-44.9,2.13-72.49" class="st2"></path>
<path d="M4247.58,1705.66c-12.32-41.32-24.09-101.7-68.23-123.66" class="st2"></path>
<path d="M4097.99,1485.62c-19.23,3.92-56.97,31.85-71.47,45.2" class="st2"></path>
<path d="M2504.91,1845.65c0-34.88,0.04-68.06-14.2-100.93" class="st2"></path>
<g>
	<g>
		<g>
			<path d="M2785.71,3240.7L2785.71,3240.7C2785.75,3240.45,2785.75,3240.4,2785.71,3240.7z" class="st1"></path>
			<path d="M3560.69,3640.86c-22.34-204.34-50.92-400.58-121.96-601.47l-653.03,201.32
				c-0.04,7.21-14.2,252.06-22.64,417.51l334.62,3.92c9.3-78.33,17.4-150.78,21.41-184.73c7.38,16.63,12.37,38.04,18.08,54.71
				c14.16,41.49,29.08,85.24,44.43,130.4" class="st1"></path>
		</g>
		<path d="M3451.61,3258.23c29.34,127.2,51.3,254.41,67.46,382.29" class="st2"></path>
		<path d="M3157.51,3502.7c37.06,20.81,68.14,33.13,106.22,48.87" class="st2"></path>
		<path d="M3155.93,3477.16c65.24,9.08,128.91,19.36,193.26,33.09" class="st2"></path>
		<path d="M3120.71,3488.11c-19.4-83.41-18.93-285.79-18.93-285.79" class="st2"></path>
		<path d="M3115.21,3448.07c-73.43-58.55-88.01-157.05-84.18-252.53" class="st2"></path>
		<path d="M3302.62,3186.16c13.3,56.29,36.5,110.32,68.91,158.25c27.89,41.24,85.92,103.88,120.04,111.81" class="st2"></path>
		<path d="M3101.86,3493.32c-47.55,3.54-94.92,18.85-142.17,19.87" class="st2"></path>
	</g>
	<path d="M2783.02,3459.93c57.95-27.46,107.59-117.65,113.43-213" class="st2"></path>
</g>
<g>
	<path d="M2774.41,2940.5c-15.1-49.38-61.53-35.48-96.71-57.44c-10.62-6.61-29-1.88-31.56,11.85
		c-20.77,109.89-55.22,215.9-103.66,316.62c-0.94-0.64-1.88-1.28-2.81-1.92c-2.64-1.83-5.84-1.71-8.53-0.47
		c-4.26-2.47-9.64-0.09-12.24,4.05c-0.81-0.81-1.66-1.58-2.47-2.22c-2.6-2-6.69-1.71-9.42-0.26c-5.2,2.81-9.25,5.97-12.37,9.3
		c-4.61,2.13-8.91,4.99-12.62,8.53c-3.62,1.02-7.21,3.07-10.58,6.35c-4.48,4.39-6.95,9.04-8.02,13.82
		c-4.61,5.8-6.95,14.5-7.72,22.73c0,0,0,0,0,0.04c-8.36,19.23-5.37,68.65,14.58,81.32c3.28,2.09,6.27,3.16,8.91,3.41
		c4.22,3.03,8.83,5.25,13.65,6.35c4.43,1.02,7.97-0.51,10.66-4.01c0.81-1.07,1.49-2.17,2.17-3.28c1.15,15.95,8.23,25.59,23.88,30.45
		c4.09,1.28,7.8-0.43,10.02-3.41c0.51,0,0.98,0,1.45-0.04c1.75,1.24,3.8,1.62,5.84,1.24c19.53,43.03,72.19,6.01,88.57-21.02
		c6.57-10.83,8.78-31.39,5.88-50.7c0.64-1.66,1.15-3.37,1.45-5.24c3.24-20.43-1.54-35.44-12.07-51.3
		c11.13-24.78,16.42-52.24,28.53-77.91c22.22-47.08,58.93-85.28,86.22-129.25C2764.17,3017.9,2785.66,2977.39,2774.41,2940.5z" class="st5"></path>
	<g>
		<path d="M2490.75,3277.67c-5.12,40.55,30.57,0.94,52.83-15.39c6.57-4.82,16.16-3.24,20.21,3.84
			c16.12,27.8-31.73,69.68-50.15,87.2c-11,10.45-15.91,18.76-31.47,11.85c-40.89-18.12-24.26-88.61-18.81-116.5
			c4.18-21.32,36.63-34.11,56.59-39.44c12.84-3.41,13.05-5.29,26.48,1.71c4.99,2.6,38.21,25.97,39.36,29.47
			c11.17,33.22-53.47,7.08-64.56,4.26c6.87,13.18-8.02,34.92-18.55,41.66" class="st4"></path>
		<path d="M2566.31,3289.74c9-7.63,17.14-1.71,22.17,6.7c6.87,11.47,2.3,22.86-4.01,33.09
			c-9.94,16.03-29.34,45.5-45.8,54.45c-15.69,8.53-35.56-3.54-29.81-22.34" class="st4"></path>
		<path d="M2591.56,3319.38c5.84-8.61,20.68-11.64,26.82-2.39c6.1,9.25-4.31,26.61-9.3,34.07
			c-8.1,12.03-57.01,71.26-70.36,32.88" class="st4"></path>
		<path d="M2623.96,3323.86c11.68-11.64,21.53-0.6,22.39,11.3c0.9,12.58-8.02,25.03-14.97,35.09
			c-18.72,27.04-37.18,51.21-70.57,28.66" class="st4"></path>
		<path d="M2644.05,3321.21c0,0,17.82-53.18-30.11-64.9" class="st4"></path>
	</g>
	<path d="M2546.01,3210.77c46.44-111.3,85.2-260.63,112.11-354.61c43.2,7.33,106.48-2,150.83-0.6
		c-14.58,73.35-16.03,84.13-42.73,153.51c-22.9,59.44-128.06,191.17-136.46,253.94" class="st4"></path>
</g>
<path d="M2556.46,3117.64l-21.02,56.12c0,0,52.24,44.39,120.55,63.45l34.67-61.11L2556.46,3117.64z" class="st3"></path>
<g>
	<path d="M3682.61,1950.89c38.46-121.4,77.35-242.81,123.54-361.52c21.32-54.84-141.27-544.97-177.78-622.37l-2.94-6.4
		c-7.76-18.34-16.84-33.13-18.21-52.66c-0.81-11.21,0.04-22.81-2.56-33.86c-7.63-32.75-28.4-59.87-42.9-89.34
		c-5.29-10.75-10.02-26.1-22.39-29.34c-8.87-2.3-44.22,5.88-50.92,13.56c-3.45,3.97-4.14,7.85-3.54,11.77
		c-1.41-1.15-3.2-2.09-5.67-2.73c-1.54-1.54-3.28-2.47-5.12-2.86c-0.21-0.17-0.34-0.34-0.55-0.47c-2.39-1.58-5.67-1.58-8.14-0.21
		c-3.07,1.71-5.54,3.88-7.63,6.31c-0.43-0.13-0.68-0.38-1.15-0.47c-5.2-1.28-8.95,0.13-11.56,2.86c-0.94-0.09-1.88-0.09-2.81,0
		c-1.66-0.72-3.62-0.94-5.46-0.68c-6.57,0.81-8.14,4.39-8.7,8.23c-2.35-3.58-6.82-4.95-10.7-2.94c-2.39,0.68-4.78,1.36-7.16,2.05
		c-4.48,0.51-6.61,5.93-5.84,9.98c-1.71,0.68-3.5,1.71-5.46,3.11c-11.64,8.44-19.27,32.37-29.81,43.88
		c-9.17,10.02-16.63,15.95-9.94,30.66c6.65,14.54,26.61,24.56,38.08,34.84c10.19,9.17,18.68,21.24,30.79,27.8
		c31.21,17.01,64.13,6.95,96.07,47.8c9.38,11.98,20.17,54.37,20.17,54.37c37.95,134.03,58.16,463.31,53.09,471.67
		c-10.58,17.53-18.81,35.61-28.4,53.56c-29.25,54.63-69.29,128.44-116.2,192.19" class="st5"></path>
	<path d="M3520.01,792.21c8.66,8.74,19.53,40.38,7.21,46.52c-10.32,5.12-29.12-29.3-35.22-41.66
		c-4.86-9.85-11.68-18.76-3.5-28.1c6.74-7.68,42.05-15.86,50.92-13.56c12.32,3.2,17.06,18.55,22.39,29.34
		c14.54,29.51,35.31,56.59,42.9,89.34c2.56,11,1.75,22.6,2.56,33.86c1.36,19.53,10.45,34.33,18.21,52.66l2.94,6.4
		c36.5,77.35,199.1,567.53,177.78,622.37c-46.18,118.72-85.07,240.12-123.54,361.52c-2.69,8.53-5.46,16.97-8.27,25.41" class="st4"></path>
	<path d="M3333.83,1875.72c97.57-54.33,183.36-211.46,235.22-308.31c9.59-17.95,17.82-36.08,28.4-53.56
		c5.07-8.36-15.14-337.64-53.09-471.67c0,0-10.79-42.39-20.17-54.37c-31.94-40.85-64.86-30.79-96.07-47.8
		c-12.11-6.57-20.6-18.63-30.79-27.8c-11.43-10.32-31.43-20.3-38.08-34.84c-6.69-14.71,0.77-20.64,9.94-30.66
		c10.53-11.51,18.17-35.44,29.81-43.88c15.14-11,22.6,1.54,24.26,16.25c2.9,25.33-15.1,39.27-15.14,39.27
		c4.65-3.58,24.39,4.73,30.02,5.37c40.85,4.39,92.41,1.75,111.72,47.38" class="st4"></path>
	<path d="M3401.12,795.92c0.81-20.98,28.1-5.07,33.65,3.75c13.18,21.02,17.7,42.43,36.12,60.38
		c-19.91,17.23-41.62-7.97-46.4-27.55" class="st4"></path>
	<path d="M3427.95,789.7c-2.39-12.58,13.18-14.5,21.15-10.75c11.56,5.46,14.67,18.89,20.04,28.91
		c7.38,13.82,17.78,23.37,28.1,34.67c16.76,18.34-14.67,21.58-29.38,14.33" class="st4"></path>
	<path d="M3457.11,782.36c-1.11-8.87,9.13-13.73,16.55-11.43c6.65,2.09,8.49,7.59,11.22,13.26
		c6.78,14.29,45.16,58.46,21.41,65.54" class="st4"></path>
	<path d="M3536.68,783.6c-3.84,5.29-13.43,6.35-19.87,7.93" class="st4"></path>
</g>
<path d="M3531.82,1114.42l-10.96-60.94c0,0,40.81-40.43,135.99-46.18l31.85,70.45L3531.82,1114.42z" class="st3"></path>
<path d="M3333.83,1875.72c-35.99,20.04-85.97,39.36-110.83-1.28c-12.15-19.87-31.04-95.82-32.45-103.28
	c-44.22,24.69-144.34,88.14-188.35,113.17c4.35-2.3,17.74,47.93,18.98,52.71c7.72,30.15,18.42,65.67,3.2,95.18
	c-37.1,71.72-159.01,84.43-224.09,119.36l54.88,345.19l665.35-248.18L3333.83,1875.72z" class="st3"></path>
<path d="M2964.21,1504.17c-22,17.7-40.17,40.04-52.19,66.05c-23.07,50.02-23.15,106.82-22.81,161.44
	c0.34,54.45,2.52,113.98,37.7,154.02c29.25,33.26,76.37,45.58,120.85,42.81c141.32-8.78,244.21-130.32,245.49-268.56
	c0.81-90.7-69.72-173.77-155.52-196.03C3078.83,1448.65,3012.44,1465.32,2964.21,1504.17z" class="st5"></path>
<path d="M2976.11,1643.91c-24.82-28.19-62.3-3.54-62.3-3.54" class="st4"></path>
<path d="M3055.12,1653.63c47.46-30.92,97.91,15.86,97.91,15.86" class="st4"></path>
<path d="M2960.67,1688.52c-1.79,10.11-8.32,17.44-14.67,16.33c-6.31-1.11-10.02-10.19-8.23-20.34c1.79-10.11,8.32-17.44,14.67-16.33
	C2958.75,1669.33,2962.42,1678.41,2960.67,1688.52z"></path>
<path d="M3098.06,1705.19c-1.79,10.11-8.32,17.44-14.67,16.33c-6.31-1.11-10.02-10.19-8.23-20.34c1.79-10.11,8.32-17.44,14.67-16.33
	C3096.14,1685.96,3099.85,1695.08,3098.06,1705.19z"></path>
<path d="M2983.14,1655.85c7.59,20.17-0.98,47.25-4.31,67.72c-2,12.45-8.06,27.63,5.24,35.91" class="st4"></path>
<path d="M3151.96,1799.56c13.3-18.12,9.38-43.62-8.74-56.93s-43.62-9.38-56.93,8.74s-9.38,43.62,8.74,56.93
	S3138.66,1817.68,3151.96,1799.56z" class="st6"></path>
<path d="M2890.48,1773.67c14.2,7.93,32.37,4.39,42.26-9.08c10.7-14.58,7.55-35.05-7.04-45.71
	c-10.75-7.89-24.65-8.19-35.52-2C2889.16,1735.81,2888.9,1754.99,2890.48,1773.67z" class="st6"></path>
<path d="M3293.24,1659.94c0.81-90.7-69.72-173.77-155.52-196.03c-58.93-15.27-125.33,1.41-173.51,40.25
	c-22,17.7-40.17,40.04-52.19,66.05c-23.07,50.02-23.15,106.82-22.81,161.44c0.34,54.45,2.52,113.98,37.7,154.02
	c29.25,33.26,76.37,45.58,120.85,42.81c11.26-0.68,22.3-2.13,33.05-4.22" class="st4"></path>
<path d="M3001.18,1853.63c28.02-5.24,41.49-41.06,49.38-63.84c-33.39,4.9-72.79,3.67-104.69-7.08
	c0,0,4.95,32.92,13.13,48.31C2966.9,1845.87,2982.84,1857.04,3001.18,1853.63z" class="st3"></path>
<path d="M2789.25,2907.11l-124.3-76.88c22.17-113.94,7.93-293.76,11.94-441.56c1.54-56.67,4.86-109.68,30.45-159.14
	c49.64-95.95,110.66-114.75,202.85-146.82c61.53-21.41,103.49-72.66,103.49-72.66s80.3,58.12,117.05,75.18
	c48.91-66.78,95.65-132.87,137.65-204.64c0,0,55.99-4.61,77.1-20.64c41.28-31.38,89.68-91.6,121.19-132.58
	c42.26-54.88,87.12-140.72,120.51-201.7l221.87,108.91c0,0-125.75,500.79-158.37,581.81c0,0-133.17,597.17-157.56,814.39
	c-2.73,24.39-18.68,86.31-18.68,86.31c-463.95,61.41-673.15,10.49-673.15,10.49c-27.38-44.31-4.05-591.41-5.5-682.37" class="st3"></path>
<path d="M3282.49,1512.83c-21.71-63.32-84.65-124.94-236.11-93.81c-35.69,7.33-70.7,17.18-104.99,28.14
	c-18.55,5.97-31.64,8.61-46.18-4.95c-7.72,13.35-4.56,44.48,5.71,56.2c-7.21-0.04-12.15,1.41-17.1-3.24
	c-18.72,61.53,121.23,38.76,153.04,37.78c26.05-0.77,114.71-10.23,127.29,18.85c69-21.62,57.44,138.76,51.98,158.2
	c12.15,18.04,23.28,36.46,22.05,58.8c-1.28,22.56-26.31,61.19-17.53,84.52c-1.71-4.61,36.03-19.27,82.34-76.12
	c21.28-26.14,54.75-76.42,56.71-109.68C3363.26,1606.77,3349.44,1537.48,3282.49,1512.83z" class="st1"></path>
<g>
	<path d="M3227.53,1794.65c34.41-5.67,67.55-50.32,56.33-86.18c-10.02-32.15-54.71-30.96-67.8-1.88" class="st3"></path>
	<path d="M3225.56,1746.34c-3.41-20.17,25.63-28.83,39.4-17.95" class="st4"></path>
	<path d="M3225.44,1743.87c5.67-11.34,21.53-1.02,24.78,7.16" class="st4"></path>
</g>
<polygon points="3107.74,2201.25 3057.81,2714.28 3187.31,2712.23 3150.51,2200.57" class="st7"></polygon>
<path d="M2989.71,2109.7c14.37,25.67,34.88,57.35,62.09,88.27c0,0,53.26-110.23,78.89-112.75
	c40.3-3.92,103.96,97.27,103.96,97.27s36.63-67.55,67.84-152.57" class="st4"></path>
<g>
	<path d="M2982.16,2027.35c0.04,0.26-63.15,40.34-70.19,44.39c-57.95,33.05-118.76,38.38-165.88,58.04
		c-28.27,11.81-53.81,15.86-68.57,47.08c-23.37,49.38-12.79,205.75-12.58,291.46c0.3,120.25,2.52,192.7-9.13,312.66
		c-2.9,29.98-114.11,357.43-114.11,357.43c40.98,25.42,88.87,55.48,136.88,67.84l94.2-158.72l-0.13-104.69
		c0,0,1.88,317.9-6.1,418.02c0,0,69.08,28.83,292.19,35.35c26.57-125.75,45.37-702.79,45.37-702.79
		C3044.85,2548.96,2982.2,2027.61,2982.16,2027.35z" class="st1"></path>
	<path d="M2775.34,2498.51c0.94,59.4-5.24,741.98-5.24,741.98" class="st4"></path>
</g>
<g>
	<path d="M2936.36,2057.07c0,0-15.74,84.94-31.81,194.15l81.23,9.38l-66.99,67.08c0,0,63.67,272.44,171.76,358.03" class="st4"></path>
</g>
<path d="M3078.36,3401.08c0,0,297.13,11.9,467.66-10.66c0,0,11.3-231.46,29.34-444.76
	c25.29-298.84,83.02-662.92,83.02-662.92c2.3-25.84,7.68-51.26,15.99-75.86c45.97-135.73,131.64-550.47,131.64-550.47
	c10.36-35.01,17.44-66.82,8.14-121.87c-17.95-106.39-107.54-486.55-126.26-497.13c0,0-129.85,22.3-167.33,58.59
	c0,0,23.15,103.32,29.04,153.34c10.87,92.24,25.76,295.34,25.76,295.34c-35.05,64.01-71.3,124.64-115.65,182.25
	c-33.09,42.98-160.34,142.08-160.34,142.08s-78.12,571.28-203.28,835.32C3096.1,2704.3,3084.12,3137.89,3078.36,3401.08z" class="st1"></path>
<path d="M3617.15,2622.39c19.27-187.76,41.24-339.69,41.24-339.69c2.3-25.84,7.68-51.26,15.99-75.86
	c15.14-44.73,34.63-119.78,53.9-200.29" class="st4"></path>
<path d="M3117.76,2685.75c225.83-201.87,301.48-581.56,301.48-581.56l-77.57-48.7l68.1-51.6
	c-11.56-48.61-46.22-141.62-58.21-173.17" class="st4"></path>
<path d="M3371.27,2457.91c58.38-3.45,118.38-0.68,175.9-11.56l-0.47-30.19c-57.52,10.87-117.52,8.06-175.9,11.56
	L3371.27,2457.91z" class="st2"></path>
<path d="M3323.73,3077.17c70.36-2.39,142.6-1.66,212.06-7.72l-0.26-15.1c-69.42,6.06-141.7,5.33-212.06,7.72
	L3323.73,3077.17z" class="st2"></path>
<path d="M2889.8,3068.6c-44.01-4.61-77.01-4.61-120.21-13.09l1.02-15.99c43.2,8.49,76.37,8.49,120.38,13.09
	L2889.8,3068.6z" class="st2"></path>
<path d="M3136.48,2753.81c10.19-0.17,18.34-8.57,18.17-18.76c-0.17-10.19-8.57-18.34-18.76-18.17
	c-10.19,0.17-18.34,8.57-18.17,18.76C3117.89,2745.84,3126.29,2753.98,3136.48,2753.81z" class="st4"></path>
<path d="M3136.48,2944.81c10.19-0.17,18.34-8.57,18.17-18.76s-8.57-18.34-18.76-18.17s-18.34,8.57-18.17,18.76
	C3117.89,2936.83,3126.29,2944.98,3136.48,2944.81z" class="st4"></path>
<path d="M3127.96,3160.11c10.19-0.17,18.34-8.57,18.17-18.76s-8.57-18.34-18.76-18.17s-18.34,8.57-18.17,18.76
	C3109.36,3152.13,3117.76,3160.28,3127.96,3160.11z" class="st4"></path>
<path d="M2795.77,2445.21" class="st2"></path>
<path d="M2757.18,3054.44" class="st2"></path>
<path d="M3595.62,1546.98c22.81,17.18,45.24,34.33,69.04,50.1" class="st2"></path>
<path d="M3616.6,1525.32c44.31,18.72,85.24,42.3,128.91,61.96" class="st2"></path>
<path d="M3490.12,1708.56c32.66,71.51,56.89,143.92,83.79,216.41c33.13,89.34,78.21,268.14,78.21,268.14" class="st2"></path>
<path d="M2768.39,2468.28c-17.36-41.75-18.51-102.47-21.58-147.5c-3.67-54.24-2.39-105.03,2.56-159.27" class="st2"></path>
<path d="M3083.78,2138.95c0,0,25.24-47.38,47.03-53.69c16.25-4.69,54.71,31.77,64.82,44.56l-35.73,83.07
	c0,0-28.91-6.1-39.44-5.97c-10.53,0.13-21.02,5.97-21.02,5.97L3083.78,2138.95z" class="st7"></path>
<path d="M3221.3,1538.63c45.58,0.34,43.45,87.72,31.26,115.13" class="st2"></path>
<path d="M3251.15,1531.51c22.05,12.45,32.75,35.82,31.26,61.11" class="st2"></path>
<path d="M3285.26,1717.73c12.2-25.84,27.38-53.22,35.52-81.02" class="st2"></path>
<path d="M3279.59,1740.45c8.91-10.62,21.71-19.53,26.99-32.71" class="st2"></path>
<path d="M3212.77,1518.71c-9.25-25.54-46.31-30.96-69.08-29.89c-50.02,2.35-98.93,12.88-149.8,12.84" class="st2"></path>
<path d="M3222.75,1500.25c-4.09-17.31-27.12-23.28-41.24-27.72c-26.48-8.32-56.29-5.33-83.88-0.72" class="st2"></path>
<path d="M2666.95,2795.17c18.81,20.43,45.93,44.86,71.08,56.84" class="st2"></path>
</svg>
