<svg xml:space="preserve" style="enable-background:new 0 0 2327.99 1533.89;" viewBox="0 0 2327.99 1533.89" y="0px" x="0px" xmlns:xlink="http://www.w3.org/1999/xlink" xmlns="http://www.w3.org/2000/svg" id="레이어_1" version="1.1">
<style type="text/css">
	.st0{fill:#97BDDE;}
	.st1{fill:#FFFFFF;stroke:#000000;stroke-linecap:round;stroke-linejoin:round;stroke-miterlimit:10;}
	.st2{fill:none;stroke:#000000;stroke-linecap:round;stroke-linejoin:round;stroke-miterlimit:10;}
	.st3{fill:#FFFFFF;stroke:#000000;stroke-width:0.75;stroke-linecap:round;stroke-linejoin:round;stroke-miterlimit:10;}
	.st4{fill:none;stroke:#000000;stroke-width:0.75;stroke-linecap:round;stroke-linejoin:round;stroke-miterlimit:10;}
	.st5{fill:#021E84;stroke:#000000;stroke-width:0.75;stroke-linecap:round;stroke-linejoin:round;stroke-miterlimit:10;}
	.st6{stroke:#000000;stroke-width:0.75;stroke-linecap:round;stroke-linejoin:round;stroke-miterlimit:10;}
	.st7{fill:none;stroke:#000000;stroke-width:0.25;stroke-linecap:round;stroke-linejoin:round;stroke-miterlimit:10;}
	.st8{fill:#FFFFFF;stroke:#000000;stroke-width:0.25;stroke-linecap:round;stroke-linejoin:round;stroke-miterlimit:10;}
	.st9{fill:#FFFFFF;}
	.st10{fill:#F2B3B3;}
	.st11{fill:#DA2864;stroke:#000000;stroke-width:0.75;stroke-linecap:round;stroke-linejoin:round;stroke-miterlimit:10;}
	.st12{fill:#F4B5B5;}
	.st13{fill:#021E84;stroke:#000000;stroke-linecap:round;stroke-linejoin:round;stroke-miterlimit:10;}
	.st14{stroke:#000000;stroke-linecap:round;stroke-linejoin:round;stroke-miterlimit:10;}
	.st15{fill:none;stroke:#000000;stroke-width:0.5;stroke-linecap:round;stroke-linejoin:round;stroke-miterlimit:10;}
	.st16{fill:#FFFFFF;stroke:#000000;stroke-width:0.5;stroke-linecap:round;stroke-linejoin:round;stroke-miterlimit:10;}
	.st17{fill:#DA2864;stroke:#000000;stroke-linecap:round;stroke-linejoin:round;stroke-miterlimit:10;}
</style>
<rect height="1517.35" width="2379.55" class="st0" x="-9.27"></rect>
<path d="M1066.47,1533.39c-7.12-1.11-1065.97-6.05-1065.97-6.05s4.32-328.29,6.55-427.39
	c61.06-87.68,186.41-90.07,277.55-47.82c109.91,50.94,124.88,118.28,124.92,219.63c26.98-36.76,61.84-69.82,121.92-62.88
	c83.51,9.65,111.64,88.48,99.6,141.94c0,0,35.17-44.68,96.26-26.6c53.14,15.72,40.84,73.71,40.84,73.71
	c17.16-24.07,48.84-42.04,79.01-46.57c138.43-20.8,188.39,110.31,188.39,110.31c6.33-19.16,19.63-47.84,70.73-41.18
	c22.07,2.87,37.1,7.67,47.32,24.21c-7.58-30.78,4.43-59.88,28.25-81.47c38.18-34.6,88.04-51.67,140.87-44.88
	c52.82,6.8,97.9,41.15,120.64,86.23c42.47-64.4,165.26-76.78,188.21,9.39c-3.5-48.85,22.34-93,71-113.21
	c48.66-20.22,102.22-6.69,143.15,24.12c-44.88-107.43,21.52-249,98.74-314.66c80.49-68.45,277.55-122.21,349.37-45.25
	c0.43,189.69,6.17,374.31,8.15,562.37C1887.52,1527.93,1476.13,1531.85,1066.47,1533.39z" class="st1"></path>
<path d="M355,1283.21c18.18-15.77,47.73-17.88,68.53-4.87c20.8,13.01,31.03,39.93,23.71,62.49" class="st2"></path>
<path d="M234.4,1294.04c12.63-6.44,28.62-6.07,40.93,0.98c12.31,7.05,20.56,20.5,21.13,34.51" class="st2"></path>
<path d="M1483.05,1418.75c-16.22-14.24-41.98-17.79-61.86-8.55c-19.88,9.24-32.55,30.67-30.44,51.48" class="st2"></path>
<path d="M1974.91,1400.89c-12.28-7.9-29.28-9.94-42.18-2.98c-12.9,6.96-19.61,23.66-12.78,36.1" class="st2"></path>
<path d="M580.09,1460.96c1.02-11.46,13.81-18.88,25.3-18.24c11.49,0.64,21.75,7.01,31.46,13.22" class="st2"></path>
<path d="M2211.24,1057.93c-15.38-8.9-36.26-7.07-49.87,4.37c-13.61,11.44-18.98,31.69-12.86,48.37" class="st2"></path>
<path d="M2179.2,1172.87c-14.33-1.28-27.73,13.44-25.09,27.57" class="st2"></path>
<g>
	<path d="M1990.97,513.93c0.96,0.66,2.05,1.16,3.19,1.32c1.16,0.14,2.37-0.09,3.32-0.77c0.41-0.3,0.75-0.68,0.93-1.14
		c0.14-0.41,0.14-0.87,0.09-1.32c-0.27-1.93-1.69-3.66-3.55-4.26C1990.51,506.24,1986.4,510.75,1990.97,513.93z" class="st3"></path>
	<g>
		<path d="M1988.38,503.4c-1.75,3.57-0.45,6.03,2.05,8.58c1.8,1.84,9.24,1.68,7.4-3.28
			C1996.47,505.01,1992.65,507.77,1988.38,503.4z" class="st3"></path>
		<path d="M1996.54,509.67c-2.05,1.73-6.89-0.73-7.64-2.55c-0.89-2.14-1.61-5.3-2.07-7.57
			c-0.48-2.34,0.16-2.19,2.3-2.71c2.87-0.68,9.12-3.09,11.74-0.82c4.43,3.84,8.1,11.49,10.92,16.52
			c2.46,4.39,12.61,16.27,22.96,26.19" class="st3"></path>
		<path d="M2000.77,503.71c-2.46-0.39-6.01-3.82-8.87-4.91c-1.34-0.5-3.25-0.41-4.46,0.36
			c-0.98,0.61-2.39,2.41-1.34,3.5c1.96,2.05,2.57-0.34,4.71,1.45c3.68,3.03,4.98,7.9,7.4,11.95c1.77,2.98,4.14,4.05,7.03,4.23
			c6.6,8.51,14.79,16.42,16.18,22.2c3.35-0.82,4.05-1.14,7.4-1.96" class="st3"></path>
	</g>
	<path d="M1994.47,499.94c1.18,0.54,2.52,0.71,3.8,0.54c0.14,1,0.57,2,1.36,2.64" class="st4"></path>
</g>
<path d="M2106.38,602.13c-17.63-15.22-32.87-24.98-48.3-42.43c-12.85-14.52-22.45-22-34.76-36.95
	c-6.28,2.78-11.19,5.01-13.47,11.49c5.8,8.73,31.19,41.97,36.67,48.21c5.53,6.3,7.16,7.82,13.49,13.31
	c11.56,10.05,29.1,28.23,40.68,38.29" class="st3"></path>
<path d="M2149.33,624.43c-5.89-3.52-7.24-12.63-13.13-16.17c-8.6-5.16-20.14-8.99-26.1-17.52
	c-4.26-6.1-7.05-13.17-10.17-19.97c-4.25,3.98-9.44,14.13-13.63,18.16c0,0,8.55,16.24,15.51,39.86" class="st3"></path>
<path d="M2118.21,592.4c-1.52-1.09-9.37-4.6-9.37-4.6c-4.03,7.23-8.71,15.31-12.67,22.43c-0.57,1.02-2.48,4.1-2.8,5.25
	c0,0,24.34,61.04,56.4,100.1c6.01-2.12,11.81-2.52,17.4-5.51L2118.21,592.4z" class="st3"></path>
<path d="M2093.83,615.33c4.41,0.48,9.83,5.67,12.78,7.01c4.21-6.35,9.53-22.09,11.6-29.48" class="st3"></path>
<g>
	<path d="M2158.85,814.53c0,0,22.21,1.28,31.53,3.16c10.14,2.05,21.27,11.21,26.66,18.52c3.18,4.3,8.67,8.24,7.65-0.73
		c-0.77-6.83-2.69-9.9-7.37-14.79c-4.25-4.44-5.3-9.37-7.39-14.81c-2.52-6.58-7.07-6.03-12.7-3.12c-11.65,6-26.94-3.43-41.75-4.89" class="st3"></path>
	<g>
		<path d="M2220.5,834.18c-0.66,2.14-3.71,2.8-5.32,2.36c-5.51-6.14-18.27-15.02-19.36-16.67
			c-0.34-0.5-0.37-1.14-0.12-1.68c0.95-1.98,3.84-4.53,5.48-1.98C2201.18,816.23,2214.27,824.33,2220.5,834.18z" class="st5"></path>
		<path d="M2221.8,832.59c-1.93,1.03-5.05,1.05-7.01-0.04c-1.59-0.87-15.29-10.3-15.81-11.1
			c-1.14-1.77,0.14-3.82,0.43-5.69c0.41-2.69-0.2-5.23-1.78-7.46c-1.45-2.05-3.93-2.39-6.44-2.82c-0.18-1.18,1.05-2.71,1.87-3.46
			c2.69-2.48,6.35-4.55,9.78-5.76" class="st5"></path>
		<path d="M2217.79,833.12c-1.21,0.3-3.3,0.95-3.98,2.11c1.71,3.35,5.67,7.26,9.37,8.3c0,0,0.05-5.34-0.27-7.58
			C2222.57,833.6,2220.25,832.5,2217.79,833.12z" class="st5"></path>
		<path d="M2201.11,796.38c1.75,1.77,3.21,3.68,4.57,5.8c1.98,3.07,3.59,6.39,5.44,9.55
			c1.55,2.64,11.37,21.96,12.06,31.8c1.25,0.02,2.8-1.12,3.64-1.93c0.89-0.98-2.68-11.28-3.73-14.33c-2.53-7.3-5.01-11.28-8.9-17.88
			c-3.55-6.03-4.3-8.87-8.26-14.65C2205.48,794.1,2201.77,795.71,2201.11,796.38z" class="st6"></path>
		<path d="M2200.23,824.72c0.48-1.23,3.02-3.75,3.02-3.75" class="st4"></path>
		<path d="M2202.5,826.57c0.54-0.89,3.3-3.46,3.3-3.46" class="st4"></path>
		<path d="M2204.69,828.48c0.91-0.89,2.75-2.36,3.66-3.27" class="st4"></path>
		<path d="M2207.41,830.48c0,0,2.78-2.18,3.73-2.94" class="st4"></path>
		<path d="M2210.1,832.61c0,0,2.71-1.73,3.91-2.66" class="st4"></path>
	</g>
</g>
<path d="M2186.51,696.43c5.83,0.98,14.52,7.33,18.49,11.58c4.91,5.25,8.94,10.55,12.95,16.47
	c14.88,21.95,20.04,37.83,38.42,57.49c2.87-0.21,2.77,1.96,4.92,2.98c19.68,9.33,60.08,34.92,66.32,38.31
	c-3.18,7.48-5.87,13.76-11.01,20.04c-17.61-9.78-49.96-25.82-67.68-35.01c-32.15-16.7-51.46-40.68-78.63-62.34" class="st5"></path>
<path d="M2181.85,705.3c5.83,0.98,12.61,7.96,16.58,12.2c4.91,5.25,8.94,10.55,12.95,16.47
	c14.88,21.95,21.93,37.2,40.31,56.85c2.87-0.21,2.77,1.96,4.92,2.98c19.68,9.33,60.08,34.92,66.32,38.31" class="st7"></path>
<path d="M2255.62,785.73c-1.98,3.41-3.76,6.92-5.35,10.53" class="st7"></path>
<path d="M2183.98,696.43c-11.21,6.73-21.88,15.47-34.21,19.15c0,0-18.65,18.38-26.62,24.62
	c-8.56,6.69-17.58,12.94-25.52,20.27c-5.62,5.17-14.01,12.08-14.22,20.2c0,0-2.41,10.37,9.87,20.66c6.67,5.6,18.47,9.49,26.66,10.35
	c23.29,2.44,60.77,8.8,60.77,8.8c3.44-7.42,4.05-11.54,2.07-19.97c-16.7-3.35-30.35-9.42-46.25-13.19c-4.18-0.98-13.45-2.66-19.16-4
	c2.34-0.73,1.57-2.78,0.71-4.67c22.91-8.53,52.42-20.06,74.89-30.1c6.67-2.98,12.83-6.99,17.59-12.54c2-2.34,3.8-4.94,4.64-7.9
	c1.71-6.07,0.41-15.13-2.98-20.45c-3.25-5.09-14.77-14.29-20.8-14.68" class="st5"></path>
<path d="M2145.37,720.32c7.39-0.68,16.08-1.43,23.07-4.26c11.53-4.67,18.54-6.26,24.89-14.19" class="st7"></path>
<g>
	<g>
		<path d="M2181,666.42c4.69,2.37,44.48,23.45,46.39,25.32c1.34,1.32,4.76,8.89,7.12,10.17
			c2.34,1.27,5.96,4.53,8.56,2.73c1.43,0.23,3.6,1.45,4.34-1c0.45-1.5-0.71-2.14-1.66-3.03c2.43-0.37,1.62-3.44,0.48-4.66
			c1.2-0.55,1.3-1.86,1.27-2.98c-0.02-0.55-0.57-0.91-0.57-1.45c0.02-0.68,0.68-1.18,0.68-1.87c-0.04-3.23-6.69-5.94-9.05-6.67
			c-2.41-0.75-6.66-0.55-8.94-1.96c-5.35-3.3-34.33-23.7-42.31-27.62L2181,666.42z" class="st3"></path>
		<path d="M2244,704.87c0,0-0.71-0.27-1.52-0.62c-1.82-0.82-4-1.68-5.76-2.62" class="st4"></path>
		<path d="M2246.21,700.98c-1-0.64-2.02-1.2-3.07-1.71" class="st4"></path>
		<path d="M2241.16,700.26c-0.39-0.34-0.89-0.54-1.36-0.77" class="st4"></path>
		<path d="M2243.66,696.02c-0.54-0.32-1.02-0.62-1.64-0.73" class="st4"></path>
		<path d="M2244.96,692.22c-0.48-0.2-0.96-0.39-1.46-0.57" class="st4"></path>
		<path d="M2245.84,688.74c-0.43-0.34-0.93-0.54-1.46-0.57" class="st4"></path>
	</g>
	<g>
		<path d="M2226.66,678.53l2.34,1.5c-5.21,6.32-5.83,9.83-5.83,9.87l-2.39-1.5
			C2220.84,688.2,2221.27,685.06,2226.66,678.53z" class="st3"></path>
		<path d="M2222.25,685.95c0.95,1.36,2.8,1.7,4.16,0.77c1.36-0.93,1.69-2.8,0.77-4.16c-0.95-1.36-2.8-1.7-4.16-0.77
			C2221.66,682.72,2221.32,684.6,2222.25,685.95z" class="st3"></path>
		<path d="M2222.96,685.45c0.66,0.96,1.98,1.2,2.94,0.54c0.96-0.66,1.2-1.98,0.54-2.94c-0.66-0.96-1.98-1.2-2.94-0.54
			C2222.55,683.17,2222.3,684.49,2222.96,685.45z" class="st8"></path>
	</g>
</g>
<path d="M2115.71,779.67c-3.89-1.61-8.62-4.37-12.99-4.62" class="st7"></path>
<path d="M2112.62,782.82c-2.77-0.59-5.55-0.95-8.37-1.07" class="st7"></path>
<path d="M2183.87,808c-16.7-3.35-41.15-10.46-57.04-14.2c-4.18-0.98-17.61-6.01-19.4-10.67
	c2.34-0.73,2.36-4.39,1.5-6.28c16.56-6.17,32.14-14.58,47.89-22.52c11.12-5.6,23.82-9.49,32.58-18.81c3.87-4.12,5.96-8.1,5.73-13.79
	c-0.21-5.23-2.14-10.94-6.94-13.65" class="st7"></path>
<path d="M2194.84,722.55c-3.07,1.02-6.53-0.05-9.12-2.02c-2.59-1.94-4.48-4.66-6.32-7.33" class="st7"></path>
<path d="M2208.99,687.92c-5.51,10.76-26.75,32.67-40.88,41.25c-13.67-17.38-32.33-37.35-41.68-54.99
	c-10.6-20-20.84-60.74-13.22-84.84c12.03,6.01,16.24,9.39,24.69,17.08c14.08,12.83,21.2,26.44,27.83,38.11
	c2.78,4.91,5.28,10.01,8.06,15.01c2,3.6,3.98,6.96,6.87,9.92C2186.55,675.44,2202.5,682.74,2208.99,687.92z" class="st3"></path>
<path d="M2142.33,666.7c15.08,15.45,28.51,34.08,46.41,45.7" class="st7"></path>
<polygon points="2174.04,681.42 2157.18,695.91 2155.21,693.52 2172.34,679.14" class="st3"></polygon>
<path d="M2126.34,613.44c18.81,6.73,37.06,20.16,51.21,27.6c2.44,1.28,4.62,2.73,6.8,4.41
	c9.03,6.94,30.3,23.2,39.33,30.14c-2.14,5.3-3.32,7.16-7.57,10.99c0,0-29.69-17.5-42.86-23.89c-14.93-7.24-36.04-11.19-32.62-10.13" class="st3"></path>
<path d="M2124.11,614.85c-0.3,12.7,4.82,25.43,13.81,34.4" class="st7"></path>
<path d="M2121.22,593.62c0.75,6.66-0.25,16.52,0.5,23.18c-3.43,1.53-6.87,2.91-10.3,4.44c2.5,4.09,8.46,4.94,12.26,7.85
	c5.55,19.23,3.89,36.02,10.19,53.21" class="st4"></path>
<path d="M2106.13,547.15c-5.41-8.49-15.93-11.47-26.68-7.92c-2.37,0.79-4.66,1.82-6.8,3.07
	c-6.69,3.93-11.69,10.46-11.31,18.5c0.37,7.92,4.07,13.45-0.14,20.86c2.73,1.8,4.28,1.03,6.05,3.78c1.46,2.27,1.16,6.41,3.85,7.64
	c0.02,0.02-0.02-0.02,0,0c4.05,2.11,15.01-1.11,20.31-3.5c12.35-5.6,20.32-20,18.07-33.46
	C2108.89,552.7,2107.73,549.69,2106.13,547.15z" class="st9"></path>
<path d="M2064.72,567.42c4.07-4.05,10.05-0.46,10.05-0.46" class="st4"></path>
<path d="M2070.05,571.65c0.04,1.03-0.46,1.91-1.12,1.93c-0.64,0.02-1.21-0.8-1.25-1.84c-0.04-1.03,0.46-1.91,1.12-1.93
	C2069.46,569.78,2070.01,570.62,2070.05,571.65z"></path>
<path d="M2079.51,576.76c0.04-2.28-1.8-4.16-4.09-4.18c-2.28-0.04-4.16,1.8-4.18,4.09c-0.04,2.28,1.8,4.16,4.09,4.18
	C2077.62,580.86,2079.49,579.04,2079.51,576.76z" class="st10"></path>
<path d="M2073.08,583.98c-1.75,0.75-3.73,1.34-5.73,1.7c0.98,1.7,0.8,2.61,1.53,4.55
	C2069,590.19,2073.81,590.05,2073.08,583.98z" class="st3"></path>
<path d="M2104.58,578.09c4.19-6.44,6.17-14.35,4.91-21.93c-0.59-3.46-1.73-6.48-3.35-9.01
	c-5.41-8.49-15.93-11.47-26.68-7.92c-2.37,0.79-4.66,1.82-6.8,3.07c-6.69,3.93-11.69,10.46-11.31,18.5
	c0.37,7.92,4.07,13.45-0.14,20.86c2.73,1.8,4.28,1.03,6.05,3.78c1.46,2.27,1.16,6.41,3.85,7.64c0.02,0.02-0.02-0.02,0,0
	c3.32,1.71,11.21-0.11,16.9-2.14" class="st4"></path>
<path d="M2103.72,579.59c-3.16-0.25-7.16-4.41-9.31-6.57c-1.71-1.71-2.48-4.35-4.12-6c-3.35-3.39-9.65-1.66-12.53-5.73
	c1.2,2.03,1.78,3.53,4.51,5.44c-9.08-0.89-16.75-2.89-18.84-9.17c0.43,2.05-0.27,5.91,1.21,7.67c-5.42-3.8-4.66-11.35-1.45-16.11
	c2.71-4.03,7.32-7.46,11.53-9.76c8.07-4.39,17.47-3.41,25.35,0.68c6.28,3.25,9.44,10.85,10.21,17.54c0.41,3.68,0.02,7.21-1.21,10.71
	C2108.64,569.51,2104.68,579.66,2103.72,579.59z" class="st6"></path>
<g>
	<path d="M2091.71,575.19c3.59-1.46,6.08-7.12,3.98-10.74c-1.87-3.23-6.69-2-7.39,1.46" class="st3"></path>
	<path d="M2090.32,570.01c-0.87-2.11,2.07-3.76,3.82-2.93" class="st4"></path>
	<path d="M2090.23,569.74c0.34-1.37,2.3-0.64,2.85,0.16" class="st4"></path>
</g>
<path d="M2100.15,626.57c-0.84-0.27-3.28,0.39-2.68,1.03c2.03,2.19,6.73,4.55,9.42,5.01
	c7.37,1.25,14.83-2.11,20.72-6.69c5.89-4.59,10.71-10.44,16.33-15.34c5.89-5.14,12.65-9.26,19.93-12.12c1.94-3.09,4.34-7.4,6-10.65
	c-4.94-2.02-10.12-3.57-15.47-3.59c-9.42,2.57-17.49,9.28-23.95,16.59c-6.46,7.32-11.94,15.47-18.72,22.5
	c-1.71,1.78-3.64,3.55-6.05,4.1C2104.33,627.75,2102.11,627.2,2100.15,626.57z" class="st11"></path>
<path d="M2102.33,619.67c0,0-0.43,4.46-0.89,6.83c-1.48-0.34-3.16-0.16-4.35,1.05c-1.05-2.93-5.41-9.17-3.25-12.22
	C2093.83,615.33,2096.69,615.62,2102.33,619.67z" class="st11"></path>
<g>
	<path d="M1223.58,156.13c-1.02-0.68-0.43-2.75,0.45-3.3c0.96-0.61,2.85-1.23,3.94-1.52c3.85-1,6.32-1.46,10.69-2.85
		c1.46-0.46,3.57-1.03,4.96-0.12c1,0.64,1.27,1.94,1.62,3c0.46,1.36,0.62,2.73,1,4.09c1.07,3.91,2.66,8.01,4.44,11.67
		c0.89,1.82,2.21,3.71,3.34,5.42c1.28,1.94,2.84,2.57,4.41,4.14c1.53,1.53,2.39,3.96,3.6,5.78c1.64,2.48,3.66,4.66,5.69,6.87
		c6.66,7.23,13.53,14.63,19.65,22.3l-16.67,11.13c-2.44-6.48-14.42-23.48-16.04-25.85c-3.8-5.57-8.08-10.13-11.01-13.26
		c-3.19-3.41-6.49-5.07-9.6-8.07c-2.94-2.82-3.91-5.26-6.55-8.33c-1.2-1.39-5.62-1.75-6.46-3.27c-0.98-1.8,0.29-3.41,1-5.32
		c0.79-2.12,1.12-3.52,3.3-0.82c1.46,1.82,0.84,4,0.32,6.25" class="st3"></path>
	<path d="M1243.26,179.7c-4.42-3.21-2.55-14.54-7.78-15.61" class="st4"></path>
	<path d="M1230.31,165.05c1.2-0.52,3.73-1.14,5.1-0.98c1,0.12,1.68,0.7,2.12,1.53c0.73,1.39-0.25,1.73-1.59,2.12
		c-1.82,0.54-4.44,0.98-6.35,0.75c-2.09-0.25-3.1-2.62-3.96-4.41c-0.59-1.21-0.64-1.75,0.59-2.53c2.53-1.62,5.51-2.73,8.12-4.32" class="st4"></path>
	<path d="M1225.47,158.37c-0.11-1.77,1.77-2.41,3.09-2.98c3.05-1.28,5.6-2.02,8.26-3.32" class="st4"></path>
	<path d="M1240.44,149.77c0.7-0.52,1.82,0.11,2.09,0.84" class="st4"></path>
	<path d="M1238.89,154.66c0.95,0.25,1.66,0.36,1.71,1.43" class="st4"></path>
	<path d="M1237.52,160.03c0.52-0.36,1.61,0.64,1.77,1.2" class="st4"></path>
</g>
<g>
	<path d="M1266.31,149.13c1.07,0.8,2.28,1.43,3.6,1.64c1.32,0.21,2.73,0,3.84-0.75c0.48-0.32,0.89-0.75,1.11-1.28
		c0.2-0.46,0.2-1,0.16-1.5c-0.23-2.23-1.78-4.26-3.87-5.05C1266.14,140.3,1261.23,145.3,1266.31,149.13z" class="st3"></path>
	<g>
		<path d="M1263.83,136.96c-2.16,4-0.77,6.91,1.98,9.92c1.98,2.18,10.53,2.32,8.62-3.44
			C1273.02,139.16,1268.51,142.15,1263.83,136.96z" class="st3"></path>
		<path d="M1272.9,144.49c-2.43,1.89-7.85-1.14-8.65-3.27c-0.93-2.5-1.61-6.14-2.03-8.74c-0.45-2.69,0.29-2.52,2.75-3
			c3.34-0.66,10.58-3.14,13.49-0.41c4.91,4.6,8.78,13.51,11.79,19.41c2.62,5.14,13.74,19.2,25.16,31.03" class="st3"></path>
		<path d="M1277.98,137.85c-2.8-0.57-6.73-4.64-9.94-6.01c-1.5-0.64-3.69-0.61-5.14,0.21
			c-1.14,0.64-2.84,2.64-1.68,3.96c2.16,2.43,2.96-0.27,5.34,1.86c4.07,3.64,5.37,9.28,7.96,14.02c1.91,3.48,4.55,4.82,7.87,5.16
			c7.19,10.05,16.24,19.47,17.56,26.14c3.87-0.79,4.69-1.14,8.56-1.93" class="st3"></path>
	</g>
	<path d="M1270.95,133.27c1.34,0.66,2.85,0.93,4.34,0.79c0.11,1.16,0.55,2.32,1.43,3.09" class="st4"></path>
</g>
<path d="M1341.79,197.24c-3.87-2.55-36.4-34.99-42.57-41.06c-6.46,2.34-11.67,6.69-15.79,12.19
	c10.19,15.61,33.03,42.59,44.64,57.12" class="st3"></path>
<path d="M1322.68,210.42c-8.8-11.08-19.2-23.27-28.12-35.35" class="st7"></path>
<path d="M1291.46,178.55c4.73-5.98,10.67-10.76,17.99-13.35" class="st7"></path>
<path d="M1287.83,172.4c-0.52-0.87-0.21-1.98,0.64-2.5c0.87-0.52,1.98-0.21,2.5,0.64c0.52,0.87,0.21,1.98-0.64,2.5
	S1288.35,173.27,1287.83,172.4z" class="st7"></path>
<path d="M1336.58,236.97c1,6.37,0.2,13.56-2.87,19.29c6.3,1.25,12.22-3.39,14.04-9.24c-0.3,3.8-2.18,6.73-3.46,10.1
	c4.41-1.82,9.12-6.46,9.69-11.33c0.55-4.62-1.28-8.78-4.75-11.78C1344.81,230.17,1338.47,229.01,1336.58,236.97z" class="st6"></path>
<path d="M1599.35,512.47c22,10.28,43.43,20.38,47.69,22.59c10.71,5.91,26.94,8.31,39.2,15.95
	c14.29,8.89,7.8-9.19,3.12-14.85c-4.14-5.01-8.9-5.5-13.97-9.33c-5.07-3.84-7.76-10.22-14.76-10.65c-6.05-0.36-9.78,4.1-16.5,0.37
	c-9.97-3.28-29.35-18.93-37.26-25.68" class="st3"></path>
<path d="M1682.48,549.33c3.53,3.94,13.63,17.45,14.51,18.47c1.34,1.59,2.16,0.07,2.53-1.96
	c1.09-5.83-0.96-27.75-3.55-31.28c-3.3-4.51-8.24-5.44-13.22-7.28c-4.71-1.75-9.72-3.35-12.38-6.74c9.21-0.93,15.88-1.28,24.98-2.05
	c-0.52-1-1.18-2.18-1.34-3.3c0,0-14.9,0.07-21.75-0.64c-8.31-0.87-11.4-3.5-17.47,2.55c7.48,3.12,13.22,10.67,19.72,15.58
	C1679.7,536.61,1682.27,542.66,1682.48,549.33z" class="st5"></path>
<path d="M1436.79,503.78c21.63,3.48,42.72,6.92,46.96,7.8c10.74,2.48,25.43,0.55,37.95,4.12
	c14.6,4.18,4.5-9.9-0.96-13.65c-4.84-3.32-9.08-2.55-14.42-4.64c-5.35-2.09-9.26-6.96-15.43-5.58c-5.33,1.18-7.46,5.98-14.22,4.41
	c-9.46-0.39-30.14-9.17-38.67-13.04" class="st3"></path>
<path d="M1518.02,515.18c4.03,2.55,16.15,11.76,17.15,12.44c1.55,1.03,1.89-0.46,1.71-2.34
	c-0.5-5.34-7.69-23.82-10.81-26.26c-3.98-3.1-8.49-2.68-13.28-3.05c-4.51-0.36-9.26-0.5-12.42-2.78c7.76-3.09,13.47-5.05,21.16-7.96
	c-0.7-0.73-1.57-1.59-1.98-2.53c0,0-12.9,3.75-19.04,4.82c-7.42,1.3-10.76-0.2-14.52,6.53c7.26,0.86,14.11,6,20.95,8.64
	C1512.48,504.83,1516.19,509.43,1518.02,515.18z" class="st5"></path>
<path d="M1408.81,268.55c-10.13-6.85-22.79-12.19-29.48-22.98c-4.8-7.73-8.92-16.67-12.28-25.14
	c-5.44,4.59-12.44,16.61-17.84,21.23c0,0,8.92,14.45,13.63,35.13" class="st3"></path>
<path d="M1379.56,193.67c-5.57-11.17-18.11-16.22-31.83-13.24c-3.02,0.66-5.98,1.62-8.78,2.89
	c-8.76,3.96-15.77,11.35-16.34,21.32c-0.57,9.81,3.25,17.11-2.89,25.68c3.12,2.59,5.14,1.84,6.96,5.46c1.5,2.98,0.59,8.05,3.75,9.9
	c0.02,0.02-0.02-0.02,0,0c4.73,3.12,18.61,0.61,25.46-1.66c15.93-5.28,27.64-22,26.62-38.84
	C1382.26,200.84,1381.22,196.99,1379.56,193.67z" class="st9"></path>
<path d="M1325.91,213.22c5.53-4.46,12.44,0.75,12.44,0.75" class="st4"></path>
<path d="M1331.94,219.13c-0.09,1.28-0.82,2.28-1.62,2.23c-0.8-0.05-1.37-1.14-1.28-2.44c0.09-1.28,0.82-2.28,1.62-2.23
	C1331.44,216.74,1332.03,217.84,1331.94,219.13z"></path>
<path d="M1342.91,226.64c0.34-2.8-1.68-5.35-4.48-5.69c-2.8-0.34-5.35,1.68-5.69,4.48c-0.34,2.8,1.68,5.35,4.48,5.69
	C1340.04,231.44,1342.59,229.44,1342.91,226.64z" class="st12"></path>
<path d="M1334.05,234.71c-2.25,0.7-4.76,1.16-7.26,1.34c0.98,2.21,0.64,3.3,1.28,5.82
	C1328.21,241.83,1334.15,242.27,1334.05,234.71z" class="st3"></path>
<path d="M1373.6,231.57c6-7.39,9.47-16.86,8.9-26.37c-0.27-4.35-1.3-8.21-2.94-11.53
	c-5.57-11.17-18.11-16.22-31.83-13.24c-3.02,0.66-5.98,1.62-8.78,2.89c-8.76,3.96-15.77,11.35-16.34,21.32
	c-0.57,9.81,3.25,17.11-2.89,25.68c3.12,2.59,5.14,1.84,6.96,5.46c1.5,2.98,0.59,8.05,3.75,9.9c0.02,0.02-0.02-0.02,0,0
	c3.85,2.55,13.83,1.34,21.09-0.43" class="st4"></path>
<path d="M1440.44,298.42c6.99,12.74,25.3,45.07,29.44,53.12c2.59,5.07,7.42,8.39,3.93,13.63
	c-4.1,6.12-14.27,12.17-20.29,16.25c-4.92,3.34-22,13.52-26.84,8.08c-6.1-6.85-23.41-26.78-29.05-34.03
	c-10.28-13.2-18.81-24.34-23.64-32.74c-5.35-9.3-14.58-53.99-14.58-53.99c6.41-9.55,15.31-24.5,18.86-28.53
	c4.8,0.57,11.94,7.21,11.94,7.21C1411.25,266.31,1426.85,273.66,1440.44,298.42z" class="st3"></path>
<path d="M1399.07,285.47c12.2,9.6,22.21,17.45,31.14,33.72c6.3,11.49,27.46,45.43,31.15,52.69" class="st7"></path>
<path d="M1360.42,268.75c4.01-2.57,13.65,8.56,17.06,10.44c0,0,10.46-27.42,13.19-35.17c-2.36-1.93-5.8-4.26-8.15-6.19" class="st3"></path>
<path d="M1443.3,381.98c-3.25-8.21-6.69-16.49-10.94-24.23" class="st7"></path>
<path d="M1434.07,385.59c-3.57-4.69-6.67-9.85-10.6-14.26" class="st7"></path>
<path d="M1387.88,223.38c-0.21,4.67-3.12,15.47-7.69,19.5c-3.6,3.19-16.86,9.14-16.86,9.14
	c2.62-5.41,2.91-14.61,1.75-20.66c0.43,5.25-2.36,12.9-6.64,16.17c3.57-13.65,1.96-21.64-1.84-32.3c-2.07-5.8-7.14-6.33-12.08-10.08
	c-5.67-4.3-10.03-10.05-10.03-10.05c-1.89-1.7-3.69-3.5-5.82-2.28c-4.55,2.59-5.75,10.28-6.12,14.9
	c-1.37-10.92,4.28-19.86,12.56-25.73c3.3-2.34,8.98-4.92,13.11-3.37C1391.13,172.61,1388.41,211.62,1387.88,223.38z" class="st6"></path>
<path d="M1359.38,224.59c0.84,5.32,0.68,15.9-5.16,18.29" class="st4"></path>
<path d="M1327.19,193.36c6.17-1.48,9.14,6.96,12.04,10.76c2.53,3.3,11.99,10.53,16.74,8.74" class="st4"></path>
<g>
	<path d="M1358.15,226.32c4.6-1.34,8.42-7.98,6.3-12.7c-1.89-4.23-7.98-3.34-9.3,0.84" class="st3"></path>
	<path d="M1357.1,219.74c-0.8-2.71,3.03-4.35,5.09-3.1" class="st4"></path>
	<path d="M1357.05,219.4c0.59-1.64,2.93-0.5,3.5,0.57" class="st4"></path>
</g>
<path d="M1362.92,273.34c-0.45-0.77-0.18-1.77,0.59-2.21c0.77-0.45,1.77-0.18,2.21,0.59c0.45,0.77,0.18,1.77-0.59,2.21
	C1364.34,274.37,1363.36,274.1,1362.92,273.34z" class="st7"></path>
<path d="M1369.11,296.39c-0.45-0.77-0.18-1.77,0.59-2.21c0.77-0.45,1.77-0.18,2.21,0.59c0.45,0.77,0.18,1.77-0.59,2.21
	C1370.54,297.44,1369.55,297.17,1369.11,296.39z" class="st7"></path>
<path d="M1376.24,318.5c-0.45-0.77-0.18-1.77,0.59-2.21c0.77-0.45,1.77-0.18,2.21,0.59c0.45,0.77,0.18,1.77-0.59,2.21
	C1377.69,319.53,1376.69,319.28,1376.24,318.5z" class="st7"></path>
<path d="M1388.73,336.95c-0.45-0.77-0.18-1.77,0.59-2.21s1.77-0.18,2.21,0.59s0.18,1.77-0.59,2.21
	C1390.16,338,1389.18,337.73,1388.73,336.95z" class="st7"></path>
<path d="M1403.83,357.38c-0.45-0.77-0.18-1.77,0.59-2.21s1.77-0.18,2.21,0.59c0.45,0.77,0.18,1.77-0.59,2.21
	C1405.28,358.43,1404.28,358.16,1403.83,357.38z" class="st7"></path>
<path d="M1418.07,376.08c-0.45-0.77-0.18-1.77,0.59-2.21c0.77-0.45,1.77-0.18,2.21,0.59c0.45,0.77,0.18,1.77-0.59,2.21
	S1418.51,376.84,1418.07,376.08z" class="st7"></path>
<path d="M1390.2,266.52c-29.49-12.47-64.5-25.44-77.26-34.87c-4.35-3.21-40.24-43.14-47.05-50.62
	c-7.67,2.3-14.04,7.07-19.2,13.2c10.88,18.86,26.62,38.92,39.27,56.62c9.19,12.86,24.07,19.34,38.29,26.26
	c23.5,11.44,47,22.87,70.52,34.31" class="st3"></path>
<path d="M1262.89,199.88c9.24,13.67,19.77,27.41,28.74,39.97c9.19,12.86,24.07,19.34,38.29,26.26
	c23.5,11.44,46.98,16.83,70.48,28.26" class="st7"></path>
<path d="M1255.38,206.66c5.89-6.67,13.13-11.88,21.84-14.42" class="st7"></path>
<path d="M1251.56,199.25c-0.54-1.05-0.12-2.32,0.91-2.87c1.05-0.54,2.32-0.12,2.87,0.91c0.54,1.05,0.13,2.32-0.91,2.87
	C1253.38,200.7,1252.09,200.29,1251.56,199.25z" class="st7"></path>
<path d="M1393.93,269.36c5.83,13.06,7.92,27.78,5.96,41.97" class="st7"></path>
<path d="M1410.56,293.64c4.26-4.19,10.92-10.74,15.18-14.93" class="st7"></path>
<path d="M1491.81,378c6.05,6,11.08,12.1,16.11,18.95c18.63,25.34,25.46,43.95,48.16,66.41c3.39-0.37,3.37,2.19,5.98,3.3
	c23.75,10.17,72.82,38.68,80.36,42.43c-3.43,9.01-6.35,16.58-12.13,24.27c-21.32-10.79-60.42-28.33-81.83-38.45
	c-38.88-18.34-62.88-45.91-96.07-70.34" class="st5"></path>
<path d="M1464.26,375.86c6.96,0.91,15.33,8.87,20.22,13.72c6.05,6,11.08,12.1,16.11,18.95
	c18.63,25.34,27.69,43.11,50.39,65.59c3.39-0.37,3.37,2.19,5.98,3.3c23.75,10.17,72.82,38.68,80.36,42.43" class="st7"></path>
<path d="M1555.39,467.9c-2.19,4.14-4.14,8.39-5.87,12.74" class="st7"></path>
<path d="M1475.04,360.82c-10.62,11.22-33.88,23.77-48.35,28.69c0,0-21.27,22.64-30.44,30.4
	c-9.85,8.33-20.25,16.15-29.33,25.19c-6.42,6.41-16.06,14.95-15.95,24.61c0,0-2.37,12.4,12.63,24.05
	c8.17,6.33,22.34,10.42,32.08,11.06c27.73,1.84,72.46,7.67,72.46,7.67c3.75-8.96,4.26-13.88,1.55-23.77
	c-19.95-3.23-36.42-9.8-55.44-13.52c-5-0.98-16.06-2.55-22.89-3.87c2.75-0.96,1.73-3.37,0.62-5.58
	c26.78-11.17,61.25-26.18,87.43-39.09c7.78-3.84,14.9-8.87,20.29-15.68c2.27-2.87,4.28-6.03,5.16-9.6
	c1.75-7.26-0.66-17.68-4.46-24.11C1495.74,369.49,1482.2,361.02,1475.04,360.82" class="st5"></path>
<path d="M1484.27,364.23c-12.31,13.01-38.72,27.44-61.06,29.39" class="st7"></path>
<path d="M1389.22,467.06c-4.67-1.73-10.42-4.8-15.61-4.87" class="st7"></path>
<path d="M1385.7,470.93c-3.3-0.57-6.62-0.87-9.97-0.89" class="st7"></path>
<path d="M1471.33,497.55c-19.95-3.23-49.26-10.53-68.29-14.26c-5-0.98-21.16-6.32-23.48-11.76
	c2.75-0.96,2.61-5.3,1.5-7.51c19.36-8.07,37.45-18.74,55.76-28.87c12.94-7.15,27.82-12.35,37.79-23.77
	c4.41-5.07,6.71-9.88,6.17-16.61c-0.5-6.19-4.69-16.09-10.51-19.09" class="st7"></path>
<path d="M1459.29,383.34c4.67,7.96,12.49,13.67,21.11,15.43" class="st7"></path>
<path d="M689.08,874.25c-3.44-7.83-10.47-13.81-13.13-21.95c-1.57-4.8-1.46-9.97-0.86-14.99
	c1.94-16.11,9.3-31.78,21.52-42.45c8.49-7.42,46.28-30.32,43.82-9.55c-2.07,17.52-24.27,48.84-34.1,62.72
	c-3.07,4.34-6.17,8.67-9.14,13.1C696.04,862.89,688.33,872.54,689.08,874.25z" class="st13"></path>
<g>
	<path d="M374.42,561.77c1.52,1.05,3.23,1.84,5.05,2.07c1.82,0.23,3.76-0.14,5.25-1.23c0.64-0.46,1.2-1.07,1.46-1.82
		c0.23-0.66,0.23-1.39,0.12-2.07c-0.43-3.05-2.69-5.76-5.6-6.74C373.7,549.6,367.21,556.75,374.42,561.77z" class="st1"></path>
	<g>
		<path d="M370.33,545.12c-2.77,5.64-0.7,9.55,3.25,13.56c2.84,2.91,14.61,2.64,11.7-5.19
			C383.11,547.65,377.06,552.03,370.33,545.12z" class="st1"></path>
		<path d="M383.21,555.02c-3.25,2.73-10.88-1.16-12.08-4.05c-1.41-3.39-2.53-8.37-3.27-11.94
			c-0.77-3.69,0.25-3.48,3.64-4.28c4.55-1.07,14.42-4.87,18.56-1.28c7.01,6.07,12.81,18.15,17.25,26.1
			c3.87,6.94,19.93,25.71,36.29,41.4" class="st1"></path>
		<path d="M389.89,545.62c-3.89-0.62-9.51-6.03-14.01-7.74c-2.11-0.8-5.12-0.64-7.07,0.55
			c-1.55,0.96-3.76,3.8-2.11,5.53c3.1,3.23,4.07-0.54,7.46,2.27c5.8,4.8,7.89,12.49,11.69,18.9c2.8,4.69,6.53,6.41,11.1,6.67
			c10.44,13.45,23.37,25.94,25.57,35.06c5.28-1.28,6.41-1.82,11.69-3.1" class="st1"></path>
	</g>
	<path d="M379.95,539.66c1.87,0.84,3.98,1.14,6,0.84c0.21,1.59,0.89,3.16,2.12,4.18" class="st2"></path>
</g>
<path d="M556.79,701.14c-27.85-24.05-51.94-39.47-76.33-67.05c-20.29-22.95-35.45-34.78-54.92-58.4
	c-9.92,4.41-17.66,7.92-21.3,18.15c9.15,13.79,49.26,66.3,57.94,76.19c8.74,9.96,11.29,12.37,21.3,21.04
	c18.29,15.88,45.98,44.63,64.27,60.51" class="st13"></path>
<path d="M624.65,736.38c-9.31-5.57-11.46-19.97-20.77-25.53c-13.58-8.15-31.85-14.22-41.25-27.69
	c-6.74-9.65-11.13-20.82-16.06-31.55c-6.69,6.3-14.9,22.34-21.55,28.69c0,0,13.51,25.64,24.5,62.99" class="st1"></path>
<path d="M557.32,613.32c-8.69-13.6-25.55-18.36-42.79-12.61c-3.78,1.27-7.46,2.93-10.9,4.94
	c-10.72,6.32-18.72,16.79-18.09,29.69c0.62,12.7,6.55,21.57-0.16,33.44c4.37,2.89,6.87,1.66,9.71,6.05
	c2.34,3.62,1.87,10.28,6.19,12.22c0.04,0.02-0.04-0.02,0,0c6.51,3.35,24.03-1.8,32.53-5.67c19.77-8.99,32.53-32.12,28.89-53.65
	C561.77,622.17,559.91,617.35,557.32,613.32z" class="st9"></path>
<path d="M491,645.91c6.51-6.51,16.11-0.77,16.11-0.77" class="st2"></path>
<path d="M499.57,652.66c0.05,1.68-0.73,3.05-1.78,3.09c-1.03,0.04-1.94-1.28-2-2.96s0.73-3.05,1.78-3.09
	C498.62,649.66,499.51,651,499.57,652.66z"></path>
<path d="M514.75,660.8c0.04-3.66-2.89-6.66-6.55-6.69c-3.66-0.04-6.66,2.89-6.69,6.55s2.89,6.66,6.55,6.69
	C511.72,667.4,514.72,664.45,514.75,660.8z" class="st10"></path>
<path d="M504.46,672.41c-2.8,1.2-5.96,2.16-9.15,2.73c1.57,2.71,1.28,4.16,2.46,7.3
	C497.94,682.39,505.63,682.14,504.46,672.41z" class="st1"></path>
<path d="M554.92,662.88c6.69-10.35,9.87-23,7.82-35.15c-0.95-5.57-2.8-10.38-5.39-14.42
	c-8.69-13.6-25.55-18.36-42.79-12.61c-3.78,1.27-7.46,2.93-10.9,4.94c-10.72,6.32-18.72,16.79-18.09,29.69
	c0.62,12.7,6.55,21.57-0.16,33.44c4.37,2.89,6.87,1.66,9.71,6.05c2.34,3.62,1.87,10.28,6.19,12.22c0.04,0.02-0.04-0.02,0,0
	c5.32,2.73,17.97-0.2,27.07-3.46" class="st2"></path>
<path d="M615.35,715.52c-2.39-1.73-54.67-37.02-54.67-37.02c-6.37,11.42-13.76,24.18-20.02,35.44
	c-0.89,1.61-3.91,6.48-4.44,8.28c0,0,38.45,96.44,89.13,158.2c16.77,12.69,43.54,19.25,65.8-35.72L615.35,715.52z" class="st1"></path>
<path d="M529.36,644.34c0.41-7.57-4.43-16.99-6.66-20.29c-2.69-3.98-16.77-1.39-20.45-0.46
	c-8.19,2.07-15.4,2.93-23.14-1.94c0.95-0.07,1.2-0.68,2.03-0.7c-4.21-2.57-2.16-9.51-0.02-12.78c-0.79,5.23,15.83-4.64,17.74-5.57
	c15.93-7.67,38.09-11.65,52.64,1.2c7.37-1.34,13.67,11.04,15.24,17c4.32,16.24-4.23,31.3-13.15,44.98
	C546.65,660.24,535.88,650.5,529.36,644.34z" class="st14"></path>
<g>
	<path d="M532.93,658.48c5.75-2.36,9.72-11.44,6.33-17.22c-3.03-5.17-10.74-3.19-11.85,2.37" class="st1"></path>
	<path d="M530.67,650.16c-1.39-3.37,3.3-6.03,6.12-4.69" class="st2"></path>
	<path d="M530.54,649.75c0.54-2.19,3.69-1.03,4.59,0.27" class="st2"></path>
</g>
<path d="M536.97,721.98c6.96,0.77,15.54,8.96,20.2,11.08c6.64-10.05,13.63-31.97,16.92-43.64" class="st1"></path>
<g>
	<path d="M639.71,1036.76c0,0,35.11,2.02,49.82,5c16.02,3.25,33.62,17.72,42.15,29.26c5.01,6.8,13.7,13.03,12.1-1.16
		c-1.21-10.81-4.26-15.65-11.65-23.37c-6.71-7.03-8.39-14.81-11.65-23.41c-3.96-10.42-11.15-9.53-20.09-4.94
		c-18.41,9.47-42.57-5.41-65.97-7.74" class="st1"></path>
	<g>
		<path d="M737.11,1067.81c-1.05,3.37-5.87,4.43-8.4,3.73c-8.73-9.69-28.87-23.75-30.58-26.34
			c-0.52-0.79-0.61-1.8-0.2-2.66c1.5-3.12,6.07-7.17,8.67-3.12C706.6,1039.44,727.28,1052.25,737.11,1067.81z" class="st13"></path>
		<path d="M739.18,1065.3c-3.05,1.64-7.96,1.66-11.06-0.05c-2.5-1.37-24.16-16.25-24.98-17.54
			c-1.8-2.78,0.23-6.05,0.68-9.01c0.64-4.26-0.3-8.26-2.8-11.79c-2.28-3.23-6.19-3.78-10.17-4.46c-0.27-1.86,1.68-4.28,2.96-5.46
			c4.25-3.93,10.03-7.19,15.45-9.1" class="st13"></path>
		<path d="M732.83,1066.15c-1.91,0.48-5.21,1.48-6.28,3.32c2.71,5.3,8.98,11.49,14.79,13.1c0,0,0.09-8.42-0.43-11.97
			C740.38,1066.9,736.72,1065.17,732.83,1066.15z" class="st13"></path>
		<path d="M706.49,1008.11c2.77,2.78,5.07,5.82,7.21,9.15c3.12,4.85,5.67,10.1,8.6,15.08
			c2.46,4.18,17.97,34.72,19.06,50.25c1.98,0.02,4.41-1.77,5.75-3.03c1.41-1.55-4.23-17.83-5.89-22.62
			c-4-11.54-7.92-17.81-14.06-28.26c-5.6-9.53-6.78-14.01-13.06-23.16C713.38,1004.49,707.53,1007.04,706.49,1008.11z" class="st14"></path>
		<path d="M705.08,1052.88c0.77-1.96,4.76-5.91,4.76-5.91" class="st2"></path>
		<path d="M708.69,1055.8c0.84-1.41,5.23-5.46,5.23-5.46" class="st2"></path>
		<path d="M712.13,1058.84c1.45-1.43,4.35-3.73,5.78-5.17" class="st2"></path>
		<path d="M716.43,1061.98c0,0,4.39-3.43,5.89-4.64" class="st2"></path>
		<path d="M720.68,1065.31c0,0,4.28-2.73,6.19-4.21" class="st2"></path>
	</g>
</g>
<g>
	<path d="M860.92,1060.21c0,0,33.22,11.53,46.55,18.41c14.52,7.49,27.51,26.21,32.55,39.65
		c2.96,7.9,9.62,16.27,11.95,2.18c1.78-10.72,0.16-16.22-4.82-25.68c-4.53-8.6-4.03-16.54-4.84-25.69
		c-0.98-11.1-8.14-12.22-17.97-10.24c-20.29,4.09-39.47-16.83-61.34-25.44" class="st1"></path>
	<g>
		<path d="M946.16,1116.67c-1.93,2.96-6.87,2.66-9.1,1.3c-5.75-11.7-21.29-30.73-22.23-33.69
			c-0.29-0.91-0.09-1.89,0.54-2.61c2.3-2.59,7.8-5.25,9.19-0.64C924.55,1081.03,940.95,1099,946.16,1116.67z" class="st13"></path>
		<path d="M948.83,1114.79c-3.37,0.75-8.12-0.57-10.63-3.07c-2.03-2-18.81-22.23-19.25-23.68
			c-0.96-3.18,1.87-5.75,3.12-8.48c1.78-3.93,1.96-8.03,0.52-12.12c-1.32-3.73-4.92-5.33-8.56-7.07c0.25-1.86,2.78-3.66,4.34-4.44
			c5.16-2.61,11.62-4.18,17.34-4.55" class="st13"></path>
		<path d="M942.5,1113.88c-1.98-0.05-5.42,0-6.96,1.48c1.16,5.83,5.5,13.49,10.67,16.65c0,0,2.37-8.08,2.85-11.63
			C949.55,1116.68,946.5,1114.01,942.5,1113.88z" class="st13"></path>
		<path d="M932.99,1050.86c1.91,3.44,3.28,6.98,4.44,10.78c1.68,5.53,2.69,11.26,4.16,16.84
			c1.21,4.69,7.82,38.29,4.62,53.53c1.89,0.57,4.73-0.5,6.35-1.36c1.78-1.11,0.8-18.29,0.52-23.37c-0.7-12.19-2.77-19.29-5.82-31.03
			c-2.78-10.71-2.71-15.33-6.25-25.84C940.61,1049.25,934.28,1050.11,932.99,1050.86z" class="st14"></path>
		<path d="M919.43,1093.54c1.28-1.68,6.19-4.39,6.19-4.39" class="st2"></path>
		<path d="M922.09,1097.34c1.18-1.12,6.51-3.82,6.51-3.82" class="st2"></path>
		<path d="M924.57,1101.2c1.78-0.96,5.21-2.39,6.98-3.39" class="st2"></path>
		<path d="M927.85,1105.39c0,0,5.16-2.11,6.92-2.85" class="st2"></path>
		<path d="M931.03,1109.78c0,0,4.85-1.46,7.1-2.36" class="st2"></path>
	</g>
</g>
<path d="M683.4,850.13c9.21,1.55,22.95,11.6,29.21,18.29c7.74,8.28,14.11,16.65,20.48,26.03
	c23.5,34.67,31.65,59.77,60.68,90.84c4.53-0.34,4.37,3.1,7.78,4.71c31.1,14.74,94.92,55.19,104.79,60.54
	c-5.03,11.81-9.28,21.73-17.38,31.67c-27.84-15.47-78.96-40.79-106.93-55.33c-50.8-26.39-81.33-64.29-124.24-98.51" class="st1"></path>
<path d="M676.05,864.15c9.21,1.55,19.95,12.58,26.19,19.27c7.74,8.28,14.11,16.65,20.48,26.03
	c23.5,34.67,34.67,58.79,63.7,89.84c4.53-0.34,4.37,3.1,7.78,4.71c31.1,14.74,94.92,55.19,104.79,60.54" class="st15"></path>
<path d="M792.62,991.27c-3.12,5.39-5.94,10.94-8.46,16.65" class="st15"></path>
<g>
	<path d="M771.82,844.24c9.62-16.31,32.12-5.66,32.12-5.66c5.44,2.28,6.73,5.67,6.73,5.67l8.35,2.48l2.77-4.69
		l-8.15-7.03c0,0-4.48,0.5-8.19-1.43c0,0-25.35-14.02-38.29,7.9c-12.94,21.95,11.62,37.33,11.62,37.33
		c3.48,2.32,5.21,6.48,5.21,6.48l10.1,3.73l2.77-4.69l-6.21-6.12c0,0-3.59,0.52-8.23-3.14C782.41,875.07,762.2,860.55,771.82,844.24
		z" class="st13"></path>
	<path d="M772.12,929.01c-2.12-1.39-4.03-6.62-2.75-8.81l67.73-114.87c1.28-2.19,7.33-2.8,9.58-1.62" class="st13"></path>
	<path d="M933.47,854.43l-74.49,126.35c-1.28,2.18-4.14,2.84-6.26,1.45l-80.13-52.85c-2.12-1.39-2.77-4.21-1.48-6.41
		l69.27-117.48c1.28-2.19,4.07-2.98,6.32-1.8l85.04,44.55C933.95,849.41,934.76,852.23,933.47,854.43z" class="st13"></path>
	
		<rect height="92.39" width="7.53" class="st2" transform="matrix(0.5079 -0.8614 0.8614 0.5079 -375.9188 1177.3401)" y="871.5" x="838.75"></rect>
	
		<rect height="92.39" width="7.53" class="st2" transform="matrix(0.5079 -0.8614 0.8614 0.5079 -321.5924 1178.1335)" y="824.35" x="866.6"></rect>
	<path d="M770.03,843.17c10.72-18.18,35.79-6.3,35.79-6.3c6.07,2.53,7.51,6.32,7.51,6.32l9.31,2.75l3.07-5.23
		l-9.08-7.83c0,0-5,0.55-9.12-1.59c0,0-28.25-15.63-42.66,8.81c-14.42,24.44,12.94,41.61,12.94,41.61c3.87,2.57,5.8,7.21,5.8,7.21
		l11.26,4.16l3.07-5.23l-6.92-6.82c0,0-4,0.57-9.15-3.52C781.82,877.53,759.31,861.35,770.03,843.17z" class="st13"></path>
	<path d="M806.45,892.49l-3.44,5.83c-0.75,1.27-2.39,1.7-3.66,0.95l-5.83-3.44c-1.27-0.75-1.7-2.39-0.95-3.66l3.44-5.83
		c0.75-1.27,2.39-1.7,3.66-0.95l5.83,3.44C806.77,889.58,807.2,891.22,806.45,892.49z M800.58,896.5l3.09-5.25l-5.25-3.09
		l-3.09,5.25L800.58,896.5z M798.6,887.87L798.6,887.87L798.6,887.87z" class="st1"></path>
	<path d="M827.15,852.11l-5.83-3.44c-1.27-0.75-1.7-2.39-0.95-3.66l3.44-5.83c0.75-1.27,2.39-1.7,3.66-0.95l5.83,3.44
		c1.27,0.75,1.7,2.39,0.95,3.66l-3.44,5.83C830.05,852.43,828.43,852.86,827.15,852.11z M826.24,840.99l-3.09,5.25l5.25,3.09
		l3.09-5.25L826.24,840.99z M822.97,846.54L822.97,846.54L822.97,846.54z" class="st1"></path>
</g>
<path d="M691.15,844.69c-24.05,21.38-46.3,29.9-65.8,35.72c0,0-29.46,29.05-42.06,38.92
	c-13.52,10.58-27.78,20.45-40.33,32.03c-8.87,8.19-22.14,19.07-22.48,31.92c0,0-3.8,16.38,15.58,32.65
	c10.55,8.85,29.19,15.01,42.13,16.36c36.81,3.85,96.03,13.9,96.03,13.9c5.46-11.72,6.39-18.25,3.28-31.55
	c-26.39-5.32-47.96-14.88-73.07-20.82c-6.6-1.57-21.25-4.21-30.28-6.32c3.69-1.14,2.48-4.39,1.12-7.39
	c36.2-13.49,82.84-31.71,118.35-47.57c10.55-4.71,20.29-11.04,27.78-19.82c3.16-3.71,6.01-7.82,7.33-12.51
	c2.71-9.58,0.64-23.93-4.71-32.31C718.89,859.85,700.68,845.29,691.15,844.69" class="st1"></path>
<path d="M618.4,887.88c11.67-1.07,25.41-2.25,36.47-6.73c18.2-7.39,36.27-15.1,47.43-32.24" class="st15"></path>
<g>
	<g>
		<path d="M674.68,802.72c7.4,3.73,70.3,37.04,73.3,40c2.11,2.09,7.53,14.04,11.26,16.08c3.68,2.02,9.42,7.17,13.54,4.3
			c2.25,0.37,5.71,2.28,6.87-1.57c0.71-2.36-1.12-3.39-2.62-4.8c3.82-0.59,2.57-5.44,0.77-7.35c1.91-0.87,2.05-2.93,2.02-4.69
			c-0.02-0.87-0.91-1.43-0.89-2.28c0.02-1.09,1.09-1.86,1.07-2.96c-0.05-5.1-10.58-9.39-14.31-10.53
			c-3.8-1.18-10.53-0.87-14.13-3.09c-8.48-5.23-54.24-37.45-66.84-43.64L674.68,802.72z" class="st1"></path>
		<path d="M774.28,863.47c0,0-1.14-0.41-2.41-0.98c-2.87-1.3-6.32-2.66-9.1-4.16" class="st2"></path>
		<path d="M777.76,857.34c-1.57-1.02-3.18-1.87-4.84-2.71" class="st2"></path>
		<path d="M769.76,856.21c-0.62-0.55-1.41-0.86-2.14-1.21" class="st2"></path>
		<path d="M773.71,849.5c-0.86-0.5-1.62-0.98-2.59-1.16" class="st2"></path>
		<path d="M775.78,843.49c-0.77-0.3-1.53-0.62-2.32-0.89" class="st2"></path>
		<path d="M777.17,837.99c-0.68-0.54-1.46-0.84-2.32-0.89" class="st2"></path>
	</g>
	<g>
		<path d="M746.85,821.86l3.71,2.37c-8.24,9.97-9.21,15.52-9.22,15.59l-3.76-2.37
			C737.66,837.16,738.34,832.18,746.85,821.86z" class="st16"></path>
		<path d="M739.89,833.59c1.48,2.14,4.43,2.68,6.57,1.2c2.14-1.48,2.68-4.43,1.2-6.57c-1.48-2.14-4.43-2.68-6.57-1.2
			S738.41,831.45,739.89,833.59z" class="st16"></path>
		<path d="M741.04,832.8c1.05,1.52,3.12,1.89,4.64,0.86c1.52-1.05,1.89-3.12,0.86-4.64c-1.05-1.52-3.12-1.89-4.64-0.86
			C740.36,829.2,739.98,831.29,741.04,832.8z" class="st16"></path>
	</g>
</g>
<path d="M571.53,981.68c-6.14-2.53-13.61-6.91-20.54-7.3" class="st15"></path>
<path d="M566.66,986.66c-4.37-0.93-8.78-1.5-13.22-1.71" class="st15"></path>
<path d="M679.25,1026.45c-26.39-5.32-65.02-16.52-90.12-22.45c-6.6-1.57-27.84-9.49-30.64-16.84
	c3.69-1.14,3.73-6.92,2.39-9.92c26.16-9.74,50.8-23.04,75.67-35.58c17.58-8.87,37.65-15.01,51.49-29.71
	c6.12-6.51,9.42-12.81,9.05-21.79c-0.34-8.26-4.21-19.79-11.79-24.09" class="st15"></path>
<path d="M696.59,891.43c-4.85,1.61-10.33-0.09-14.42-3.18c-4.09-3.07-7.07-7.37-9.97-11.58" class="st15"></path>
<path d="M736.08,777.11c0,0-23.46,2.34-39.49,37.13c-19.72,42.81-20.48,68.78-35.86,78.12
	c-21.61-27.44-51.08-59.02-65.86-86.9c-16.75-31.6-38.08-88.29-28.03-121.85c16.4,2.71,25.8,11.12,39.15,23.28
	C640.01,737.91,736.08,777.11,736.08,777.11z" class="st13"></path>
<path d="M614.03,790.96c24.48,15.84,47.93,35.7,74.01,48.41" class="st15"></path>
<polygon points="668.04,802.58 647.13,830.8 643.27,827.79 664.63,799.65" class="st13"></polygon>
<path d="M588.34,719.02c29.73,10.65,58.56,31.87,80.92,43.61c3.85,2.02,7.3,4.3,10.76,6.96
	c14.26,10.97,47.87,36.65,62.13,47.62c-3.39,8.37-5.25,11.29-11.94,17.36c0,0-46.93-27.66-67.73-37.76
	c-23.59-11.46-56.97-17.68-51.53-16.01" class="st13"></path>
<path d="M584.8,721.23c-0.46,20.06,7.6,40.18,21.82,54.37" class="st15"></path>
<path d="M580.25,687.67c1.18,10.51,0.79,36.61,0.79,36.61l-11.21,7.35l16.38,7.21c8.78,30.4,11.7,55.87,21.66,83.01" class="st2"></path>
<path d="M546.96,739.43c-1.53-0.48-5.96,0.71-4.87,1.87c3.69,3.98,12.22,8.28,17.15,9.12
	c13.4,2.27,26.98-3.82,37.7-12.17s19.47-18.97,29.71-27.92c10.71-9.35,23.04-16.84,36.26-22.04c3.55-5.62,7.87-13.47,10.9-19.38
	c-9.01-3.68-18.41-6.49-28.14-6.53c-17.13,4.66-31.81,16.88-43.57,30.17c-11.76,13.29-21.71,28.16-34.04,40.93
	c-3.12,3.23-6.62,6.46-11.01,7.48C554.54,741.57,550.51,740.54,546.96,739.43z" class="st17"></path>
<path d="M550.37,728.85c0,0-0.7,7.05-1.43,10.79c-2.34-0.52-4.98-0.25-6.87,1.66c-1.68-4.62-8.53-14.49-5.12-19.32
	C536.97,721.98,541.48,722.44,550.37,728.85z" class="st17"></path>
<path d="M1846.98,1229.66c40.29,15.83,79.54,31.37,87.39,34.83c19.72,9.31,48.85,11.78,71.53,23.96
	c26.43,14.2,12.85-17.22,3.91-26.75c-7.94-8.44-16.45-8.76-25.89-15.02c-9.44-6.26-14.97-17.33-27.44-17.29
	c-10.81,0.04-16.92,8.39-29.32,2.52c-18.11-4.73-54.33-30.39-69.16-41.48" class="st1"></path>
<path d="M1999,1285.89c6.71,6.62,26.23,29.49,27.87,31.21c2.55,2.66,3.85-0.11,4.28-3.76
	c1.27-10.51-4.84-49.25-9.83-55.24c-6.39-7.67-15.27-8.74-24.34-11.47c-8.58-2.59-17.66-4.87-22.8-10.62
	c16.27-2.68,28.12-4.09,44.2-6.44c-1.02-1.71-2.36-3.73-2.75-5.73c0,0-26.48,1.8-38.77,1.28c-14.88-0.62-20.68-4.92-30.78,6.51
	c13.67,4.71,24.71,17.5,36.81,25.5C1992.63,1263.57,1997.86,1274.04,1999,1285.89z" class="st13"></path>
<path d="M1556.85,1227.1c38.86,3.76,76.74,7.53,84.43,8.58c19.4,3.19,45.29-1.87,67.98,3.09
	c26.44,5.78,6.89-18.13-3.23-24.16c-8.98-5.35-16.43-3.53-26.18-6.62c-9.74-3.1-17.27-11.33-28.08-8.21
	c-9.37,2.71-12.6,11.46-24.8,9.44c-16.88,0.37-54.65-12.92-70.25-18.88" class="st1"></path>
<path d="M1702.63,1238.26c7.46,4.09,30.05,19.09,31.9,20.18c2.87,1.68,3.32-1.05,2.78-4.34
	c-1.5-9.44-16.38-41.52-22.2-45.48c-7.42-5.07-15.42-3.8-23.96-3.93c-8.08-0.11-16.52,0.14-22.41-3.57
	c13.45-6.35,23.37-10.49,36.74-16.52c-1.32-1.23-2.96-2.66-3.8-4.28c0,0-22.54,8.12-33.31,10.71c-13.06,3.14-19.16,0.84-25.09,13.26
	c13.01,0.7,25.77,9.06,38.24,13.01C1691.58,1220.48,1698.7,1228.26,1702.63,1238.26z" class="st13"></path>
<g>
	<path d="M1138.92,598.31c2.27,1.57,4.84,2.75,7.57,3.09c2.73,0.34,5.62-0.21,7.85-1.84c0.95-0.7,1.78-1.61,2.19-2.73
		c0.36-0.98,0.34-2.07,0.2-3.1c-0.64-4.57-4.03-8.62-8.4-10.1C1137.83,580.11,1128.12,590.82,1138.92,598.31z" class="st1"></path>
	<g>
		<path d="M1132.8,573.42c-4.14,8.42-1.02,14.27,4.87,20.29c4.25,4.34,21.86,3.93,17.49-7.8
			C1151.91,577.18,1142.86,583.73,1132.8,573.42z" class="st1"></path>
		<path d="M1152.08,588.21c-4.85,4.1-16.27-1.71-18.07-6.03c-2.12-5.07-3.8-12.51-4.91-17.86
			c-1.14-5.51,0.37-5.21,5.42-6.41c6.82-1.62,21.55-7.32,27.76-1.96c10.49,9.08,19.2,27.12,25.87,39.02
			c5.82,10.38,29.87,38.43,54.39,61.88" class="st1"></path>
		<path d="M1162.04,574.11c-5.82-0.95-14.22-9.01-20.97-11.56c-3.16-1.2-7.65-0.95-10.56,0.84
			c-2.32,1.43-5.64,5.69-3.14,8.28c4.64,4.84,6.08-0.8,11.15,3.39c8.69,7.17,11.81,18.68,17.54,28.25
			c4.21,7.03,9.78,9.56,16.61,9.97c15.63,20.13,35.03,38.77,38.33,52.42c7.9-1.94,9.58-2.73,17.49-4.67" class="st1"></path>
	</g>
	<path d="M1147.16,565.23c2.8,1.25,5.96,1.7,8.98,1.25c0.32,2.37,1.34,4.73,3.19,6.24" class="st2"></path>
</g>
<path d="M1401.1,768.37c-41.29-30.39-76.42-49.19-113.28-84.86c-30.67-29.67-53.03-44.46-82.63-75.17
	c-13.29,7.21-23.68,12.94-27.62,27.51c14.22,18.16,75.62,86.75,88.73,99.53c13.22,12.88,17.04,15.93,31.87,26.92
	c27.12,20.07,68.71,56.99,95.83,77.06" class="st13"></path>
<path d="M1598.48,966.96c12.95,1.16,33.13,13.61,42.56,22.23c11.65,10.67,21.41,21.61,31.26,33.96
	c36.4,45.62,50.44,79.6,94.14,119.58c6.26-0.95,6.42,3.84,11.31,5.69c44.79,17.11,137.84,66.36,152.11,72.75
	c-5.69,16.95-10.55,31.19-20.72,45.87c-40.32-18.45-114.09-48.1-154.54-65.27c-73.42-31.15-119.92-80.47-183.25-123.35" class="st13"></path>
<path d="M1589.79,987.23c12.95,1.16,29.07,15.31,38.49,23.95c11.65,10.67,21.41,21.61,31.26,33.96
	c36.4,45.62,54.53,77.9,98.23,117.89c6.26-0.95,6.42,3.84,11.31,5.69c44.79,17.11,137.84,66.36,152.11,72.75" class="st15"></path>
<path d="M1765.45,1151.17c-3.75,7.83-7.07,15.84-9.94,24.03" class="st15"></path>
<g>
	<path d="M1720.65,949.19c11.6-23.7,44-11.33,44-11.33c7.82,2.57,9.97,7.14,9.97,7.14l11.87,2.53l3.34-6.8l-12.08-8.89
		c0,0-6.17,1.18-11.53-1.09c0,0-36.74-16.74-52.32,15.13c-15.59,31.89,20.18,50.6,20.18,50.6c5.09,2.84,7.94,8.42,7.94,8.42
		l14.44,4.09l3.34-6.8l-9.28-7.82c0,0-4.92,1.11-11.76-3.48C1738.71,990.87,1709.05,972.89,1720.65,949.19z" class="st17"></path>
	<path d="M1730.23,1066.9c-3.09-1.71-6.32-8.76-4.76-11.94l81.63-166.9c1.55-3.18,9.89-4.69,13.13-3.3" class="st17"></path>
	<path d="M1946.29,945.82l-89.77,183.57c-1.55,3.18-5.44,4.41-8.53,2.69l-117.05-64.72c-3.09-1.71-4.3-5.55-2.75-8.73
		l83.47-170.67c1.55-3.18,5.33-4.59,8.58-3.19l122.94,52.65C1946.42,938.82,1947.84,942.64,1946.29,945.82z" class="st17"></path>
	
		<rect height="128.72" width="10.49" class="st2" transform="matrix(0.4394 -0.8983 0.8983 0.4394 86.6546 2226.188)" y="979.31" x="1821.67"></rect>
	
		<rect height="128.72" width="10.49" class="st2" transform="matrix(0.4394 -0.8983 0.8983 0.4394 167.0574 2217.6519)" y="910.62" x="1855.03"></rect>
	<path d="M1718.03,947.91c12.92-26.41,49.03-12.63,49.03-12.63c8.71,2.87,11.1,7.96,11.1,7.96l13.22,2.82l3.71-7.58
		l-13.47-9.9c0,0-6.87,1.32-12.85-1.21c0,0-40.93-18.66-58.31,16.86c-17.38,35.53,22.48,56.38,22.48,56.38
		c5.66,3.16,8.85,9.39,8.85,9.39l16.08,4.55l3.71-7.58l-10.35-8.71c0,0-5.5,1.23-13.1-3.89
		C1738.15,994.37,1705.11,974.31,1718.03,947.91z" class="st17"></path>
	<path d="M1773.96,1012.46l-4.16,8.49c-0.89,1.84-3.14,2.61-4.98,1.71l-8.49-4.16c-1.84-0.89-2.61-3.14-1.71-4.98
		l4.16-8.49c0.89-1.84,3.14-2.61,4.98-1.71l8.49,4.16C1774.11,1008.39,1774.86,1010.62,1773.96,1012.46z M1766.26,1018.69l3.73-7.62
		l-7.62-3.73l-3.73,7.62L1766.26,1018.69z M1762.56,1006.9L1762.56,1006.9L1762.56,1006.9z" class="st1"></path>
	<path d="M1798.36,954.13l-8.49-4.16c-1.84-0.89-2.61-3.14-1.71-4.98l4.16-8.49c0.89-1.84,3.14-2.61,4.98-1.71
		l8.49,4.16c1.84,0.89,2.61,3.14,1.71,4.98l-4.16,8.49C1802.42,954.28,1800.19,955.03,1798.36,954.13z M1795.88,938.81l-3.73,7.62
		l7.62,3.73l3.73-7.62L1795.88,938.81z M1791.93,946.85L1791.93,946.85L1791.93,946.85z" class="st1"></path>
</g>
<path d="M1515.6,826.54c-10.49-13.44-29.67-34.26-43.23-41.27c-19.81-10.24-43.79-17.16-58.2-35.26
	c-10.33-12.95-19.7-28.23-27.55-42.86c-8.85,9.44-18.95,32.71-27.73,42.22c0,0,30.42,34.7,41.73,108.29" class="st1"></path>
<path d="M1430.04,771.19c-7.39,18.04-36.85,69.55-36.85,69.55c1.41,10.3,3.85,20.18,5.53,30.33
	c2.85,17.15,1.78,30.85,12.12,44.91c19.54,26.55,44.79,48.62,69.77,70.19c15.58,13.45,40.49,29.14,40.49,29.14
	c9.3-0.91,25.52-2.09,35.69-6.99c25.23-12.17,18.32-27.05,9.05-48.66c-18.88-43.97-44.59-84.02-70.07-124.44
	c-6.55-10.38-12.17-22.3-19.59-32.03C1465.92,789.73,1441.91,783.2,1430.04,771.19z" class="st1"></path>
<path d="M1592.91,967.43c-23.45,16.68-45.36,37.68-71.8,47.89c0,0-37.77,43.55-54.21,58.6
	c-17.63,16.17-36.38,31.42-52.53,48.85c-11.44,12.33-28.67,28.91-27.76,46.78c0,0-3.5,23.16,25.19,43.66
	c15.61,11.15,42.16,17.66,60.29,18.15c51.55,1.36,134.87,8.9,134.87,8.9c6.3-16.88,6.91-26.05,1.14-44.16
	c-37.24-4.51-68.23-15.49-103.76-21c-9.35-1.46-29.96-3.53-42.73-5.5c5.01-2,2.96-6.37,0.75-10.38
	c48.84-22.66,111.63-53.01,159.23-78.88c14.13-7.69,26.98-17.54,36.45-30.55c4-5.5,7.51-11.51,8.85-18.16
	c2.73-13.6-1.71-33.29-10.06-44.38c-7.99-10.62-34.88-28.85-48.18-28.67" class="st13"></path>
<path d="M1512.28,1026.45c16.09-2.77,35.04-5.87,49.92-13.31c24.5-12.22,39.61-16.9,52.21-35.4" class="st15"></path>
<path d="M1398.32,652.41c-13.42-18.32-37.52-23.52-61.22-13.92c-5.21,2.11-10.21,4.76-14.86,7.9
	c-14.49,9.81-24.8,25.25-22.77,43.3c2,17.79,11.12,29.71,2.73,47c6.39,3.68,9.8,1.71,14.19,7.64c3.62,4.89,3.53,14.26,9.8,16.63
	c0.05,0.02-0.05-0.02,0,0c9.44,4.14,33.6-4.66,45.2-10.85c26.98-14.4,42.82-48,35.81-77.94
	C1405.35,664.47,1402.3,657.87,1398.32,652.41z" class="st9"></path>
<path d="M1308.03,704.08c8.56-9.72,22.55-2.52,22.55-2.52" class="st2"></path>
<path d="M1320.68,712.81c0.23,2.34-0.77,4.35-2.23,4.5c-1.46,0.14-2.84-1.64-3.07-3.98c-0.23-2.34,0.77-4.35,2.23-4.5
	C1319.08,708.69,1320.45,710.47,1320.68,712.81z"></path>
<path d="M1342.72,722.91c-0.27-5.14-4.66-9.08-9.8-8.81s-9.08,4.66-8.81,9.8c0.27,5.14,4.66,9.08,9.8,8.81
	C1339.04,732.42,1342.99,728.05,1342.72,722.91z" class="st12"></path>
<path d="M1329.28,740.13c-3.82,1.93-8.19,3.57-12.63,4.66c2.44,3.66,2.18,5.73,4.1,10.03
	C1321.02,754.7,1331.82,753.69,1329.28,740.13z" class="st1"></path>
<path d="M1399.32,722.26c8.49-15.11,11.81-33.17,7.85-50.07c-1.82-7.73-4.85-14.33-8.85-19.79
	c-13.42-18.32-37.52-23.52-61.22-13.92c-5.21,2.11-10.21,4.76-14.86,7.9c-14.49,9.81-24.8,25.25-22.77,43.3
	c2,17.79,11.12,29.71,2.73,47c6.39,3.68,9.8,1.71,14.19,7.64c3.62,4.89,3.53,14.26,9.8,16.63c0.05,0.02-0.05-0.02,0,0
	c7.71,3.37,25.23-1.87,37.7-7.28" class="st2"></path>
<g>
	<g>
		<path d="M1581.22,902.07c10.69,4.39,101.67,43.82,106.15,47.62c3.16,2.68,11.97,18.68,17.36,21.11
			c5.33,2.39,13.88,8.94,19.27,4.51c3.16,0.27,8.17,2.55,9.37-2.93c0.73-3.35-1.93-4.59-4.18-6.39c5.25-1.23,3-7.85,0.27-10.3
			c2.55-1.41,2.53-4.28,2.28-6.74c-0.12-1.21-1.43-1.89-1.5-3.07c-0.09-1.52,1.3-2.69,1.16-4.25c-0.62-7.07-15.7-11.9-21.02-13.08
			c-5.41-1.21-14.7-0.07-19.95-2.77c-12.33-6.33-79.4-46.14-97.57-53.37L1581.22,902.07z" class="st1"></path>
		<path d="M1726.13,975.63c0,0-1.62-0.45-3.44-1.11c-4.14-1.48-9.06-3.02-13.1-4.78" class="st2"></path>
		<path d="M1730.32,966.75c-2.28-1.23-4.62-2.27-7.01-3.25" class="st2"></path>
		<path d="M1719.1,966.05c-0.91-0.7-2.05-1.02-3.1-1.46" class="st2"></path>
		<path d="M1723.84,956.29c-1.23-0.59-2.36-1.2-3.71-1.34" class="st2"></path>
		<path d="M1726.06,947.75c-1.11-0.34-2.19-0.7-3.3-0.98" class="st2"></path>
		<path d="M1727.39,939.95c-1.02-0.68-2.12-1-3.3-0.98" class="st2"></path>
	</g>
	<g>
		<path d="M1683.55,920.82l5.41,2.91c-10.37,14.76-11.12,22.55-11.13,22.66l-5.5-2.89
			C1672.44,943.05,1672.83,936.08,1683.55,920.82z" class="st17"></path>
		<path d="M1675.13,937.86c2.28,2.82,6.42,3.25,9.24,0.96c2.82-2.28,3.25-6.42,0.96-9.24
			c-2.28-2.82-6.42-3.25-9.24-0.96C1673.28,930.9,1672.85,935.04,1675.13,937.86z" class="st17"></path>
		<path d="M1676.63,936.65c1.62,2,4.55,2.3,6.53,0.68c1.98-1.62,2.3-4.55,0.68-6.53c-1.62-2-4.55-2.3-6.53-0.68
			C1675.31,931.72,1675.01,934.65,1676.63,936.65z" class="st16"></path>
	</g>
</g>
<path d="M1363.38,696.64c-5.03-4-11.29-3.98-17.45-5.83c-7.14-2.14-14.27-4.26-21.41-6.41
	c-6.01-1.8-12.26-3.73-16.84-8.01c-4.59-4.28-6.89-11.71-3.52-16.99c8.44-13.17,21.59-22.52,36.49-27.25
	c14.9-4.73,31.87-3.8,45.36,4.09c14.43,8.42,22.48,24.87,25.09,41.38c2.61,16.5-1.61,33.99-11.42,47.5
	c-11.24-7.1-21.63-10.46-30.83-20.02" class="st14"></path>
<g>
	<path d="M1369.96,717.63c7.87-3.82,12.63-16.92,7.39-24.75c-4.71-7.01-15.36-3.53-16.43,4.39" class="st1"></path>
	<path d="M1366.04,706.13c-2.27-4.6,4.1-8.76,8.19-7.14" class="st2"></path>
	<path d="M1365.82,705.55c0.55-3.12,5.1-1.78,6.46-0.04" class="st2"></path>
</g>
<path d="M1457.34,1161.81c-8.81-2.85-19.66-8.12-29.32-7.9" class="st15"></path>
<path d="M1451.11,1169.27c-6.16-0.8-12.35-1.12-18.56-0.93" class="st15"></path>
<path d="M1302,664.58c-2.55,8.24,2.84,17.27,10.24,21.71c7.4,4.44,16.31,5.39,24.91,6.21
	c6.94,0.68,17.31,2.11,24.25,2.78" class="st2"></path>
<path d="M1410.29,680.48c6.21,9.03,18.98,6.96,24.39,0.07c4.78-6.07,3.91-13.11,2.27-20.31
	c-4.09-17.75-22.59-26.48-34.6-10.05C1399.42,654.23,1402.85,677.32,1410.29,680.48z" class="st14"></path>
<path d="M1611.81,1212.32c-37.24-4.51-92.11-15.9-127.63-21.41c-9.35-1.46-39.7-10.17-44.38-20.09
	c5.01-2,4.44-10.03,2.23-14.04c35.29-16.38,68.05-37.51,101.26-57.61c23.45-14.2,50.67-24.93,68.3-46.86
	c7.8-9.71,11.7-18.81,10.21-31.24c-1.37-11.44-6.57-23.64-17.58-28.78" class="st15"></path>
<path d="M1621.26,1022.9c-6.57,2.77-14.36,0.98-20.38-2.84c-6.01-3.84-10.62-9.47-15.11-15.01" class="st15"></path>
<path d="M1646.39,944.46c-10.24,24.57-53.1,76.3-82.65,97.53c-32.99-35.79-104.22-93-127.76-130.11
	c-26.69-42.07-24.57-112.02-14.26-159.71c21.47,12.92,44.98,24.16,65.79,38.31c24.82,16.88,39.97,41.68,56.56,66.16
	c6.96,10.28,13.31,21.07,20.27,31.55c5.01,7.55,9.94,14.61,16.77,20.59C1594.98,920.93,1631.24,934.19,1646.39,944.46z" class="st13"></path>
<path d="M1496.42,909.29c35.72,31.31,68.41,69.91,109.7,92.36" class="st15"></path>
<polygon points="1568.52,936.2 1534.03,970.89 1529.3,965.95 1564.42,931.47" class="st13"></polygon>
<path d="M1452.22,795.15c42.45,11.56,84.79,37.9,117.12,51.8c5.57,2.39,10.62,5.19,15.68,8.51
	c21,13.7,70.48,45.71,91.46,59.42c-3.8,11.99-6.07,16.25-14.7,25.41c0,0-68.18-33.33-98.17-45.11
	c-34.01-13.35-81.04-18.4-73.32-16.65" class="st13"></path>
<path d="M1447.55,798.61c1.53,27.92,14.92,54.99,36.2,73.14" class="st15"></path>
<path d="M1434.32,759.84c2.77,14.47,5.55,28.94,8.31,43.41c-7.24,3.94-14.58,7.57-21.82,11.51
	c6.17,8.55,13.06,15.42,21.91,21.14c1.3,38.79,11.76,81.79,31.4,115.25" class="st2"></path>
</svg>
