<svg xml:space="preserve" style="enable-background:new 0 0 2304.82 1553.97;" viewBox="0 0 2304.82 1553.97" y="0px" x="0px" xmlns:xlink="http://www.w3.org/1999/xlink" xmlns="http://www.w3.org/2000/svg" id="레이어_1" version="1.1">
<style type="text/css">
	.st0{fill:#FF8A58;}
	.st1{fill:#FFFFFF;stroke:#000000;stroke-width:2;stroke-linecap:round;stroke-linejoin:round;stroke-miterlimit:10;}
	.st2{fill:#FFFFFF;}
	.st3{fill:none;stroke:#000000;stroke-width:2;stroke-linecap:round;stroke-linejoin:round;stroke-miterlimit:10;}
	.st4{fill:#0096CE;stroke:#000000;stroke-width:2;stroke-linecap:round;stroke-linejoin:round;stroke-miterlimit:10;}
	.st5{fill:none;stroke:#000000;stroke-linecap:round;stroke-linejoin:round;stroke-miterlimit:10;}
	.st6{fill:#F4B5B5;}
	.st7{fill:#002596;stroke:#000000;stroke-width:2;stroke-linecap:round;stroke-linejoin:round;stroke-miterlimit:10;}
	.st8{fill:none;stroke:#000000;stroke-width:3;stroke-linecap:round;stroke-linejoin:round;stroke-miterlimit:10;}
	.st9{fill:#FF5C3C;stroke:#000000;stroke-width:2;stroke-linecap:round;stroke-linejoin:round;stroke-miterlimit:10;}
	.st10{fill:#FFFFFF;stroke:#000000;stroke-linecap:round;stroke-linejoin:round;stroke-miterlimit:10;}
	.st11{fill:#210D60;}
	.st12{fill:#4E2E24;stroke:#262424;stroke-width:2;stroke-linecap:round;stroke-linejoin:round;stroke-miterlimit:10;}
	.st13{clip-path:url(#SVGID_4_);}
	.st14{fill:none;stroke:#FFFFFF;stroke-width:6;stroke-linecap:round;stroke-linejoin:round;stroke-miterlimit:10;}
	.st15{fill:none;stroke:#000000;stroke-miterlimit:10;}
	.st16{clip-path:url(#SVGID_6_);}
</style>
<rect height="1574.3" width="2304.82" class="st0"></rect>
<path d="M748.78,750.07c55.42-21.81,89.33-30.39,103.52-45.06c12.38-12.79,25.49-93.61,25.86-96.85
	c19.66,9.16,64.43,33.12,84.04,42.44c-1.93-0.85-20.54,46.82-7.26,60.84c10.97,11.56,82.57,12.11,111.48,24.99l15.85,27.79
	l-344.68,59.32L748.78,750.07z" class="st1"></path>
<path d="M988.52,1194.79c-22.28,34.46-60.35,34.11-96.02,30.03c-18.63-2.13-36.53-8.37-55.15-11.22
	c-10.26-1.57-24.57-2.66-25.91-14c-5.84-49.33,2.98-95.57,6.38-144.69c2.75-39.48,5.78-78.63,9.99-118.01
	c3.65-34.08,8.93-68.53,14.87-102.27c2.87-16.3,6.23-32.43,8.22-48.93c1.79-14.96,0.45-34.06,7.5-47.47
	c23.13,24.09,56.18,42.17,91.73,34.58c25.08-5.35,20.09-14.76,28.71-38.2c9.32,29.16,9.59,62.41,9.72,93
	c0.22,47.54-6.65,95.37-8.44,142.94c-1.7,45.19-1.77,90.58-1.28,135.86C979.21,1136.66,981.33,1165.63,988.52,1194.79z" class="st1"></path>
<g>
	<g>
		<path d="M531.83,331.22c-5.87-10.08-15.54-21.25-14.6-34.1c0.51-6.81,7.28-11.56,13.68-14.58
			c2.6-5.67,8.4-11.82,14.31-15.36c0,0,4.43-8.6,6.96-11.17c1.82-1.84,4.23-2.71,6.74-3.41c0.05-2.29,1.59-5.2,3-7.05
			c-1.9-4.44-0.29-6.11,3.32-6.13l0.65-0.61c4.14-2.76,10.93-2.71,13.91,2.17l0.11,0.25c4.3,0.29,8.64,0.61,11.96,2.01
			c8.37,3.49,10.32,19.77,13.17,27.39c4.99,13.33,4.12,28.66,3.72,42.82c-0.33,11.4-5.58,22.73-4.9,34.1
			c0.69,11.33,33.48,119.42,36.44,130.67l-66.13-5.15c-0.65-18.81-11.15-78.69-15.88-96.72c-1.14-4.32-6.78-13.66-8.96-17.56
			C544.07,349.47,537.29,340.58,531.83,331.22z" class="st2"></path>
	</g>
	<path d="M644.53,480.84c-2.96-11.26-39.88-121.98-40.56-133.31c-0.69-11.37,4.57-22.68,4.9-34.1
		c0.4-14.17,1.26-29.47-3.72-42.82c-2.85-7.62-4.81-23.92-13.17-27.39c-5.89-2.46-15.02-1.59-21.38-3.07
		c-7.99-1.86-12.41-0.56-7.01,8.4c4.88,8.08,20.2,15.36,27.37,4.57" class="st3"></path>
	<path d="M579.3,258.24c-2.29,3.49,0.87,9.49,2.19,12.77c2.44,6.05,3.81,8.04,1.16,14.17
		c-4.84,11.24-11.06,27.08-4.14,41.68" class="st3"></path>
	<path d="M545.33,267.16c0,0,4.43-8.6,6.96-11.17c3.36-3.4,8.76-3.49,13.05-5.38" class="st3"></path>
	<path d="M584.07,280.01c-0.74,6.13-2.53,7.9-7.21,9.32" class="st3"></path>
	<path d="M531.02,282.52c3.36-7.3,12-15.41,19.41-17.73c3.9-1.21,8.71-3.43,12.29-0.83c2.93,2.11,4.41,6.05,6.18,9.03
		c2.57,4.28,5.44,8.6,6.96,13.42c1.92,6.05-4.39,15.7-11.85,14.65" class="st3"></path>
	<path d="M559.01,252.62c0.04-2.4,1.73-5.51,3.2-7.34" class="st3"></path>
	<path d="M566,238.81c4.14-2.76,10.93-2.71,13.91,2.17" class="st3"></path>
	<path d="M545.85,300.21c-0.58,3.29-2.13,4.1,0.42,6.22c1.32,1.08,3.99,1.37,5.62,1.45c3.81,0.18,8.65-1.01,11.02-4.26
		c4.52-6.23-4.26-19.5-8.71-23.72c-4.9-4.66-12.97-1.37-18.56,0.7c-7.25,2.69-17.69,8-18.32,16.51c-0.94,12.85,8.73,24.03,14.6,34.1
		c5.46,9.36,12.23,18.25,17.49,27.59c2.19,3.9,7.84,13.24,8.96,17.56c4.73,18.03,15.76,86.39,16.41,105.2" class="st3"></path>
	<path d="M550.88,303.68c-4.64-1.64-6.9-5.96-8.24-10.5" class="st3"></path>
	<path d="M545.69,299.56c-4.32,1.54-11.2,1.1-15.41-0.05" class="st3"></path>
	<path d="M545.04,301.44c-3.87,4.46-9.56,5.85-15.11,6.7" class="st3"></path>
</g>
<path d="M842.2,1233.33c-10.46-26.47,86.96-468.52,78.06-476.11c-15.34-13.03-52.11-60.39-64.23-76.79
	c-7.68,16.46-4.9,11.74-22.3,20.4c-32.7-4.55-52.83-24.61-76.48-46.02c-22.66-20.51-71.12-93.56-82.95-115.93
	c-27.63-52.22-24.79-69.65-33.03-73.39c-13.23-5.98-62.14,11.82-74.44,17.51c4.1,15.99,11.58,75.91,18.16,92.4
	c7.19,18.05,54.77,133,64.4,149.88c24.93,43.69,35.2,100.88,35.2,100.88c-41.18,161.41-59.39,285.65-84.87,450.27" class="st4"></path>
<path d="M916.24,761.74c-13.77-6.74-28.35,24.41-33.34,35.67c-23.16-32.49-43.42-71.75-54.3-98
	c0,0,15.12-12.96,20.87-25.28c4.03-1.36,11.26-2.75,15.74-2.19l-3.27,11.56" class="st4"></path>
<path d="M920.24,757.24c-15.34-13.03-52.11-60.39-64.23-76.79" class="st3"></path>
<path d="M1203.99,807.36c-31.87-11.6-76.94-59.7-105.5-79.95c-13.7-9.7-31.22-13.46-47.09-14.45
	c-16.46-1.03-33.16,1.19-49.38-1.14c-13.79-1.99-31.17-11.93-44.81-10.9c8.84,15.38,1.46,46.36,0,63.24
	c-1.7,19.68-2.37,40.89,0,60.84c3.74,31.67,0.61,69.28,0.6,101.18c-0.02,69.55-17.51,240.62-36.75,307.17
	c11.8-13.03,114.66,10.7,110.09-45.66c-2.73-33.61,2.53-90.42,3.74-115.15c2.37-48.01,19.59-162.37,24.7-210.36
	c66.29,26.27,132.8,17.31,132.8,17.31" class="st4"></path>
<g>
	<path d="M638.1,448.65c5.47,0.04,9.38-3.45,13.61,0.54c5.73,5.4-3.87,11.31,5.02,15.77
		c4.59,2.29,14.04,3.94,9.45,12.16c-4.64,8.33-18.59,13.05-26.71,16.19c-18.16,7.03-36.97,15.43-55.9,19.89
		c-8.15,1.93-21.03,6.34-24.57-3.87c-2.8-8.06,1.25-14.29-3.54-22.1c-3.92-6.38-8.94-10.91-1.68-16.57
		C564.12,462.59,599.37,454.46,638.1,448.65z" class="st4"></path>
	<path d="M552.43,482.56c3.6,5.71,7.82,11.49,12.09,16.7" class="st5"></path>
	<path d="M634.36,460.35c10.12,0.43,11.35,1.55,21.05,4.61" class="st3"></path>
	<path d="M634.25,480.14c-21,1.37-44.43,6.22-65.44,1.93" class="st5"></path>
</g>
<path d="M960.21,764.76c6.29-8.08,31.04,19.6,35.9,26.8c4.63-21.65-4.37-82.25-4.37-82.25
	c-7.06-8.58-19.62-20.2-26.9-28.77c-4.88,1.83-9.09,3.52-13.99,5.51c0,0-4.64,23.49,10.3,29.04" class="st4"></path>
<path d="M1012.98,517.31c6.85,9.97,11.56,21.38,13.28,33.54c3.31,23.36-3.65,46.67-10.52,69.04
	c-6.85,22.31-15.07,46.47-34.44,58.56c-16.1,10.05-36.95,9.31-54.86,2.69c-56.92-21.01-84.16-83.55-67.65-140.43
	c10.82-37.33,50.01-62.72,87.96-61.29C972.8,480.41,997.99,495.43,1012.98,517.31z" class="st2"></path>
<path d="M990.33,577.26c13.64-8.51,26,6.23,26,6.23" class="st3"></path>
<path d="M956.72,571.53c-15.67-18.52-42.14-5.55-42.14-5.55" class="st3"></path>
<path d="M991.18,597.48c-0.52,4.37,1.28,8.17,4.01,8.49c2.73,0.33,5.37-2.96,5.89-7.32c0.52-4.37-1.28-8.17-4.01-8.49
	C994.32,589.82,991.7,593.1,991.18,597.48z"></path>
<path d="M932.72,587.39c-0.52,4.37,1.28,8.17,4.01,8.49c2.73,0.33,5.37-2.96,5.89-7.32c0.52-4.37-1.28-8.17-4.01-8.49
	C935.89,579.73,933.25,583.02,932.72,587.39z"></path>
<path d="M985.97,581.31c-5.6,7.35-5.42,19.51-6.58,28.31c-0.7,5.35-0.09,12.32-6.56,14.09" class="st3"></path>
<ellipse ry="17.45" rx="17.45" cy="613.68" cx="915.44" class="st6" transform="matrix(0.1347 -0.9909 0.9909 0.1347 184.0704 1438.1458)"></ellipse>
<path d="M1009.5,641.06c-6.81,1.52-13.82-2.19-16.23-8.93c-2.58-7.3,1.23-15.3,8.51-17.91
	c5.38-1.92,11.13-0.33,14.83,3.56C1014.68,625.68,1012.44,633.58,1009.5,641.06z" class="st6"></path>
<path d="M858.79,540.71c10.82-37.33,50.01-62.72,87.96-61.29c26.05,0.99,51.24,16.01,66.24,37.89
	c6.85,9.97,11.56,21.38,13.28,33.54c3.31,23.36-3.65,46.67-10.52,69.04c-6.85,22.31-15.07,46.47-34.44,58.56
	c-16.1,10.05-36.95,9.31-54.86,2.69c-4.54-1.68-8.89-3.61-13.05-5.8" class="st3"></path>
<path d="M954.21,660.23c-10.86-5.6-11.96-21.95-12.4-32.29c13.1,6.11,29.42,10.46,43.83,9.99c0,0-6.07,12.9-11.33,18.21
	C969.24,661.28,961.31,663.9,954.21,660.23z" class="st1"></path>
<path d="M956.72,693.53c8.84,15.38,1.95,53.74,0.49,70.61" class="st3"></path>
<path d="M1057.18,855.19c2.95-39.15,17.56-95.4,26.51-133.56" class="st5"></path>
<path d="M993.34,726.81c7.55-0.85,18,0.67,25.77,1.34c6.41,0.54,13.05,1.34,19.41,2.24c9.2,1.32,33.72,2.76,40.8,9.67" class="st5"></path>
<path d="M871.43,639.05c0,0-21.9-16.48-27.01-59.27c-7.44-62.25,46.51-126.43,112.3-111.66
	c14.82,3.32,36.63,11.24,48.3,32.51c15.7,2.64,27.18,24.32,30.81,38.92c4.84,19.51-0.89,47.25-13.35,61.23
	c5.94-22.1,2.46-44.45-9.43-62.26c-14.15,17.74-38.87,25.6-60.8,26.27c6.83-3.16,13.7-7.12,19.19-12.27
	c-21.07,9.78-47.01,6.27-69.11,15.95C885.04,576.03,870.55,588.8,871.43,639.05z" class="st7"></path>
<g>
	<path d="M878.19,609.28c-13.41-6.56-21.52-28.96-12.5-42.32c8.08-11.96,26.25-5.98,28.04,7.57" class="st1"></path>
	<path d="M884.95,589.69c3.88-7.86-6.96-15-13.95-12.23" class="st3"></path>
	<path d="M885.31,588.7c-0.92-5.35-8.71-3.07-11.04-0.11" class="st3"></path>
</g>
<path d="M1003.88,516.91c-19.73-8.65-40.8-0.33-57.82,10.84" class="st3"></path>
<path d="M1002.97,508.78c-14.89-9.27-26.34-9.92-43.36-3.61" class="st3"></path>
<path d="M907.21,510.58c-15.48,11.33-28.42,28.02-27.1,47.88" class="st3"></path>
<path d="M869.27,563.89c-6.02-9.45,0.43-26.76,7.23-34.33" class="st3"></path>
<g>
	<path d="M1166.06,879.49c-6.76-12.18-17.56-52.24-17.6-57.21c-0.04-5.42,1.92-11.98,8.04-9.32
		c1.41,0.61,2.6,1.63,3.54,2.84c8.22,10.55,13.5,21.95,18.45,34.19c3.49-6.6,3.65-17.53,5.01-25.1c2.75-15.14,5.76-30.05,9.32-45.03
		c1.36-5.69,3.4-24.28,12.05-24.48c4.48-0.11,3.83,6.14,3.51,8.96c-2.71,23.4-3.72,37.42-2.62,52.42
		c1.99-22.48,5.13-41.97,12.4-63.49c0.49-1.46,2.22-4.21,3.58-5.01c6.2-3.56,6.36,10.41,6.18,13.08c-0.56,8.42-1.77,16.79-2.4,25.19
		c-0.78,10.37-3.07,20.78-3.96,31.13c1.92-9.79,4.99-19.79,6.7-29.61c1.16-6.58,1.7-13.28,3.67-19.71c0.58-1.88,1.82-7.25,3.76-8.31
		c2.44-1.34,4.95,1.3,5.75,3.38c1.12,2.89,0.14,7.52,0,10.57c-0.38,7.62-1.26,15.21-2.39,22.78c-1.36,9.25-1.84,15.27-5.22,24.1
		c3.76-9.85,7.64-33.52,14.06-41.87c1.46-1.92,6.31-2.95,6.22,2.87l-10.01,62.07c-1.63,10.08-7.14,25.28-11.31,34.69
		c-4.23,9.52-11.27,17.38-32.81,17.67C1191.65,896.37,1173.36,892.63,1166.06,879.49z" class="st1"></path>
	<path d="M1193.82,817.68c16.01-1.92,32.56,0.78,47.14,7.66" class="st3"></path>
</g>
<path d="M664.39,539.71c-12.45,11.24-24.9,22.48-37.35,33.73" class="st5"></path>
<path d="M778.81,684.01c-16.37,40.09-38.29,77.93-64.96,112.04" class="st5"></path>
<path d="M840.36,722.53c-21.52,0.43-48.57-14.17-68.14-23.15" class="st5"></path>
<path d="M1556.71,645.32c-8.85,35.81-15.25,72.83-17.13,109.35c-0.98,18.74-0.69,37.35,5.31,55.9
	c16.41,50.68,51.33,56.9,102.23,47.12c3.02-24.72-5.85-57.66-11.93-82.66C1623.71,727.75,1602.04,668.78,1556.71,645.32z" class="st7"></path>
<path d="M1554.11,667.6c-18.01,28.53-63.01,197.98,27.05,169.01" class="st3"></path>
<path d="M1805.64,901.93c-51.5-29.9-83.73-43.49-95.55-60.13c-10.32-14.51-11.11-96.38-10.99-99.63
	c-20.82,6.11-68.68,23.06-89.46,29.31c2.04-0.54,13.26,49.36-1.99,61.23c-12.58,9.79-83.46-0.45-113.98,7.93l-19.86,25.1
	l331.81,110.54V901.93z" class="st1"></path>
<path d="M1312.22,896.04c0,0-37.44-25.8-55.47-36.26c-8.85-5.15-14.64-7.88-21-15.99
	c-6.27-8.02-10.43-17.49-14.53-26.87l-28.01-64.99c-0.96-2.19,1.61-4.23,3.45-2.76c8.08,6.38,19.82,28.62,25.82,37.17
	c-5.38-7.68-7.37-13.39-10.99-22.01c-2.96-7.05-5.73-14.2-8.02-21.5c-0.92-2.95-3-7.17-2.69-10.28c0.23-2.51,3.11-7.35,5.55-3.74
	c6.09,9.05,8.47,14.18,12.97,24.14c4.1,9.09,9.49,17.96,13.77,26.98c-3.47-9.83-8.24-19.33-11.62-29.2c-2.73-8-6-15.81-8.65-23.83
	c-0.85-2.55-4.26-16.17,2.4-14.4c1.46,0.4,3.76,2.6,4.59,3.88c12.23,18.95,20.11,37.04,27.7,58.36c-2.8-14.87-1.23-14.4-18.74-48.14
	c-1.3-2.51-3.22-8.55,0.96-9.65c4.16-1.1,8.49,4.82,11.04,7.48c0.69,0.7,1.77,1.79,2.4,2.53c10.1,11.55,16.39,25.49,22.51,39.32
	c6.31,14.2,12.59,28.4,18.9,42.62c1.03-14.96,4.37-29.76,9.87-43.69c0.56-1.43,1.41-2.73,2.57-3.7c5.01-4.23,8.49,1.61,9.83,6.88
	c1.25,4.82,0.85,8.44,0.78,13.43c-0.29,20.42-0.05,28.86,1.12,42.84c0.51,6,4.21,11.2,9.61,13.68
	c22.6,10.34,47.29,15.94,72.08,16.39" class="st1"></path>
<g>
	<path d="M2033.47,842.71c0,0-0.83-6.5,3.54-8.96c4.97-2.8,16.35,0.56,22.19,3.65c7.23,3.83,16.14,8.28,24.27,10.08
		c6.58,1.48,7.7,4.93,7.23,11.58c-0.43,6.16-2.35,12.47-3.61,18.68c-2.2,10.71-4.44,21.43-7.73,31.98
		c-2.15,6.9-2.73,14.26-3.65,21.45c-0.72,5.75,1.39,12,0.38,17.71c-1.05,5.89-5.56,10.41-7.86,15.83c-3,7.1-31.01,79.43-39.77,110.2
		l-40.84-29.04c6.58-6.63,30.9-54.42,42.75-100.25c2.66-10.26,1.46-21.63-3.96-31.2c-4.55-8.06-7.28-14.6-8.87-23.85
		c-1.57-9.05-2.89-18.01-5.53-26.85c-1.97-6.56-8.35-15.12-2.24-20.35c1.68-1.45,8.02-5.47,9.88-5.8c2.89-0.49,7.81,3.41,11.26,3.43
		c5.35,0.05,1.21,8.94,0.36,11.2c-1.93,5.15-6.54,11.4-12.79,6.31" class="st1"></path>
	<path d="M2071.5,852.34c-7.14,0.43-18.12-3.32-25.08-4.08c-7.46-0.81-11.06-2.08-15.47,4.86" class="st3"></path>
	<path d="M2028.03,858.93c-3.29,3.74-0.99,11,2.85,13.57" class="st3"></path>
	<path d="M2071.77,861.01c-9.4,1.77-18.56-0.54-27.9-0.6c-3.96-0.02-7.52-0.89-9.34,2.76c-1.7,3.4-3.29,8.04-4.07,11.82
		c-1.3,6.29,1.66,10.52,7.91,12.92c4.39,1.68,13.5,1.34,13.66-4.32c-3.32-4.41-6.54-5.01-11.6-5.85c6.03,1.84,11.17,0.27,17.45,0.23
		c-3.31,1.12-4.25,4.66-5.64,7.37c-1.84,3.56-3.88,4.66-7.52,6.14c-2.82,1.16-5.69,2.57-8.17,4.34c-5.89,4.25-5.46,8.56-4.82,15.76" class="st3"></path>
	<path d="M2071.34,873.19c3.22-0.36,4.86,4.12,6.2,6.41" class="st3"></path>
	<path d="M2079.61,858.61c3.05,0.31,3.29,2.96,3.94,5.33" class="st3"></path>
</g>
<path d="M600.04,1017.09c0.72-3.85,37.26-18,42.46-21.19c14.78-9.09,29.83-20.51,37.94-36.26
	c8.04-15.63,3-60.64,3-60.64c0.81-15.39,75.65-11.4,96.63-4.12c-2.06-0.65-1.41,48.08,9.03,58.22c14.78,14.36,44.61,7.08,44.61,7.08
	l-26.15,186.9l-221.76-53.7C585.82,1093.37,600.02,1017.18,600.04,1017.09z" class="st1"></path>
<path d="M775.94,732.94c10.48,6.58,19.57,15.36,26.13,26.06c12.63,20.58,15.59,45.3,18.27,69.11
	c2.66,23.74,4.81,49.76-8.46,69c-11.02,15.99-30.9,23.8-50.39,24.88c-61.99,3.47-113.06-44.11-120.75-104.24
	c-5.04-39.44,21.39-79.27,57.58-93.38C723.16,714.69,752.94,718.52,775.94,732.94z" class="st2"></path>
<path d="M786.31,793.4c9.34-13.55,26.96-4.75,26.96-4.75" class="st3"></path>
<path d="M752.43,801.73c-22.26-11-41.81,11.98-41.81,11.98" class="st3"></path>
<path d="M795.35,812.02c1.3,4.32,4.54,7.16,7.23,6.34c2.69-0.81,3.83-4.97,2.53-9.27c-1.3-4.32-4.54-7.16-7.23-6.34
	C795.2,803.57,794.06,807.71,795.35,812.02z"></path>
<path d="M736.39,826.39c1.3,4.32,4.54,7.16,7.23,6.34c2.69-0.81,3.83-4.97,2.53-9.27c-1.3-4.32-4.54-7.16-7.23-6.34
	C736.23,817.91,735.09,822.07,736.39,826.39z"></path>
<path d="M783.87,798.96c-2.28,9.18,2.87,20.53,5.37,29.25c1.52,5.31,4.93,11.6-0.42,15.9" class="st3"></path>
<ellipse ry="17.85" rx="17.85" cy="858.13" cx="730.85" class="st6"></ellipse>
<path d="M786.24,886.02c-12.47-0.83-20.18-15.74-24.79-25.26c14.78,0.4,31.87-2.17,45.23-8.49c0,0-0.45,14.58-3.22,21.7
	C800.77,880.87,794.41,886.56,786.24,886.02z" class="st1"></path>
<path d="M647.18,842.51c-6.65-10.62-14.67-21.75-19.66-33.45" class="st3"></path>
<path d="M650.83,852.1c-4.43-4.16-10.46-7.37-13.44-12.85" class="st3"></path>
<g>
	<path d="M822.11,848.16c-3.88,0.07-7.79-1.39-10.66-4.46c-5.4-5.78-5.1-14.87,0.69-20.27c2.1-1.95,4.61-3.14,7.25-3.61
		c0.33,2.76,0.65,5.53,0.96,8.28C821.08,834.68,821.76,841.44,822.11,848.16z" class="st6"></path>
</g>
<path d="M640.73,817.75c-5.04-39.44,21.39-79.27,57.58-93.38c24.86-9.68,54.62-5.85,77.62,8.56
	c10.48,6.58,19.57,15.36,26.13,26.06c12.63,20.58,15.59,45.3,18.27,69.11c2.66,23.74,4.81,49.76-8.46,69
	c-11.02,15.99-30.9,23.8-50.39,24.88c-4.93,0.27-9.81,0.23-14.6-0.13" class="st3"></path>
<path d="M637.81,753.14c6.18-28.69,30.39-58.76,97.95-53.05c15.92,1.36,31.67,3.83,47.16,6.83
	c8.38,1.63,14.22,2.11,19.86-4.55c4.05,5.4,4.28,19.13,0.42,24.77c3.13-0.38,5.37-0.02,7.26-2.29
	c11.33,25.82-50.77,23.15-64.67,24.36c-11.38,0.99-50.47,1.46-54.44,14.78c-31.15-5.85-20.71,58.51-17.33,66.69
	c-4.35,8.47-5.4,21.95-3.69,31.62c1.72,9.76,14.62,25.28,12,35.9c0,0-16.68-6.54-39.79-28.89c-10.62-10.28-27.77-30.45-30.36-44.81
	C607.49,798.22,609.93,767.34,637.81,753.14z" class="st7"></path>
<g>
	<path d="M676.29,873.01c-15.27-0.69-32-18.43-28.98-34.62c2.71-14.51,22.21-16.32,29.42-4.32" class="st1"></path>
	<path d="M674.65,851.87c0.45-8.96-12.65-11.24-18.09-5.78" class="st3"></path>
	<path d="M674.58,850.78c-3.05-4.64-9.43,0.65-10.41,4.41" class="st3"></path>
</g>
<path d="M665.78,761.22c-19.82,2.51-14.38,40.44-7.66,51.75" class="st3"></path>
<path d="M652.41,759.66c-8.94,6.56-12.4,17.29-10.46,28.22" class="st3"></path>
<path d="M668.47,752.11c2.71-11.6,18.56-15.88,28.55-16.59c21.9-1.57,43.74,0.49,65.88-2.15" class="st3"></path>
<path d="M663.17,744.59c0.9-7.75,10.61-11.53,16.51-14.18c11.09-4.99,24.25-5.22,36.48-4.64" class="st3"></path>
<g>
	<path d="M1582.15,626.19c-8.75,8.62-15.67,19.06-19.75,30.83c-7.82,22.64-5.42,47.23-2.93,70.85
		c2.49,23.56,5.98,49.24,22.95,65.05c14.09,13.14,35.02,16.44,54.13,13.33c60.78-9.88,100.08-66.91,94.7-126.79
		c-3.54-39.3-37.66-72.22-75.74-78.15C1629.36,597.22,1601.34,607.29,1582.15,626.19z" class="st2"></path>
	<path d="M1592.7,695.88c-12.52-10.48-27.03,2.6-27.03,2.6" class="st3"></path>
	<path d="M1627.3,694.87c18.36-16.42,43.15,0.36,43.15,0.36" class="st3"></path>
	<path d="M1589,716.1c-0.09,4.46-2.44,8.04-5.22,7.99s-4.99-3.72-4.88-8.19c0.09-4.46,2.44-8.04,5.22-7.99
		C1586.9,707.95,1589.09,711.62,1589,716.1z"></path>
	<path d="M1649.18,714.18c-0.09,4.46-2.44,8.04-5.22,7.99c-2.8-0.05-4.99-3.72-4.88-8.19c0.09-4.46,2.44-8.04,5.22-7.99
		C1647.09,706.05,1649.27,709.72,1649.18,714.18z"></path>
	<path d="M1596.51,700.56c4.61,8.19,2.69,20.38,2.62,29.4c-0.04,5.49-1.64,12.41,4.63,15.09" class="st3"></path>
	<ellipse ry="17.71" rx="17.71" cy="743.06" cx="1662.89" class="st6"></ellipse>
	<path d="M1564.46,757.33c6.63,2.48,14.22-0.25,17.56-6.69c3.63-6.97,0.92-15.56-6.04-19.19
		c-5.13-2.67-11.15-1.9-15.41,1.48C1561.39,741.14,1562.54,749.4,1564.46,757.33z" class="st6"></path>
	<path d="M1582.15,626.19c-8.75,8.62-15.67,19.06-19.75,30.83c-7.82,22.64-5.42,47.23-2.93,70.85
		c2.49,23.56,5.98,49.24,22.95,65.05c14.09,13.14,35.02,16.44,54.13,13.33c60.78-9.88,100.08-66.91,94.7-126.79
		c-3.54-39.3-37.66-72.22-75.74-78.15C1629.36,597.22,1601.34,607.29,1582.15,626.19z" class="st3"></path>
	<path d="M1617.33,784.4c11.71-4.1,15.12-20.4,17-30.72c-14.02,4.3-31.04,6.38-45.48,3.87c0,0,4.3,13.82,8.84,19.89
		C1602.08,783.33,1609.68,787.07,1617.33,784.4z" class="st1"></path>
</g>
<path d="M1868.77,804.2c0,0-6.07,16.28-7.48,19.69c-3.02,7.34-6.56,14.42-10.99,21.01c-6,8.93-11.11,17.29-19.17,24.36
	c-7.46,6.54-17.92,13.12-27.18,16.97c-18.47,7.72-39.99,3.61-57.19-5.46c-0.69-0.36-1.37-0.74-2.06-1.12
	c-24.21-13.59-34.33-33.14-43.36-58.27c1.97,22.71,7.68,53.86,31.62,63.24c-37.94-3.38-48.04-54.62-46.35-84.98
	c3.47-61.54,11.4-133.31-55.85-164.5c32.94,12.05,71.43,11.87,99.16,34.73c31.01,25.57,18.03,71.91,60.33,89.95
	c19.68,8.38,50.83,2.87,63.78-26.98c0.58,11.85-10.3,30.73-17.71,39.75c-12.83,15.63-31.19,19.84-50.95,14.45
	C1800.47,815.31,1836.84,815.48,1868.77,804.2z" class="st7"></path>
<path d="M1657.53,655.87c31.22,17.91,30.63,80.13,26.92,109.66c-3.61,28.75-17.92,58.02-6.99,83.93" class="st3"></path>
<path d="M1748.49,704.1c6.96,14.04,15.97,30.08,29.94,38.41c16.59,9.88,49.78,10.7,57.86-11.76" class="st3"></path>
<path d="M1744.62,662.65c-5.66-28.01-11.15-64.11-31.49-84.33c-24.43-24.27-67.88-34.04-97.66-19.77
	c-27.88,13.37-46.24,44.34-55.02,76.18" class="st1"></path>
<path d="M1635.29,661.93c27.93,3.7,54.39,8.82,78.6,20.96c12.27,6.16,24.16,13.08,35.52,20.71
	c2.87,1.93,6.79-0.07,6.7-3.49c-0.22-9.99-1.5-30.08-4.35-41.21c-1.28-4.99-4.3-9.38-8.64-12.27c-4.46-2.98-14.67-6.43-21.72-9.25
	c-20.54-8.19-41.76-16.26-63.75-19.42c-42.35-6.11-77.21-1.77-88.27,1.73c-4.28,1.36-8.09,3.79-11.08,7.1
	c-7.5,8.35-9.27,25.28-9.67,40.37c-0.07,2.55,13.64-4.44,31.11-5.89C1594.81,660.03,1616.04,659.36,1635.29,661.93z" class="st1"></path>
<path d="M1733,643.03c3.31,16.35,3.79,31.87,3.43,48.44" class="st5"></path>
<path d="M1727.65,640.14c-1.17,16.28,5.42,35.36-0.83,50.9" class="st5"></path>
<path d="M1709.68,633.47c-1.46,14.51-3.43,28.87-5.57,43.13" class="st5"></path>
<path d="M1702.67,634.08c-1.17,13.97-3.94,27.57-5.11,41.45" class="st5"></path>
<path d="M1680.86,624.22c-3.34,14.85-3.76,30.14-6.78,44.95" class="st5"></path>
<path d="M1673.85,620.89c-3.6,15.76-3.7,32.09-6.16,48.01" class="st5"></path>
<path d="M1647.18,618.35c-1.99,15.23-2.17,30.57-3.43,45.88" class="st5"></path>
<path d="M1638.18,616.99c-0.23,14.89-1.17,30.05-2.06,44.79" class="st5"></path>
<path d="M1615.77,615.96c-3.42,13.89-6.47,29.94-3.74,44.34" class="st5"></path>
<path d="M1607.86,615.98c-2.95,15.77-3.14,29.78-2.66,45.71" class="st5"></path>
<path d="M1585.62,619.67c-5.08,14.04-8.31,25.1-8.62,39.79" class="st5"></path>
<path d="M1577.23,617.41c-3.87,14.89-7.77,27.18-6.47,42.52" class="st5"></path>
<path d="M1682.74,558.95c12.23,9.05,25.28,29.54,30.95,43.58c4.14,10.26,6.4,24.07,7.7,34.84" class="st5"></path>
<path d="M1682.74,558.95c16.21,17.33,33.82,51.93,31.89,75.76" class="st5"></path>
<path d="M1675.4,555.97c15.5,16.71,19.95,50.48,20.47,71.95" class="st5"></path>
<path d="M1675.4,555.97c9.65,19.88,13.39,46.83,12.68,68.77" class="st5"></path>
<path d="M1671.14,556.44c-4.52,19.48-4.63,59.59-4.63,59.59" class="st5"></path>
<path d="M1671.14,556.44c-7.5,18.43-12.11,42.08-12.99,61.27" class="st5"></path>
<path d="M1664.13,553.1c-17.76,7.61-28.8,43.33-32.04,61.16" class="st5"></path>
<path d="M1664.13,553.1c-23.42,1.81-35.94,37.96-39.66,58.72" class="st5"></path>
<path d="M1649.65,552.05c-43.24,17.45-46.2,52.6-52.45,62.1" class="st5"></path>
<path d="M1649.65,552.05c-45.39,6.79-55.34,50.34-62.07,61.67" class="st5"></path>
<path d="M1831.84,1041.8c29.58,44.47,72.62,83.89,113.42,118.35c48.51,40.96,91.19-27.08,101.18-63.24
	c9.14-33.1,25.98-110.82,25.98-110.82c-9.4-14.76-55.62-19.03-55.62-19.03c-9.68,26.69-37.76,65.91-48.06,101.82
	c-21.05-48.57-37.64-90.25-55.47-133.71c-6.81-16.59-18.18-35.16-31.17-47.52c-34.69-32.99-100.95-28.69-147.95-37.78
	c-27.08,15.54-54.77,32.85-85.28,39.44c-25.48-8.42-50.41-32.99-64-56.12c-12.49,2.75-25.26-1.86-37.94-3.52
	c-36.52-4.82-71.61,14.71-108.14,19.39c-9.14,1.17-18.38,1.41-27.59,1.64c-8.94,0.23-17.91,0.45-26.85,0.09
	c-24.84-0.99-49.51-6.6-72.35-16.41c-14.53,13.08-22.41,31.2-34.62,46.45c30.08,20.92,56.01,35.92,88.68,52.54
	c8.55,4.35,18.3,7.17,27.54,9.79c38.02,10.75,71.03,7.25,105.99,25.64c4.14,78.94,24.03,179.51,50.36,254.05
	c88.9,13.55,177.71,13.75,266.17-2.31c27.41-4.97,55.51-11.8,77.51-28.86c-11.13-24.57-25.12-50.97-36.25-75.55
	C1845.64,1090.21,1830.39,1070.26,1831.84,1041.8z" class="st1"></path>
<path d="M1758.15,862.45c-35.14,18.14-71.05,38.32-110.63,46.02c-33.05-9.83-65.39-38.5-83.01-65.5
	c-2.57-3.94-4.88-7.72-6.81-11.98" class="st5"></path>
<path d="M1766.56,866.12c-38.18,19.71-77.21,41.65-120.23,50.01c-35.92-10.68-71.06-41.83-90.22-71.17
	c-2.17-3.32-7.7-11.58-9.18-15.27" class="st5"></path>
<path d="M2067.02,1005.41c-9.85-14.98-58.31-19.3-58.31-19.3" class="st5"></path>
<path d="M2066.06,1014.92c-9.85-14.98-61.2-21.79-61.2-21.79" class="st5"></path>
<path d="M1967.68,1075.54c0.85,11.24,1.72,22.48,2.57,33.72" class="st5"></path>
<path d="M1975.36,1072.97c7.44,14.4,12.65,29.94,15.39,45.91" class="st5"></path>
<path d="M1407.71,861.12c5.62,8.44,11.24,16.86,16.86,25.3" class="st5"></path>
<path d="M1419.76,861.12c17.33,9.67,34.2,20.13,50.59,31.31" class="st5"></path>
<g>
	<path d="M1138.49,847.17c3.14-14.35,4.3-28.89,6.81-43.33c0.65-3.7,0.76-21.27,7.82-17.56
		c4.5,2.37,3.52,13.93,3.65,18.12c0.2,7.52-0.49,15.18-1.37,22.62c-0.54,4.61-1.01,16.12,0.14,18.34
		c2.31-2.29,5.29-12.86,6.81-18.43c2.06-7.53,3.98-15.32,6.36-22.69c1.9-5.89,3.7-15.18,7.91-19.69c8.6-9.25,5.71,11.13,5.24,14.65
		c-1.39,10.62-4.35,20.94-7.01,31.96c-1.3,5.44-6.25,20.06-2.51,22.03c2.46-1.93,5.89-12.9,7.86-19.46
		c2.6-8.71,4.43-14.22,6.41-22.01c1.55-6.14,3.65-14.76,8.94-19.04c5.66-4.55,6.38,5.02,5.04,11.06
		c-2.84,12.9-7.17,26.2-11.17,38.97c-1.7,5.42-6.16,15.38-3.18,20.94c3.43-6.72,4.52-14.31,7.3-21.43
		c1.75-4.48,2.96-9.29,4.41-13.84c0.87-2.71,1.63-7.12,4.01-8.94c2.62-1.99,4.54,3.87,4.63,5.84c0.14,2.84-0.33,5.58-0.92,8.35
		c-1.73,7.91-3.31,15.85-4.7,23.81c-2.73,15.72-3.34,31.75-6.72,47.36c-1.68,7.79-4.07,15.45-7.68,22.57
		c-2.98,5.89-10.1,14.89-14.29,17.4c-22.48,13.52-42.52,31.84-61.52,49.91l-41.23-28.95c17.17-11.17,33.43-24.03,48.62-37.78
		c6.7-30.63,1.28-50.12,0.65-79.99c-0.09-4.46,1.16-7.81,0.52-12.41c-0.6-4.35-2.2-8.38-1.16-12.65
		c9.47,1.63,15.9,12.54,18.95,20.72c1.99,5.31,2.04,11.09,3.7,16.46c2.06,6.7,7.97,12.85,7.75,20.09" class="st1"></path>
	<path d="M1152.67,844.26c6.05,3.34,12.11,6.13,18.09,9.45c7.93,4.39,14.35,10.61,20.98,16.82" class="st3"></path>
</g>
<path d="M531,1274.28c-29.27-60.1-34.1-131.65-13.15-195.12c5.6-16.98,13.06-33.57,24.07-47.68
	c29.8-38.27,74.12-50.12,121.01-62.55c12.09,25.22,42.24,31.84,73.77,42.55c24.79-12.02,50.92-31.67,63.85-55.99
	c0,0,27.92-4.93,40.73-7.17c41.11-7.14,75.27-1.84,119.87-0.42c44.83,1.41,103.57-7.12,158.75-28.13
	c6.67,22.28,17.4,32.51,38.27,42.8c-46.67,35.87-97.12,69.33-151.43,92.04c-50.27,21.01-78.17,27.19-118.02,64.32
	c-10.3,9.59-23.15,93.23-32.52,113.51c-70.58,9.4-169.2,16.95-239.63,27.43C588.97,1263.94,558.58,1270.17,531,1274.28z" class="st1"></path>
<g>
	<path d="M1592.79,699.13c-3.72-2.01-8.96-1.84-12.85-1.41c-5.15,0.58-15.7,0.96-17.53,6.83
		c-2.8,9.03,2.62,30.27,13.21,31.55c5.35,0.65,11.94,0.65,16.12-3.54c4.35-4.37,5.35-11.8,5.87-17.73
		C1598.08,709.34,1598.23,702.06,1592.79,699.13z" class="st8"></path>
	<path d="M1629.74,699.13c4.7-2.01,11.31-1.84,16.21-1.41c6.5,0.58,19.82,0.96,22.1,6.83
		c3.52,9.03-3.29,30.27-16.66,31.55c-6.76,0.65-15.07,0.65-20.33-3.54c-5.49-4.37-6.74-11.8-7.41-17.73
		C1623.06,709.34,1622.86,702.06,1629.74,699.13z" class="st8"></path>
	<path d="M1597.76,708.85c0,0,9.92-8.96,25.69,0" class="st8"></path>
</g>
<rect height="337.22" width="1521.29" class="st9" y="1215.75" x="473.07"></rect>
<g>
	<polygon points="637.66,1456.59 857.81,1479.12 952.47,1370.94 754.17,1350.65" class="st1"></polygon>
</g>
<g>
	<polygon points="576.84,1504.87 797.71,1496.99 880.87,1376.58 681.89,1383.66" class="st1"></polygon>
</g>
<g>
	<g>
		<path d="M1284.86,1113.52c-0.33,0-0.65,0-0.96,0c-102.43,0-204.84-0.14-307.28-0.14c-14.38,0-24.45,4.23-24.21,19.08
			c0.33,19.23,3.29,38.85,5.24,57.96c3.87,37.84,8.56,75.56,14.13,113.18c0.45,3.09,0.99,6.36,3,8.76
			c3.22,3.87,8.94,4.17,13.97,4.17c91.59-0.02,183.16-0.04,274.75-0.05c9.32,0,13.75-3.4,14.94-12.99
			c7.1-57.28,20.16-117.84,20.16-175.57c0.33-3.36,0.6-7.01-1.25-9.83C1294.82,1114.21,1289.58,1113.57,1284.86,1113.52z" class="st1"></path>
	</g>
	<g>
		<path d="M1284.86,1120.62c-0.33,0-0.65,0-0.96,0c-102.43,0-204.84-0.14-307.28-0.14c-14.38,0-24.45,4.08-24.21,18.41
			c0.33,18.56,3.29,37.47,5.24,55.94c3.87,36.5,8.56,72.93,14.13,109.23c0.45,2.98,0.99,6.14,3,8.46c3.22,3.72,8.94,4.03,13.97,4.03
			c91.59-0.02,183.16-0.04,274.75-0.05c9.32,0,13.75-3.27,14.94-12.52c7.1-55.25,20.16-113.71,20.16-169.41
			c0.33-3.23,0.6-6.76-1.25-9.49C1294.82,1121.29,1289.58,1120.67,1284.86,1120.62z" class="st1"></path>
	</g>
	<path d="M1275.96,1331.64H975.84c-2.87,0-5.2-2.33-5.2-5.2v-4.72c0-2.87,2.33-5.2,5.2-5.2h300.12
		c2.87,0,5.2,2.33,5.2,5.2v4.72C1281.16,1329.33,1278.83,1331.64,1275.96,1331.64z" class="st1"></path>
</g>
<g>
	<g>
		<path d="M1530.33,1255.7c-2.42-1.45-10.35-6.04-12.18-8.19c-0.87-1.03-0.11-2.01,0.61-2.1
			c8.64,0.09,17.09,1.95,25.4,4.41c-0.45,3.72-2.1,8.13-4.08,11.22C1536.78,1259.39,1533.51,1257.62,1530.33,1255.7z" class="st1"></path>
		<path d="M1593.01,1283.62c-5.53-2.37-11.06-4.73-16.62-7.01c-10.43-4.16-20.91-8.26-31.06-13.01
			c-1.75-0.83-3.51-1.66-5.24-2.55c1.99-3.09,3.63-7.5,4.08-11.22c3.36,0.99,6.69,2.08,9.99,3.18c15.2,5.1,30.23,10.71,45.1,16.7
			C1598.7,1274.31,1597.05,1279.77,1593.01,1283.62z" class="st1"></path>
		<path d="M1649.47,1293.9c-0.25,2.37-1.23,4.66-2.75,6.5c-0.54,0.67-1.21,1.28-2.02,1.55
			c-0.96,0.29-2.01,0.04-2.96-0.22c-0.02,0-0.04-0.02-0.05-0.02c-2.17,1.32-4.59,2.39-7.1,2.33c-3.51-0.07-6.79-1.64-9.97-2.91
			c-7.55-3.02-15.29-5.51-22.71-8.87c-3.67-1.66-7.66-2.64-11.2-4.55c-1.41-0.76-0.38-3.05,1.03-2.28c2.93,1.59,6.18,2.46,9.27,3.72
			c3.54,1.43,6.99,3.04,10.57,4.41c3.7,1.43,7.44,2.78,11.17,4.17c3.14,1.19,6.27,2.75,9.56,3.51c1.72,0.4,3.31,0.43,4.99-0.18
			c0.29-0.11,0.58-0.22,0.87-0.34c-15.45-4.46-30.3-10.77-45.12-17.11c4.07-3.87,5.69-9.31,6.25-13.91
			c16.14,6.49,32.11,13.41,47.94,20.62c0.78,0.36,1.63,0.76,2.04,1.52C1649.56,1292.45,1649.54,1293.21,1649.47,1293.9z" class="st1"></path>
	</g>
	<path d="M1596.22,1284.61c3.81-2.02,6.25-10.48,5.96-13.37" class="st10"></path>
	<path d="M1537.61,1259.82c2.17-2.84,3.98-7.32,4.16-10.48" class="st10"></path>
	<path d="M1535.35,1258.18c2.35-2.48,3.58-6.97,4.01-9.83" class="st10"></path>
</g>
<g>
	<g>
		<path d="M841.96,1326.75c1.95,2.04,8.4,8.55,9.59,11.11c0.58,1.23-0.42,1.97-1.14,1.84
			c-8.29-2.37-15.97-6.4-23.34-10.95c1.41-3.47,4.16-7.28,6.88-9.74C836.72,1321.49,839.4,1324.05,841.96,1326.75z" class="st1"></path>
		<path d="M788.86,1283.29c4.72,3.74,9.41,7.48,14.18,11.15c8.96,6.76,18,13.46,26.54,20.74
			c1.48,1.26,2.95,2.53,4.39,3.83c-2.73,2.46-5.47,6.29-6.88,9.74c-2.98-1.84-5.89-3.76-8.8-5.71c-13.32-8.93-26.33-18.3-39.1-27.99
			C780.91,1290.77,783.93,1285.95,788.86,1283.29z" class="st1"></path>
		<path d="M737.09,1258.5c0.87-2.22,2.4-4.17,4.37-5.55c0.7-0.49,1.5-0.92,2.37-0.96c1.01-0.04,1.93,0.49,2.8,0.99
			c0.02,0.02,0.04,0.02,0.05,0.04c2.44-0.69,5.06-1.1,7.46-0.38c3.36,0.99,6.13,3.36,8.85,5.44c6.49,4.9,13.3,9.34,19.57,14.55
			c3.11,2.57,6.69,4.55,9.59,7.35c1.16,1.1-0.43,3.04-1.59,1.92c-2.4-2.31-5.31-4.01-7.95-6.02c-3.04-2.31-5.94-4.77-9.03-7.05
			c-3.2-2.35-6.45-4.64-9.67-6.97c-2.73-1.97-5.33-4.3-8.31-5.89c-1.55-0.83-3.09-1.28-4.84-1.14c-0.31,0.02-0.63,0.05-0.94,0.11
			c13.73,8.38,26.38,18.38,39.03,28.39c-4.93,2.66-7.95,7.48-9.68,11.76c-13.86-10.52-27.43-21.39-40.82-32.51
			c-0.67-0.54-1.36-1.16-1.55-1.99C736.62,1259.87,736.84,1259.15,737.09,1258.5z" class="st1"></path>
	</g>
	<path d="M786.01,1281.5c-4.21,0.94-8.8,8.46-9.27,11.33" class="st10"></path>
	<path d="M836.04,1320.84c-2.84,2.17-5.76,6-6.78,9" class="st10"></path>
	<path d="M837.77,1323.04c-2.91,1.77-5.29,5.8-6.47,8.42" class="st10"></path>
</g>
<g>
	<g>
		<path d="M1715.1,1398.19c2.89-1.68,3.25-4.26,1.05-6.16l3.05-1.75l3.61,2.11c2.2,1.9,1.84,4.48-1.05,6.16
			l-126.12,72.6c-2.71,1.55-6.79,1.82-9.96,0.81c1.19-0.23,2.33-0.61,3.27-1.17L1715.1,1398.19z" class="st11"></path>
	</g>
	<g>
		<path d="M1659.66,1350.65c3.29-1.88,8.58-1.88,11.83,0.02l52,30.32c3.27,1.9,3.23,4.97-0.04,6.85l-4.25,2.44
			l-3.05,1.75c2.2,1.9,1.84,4.48-1.05,6.16l-126.16,72.6c-0.96,0.54-2.08,0.94-3.27,1.17c-2.91,0.56-6.25,0.16-8.55-1.17
			l-169.29-98.67c-3.27-1.9-3.23-4.97,0.04-6.85l126.14-72.6c2.69-1.55,6.76-1.82,9.94-0.81c0.67,0.22,1.32,0.49,1.88,0.81
			l106.61,62.14l2.96-1.72L1659.66,1350.65z M1657.08,1396.38l-13.79-8.11c-1.37-0.8-4.16-0.49-6.25,0.7l-66.51,38.29
			c-2.08,1.19-2.64,2.82-1.26,3.63l13.37,7.79c1.39,0.81,4.17,0.49,6.25-0.7l66.51-38.29
			C1657.28,1398.61,1657.89,1397.23,1657.08,1396.38" class="st1"></path>
	</g>
	<g>
		<path d="M1543.99,1291.84c2.91-0.56,6.23-0.16,8.55,1.17l102.92,60.06l-2.96,1.72l-106.61-62.14
			C1545.29,1292.33,1544.66,1292.06,1543.99,1291.84z" class="st1"></path>
	</g>
	<g>
		<path d="M1570.53,1427.26l66.51-38.29c2.1-1.19,4.88-1.5,6.25-0.7l13.79,8.11c0.81,0.85,0.2,2.22-1.63,3.29
			l-66.55,38.31c-2.08,1.19-4.86,1.52-6.25,0.7l-13.37-7.79C1567.89,1430.08,1568.45,1428.46,1570.53,1427.26z" class="st1"></path>
	</g>
</g>
<g>
	<path d="M1468.86,1399.65c-5.33-18.03-24.84-22.62-37.87-12.68c0.27-4.07,0.54-8.13,0.81-12.2
		c0.16-2.42,0.31-4.88,0.14-7.3c-0.14-1.92-0.49-3.79-1.21-5.58c-1.92-4.77-6.23-8.17-10.73-10.66c-10.86-6.02-23.51-7.95-35.9-8.67
		c-13.14-0.76-26.56-0.22-38.99,4.05c-5.85,2.01-11.69,5.08-14.96,10.34c-3.43,5.51-3.43,12.43-3.34,18.94
		c0.42,25.87,0.83,51.75,1.25,77.62c0.18,10.82,18.23,15.77,26.65,18.21c11.74,3.38,24.07,3.98,36.25,2.93
		c9.02-0.78,18.09-2.8,25.93-7.32c3.16-1.82,6.2-4.14,7.88-7.39c1.5-2.93,1.75-6.32,1.97-9.61c0.13-1.84,0.25-3.69,0.36-5.53
		c5.55,1.61,10.68,2.84,17.26,0.94C1463.87,1440.11,1474.48,1418.63,1468.86,1399.65z M1444.54,1432.23
		c-5.53,2.58-10.91,0.85-16.01-1.73c0.67-10.05,0.61-16.23,1.3-26.27c6.32-6.65,16.46-10.53,22.93-2.75
		C1461.47,1411.99,1456.62,1426.58,1444.54,1432.23z" class="st1"></path>
	<path d="M1330.47,1357.37c-4.44,8.53,8.51,15.67,14.13,18.52c8.35,4.23,17.49,5.93,26.76,6.5
		c14.91,0.92,29.13,2.06,43.2-4.1c6.38-2.8,21.27-10.32,14.15-19.17" class="st1"></path>
	<path d="M1340.8,1373.85c1.41,0.81,2.73,1.52,3.78,2.04c8.35,4.23,17.49,5.93,26.76,6.5
		c14.91,0.92,29.13,2.06,43.2-4.1c0.83-0.36,1.79-0.8,2.84-1.32l-0.36-0.65c-3.32-2.08-10.66-4.28-15.61-5.57
		c-18.43-4.79-42.24-5.22-59.83,2.78L1340.8,1373.85z" class="st12"></path>
</g>
<path d="M627.2,1379.53c-1.08,1.95-2.4,25.66-4.17,26.98c-3.13,2.35-7.35,2.46-11.26,2.4
	c-23.16-0.36-46.27-3.49-68.7-9.27c4.34-39.9,12.45-79.94,30.32-115.87c13.66-27.48,101.18-120.37,88.07-47.39
	C651.03,1294.22,637.3,1361.26,627.2,1379.53z" class="st4"></path>
<path d="M1975.74,1216.2c-15.48-24.56-30.93-49.11-46.38-73.68c-22.55-35.88-55.15-70.38-61.31-113.92
	c-4.41-31.2-5.01-65.23-3.76-96.76c-23.6,6.92-77.88,26.13-101.42,33.23c0,0,15.12,84.36,7.1,252.31" class="st1"></path>
<path d="M1936.31,853.47c-4.28-42.99-38.76-74.71-86.82-81.89c-10.57-1.57-21.32-2.06-31.98-1.39
	c-33.21,2.08-64.96,17.4-79.09,48.97c-13.91,31.08-10.46,59.37-40.87,79.59c6.92,12.18,14.38,12.25,15.85,26.2
	c1.21,11.49-7.97,26.78-0.02,36.68c0.05,0.07-0.05-0.07,0,0c11.46,15.86,59.52,24.79,84.47,25.86
	c58.07,2.46,116.47-37.28,133.85-93.07C1936.2,880,1937.59,866.23,1936.31,853.47z" class="st2"></path>
<path d="M1738.62,850.96c23.42-7.66,39.37,17.67,39.37,17.67" class="st3"></path>
<path d="M1750.89,877.45c-1.88,4.05-5.46,6.38-7.99,5.2c-2.53-1.17-3.05-5.42-1.17-9.47c1.88-4.05,5.46-6.38,7.99-5.2
	C1752.25,869.16,1752.77,873.4,1750.89,877.45z"></path>
<path d="M1777.25,915.25c4.52-8.67,1.16-19.37-7.52-23.9c-8.67-4.54-19.37-1.16-23.9,7.52
	c-4.52,8.67-1.16,19.37,7.52,23.9C1762.04,927.28,1772.74,923.92,1777.25,915.25z" class="st6"></path>
<path d="M1738.62,930.48c-8.11-0.52-16.84-2.06-25.17-4.55c0.47,8.37-1.97,11.47-2.96,20.4
	C1711.01,946.38,1729.7,955.13,1738.62,930.48z" class="st1"></path>
<path d="M1870.54,968.82c28.49-16.57,51.37-42.93,61.16-74.42c4.48-14.4,5.87-28.17,4.61-40.93
	c-4.28-42.99-38.76-74.71-86.82-81.89c-10.57-1.57-21.32-2.06-31.98-1.39c-33.21,2.08-64.96,17.4-79.09,48.97
	c-13.91,31.08-10.46,59.37-40.87,79.59c6.92,12.18,14.38,12.25,15.85,26.2c1.21,11.49-7.97,26.78-0.02,36.68
	c0.05,0.07-0.05-0.07,0,0c9.36,12.96,43.11,21.28,68.77,24.48" class="st3"></path>
<path d="M1834.42,889.34c-3.45,6.52-22.75-3.56-28.48-9.43c0.58-12.25,1.23-23.87,1.41-36.28
	c-4.5,10.28-7.59,25.01-6.69,35.13c-5.28-3.49-25.91-13.8-28.4-19.59c-4.23-9.81,4.61-23.78,5.33-33.84
	c-6,9.05-10.34,17.94-16.23,27.21c1.46-11.8,4.05-25.68,9.63-37.6c-6.69,9.09-15.83,23.22-15.68,34.78
	c-5.71-1.37-27.54-9.96-27.54-9.96s3.16-15.9,4.88-21.57c6.74-22.41,27.08-39.53,49.35-46.98c20.98-7.01,51.22-7.55,73.77-2.71
	c35.5,7.64,53.93,25.87,73.18,56.92c11.2,18.05,15.54,54.19,9.07,74.19c-10.25,31.75-43.51,66.66-74.08,78.31
	c-19.59-24.74-30.41-71.97-30.41-87.51" class="st7"></path>
<g>
	<path d="M1826.96,932.89c16.57,1.34,37.02-15.5,35.97-33.39c-0.94-16.03-21.74-20.62-31.15-8.67" class="st1"></path>
	<path d="M1831.62,910.3c0.74-9.72,15.18-10.39,20.29-3.78" class="st3"></path>
	<path d="M1831.84,909.14c3.92-4.59,10.08,1.99,10.62,6.16" class="st3"></path>
</g>
<path d="M2187.38,1547.73c-25.39-48.13-43.94-95.85-73.76-151.14c-36.03-66.8-46.06-96.18-90.14-168.53
	c-72.56-119.09-111.47-145.67-149.54-199.7c-2.1-2.98-5.78-2.17-8.38,0.36c-31.11,30.3-97.06,45.88-97.06,45.88
	c-7.99,30.41-10.61,149.52-4.9,208.91c4.14,43.2,17.44,80.97,28.82,127.37c13.14,53.61,24.14,78.07,24.75,138.64" class="st4"></path>
<g>
	<g>
		<defs>
			<path d="M2187.38,1547.73c-25.39-48.13-43.94-95.85-73.76-151.14c-36.03-66.8-46.06-96.18-90.14-168.53
				c-72.56-119.09-111.47-145.67-149.54-199.7c-2.1-2.98-5.78-2.17-8.38,0.36c-31.11,30.3-97.06,45.88-97.06,45.88
				c-7.99,30.41-10.61,149.52-4.9,208.91c4.14,43.2,17.44,80.97,28.82,127.37c13.14,53.61,24.14,78.07,24.75,138.64" id="SVGID_2_"></path>
		</defs>
		<clipPath id="SVGID_4_">
			<use style="overflow:visible;" xlink:href="#SVGID_2_"></use>
		</clipPath>
		<g class="st13">
			<path d="M1834.59,1212.26c71.97-19.24,142.69-43.13,211.58-71.44" class="st14"></path>
			<path d="M1724.55,1291.37c113.6-27.75,224.72-65.63,331.63-113.02" class="st14"></path>
			<path d="M1732.68,1325.32c114.07-25.73,225.86-61.61,333.58-107.09" class="st14"></path>
			<path d="M1742.38,1366.77c135.86-32.31,268.79-76.88,396.64-133" class="st14"></path>
			<path d="M1762.87,1404.08c125.67-29.13,248.21-71.79,364.81-126.97" class="st14"></path>
			<path d="M1765.31,1482.77c139.47-30.84,275.24-78.29,403.56-141.04" class="st14"></path>
			<path d="M1758.81,1442.69c139.47-30.84,275.24-78.29,403.56-141.04" class="st14"></path>
			<path d="M1778.1,1518.09c130.22-27.43,257.3-69.73,377.98-125.81" class="st14"></path>
			<path d="M1792.34,1545.02c136.13-14.87,269.15-57.49,388.58-124.48" class="st14"></path>
		</g>
	</g>
	<g>
		<path d="M2187.38,1547.73c-25.39-48.13-43.94-95.85-73.76-151.14c-36.03-66.8-46.06-96.18-90.14-168.53
			c-72.56-119.09-111.47-145.67-149.54-199.7c-2.1-2.98-5.78-2.17-8.38,0.36c-31.11,30.3-97.06,45.88-97.06,45.88
			c-7.99,30.41-10.61,149.52-4.9,208.91c4.14,43.2,17.44,80.97,28.82,127.37c13.14,53.61,24.14,78.07,24.75,138.64" class="st3" id="SVGID_1_"></path>
	</g>
</g>
<g>
	<path d="M1361.69,906.27" class="st15"></path>
	<path d="M1297.24,841.31c-10.82-20.6-17.02-18.72-33.95-33.79c-3.09-2.75-7.84-8.38-9.88-3.02
		c-1.66,4.34,4.75,11.82,7.12,14.64c8.75,10.43,9.5,11.15,18.63,21.16c3.18,3.49,4.44,6.7,6.03,11.2c2.11,5.96,2.58,16.7,3.67,22.97
		c3.16,18.45,10.46,29.36,25.73,40.17c22.69,16.04,67.25,62.32,95.82,89.33l34.15-46.54c-53.79-34.13-89.01-60.4-96.78-76.59
		c-5.13-10.68-13.68-40.02-17.36-53.5c-4.17-15.27-11.49-19.35-19.89-26.71c-5.17-4.54-19.26-20.54-24.83-24.77
		c-7.43-5.66-23.8-18.9-26.6-18.09c-6.45,1.9,0.54,12.59,2.8,14.6" class="st1"></path>
	<path d="M1321.18,818.75c1.32,1.37,2.33,3.11,3.16,4.81" class="st3"></path>
	<path d="M1315.13,828.38c1.05,2.01,1.92,4.08,2.6,6.25" class="st3"></path>
	<path d="M1308.61,841.39c1.48,1.37,2.08,3.7,2.33,5.37" class="st3"></path>
	<path d="M1299.23,856.27c0,0,1.97,2.95,2.37,5.89" class="st3"></path>
	<path d="M1308.95,810.02c-12.74-11.06-14.08-15.16-28.13-24.9c-7.59-5.26-15.07-10.82-22.1-16.95
		c-3.9-3.4-12.16-12.02-13.97-2.67c-1.61,8.4,11.73,18.43,16.73,23.92" class="st1"></path>
	<path d="M1302.17,824.74c-9-15.03-13.37-19.12-27.95-27.66c-6.07-3.56-12.54-7.25-18.25-11.31
		c-5.2-3.72-15.68-11.69-12.85,0.98c2.4,10.75,14.74,20.45,22.73,27.21l24.18,30.1" class="st1"></path>
	<path d="M1297.24,841.31c-10.82-20.6-17.02-18.72-33.95-33.79c-3.09-2.75-7.84-8.38-9.88-3.02
		c-1.66,4.34,4.75,11.82,7.12,14.64c8.75,10.43,9.5,11.15,18.63,21.16c3.18,3.49,4.44,6.7,6.03,11.2c2.11,5.96,2.58,16.7,3.67,22.97" class="st1"></path>
</g>
<path d="M1818.81,1105.19c-23.33-21.68-212.43-72.29-231.98-79.39c-19.19-6.96-203.33-120.21-203.33-120.21
	c-15.48-0.76-39.7,25.44-43.47,39.5c15.68,36.19,158.16,163.27,185.82,178.88c23.6,13.32,209.34,112.1,253.43,146.03" class="st4"></path>
<path d="M1830.03,1110.19c9.99,49.85,1.57,123.14-24.41,164.53" class="st5"></path>
<path d="M1822.95,1234.85c23.44,108.94,59.5,213.05,96.63,318.12" class="st5"></path>
<g>
	<g>
		<defs>
			<path d="M1818.81,1105.19c-23.33-21.68-212.43-72.29-231.98-79.39c-19.19-6.96-203.33-120.21-203.33-120.21
				c-15.48-0.76-39.7,25.44-43.47,39.5c15.68,36.19,158.16,163.27,185.82,178.88c23.6,13.32,209.34,112.1,253.43,146.03" id="SVGID_5_"></path>
		</defs>
		<clipPath id="SVGID_6_">
			<use style="overflow:visible;" xlink:href="#SVGID_5_"></use>
		</clipPath>
		<g class="st16">
			<path d="M1743.52,1050.75c-23.22,69.87-49.58,138.7-78.96,206.18" class="st14"></path>
			<path d="M1712.55,1036.18c-23.2,61.34-48.62,121.84-76.21,181.32" class="st14"></path>
			<path d="M1673.16,1023.66c-24.18,57.1-49.36,113.78-75.53,170.01" class="st14"></path>
			<path d="M1636.06,1017.72c-29.47,55.74-58.94,111.5-88.41,167.24" class="st14"></path>
			<path d="M1608.22,994.79c-33.21,57.71-65.08,116.18-95.58,175.37" class="st14"></path>
			<path d="M1572.17,989.44c-34.22,40.18-66.66,81.89-97.16,124.96" class="st14"></path>
			<path d="M1538.2,969.94c-39.46,37.1-73.92,79.48-102.16,125.7" class="st14"></path>
			<path d="M1494.71,957.19c-33.17,28.84-63.75,60.66-91.23,94.97" class="st14"></path>
		</g>
	</g>
	<g>
		<path d="M1818.81,1105.19c-23.33-21.68-212.43-72.29-231.98-79.39
			c-19.19-6.96-203.33-120.21-203.33-120.21c-15.48-0.76-39.7,25.44-43.47,39.5c15.68,36.19,158.16,163.27,185.82,178.88
			c23.6,13.32,209.34,112.1,253.43,146.03" class="st3" id="SVGID_3_"></path>
	</g>
</g>
<path d="M1579.37,1041.8c-3.02,8.44-6.02,16.86-9.03,25.3" class="st5"></path>
<path d="M1593.82,1041.8c0,19.88,0,39.75,0,59.63" class="st5"></path>
<path d="M404.67,1201.21c18.05-22.73,36.1-45.46,54.12-68.21c26.31-33.21,62.46-63.96,73.32-106.59
	c7.77-30.54,12.07-64.31,14.26-95.78c22.71,9.45,74.57,34.44,97.21,44.05c0,0-24.21,82.21-34.49,250.05" class="st1"></path>
<path d="M126.64,1549.53c30.48-45.08,85.68-132.28,121.33-184.01c43.08-62.48,56.25-90.6,107.92-157.72
	c85.09-110.49,126.64-132.7,170.37-182.26c2.4-2.73,5.98-1.54,8.29,1.26c27.65,33.5,91.5,56.16,91.5,56.16
	c4.64,31.1-5.71,149.79-17.83,208.21c-8.82,42.5-26.15,78.58-42.5,123.48c-18.88,51.86-32.47,74.98-39.68,135.12" class="st1"></path>
<g>
	<path d="M1119.88,902.3c12.99-19.3,18.95-16.75,37.42-29.89c3.38-2.4,8.69-7.48,10.15-1.92
		c1.17,4.48-6,11.22-8.67,13.79c-9.83,9.41-10.66,10.05-20.82,19.01c-3.54,3.13-5.15,6.18-7.23,10.48
		c-2.75,5.69-4.39,16.32-6.14,22.42c-5.15,18-13.59,28.06-29.94,37.13c-24.3,13.5-73.63,54.64-104.96,78.38l-28.89-50
		c57.17-28.1,95.06-50.36,104.53-65.63c6.25-10.06,17.94-38.29,23.07-51.3c5.8-14.71,13.53-17.98,22.68-24.39
		c5.64-3.96,21.38-18.32,27.37-21.94c8-4.81,25.71-16.21,28.4-15.09c6.22,2.58-1.9,12.45-4.37,14.22" class="st1"></path>
	<path d="M1098.52,877.25c-1.46,1.21-2.66,2.84-3.67,4.44" class="st3"></path>
	<path d="M1103.51,887.48c-1.26,1.88-2.35,3.87-3.27,5.93" class="st3"></path>
	<path d="M1108.57,901.12c-1.63,1.19-2.48,3.45-2.89,5.1" class="st3"></path>
	<path d="M1116.28,916.95c0,0-2.28,2.71-2.98,5.6" class="st3"></path>
	<path d="M1111.64,869.9c13.88-9.59,15.63-13.53,30.68-21.7c8.11-4.39,16.15-9.12,23.81-14.45
		c4.25-2.95,13.41-10.62,14.17-1.14c0.69,8.51-13.66,17.04-19.24,21.95" class="st1"></path>
	<path d="M1116.77,885.27c10.59-13.97,15.38-17.54,30.79-24.47c6.41-2.87,13.26-5.84,19.37-9.27
		c5.58-3.13,16.86-9.9,12.67,2.37c-3.56,10.43-16.88,18.74-25.55,24.57l-27.32,27.3" class="st1"></path>
	<path d="M1119.88,902.3c12.99-19.3,18.95-16.75,37.42-29.89c3.38-2.4,8.69-7.48,10.15-1.92
		c1.17,4.48-6,11.22-8.67,13.79c-9.83,9.41-10.66,10.05-20.82,19.01c-3.54,3.13-5.15,6.18-7.23,10.48
		c-2.75,5.69-4.39,16.32-6.14,22.42" class="st1"></path>
</g>
<path d="M572.72,1107.9c25.55-19.03,219.03-48.79,239.25-53.7c19.84-4.82,215.2-97.39,215.2-97.39
	c15.47,0.94,36.7,29.6,38.94,44c-19.51,34.28-174.98,145.11-204.16,157.61c-24.9,10.66-220.29,88.68-267.81,117.63" class="st1"></path>
<path d="M561.01,1111.68c-15.34,48.46-14.94,122.23,6.38,166.21" class="st5"></path>
<path d="M554.51,1236.35c-35.14,105.74-82.32,205.33-130.64,305.72" class="st5"></path>
<path d="M817.64,1070.93c2.08,8.71,4.16,17.42,6.23,26.13" class="st5"></path>
<path d="M803.26,1069.36c-2.17,19.75-4.32,39.52-6.49,59.27" class="st5"></path>
<path d="M364.73,1030.38c-8.08,2.57-14.96,8.82-20.49,16.1c-9.87,12.96-15.92,29.13-21.75,45.01
	c-5.84,15.9-11.74,32.09-21.41,45.24c-9.67,13.15-23.87,23.06-38.79,22.04" class="st3"></path>
<path d="M374.67,1156.41c-0.23-15.61,5.29-31.24,15.27-43.24c3.23-3.88,6.92-7.41,11.17-10.17
	c11.31-7.39,26.83-9.88,33.55-21.61" class="st3"></path>
<path d="M613.4,1093.05c-41.61,14.11-45.97,32.47-76.09,79.47c-31.73,49.49-61.51,133.38-81.63,187.7
	c-20.94,56.55-37.08,35.94-49.13,84.92c-63.19-21.21-125.2-37.26-182.96-73.25c0,0,13.39-28.89,20.24-43.55
	c9.88-21.18-2.91-27.41,17.91-64.76c29.04-52.11,107.76-163.14,157.07-197.82c26.58-18.7,75.78-63.04,108.52-67.5
	c13.97-1.9,14.06,24.21,111.3,61.79c11.24,4.34,12.79,18,16.86,23.87C655.48,1083.98,632.84,1088.62,613.4,1093.05z" class="st4"></path>
<path d="M616.72,1090.16c-11.46,5.26-23.38,8.11-35.34,13.71c-29.89,14.02-54.1,39.1-76.23,63.44" class="st3"></path>
<path d="M621.51,1090.73c-28.86-11.31-51.91,1.97-79.32,13.19" class="st3"></path>
<path d="M386.78,1436.64c1.95-5.82,3.88-11.65,5.84-17.47" class="st3"></path>
<path d="M370.39,1430.95c1.45-5.08,2.89-10.15,4.34-15.23" class="st3"></path>
<line y2="1407.75" x2="354.65" y1="1424.68" x1="349.34" class="st3"></line>
<path d="M335.17,1419.24c1.57-5.46,3.16-10.91,4.73-16.37" class="st3"></path>
<path d="M316.58,1414.54c1.75-5.06,3.51-10.12,5.28-15.18" class="st3"></path>
<path d="M300.32,1408.89c2.51-4.75,4.37-9.85,5.51-15.09" class="st3"></path>
<line y2="1387.13" x2="291.95" y1="1402.18" x1="285.43" class="st3"></line>
<path d="M270.51,1394.22c1.64-3.43,5.82-12.11,7.46-15.54" class="st3"></path>
<line y2="1370.4" x2="262.47" y1="1388.58" x1="253.83" class="st3"></line>
<line y2="1361.26" x2="246.22" y1="1379.53" x1="238.71" class="st3"></line>
<path d="M387.23,1141.18c-9.65,56.41-25.24,135.15-11.46,201.9" class="st5"></path>
<path d="M483.28,844.91c8.94-42.26,46.64-70.07,95.2-71.97c10.68-0.42,21.41,0.27,31.95,2.1
	c32.79,5.67,62.68,24.36,73.3,57.26c10.44,32.4,3.94,60.17,31.98,83.55c-8.2,11.37-15.63,10.62-18.61,24.32
	c-2.44,11.29,5.01,27.48-3.98,36.46c-0.07,0.07,0.05-0.07,0,0c-13.12,14.53-61.87,18.18-86.78,16.51
	c-58-3.87-111.72-49.71-122.94-107.08C480.5,871.29,480.63,857.45,483.28,844.91z" class="st2"></path>
<path d="M680.07,863.9c-22.44-10.15-41.05,13.28-41.05,13.28" class="st3"></path>
<path d="M664.98,888.91c1.43,4.23,4.73,6.94,7.37,6.05c2.64-0.89,3.63-5.04,2.2-9.29s-4.73-6.94-7.37-6.05
	C664.55,880.5,663.55,884.66,664.98,888.91z"></path>
<path d="M634.68,923.6c-3.56-9.12,0.96-19.39,10.08-22.95c9.12-3.56,19.39,0.96,22.95,10.08
	c3.56,9.12-0.96,19.39-10.08,22.95S638.22,932.72,634.68,923.6z" class="st6"></path>
<path d="M671.43,942.95c8.13,0.36,16.97-0.22,25.51-1.79c-1.37,8.26,0.7,11.62,0.74,20.6
	C697.13,961.76,677.61,968.41,671.43,942.95z" class="st1"></path>
<path d="M536.12,966.71c-26.52-19.57-46.38-48.26-52.72-80.62c-2.89-14.8-2.78-28.64-0.13-41.18
	c8.94-42.26,46.64-70.07,95.2-71.97c10.68-0.42,21.41,0.27,31.95,2.1c32.79,5.67,62.68,24.36,73.3,57.26
	c10.44,32.4,3.94,60.17,31.98,83.55c-8.2,11.37-15.63,10.62-18.61,24.32c-2.44,11.29,5.01,27.48-3.98,36.46
	c-0.07,0.07,0.05-0.07,0,0c-10.71,11.87-45.17,16.48-71.03,16.86" class="st3"></path>
<path d="M481.13,1109.27c11.76-10.19,25.39-18.27,41.27-26.45c14.76-7.61,28.01-18.56,37.11-32.45
	c17.98-27.41,18.16-62.59,15.32-95.24c-1.7-19.44-5.4-43.55,3.54-60.87c5.6-10.86,16.44-15.72,25.68-23.72
	c10.7-9.27,21.39-18.54,32.09-27.81c9.02-7.81,18.34-16.03,22.91-27.05c4.59-11.02,2.8-25.66-7.19-32.16
	c-24.9-16.23-54.98-22.15-84.51-18.7s-58.16,18.32-75.42,42.52c-15.12,21.21-22.51,48.04-22.24,74.1
	c0.23,22.48-1.64,47.56-6.49,69.51c-6.85,31.01-21.95,49.04-54.42,50.36c-16.97,0.69-41.61,6.85-57.19,13.59
	c-15.58,6.74-29.13,21-29.87,37.94c3.74-12.12,13.44-20.62,25.62-24.23c12.16-3.61,25.13-3.02,37.8-2.04
	c-16.39-2.01-31.22,8.82-41.12,22.03c-13.97,18.61-16.37,40.82-21.92,62.54c-5.91,23.04-18.99,46.83-38.7,60.75
	c-12.07,8.51-27.55,13.93-41.68,9.63c2.08,3.04,3.36,4.59,6.13,6.99c6.5,5.69,14.53,9.34,22.55,12.56
	c11.08,4.44,22.41,8.26,33.9,11.42c16.48,4.52,33.99,7.68,50.56,3.51c21.81-5.49,43.85-14.65,55.13-35.38
	c11.2-20.58,11.38-45.33,31.8-60.35c-11.35,18.41-15.88,30.07-12.58,51.44c2.55,16.44,10.55,33.12,25.15,41.05
	c-25.96-14.11-11.17-50.1-0.56-69.37C461.58,1129.22,470.6,1118.4,481.13,1109.27z" class="st7"></path>
<path d="M578.09,917.89c10.08,42.61,19.66,89.17-2.22,128.02c-8.4,14.92-21.23,27.83-36.79,36.97
	c-13.28,7.82-35.61,13.57-49.82,19.93" class="st3"></path>
<path d="M571.37,884.88c6.67-6.11,13.33-12.21,20.02-18.32c16.19-14.82,33.48-31.78,35.31-53.65" class="st3"></path>
<path d="M561.52,884.79c11.04-15.54,20.26-32.38,27.36-50.07" class="st3"></path>
<path d="M562.66,912.99c1.23,38.83,1.07,81.62-24.1,111.19c-19.71,23.16-52.76,35.31-64.23,63.48" class="st3"></path>
<path d="M556.66,911.71c0.11,13.88,0.22,27.9-2.58,41.49c-6.02,29.16-26.02,55.13-52.69,68.37" class="st3"></path>
<g>
	<path d="M583.35,935.74c-16.61-0.47-35.13-19.44-32.13-37.11c2.67-15.83,23.85-18.14,31.91-5.24" class="st1"></path>
	<path d="M581.18,912.79c0.33-9.76-13.95-11.98-19.77-5.96" class="st3"></path>
	<path d="M581.07,911.6c-3.4-4.99-10.23,0.89-11.24,4.99" class="st3"></path>
</g>
<line y2="1389.99" x2="614.08" y1="1408.62" x1="611.14" class="st3"></line>
<path d="M595.85,1408.6c0.63-5.42,3.07-12.65,3.72-18.05" class="st3"></path>
<path d="M580.13,1405.58c1.36-6.03,2.71-12.07,4.07-18.1" class="st3"></path>
</svg>
