<svg xml:space="preserve" style="enable-background:new 0 0 2291.49 1554.76;" viewBox="0 0 2291.49 1554.76" y="0px" x="0px" xmlns:xlink="http://www.w3.org/1999/xlink" xmlns="http://www.w3.org/2000/svg" id="레이어_1" version="1.1">
<style type="text/css">
	.st0{fill:none;}
	.st1{fill:#A1C9DB;}
	.st2{fill:#FFFFFF;stroke:#000000;stroke-linecap:round;stroke-linejoin:round;stroke-miterlimit:10;}
	.st3{fill:none;stroke:#000000;stroke-linecap:round;stroke-linejoin:round;stroke-miterlimit:10;}
	.st4{fill:#22245D;stroke:#000000;stroke-linecap:round;stroke-linejoin:round;stroke-miterlimit:10;}
	.st5{fill:none;stroke:#FFFFFF;stroke-linecap:round;stroke-linejoin:round;stroke-miterlimit:10;}
	.st6{fill:#FFCE61;stroke:#000000;stroke-linecap:round;stroke-linejoin:round;stroke-miterlimit:10;}
	.st7{fill:none;stroke:#000000;stroke-width:0.5;stroke-linecap:round;stroke-linejoin:round;stroke-miterlimit:10;}
	.st8{fill:#EDAEAE;}
	.st9{fill:#EF525C;stroke:#000000;stroke-linecap:round;stroke-linejoin:round;stroke-miterlimit:10;}
	.st10{fill:url(#SVGID_4_);stroke:#000000;stroke-linecap:round;stroke-linejoin:round;stroke-miterlimit:10;}
	.st11{fill:url(#SVGID_7_);stroke:#000000;stroke-linecap:round;stroke-linejoin:round;stroke-miterlimit:10;}
	.st12{fill:#FFFFFF;stroke:#000000;stroke-width:0.5;stroke-linecap:round;stroke-linejoin:round;stroke-miterlimit:10;}
	.st13{clip-path:url(#SVGID_9_);}
	.st14{fill:none;stroke:#FFFFFF;stroke-width:4;stroke-miterlimit:10;}
	.st15{fill:#FFFFFF;stroke:#000000;stroke-width:0.75;stroke-linecap:round;stroke-linejoin:round;stroke-miterlimit:10;}
	.st16{fill:#EF525C;stroke:#000000;stroke-width:1.5;stroke-linecap:round;stroke-linejoin:round;stroke-miterlimit:10;}
	.st17{fill:#FFFFFF;stroke:#000000;stroke-width:1.5;stroke-linecap:round;stroke-linejoin:round;stroke-miterlimit:10;}
	.st18{fill:none;stroke:#000000;stroke-width:1.5;stroke-linecap:round;stroke-linejoin:round;stroke-miterlimit:10;}
	.st19{fill:#FFCE61;stroke:#000000;stroke-width:1.5;stroke-linecap:round;stroke-linejoin:round;stroke-miterlimit:10;}
	.st20{fill:url(#SVGID_10_);stroke:#000000;stroke-width:1.5;stroke-linecap:round;stroke-linejoin:round;stroke-miterlimit:10;}
	.st21{fill:#EF525C;}
	.st22{fill:#22245D;stroke:#000000;stroke-width:1.5;stroke-linecap:round;stroke-linejoin:round;stroke-miterlimit:10;}
	.st23{fill:#22245D;stroke:#000000;stroke-width:0.75;stroke-linecap:round;stroke-linejoin:round;stroke-miterlimit:10;}
	.st24{fill:none;stroke:#000000;stroke-width:0.75;stroke-linecap:round;stroke-linejoin:round;stroke-miterlimit:10;}
	.st25{fill:none;stroke:#FFFFFF;stroke-width:0.75;stroke-linecap:round;stroke-linejoin:round;stroke-miterlimit:10;}
	.st26{fill:#EF525C;stroke:#000000;stroke-width:0.75;stroke-linecap:round;stroke-linejoin:round;stroke-miterlimit:10;}
	.st27{fill:none;stroke:#000000;stroke-width:0.25;stroke-linecap:round;stroke-linejoin:round;stroke-miterlimit:10;}
	.st28{fill:url(#SVGID_11_);stroke:#000000;stroke-linecap:round;stroke-linejoin:round;stroke-miterlimit:10;}
	.st29{fill:#FFCE61;stroke:#000000;stroke-width:0.75;stroke-linecap:round;stroke-linejoin:round;stroke-miterlimit:10;}
</style>
<pattern style="overflow:visible;" viewBox="0 -850.39 1275.59 850.39" id="SVGID_1_" patternUnits="userSpaceOnUse" height="850.39" width="1275.59" y="1187.75" x="503.65">
	<g>
		<rect height="850.39" width="1275.59" class="st0" y="-850.39"></rect>
	</g>
</pattern>
<pattern style="overflow:visible;" viewBox="0 -850.39 1275.59 850.39" id="SVGID_2_" patternUnits="userSpaceOnUse" height="850.39" width="1275.59" y="1187.75" x="503.65">
	<g>
		<rect height="850.39" width="1275.59" class="st0" y="-850.39"></rect>
	</g>
</pattern>
<pattern style="overflow:visible;" viewBox="0 -850.39 1275.59 850.39" id="SVGID_5_" patternUnits="userSpaceOnUse" height="850.39" width="1275.59" y="1187.75" x="503.65">
	<g>
		<rect height="850.39" width="1275.59" class="st0" y="-850.39"></rect>
	</g>
</pattern>
<pattern style="overflow:visible;" viewBox="0 -850.39 1275.59 850.39" id="SVGID_6_" patternUnits="userSpaceOnUse" height="850.39" width="1275.59" y="1187.75" x="503.65">
	<g>
		<rect height="850.39" width="1275.59" class="st0" y="-850.39"></rect>
	</g>
</pattern>
<rect height="1502.94" width="2304.5" class="st1" x="-13.01"></rect>
<path d="M1658.1,1360.1c-18.43-19.55,14.46-50,23.06-27.13c-10.32-34.68,34.29-63.39,35.26-26.4
	c0.58-12.6,14.33-63.93,33.6-42.79c7.74,8.48,5.04,39.82,1.63,49.72c17.51-36.62,42.65,13.77,37.24,34.25
	c-4.79,18.17-1.75,41.29-19.44,56.56" class="st2"></path>
<path d="M1774.92,1386.95c-15.04-48.04,30.2-95.44,77.39-57.83c-79.41-84.74,75.8-198.07,133.1-105.05
	c19.26-69.23,141.37-40.56,107.01,36.23c76.77-39.98,144.36,57.12,95.17,125.59c-62.9,87.55-152.81,137.08-252.55,142.52
	c-29.62,1.61-60.81-3.25-89.29-11.08C1783.63,1500.22,1790.65,1467.15,1774.92,1386.95z" class="st2"></path>
<path d="M650.28,1116.33c49.57-10.43,17-105.14-33.77-104.79c49.17-34.69,7.99-129.32-53.09-95.86
	c60.67-52.03-10.99-148.1-77.52-92.7c41.92-84.28-81.05-123.91-110.02-38.81c-25.45-71.4-120.13-48.09-113.82,33.67v319.45
	L650.28,1116.33z" class="st2"></path>
<path d="M597.86,1114.77c30.47-71.01,157.29-25.98,134.32,60.09c0,0,25.5-59.26,70.61-67.05
	c21.35-3.69,41.44,0.35,60.18,10.5c44.59,24.14,35.06,69.53,30.36,114.35c40.53-36.25,136.37,0,116.96,66.43
	c56.1-67.78,142.77-44.24,135.36,21.6c-1.5-52.07,69.55-52.28,84.13-9.86c-1.96-4.75,0.55-41.8,27.31-63.94
	c21.31-17.64,42.03-23.52,68.93-22.53c36.51,1.34,113.41,41.37,105.88,85.49v226.89H562.52L597.86,1114.77z" class="st2"></path>
<path d="M2290.99,1284.44c-45.58-56.31-112.3-5.96-110.28,51.87c-40.45-71.29-115.04-9.99-99.41,52.93
	c-38.69-15.55-68.45-26.72-98.8,11.06c-27.34,34.04-28.26,84.32,8.04,113.91h296.95L2290.99,1284.44z" class="st2"></path>
<path d="M406.99,1001.66c37.7-55.18-32.87-147.2-109.4-106.31c28.6-48.67-33.72-114.17-77.5-65.39
	c23.12-55.6,14.83-115.83-31.09-162.77C146.02,623.22,25.26,600.1,0.5,676.47v844.79h2049.46c6.04-93.76-137.85-150.12-207.88-70.69
	c-12.14-57.69-39.73-91.96-102.51-103.37c-57.24-10.41-120.66,8.04-144.92,64.49c5.14-43.41-34.6-48.5-56.56-24.74
	c8.7-85.13-126.28-115.13-134.21-23.24c-19.64-70.04-153.07-45.58-120.29,30.31c-31.67-31.94-107.4,0.04-81.92,51.47" class="st2"></path>
<path d="M78.26,1157.19c35.35-61.34,148.32-4.33,106.04,77.76" class="st3"></path>
<path d="M141.89,1319.79c50.49-39.66,104.27,23.47,63.62,60.09" class="st3"></path>
<path d="M2128.64,1477.58c-44.34-34.13,13.73-88.93,48.96-37.95c-19.72-63.11,79.81-103.9,87.77-41.76" class="st3"></path>
<path d="M292.11,1061.95c0-102.36,155.16-105.05,150.05,1.4c35.52-81.3,142.73-22.06,113.91,49.4
	c36.73-48.39,103.07,10.27,80.68,51.52" class="st2"></path>
<path d="M872.46,1280.13c-5.5-39.36,52.51-57.01,50.83-10.39c1.4-22.07,15.66-58.76,36.53-75.59
	c8.82-7.1,22.34-2.99,25.34,7.95c2.76,10.07,0.85,22.3-1.91,31.55c9.19-14.58,50.07-103.25,65-55.67
	c8.13,25.93-16.74,58.62-23.68,82.11c7.25-9.08,17.02-7.39,23.49,2.16c9.37,13.84-0.62,37.04-15.78,49.2" class="st2"></path>
<path d="M60.17,822.97c-4.42-31.55,42.1-45.7,40.76-8.34c1.11-17.71,12.55-47.12,29.28-60.6
	c7.07-5.69,17.92-2.39,20.32,6.36c2.21,8.08,0.67,17.89-1.54,25.29c7.37-11.7,40.14-82.78,52.12-44.64
	c6.52,20.78-13.41,47.01-19,65.83c5.81-7.28,13.64-5.92,18.82,1.73c7.51,11.08-0.49,29.71-12.65,39.45" class="st2"></path>
<path d="M1052.27,1066.93c-9.99,9.4-12.37,14.05-19.46,20.82c-13.59,12.95-23.66,21.63-39.82,25.68
	c-17.57,4.4-44.64,7.39-30.03-18.7c15.09-26.95,27.55-27.25,51.77-43.65c5.96-4.05,11.47-13.71,17.48-17.39
	c6.34-3.87,17.92,7.62,17.92,7.62S1065.42,1054.54,1052.27,1066.93z" class="st4"></path>
<path d="M973.92,1080.24c4.38,0.53,8.59,6.24,11.24,9.26c2.83,3.22,5.43,6.63,7.28,10.41c1.13,2.3,3.59,8.5,2.01,11.33
	c-1.47,2.63-8.89,3.32-11.77,3.52c-4.45,0.3-9.38-0.35-13.2-2.28C955.59,1105.46,963.6,1091.25,973.92,1080.24z" class="st2"></path>
<path d="M1050.18,993.91c-6.52,43.95-0.87,49.86-5.87,56.08c-4.35,5.43-15.13,14.02-22.04,15.61
	c-5.37,1.24-14.46-5.21-12.85-11.13c0.58-2.1,1.96-3.87,3.23-5.66c14.03-19.53,7.95-46.66,5.09-94.59" class="st2"></path>
<g>
	<g>
		<path d="M1050.11,1041.29c5,5.58,8.47,12.42,2.69,20.29c-5.36,7.3-11.19,9.63-18.2,15.11
			c-4.81,3.76-9.03,8.5-13.61,12.51c-4.7,4.14-9.01,7.9-14.23,10.87c-4.47,2.53-9.9,5.9-15.02,6.79
			c-12.62,2.17-36.94,4.35-27.36-13.57c3.18-5.96,8.71-15.08,15.43-20.09c-5.76,4.9-11.12,11.28-16.86,21.53
			c-14.62,26.09,12.46,23.12,30.03,18.7c16.15-4.05,26.23-12.72,39.82-25.68c7.09-6.75,17.41-9.97,23.61-19.74
			C1064.41,1055.39,1051.7,1041.78,1050.11,1041.29z" class="st2"></path>
	</g>
</g>
<path d="M1024.06,1064.9c-6.7,1.24-13.33,9.15-18.65,12.81c-4.97,3.41-15.73,10.73-14.44,18.13" class="st3"></path>
<path d="M1005.68,1056.03c1.2-2.23,4.77-6.68,6.88-8.31c2.54-1.98,4.9-1.1,7.44,0.81c2.46,1.86,4.67,4.72,5.9,7.56
	c2.37,5.44-1.25,7.42-6.01,10.94l-19.02,13.94" class="st4"></path>
<path d="M993.11,1061.95c3.43,7.14,7.19,14.1,10.59,20.94" class="st5"></path>
<path d="M989.19,1065.08c5.62,4.29,14.69,11.33,21.12,12.74" class="st5"></path>
<path d="M985.67,1069.19c3.36,6.45,5.99,13.79,10.43,19.58" class="st5"></path>
<path d="M980.66,1073.37c6.01,3.5,13.11,8.73,19.79,11.24" class="st5"></path>
<path d="M1001.95,1054.65c3.36,6.45,5.99,13.79,10.43,19.58" class="st5"></path>
<path d="M996.93,1058.82c6.01,3.5,13.11,8.73,19.79,11.24" class="st5"></path>
<path d="M1075.53,872.77c0,0-1.96,36.67-5.58,54.26c-2.46,11.93-11.47,38.63-17.59,72.34
	c-12.65,1.34-24.64-3.41-36.5-9.24c0,0-4.6-72.48,2.86-132.48c1.96-15.8,5.96-30.68,18.63-42.77c16.17-15.45,39.92-6.47,51.5,7.23
	c14.9,17.64,48.88,56.63,48.88,56.63c12.69,21.24,11.47,59.14,19.37,81.95c-2.67,12.83-2.83,43.74-7.19,53.52
	c-2.9-2.05-14.56-11.68-30.95-33.31c-15.25-20.15-47.68-61.7-47.68-61.7" class="st6"></path>
<path d="M1075.35,881.04c0,0-5.78,28.51-10.6,45.81c-4.4,15.75-8.98,37.06-15.09,70.78" class="st7"></path>
<path d="M1151.12,986.57c-2.85-1.94-14.37-11.03-30.75-31.23c-15.23-18.8-47.59-52.79-47.59-52.79" class="st7"></path>
<path d="M1311.87,691.21c0,0-12.9-8.66-18.29-11.89c-5.39-3.25-10.53-7.74-12.37-14.09c-0.95-3.29-0.95-6.84-0.62-10.32
	c0.42-4.24,1.34-8.47,2.76-12.51l-32.86-11.7c-1.47,4.03-3.41,7.88-5.78,11.43c-1.93,2.92-4.19,5.67-7,7.62
	c-5.44,3.75-12.25,3.99-18.49,3.09c-6.24-0.9-21.7-2.33-21.7-2.33l-16.49,46.34l114.33,40.7L1311.87,691.21z" class="st2"></path>
<path d="M1317.41,597.42c0.62-5.81-0.25-11.63-2.24-17.04c-3.3-8.89-9.7-16.67-17.73-21.46l-5.74-2.05
	c-9.26-1.36-19.12,0.64-27.29,5.44c-4.97,2.92-9.31,6.89-12.51,11.79c-6.15,9.42-7.86,20.89-9.44,31.94
	c-1.56,11.01-2.6,22.23,3.32,31.37c3.55,5.48,7.78,10.04,15.02,12.62l1.73,0.62c8.09,2.88,13.4,1.71,19.62-0.28
	c10.36-3.34,16.65-12.69,22.41-22.22C1310.3,618.57,1316.22,608.6,1317.41,597.42z" class="st2"></path>
<path d="M1255.96,619.79c3.02-2.81,3.2-7.55,0.39-10.59c-2.81-3.02-7.55-3.2-10.59-0.39c-3.02,2.81-3.2,7.55-0.39,10.59
	C1248.2,622.43,1252.93,622.6,1255.96,619.79z" class="st8"></path>
<path d="M1285.61,630.34c-0.57-4.1,2.28-7.88,6.38-8.45c4.1-0.57,7.88,2.28,8.45,6.38s-2.28,7.88-6.38,8.45
	C1289.96,637.29,1286.18,634.43,1285.61,630.34z" class="st8"></path>
<path d="M1286.5,602.05c11.43-0.9,17.25,7.86,17.25,7.86" class="st3"></path>
<path d="M1272.87,597.19c-8.29-7.94-18.33-4.81-18.33-4.81" class="st3"></path>
<path d="M1292.43,614.56c-0.74,1.96-2.33,3.18-3.57,2.7c-1.22-0.46-1.61-2.44-0.87-4.4c0.74-1.96,2.33-3.18,3.57-2.7
	C1292.79,610.64,1293.19,612.6,1292.43,614.56z"></path>
<path d="M1261.06,603.39c-0.65,2-0.19,3.94,1.06,4.35c1.24,0.41,2.79-0.87,3.45-2.86s0.19-3.94-1.06-4.35
	C1263.27,600.12,1261.72,601.41,1261.06,603.39z"></path>
<path d="M1277.99,602.53c0.35,4.38-2.85,9.23-4.65,13.06c-1.1,2.33-3.13,4.97-0.99,7.35" class="st3"></path>
<path d="M1267.74,640.95c5.81,0.3,10.2-6.19,12.85-10.32c-6.86-0.62-14.63-2.74-20.45-6.4c0,0-0.58,6.77,0.3,10.22
	C1261.29,637.77,1263.94,640.75,1267.74,640.95z" class="st2"></path>
<path d="M1286.78,579.55c2.23-2.19,8.27-1.84,9.69,0.94c1.41,2.77,0.97,6.1,0.51,9.19c-1.18,7.71-2.37,16.52,2.12,23.61
	c2.81,4.44,14.51,11.24,20.01,8.73c-1.64-5.25-1.47-11.49,0.16-16.75c5.36-17.25,1.71-30.58-3.73-37.38
	c-5.18-6.47-11.31-11.43-19.97-12.48l-0.11-0.04c-7.37-4.67-15.25-4.68-23.36-2.93c-8.52,1.84-19.78,9.88-26.51,26.62
	c-2.05,5.11-5.87,10.06-10.46,13.08c7.18,3.18,20.06,8.7,27.46,3.89c4.65-3,7.39-10.32,10.13-14.99c1.57-2.69,3.34-5.55,6.2-6.8
	C1281.74,572.98,1286.44,576.44,1286.78,579.55z" class="st9"></path>
<path d="M1292.96,565.04c5.71-3.53,14.58,1.29,15.61,6.93" class="st7"></path>
<path d="M1316.61,590.6c-1.22,4.44-1.18,9.14-0.64,13.71c0.34,2.86,0.9,5.78,2.35,8.27c1.45,2.49,3.96,4.52,6.84,4.74" class="st7"></path>
<path d="M1288.88,567.57c-0.72-4.54-6.08-7.21-10.59-6.36c-4.51,0.85-8.13,4.28-10.76,8.04
	c-2.65,3.75-4.61,7.97-7.46,11.58c-3.41,4.31-8.06,7.64-13.24,9.47" class="st7"></path>
<path d="M1257.39,570.01c-3.3,4.22-6.72,8.55-10.99,11.86c-2.17,1.66-10.11,7-12.83,0.27" class="st7"></path>
<path d="M1102.99,1258.62c-11.79,33.1-18.43,56.22-19,59.97c-3.16,20.71-5.74,40.51-20.45,56.56
	c-3.57,3.89-6.89,7.71-10.52,11.35c-5.37,5.37-10.66,8.34-18.24,10.98l-8.01-6.75c-2.21-18.01-1.33-26.9,6.96-43.53
	c15.39-30.84,32.5-43.51,46.07-96.82" class="st2"></path>
<path d="M1021.64,1380.87c3.06-8.61,7.9-15.41,11.95-23.28c4.08-7.97,7.65-15.36,11.08-23.77
	c3.13-7.69,4.98-16.98,13.59-14.95c2.92,0.69,10.07,3.13,12.35,5.27c4.54,4.28-2.32,17.64-3.78,21.77
	c-3.53,9.95-8.04,19.65-10.34,29.97c-1.15,5.21,0.09,11.86-3.13,16.24c-5.46,7.44-13.84,5.71-21.01,4.1
	C1024.38,1394.46,1021.32,1388.61,1021.64,1380.87z" class="st4"></path>
<path d="M1150.23,974.18c-11.93,48.83-27.34,111.25-40.68,159.72c-13.71,49.77-37.31,122.3-37.31,122.3l38.17,13.59
	c11.89-29.02,47.65-110.04,47.65-110.04c7-20.17,28.7-59.22,38.28-78.31c27.41-54.58,53.87-104.47,67.83-164.4l-126.44-38.33" class="st6"></path>
<path d="M1024.54,1375.6c8.82-2.44,8.84-1.57,11.65-9.56c3.59-10.2,6.75-19.02,11.45-30.4
	c3.52-8.52,5.25-25.82,5.25-25.82c-11.89,26.92-35.22,54.96-33.72,86.03c1.45,30.06,22.96,13.08,35.61-0.05
	c17.69-18.38,23.36-37.26,29.16-77.09c-5,5.62-13.13,9.17-17.59,14.93c-3.45,4.45-4.86,11.91-6.75,17.23
	c-2.35,6.61-5.23,12.74-7.81,19.16c-3,7.46-1.34,11.66,1.52,19.72" class="st4"></path>
<path d="M1020.81,1377.65c4.03-1.89,10.66,0.74,14.53,1.91c4.12,1.24,8.17,2.77,11.77,5c2.19,1.36,7.6,5.34,7.78,8.59
	c0.16,3.02-5.81,7.58-8.18,9.28c-3.64,2.63-8.2,4.7-12.48,5.11C1018.62,1408.97,1017.86,1392.57,1020.81,1377.65z" class="st2"></path>
<g>
	<path d="M1051.58,1393.08c-9.61,8.59-26.81,19.78-28.21-0.64c-0.76-11.22,2.97-29.21,7.81-42.5
		c-7.21,14.32-12.83,29.14-12.02,45.93c1.45,30.06,22.96,13.08,35.61-0.05c8.77-9.1,14.56-18.33,18.91-30.15
		C1068.47,1373.94,1061.92,1383.85,1051.58,1393.08z" class="st2"></path>
</g>
<path d="M1047.74,1328.2c3.91,6.79,10.09,12.58,16.26,17.48" class="st5"></path>
<path d="M1043.64,1336.97c7.63-0.34,16.98,2.03,24.2-0.65" class="st5"></path>
<path d="M1041.4,1343.24c5.6,5.39,13.61,8.31,19.11,13.66" class="st5"></path>
<path d="M1038.8,1349.18c7.42,0.18,15.22,0.44,22.68,0.87" class="st5"></path>
<path d="M1036.89,1354.53c6.31,4.88,12.83,9.46,18.95,14.09" class="st5"></path>
<path d="M1034.75,1359.15c7,1.33,18.31,3.59,24.74,1.96" class="st5"></path>
<path d="M1033.45,1364.43c5.92,4.29,11.59,9.7,18.22,12.94" class="st5"></path>
<path d="M1030.81,1370.44c7,0.44,15.73,1.94,22.89,1.2" class="st5"></path>
<path d="M1251.2,935.67c-14.79,41.55-43.6,104.98-64.05,143.54c-17.73,33.44-23.88,53.36-36.35,80.86
	c-14.16,31.19-48.57,110.9-47.08,107.33" class="st7"></path>
<path d="M1160.08,1139.66c-4.4-1.57-8.8-3.13-13.2-4.7" class="st7"></path>
<path d="M1159.09,1145.26c-6.61,0.18-13.2,0.09-19.81-0.11" class="st7"></path>
<path d="M1157.58,971.11c4.44,8.32,8.8,14.37,14.05,21.86" class="st7"></path>
<path d="M1160.34,966.14c11.13,9.51,21.83,19.05,32.22,29.32" class="st7"></path>
<path d="M1151.88,970.96c5.87-22.6,22.8-61.4,30.75-78.61" class="st7"></path>
<path d="M1159.35,946.47c-6.73-19.74-2.33-33.19,8.85-56.89" class="st7"></path>
<path d="M1238.09,887.88c-4.24,12.12-6.36,25.03-6.04,37.87c0.28,11.06,3.66,29.73,9.08,35.29" class="st7"></path>
<g>
	<path d="M1092.26,1251.5c-6.29-2.09-12.5-4.38-18.77-6.57c-0.72-0.25-1.5-0.51-2.24-0.34
		c-1.43,0.34-2.05,2.09-1.96,3.55c0.09,1.47,0.65,2.92,0.53,4.38c-0.16,1.87-1.36,3.46-2.28,5.09c-0.94,1.63-1.61,3.69-0.71,5.34
		c0.44,0.8,1.2,1.38,1.94,1.91c8.17,5.85,17.28,10.37,26.9,13.33c3.87,1.2,7.9,2.14,11.95,1.91c1.22-0.07,2.51-0.28,3.41-1.11
		c2-1.82,0.87-5.13,1.45-7.76c0.69-3.13,3.73-5.09,5.53-7.72c0.41-0.58,0.76-1.27,0.72-1.98c-0.16-4.08-8.94-5.09-11.81-5.76
		C1101.97,1254.55,1097.09,1253.1,1092.26,1251.5z" class="st6"></path>
	<path d="M1080.19,1263.43c7.39,0.55,15.04-0.18,22.32,0.76" class="st7"></path>
	<path d="M1106.81,1274.65c2.32-3,6.57-5.58,9.7-9.31" class="st3"></path>
	<path d="M1069.29,1248.14c0.53,4.38,1.8,8.2,2.97,11.38" class="st3"></path>
</g>
<path d="M1072.77,909.09c7.18-14.9,13.26-29.29,14.63-46.38" class="st3"></path>
<path d="M1223.56,655.4c10.55,19.51,45.63,30.03,70.02,23.89l-65.45,229.23c-25.04-7.92-52.72-11.82-76.97-22.5
	c-10.82-4.77-16.22-11.08-20.31-22.87c5.55-26.88,14.72-54.72,26.6-79.62c10.07-21.1,18.26-42.73,26.05-64.77
	c3.41-9.67,7.74-18.73,12.72-27.69C1202.25,680.27,1215.5,664.86,1223.56,655.4z" class="st2"></path>
<g>
	<g>
		<path d="M1260.9,381.57c4.56-0.09,6.24-4.24,8.85-7.28c2.19-2.55,5.99-4.63,9.01-5.55c1.8-0.55,4.12-0.58,5.5,1.11
			c1.89,2.33-1.41,3.59-3.13,5.05c-2.58,2.23-5.14,4.88-7.03,7.69c-2.42,3.55-4.06,7.76-6.75,11.1c-3.38,4.19-8.38,8.2-12.67,11.33
			c-2.17,1.57-4.74,3.71-6.47,5.83c-3.82,4.74-29.18,64.35-32.73,78.15c-2.58,10.02-18.13,83.58-15.45,108.18l-46.32,18.98
			c4.7-39.15,13.89-69.3,25.22-106.87c2.24-7.42,7.19-23.45,9.99-30.68c6.04-15.68,31.88-62.44,35.74-71.07
			c2.09-4.65,2.1-9.74,2.16-14.65c0.05-4.6-0.02-9.1,0.76-13.71c0.85-5,1.5-10.09,1.31-15.18c-0.18-4.19-1.29-8.25-1.94-12.35
			c-0.49-3.09-0.97-6.33-0.62-9.42c0.19-1.79,0.85-4.44,2.7-2.37c1.66,1.87,2.28,6.27,2.86,8.61c0.69,2.77,1.45,5.58,2.26,8.31
			c1.27,4.26,1.57,8.06,6.24,9.26c3.62,0.94,7.65,0.49,11.03,1.54c9.08-6.88,11.2-23.45,15.64-29.07c4.15-5.27,4.38,2.97,3.91,5.87
			c-0.8,4.86-2.24,9.61-3.94,14.23c-2.63,7.1-5.46,15.41-4.86,22.41" class="st2"></path>
		<path d="M1244.01,362.47c-0.09-2.32-3.16-4.77-5.32-3.96c-2.86,1.06-3.27,6.49-3.53,9.01
			c-0.41,3.92-0.41,8.17,0.11,12.09c0.3,2.26,1.94,5.71,4.49,3.66c1.82-1.47,2.33-4.68,2.77-6.96c0.37-1.87,0.76-3.75,1.01-5.64
			C1243.92,367.89,1243.76,365.06,1244.01,362.47z" class="st2"></path>
		<path d="M1249.73,360.35c-0.28-0.23-0.6-0.42-0.94-0.58c-5.39-2.35-6.8,7.49-7.19,10.69c-0.39,3.2-0.6,6.43-0.62,9.67
			c-0.02,1.45,0.02,2.97,0.65,4.28c0.27,0.58,0.69,1.13,1.29,1.36c0.8,0.3,1.7-0.07,2.28-0.67c0.58-0.6,0.92-1.4,1.24-2.17
			c2.01-4.86,4.03-9.77,4.95-14.95c0.27-1.52,0.44-3.11,0.09-4.61C1251.25,362.2,1250.64,361.09,1249.73,360.35z" class="st2"></path>
	</g>
	<path d="M1262.25,381.38c-5.04,0.78-9.76,2.6-13.08,5.11c-3.15,2.39-5.57,5.48-8.5,8.08" class="st3"></path>
</g>
<path d="M1106.97,843.26c8.54,9.88,15.84,19.05,23.35,29.32c6.06,8.31,8.22,18.33,14.07,26.35
	c5.23-39.75,23.95-86.03,40.7-122.14c12.97-27.96,50.26-85.2,49.47-94.32c-1.01-11.65,2.01-34.6,2.01-34.6
	c-3.82-1.75-13.27-2.23-13.27-2.23c-17.83-22.16-10.83-78.33-6.42-97.24c-5.46-4.51-41.67-7-65.9-7.49
	c-2.01,20.22-4.68,34.82-5.57,55.05c-1.01,22.94,0.94,45.09,0.92,68.26c-0.02,15.84-14.9,43.55-20.98,58.61
	c-6.82,16.9-34.76,71.12-46.11,90.89C1087.1,818.39,1095.94,830.43,1106.97,843.26z" class="st4"></path>
<pattern patternTransform="matrix(0.0236 0.0176 0.0176 -0.0236 -17337.2031 -4518.377)" xlink:href="#SVGID_1_" id="SVGID_4_">
</pattern>
<path d="M1106.97,843.26c8.54,9.88,15.84,19.05,23.35,29.32c6.06,8.31,8.22,18.33,14.07,26.35
	c5.23-39.75,23.95-86.03,40.7-122.14c12.97-27.96,50.26-85.2,49.47-94.32c-1.01-11.65,2.01-34.6,2.01-34.6
	c-3.82-1.75-13.27-2.23-13.27-2.23c-17.83-22.16-10.83-78.33-6.42-97.24c-5.46-4.51-41.67-7-65.9-7.49
	c-2.01,20.22-4.68,34.82-5.57,55.05c-1.01,22.94,0.94,45.09,0.92,68.26c-0.02,15.84-14.9,43.55-20.98,58.61
	c-6.82,16.9-34.76,71.12-46.11,90.89C1087.1,818.39,1095.94,830.43,1106.97,843.26z" class="st10"></path>
<path d="M1233.56,683.98c-4.61-3.62-14.67-0.35-20.48,1.15c-0.81-5.04,3.66-15.61,4.9-20.52
	c1.59-6.33,3.39-12.27,5.58-18.43" class="st3"></path>
<g>
	<g>
		<path d="M1432.83,442.77c-3.48-2.93-2.16-7.23-2.28-11.24c-0.09-3.36-1.71-7.37-3.48-10
			c-1.06-1.57-2.81-3.06-4.95-2.62c-2.95,0.62-1.17,3.66-0.78,5.89c0.6,3.36,0.9,7.03,0.6,10.39c-0.37,4.28-1.75,8.57-1.79,12.87
			c-0.04,5.39,1.31,11.65,2.67,16.79c0.69,2.6,1.33,5.87,1.31,8.61c-0.04,6.1-18.04,68.31-24.02,81.26
			c-4.33,9.4-38.76,76.23-56.38,93.6l23.91,43.97c21.08-33.31,33.01-62.49,47.97-98.76c2.95-7.16,9.24-22.73,11.65-30.1
			c5.21-15.96,14.74-68.54,17.2-77.66c1.33-4.93,4.52-8.87,7.58-12.72c2.86-3.61,5.78-7.05,8.08-11.1c2.51-4.42,5.21-8.78,8.59-12.6
			c2.77-3.13,6.2-5.58,9.31-8.36c2.33-2.09,4.75-4.29,6.43-6.91c0.97-1.52,2.14-3.98-0.6-3.53c-2.46,0.41-5.73,3.43-7.65,4.86
			c-2.3,1.71-4.67,3.41-7.02,5c-3.68,2.49-6.31,5.25-10.69,3.23c-3.39-1.57-6.24-4.45-9.53-5.76c-2.7-11.08,6.13-25.26,6.26-32.41
			c0.11-6.7-5.28-0.46-6.73,2.09c-2.46,4.28-4.33,8.87-5.92,13.52c-2.46,7.18-5.5,15.39-10.39,20.45" class="st2"></path>
		<path d="M1458,438.64c1.54-1.73,5.46-1.7,6.63,0.3c1.54,2.63-1.57,7.09-2.97,9.23c-2.16,3.3-4.84,6.57-7.72,9.3
			c-1.66,1.57-5.13,3.2-5.8,0c-0.48-2.3,1.15-5.11,2.24-7.16c0.9-1.68,1.77-3.38,2.77-5.02
			C1454.64,442.9,1456.57,440.81,1458,438.64z" class="st2"></path>
		<path d="M1454.89,433.37c0.37,0,0.72,0.05,1.1,0.14c5.66,1.59,0.55,10.11-1.18,12.83s-3.61,5.36-5.62,7.88
			c-0.9,1.13-1.89,2.28-3.2,2.92c-0.58,0.28-1.25,0.44-1.86,0.23c-0.8-0.27-1.27-1.13-1.34-1.96c-0.07-0.83,0.16-1.66,0.41-2.47
			c1.52-5.04,3.04-10.13,5.6-14.72c0.76-1.36,1.63-2.69,2.85-3.64C1452.56,433.87,1453.72,433.37,1454.89,433.37z" class="st2"></path>
	</g>
	<path d="M1431.91,441.77c3.41,3.78,5.92,8.18,6.91,12.23c0.94,3.84,0.85,7.76,1.48,11.63" class="st3"></path>
</g>
<path d="M1238.88,939.13c-10.14-1.7-49.5-12-49.5-12c15.45-48.9,30.33-95.31,40.17-133.89
	c7.62-29.87,27.22-94.04,33.6-100.6c8.15-8.39,20.31-28.1,20.31-28.1c4.06,1.06,11.7,6.66,11.7,6.66
	c27.84-5.92,57.88-53.87,66.42-71.31c7.07-0.05,36.73,20.91,55.81,35.84c-11.22,16.93-18.36,29.94-30.47,46.18
	c-13.71,18.42-29.21,34.36-43.83,52.31c-10,12.28-15.96,43.16-20.77,58.68c-5.39,17.41-28.37,110.95-32.06,133.45
	C1281.18,925.01,1268.65,944.1,1238.88,939.13z" class="st4"></path>
<pattern patternTransform="matrix(0.0236 0.0176 0.0176 -0.0236 -17274.8828 -4551.7568)" xlink:href="#SVGID_2_" id="SVGID_7_">
</pattern>
<path d="M1238.88,939.13c-10.14-1.7-49.5-12-49.5-12c15.45-48.9,30.33-95.31,40.17-133.89
	c7.62-29.87,27.22-94.04,33.6-100.6c8.15-8.39,20.31-28.1,20.31-28.1c4.06,1.06,11.7,6.66,11.7,6.66
	c27.84-5.92,57.88-53.87,66.42-71.31c7.07-0.05,36.73,20.91,55.81,35.84c-11.22,16.93-18.36,29.94-30.47,46.18
	c-13.71,18.42-29.21,34.36-43.83,52.31c-10,12.28-15.96,43.16-20.77,58.68c-5.39,17.41-28.37,110.95-32.06,133.45
	C1281.18,925.01,1268.65,944.1,1238.88,939.13z" class="st11"></path>
<path d="M1262.95,694.45c5.87,0.11,11.59,9,15.15,13.84c3.82-3.39,7.02-14.42,9.17-19c2.76-5.9,5.13-11.65,7.32-17.81" class="st3"></path>
<g>
	<g>
		<path d="M1080.81,766.69c12.11-6.33,24.9-11.79,35.56-20.48c5.14-4.21,9.38-9.01,13.15-14.44
			c1.03-1.48,12.99-17.23,12.97-17.27c-3.66-3.92-8.75-6.22-11.03-9.54c-1.75,2.46-7.35,11.47-13.33,22.07
			c-3.08,5.46-8.09,9.37-13.18,13.06c-9.19,6.7-19.85,9.58-29.87,14.81C1076.18,759.73,1080.81,766.69,1080.81,766.69z" class="st9"></path>
	</g>
	<path d="M1228.88,644.8c-6.52,2.35-59.59,50.1-69.85,57.32c-8.11,5.71-9.37,4.91-17.59,10.67
		c-2.76-2.44-6.1-5.92-8.45-8.77c2.49-4.42,3.98-9.47,6.31-13.93c2.47-4.74,5.81-9.31,9.19-13.8c8.38-11.13,51.2-47.58,63.29-54.47
		C1217.22,618.75,1235.56,642.38,1228.88,644.8z" class="st9"></path>
	<path d="M1122.86,717.97c-0.69-4.12,1.93-7.78,2.03-7.92l7.49-10.32c0.49-0.69,1.45-0.85,2.14-0.35l13.18,9.26
		c0.34,0.23,0.57,0.6,0.64,1.01c0.07,0.41-0.04,0.83-0.27,1.17l-7.49,10.32c-2.05,2.83-7.58,7.05-13.79,2.7l0,0
		c-0.44-0.32-0.87-0.65-1.24-0.99C1124.06,721.45,1123.16,719.82,1122.86,717.97z M1133.99,702.77l-6.59,9.08
		c-0.02,0.04-1.98,2.79-1.48,5.62c0.25,1.48,1.11,2.74,2.65,3.82l0,0c5.16,3.62,9.08-1.4,9.51-1.98l6.57-9.05L1133.99,702.77z"></path>
	<polygon points="1133.8,702.49 1144.97,710.33 1136.73,721.68 1125.56,713.83" class="st9"></polygon>
	<line y2="708.34" x2="1130.08" y1="716.18" x1="1141.25" class="st3"></line>
	<path d="M1221.93,633.12c-23.84,16.15-55.27,40.63-75.48,63.38" class="st3"></path>
</g>
<g>
	<g>
		<path d="M1337.82,854.07c-5.97-12.28-13.03-24.27-16.42-37.59c-1.64-6.43-2.19-12.81-2-19.42
			c0.05-1.8-0.21-21.58-0.18-21.58c5.28-0.99,10.73,0.19,14.55-1.11c-0.05,3-0.9,13.59-2.4,25.68c-0.76,6.22,0.94,12.34,2.83,18.35
			c3.41,10.83,10.27,19.49,15.22,29.66C1345.68,851.23,1337.82,854.07,1337.82,854.07z" class="st9"></path>
	</g>
	<path d="M1291.2,668.04c3.84,5.76,18.13,75.71,22.09,87.61c3.13,9.42,4.61,9.51,7.79,19.03
		c3.68-0.32,8.41-1.15,12-2.03c0.64-5.04,2.42-9.99,3.2-14.95c0.83-5.27,0.87-10.94,0.81-16.56c-0.12-13.94-12.9-68.7-18.52-81.42
		C1316.05,654.03,1287.26,662.12,1291.2,668.04z" class="st9"></path>
	<path d="M1327.92,792.22c-0.51,0.05-1.04,0.07-1.59,0.07l0,0c-7.56-0.18-9.51-6.86-9.47-10.36l0.11-12.76
		c0-0.41,0.18-0.81,0.48-1.1c0.3-0.28,0.69-0.44,1.11-0.44l16.1,0.39c0.85,0.02,1.5,0.71,1.5,1.56l-0.11,12.76
		c0,0.19-0.07,4.68-3.08,7.58C1331.62,791.21,1329.94,791.99,1327.92,792.22z M1320.04,770.76l-0.09,11.19
		c0,0.72,0.18,7.1,6.47,7.25l0,0c1.87,0.05,3.3-0.44,4.4-1.48c2.07-2,2.14-5.37,2.16-5.41l0.09-11.24L1320.04,770.76z"></path>
	<polygon points="1333.37,770.95 1319.72,770.64 1319.6,784.65 1333.26,784.97" class="st9"></polygon>
	<line y2="777.86" x2="1332.89" y1="777.53" x1="1319.24" class="st3"></line>
	<path d="M1303.71,662.77c9.58,27.16,20.29,65.52,23.05,95.83" class="st3"></path>
</g>
<path d="M1292.22,568.43c5.32-1.56,9.84,1.54,11.49,6.79c2.62,8.34-2.99,16.33,0.67,24.81" class="st7"></path>
<g>
	<path d="M1033.29,978.78c-6.61-0.46-13.18-1.17-19.81-1.75c-0.76-0.07-1.57-0.12-2.24,0.23
		c-1.31,0.67-1.48,2.53-1.03,3.92s1.34,2.65,1.59,4.12c0.32,1.86-0.46,3.68-0.95,5.5c-0.49,1.8-0.65,3.98,0.64,5.34
		c0.62,0.67,1.5,1.03,2.35,1.36c9.37,3.66,19.32,5.78,29.36,6.29c4.05,0.21,8.18,0.14,12.05-1.1c1.17-0.37,2.37-0.9,3.04-1.91
		c1.48-2.26-0.42-5.18-0.51-7.88c-0.11-3.2,2.37-5.85,3.46-8.85c0.25-0.67,0.42-1.41,0.21-2.1c-1.15-3.92-9.91-2.72-12.87-2.69
		C1043.45,979.34,1038.36,979.13,1033.29,978.78z" class="st6"></path>
	<path d="M1024.54,993.3c7.3-1.29,14.53-3.87,21.81-4.77" class="st7"></path>
	<path d="M1053.1,997.62c1.5-3.48,5-7.03,7.12-11.42" class="st3"></path>
	<path d="M1010.19,981.18c1.59,4.12,3.78,7.51,5.67,10.3" class="st3"></path>
</g>
<path d="M310.55,328.3c-8.09,17.83-20.2,33.19-29.18,50.19c-4.91,9.31-11.61,19.51-13.79,30.26
	c-0.88,4.38-0.04,4.24,4.1,5.99c2.65,1.13,5.46,1.87,8.04,3.13c4.65-2.69,7.92-9.95,11.17-14.16c3.57-4.6,6.47-9.6,9.38-14.63
	c5.78-9.97,12.62-19.33,17.92-29.57c2.99-5.76,5.21-11.93,6.61-18.2C326.88,332.05,323.09,331.52,310.55,328.3z" class="st2"></path>
<path d="M532.37,166.38c-2.17-0.85-5-5.83-8.06-9.81c-1.18-1.54-7.05-5.78-8.68-2.69c-0.64,1.22,3.71,6.75,4.51,8.06
	c1.41,2.33,3.04,4.49,4.03,6.91c1.08,2.63,2.09,9.21,2.88,11.81c1.13,3.69,3.48,4.72,4.67,7.6c2.54,6.1-18.35,59.29-20.38,64.79
	c-1.84,4.97-30.29,54.52-43.88,67.58l17.78,33.74c16.38-25.17,24.41-38.28,36.16-65.76c2.32-5.43,9.23-24.48,11.12-30.06
	c1.94-5.73,15.99-68.71,16.19-69.93c6.06-2.46,7.58-11.82,8.91-17.62c-4.1-3.36-8.57-7.63-10.43-12.64
	c-2.16-0.46,2.1-7.79,2.77-8.96c2.07-3.61,5.46-6.96,6.91-10.9c0.51-1.4,1.59-3.16-0.14-4.17c-2.49-1.45-4.75,2.46-5.73,3.8
	c-1.59,2.19-3.38,4.52-4.82,6.82c-2.77,4.42-6.06,9.1-9.37,13.17c-2.05,2.53-4.67,6.29-6.04,7.14" class="st2"></path>
<g>
	<path d="M553.06,167.26c1.56-1.06,3.8,0.11,4.56,1.33c1.22,1.93-0.12,4.24-1.79,5.69c-2.37,2.09-7.63,5.8-10.53,2.88
		c-1.29-1.29-0.81-1.96,0.37-3.08C548.03,171.86,549.86,168.8,553.06,167.26z" class="st2"></path>
	<path d="M548.87,163.16c1.61-1.08,4.24-1.08,5.09,1.03c0.92,2.26-0.05,4.29-1.66,5.96c-1.96,2.05-4.26,4.28-6.98,5.21
		c-1.61,0.55-4.82,1.22-5.69-0.67c-0.65-1.41,0.78-2.62,1.75-3.68C543.29,168.92,545.41,165.92,548.87,163.16z" class="st2"></path>
	<path d="M546.96,158.34c2.9-0.81,3.8,3.22,3,5.09c-0.83,1.94-2.39,3.96-3.62,5.66c-1.59,2.21-3.94,3.68-6.38,4.82
		c-1.15,0.55-2.56,1.52-3.66,0.55c-1.25-1.11-0.53-2.63,0.35-3.71c1.24-1.5,3.39-2.23,4.58-3.57
		C543.39,164.75,543.41,160.25,546.96,158.34z" class="st2"></path>
	<path d="M550.76,187.43c-1.27,0.83-2.46,1.33-3.98,1.7" class="st3"></path>
	<path d="M529.42,184.85c2.01,1.63,4.05,4.47,5.41,6.63" class="st3"></path>
	<path d="M548.68,153.28l-1.38,2.81c-4.56-3.06-6.72-3.91-6.73-3.92l1.86-2.53
		C542.51,149.69,544.05,150.17,548.68,153.28z" class="st9"></path>
</g>
<path d="M242.29,636.67c-7.71,7.07-9.56,10.59-15.02,15.68c-10.48,9.74-18.24,16.24-30.58,19.18
	c-13.43,3.18-34.07,5.2-22.69-14.55c11.77-20.4,21.26-20.5,39.85-32.77c4.58-3.02,8.87-10.34,13.48-13.08
	c4.86-2.88,13.57,5.97,13.57,5.97S252.44,627.37,242.29,636.67z" class="st9"></path>
<path d="M181.55,646.06c3.34,0.44,6.49,4.82,8.48,7.16c2.12,2.47,4.06,5.11,5.44,8.01c0.85,1.77,2.65,6.52,1.43,8.64
	c-1.15,1.98-6.8,2.44-9.01,2.56c-3.39,0.18-7.16-0.35-10.02-1.86C167.34,665.09,173.58,654.34,181.55,646.06z" class="st2"></path>
<path d="M240.47,581.02c-5.39,33.42-1.15,37.98-5,42.66c-3.38,4.08-11.66,10.53-16.93,11.68
	c-4.1,0.88-10.98-4.12-9.69-8.61c0.46-1.61,1.54-2.93,2.53-4.28c10.87-14.74,6.5-35.47,4.79-72" class="st2"></path>
<g>
	<g>
		<path d="M239.96,617.12c3.75,4.29,6.33,9.54,1.86,15.48c-4.15,5.51-8.62,7.23-14.02,11.35
			c-3.71,2.81-6.96,6.4-10.48,9.4c-3.62,3.09-6.93,5.94-10.94,8.15c-3.43,1.89-7.6,4.4-11.51,5.02c-9.63,1.54-28.17,2.95-20.71-10.6
			c2.47-4.51,6.79-11.4,11.95-15.15c-4.44,3.68-8.59,8.48-13.06,16.24c-11.38,19.74,9.26,17.73,22.69,14.55
			c12.35-2.93,20.09-9.44,30.58-19.18c5.46-5.07,13.34-7.42,18.19-14.81C250.72,628.01,241.16,617.51,239.96,617.12z" class="st2"></path>
	</g>
</g>
<path d="M219.88,634.87c-5.13,0.88-10.23,6.86-14.33,9.58c-3.82,2.54-12.09,8.01-11.17,13.68" class="st3"></path>
<path d="M206.93,627.92c0.94-1.68,3.69-5.04,5.3-6.26c1.96-1.48,3.75-0.8,5.66,0.69c1.86,1.43,3.5,3.64,4.42,5.83
	c1.75,4.17-1.03,5.66-4.68,8.27l-14.63,10.43" class="st9"></path>
<path d="M196.34,632.31c2.54,5.48,5.36,10.82,7.86,16.05" class="st5"></path>
<path d="M193.32,634.66c4.24,3.32,11.08,8.77,15.96,9.91" class="st5"></path>
<path d="M190.6,637.77c2.49,4.95,4.42,10.55,7.76,15.02" class="st5"></path>
<path d="M186.74,640.88c4.54,2.72,9.91,6.77,14.97,8.75" class="st5"></path>
<path d="M203.14,626.84c2.49,4.95,4.42,10.55,7.76,15.02" class="st5"></path>
<path d="M199.27,629.95c4.54,2.72,9.91,6.77,14.97,8.75" class="st5"></path>
<path d="M260.95,488.99c0,0-1.84,27.92-4.77,41.29c-2,9.07-7.53,31-12.51,56.63c-9.65,0.9-19.85,0-28.83-4.54
	c0,0-3.29-59.79,2.99-105.44c1.64-12.02,4.84-23.31,14.6-32.4c12.46-11.61,30.49-4.54,39.16,5.99
	c11.17,13.57,36.69,43.62,36.69,43.62c9.47,16.29,8.17,45.17,13.96,62.62c-2.16,9.76-2.56,33.3-5.99,40.7
	c-2.19-1.59-10.98-9.03-23.26-25.68c-11.43-15.5-35.72-47.45-35.72-47.45" class="st2"></path>
<path d="M245.49,577c-10.41,0.8-21.42-0.3-31.18-5.18" class="st7"></path>
<path d="M245.49,572.02c-10.41,0.8-21.42-0.3-31.18-5.18" class="st7"></path>
<path d="M260.57,494.13c0,0-6.17,27.23-9.1,40.6c-2,9.07-8.54,26.55-13.52,52.17" class="st12"></path>
<path d="M318.92,582.41c-2.19-1.5-11.08-8.47-23.7-23.77c-11.75-14.24-36.71-43.65-36.71-43.65" class="st7"></path>
<path d="M442.74,352.96c0,0-9.74-6.72-13.82-9.24c-4.08-2.53-7.94-5.99-9.3-10.85c-0.69-2.51-0.67-5.21-0.37-7.86
	c0.35-3.23,1.11-6.43,2.21-9.51l-24.92-9.23c-1.17,3.06-2.69,5.97-4.51,8.66c-1.5,2.21-3.25,4.28-5.41,5.73
	c-4.19,2.81-9.37,2.92-14.12,2.19c-4.74-0.74-16.51-1.98-16.51-1.98L342.99,356l86.71,32.1L442.74,352.96z" class="st2"></path>
<path d="M278.15,783.2c-9.3,25.11-14.58,42.66-15.06,45.49c-2.62,15.75-4.77,30.8-16.14,42.89
	c-2.76,2.93-5.32,5.81-8.13,8.54c-4.14,4.05-8.2,6.26-14,8.18l-6.04-5.23c-1.52-13.73-0.76-20.5,5.73-33.1
	c12.02-23.35,25.17-32.84,36.04-73.31" class="st2"></path>
<path d="M215,875.53c2.42-6.52,6.17-11.66,9.31-17.62c3.2-6.03,5.99-11.63,8.68-17.99c2.46-5.83,3.96-12.88,10.5-11.26
	c5.64,1.41,6.77,1.63,9.35,4.14c3.41,3.29-1.94,13.41-3.09,16.54c-2.77,7.55-6.31,14.88-8.17,22.75c-0.94,3.96-0.05,9.03-2.53,12.35
	c-4.24,5.62-10.59,4.22-16.05,2.92C216.95,885.92,214.67,881.43,215,875.53z" class="st9"></path>
<path d="M316.89,566.97c-9.56,37.08-21.9,84.48-32.54,121.28c-10.92,37.79-29.6,92.82-29.6,92.82l28.95,10.73
	c9.35-21.99,37.36-83.37,37.36-83.37c5.53-15.29,22.43-44.84,29.92-59.28c21.4-41.3,42.05-79.07,53.27-124.58l-95.95-30.42" class="st2"></path>
<line y2="779.7" x2="288.49" y1="768.69" x1="258.78" class="st7"></line>
<line y2="775.76" x2="290.4" y1="764.77" x1="260.69" class="st7"></line>
<path d="M217.25,871.55c6.73-1.79,6.73-1.11,8.96-7.18c2.85-7.72,5.32-14.42,9.01-23.05
	c2.77-6.45,4.24-19.62,4.24-19.62c-9.33,20.4-27.36,41.53-26.51,65.22c0.81,22.92,17.37,10.18,27.13,0.3
	c13.66-13.84,18.17-28.15,22.96-58.45c-3.85,4.24-10.09,6.86-13.54,11.2c-2.67,3.36-3.82,9.03-5.32,13.06
	c-1.86,5.02-4.1,9.65-6.13,14.53c-2.37,5.66-1.13,8.87,0.95,15.04" class="st9"></path>
<path d="M214.38,873.07c3.09-1.4,8.11,0.67,11.05,1.59c3.13,0.97,6.19,2.19,8.93,3.92c1.66,1.06,5.74,4.14,5.83,6.63
	c0.09,2.3-4.51,5.71-6.33,7c-2.79,1.96-6.29,3.5-9.54,3.76C212.42,896.91,212,884.42,214.38,873.07z" class="st2"></path>
<g>
	<path d="M237.7,885.14c-7.41,6.45-20.62,14.81-21.49-0.76c-0.48-8.55,2.54-22.23,6.36-32.31
		c-5.64,10.83-10.06,22.07-9.6,34.87c0.81,22.92,17.37,10.18,27.13,0.3c6.77-6.84,11.28-13.82,14.7-22.78
		C250.74,870.7,245.65,878.2,237.7,885.14z" class="st2"></path>
</g>
<path d="M235.4,835.67c2.92,5.2,7.56,9.69,12.23,13.47" class="st5"></path>
<path d="M232.18,842.3c5.81-0.19,12.92,1.71,18.43-0.27" class="st5"></path>
<path d="M230.41,847.07c4.22,4.17,10.29,6.45,14.42,10.59" class="st5"></path>
<path d="M228.36,851.56c5.66,0.19,11.59,0.48,17.27,0.88" class="st5"></path>
<path d="M226.86,855.63c4.75,3.78,9.69,7.33,14.3,10.9" class="st5"></path>
<path d="M225.2,859.11c5.32,1.08,13.93,2.9,18.84,1.73" class="st5"></path>
<path d="M224.16,863.12c4.47,3.32,8.73,7.51,13.75,10.02" class="st5"></path>
<path d="M222.09,867.68c5.32,0.41,11.96,1.64,17.43,1.13" class="st5"></path>
<path d="M278.61,789.9c-1.15,2.7,25.82-57.69,36.9-81.3c9.77-20.84,14.65-35.95,28.47-61.26
	c15.94-29.2,30.04-59.12,41.71-90.63c1.91-5.14,2.65-11.13,4.42-16.26" class="st7"></path>
<path d="M322.79,693.12c-3.34-1.24-6.68-2.47-10.02-3.71" class="st7"></path>
<path d="M321.96,697.38c-5.04,0.07-10.06-0.05-15.09-0.27" class="st7"></path>
<path d="M322.51,564.7c3.3,6.38,6.56,11.03,10.48,16.79" class="st7"></path>
<path d="M324.65,560.94c8.39,7.35,16.44,14.72,24.27,22.66" class="st7"></path>
<path d="M318.16,564.53c4.68-17.16,17.97-46.55,24.2-59.6" class="st7"></path>
<path d="M324.1,545.93c-4.95-15.11-1.47-25.31,7.3-43.25" class="st7"></path>
<path d="M374.61,523.74c-3.36,9.21-5.09,19-4.97,28.79c0.11,8.43,2.49,22.68,6.59,26.99" class="st7"></path>
<path d="M258.5,516.63c5.6-11.28,10.37-22.18,11.59-35.19" class="st3"></path>
<path d="M298.85,483.02c7.49,8.29,11.2,19.3,18.5,27.73c11.33,13.1,28.31,19.94,43.88,26.44
	c13.2,5.51,27.01,12.64,40.22,14.44c6.75-19.14,30.89-87.1,35.17-100.31c3.82-11.77,19.33-50.14,27.08-59.4
	c11.31-13.56,23.26-25.54,33.9-39.43c9.38-12.25,22.34-30.93,31.05-43.71c-14.39-11.56-38.23-29.78-43.62-29.82
	c-6.68,13.22-33.62,54.38-54.88,58.61c-4.14,0.83-6.13-1.82-9.84-2.63c-5.97,13.57-24.81,10.02-33.58,1.63
	c-4.05-3.87-5.92-9.54-3.82-15.16c-17.76,0.49-36.05-17.21-47.95-15.32c-7.49,1.18-13.01,3.89-18.47,8.89
	c-16.12,14.76-24.88,33.26-45.14,55.74c15.68,9.86,34.25,21.72,34.25,21.72c-7.95,20.98-17.41,41.71-29,64.23L298.85,483.02z" class="st4"></path>
<g>
	<g>
		<defs>
			<path d="M298.85,483.02c7.49,8.29,11.2,19.3,18.5,27.73c11.33,13.1,28.31,19.94,43.88,26.44
				c13.2,5.51,27.01,12.64,40.22,14.44c6.75-19.14,30.89-87.1,35.17-100.31c3.82-11.77,19.33-50.14,27.08-59.4
				c11.31-13.56,23.26-25.54,33.9-39.43c9.38-12.25,22.34-30.93,31.05-43.71c-14.39-11.56-38.23-29.78-43.62-29.82
				c-6.68,13.22-33.62,54.38-54.88,58.61c-4.14,0.83-6.13-1.82-9.84-2.63c-5.97,13.57-24.81,10.02-33.58,1.63
				c-4.05-3.87-5.92-9.54-3.82-15.16c-17.76,0.49-36.05-17.21-47.95-15.32c-7.49,1.18-13.01,3.89-18.47,8.89
				c-16.12,14.76-24.39,32.34-45.14,55.74c15.68,9.86,34.25,21.72,34.25,21.72c-7.95,20.98-17.41,41.71-29,64.23L298.85,483.02z" id="SVGID_8_"></path>
		</defs>
		<clipPath id="SVGID_9_">
			<use style="overflow:visible;" xlink:href="#SVGID_8_"></use>
		</clipPath>
		<g class="st13">
			<path d="M311.5,358.6c53.09,20.06,106.43,39.32,159.63,59.1" class="st14"></path>
			<path d="M301.62,376.3c53.09,20.04,106.43,39.32,159.63,59.1" class="st14"></path>
			<path d="M291.74,394.03c53.09,20.04,106.43,39.32,159.63,59.1" class="st14"></path>
			<path d="M281.86,411.74c53.09,20.04,106.43,39.32,159.63,59.1" class="st14"></path>
			<path d="M274.83,430.72c53.09,20.04,106.43,39.32,159.63,59.1" class="st14"></path>
		</g>
	</g>
	<g>
		<path d="M298.85,483.02c7.49,8.29,11.2,19.3,18.5,27.73c11.33,13.1,28.31,19.94,43.88,26.44
			c13.2,5.51,27.01,12.64,40.22,14.44c6.75-19.14,30.89-87.1,35.17-100.31c3.82-11.77,19.33-50.14,27.08-59.4
			c11.31-13.56,23.26-25.54,33.9-39.43c9.38-12.25,22.34-30.93,31.05-43.71c-14.39-11.56-38.23-29.78-43.62-29.82
			c-6.68,13.22-33.62,54.38-54.88,58.61c-4.14,0.83-6.13-1.82-9.84-2.63c-5.97,13.57-24.81,10.02-33.58,1.63
			c-4.05-3.87-5.92-9.54-3.82-15.16c-17.76,0.49-36.05-17.21-47.95-15.32c-7.49,1.18-13.01,3.89-18.47,8.89
			c-16.12,14.76-24.39,32.34-45.14,55.74c15.68,9.86,34.25,21.72,34.25,21.72c-7.95,20.98-17.41,41.71-29,64.23L298.85,483.02z" class="st3" id="SVGID_3_"></path>
	</g>
</g>
<g>
	<path d="M452.32,556.54c-18.2,5.36-21.07-11.42-22.59-23.75c-4.37-35.47-8.91-95.86-8.91-95.86
		s45.85-10.02,53.55-13.31c-4.22-9.17-10.67-17.51-14.14-26.95c1.33-2.93,7.81-10.32,7.81-10.32c3.11,7.23,14.02,27.39,18.29,33.92
		l25.18-4.9c7.07,20.7,19.86,89,20.96,100.44c1.56,16.26-1.73,23.13-21.74,26.35L452.32,556.54z" class="st6"></path>
	<path d="M421.66,438.55c2.99-0.51,7.32,0.8,10.78,0.88c4.9,0.14,9.83-0.3,14.67-0.78c13.87-1.38,26.67-3.75,39.98-7.41
		c9.26-2.54,16.91-5.89,23.15-13.63" class="st3"></path>
	<path d="M446.81,441.41c-6.57-22.73-14.32-101.07-11.74-109.36l10.32-5.39c-3.92,42.45,14.03,113.02,14.03,113.02" class="st6"></path>
	<path d="M457.29,465.29c16.83,19.65,33.84,38.97,53.09,56.29" class="st7"></path>
</g>
<g>
	<path d="M442.44,257.54c-1.22,1.22-6.17-7.37-6.66-8.27c-1.52-2.85-2.01-6.19-1.47-9.37
		c0.81-4.65,4.26-9.08,8.62-10.94c5.18-2.21,9.1-0.83,14.07-3.64c2.53-1.43,4.45-3.91,5.21-6.72c1.56-5.71,0.34-9.79,0.21-15.45
		c-0.11-5.14,3.06-9.74,7.6-12.04c8.43-4.26,22.89,7.1,23.97-8.85c1.1,4.44,2.65,8.39-0.42,12.35c-3.02,3.91-10.3,1.64-10.3,1.64
		c3.52,1.59,8.17,2.86,11.79,1.08c4.1-2.01,3.5-6.27,6.91-8.78c4.4-3.23,11.06-2.14,15.75,0.19c3.2,1.59,6.95,5.41,9.08,12.37
		c0.09,0.27-4.52-4.44-9.95-3.84c-2.49,0.28-4.1,1.54-5.09,4.29c-0.48,1.34-0.48,2.79-0.64,4.21c-0.41,3.82-1.96,7.9-4.79,10.57
		c-7.02,6.59-21.33,3.53-25.1,13.91c-1.38,3.82-1.68,8.04-5.36,10.53c-3.04,2.05-10.96,5.74-14.46,6.45
		C454.53,248.68,447.89,252.09,442.44,257.54z" class="st9"></path>
	<path d="M442.44,255.54c-10.92-1.89-14.53-14.24-9.6-23.1c2.47-4.47,6.73-6.59,11.29-8.11
		c3.32-1.11,7.58-0.76,10.59-2.44c5.64-3.16,6.38-10.3,3.52-15.55" class="st3"></path>
	<path d="M442.44,255.54c-5.28-6.13-4.68-15.15,2.62-20.32" class="st3"></path>
	<path d="M442.44,255.54c-3.45-5.13,5.14-15.15,9.4-17.62c9.63-5.6,18.79-6.77,21.46-19.55" class="st3"></path>
	<path d="M459.36,247.76c7.78-1.64,17.67-3.76,21.93-11.68c1.82-3.39,2.28-6.75,6.17-8.54
		c3.04-1.41,6.98-1.47,10.36-1.63c8.45-0.41,16.61-4.95,16.72-14.69" class="st3"></path>
</g>
<g>
	<path d="M447.85,281.56c0.53-4.42-0.07-8.87-1.56-13.01c-2.42-6.8-7.23-12.8-13.29-16.52l-4.37-1.61
		c-7.03-1.11-14.58,0.3-20.85,3.87c-3.82,2.17-7.16,5.16-9.65,8.85c-4.77,7.12-6.2,15.84-7.49,24.23
		c-1.29,8.38-2.19,16.91,2.23,23.93c2.65,4.21,5.83,7.72,11.33,9.76l1.31,0.49c6.13,2.28,10.2,1.43,14.93-0.04
		c7.92-2.44,12.81-9.51,17.28-16.7C442.25,297.62,446.84,290.08,447.85,281.56z" class="st2"></path>
	<path d="M400.84,298.01c2.33-2.12,2.51-5.73,0.41-8.06c-2.12-2.33-5.73-2.51-8.06-0.41c-2.33,2.12-2.51,5.73-0.41,8.06
		C394.9,299.94,398.51,300.11,400.84,298.01z" class="st8"></path>
	<ellipse ry="5.71" rx="5.71" cy="305.61" cx="428.97" class="st8"></ellipse>
	<path d="M424.28,284.79c8.71-0.58,13.06,6.15,13.06,6.15" class="st3"></path>
	<path d="M413.94,280.96c-6.24-6.12-13.93-3.84-13.93-3.84" class="st3"></path>
	<path d="M428.68,294.39c-0.58,1.48-1.82,2.4-2.74,2.03c-0.94-0.37-1.2-1.87-0.62-3.36c0.58-1.48,1.82-2.4,2.74-2.03
		S429.26,292.9,428.68,294.39z"></path>
	<path d="M404.89,285.57c-0.53,1.5-0.18,3,0.76,3.32c0.94,0.34,2.14-0.64,2.65-2.14c0.53-1.5,0.18-3-0.76-3.32
		C406.58,283.11,405.4,284.07,404.89,285.57z"></path>
	<path d="M417.79,285.07c0.23,3.34-2.26,7-3.66,9.9c-0.85,1.77-2.44,3.76-0.83,5.58" class="st3"></path>
	<path d="M409.61,314.23c4.44,0.28,7.83-4.61,9.88-7.74c-5.21-0.55-11.12-2.23-15.52-5.07c0,0-0.51,5.16,0.12,7.79
		C404.73,311.76,406.71,314.06,409.61,314.23z" class="st2"></path>
	<path d="M411.71,255.21c-4.51-1.1-10.11-0.05-13.7,2.97c-3.89,3.27-2.3,8.06-5.67,11.36
		c-3.94,3.85-9.05,3.92-11.75,9.61c-2.74,5.74-0.11,10.34,2.99,15.15c-1.71-7.21,1.4-12.51,7.72-13.86
		c4.63-0.99,9.53-0.18,13.11-3.62c3.18-3.04,3.34-8.01,8.11-9.24c7.62-1.98,20.2,12.6,25.03,0.55c-1.75,6.01,2.54,9.86,4.31,15.08
		c2.16,6.33-0.69,10.43-0.87,16.37c4.26-6.75,9.03-12.57,9.83-20.7c0.58-5.83,0.3-12.72-2.69-17.94
		c-4.22-7.33-14.42-12.6-22.75-13.06c-6.8-0.37-17.92,0.78-21.7,7.51" class="st9"></path>
	<path d="M436.52,264.11c-2.01,2.92-6.56,0.8-9.01-0.35c-3.61-1.7-6.88-2.85-10.94-2.17" class="st3"></path>
	<path d="M437.14,261.2c-1.41,1.17-3.34,0.11-4.6-0.76c-1.91-1.31-3.75-2.63-6.15-2.92" class="st3"></path>
	<path d="M440.29,264.55c1.86,0.46,2.46,2.6,2.76,4.22c0.39,2.12,0.92,4.08,1.57,6.17" class="st3"></path>
	<path d="M397.87,271.78c-2.53,3.46-6.06,3.92-10,4.45c-4.22,0.58-7.9,2.05-7.79,7.16" class="st3"></path>
</g>
<g>
	<g>
		<path d="M262.93,428.51c0.6,3.09,5.8,2.97,8.22,2.62c12.42-1.82,20.36-13.8,26.49-23.58
			c8.43-13.45,16.63-27.45,26.79-39.68c2.6-3.13,8.78-4.9,11.89-7.14c3.04-2.19,11.29-9.31,9.77-13.96
			c-0.34-1.03-1.54-1.4-1.89-2.37c-0.28-0.76,0.37-1.54,0.12-2.35c-0.51-1.63-1.27-3.45-3.27-3.66c1.06-2.28,0.71-7.09-2.95-6.45
			c0.94-1.75,3.34-5.44,1.96-7.39c-2.23-3.15-5.83,1.86-7.76,2.88c-4.61-1.34-8.25,5.11-10.99,8.06c-2.76,2.99-4.03,15.5-5.3,18.06
			c-1.47,2.92-4.51,5.5-6.68,7.85c-4.28,4.61-21.21,21.83-25.18,26.03c-5.66,5.99-13.56,11.05-17.81,18.19
			C262.4,412.31,260.88,421.02,262.93,428.51z" class="st2"></path>
		<path d="M334.51,325.78c-1.15,0.69-2.17,1.94-3.15,2.85c-2.23,2.05-4.58,4.05-6.66,6.26" class="st3"></path>
		<path d="M338.65,331.18c-1.11,1.4-2.32,2.69-3.57,3.96" class="st3"></path>
		<path d="M331.72,334.67c-0.39,0.69-1.03,1.2-1.57,1.77" class="st3"></path>
		<path d="M337.36,339.56c-0.62,0.71-1.17,1.4-2,1.86" class="st3"></path>
		<path d="M341.07,344.39c-0.6,0.51-1.2,1.03-1.82,1.52" class="st3"></path>
		<path d="M344.04,348.96c-0.46,0.71-1.06,1.2-1.82,1.52" class="st3"></path>
	</g>
	<g>
		<path d="M321.42,372.91l2.63-3.29c-10.53-6.54-13.13-11.29-13.17-11.35l-2.7,3.32
			C308.37,361.81,310.51,366.12,321.42,372.91z" class="st9"></path>
		<path d="M311.5,364.37c0.69-2.4,3.2-3.78,5.6-3.09s3.78,3.2,3.09,5.6s-3.2,3.78-5.6,3.09S310.81,366.78,311.5,364.37z" class="st9"></path>
		<path d="M312.61,364.71c0.51-1.79,2.37-2.81,4.15-2.3c1.79,0.51,2.81,2.37,2.3,4.15c-0.51,1.79-2.37,2.81-4.15,2.3
			C313.14,368.33,312.12,366.48,312.61,364.71z" class="st15"></path>
	</g>
</g>
<path d="M443.66,254.52c4.97-8.34,13.15-10.66,22.09-8.85c3.87,0.78,7.94,1.89,11.93,0.95
	c4.98-1.18,6.2-4.67,10.04-7.67c4.7-3.68,11.45-2.99,16.91-6.08" class="st3"></path>
<path d="M778.13,853.21c14.44-19.92,20.2-35.58,12.37-60.92c1.03,30.45-19.44,43.41-31.3,51.66
	c27.2-33.74,21.14-57.46,5.97-84.13c-12,33.31-21.05,66.61-57.47,82.96c-16.74,7.51-33.51,12.65-45.09,27.78
	c-8.93,11.68-17.11,24.55-21.49,38.69c-4.91,15.84-3.98,32.96-9.97,48.51c-6.04,15.68-18.68,27.34-31.42,37.72
	c-20.34,16.58-30.77,42.2-30.61,68.15c0.16,24.39,7.28,52.44,30.5,64.65c38.32,20.17,65.5,10.82,91.96-13.47
	c17.66-16.21,34.06-34.38,43.79-56.54c10.8-24.62,11.77-51.87,15.48-78.12c3.23-22.92,10.5-44.57,33.69-54.19
	c22.11-9.17,40.61-11.19,45.44-40.08c2.83-16.97-6.86-48.44-20.63-61.24C808.69,842.62,793.37,849.49,778.13,853.21z" class="st16"></path>
<path d="M435.46,1137.45c-15.69,34.53-39.15,64.3-56.54,97.22c-9.53,18.04-22.5,37.8-26.72,58.61
	c-1.71,8.48-0.05,8.22,7.94,11.61c5.14,2.17,10.59,3.62,15.59,6.06c9-5.2,15.34-19.28,21.65-27.43
	c6.89-8.93,12.55-18.57,18.19-28.35c11.19-19.32,24.44-37.47,34.73-57.3c5.8-11.15,10.09-23.12,12.8-35.26
	C467.12,1144.73,459.78,1143.69,435.46,1137.45z" class="st17"></path>
<path d="M865.19,823.74c-4.22-1.63-9.69-11.31-15.62-19.02c-2.3-2.99-13.64-11.2-16.81-5.2
	c-1.24,2.35,7.19,13.08,8.73,15.61c2.74,4.54,5.89,8.7,7.79,13.38c2.09,5.09,4.05,17.85,5.58,22.85c2.19,7.18,6.73,9.15,9.05,14.72
	c4.91,11.81-35.52,114.88-39.46,125.52c-3.57,9.63-58.68,105.65-85.01,130.94l34.46,65.36c31.74-48.76,49.06-70.64,71.83-123.89
	c4.49-10.52,17.87-47.42,21.54-58.25c3.78-11.1,29.21-136.65,29.6-139.02c11.74-4.75,14.69-22.92,17.27-34.13
	c-7.95-6.5-16.61-14.78-20.2-24.46c-4.17-0.88,4.08-15.11,5.37-17.36c4.01-6.98,10.59-13.48,13.4-21.14
	c0.99-2.69,3.08-6.13-0.27-8.09c-4.84-2.83-9.21,4.77-11.1,7.37c-3.09,4.24-6.54,8.77-9.33,13.2c-5.39,8.57-11.75,17.64-18.15,25.52
	c-3.96,4.88-9.03,12.19-11.7,13.84" class="st17"></path>
<g>
	<path d="M905.31,825.46c3.02-2.05,7.35,0.19,8.84,2.56c2.37,3.75-0.27,8.22-3.46,11.05
		c-4.6,4.05-14.81,11.22-20.4,5.6c-2.49-2.51-1.56-3.8,0.72-5.97C895.56,834.38,899.09,828.45,905.31,825.46z" class="st17"></path>
	<path d="M897.18,817.54c3.11-2.1,8.22-2.09,9.86,1.98c1.77,4.37-0.12,8.32-3.22,11.56
		c-3.78,3.96-8.25,8.29-13.52,10.11c-3.13,1.08-9.33,2.37-11.03-1.31c-1.25-2.72,1.52-5.07,3.41-7.14
		C886.37,828.69,890.47,822.88,897.18,817.54z" class="st17"></path>
	<path d="M893.51,808.16c5.6-1.59,7.35,6.24,5.81,9.88c-1.61,3.78-4.63,7.65-7.02,10.96
		c-3.08,4.28-7.62,7.14-12.37,9.35c-2.24,1.04-4.97,2.95-7.09,1.08c-2.44-2.16-1.03-5.09,0.69-7.19c2.39-2.92,6.59-4.33,8.87-6.91
		C886.58,820.6,886.61,811.89,893.51,808.16z" class="st17"></path>
	<path d="M900.86,864.54c-2.47,1.61-4.77,2.55-7.72,3.3" class="st18"></path>
	<path d="M859.49,859.55c3.91,3.15,7.83,8.66,10.48,12.85" class="st18"></path>
	<path d="M896.81,798.38l-2.67,5.44c-8.82-5.94-13.01-7.56-13.04-7.58l3.61-4.88
		C884.86,791.42,887.85,792.37,896.81,798.38z" class="st16"></path>
</g>
<path d="M339.39,1448.77c0,0-3.57,54.08-9.26,79.97l-83.52-21.58c2.54-26.93,5.62-55.39,9.24-81.78
	c3.2-23.28,9.37-45.16,28.3-62.78c24.16-22.48,59.05-8.82,75.85,11.61c21.65,26.3,106.69,133.4,106.69,133.4l-134.42,9.54" class="st16"></path>
<path d="M691.59,1185.24c0,0-18.88-13.01-26.78-17.9c-7.9-4.9-15.39-11.61-17.99-21.01
	c-1.34-4.86-1.29-10.11-0.71-15.25c0.71-6.26,2.14-12.46,4.29-18.42l-48.27-17.87c-2.24,5.92-5.2,11.58-8.73,16.77
	c-2.92,4.28-6.29,8.29-10.46,11.1c-8.09,5.44-18.17,5.67-27.34,4.22c-9.17-1.43-31.97-3.85-31.97-3.85l-25.2,68.08l167.97,62.19
	L691.59,1185.24z" class="st17"></path>
<path d="M334.64,1502.3c10.85-21.86,20.11-42.98,22.46-68.18" class="st18"></path>
<path d="M412.82,1437.17c14.53,16.05,34.69,47.75,48.83,64.1c21.93,25.36,41.85,28.22,72.04,40.83
	c25.57,10.67,24.42,8.41,50.03,11.91c13.06-37.08,87.77-152.66,96.06-178.26c7.39-22.8,40.17-85.54,55.16-103.5
	c21.92-26.25,42.38-61.08,62.97-88c18.17-23.74,46.41-95.49,46.41-95.49c-27.87-22.37-52.91-39.66-63.36-39.73
	c-12.92,25.59-71.67,104.15-113.68,106.32c-8.15,0.42-11.88-3.52-19.05-5.09c-11.58,26.3-48.09,19.41-65.06,3.16
	c-7.83-7.49-11.47-18.5-7.39-29.37c-34.41,0.95-49.49-45.26-90.28-45.26c-14.69,0-33.01,16.08-43.57,25.75
	c-31.25,28.61-47.67,82.87-74.71,133.03c30.36,19.12,58.78,24.07,58.78,24.07c-15.43,40.63-24,92.36-46.46,136L412.82,1437.17z" class="st19"></path>
<pattern patternTransform="matrix(0.0625 0 0 -0.0625 -13742.668 -1823.1807)" xlink:href="#SVGID_5_" id="SVGID_10_">
</pattern>
<path d="M412.82,1437.17c14.53,16.05,34.69,47.75,48.83,64.1c21.93,25.36,41.85,28.22,72.04,40.83
	c25.57,10.67,24.42,8.41,50.03,11.91c13.06-37.08,87.77-152.66,96.06-178.26c7.39-22.8,40.17-85.54,55.16-103.5
	c21.92-26.25,42.38-61.08,62.97-88c18.17-23.74,46.41-95.49,46.41-95.49c-27.87-22.37-52.91-39.66-63.36-39.73
	c-12.92,25.59-71.67,104.15-113.68,106.32c-8.15,0.42-11.88-3.52-19.05-5.09c-11.58,26.3-48.09,19.41-65.06,3.16
	c-7.83-7.49-11.47-18.5-7.39-29.37c-34.41,0.95-49.49-45.26-90.28-45.26c-14.69,0-33.01,16.08-43.57,25.75
	c-31.25,28.61-47.67,82.87-74.71,133.03c30.36,19.12,58.78,24.07,58.78,24.07c-15.43,40.63-24,92.36-46.46,136L412.82,1437.17z" class="st20"></path>
<path d="M701.48,1046.91c1.01-8.57-0.14-17.18-3-25.18c-4.7-13.18-14-24.78-25.75-32.01l-8.45-3.13
	c-13.63-2.17-28.22,0.57-40.38,7.51c-7.39,4.22-13.87,9.99-18.68,17.16c-9.26,13.79-12,30.68-14.51,46.94
	c-2.51,16.22-4.24,32.77,4.33,46.38c5.14,8.15,11.29,14.95,21.93,18.89l2.54,0.94c11.89,4.4,19.74,2.79,28.95-0.05
	c15.36-4.74,24.81-18.43,33.47-32.38C690.62,1078,699.54,1063.4,701.48,1046.91z" class="st17"></path>
<path d="M610.4,1078.77c4.52-4.1,4.88-11.08,0.78-15.61s-11.08-4.88-15.61-0.78c-4.52,4.1-4.88,11.08-0.78,15.61
	S605.87,1082.86,610.4,1078.77z" class="st8"></path>
<path d="M653.94,1094.89c-0.76-6.06,3.52-11.58,9.58-12.35c6.06-0.76,11.58,3.52,12.35,9.58
	c0.76,6.06-3.52,11.58-9.58,12.35C660.25,1105.23,654.72,1100.95,653.94,1094.89z" class="st8"></path>
<path d="M655.8,1053.16c16.9-1.13,25.31,11.93,25.31,11.93" class="st18"></path>
<path d="M635.77,1045.74c-12.09-11.86-26.97-7.42-26.97-7.42" class="st18"></path>
<path d="M664.33,1071.76c-1.13,2.88-3.52,4.65-5.32,3.92c-1.8-0.71-2.33-3.62-1.2-6.5c1.13-2.88,3.52-4.65,5.32-3.92
	C664.94,1065.96,665.47,1068.88,664.33,1071.76z"></path>
<path d="M618.22,1054.68c-1.01,2.93-0.35,5.81,1.47,6.45c1.82,0.64,4.14-1.22,5.14-4.15c1.01-2.93,0.35-5.81-1.47-6.45
	S619.25,1051.75,618.22,1054.68z"></path>
<path d="M643.23,1053.71c0.44,6.49-4.37,13.56-7.1,19.18c-1.66,3.43-4.72,7.28-1.59,10.82" class="st18"></path>
<path d="M627.38,1110.21c8.57,0.55,15.16-8.93,19.16-15c-10.11-1.04-21.54-4.33-30.06-9.83c0,0-0.99,9.99,0.27,15.09
	C617.94,1105.41,621.78,1109.86,627.38,1110.21z" class="st17"></path>
<path d="M674.89,984.34c-71.26-22.87-91.16,55.02-91.16,55.02c11.24,11.47,32.77-11.89,41.23-19.44
	c14.44-12.88,36.11-12.95,47.14,1.77c13.4-2.51,20.57,14.86,20.04,25.33c-0.71,14.21-12.55,30.61,4.7,40.65
	C696.84,1087.66,744.86,1006.79,674.89,984.34z" class="st21"></path>
<path d="M583.73,1039.36c11.24,11.47,32.77-11.89,41.23-19.44c14.44-12.88,36.11-12.95,47.14,1.77
	c13.4-2.51,20.57,14.86,20.04,25.33c-0.71,14.21-12.55,30.61,4.7,40.65" class="st18"></path>
<path d="M619.07,977.31c10.41-15.59,16.75-26.16,17.67-44.59c0.78-15.55-0.23-30.06,3.53-45.21
	c8.01-32.15,31.23-44.7,58.45-58.92c22.18-11.59,35.24-22.96,45.23-47.26" class="st18"></path>
<path d="M748.67,993.41c5.23-23.05,10.23-42.82,33.58-51.75c19.25-7.37,36.9-9.88,46.53-31.9" class="st18"></path>
<path d="M654.12,965.8c10.11-16.84,9.28-32.04,11.93-50.39c3.61-25.04,21-35.1,42.86-44.17" class="st18"></path>
<path d="M655.89,985.25c13.71-10.82,19.25-22.69,22.2-39.55c2.76-15.71,0-34.39,16.68-43.51" class="st18"></path>
<path d="M780.94,908.81c-28.19,9.23-45.74,33.65-48.96,64.77c-1.93,18.7,1.06,40.24-5.64,58" class="st18"></path>
<path d="M546.03,1107.7c-2.81,15.96-5.25,31.53-7.99,47.1c-1.89,10.76-8.04,25.61-6.22,36.57
	c1.68,10.11,10.53,21.35,15.09,30.63c9.14,18.63,19.85,34.85,19.14,56.56c20.59-17.69,47.63-28.58,72.36-39.02
	c44.11-18.63,43.16-54.03,57.81-96.46c2.95-1.5,10.25-3.61,12.39-5.74c-5.9,29.55-1.03,45.69-2.33,76.14
	c-0.67,15.82-4.84,31.49-4.74,47.42c0.12,19.88,11.68,37.72,14.39,57.72c-21.05,32.64-61.8,133.15-61.8,133.15
	c-88.37-24.97-166.89-56.43-258.67-119.88c0,0,46.5-101.66,57.49-126.37c11.47-6.17,22.68-20.4,32.4-30.12
	C502.96,1157.77,533.23,1129.69,546.03,1107.7z" class="st22"></path>
<g>
	<g>
		<g>
			<path d="M722.78,1457.18c-8.32-20.78-18.45-41.25-22.45-63.47c-1.93-10.73-2.07-21.24-0.97-32.02
				c0.3-2.93,2.19-35.35,2.26-35.35c8.75-0.99,17.53,1.59,23.95-0.11c-0.44,4.91-3.08,22.15-6.95,41.74
				c-2,10.09,0.09,20.29,2.47,30.35c4.31,18.15,14.51,33.12,21.42,50.33C736,1453.43,722.78,1457.18,722.78,1457.18z" class="st16"></path>
		</g>
	</g>
	<path d="M668.4,1147.24c5.6,9.9,20.77,126.03,25.86,145.98c4.03,15.78,6.43,16.1,10.52,32.06
		c6.04-0.11,13.91-0.88,19.87-1.91c1.63-8.17,5.14-16.05,7.02-24.09c1.98-8.54,2.72-17.81,3.29-27.01
		c1.43-22.82-13.03-113.94-20.73-135.43C710.75,1127.23,662.66,1137.1,668.4,1147.24z" class="st16"></path>
	<path d="M713.89,1354.76c-0.83,0.04-1.7,0-2.6-0.07l0,0c-12.35-1.18-14.76-12.34-14.3-18.06l1.68-20.85
		c0.05-0.67,0.37-1.29,0.9-1.73c0.51-0.44,1.18-0.64,1.87-0.58l26.3,2.53c1.38,0.12,2.39,1.34,2.28,2.72l-1.68,20.85
		c-0.02,0.32-0.67,7.65-5.92,12.05C720.06,1353.58,717.2,1354.64,713.89,1354.76z M703.52,1318.73l-1.47,18.31
		c-0.09,1.18-0.57,11.65,9.74,12.64l0,0c3.06,0.3,5.48-0.34,7.37-1.91c3.62-3.02,4.15-8.55,4.15-8.61l1.48-18.38L703.52,1318.73z"></path>
	<polygon points="725.31,1320.64 703.02,1318.5 701.17,1341.4 723.47,1343.56" class="st16"></polygon>
	<line y2="1331.86" x2="723.7" y1="1329.72" x1="701.4" class="st18"></line>
	<path d="M689.52,1140.1c12.48,45.58,25.49,109.61,26.42,159.54" class="st18"></path>
</g>
<g>
	<g>
		<g>
			<path d="M349.29,1356.25c17.71-13.71,36.8-26.23,51.5-43.37c7.1-8.27,12.53-17.27,17.05-27.13
				c1.24-2.69,15.99-31.58,15.94-31.64c-7.05-5.28-15.92-7.51-20.59-12.21c-2.12,4.47-8.55,20.66-15.15,39.52
				c-3.39,9.7-10.36,17.46-17.5,24.92c-12.9,13.47-29.29,21.21-43.95,32.55C339.8,1346.33,349.29,1356.25,349.29,1356.25z" class="st16"></path>
		</g>
	</g>
	<path d="M553.12,1116.51c-9.84,5.69-81.72,98.18-96.2,112.79c-11.45,11.58-13.7,10.64-25.31,22.32
		c-5.16-3.15-11.56-7.79-16.17-11.7c2.74-7.86,3.69-16.44,6.15-24.34c2.62-8.36,6.68-16.74,10.83-24.96
		c10.32-20.41,68.93-91.67,86.44-106.29C526.73,1077.8,563.21,1110.66,553.12,1116.51z" class="st16"></path>
	<path d="M403.07,1265.37c-2.3-6.45,0.85-13.11,0.99-13.38l9.12-18.84c0.6-1.24,2.09-1.77,3.34-1.18l23.97,11.13
		c0.62,0.28,1.1,0.81,1.31,1.45c0.23,0.64,0.19,1.34-0.11,1.94l-9.12,18.84c-2.51,5.18-10.22,13.57-21.47,8.34l0,0
		c-0.81-0.37-1.57-0.8-2.28-1.25C406.02,1270.64,404.09,1268.27,403.07,1265.37z M416.64,1237.59l-8.02,16.6
		c-0.02,0.05-2.37,5.09-0.78,9.53c0.83,2.33,2.6,4.1,5.39,5.39l0,0c9.38,4.37,14.26-4.9,14.79-5.96l7.99-16.52L416.64,1237.59z"></path>
	<polygon points="416.25,1237.2 436.56,1246.65 426.54,1267.35 406.23,1257.91" class="st16"></polygon>
	<line y2="1247.71" x2="411.96" y1="1257.15" x1="432.26" class="st18"></line>
	<path d="M538.52,1099.65c-33.83,32.98-77.48,81.62-103.55,124.21" class="st18"></path>
</g>
<g>
	<g>
		<path d="M339.71,1331.59c1.18,5.99,14.78,5.76,19.46,5.07c24.05-3.52,39.45-26.72,51.32-45.69
			c16.33-26.07,32.22-53.16,51.92-76.86c5.02-6.04,17.04-9.49,23.05-13.82c5.89-4.22,21.88-18.04,18.95-27.04
			c-0.64-1.96-2.97-2.7-3.66-4.6c-0.53-1.48,0.71-2.99,0.23-4.54c-0.97-3.15-2.46-6.68-6.33-7.09c2.07-4.42,1.38-13.73-5.71-12.48
			c1.82-3.39,6.45-10.55,3.8-14.3c-4.31-6.1-11.31,3.59-15.04,5.57c-8.93-2.62-15.99,9.88-21.3,15.61
			c-5.36,5.8-7.79,30.04-10.29,34.98c-2.85,5.66-8.71,10.64-12.95,15.2c-8.27,8.94-44.64,42.28-52.31,50.42
			c-10.96,11.63-26.26,21.4-34.52,35.24C338.66,1300.19,335.73,1317.08,339.71,1331.59z" class="st17"></path>
		<path d="M481.89,1132.57c-2.23,1.33-4.21,3.76-6.1,5.51c-4.29,3.98-8.89,7.83-12.9,12.11" class="st18"></path>
		<path d="M489.9,1143.05c-2.16,2.7-4.49,5.2-6.91,7.65" class="st18"></path>
		<path d="M476.5,1149.79c-0.76,1.33-1.98,2.33-3.06,3.43" class="st18"></path>
		<path d="M487.42,1159.26c-1.2,1.38-2.26,2.7-3.87,3.59" class="st18"></path>
		<path d="M494.62,1168.61c-1.17,1.01-2.33,2-3.53,2.93" class="st18"></path>
		<path d="M500.34,1177.48c-0.88,1.36-2.07,2.33-3.53,2.93" class="st18"></path>
	</g>
	<g>
		<path d="M456.53,1223.87l5.13-6.38c-20.43-12.69-25.43-21.88-25.5-21.99l-5.23,6.42
			C431.27,1202.38,435.39,1210.74,456.53,1223.87z" class="st16"></path>
		<path d="M437.3,1207.35c1.34-4.65,6.19-7.33,10.85-6.01c4.65,1.34,7.33,6.19,6.01,10.85
			c-1.34,4.65-6.19,7.33-10.85,6.01C438.66,1216.86,435.98,1212.01,437.3,1207.35z" class="st16"></path>
		<path d="M439.49,1207.98c0.99-3.45,4.58-5.44,8.02-4.45c3.45,0.99,5.44,4.58,4.45,8.02
			c-0.99,3.45-4.58,5.44-8.02,4.45S438.5,1211.43,439.49,1207.98z" class="st15"></path>
	</g>
</g>
<path d="M671.21,1020.22c-8.5-16.51-32.13-0.25-40.17,7.51c-10.55,10.14-30.54,26.95-45.54,12.81" class="st18"></path>
<path d="M701.25,1036.13c7.07,8.71-0.05,20.48-0.88,29.6c-1.57,17.2,13.61,17.71,20.32,2.21" class="st18"></path>
<path d="M1822.53,1033.67c-5.3,4.98-6.56,7.46-10.34,11.05c-7.21,6.88-12.57,11.47-21.14,13.63
	c-9.33,2.33-23.7,3.92-15.94-9.93c8.01-14.32,14.63-14.46,27.48-23.17c3.16-2.14,6.08-7.28,9.28-9.23c3.36-2.05,9.51,4.05,9.51,4.05
	S1829.51,1027.1,1822.53,1033.67z" class="st23"></path>
<path d="M1780.95,1040.74c2.33,0.28,4.56,3.3,5.97,4.91c1.5,1.7,2.88,3.52,3.87,5.53c0.6,1.22,1.91,4.51,1.08,6.01
	c-0.78,1.4-4.72,1.77-6.26,1.86c-2.37,0.16-4.98-0.19-7-1.2C1771.23,1054.14,1775.47,1046.59,1780.95,1040.74z" class="st15"></path>
<path d="M1821.44,994.91c-3.46,23.33-0.46,26.47-3.11,29.76c-2.32,2.88-8.02,7.44-11.7,8.29
	c-2.85,0.65-7.67-2.77-6.82-5.9c0.3-1.11,1.04-2.05,1.71-3c7.44-10.37,4.22-24.78,2.7-50.21" class="st15"></path>
<g>
	<g>
		<path d="M1821.4,1020.06c2.65,2.97,4.49,6.59,1.43,10.78c-2.85,3.87-5.94,5.13-9.67,8.02
			c-2.56,2-4.79,4.52-7.23,6.65c-2.49,2.19-4.77,4.19-7.55,5.76c-2.37,1.34-5.25,3.13-7.97,3.61c-6.7,1.15-19.6,2.32-14.51-7.21
			c1.7-3.16,4.63-8.01,8.18-10.66c-3.06,2.6-5.9,5.99-8.94,11.42c-7.76,13.86,6.61,12.27,15.94,9.93
			c8.57-2.16,13.91-6.75,21.14-13.63c3.76-3.59,9.24-5.28,12.53-10.48C1828.98,1027.56,1822.23,1020.33,1821.4,1020.06z" class="st15"></path>
	</g>
</g>
<path d="M1807.56,1032.61c-3.55,0.65-7.07,4.86-9.9,6.8c-2.63,1.8-8.36,5.69-7.65,9.61" class="st24"></path>
<path d="M1797.81,1027.89c0.64-1.18,2.53-3.55,3.64-4.42c1.34-1.04,2.6-0.58,3.94,0.42c1.31,0.97,2.47,2.51,3.13,4.01
	c1.25,2.9-0.65,3.94-3.2,5.81l-10.09,7.41" class="st23"></path>
<path d="M1791.14,1031.04c1.82,3.78,3.82,7.49,5.62,11.12" class="st25"></path>
<path d="M1789.06,1032.7c2.99,2.28,7.79,6.01,11.2,6.77" class="st25"></path>
<path d="M1787.19,1034.87c1.79,3.43,3.18,7.32,5.53,10.39" class="st25"></path>
<path d="M1784.53,1037.1c3.2,1.86,6.96,4.63,10.52,5.97" class="st25"></path>
<path d="M1795.83,1027.17c1.79,3.43,3.18,7.32,5.53,10.39" class="st25"></path>
<path d="M1793.16,1029.38c3.2,1.86,6.96,4.63,10.52,5.97" class="st25"></path>
<path d="M1834.89,930.62c0,0-1.04,19.46-2.97,28.81c-1.31,6.33-6.1,20.5-9.33,38.4c-6.72,0.71-13.08-1.8-19.37-4.9
	c0,0-2.44-38.48,1.52-70.32c1.04-8.38,3.16-16.28,9.88-22.71c8.59-8.2,21.19-3.43,27.34,3.84c7.9,9.37,25.94,30.06,25.94,30.06
	c6.73,11.28,6.08,31.39,10.29,43.49c-1.41,6.8-1.5,23.22-3.82,28.4c-1.54-1.1-7.72-6.2-16.42-17.69
	c-8.09-10.69-25.31-32.75-25.31-32.75" class="st26"></path>
<path d="M1834.8,935c0,0-3.08,15.13-5.64,24.32c-2.33,8.36-4.77,19.67-8.01,37.57" class="st27"></path>
<path d="M1875.01,991.02c-1.52-1.04-7.63-5.85-16.31-16.58c-8.09-9.99-25.26-28.03-25.26-28.03" class="st27"></path>
<path d="M1960.33,834.24c0,0-6.84-4.6-9.7-6.31c-2.86-1.71-5.58-4.1-6.57-7.48c-0.51-1.75-0.51-3.62-0.32-5.48
	c0.23-2.26,0.71-4.49,1.47-6.65l-17.44-6.2c-0.78,2.14-1.82,4.19-3.06,6.08c-1.03,1.56-2.23,3-3.71,4.05c-2.88,2-6.5,2.12-9.81,1.64
	s-11.52-1.24-11.52-1.24l-8.75,24.6l60.69,21.6L1960.33,834.24z" class="st15"></path>
<path d="M1963.27,784.46c0.32-3.09-0.12-6.17-1.2-9.05c-1.75-4.72-5.14-8.84-9.4-11.4l-3.06-1.08
	c-4.91-0.72-10.14,0.34-14.49,2.88c-2.63,1.56-4.95,3.66-6.65,6.26c-3.27,5-4.17,11.08-5,16.95c-0.83,5.85-1.38,11.81,1.77,16.65
	c1.89,2.92,4.14,5.32,7.97,6.7l0.92,0.34c4.29,1.52,7.1,0.92,10.41-0.16c5.5-1.77,8.84-6.73,11.89-11.79
	C1959.5,795.7,1962.65,790.39,1963.27,784.46z" class="st15"></path>
<path d="M1930.66,796.33c1.61-1.5,1.7-4.01,0.21-5.62c-1.5-1.61-4.01-1.7-5.62-0.21c-1.61,1.5-1.7,4.01-0.21,5.62
	C1926.54,797.73,1929.05,797.82,1930.66,796.33z" class="st8"></path>
<path d="M1946.39,801.94c-0.3-2.17,1.22-4.19,3.39-4.49c2.17-0.3,4.19,1.22,4.49,3.39s-1.22,4.19-3.39,4.49
	C1948.7,805.63,1946.69,804.11,1946.39,801.94z" class="st8"></path>
<path d="M1946.87,786.91c6.06-0.48,9.16,4.17,9.16,4.17" class="st24"></path>
<path d="M1939.64,784.35c-4.4-4.21-9.74-2.54-9.74-2.54" class="st24"></path>
<path d="M1950.03,793.56c-0.39,1.04-1.24,1.68-1.89,1.43c-0.65-0.25-0.87-1.29-0.46-2.33c0.39-1.04,1.24-1.68,1.89-1.43
	C1950.21,791.47,1950.42,792.52,1950.03,793.56z"></path>
<path d="M1933.36,787.64c-0.35,1.06-0.11,2.09,0.57,2.32c0.65,0.21,1.48-0.46,1.84-1.52c0.35-1.06,0.11-2.09-0.57-2.32
	C1934.53,785.91,1933.72,786.58,1933.36,787.64z"></path>
<path d="M1942.36,787.18c0.19,2.33-1.5,4.9-2.46,6.93c-0.58,1.24-1.66,2.63-0.53,3.91" class="st24"></path>
<path d="M1936.92,807.56c3.09,0.16,5.41-3.29,6.82-5.48c-3.64-0.34-7.76-1.45-10.85-3.39c0,0-0.32,3.59,0.16,5.43
	C1933.49,805.88,1934.9,807.47,1936.92,807.56z" class="st15"></path>
<path d="M1849.47,1135.43c-6.26,17.57-9.77,29.85-10.09,31.83c-1.68,10.99-3.06,21.51-10.85,30.03
	c-1.89,2.07-3.66,4.1-5.58,6.03c-2.85,2.86-5.66,4.44-9.69,5.83l-4.26-3.59c-1.18-9.56-0.71-14.28,3.69-23.12
	c8.17-16.37,17.25-23.1,24.46-51.38" class="st15"></path>
<path d="M1806.29,1200.31c1.63-4.56,4.19-8.18,6.34-12.35c2.17-4.22,4.06-8.15,5.89-12.62
	c1.66-4.08,2.65-9.01,7.21-7.94c1.56,0.37,5.36,1.66,6.56,2.79c2.4,2.26-1.24,9.37-2.01,11.56c-1.87,5.28-4.28,10.43-5.5,15.91
	c-0.62,2.76,0.05,6.29-1.66,8.62c-2.9,3.96-7.33,3.04-11.15,2.17C1807.74,1207.52,1806.11,1204.43,1806.29,1200.31z" class="st23"></path>
<path d="M1874.55,984.45c-6.33,25.93-14.51,59.05-21.6,84.78c-7.28,26.42-19.81,64.91-19.81,64.91l20.27,7.21
	c6.31-15.39,25.29-58.41,25.29-58.41c3.71-10.71,15.23-31.44,20.32-41.57c14.55-28.97,28.6-55.46,36-87.27l-67.11-20.34" class="st26"></path>
<pattern patternTransform="matrix(0.0236 0.0176 0.0176 -0.0236 -16927.9824 -4719.0605)" xlink:href="#SVGID_6_" id="SVGID_11_">
</pattern>
<path d="M1867.9,933.78c0,0-18.04-20.7-25.94-30.06c-6.13-7.26-18.75-12.04-27.34-3.84
	c-6.72,6.42-8.85,14.32-9.88,22.71c-3.96,31.87-1.52,70.32-1.52,70.32c6.29,3.09,12.65,5.62,19.37,4.9
	c3.25-17.89,8.02-32.06,9.33-38.4c0.25-1.24,0.49-2.65,0.72-4.17l0,0c0,0,17.21,22.06,25.31,32.75c5.11,6.73,9.33,11.26,12.27,14.09
	c-5.48,22.23-11.72,46.96-17.27,67.14c-7.28,26.42-19.81,64.91-19.81,64.91l20.27,7.21c6.31-15.39,25.29-58.41,25.29-58.41
	c3.71-10.71,15.23-31.44,20.32-41.57c14.55-28.97,28.6-55.46,36-87.27L1867.9,933.78z" class="st28"></path>
<path d="M1807.81,1197.52c4.68-1.29,4.68-0.83,6.19-5.07c1.91-5.41,3.59-10.09,6.08-16.14
	c1.87-4.52,2.79-13.7,2.79-13.7c-6.31,14.28-18.7,29.18-17.9,45.67c0.78,15.96,12.19,6.95,18.91-0.04
	c9.38-9.76,12.41-19.78,15.48-40.91c-2.65,2.99-6.98,4.88-9.33,7.94c-1.82,2.37-2.58,6.33-3.59,9.15
	c-1.25,3.52-2.77,6.77-4.15,10.18c-1.59,3.96-0.71,6.2,0.8,10.48" class="st23"></path>
<path d="M1805.83,1198.62c2.14-1.01,5.66,0.39,7.72,1.01c2.19,0.65,4.33,1.47,6.26,2.65c1.17,0.72,4.03,2.83,4.12,4.56
	c0.09,1.61-3.09,4.03-4.35,4.93c-1.93,1.4-4.35,2.49-6.63,2.7C1804.68,1215.23,1804.28,1206.52,1805.83,1198.62z" class="st15"></path>
<g>
	<path d="M1822.18,1206.8c-5.11,4.56-14.23,10.5-14.97-0.34c-0.41-5.96,1.57-15.52,4.15-22.57
		c-3.84,7.6-6.8,15.46-6.38,24.37c0.78,15.96,12.19,6.95,18.91-0.04c4.65-4.82,7.74-9.72,10.04-15.99
		C1831.14,1196.64,1827.66,1201.9,1822.18,1206.8z" class="st15"></path>
</g>
<path d="M1820.15,1172.35c2.07,3.61,5.35,6.68,8.64,9.28" class="st25"></path>
<path d="M1817.96,1177.02c4.05-0.18,9.01,1.08,12.85-0.34" class="st25"></path>
<path d="M1816.77,1180.34c2.97,2.86,7.23,4.4,10.14,7.25" class="st25"></path>
<path d="M1815.39,1183.49c3.94,0.09,8.08,0.23,12.04,0.46" class="st25"></path>
<path d="M1814.37,1186.35c3.34,2.6,6.82,5.02,10.06,7.48" class="st25"></path>
<path d="M1813.25,1188.79c3.71,0.71,9.72,1.91,13.13,1.04" class="st25"></path>
<path d="M1812.55,1191.58c3.15,2.28,6.15,5.16,9.67,6.86" class="st25"></path>
<path d="M1811.15,1194.78c3.71,0.23,8.36,1.04,12.14,0.64" class="st25"></path>
<path d="M1928.13,964c-7.85,22.06-23.15,55.72-34,76.19c-9.4,17.74-12.67,28.31-19.3,42.93
	c-7.51,16.56-25.77,58.87-24.99,56.96" class="st27"></path>
<path d="M1879.76,1072.29c-2.33-0.83-4.67-1.66-7.02-2.49" class="st27"></path>
<path d="M1879.23,1075.26c-3.5,0.09-7.02,0.05-10.52-0.05" class="st27"></path>
<path d="M1878.43,982.82c2.35,4.42,4.67,7.62,7.46,11.61" class="st27"></path>
<path d="M1879.9,980.17c5.9,5.05,11.58,10.11,17.11,15.57" class="st27"></path>
<path d="M1875.41,982.74c3.11-12,12.11-32.59,16.33-41.73" class="st27"></path>
<path d="M1879.39,969.75c-3.57-10.48-1.24-17.62,4.7-30.2" class="st27"></path>
<path d="M1918.75,944.58c-2.26,6.43-3.38,13.27-3.2,20.11c0.14,5.87,1.94,15.78,4.82,18.73" class="st27"></path>
<g>
	<path d="M1843.78,1131.65c-3.34-1.1-6.63-2.33-9.97-3.5c-0.39-0.14-0.8-0.27-1.18-0.18c-0.76,0.18-1.1,1.11-1.04,1.89
		c0.05,0.78,0.35,1.54,0.28,2.33c-0.09,0.99-0.72,1.84-1.22,2.7c-0.49,0.87-0.85,1.96-0.37,2.83c0.23,0.42,0.64,0.72,1.04,1.01
		c4.33,3.11,9.17,5.5,14.28,7.07c2.05,0.64,4.19,1.13,6.34,1.01c0.65-0.04,1.33-0.16,1.82-0.58c1.06-0.97,0.46-2.72,0.78-4.12
		c0.37-1.66,1.98-2.7,2.93-4.1c0.21-0.32,0.41-0.67,0.39-1.06c-0.09-2.17-4.74-2.7-6.27-3.06
		C1848.92,1133.28,1846.34,1132.5,1843.78,1131.65z" class="st26"></path>
	<path d="M1837.36,1137.98c3.92,0.3,7.99-0.09,11.84,0.41" class="st27"></path>
	<path d="M1851.5,1143.94c1.22-1.59,3.5-2.97,5.16-4.95" class="st24"></path>
	<path d="M1831.58,1129.87c0.28,2.33,0.95,4.35,1.57,6.04" class="st24"></path>
</g>
<path d="M1833.42,949.9c3.8-7.92,7.03-15.55,7.76-24.62" class="st24"></path>
<path d="M1913.46,815.24c5.6,10.36,24.21,15.94,37.17,12.69l-34.75,121.66c-13.29-4.21-27.98-6.27-40.86-11.95
	c-5.74-2.53-8.62-5.89-10.78-12.14c2.95-14.26,7.81-29.06,14.12-42.26c5.34-11.2,9.69-22.69,13.82-34.38
	c1.82-5.13,4.1-9.95,6.75-14.7C1902.15,828.45,1909.19,820.26,1913.46,815.24z" class="st15"></path>
<g>
	<g>
		<path d="M1933.27,669.9c2.42-0.04,3.31-2.24,4.7-3.87c1.17-1.34,3.18-2.46,4.79-2.95c0.95-0.3,2.19-0.32,2.92,0.58
			c1.01,1.24-0.74,1.91-1.66,2.69c-1.38,1.18-2.72,2.6-3.73,4.08c-1.29,1.89-2.16,4.12-3.59,5.89c-1.79,2.23-4.45,4.35-6.73,6.01
			c-1.15,0.83-2.53,1.98-3.43,3.09c-2.03,2.51-15.48,34.16-17.37,41.48c-1.38,5.32-9.61,44.36-8.2,57.42l-24.58,10.07
			c2.49-20.78,7.37-36.78,13.38-56.73c1.18-3.94,3.82-12.44,5.3-16.29c3.22-8.32,16.91-33.14,18.96-37.72
			c1.11-2.47,1.11-5.18,1.15-7.78c0.04-2.44-0.02-4.84,0.41-7.28c0.46-2.65,0.8-5.36,0.69-8.06c-0.09-2.23-0.69-4.38-1.03-6.56
			c-0.27-1.64-0.51-3.36-0.34-5c0.11-0.95,0.46-2.35,1.43-1.25c0.88,0.99,1.2,3.32,1.52,4.58c0.37,1.47,0.78,2.97,1.2,4.42
			c0.67,2.26,0.83,4.28,3.3,4.91c1.93,0.49,4.07,0.27,5.85,0.81c4.82-3.66,5.96-12.44,8.31-15.43c2.21-2.79,2.33,1.57,2.07,3.11
			c-0.42,2.58-1.18,5.11-2.1,7.55c-1.4,3.78-2.9,8.18-2.58,11.89" class="st15"></path>
		<path d="M1924.31,659.75c-0.05-1.24-1.68-2.53-2.83-2.1c-1.52,0.57-1.73,3.45-1.87,4.79
			c-0.21,2.09-0.21,4.33,0.05,6.42c0.16,1.2,1.04,3.02,2.39,1.94c0.97-0.78,1.24-2.47,1.48-3.69c0.19-0.99,0.41-1.98,0.53-2.99
			C1924.26,662.63,1924.17,661.13,1924.31,659.75z" class="st15"></path>
		<path d="M1927.35,658.62c-0.14-0.12-0.32-0.23-0.49-0.3c-2.86-1.24-3.61,3.98-3.82,5.67
			c-0.21,1.7-0.32,3.41-0.34,5.13c0,0.78,0.02,1.57,0.34,2.28c0.14,0.3,0.37,0.6,0.69,0.72c0.42,0.16,0.9-0.04,1.22-0.35
			c0.32-0.32,0.49-0.74,0.65-1.15c1.06-2.58,2.14-5.18,2.63-7.94c0.14-0.81,0.23-1.64,0.05-2.46
			C1928.15,659.61,1927.83,659.01,1927.35,658.62z" class="st15"></path>
	</g>
	<path d="M1934,669.79c-2.67,0.41-5.18,1.38-6.95,2.72c-1.68,1.27-2.95,2.9-4.51,4.28" class="st24"></path>
</g>
<path d="M1851.57,914.96c4.54,5.25,8.41,10.11,12.39,15.57c3.22,4.42,4.37,9.74,7.48,13.98
	c2.77-21.1,12.71-45.67,21.6-64.84c6.88-14.85,26.69-45.23,26.26-50.07c-0.53-6.19,1.08-18.38,1.08-18.38
	c-2.03-0.94-7.05-1.18-7.05-1.18c-9.47-11.77-5.74-41.57-3.41-51.62c-2.9-2.39-22.13-3.71-34.98-3.98
	c-1.06,10.73-2.49,18.49-2.95,29.21c-0.53,12.18,0.49,23.93,0.49,36.23c0,8.41-7.9,23.12-11.13,31.11
	c-3.62,8.98-18.45,37.75-24.48,48.25C1841.04,901.76,1845.72,908.14,1851.57,914.96z" class="st29"></path>
<path d="M1918.77,830.41c-2.44-1.93-7.79-0.19-10.87,0.62c-0.44-2.69,1.94-8.29,2.6-10.89c0.85-3.36,1.8-6.5,2.97-9.79" class="st24"></path>
<g>
	<g>
		<path d="M2024.54,702.38c-1.84-1.56-1.15-3.84-1.2-5.97c-0.05-1.79-0.9-3.91-1.86-5.3c-0.57-0.83-1.5-1.63-2.63-1.38
			c-1.56,0.34-0.62,1.94-0.41,3.13c0.32,1.79,0.48,3.73,0.32,5.51c-0.19,2.28-0.94,4.56-0.94,6.82c-0.02,2.86,0.71,6.19,1.41,8.91
			c0.35,1.38,0.71,3.11,0.71,4.58c-0.02,3.23-9.58,36.27-12.74,43.14c-2.3,4.98-20.57,40.47-29.92,49.68l12.69,23.35
			c11.19-17.67,17.53-33.17,25.47-52.42c1.57-3.8,4.91-12.05,6.19-15.98c2.77-8.48,7.83-36.37,9.14-41.21
			c0.71-2.62,2.4-4.72,4.03-6.75c1.52-1.91,3.06-3.75,4.29-5.9c1.33-2.35,2.77-4.67,4.56-6.68c1.47-1.66,3.29-2.97,4.95-4.44
			c1.24-1.1,2.53-2.28,3.41-3.68c0.51-0.81,1.13-2.12-0.32-1.87c-1.31,0.21-3.04,1.82-4.06,2.58c-1.22,0.92-2.47,1.82-3.73,2.65
			c-1.96,1.33-3.36,2.79-5.67,1.71c-1.8-0.83-3.32-2.37-5.05-3.06c-1.43-5.89,3.25-13.41,3.32-17.21c0.05-3.55-2.81-0.25-3.57,1.1
			c-1.31,2.26-2.3,4.7-3.15,7.18c-1.31,3.8-2.92,8.18-5.51,10.85" class="st15"></path>
		<path d="M2037.9,700.19c0.81-0.92,2.9-0.9,3.52,0.16c0.81,1.4-0.83,3.76-1.57,4.9c-1.15,1.75-2.58,3.5-4.1,4.93
			c-0.88,0.83-2.72,1.7-3.08,0c-0.27-1.22,0.6-2.7,1.18-3.8c0.48-0.9,0.94-1.79,1.47-2.67
			C2036.12,702.43,2037.14,701.34,2037.9,700.19z" class="st15"></path>
		<path d="M2036.26,697.38c0.19,0,0.39,0.02,0.58,0.07c3,0.85,0.28,5.36-0.62,6.8c-0.92,1.45-1.91,2.85-2.99,4.19
			c-0.48,0.6-1.01,1.22-1.7,1.54c-0.3,0.14-0.67,0.23-0.99,0.12c-0.42-0.14-0.67-0.6-0.72-1.04c-0.04-0.44,0.09-0.88,0.21-1.31
			c0.8-2.67,1.61-5.37,2.97-7.81c0.41-0.72,0.87-1.43,1.5-1.93C2035,697.64,2035.64,697.38,2036.26,697.38z" class="st15"></path>
	</g>
	<path d="M2024.06,701.85c1.8,2,3.15,4.35,3.66,6.49c0.49,2.03,0.46,4.12,0.8,6.17" class="st24"></path>
</g>
<path d="M1921.59,965.84c-5.39-0.9-26.28-6.36-26.28-6.36c8.2-25.96,16.1-50.6,21.33-71.07
	c4.05-15.85,14.46-49.91,17.83-53.39c4.31-4.45,10.78-14.92,10.78-14.92c2.16,0.57,6.2,3.53,6.2,3.53
	c14.78-3.15,30.72-28.6,35.26-37.86c3.76-0.02,19.49,11.1,29.62,19.02c-5.96,9-9.76,15.89-16.17,24.51
	c-7.28,9.77-15.5,18.24-23.26,27.77c-5.3,6.52-8.48,22.9-11.03,31.14c-2.86,9.24-15.06,63.85-17.02,75.78
	C1944.04,963.31,1937.39,968.47,1921.59,965.84z" class="st29"></path>
<path d="M1934.37,835.96c3.11,0.05,6.15,4.77,8.04,7.33c2.03-1.8,3.73-7.65,4.86-10.09c1.47-3.13,2.72-6.19,3.89-9.46" class="st24"></path>
<g>
	<g>
		<g>
			<path d="M1837.7,874.31c6.42-3.36,13.22-6.26,18.88-10.87c2.74-2.23,4.98-4.79,6.98-7.67
				c0.55-0.78,6.89-9.14,6.88-9.15c-1.94-2.09-4.65-3.3-5.85-5.07c-0.94,1.31-3.91,6.1-7.07,11.72c-1.63,2.9-4.29,4.97-7,6.93
				c-4.88,3.55-10.53,5.09-15.85,7.86C1835.24,870.61,1837.7,874.31,1837.7,874.31z" class="st23"></path>
		</g>
	</g>
	<path d="M1916.29,809.61c-3.46,1.25-31.64,26.6-37.08,30.42c-4.31,3.04-4.97,2.6-9.33,5.67
		c-1.47-1.29-3.23-3.15-4.49-4.65c1.33-2.35,2.12-5.02,3.36-7.39c1.31-2.51,3.08-4.95,4.88-7.33c4.45-5.9,27.18-25.26,33.6-28.91
		C1910.09,795.79,1919.83,808.33,1916.29,809.61z" class="st23"></path>
	<path d="M1860,848.45c-0.37-2.19,1.03-4.12,1.08-4.21l3.98-5.48c0.27-0.35,0.76-0.44,1.13-0.19l7,4.91
		c0.18,0.12,0.3,0.32,0.34,0.53c0.04,0.21-0.02,0.44-0.14,0.62l-3.98,5.48c-1.1,1.5-4.03,3.75-7.32,1.43l0,0
		c-0.23-0.16-0.46-0.34-0.65-0.53C1860.65,850.29,1860.18,849.42,1860,848.45z M1865.92,840.38l-3.5,4.82
		c-0.02,0.02-1.04,1.48-0.8,2.99c0.14,0.8,0.6,1.45,1.41,2.01l0,0c2.74,1.93,4.82-0.74,5.05-1.06l3.48-4.81L1865.92,840.38z"></path>
	<polygon points="1865.82,840.23 1871.74,844.4 1867.37,850.41 1861.45,846.26" class="st23"></polygon>
	<line y2="843.33" x2="1863.84" y1="847.5" x1="1869.77" class="st24"></line>
	<path d="M1912.6,803.42c-12.65,8.57-29.34,21.56-40.07,33.63" class="st24"></path>
</g>
<g>
	<g>
		<g>
			<path d="M1974.1,920.7c-3.16-6.52-6.91-12.88-8.71-19.95c-0.87-3.41-1.17-6.8-1.06-10.32
				c0.04-0.95-0.11-11.45-0.09-11.45c2.79-0.53,5.69,0.11,7.72-0.6c-0.04,1.59-0.48,7.21-1.27,13.63c-0.41,3.3,0.49,6.54,1.5,9.74
				c1.8,5.76,5.46,10.36,8.08,15.75C1978.29,919.18,1974.1,920.7,1974.1,920.7z" class="st23"></path>
		</g>
	</g>
	<path d="M1949.36,821.94c2.03,3.06,9.63,40.19,11.74,46.5c1.66,5,2.46,5.05,4.14,10.11c1.94-0.18,4.47-0.6,6.36-1.08
		c0.34-2.67,1.29-5.3,1.7-7.94c0.44-2.79,0.46-5.81,0.44-8.78c-0.07-7.41-6.84-36.46-9.83-43.21
		C1962.56,814.5,1947.27,818.81,1949.36,821.94z" class="st23"></path>
	<path d="M1968.85,887.85c-0.27,0.04-0.55,0.04-0.85,0.04l0,0c-4.01-0.09-5.05-3.64-5.04-5.5l0.05-6.77c0-0.21,0.09-0.42,0.25-0.58
		c0.16-0.16,0.37-0.23,0.58-0.23l8.55,0.21c0.44,0.02,0.8,0.37,0.8,0.83l-0.05,6.77c0,0.11-0.04,2.49-1.63,4.03
		C1970.81,887.33,1969.93,887.74,1968.85,887.85z M1964.68,876.46l-0.05,5.94c0,0.39,0.09,3.76,3.43,3.85l0,0
		c0.99,0.02,1.75-0.23,2.33-0.8c1.1-1.06,1.13-2.86,1.13-2.88l0.05-5.96L1964.68,876.46z"></path>
	<polygon points="1971.75,876.57 1964.5,876.39 1964.45,883.83 1971.68,884.01" class="st23"></polygon>
	<line y2="880.23" x2="1971.49" y1="880.07" x1="1964.24" class="st24"></line>
	<path d="M1956,819.15c5.09,14.42,10.76,34.78,12.23,50.86" class="st24"></path>
</g>
<g>
	<path d="M1812.46,986.89c-3.5-0.25-7-0.62-10.52-0.94c-0.41-0.04-0.83-0.07-1.2,0.12c-0.69,0.35-0.78,1.34-0.55,2.09
		c0.25,0.74,0.72,1.41,0.85,2.19c0.16,0.99-0.25,1.96-0.51,2.92c-0.27,0.95-0.35,2.1,0.34,2.83c0.34,0.35,0.8,0.55,1.25,0.72
		c4.97,1.94,10.25,3.08,15.59,3.34c2.16,0.11,4.35,0.07,6.4-0.58c0.62-0.19,1.25-0.48,1.61-1.01c0.8-1.2-0.23-2.76-0.27-4.19
		c-0.05-1.7,1.25-3.11,1.84-4.7c0.12-0.35,0.23-0.74,0.12-1.11c-0.62-2.09-5.27-1.45-6.82-1.41
		C1817.85,987.19,1815.16,987.07,1812.46,986.89z" class="st26"></path>
	<path d="M1807.81,994.59c3.87-0.67,7.71-2.05,11.58-2.53" class="st27"></path>
	<path d="M1822.97,996.89c0.8-1.86,2.65-3.73,3.78-6.06" class="st24"></path>
	<path d="M1800.21,988.16c0.85,2.19,2,3.98,3.02,5.46" class="st24"></path>
</g>
<path d="M1957.17,799.99c0,0,1.86-3.75,3.2-8.84c1.59-6.04,0.72-16.42-4.75-15.64c-6.01-6.03-12.71,1.36-11.35,8.13
	c-3.8-3.04-4.03-8.18-1.04-12.18c-3.32,2.47-4.6,6.65-4.45,10.53c-3.82-1.04-8.84-1.15-10.41-5.04c-1.7-4.19,2.86-11.29,6.77-12.62
	c-4.77,1.91-9.91,7.95-8.73,15.13c0,0-5.87-2.32-0.87-13.7c3.55-8.08,14.56-10.13,22.73-7.97c10.78,2.86,13.29,10.45,13.29,10.45
	s2.19,0.41,4.03,2.81c1.2,1.57,2.23,5.09,2.51,7c0.78,5.04-0.76,11.74-4.58,16.4C1960.28,798.45,1957.17,799.99,1957.17,799.99z" class="st26"></path>
</svg>
