<svg xml:space="preserve" style="enable-background:new 0 0 1024 1024;" viewBox="0 0 1024 1024" y="0px" x="0px" xmlns:xlink="http://www.w3.org/1999/xlink" xmlns="http://www.w3.org/2000/svg" id="图层_1" version="1.1">
<style type="text/css">
	.st0{opacity:0.2;}
	.st1{clip-path:url(#SVGID_2_);}
	.st2{fill:#FFFFFF;}
	.st3{opacity:0.3;fill:url(#SVGID_3_);}
	.st4{fill:url(#SVGID_4_);}
	.st5{fill:url(#SVGID_5_);}
	.st6{fill:url(#SVGID_6_);}
	.st7{opacity:0.7;}
	.st8{fill:url(#SVGID_7_);}
	.st9{fill:url(#SVGID_8_);}
	.st10{opacity:0.3;fill:url(#SVGID_9_);}
	.st11{opacity:0.6;fill:#FFFFFF;}
	.st12{fill:#FFFF00;}
</style>
<rect height="1024" width="1024"></rect>
<g>
	<g class="st0">
		<defs>
			<ellipse ry="173.9" rx="332.3" cy="583.7" cx="513.2" class="st0" id="SVGID_1_"></ellipse>
		</defs>
		<clipPath id="SVGID_2_">
			<use style="overflow:visible;" xlink:href="#SVGID_1_"></use>
		</clipPath>
		<g class="st1">
			<g>
				<rect height="2" width="327.1" class="st2" y="469.5" x="348.8"></rect>
			</g>
			<g>
				<rect height="2" width="366.4" class="st2" y="490.9" x="329.1"></rect>
			</g>
			<g>
				<rect height="2" width="404.7" class="st2" y="512.8" x="309.9"></rect>
			</g>
			<g>
				<rect height="2" width="444.3" class="st2" y="534.7" x="290.2"></rect>
			</g>
			<g>
				<rect height="2" width="483.6" class="st2" y="556.5" x="270.6"></rect>
			</g>
			<g>
				<rect height="2" width="534.5" class="st2" y="585" x="245"></rect>
			</g>
			<g>
				<rect height="2" width="593.2" class="st2" y="617.6" x="215.9"></rect>
			</g>
			<g>
				<rect height="2" width="652" class="st2" y="650.2" x="186.4"></rect>
			</g>
			<g>
				<rect height="2" width="712.3" class="st2" y="682.8" x="155.4"></rect>
			</g>
			<g>
				<rect height="2" width="781.9" class="st2" y="722.5" x="121.4"></rect>
			</g>
			<g>
				<rect height="2" width="843.3" class="st2" y="756.6" x="90.7"></rect>
			</g>
			<g>
				<rect height="287.1" width="2" class="st2" y="470.5" x="515.3"></rect>
			</g>
			<g>
				<g>
					
						<rect height="293.4" width="2" class="st2" transform="matrix(0.9787 -0.2052 0.2052 0.9787 -113.5277 133.2197)" y="467.4" x="584.7"></rect>
				</g>
				<g>
					
						<rect height="310.9" width="2" class="st2" transform="matrix(0.9234 -0.3838 0.3838 0.9234 -185.3561 299.2393)" y="458.6" x="656.1"></rect>
				</g>
				<g>
					
						<rect height="350.5" width="2" class="st2" transform="matrix(0.8191 -0.5736 0.5736 0.8191 -219.3713 532.3926)" y="438.8" x="733.6"></rect>
				</g>
				<g>
					
						<rect height="386.1" width="2" class="st2" transform="matrix(0.7437 -0.6685 0.6685 0.7437 -204.1895 695.5739)" y="421" x="804"></rect>
				</g>
			</g>
			<g>
				<g>
					
						<rect height="2" width="293.4" class="st2" transform="matrix(0.2051 -0.9787 0.9787 0.2051 -251.9613 917.898)" y="613.1" x="292.4"></rect>
				</g>
				<g>
					
						<rect height="2" width="310.9" class="st2" transform="matrix(0.3838 -0.9234 0.9234 0.3838 -340.4978 717.8707)" y="613.1" x="212.2"></rect>
				</g>
				<g>
					
						<rect height="2" width="350.5" class="st2" transform="matrix(0.5736 -0.8191 0.8191 0.5736 -379.26 499.5686)" y="613.1" x="114.9"></rect>
				</g>
				<g>
					
						<rect height="2" width="386.1" class="st2" transform="matrix(0.6685 -0.7437 0.7437 0.6685 -383.8324 367.0125)" y="613.1" x="26.7"></rect>
				</g>
			</g>
		</g>
		<use style="overflow:visible;fill:none;stroke:#FFFFFF;stroke-width:2;stroke-miterlimit:10;" xlink:href="#SVGID_1_"></use>
	</g>
	<g>
		<linearGradient y2="573.1659" x2="846.124" y1="573.1659" x1="180.3602" gradientUnits="userSpaceOnUse" id="SVGID_3_">
			<stop style="stop-color:#00FDFF;stop-opacity:0.5" offset="0"></stop>
			<stop style="stop-color:#00FDFF;stop-opacity:0.5" offset="1"></stop>
		</linearGradient>
		<path d="M513.2,413.7c-183.8,0-332.9,77.9-332.9,173.9c0,60.4,58.8,113.5,148.2,144.7l56.6-52.4
			c-65.9-21.1-109.6-58.1-109.6-100.3c0-65.6,105.9-118.8,236.6-118.8S748.7,514,748.7,579.6c0,42.2-43.8,79.2-109.8,100.3
			l57.9,52.7c89.9-31.1,149.3-84.5,149.3-145.1C846.1,491.5,697.1,413.7,513.2,413.7z" class="st3"></path>
		<linearGradient y2="573.1659" x2="846.124" y1="573.1659" x1="180.3602" gradientUnits="userSpaceOnUse" id="SVGID_4_">
			<stop style="stop-color:#FFFFFF;stop-opacity:0.5" offset="0"></stop>
			<stop style="stop-color:#FFFFFF;stop-opacity:0.5" offset="1"></stop>
		</linearGradient>
		<path d="M513.2,415.7c182.4,0,330.9,77.1,330.9,171.9c0,57.4-54.9,110.7-146.8,142.8l-54.5-49.6
			c31.8-10.5,58.4-24.9,77.1-41.6c20.2-18,30.8-38.6,30.8-59.6c0-16.5-6.4-32.5-19.1-47.5c-12.1-14.4-29.4-27.2-51.3-38.3
			c-45-22.6-104.7-35-168.2-35c-63.5,0-123.2,12.4-168.2,35c-22,11-39.2,23.9-51.3,38.3c-12.6,15-19.1,31-19.1,47.5
			c0,20.9,10.6,41.5,30.8,59.5c18.7,16.7,45.2,31.1,77,41.6L328.1,730c-91.3-32.1-145.7-85.3-145.7-142.4
			C182.4,492.8,330.8,415.7,513.2,415.7 M513.2,413.7c-183.8,0-332.9,77.9-332.9,173.9c0,60.4,58.8,113.5,148.2,144.7l56.6-52.4
			c-65.9-21.1-109.6-58.1-109.6-100.3c0-65.6,105.9-118.8,236.6-118.8S748.7,514,748.7,579.6c0,42.2-43.8,79.2-109.8,100.3
			l57.9,52.7c89.9-31.1,149.3-84.5,149.3-145.1C846.1,491.5,697.1,413.7,513.2,413.7L513.2,413.7z" class="st4"></path>
	</g>
	<g>
		<linearGradient y2="386.8916" x2="513.2421" y1="717.4438" x1="513.2421" gradientUnits="userSpaceOnUse" id="SVGID_5_">
			<stop style="stop-color:#00DBFF;stop-opacity:0.75" offset="0"></stop>
			<stop style="stop-color:#00AFFF;stop-opacity:0.26" offset="1"></stop>
		</linearGradient>
		<path d="M513.2,392.8c-183.8,0-332.9,77.9-332.9,173.9c0,60.4,58.8,113.5,148.2,144.7l56.6-52.4
			c-65.9-21.1-109.6-58.1-109.6-100.3c0-65.6,105.9-118.8,236.6-118.8s236.6,53.2,236.6,118.8c0,42.2-43.8,79.2-109.8,100.3
			l57.9,52.7c89.9-31.1,149.3-84.5,149.3-145.1C846.1,470.7,697.1,392.8,513.2,392.8z" class="st5"></path>
		<linearGradient y2="392.7988" x2="513.2421" y1="711.7955" x1="513.2421" gradientUnits="userSpaceOnUse" id="SVGID_6_">
			<stop style="stop-color:#00B9C1;stop-opacity:0.75" offset="0"></stop>
			<stop style="stop-color:#00DDE2;stop-opacity:0.15" offset="1"></stop>
		</linearGradient>
		<path d="M513.2,394.8c182.4,0,330.9,77.1,330.9,171.9c0,57.4-54.9,110.7-146.8,142.8l-54.5-49.6
			c31.8-10.5,58.4-24.9,77.1-41.6c20.2-18,30.8-38.6,30.8-59.6c0-16.5-6.4-32.5-19.1-47.5c-12.1-14.4-29.4-27.2-51.3-38.3
			c-45-22.6-104.7-35-168.2-35c-63.5,0-123.2,12.4-168.2,35c-22,11-39.2,23.9-51.3,38.3c-12.6,15-19.1,31-19.1,47.5
			c0,20.9,10.6,41.5,30.8,59.5c18.7,16.7,45.2,31.1,77,41.6l-53.2,49.3c-91.3-32.1-145.7-85.3-145.7-142.4
			C182.4,471.9,330.8,394.8,513.2,394.8 M513.2,392.8c-183.8,0-332.9,77.9-332.9,173.9c0,60.4,58.8,113.5,148.2,144.7l56.6-52.4
			c-65.9-21.1-109.6-58.1-109.6-100.3c0-65.6,105.9-118.8,236.6-118.8s236.6,53.2,236.6,118.8c0,42.2-43.8,79.2-109.8,100.3
			l57.9,52.7c89.9-31.1,149.3-84.5,149.3-145.1C846.1,470.7,697.1,392.8,513.2,392.8L513.2,392.8z" class="st6"></path>
	</g>
	<g class="st7">
		<linearGradient y2="380.5078" x2="513.2421" y1="699.5045" x1="513.2421" gradientUnits="userSpaceOnUse" id="SVGID_7_">
			<stop style="stop-color:#FFFFFF;stop-opacity:0.9" offset="0"></stop>
			<stop style="stop-color:#FFFFFF;stop-opacity:0.4" offset="1"></stop>
		</linearGradient>
		<path d="M513.2,382.5c182.4,0,330.9,77.1,330.9,171.9c0,57.4-54.9,110.7-146.8,142.8l-54.5-49.6
			c31.8-10.5,58.4-24.9,77.1-41.6c20.2-18,30.8-38.6,30.8-59.6c0-16.5-6.4-32.5-19.1-47.5c-12.1-14.4-29.4-27.2-51.3-38.3
			c-45-22.6-104.7-35-168.2-35c-63.5,0-123.2,12.4-168.2,35c-22,11-39.2,23.9-51.3,38.3c-12.6,15-19.1,31-19.1,47.5
			c0,20.9,10.6,41.5,30.8,59.5c18.7,16.7,45.2,31.1,77,41.6l-53.2,49.3c-91.3-32.1-145.7-85.3-145.7-142.4
			C182.4,459.6,330.8,382.5,513.2,382.5 M513.2,380.5c-183.8,0-332.9,77.9-332.9,173.9c0,60.4,58.8,113.5,148.2,144.7l56.6-52.4
			c-65.9-21.1-109.6-58.1-109.6-100.3c0-65.6,105.9-118.8,236.6-118.8s236.6,53.2,236.6,118.8c0,42.2-43.8,79.2-109.8,100.3
			l57.9,52.7c89.9-31.1,149.3-84.5,149.3-145.1C846.1,458.4,697.1,380.5,513.2,380.5L513.2,380.5z" class="st8"></path>
	</g>
	<g>
		<linearGradient y2="463.6613" x2="515.6093" y1="667.6798" x1="515.6093" gradientUnits="userSpaceOnUse" id="SVGID_8_">
			<stop style="stop-color:#00DDE8" offset="0"></stop>
			<stop style="stop-color:#00D5E2;stop-opacity:0.2" offset="0.1787"></stop>
			<stop style="stop-color:#00CCDB" offset="0.4351"></stop>
			<stop style="stop-color:#00C0D2;stop-opacity:0" offset="0.7931"></stop>
			<stop style="stop-color:#00B8CC" offset="1"></stop>
		</linearGradient>
		<path d="M515.6,667.7c-57.3,0-111.2-10.5-151.8-29.6c-40.8-19.2-63.3-44.9-63.3-72.4s22.5-53.1,63.3-72.4
			c40.6-19.1,94.5-29.6,151.8-29.6s111.2,10.5,151.8,29.6c40.8,19.2,63.3,44.9,63.3,72.4s-22.5,53.1-63.3,72.4
			C626.8,657.2,572.9,667.7,515.6,667.7z M515.6,466c-117.3,0-212.8,44.7-212.8,99.6s95.5,99.6,212.8,99.6s212.8-44.7,212.8-99.6
			S632.9,466,515.6,466z" class="st9"></path>
	</g>
	<linearGradient y2="236.5196" x2="512.7388" y1="557.9747" x1="512.7388" gradientUnits="userSpaceOnUse" id="SVGID_9_">
		<stop style="stop-color:#00C1D7;stop-opacity:0" offset="0"></stop>
		<stop style="stop-color:#00E3E1;stop-opacity:0.9" offset="0.3267"></stop>
		<stop style="stop-color:#00C1D7;stop-opacity:0.5548" offset="0.6904"></stop>
		<stop style="stop-color:#00C1D7;stop-opacity:0" offset="1"></stop>
	</linearGradient>
	<rect height="321.5" width="473.6" class="st10" y="236.5" x="275.9"></rect>
	<polygon points="411,664.2 411,660.9 407.6,660.9 407.6,671.8 411,671.8 411,668.2 553,668.2 553,664.2" class="st2"></polygon>
	<polygon points="614.5,664.2 614.5,660.9 617.9,660.9 617.9,671.8 614.5,671.8 614.5,668.2 553,668.2 553,664.2" class="st11"></polygon>
	<g class="st0">
		<g>
			<path d="M188.6,686.3c-1.5-1.4-3-2.8-4.4-4.2l2.8-2.9c1.4,1.4,2.9,2.7,4.3,4.1L188.6,686.3z" class="st12"></path>
		</g>
		<g>
			<path d="M175.7,673.4c-2.8-3-5.4-6.1-7.9-9.2l3.1-2.5c2.4,3,5,6.1,7.8,9L175.7,673.4z M160.5,654.4
				c-2.3-3.4-4.5-6.8-6.5-10.3l3.5-2c1.9,3.4,4.1,6.7,6.4,10L160.5,654.4z M148.3,633.3c-1.7-3.7-3.3-7.5-4.7-11.3l3.8-1.4
				c1.3,3.7,2.8,7.3,4.5,10.9L148.3,633.3z M140.1,610.3c-1-4-1.8-8-2.3-12l4-0.5c0.5,3.9,1.3,7.8,2.2,11.6L140.1,610.3z
				 M136.8,586.1c0-1.1,0-2.2,0-3.2c0-3,0.1-6,0.4-9l4,0.3c-0.2,2.9-0.3,5.8-0.3,8.7c0,1,0,2.1,0,3.1L136.8,586.1z M142.6,562.5
				l-3.9-0.7c0.8-4,1.7-8,2.9-11.9l3.8,1.2C144.3,554.8,143.4,558.7,142.6,562.5z M149.4,539.9l-3.7-1.5c1.5-3.7,3.3-7.4,5.2-11.1
				l3.5,1.8C152.6,532.7,150.9,536.3,149.4,539.9z M160.3,518.8l-3.4-2.1c2.1-3.4,4.4-6.7,6.9-10l3.2,2.4
				C164.7,512.3,162.4,515.6,160.3,518.8z M174.5,499.8l-3-2.6c2.6-3,5.3-6,8.2-9l2.9,2.8C179.7,493.8,177,496.8,174.5,499.8z
				 M191,482.6l-2.7-2.9c2.9-2.7,6-5.4,9.1-8l2.6,3.1C196.9,477.4,193.9,480,191,482.6z M209.4,467.4l-2.4-3.2
				c3.2-2.4,6.5-4.8,9.8-7.1l2.3,3.3C215.8,462.7,212.5,465,209.4,467.4z M229.1,453.8l-2.1-3.4c3.4-2.1,6.8-4.2,10.3-6.3l2,3.5
				C235.8,449.6,232.4,451.7,229.1,453.8z M249.7,441.7l-1.9-3.5c3.5-1.9,7.1-3.8,10.7-5.6l1.8,3.6
				C256.8,438,253.2,439.9,249.7,441.7z" class="st12"></path>
		</g>
		<g>
			<path d="M271.2,431l-1.7-3.6c1.8-0.8,3.6-1.7,5.5-2.5l1.6,3.7C274.8,429.4,273,430.2,271.2,431z" class="st12"></path>
		</g>
	</g>
	<g class="st0">
		<g>
			<path d="M770,734.4l-1.8-3.6c1.8-0.9,3.6-1.8,5.3-2.7l1.8,3.6C773.6,732.6,771.8,733.5,770,734.4z" class="st12"></path>
		</g>
		<g>
			<path d="M517.1,787.2l0-4c3.9,0,7.9,0,11.8-0.1l0.1,4C525,787.2,521,787.2,517.1,787.2z M505.3,787.1
				c-3.9-0.1-7.9-0.1-11.8-0.3l0.1-4c3.9,0.1,7.8,0.2,11.8,0.3L505.3,787.1z M540.7,786.8l-0.1-4c3.9-0.1,7.9-0.3,11.8-0.5l0.2,4
				C548.6,786.5,544.7,786.6,540.7,786.8z M481.6,786.4c-3.9-0.2-7.9-0.4-11.8-0.7l0.3-4c3.9,0.3,7.9,0.5,11.7,0.7L481.6,786.4z
				 M564.4,785.5l-0.3-4c3.9-0.3,7.8-0.6,11.7-0.9l0.3,4C572.3,785,568.3,785.3,564.4,785.5z M458,784.9c-3.9-0.3-7.9-0.7-11.8-1.1
				l0.4-4c3.9,0.4,7.8,0.7,11.7,1.1L458,784.9z M587.9,783.5l-0.4-4c3.9-0.4,7.8-0.8,11.7-1.3l0.5,4
				C595.8,782.7,591.9,783.1,587.9,783.5z M434.4,782.5c-3.9-0.5-7.9-1-11.7-1.5l0.5-4c3.9,0.5,7.8,1,11.7,1.5L434.4,782.5z
				 M611.4,780.6l-0.6-4c3.9-0.5,7.8-1.1,11.6-1.7l0.6,4C619.3,779.5,615.3,780.1,611.4,780.6z M411,779.3
				c-3.9-0.6-7.8-1.2-11.7-1.9l0.7-3.9c3.8,0.7,7.7,1.3,11.6,1.9L411,779.3z M634.8,776.9l-0.7-3.9c3.9-0.7,7.8-1.4,11.6-2.2
				l0.8,3.9C642.6,775.5,638.7,776.2,634.8,776.9z M387.7,775.3c-3.9-0.7-7.8-1.5-11.6-2.4l0.8-3.9c3.8,0.8,7.7,1.6,11.5,2.3
				L387.7,775.3z M658,772.3l-0.9-3.9c3.8-0.8,7.7-1.7,11.5-2.6l0.9,3.9C665.8,770.6,661.9,771.5,658,772.3z M364.5,770.4
				c-3.9-0.9-7.7-1.9-11.5-2.8l1-3.9c3.8,1,7.6,1.9,11.4,2.8L364.5,770.4z M681.1,766.8l-1-3.9c3.8-1,7.6-2,11.3-3.1l1.1,3.8
				C688.7,764.7,684.9,765.8,681.1,766.8z M341.6,764.5c-3.8-1.1-7.6-2.2-11.4-3.3l1.2-3.8c3.7,1.1,7.5,2.2,11.3,3.3L341.6,764.5z
				 M703.8,760.3l-1.2-3.8c3.8-1.2,7.5-2.4,11.2-3.6l1.3,3.8C711.4,757.9,707.6,759.1,703.8,760.3z M318.9,757.6
				c-3.8-1.2-7.5-2.5-11.2-3.8l1.3-3.8c3.6,1.3,7.4,2.6,11.1,3.8L318.9,757.6z M726.3,752.8l-1.4-3.8c3.7-1.3,7.4-2.7,11-4.1
				l1.5,3.7C733.7,750.1,730,751.5,726.3,752.8z M296.6,749.7c-3.7-1.4-7.4-2.9-11-4.4l1.5-3.7c3.6,1.5,7.2,2.9,10.9,4.3
				L296.6,749.7z M748.4,744.2l-1.5-3.7c3.6-1.5,7.2-3.1,10.8-4.7l1.6,3.6C755.7,741.1,752,742.7,748.4,744.2z M274.7,740.7
				c-3.6-1.6-7.2-3.3-10.8-5l1.7-3.6c3.5,1.7,7.1,3.3,10.7,4.9L274.7,740.7z" class="st12"></path>
		</g>
		<g>
			<path d="M253.3,730.4c-1.8-0.9-3.6-1.9-5.3-2.8l1.9-3.5c1.7,0.9,3.5,1.9,5.3,2.8L253.3,730.4z" class="st12"></path>
		</g>
	</g>
	<g class="st0">
		<g>
			<path d="M747.5,425.5c-1.8-0.8-3.7-1.5-5.5-2.3l1.5-3.7c1.9,0.8,3.7,1.5,5.6,2.3L747.5,425.5z" class="st12"></path>
		</g>
		<g>
			<path d="M838.7,689.8l-2.6-3c2.9-2.6,5.8-5.2,8.5-7.8l2.8,2.9C844.6,684.5,841.7,687.2,838.7,689.8z M855.6,673.3
				l-3-2.7c2.6-2.9,5.2-5.8,7.5-8.7l3.1,2.5C860.8,667.4,858.3,670.4,855.6,673.3z M870.3,654.9l-3.3-2.3c2.2-3.2,4.3-6.4,6.2-9.7
				l3.4,2C874.8,648.3,872.6,651.7,870.3,654.9z M882.3,634.6l-3.6-1.7c1.7-3.5,3.2-7,4.5-10.6l3.7,1.4
				C885.6,627.3,884,631,882.3,634.6z M890.6,612.4l-3.9-1c1-3.7,1.8-7.5,2.4-11.2l3.9,0.6C892.5,604.7,891.6,608.6,890.6,612.4z
				 M894.3,589l-4-0.2c0.1-2,0.2-4,0.2-5.9c0-1.8,0-3.7-0.1-5.5l4-0.2c0.1,1.9,0.1,3.8,0.1,5.7C894.5,584.9,894.5,587,894.3,589z
				 M889.2,566c-0.6-3.7-1.4-7.5-2.4-11.2l3.9-1c1,3.8,1.8,7.7,2.4,11.6L889.2,566z M883.4,543.8c-1.3-3.5-2.8-7.1-4.5-10.6l3.6-1.7
				c1.7,3.6,3.3,7.3,4.6,10.9L883.4,543.8z M873.5,523.1c-1.9-3.2-4-6.5-6.2-9.7l3.3-2.3c2.3,3.3,4.4,6.6,6.4,10L873.5,523.1z
				 M860.4,504.2c-2.4-2.9-4.9-5.9-7.5-8.8l3-2.7c2.7,2.9,5.3,6,7.7,9L860.4,504.2z M844.9,487.1c-2.7-2.6-5.5-5.3-8.5-7.9l2.6-3
				c3,2.6,5.9,5.3,8.6,8L844.9,487.1z M827.6,471.8c-3-2.4-6.1-4.7-9.2-7l2.4-3.2c3.2,2.3,6.3,4.7,9.3,7.1L827.6,471.8z
				 M808.9,458.1c-3.2-2.1-6.4-4.2-9.7-6.3l2.1-3.4c3.4,2.1,6.7,4.2,9.9,6.4L808.9,458.1z M789.1,446c-3.3-1.9-6.7-3.8-10.2-5.6
				l1.9-3.5c3.5,1.8,6.9,3.7,10.3,5.6L789.1,446z M768.6,435.1c-3.4-1.7-7-3.3-10.5-5l1.7-3.6c3.6,1.6,7.1,3.3,10.6,5L768.6,435.1z" class="st12"></path>
		</g>
		<g>
			<path d="M824.8,701.1l-2.4-3.2c1.6-1.2,3.2-2.4,4.7-3.7l2.5,3.1C828.1,698.6,826.4,699.9,824.8,701.1z" class="st12"></path>
		</g>
	</g>
	<g>
		<path d="M447.7,509.8h11.5c14.4,0,21.9,8.5,21.9,23.3c0,14.7-7.5,23.6-21.7,23.6h-11.8V509.8z M458.8,552.3
			c11.4,0,16.9-7.2,16.9-19.2c0-12-5.5-18.9-16.9-18.9H453v38.1H458.8z" class="st2"></path>
		<path d="M500.6,509.8h5.8l16.1,46.9h-5.6l-4.7-14.7h-17.6l-4.7,14.7h-5.3L500.6,509.8z M510.8,537.8l-2.4-7.6
			c-1.8-5.3-3.3-10.4-4.9-15.9h-0.3c-1.5,5.5-3.1,10.6-4.8,15.9l-2.4,7.6H510.8z" class="st2"></path>
		<path d="M535.4,514.3h-14.3v-4.5h34v4.5h-14.4v42.4h-5.4V514.3z" class="st2"></path>
		<path d="M563.7,509.8h26.7v4.5H569v15.4h18v4.5h-18v18h22.1v4.5h-27.4V509.8z" class="st2"></path>
	</g>
	<g>
		<path d="M354.7,457.2H326l9.5-67.7l-11.8,1.7l2.3-15.7l40.9-5.7L354.7,457.2z" class="st2"></path>
		<path d="M391.9,381.6c0.4-2.9,1.7-5.4,4-7.3c2.3-2,4.9-2.9,7.8-2.9h75.7L468.8,447c-0.5,2.9-1.9,5.4-4.1,7.3
			c-2.2,2-4.8,2.9-7.7,2.9h-75.7L391.9,381.6z M420.1,385.5l-8.2,57.4h28.5l8.2-57.4H420.1z" class="st2"></path>
		<path d="M503.5,381.6c0.4-2.9,1.7-5.4,4-7.3c2.3-2,4.9-2.9,7.8-2.9H591L580.4,447c-0.5,2.9-1.9,5.4-4.1,7.3
			c-2.2,2-4.8,2.9-7.7,2.9h-75.7L503.5,381.6z M531.7,385.5l-8.2,57.4h28.5l8.2-57.4H531.7z" class="st2"></path>
		<path d="M693.8,454.7h-40l4.5-32.5l-30.8,35.3h-23l42.6-48.8h-38.5l4.8-34.4h40l-4.5,32.5l27.9-32l-2.9-3.3h28.7
			l-42.6,48.8h38.5L693.8,454.7z M627.4,397.3h5.7l1.5-11.5h-5.7L627.4,397.3z M679.9,431.7h-5.7l-1.7,11.5h5.7L679.9,431.7z" class="st2"></path>
	</g>
</g>
<g>
</g>
<g>
</g>
<g>
</g>
<g>
</g>
<g>
</g>
<g>
</g>
<g>
</g>
<g>
</g>
<g>
</g>
<g>
</g>
<g>
</g>
<g>
</g>
<g>
</g>
<g>
</g>
<g>
</g>
</svg>
