<svg xml:space="preserve" style="enable-background:new 0 0 1024 1024;" viewBox="0 0 1024 1024" y="0px" x="0px" xmlns:xlink="http://www.w3.org/1999/xlink" xmlns="http://www.w3.org/2000/svg" id="图层_1" version="1.1">
<style type="text/css">
	.st0{stroke:#000000;stroke-miterlimit:10;}
	.st1{fill-rule:evenodd;clip-rule:evenodd;fill:url(#SVGID_1_);}
	.st2{fill-rule:evenodd;clip-rule:evenodd;fill:url(#SVGID_2_);}
	.st3{fill:#00D9EB;}
	.st4{fill-rule:evenodd;clip-rule:evenodd;fill:url(#SVGID_3_);}
	.st5{fill-rule:evenodd;clip-rule:evenodd;fill:url(#SVGID_4_);}
	.st6{fill-rule:evenodd;clip-rule:evenodd;fill:url(#SVGID_5_);}
	.st7{fill-rule:evenodd;clip-rule:evenodd;fill:url(#SVGID_6_);}
	.st8{fill-rule:evenodd;clip-rule:evenodd;fill:url(#SVGID_7_);}
	.st9{fill-rule:evenodd;clip-rule:evenodd;fill:url(#SVGID_8_);}
	.st10{fill:url(#SVGID_9_);}
	.st11{fill:url(#SVGID_10_);}
	.st12{fill:url(#SVGID_11_);}
	.st13{fill:url(#SVGID_12_);}
	.st14{fill:#FF9000;}
	.st15{fill:url(#SVGID_13_);}
	.st16{fill:url(#SVGID_14_);}
	.st17{fill:url(#SVGID_15_);}
	.st18{fill:none;stroke:#00D9EB;stroke-width:4.6916;stroke-miterlimit:10;stroke-opacity:0.2;}
	.st19{fill:url(#SVGID_16_);}
	.st20{opacity:0.5;}
	.st21{fill:#FFFFFF;}
</style>
<rect height="1024" width="1024" class="st0"></rect>
<g>
	<linearGradient y2="707.7058" x2="630.08" y1="619.2688" x1="630.08" gradientUnits="userSpaceOnUse" id="SVGID_1_">
		<stop style="stop-color:#00AFFF;stop-opacity:0.5" offset="1.278365e-03"></stop>
		<stop style="stop-color:#00DBFF;stop-opacity:0.75" offset="1"></stop>
	</linearGradient>
	<path d="M788.4,626.2l90.6,94H381.1L446,653c18.8,11,42.3,17.5,67.9,17.5c42.5,0,79.3-17.9,97.9-44.3L788.4,626.2z" class="st1"></path>
	<linearGradient y2="680.3402" x2="297.183" y1="445.4689" x1="297.183" gradientUnits="userSpaceOnUse" id="SVGID_2_">
		<stop style="stop-color:#00AFFF;stop-opacity:0.68" offset="1.278365e-03"></stop>
		<stop style="stop-color:#00DBFF;stop-opacity:0.75" offset="1"></stop>
	</linearGradient>
	<path d="M389.9,465l58.6,60.8c-27.4,15.1-45.2,39.5-45.2,66.9c0,10,2.4,19.6,6.7,28.5L314.7,720H145.9L389.9,465z" class="st2"></path>
	<g>
		<path d="M389.9,474.4l48.5,50.3c-11.4,7.4-21,16.5-28,26.6c-8.8,12.7-13.4,27.2-13.4,41.7c0,9.2,1.8,18.2,5.5,26.9
			l-90.4,94H160.7L389.9,474.4 M389.9,465.2l-244,255h168.9l95.2-99c-4.3-8.9-6.7-18.2-6.7-28.2c0-27.5,17.8-51.8,45.2-66.9
			L389.9,465.2L389.9,465.2z" class="st3"></path>
	</g>
	<linearGradient y2="596.937" x2="589.5095" y1="383.2517" x1="589.5095" gradientUnits="userSpaceOnUse" id="SVGID_3_">
		<stop style="stop-color:#00AFFF;stop-opacity:0.68" offset="1.278365e-03"></stop>
		<stop style="stop-color:#00DBFF;stop-opacity:0.75" offset="1"></stop>
	</linearGradient>
	<path d="M511.1,338l245.3,254.5l-132.1,0c0.2-1.8,0.2-3.7,0.2-5.5c0-45.8-49.5-83-110.6-83c-6.4,0-12.6,0.4-18.7,1.2
		l-72.6-75.3L511.1,338z" class="st4"></path>
	<g>
		<path d="M785.7,632.5l78.4,81.4H396l51.1-53c19.6,10.4,42.6,15.9,66.8,15.9c41.8,0,80.2-16.9,101.1-44.3L785.7,632.5
			 M788.4,626.2l-176.6,0c-18.6,26.3-55.4,44.3-97.9,44.3c-25.6,0-49.2-6.5-67.9-17.5l-64.8,67.3H879L788.4,626.2L788.4,626.2z" class="st3"></path>
	</g>
	<g>
		<path d="M511.1,347.1l230.4,239l-110.6,0c-0.3-23.9-12.6-46.2-34.9-62.9c-22-16.5-51.1-25.6-82-25.6
			c-5.5,0-10.9,0.3-16.3,0.9l-66.2-68.7L511.1,347.1 M511.1,338l-88.5,91.8l72.6,75.3c6.1-0.8,12.3-1.2,18.7-1.2
			c61.1,0,110.6,37.2,110.6,83c0,1.9-0.1,3.7-0.2,5.5l132.1,0L511.1,338L511.1,338z" class="st3"></path>
	</g>
	<linearGradient y2="770.9432" x2="630.08" y1="715.9274" x1="630.08" gradientUnits="userSpaceOnUse" id="SVGID_4_">
		<stop style="stop-color:#00AFFF;stop-opacity:0.5" offset="1.278365e-03"></stop>
		<stop style="stop-color:#00DBFF;stop-opacity:0.75" offset="1"></stop>
	</linearGradient>
	<rect height="58.5" width="497.9" class="st5" y="720.2" x="381.1"></rect>
	<linearGradient y2="770.9432" x2="230.3599" y1="715.9274" x1="230.3599" gradientUnits="userSpaceOnUse" id="SVGID_5_">
		<stop style="stop-color:#00AFFF;stop-opacity:0.5" offset="1.278365e-03"></stop>
		<stop style="stop-color:#00DBFF;stop-opacity:0.75" offset="1"></stop>
	</linearGradient>
	<rect height="58.5" width="168.9" class="st6" y="720.2" x="145.9"></rect>
	
		<linearGradient gradientTransform="matrix(1 1.0259 0 1 -1.391792e-04 -447.0893)" y2="494.846" x2="458.8999" y1="438.9942" x1="458.8999" gradientUnits="userSpaceOnUse" id="SVGID_6_">
		<stop style="stop-color:#00AFFF;stop-opacity:0.5" offset="1.278365e-03"></stop>
		<stop style="stop-color:#00DBFF;stop-opacity:0.75" offset="1"></stop>
	</linearGradient>
	<polygon points="495.2,563.7 422.6,488.3 422.6,429.8 495.2,505.2" class="st7"></polygon>
	<path d="M428.9,445.5 M428.9,436.4l-6.3-6.6l0,0l0,58.5l72.6,75.3l0-58.5l-6.3-6.6v9.1V548l-59.9-62.2v-40.3V436.4z" class="st3"></path>
	<linearGradient y2="757.7632" x2="362.3926" y1="609.6465" x1="362.3926" gradientUnits="userSpaceOnUse" id="SVGID_7_">
		<stop style="stop-color:#00AFFF;stop-opacity:0.5" offset="1.278365e-03"></stop>
		<stop style="stop-color:#00DBFF;stop-opacity:0.75" offset="1"></stop>
	</linearGradient>
	<polygon points="410,679.7 314.8,778.7 314.8,720.2 410,621.2" class="st8"></polygon>
	<g>
		<polygon points="308.5,778.7 308.5,720.2 314.8,720.2 314.8,769.6 403.6,677.2 403.6,619.9 410,621.2 410,679.7 
			314.8,778.7" class="st3"></polygon>
	</g>
	<polygon points="308.5,772.4 152.2,772.4 152.2,720.2 145.9,720.2 145.9,778.7 314.8,778.7 314.8,720.2 308.5,720.2" class="st3"></polygon>
	<linearGradient y2="621.693" x2="690.3472" y1="590.0124" x1="690.3472" gradientUnits="userSpaceOnUse" id="SVGID_8_">
		<stop style="stop-color:#00AFFF;stop-opacity:0.5" offset="1.278365e-03"></stop>
		<stop style="stop-color:#00DBFF;stop-opacity:0.75" offset="1"></stop>
	</linearGradient>
	<rect height="33.7" width="132.1" class="st9" y="592.5" x="624.3"></rect>
	<polygon points="750.1,626.2 630.6,626.2 630.6,592.5 624.3,592.5 624.3,632.5 756.4,632.5 756.4,592.5 750.1,592.5" class="st3"></polygon>
	<polygon points="872.7,772.4 387.5,772.4 387.5,720.2 381.1,720.2 381.1,778.7 879,778.7 879,720.2 872.7,720.2" class="st3"></polygon>
	<linearGradient y2="609.9257" x2="559.8627" y1="495.1232" x1="559.8627" gradientUnits="userSpaceOnUse" id="SVGID_9_">
		<stop style="stop-color:#00AFFF;stop-opacity:0.5" offset="1.278365e-03"></stop>
		<stop style="stop-color:#00DBFF;stop-opacity:0.75" offset="1"></stop>
	</linearGradient>
	<path d="M514.4,504.1c-6.5,0-13,0.4-19.2,1.3v45.2c6.2-0.8,12.6-1.3,19.2-1.3c58,0,105.6,33.9,109.9,76.9h0.1v-33.3
		c0.2-1.8,0.3-3.7,0.3-5.6C624.5,541.4,575.2,504.1,514.4,504.1z" class="st10"></path>
	<g>
		<path d="M514.4,504.1c60.8,0,110.2,37.3,110.2,83.2c0,1.9-0.1,3.7-0.3,5.6v33.3h-0.1c-4.3-43-51.8-76.9-109.9-76.9
			c-6.5,0-13,0.4-19.2,1.3v-45.2C501.4,504.5,507.8,504.1,514.4,504.1 M514.4,497.8c-6.7,0-13.4,0.4-20,1.3l-5.5,0.7v5.5v45.2v7.2
			l7.2-1c6.1-0.8,12.2-1.2,18.4-1.2c26.7,0,52.1,7.5,71.4,21.2c18.8,13.2,30.2,31,32.1,50l0.6,5.7h5.7h0.1h6.3v-6.3v-33
			c0.2-2,0.3-3.9,0.3-5.8c0-24.3-12.4-47-34.8-63.9C574.2,506.9,545.2,497.8,514.4,497.8L514.4,497.8z" class="st3"></path>
	</g>
	<g>
		<g>
			<linearGradient y2="611.6517" x2="564.4917" y1="611.6517" x1="464.2516" gradientUnits="userSpaceOnUse" id="SVGID_10_">
				<stop style="stop-color:#FF9700;stop-opacity:0.5" offset="1.278365e-03"></stop>
				<stop style="stop-color:#FDA900" offset="0.3605"></stop>
				<stop style="stop-color:#FDA900" offset="0.6962"></stop>
				<stop style="stop-color:#FF9700;stop-opacity:0.5" offset="1"></stop>
			</linearGradient>
			<path d="M464.3,575.8v38.6c0,18.3,22.4,33.1,50.1,33.1c27.7,0,50.1-14.8,50.1-33.1v-38.6H464.3z" class="st11"></path>
			<linearGradient y2="647.5142" x2="514.3716" y1="575.7891" x1="514.3716" gradientUnits="userSpaceOnUse" id="SVGID_11_">
				<stop style="stop-color:#FFC300;stop-opacity:0" offset="1.278365e-03"></stop>
				<stop style="stop-color:#FFAA64;stop-opacity:0.4" offset="0.5545"></stop>
				<stop style="stop-color:#FFC900" offset="1"></stop>
			</linearGradient>
			<path d="M558.9,581.4v33c0,6.9-4.3,13.5-12.2,18.7c-8.6,5.7-20,8.8-32.3,8.8c-12.3,0-23.8-3.1-32.3-8.8
				c-7.8-5.2-12.2-11.8-12.2-18.7v-33H558.9 M564.5,575.8H464.3v38.6c0,18.3,22.4,33.1,50.1,33.1c27.7,0,50.1-14.8,50.1-33.1V575.8
				L564.5,575.8z" class="st12"></path>
		</g>
		<g>
			<linearGradient y2="575.7891" x2="561.7334" y1="575.7891" x1="467.0103" gradientUnits="userSpaceOnUse" id="SVGID_12_">
				<stop style="stop-color:#FFC202" offset="1.278365e-03"></stop>
				<stop style="stop-color:#FFAB01" offset="0.45"></stop>
				<stop style="stop-color:#FFC202" offset="1"></stop>
			</linearGradient>
			<ellipse ry="30.3" rx="47.4" cy="575.8" cx="514.4" class="st13"></ellipse>
			<path d="M514.4,548.2c12.3,0,23.8,3.1,32.4,8.8c7.9,5.2,12.2,11.9,12.2,18.8s-4.3,13.6-12.2,18.8
				c-8.6,5.7-20.1,8.8-32.4,8.8s-23.8-3.1-32.4-8.8c-7.9-5.2-12.2-11.9-12.2-18.8s4.3-13.6,12.2-18.8
				C490.5,551.3,502.1,548.2,514.4,548.2 M514.4,542.7c-27.7,0-50.1,14.8-50.1,33.1s22.4,33.1,50.1,33.1c27.7,0,50.1-14.8,50.1-33.1
				S542.1,542.7,514.4,542.7L514.4,542.7z" class="st14"></path>
		</g>
	</g>
	<linearGradient y2="601.1245" x2="425.8685" y1="519.4689" x1="425.8685" gradientUnits="userSpaceOnUse" id="SVGID_13_">
		<stop style="stop-color:#00AFFF;stop-opacity:0.5" offset="1.278365e-03"></stop>
		<stop style="stop-color:#00DBFF;stop-opacity:0.75" offset="1"></stop>
	</linearGradient>
	<path d="M448.5,525.8c-27.4,15.2-45.2,39.5-45.2,67c0,6.8,1.1,13.5,3.2,19.8c6.3-19.2,21.4-35.8,42-47.2V525.8z" class="st15"></path>
	<path d="M442.2,537.2 M404.4,604.6c0.5,2.8,1.2,5.5,2.1,8.1c6.3-19.2,21.4-35.8,42-47.2v-39.6l0,0
		c-2.2,1.2-4.3,2.5-6.4,3.8l0.1,7.6v24.6c-13.6,8.1-24.7,18.4-32.5,30c-0.1,0.1-2.8,5.8-2.8,5.9L404.4,604.6z" class="st3"></path>
	<g>
		<radialGradient gradientUnits="userSpaceOnUse" r="424.4382" cy="677.2701" cx="507.8864" id="SVGID_14_">
			<stop style="stop-color:#0EEFF9;stop-opacity:0.3" offset="1.278365e-03"></stop>
			<stop style="stop-color:#21F0FA;stop-opacity:0.7" offset="2.978393e-02"></stop>
			<stop style="stop-color:#7AF6FC;stop-opacity:0.8" offset="0.1592"></stop>
			<stop style="stop-color:#00F4FF;stop-opacity:0.3" offset="0.4071"></stop>
			<stop style="stop-color:#00F4FF;stop-opacity:0.5" offset="0.6064"></stop>
			<stop style="stop-color:#88EEFF;stop-opacity:0.2" offset="0.7894"></stop>
			<stop style="stop-color:#00DBFF" offset="1"></stop>
		</radialGradient>
		<path d="M972.4,742.2H51.6L512,276.5L972.4,742.2z M62.8,737.5h898.3L512,283.2L62.8,737.5z" class="st16"></path>
	</g>
	<g>
		<linearGradient y2="618.3647" x2="511.9997" y1="245.2684" x1="511.9997" gradientUnits="userSpaceOnUse" id="SVGID_15_">
			<stop style="stop-color:#00FAFF;stop-opacity:0.7" offset="1.278365e-03"></stop>
			<stop style="stop-color:#00F5FE;stop-opacity:0.2" offset="0.7894"></stop>
			<stop style="stop-color:#00F3FE;stop-opacity:0.15" offset="1"></stop>
		</linearGradient>
		<polygon points="512,245.3 143.1,618.4 880.9,618.4" class="st17"></polygon>
		<polygon points="512,245.3 143.1,618.4 880.9,618.4" class="st18"></polygon>
		<linearGradient y2="778.7316" x2="511.9997" y1="618.3647" x1="511.9997" gradientUnits="userSpaceOnUse" id="SVGID_16_">
			<stop style="stop-color:#00F3FE;stop-opacity:0.2" offset="1.278365e-03"></stop>
			<stop style="stop-color:#00F3FE;stop-opacity:0" offset="1"></stop>
		</linearGradient>
		<rect height="160.4" width="737.7" class="st19" y="618.4" x="143.1"></rect>
	</g>
	<g class="st20">
		<path d="M769,705.4l-1.2-1.6v1.6h-3.7v-14.3h3.7v1.6l-0.7-1.6h10v14.3H769z M773.4,693h-5.6v10.5h5.6V693z" class="st21"></path>
		<path d="M789.7,705.4l-1-3.4h-5.6l-1,3.4h-4l4.3-14.3h6.8l4.3,14.3H789.7z M786.2,693h-0.6l-1.9,7h4.5L786.2,693z" class="st21"></path>
		<path d="M802.7,693v12.4H799V693h-4.8v-1.9h13.3v1.9H802.7z" class="st21"></path>
		<path d="M819.5,705.4h-11.1v-14.3h11.5v1.9h-7.7v4.2h7.4v1.8h-7.4v4.5h8L819.5,705.4z" class="st21"></path>
	</g>
	<g class="st20">
		<path d="M234.2,655.4l2,0.3l-1.1-1.1l2.6-2.6l10.2,10.1l-2.6,2.6l-1.2-1.2l1.6,0.7l-7,7.1l-10.2-10.1L234.2,655.4z
			 M239.9,667.2l3.9-4l-7.4-7.4l-3.9,4L239.9,667.2z" class="st21"></path>
		<path d="M219.6,670.1l3.1,1.7l3.9-4l-1.8-3.1l2.8-2.8l7.2,13.1l-4.8,4.9l-13.2-7L219.6,670.1z M230.9,676.3l0.4-0.4
			l-3.7-6.3l-3.1,3.2L230.9,676.3z" class="st21"></path>
		<path d="M219.3,688l-8.8-8.7l2.6-2.6l8.8,8.7l3.4-3.4l1.4,1.3l-9.3,9.4l-1.4-1.3L219.3,688z" class="st21"></path>
		<path d="M198.7,691.3l7.8-7.9l10.2,10.1l-8.1,8.1l-1.3-1.3l5.4-5.5l-3-3l-5.2,5.2l-1.3-1.3l5.2-5.2l-3.2-3.2
			l-5.7,5.7L198.7,691.3z" class="st21"></path>
	</g>
	<g class="st20">
		<path d="M550.2,402.6l-0.3,2l1.1-1.1l2.6,2.6l-10.1,10.2l-2.6-2.6l1.2-1.2l-0.7,1.6l-7.1-7l10.1-10.2L550.2,402.6z
			 M538.4,408.3l4,3.9l7.4-7.4l-4-3.9L538.4,408.3z" class="st21"></path>
		<path d="M535.5,388l-1.7,3.1l4,3.9l3.1-1.8l2.8,2.8l-13.1,7.2l-4.9-4.8l7-13.2L535.5,388z M529.3,399.3l0.4,0.4
			l6.3-3.7l-3.2-3.1L529.3,399.3z" class="st21"></path>
		<path d="M517.5,387.7l8.7-8.8l2.6,2.6l-8.7,8.8l3.4,3.4l-1.3,1.4l-9.4-9.3l1.3-1.4L517.5,387.7z" class="st21"></path>
		<path d="M514.3,367.1l7.9,7.8l-10.1,10.2L504,377l1.3-1.3l5.5,5.4l3-3l-5.2-5.2l1.3-1.3l5.2,5.2l3.2-3.2l-5.7-5.7
			L514.3,367.1z" class="st21"></path>
	</g>
</g>
<g>
	<path d="M435.2,409.5h13.5c16.9,0,25.7,10,25.7,27.3c0,17.3-8.8,27.7-25.4,27.7h-13.8V409.5z M448.2,459.3
		c13.4,0,19.8-8.5,19.8-22.5c0-14.1-6.5-22.2-19.8-22.2h-6.8v44.7H448.2z" class="st21"></path>
	<path d="M497.1,409.5h6.8l18.9,55h-6.6l-5.5-17.3h-20.6l-5.6,17.3h-6.2L497.1,409.5z M509.2,442.3l-2.9-8.9
		c-2.1-6.2-3.8-12.2-5.7-18.6h-0.3c-1.8,6.5-3.6,12.4-5.6,18.6l-2.9,8.9H509.2z" class="st21"></path>
	<path d="M538,414.8h-16.8v-5.3h39.9v5.3h-16.8v49.7H538V414.8z" class="st21"></path>
	<path d="M571.2,409.5h31.3v5.3h-25.1v18.1h21.1v5.3h-21.1v21.1h25.9v5.3h-32.2V409.5z" class="st21"></path>
</g>
<g>
	<path d="M326.1,347.8h-33.7l11.2-79.4l-13.8,1.9l2.7-18.4l48-6.7L326.1,347.8z" class="st21"></path>
	<path d="M369.6,259.1c0.5-3.4,2-6.3,4.7-8.6c2.7-2.3,5.7-3.5,9.1-3.5h88.8l-12.4,88.8c-0.6,3.4-2.2,6.3-4.8,8.6
		c-2.6,2.3-5.6,3.5-9,3.5h-88.8L369.6,259.1z M402.8,263.7l-9.6,67.3h33.5l9.6-67.3H402.8z" class="st21"></path>
	<path d="M500.6,259.1c0.5-3.4,2-6.3,4.7-8.6c2.7-2.3,5.7-3.5,9.1-3.5h88.8l-12.4,88.8c-0.6,3.4-2.2,6.3-4.8,8.6
		c-2.6,2.3-5.6,3.5-9,3.5h-88.8L500.6,259.1z M533.7,263.7l-9.6,67.3h33.5l9.6-67.3H533.7z" class="st21"></path>
	<path d="M723.8,344.8h-46.9l5.3-38.1L646,348.2h-26.9l50-57.2h-45.2l5.7-40.4h46.9l-5.3,38.1l32.8-37.6l-3.4-3.9h33.7
		l-50,57.2h45.2L723.8,344.8z M645.8,277.5h6.7l1.8-13.5h-6.7L645.8,277.5z M707.5,317.9h-6.7l-1.9,13.5h6.7L707.5,317.9z" class="st21"></path>
</g>
<g>
</g>
<g>
</g>
<g>
</g>
<g>
</g>
<g>
</g>
<g>
</g>
<g>
</g>
<g>
</g>
<g>
</g>
<g>
</g>
<g>
</g>
<g>
</g>
<g>
</g>
<g>
</g>
<g>
</g>
</svg>
