<svg xmlns="http://www.w3.org/2000/svg" fill="none" viewBox="0 0 1024 1024" height="1024" width="1024">
<path fill="url(#paint0_linear_1506_110942)" d="M539.964 479.166H472.398V546.732H539.964V479.166Z"></path>
<path fill="#FEE0BC" d="M578.144 461.306C583.909 463.635 591.735 457.719 595.624 448.092C599.514 438.465 597.994 428.772 592.23 426.444C586.465 424.115 578.639 430.031 574.75 439.658C570.86 449.285 572.38 458.977 578.144 461.306Z"></path>
<path fill="#FEE0BC" d="M434.996 461.195C429.273 463.624 421.345 457.845 417.288 448.288C413.231 438.731 414.582 429.013 420.305 426.584C426.028 424.155 433.956 429.933 438.013 439.491C442.07 449.048 440.719 458.765 434.996 461.195Z"></path>
<path fill="url(#paint1_linear_1506_110942)" d="M509.119 506.583C550.491 506.583 584.029 473.264 584.029 432.163C584.029 391.061 550.491 357.742 509.119 357.742C467.747 357.742 434.209 391.061 434.209 432.163C434.209 473.264 467.747 506.583 509.119 506.583Z"></path>
<path fill="url(#paint2_linear_1506_110942)" d="M530.11 313.378C533.348 309.679 535.219 305.308 535.219 300.624C535.219 287.319 520.119 276.533 501.491 276.533C482.864 276.533 467.764 287.319 467.764 300.624C467.764 306.071 470.295 311.096 474.562 315.132C411.129 333.959 401.3 410.119 432.986 437.844C446.588 397.034 569.017 397.034 582.621 437.844C607.149 405.139 598.507 328.207 530.11 313.378Z" clip-rule="evenodd" fill-rule="evenodd"></path>
<path fill="url(#paint3_linear_1506_110942)" d="M535.559 522.163C537.055 520.758 538.548 519.203 540.033 517.489L540.063 517.5C540.624 517.504 541.307 517.616 542.608 518.546C549.203 521.465 555.298 525.805 560.871 531.071C623.634 559.896 700.351 644.473 704.493 665.934C709.311 690.898 699.551 704.24 689.668 709.028C684.72 711.425 650.049 723.422 612.314 733.604C616.668 785.414 621.715 835.501 626.761 848.237C630.127 856.73 604.232 859.971 567.835 860.387C494.37 867.542 369.498 865.93 376.504 848.248C381.536 835.55 386.567 785.726 390.913 734.083C357.94 726.406 328.51 717.321 323.852 714.992C314.215 710.174 294.942 690.901 299.761 661.992C303.477 639.692 396.608 545.892 459.301 519.181C460.592 518.565 461.902 518.004 463.233 517.5C463.25 517.52 463.267 517.539 463.284 517.559C463.383 517.521 463.482 517.483 463.581 517.445C463.588 517.484 463.595 517.523 463.601 517.562C468.534 513.98 471.791 512.625 472.578 512.625C480.343 522.703 496.689 536.03 514.948 533.054C523.243 530.677 530.483 526.576 535.559 522.163ZM396.988 657.659C397.572 650.196 398.127 643.201 398.649 636.844C392.377 641.95 385.177 647.152 376.852 652.355C383.176 653.259 389.951 655.122 396.988 657.659ZM606.542 661.022C606.031 654.488 605.543 648.28 605.078 642.508C611.028 647.078 617.762 651.718 625.424 656.358C619.47 657.182 613.125 658.81 606.542 661.022Z" clip-rule="evenodd" fill-rule="evenodd"></path>
<path fill="#5B7EFB" d="M548.778 521.547C548.778 521.547 543.99 516.59 539.203 516.591C513.415 543.29 484.207 524.736 472.181 511.636C471.73 511.125 467.394 511.633 462.606 516.59C504.735 556.242 537.607 536.416 548.778 521.547Z"></path>
<path fill="#FEE4C3" d="M396.125 898.08L388.656 865.575L350.862 873.15L356.543 901.496L396.125 898.08Z"></path>
<path fill="#4F538F" d="M362.534 869.575C355.044 881.282 359.837 896.936 363.169 903.299C353.716 913.115 314.218 922.664 314.217 898.096C314.215 873.988 338.357 865.211 362.534 869.575Z"></path>
<path fill="#FEE4C3" d="M612.401 898.08L619.87 865.575L657.664 873.15L651.983 901.496L612.401 898.08Z"></path>
<path fill="#4F538F" d="M645.991 869.575C653.482 881.282 648.689 896.936 645.357 903.299C654.81 913.115 694.308 922.664 694.309 898.096C694.311 873.988 670.169 865.211 645.991 869.575Z"></path>
<path fill="#D1E2FF" d="M642.848 762.772C642.848 762.772 695.423 753.014 712.141 790.833C724.349 835.056 679.951 846.168 679.951 846.168L645.219 852.977L630.093 904.145L507.258 880.036L384.323 904.145L369.177 852.936L334.813 846.194C334.813 846.194 285.632 827.647 302.662 790.884C324.201 744.378 371.878 762.835 371.878 762.835L507.198 801.213L642.848 762.772Z"></path>
<path fill="url(#paint4_linear_1506_110942)" d="M385.248 605.506C385.248 604.954 385.696 604.506 386.248 604.506H615.343C615.896 604.506 616.343 604.954 616.343 605.506V768.035H385.248V605.506Z"></path>
<rect fill="url(#paint5_linear_1506_110942)" rx="2" height="14.6883" width="251.659" y="768.035" x="376.435"></rect>
<path fill="url(#paint6_linear_1506_110942)" d="M403.382 110C394.347 110 387.05 113.003 381.606 119.01C376.162 124.902 373.498 132.411 373.498 141.536C373.498 150.547 376.162 158.056 381.49 163.831C387.05 169.838 394.347 172.957 403.382 172.957C412.417 172.957 419.714 169.838 425.274 163.831C430.602 158.056 433.267 150.547 433.267 141.536C433.267 132.411 430.487 124.902 425.158 119.01C419.714 113.003 412.417 110 403.382 110ZM403.382 120.05C409.058 120.05 413.459 122.245 416.703 126.75C419.483 130.562 420.873 135.53 420.873 141.536C420.873 147.428 419.483 152.28 416.703 156.207C413.459 160.597 409.058 162.907 403.382 162.907C397.706 162.907 393.305 160.597 390.177 156.207C387.397 152.395 386.123 147.543 386.123 141.536C386.123 135.53 387.397 130.562 390.177 126.75C393.305 122.245 397.706 120.05 403.382 120.05Z"></path>
<path fill="url(#paint7_linear_1506_110942)" d="M472.496 110C463.461 110 456.164 113.003 450.72 119.01C445.276 124.902 442.612 132.411 442.612 141.536C442.612 150.547 445.276 158.056 450.604 163.831C456.164 169.838 463.461 172.957 472.496 172.957C481.531 172.957 488.828 169.838 494.388 163.831C499.717 158.056 502.381 150.547 502.381 141.536C502.381 132.411 499.601 124.902 494.273 119.01C488.828 113.003 481.531 110 472.496 110ZM472.496 120.05C478.172 120.05 482.574 122.245 485.817 126.75C488.597 130.562 489.987 135.53 489.987 141.536C489.987 147.428 488.597 152.28 485.817 156.207C482.574 160.597 478.172 162.907 472.496 162.907C466.821 162.907 462.419 160.597 459.291 156.207C456.512 152.395 455.237 147.543 455.237 141.536C455.237 135.53 456.512 130.562 459.291 126.75C462.419 122.245 466.821 120.05 472.496 120.05Z"></path>
<path fill="url(#paint8_linear_1506_110942)" d="M544.043 110C535.935 110 529.68 112.888 525.51 118.779V111.617H514.043V194.213H526.321V162.561C531.186 169.492 537.209 172.957 544.622 172.957C553.194 172.957 560.028 169.838 564.893 163.6C569.41 157.825 571.727 150.547 571.727 141.767C571.727 132.526 569.41 125.133 564.777 119.357C559.68 113.119 552.846 110 544.043 110ZM542.19 119.935C548.213 119.935 552.614 122.014 555.51 126.404C557.827 130.1 559.101 135.183 559.101 141.767C559.101 148.352 557.711 153.435 555.163 157.131C552.267 161.059 547.865 163.023 541.842 163.023C537.209 163.023 533.502 161.175 530.722 157.593C527.479 153.666 525.973 148.468 525.973 142.114V141.074C525.973 134.952 527.247 129.985 529.796 126.288C532.691 122.014 536.861 119.935 542.19 119.935Z"></path>
<path fill="url(#paint9_linear_1506_110942)" d="M605.625 110C598.444 110 592.536 111.502 588.019 114.621C583.502 117.624 581.301 121.898 581.301 127.328C581.301 132.411 583.617 136.454 588.251 139.342C591.031 141.19 596.011 142.923 603.077 144.54C609.216 145.926 613.27 147.081 615.124 148.005C618.598 149.623 620.452 151.933 620.452 154.821C620.452 160.135 615.587 162.907 606.089 162.907C601.455 162.907 598.212 162.099 596.127 160.597C594.042 158.98 592.536 156.092 591.841 152.049H579.795C581.185 165.911 589.988 172.957 606.436 172.957C624.158 172.957 633.077 166.604 633.077 154.012C633.077 148.699 630.645 144.54 625.896 141.536C622.653 139.457 617.556 137.493 610.722 135.876C604.699 134.374 600.76 133.219 598.676 132.295C595.432 130.793 593.811 129.06 593.811 126.981C593.811 124.671 594.853 122.823 597.054 121.667C598.907 120.512 601.687 120.05 605.394 120.05C609.564 120.05 612.807 120.743 614.892 122.129C616.861 123.4 618.251 125.595 619.178 128.829H631.108C629.718 116.238 621.147 110 605.625 110Z"></path>
<path fill="url(#paint10_linear_1506_110942)" d="M652.251 154.821C649.703 154.821 647.734 155.63 646.228 157.247C644.49 158.864 643.68 160.944 643.68 163.485C643.68 165.795 644.49 167.875 646.228 169.607C647.734 171.109 649.703 171.918 652.251 171.918C654.568 171.918 656.653 171.109 658.39 169.607C660.012 167.875 660.938 165.795 660.938 163.485C660.938 160.944 660.012 158.864 658.39 157.247C656.653 155.63 654.568 154.821 652.251 154.821Z"></path>
<path fill="url(#paint11_linear_1506_110942)" d="M683.811 154.821C681.262 154.821 679.293 155.63 677.787 157.247C676.05 158.864 675.239 160.944 675.239 163.485C675.239 165.795 676.05 167.875 677.787 169.607C679.293 171.109 681.262 171.918 683.811 171.918C686.127 171.918 688.212 171.109 689.95 169.607C691.571 167.875 692.498 165.795 692.498 163.485C692.498 160.944 691.571 158.864 689.95 157.247C688.212 155.63 686.127 154.821 683.811 154.821Z"></path>
<path fill="url(#paint12_linear_1506_110942)" d="M715.37 154.821C712.822 154.821 710.853 155.63 709.347 157.247C707.609 158.864 706.799 160.944 706.799 163.485C706.799 165.795 707.609 167.875 709.347 169.607C710.853 171.109 712.822 171.918 715.37 171.918C717.687 171.918 719.772 171.109 721.509 169.607C723.131 167.875 724.058 165.795 724.058 163.485C724.058 160.944 723.131 158.864 721.509 157.247C719.772 155.63 717.687 154.821 715.37 154.821Z"></path>
<defs>
<linearGradient gradientUnits="userSpaceOnUse" y2="546.732" x2="506.181" y1="487.898" x1="506.181" id="paint0_linear_1506_110942">
<stop stop-color="#FFCDA5"></stop>
<stop stop-color="#FFE8D1" offset="1"></stop>
</linearGradient>
<linearGradient gradientUnits="userSpaceOnUse" y2="506.583" x2="509.119" y1="357.742" x1="509.119" id="paint1_linear_1506_110942">
<stop stop-color="#FFF2DF"></stop>
<stop stop-color="#FEE0BC" offset="1"></stop>
</linearGradient>
<linearGradient gradientUnits="userSpaceOnUse" y2="442.378" x2="505.26" y1="300.624" x1="506.308" id="paint2_linear_1506_110942">
<stop stop-color="#483029"></stop>
<stop stop-color="#9F4326" offset="1"></stop>
</linearGradient>
<linearGradient gradientUnits="userSpaceOnUse" y2="511.873" x2="522.431" y1="840.171" x1="472.232" id="paint3_linear_1506_110942">
<stop stop-color="#6688FF" offset="0.0403741"></stop>
<stop stop-color="#F094FF" offset="1"></stop>
</linearGradient>
<linearGradient gradientUnits="userSpaceOnUse" y2="768.035" x2="500.796" y1="604.506" x1="500.796" id="paint4_linear_1506_110942">
<stop stop-color="#92AAFF"></stop>
<stop stop-color="#FCFDFF" offset="1"></stop>
</linearGradient>
<linearGradient gradientUnits="userSpaceOnUse" y2="782.723" x2="502.265" y1="768.035" x1="502.265" id="paint5_linear_1506_110942">
<stop stop-color="#BDCCFF"></stop>
<stop stop-color="#CCD7FF" offset="1"></stop>
</linearGradient>
<linearGradient gradientUnits="userSpaceOnUse" y2="108.127" x2="526.205" y1="188.42" x1="522.794" id="paint6_linear_1506_110942">
<stop stop-color="#6688FF" offset="0.0403741"></stop>
<stop stop-color="#F094FF" offset="1"></stop>
</linearGradient>
<linearGradient gradientUnits="userSpaceOnUse" y2="108.127" x2="526.205" y1="188.42" x1="522.794" id="paint7_linear_1506_110942">
<stop stop-color="#6688FF" offset="0.0403741"></stop>
<stop stop-color="#F094FF" offset="1"></stop>
</linearGradient>
<linearGradient gradientUnits="userSpaceOnUse" y2="108.127" x2="526.205" y1="188.42" x1="522.794" id="paint8_linear_1506_110942">
<stop stop-color="#6688FF" offset="0.0403741"></stop>
<stop stop-color="#F094FF" offset="1"></stop>
</linearGradient>
<linearGradient gradientUnits="userSpaceOnUse" y2="108.127" x2="526.205" y1="188.42" x1="522.794" id="paint9_linear_1506_110942">
<stop stop-color="#6688FF" offset="0.0403741"></stop>
<stop stop-color="#F094FF" offset="1"></stop>
</linearGradient>
<linearGradient gradientUnits="userSpaceOnUse" y2="108.127" x2="526.205" y1="188.42" x1="522.794" id="paint10_linear_1506_110942">
<stop stop-color="#6688FF" offset="0.0403741"></stop>
<stop stop-color="#F094FF" offset="1"></stop>
</linearGradient>
<linearGradient gradientUnits="userSpaceOnUse" y2="108.127" x2="526.205" y1="188.42" x1="522.794" id="paint11_linear_1506_110942">
<stop stop-color="#6688FF" offset="0.0403741"></stop>
<stop stop-color="#F094FF" offset="1"></stop>
</linearGradient>
<linearGradient gradientUnits="userSpaceOnUse" y2="108.127" x2="526.205" y1="188.42" x1="522.794" id="paint12_linear_1506_110942">
<stop stop-color="#6688FF" offset="0.0403741"></stop>
<stop stop-color="#F094FF" offset="1"></stop>
</linearGradient>
</defs>
</svg>
