<?xml version="1.0" encoding="UTF-8"?>
<svg width="48px" height="48px" viewBox="0 0 48 48" version="1.1" xmlns="http://www.w3.org/2000/svg" xmlns:xlink="http://www.w3.org/1999/xlink">
    <title>编组</title>
    <defs>
        <polygon id="path-1" points="0 0 47.9998 0 47.9998 31 0 31"></polygon>
    </defs>
    <g id="页面-1" stroke="none" stroke-width="1" fill="none" fill-rule="evenodd">
        <g id="5.Icon/4.空状态/8.暂无数据" transform="translate(-12.000000, 0.000000)">
            <g id="编组" transform="translate(12.000000, 0.000000)">
                <rect id="矩形" fill="#D8D8D8" opacity="0" x="0" y="0" width="48" height="48"></rect>
                <g transform="translate(0.000000, 5.000000)">
                    <mask id="mask-2" fill="white">
                        <use xlink:href="#path-1"></use>
                    </mask>
                    <g id="Clip-2"></g>
                    <path d="M36.7998,0 C37.4998,0 38.1998,0.4 38.4998,1 L47.9998,18 L47.9998,31 L-0.0002,31 L-0.0002,18 L9.3998,1 C9.7998,0.4 10.3998,0 11.0998,0 L36.7998,0 Z" id="Fill-1" fill="#444448" mask="url(#mask-2)"></path>
                </g>
                <path d="M32.5,11 C33,11 33.4,11.3 33.7,11.7 L40,23 L36.6,32 L10.4,32 L8,23 L14.3,11.7 C14.5,11.3 15,11 15.5,11 L32.5,11 Z" id="Fill-3" fill="#303033"></path>
                <path d="M35,23 C34.4,23 34,23.4 34,24 L34,29 C34,29.6 33.6,30 33,30 L15,30 C14.4,30 14,29.6 14,29 L14,24 C14,23.4 13.6,23 13,23 L0,23 L0,39.7 C0,41.5 1.3,43 3,43 L45,43 C46.7,43 48,41.5 48,39.7 L48,23 L35,23 Z" id="Fill-5" fill="#57575D"></path>
                <path d="M30,35 L18,35 C17.4,35 17,35.4 17,36 C17,36.6 17.4,37 18,37 L30,37 C30.6,37 31,36.6 31,36 C31,35.4 30.6,35 30,35" id="Fill-7" fill="#303033"></path>
            </g>
        </g>
    </g>
</svg>