<svg xmlns="http://www.w3.org/2000/svg" fill="none" viewBox="0 0 1024 1024" height="1024" width="1024">
<path fill="url(#paint0_linear_1507_110392)" d="M434 230.383H373V291.383H434V230.383Z"></path>
<path fill="url(#paint1_linear_1507_110392)" d="M412.5 252.383C445.913 252.383 473 221.043 473 182.383C473 143.723 445.913 112.383 412.5 112.383C379.087 112.383 352 143.723 352 182.383C356.5 219 379.087 252.383 412.5 252.383Z"></path>
<path fill="url(#paint2_linear_1507_110392)" d="M415.136 176.65C412.401 178.524 409.967 180.445 407.947 182.495C407.542 182.084 407.06 181.556 406.509 180.951C401.256 175.191 389.688 162.504 378.121 178.168C369.599 199.805 384.026 214.505 392 212C371.5 230 358 214 358 214C358 214 356.5 212.5 352 208.5C351.403 207.97 350.78 207.419 350.133 206.848C331.052 189.994 291.826 155.347 333.495 106.207C333.572 106.161 333.813 105.955 334.21 105.615C340.638 100.107 387.996 59.5313 445.853 98.3888C450.412 102.023 454.494 105.941 457.831 110.188C475.89 129.028 474.8 160.582 471.861 163.733C470.568 165.12 467.136 165.213 461.978 165.352C451.915 165.624 435.281 166.073 415.136 176.65Z" clip-rule="evenodd" fill-rule="evenodd"></path>
<path fill="url(#paint3_linear_1507_110392)" d="M423.062 162.291C417.478 164.268 410.418 166.66 401.04 169.73C377.947 177.29 371.68 180.383 366.721 182.83C361.309 185.5 357.454 187.403 335 193.502C316.5 174.001 289.5 135.502 346 91.0023C405.094 56.6895 443.65 84.2577 463.429 113.947C492.281 107.531 515.106 107.978 517.395 115.795C520.112 125.07 467.806 149.367 431.5 160.001C428.487 160.883 425.68 161.644 423.062 162.291Z" clip-rule="evenodd" fill-rule="evenodd"></path>
<path fill="#FFE9CD" d="M377 198.5C373.268 189.937 376.474 174.586 384.46 171.106C392.445 167.626 401.268 173.437 405 182C408.731 190.563 405.959 198.634 397.973 202.114C389.987 205.594 380.732 207.063 377 198.5Z"></path>
<rect fill="#FEE4C3" transform="rotate(10 321.621 890.406)" height="34.0879" width="25.5659" y="890.406" x="321.621"></rect>
<path fill="#7B7B7B" d="M382 939.633C382 951.369 367.759 952.383 348.894 952.383C330.029 952.383 309.868 952.383 305.598 939.633C305.794 940.19 301.328 931.133 314.138 918.383C314.138 918.383 326.945 926.883 344.025 918.383C360.689 921.645 382 930.891 382 939.633Z"></path>
<rect fill="#FEE4C3" transform="rotate(10.2556 449.809 890.227)" height="34.0879" width="25.5659" y="890.227" x="449.809"></rect>
<path fill="#7B7B7B" d="M510.353 939.319C510.3 951.086 496.085 952.039 477.259 951.955C458.433 951.871 438.313 951.781 434.109 938.979C434.302 939.539 429.886 930.438 442.726 917.713C442.726 917.713 455.469 926.291 472.552 917.846C489.167 921.191 510.392 930.555 510.353 939.319Z"></path>
<path fill="#DCDCDC" d="M373.608 515.383C352.421 515.452 335.485 517.578 335.485 517.578C335.485 517.578 341.407 580.716 336.689 649.571C328.944 762.401 309 903.559 309 903.559H351.129C351.129 903.559 420.367 712.843 419.636 588.403C444.714 693.23 441.498 905.383 441.498 905.383L485.819 901.73C485.819 901.73 501.451 773.267 505.311 670.009C508.432 586.352 499.938 523.743 499.938 523.743C478.252 521.312 456.289 521.097 434.54 523.104C434.483 523.109 434.426 523.115 434.369 523.121C424.774 520.504 412.743 517.811 400.478 516.578C392.112 515.735 383.627 515.408 375.671 515.383H373.608Z"></path>
<path fill="url(#paint4_linear_1507_110392)" d="M608.214 508.89C603.955 517.422 594.622 514.404 580.251 508.895C565.88 503.386 551.636 495.285 555.592 484.967C559.547 474.649 576.801 470.748 591.171 476.257C625.259 470.536 638.042 504.627 608.214 508.89Z"></path>
<path fill="url(#paint5_linear_1507_110392)" d="M434 265.383C434 265.383 463.318 276.313 475.611 296.499C495.867 329.773 507.485 386.63 507.485 386.63C507.485 386.63 508.421 403.927 521.769 428.475C536.292 455.179 541.546 458.52 541.546 458.52C541.546 458.52 562.291 472.347 567.927 473.542C574.802 475.002 591 482.125 591 482.125L580.013 515.383C580.013 515.383 534.801 511.271 503.079 497.142C479.386 486.582 470.117 458.515 470.117 458.515L434 265.383Z" clip-rule="evenodd" fill-rule="evenodd"></path>
<path fill="url(#paint6_linear_1507_110392)" d="M433.937 261.648C410.043 288.946 384.158 270.179 374.202 257.383C372.779 257.383 362.259 262.326 348.601 278.709C327.267 304.301 324.422 470.647 323 555.952C388.424 561.639 517.567 568.748 510.74 551.687C502.206 530.361 493.672 389.606 489.406 346.954C487.707 329.977 468.072 274.444 433.937 261.648Z"></path>
<path fill="#FB955B" d="M442 265.892C442 265.892 437.722 261.703 433.444 261.703C410.401 284.269 384.302 268.587 373.556 257.516C373.153 257.084 369.278 257.513 365 261.702C402.644 295.215 432.019 278.459 442 265.892Z"></path>
<path fill="url(#paint7_linear_1507_110392)" d="M719 393.383L560.909 401.954L558.608 410.526L531 513.383L684.818 500.526L719 393.383Z"></path>
<rect fill="url(#paint8_linear_1507_110392)" transform="matrix(0.99716 -0.0753149 0.100825 0.994904 471.863 510.564)" rx="0.1" height="6.87684" width="213.049"></rect>
<path fill="url(#paint9_linear_1507_110392)" d="M532.906 517.409C528.647 525.942 519.314 522.923 504.943 517.414C490.572 511.905 476.328 503.805 480.284 493.487C484.239 483.169 501.493 479.267 515.863 484.776C549.95 479.055 562.734 513.146 532.906 517.409Z"></path>
<path fill="url(#paint10_linear_1507_110392)" d="M327 364.07C327 335.977 341.107 278.9 358.072 270.383C392.004 274.641 410.527 320.54 413.209 355.553C417.45 410.914 430.173 410.92 442.897 436.471C453.076 456.912 498.035 479.056 515 483.315C515 484.734 512.455 493.535 502.276 517.383C485.311 513.124 451.38 508.866 404.725 483.315C358.07 457.764 327 393.88 327 364.07Z"></path>
<defs>
<linearGradient gradientUnits="userSpaceOnUse" y2="291.383" x2="403.5" y1="238.267" x1="403.5" id="paint0_linear_1507_110392">
<stop stop-color="#FFCDA5"></stop>
<stop stop-color="#FFE8D1" offset="1"></stop>
</linearGradient>
<linearGradient gradientUnits="userSpaceOnUse" y2="244.456" x2="474.114" y1="112.383" x1="403.201" id="paint1_linear_1507_110392">
<stop stop-color="#FFF2DF"></stop>
<stop stop-color="#FEE0BC" offset="1"></stop>
</linearGradient>
<linearGradient gradientUnits="userSpaceOnUse" y2="213.371" x2="339.353" y1="123.867" x1="444.059" id="paint2_linear_1507_110392">
<stop stop-color="#777CA7"></stop>
<stop stop-color="#636681" offset="1"></stop>
</linearGradient>
<linearGradient gradientUnits="userSpaceOnUse" y2="73.4272" x2="410.963" y1="185.358" x1="399.556" id="paint3_linear_1507_110392">
<stop stop-color="#646464" offset="0.0403741"></stop>
<stop stop-color="#534F3F" offset="1"></stop>
</linearGradient>
<linearGradient gradientUnits="userSpaceOnUse" y2="509.932" x2="582.957" y1="472.511" x1="597.302" id="paint4_linear_1507_110392">
<stop stop-color="#FEE4C3"></stop>
<stop stop-color="#FFD1AC" offset="1"></stop>
</linearGradient>
<linearGradient gradientUnits="userSpaceOnUse" y2="504.98" x2="583.538" y1="244.406" x1="459.16" id="paint5_linear_1507_110392">
<stop stop-color="#FFE194"></stop>
<stop stop-color="#FFBF84" offset="1"></stop>
</linearGradient>
<linearGradient gradientUnits="userSpaceOnUse" y2="547.465" x2="327.356" y1="231.791" x1="480.872" id="paint6_linear_1507_110392">
<stop stop-color="#FFE194"></stop>
<stop stop-color="#FFBF84" offset="1"></stop>
</linearGradient>
<linearGradient gradientUnits="userSpaceOnUse" y2="513.383" x2="622.864" y1="397.669" x1="622.864" id="paint7_linear_1507_110392">
<stop stop-color="#92AAFF"></stop>
<stop stop-color="white" offset="1"></stop>
</linearGradient>
<linearGradient gradientUnits="userSpaceOnUse" y2="1.61881" x2="11.9376" y1="-0.225891" x1="132.49" id="paint8_linear_1507_110392">
<stop stop-color="#EDF1FF"></stop>
<stop stop-color="#9DB2FF" offset="1"></stop>
</linearGradient>
<linearGradient gradientUnits="userSpaceOnUse" y2="518.452" x2="507.649" y1="481.031" x1="521.994" id="paint9_linear_1507_110392">
<stop stop-color="#FEE4C3"></stop>
<stop stop-color="#FFD1AC" offset="1"></stop>
</linearGradient>
<linearGradient gradientUnits="userSpaceOnUse" y2="523.316" x2="377.096" y1="249.658" x1="484.872" id="paint10_linear_1507_110392">
<stop stop-color="#FFE194"></stop>
<stop stop-color="#FFBF84" offset="1"></stop>
</linearGradient>
</defs>
</svg>
