<?xml version="1.0" encoding="utf-8"?>
<svg width="1408px" height="1408px" viewBox="0 0 1408 1408" version="1.1" xmlns:xlink="http://www.w3.org/1999/xlink" xmlns="http://www.w3.org/2000/svg">
  <g id="NLNet-3">
    <path d="M703.999 0L704.001 0Q721.283 0 738.545 0.847998Q755.806 1.696 773.005 3.38995Q790.204 5.0839 807.299 7.61973Q824.394 10.1556 841.344 13.5271Q858.294 16.8987 875.059 21.098Q891.823 25.2972 908.361 30.314Q924.899 35.3307 941.171 41.1529Q957.443 46.9751 973.41 53.5887Q989.376 60.2023 1005 67.5914Q1020.62 74.9805 1035.86 83.1273Q1051.11 91.2741 1065.93 100.159Q1080.75 109.044 1095.12 118.645Q1109.49 128.247 1123.37 138.542Q1137.25 148.837 1150.61 159.8Q1163.97 170.764 1176.78 182.37Q1189.58 193.976 1201.8 206.197Q1214.02 218.417 1225.63 231.222Q1237.24 244.027 1248.2 257.387Q1259.16 270.746 1269.46 284.627Q1279.75 298.508 1289.35 312.878Q1298.96 327.248 1307.84 342.071Q1316.73 356.895 1324.87 372.136Q1333.02 387.378 1340.41 403.001Q1347.8 418.624 1354.41 434.59Q1361.02 450.557 1366.85 466.829Q1372.67 483.101 1377.69 499.639Q1382.7 516.177 1386.9 532.941Q1391.1 549.705 1394.47 566.656Q1397.84 583.606 1400.38 600.701Q1402.92 617.796 1404.61 634.995Q1406.3 652.194 1407.15 669.455Q1408 686.717 1408 703.999L1408 704.001Q1408 721.283 1407.15 738.545Q1406.3 755.806 1404.61 773.005Q1402.92 790.204 1400.38 807.299Q1397.84 824.394 1394.47 841.344Q1391.1 858.294 1386.9 875.059Q1382.7 891.823 1377.69 908.361Q1372.67 924.899 1366.85 941.171Q1361.02 957.443 1354.41 973.41Q1347.8 989.376 1340.41 1005Q1333.02 1020.62 1324.87 1035.86Q1316.73 1051.11 1307.84 1065.93Q1298.96 1080.75 1289.35 1095.12Q1279.75 1109.49 1269.46 1123.37Q1259.16 1137.25 1248.2 1150.61Q1237.24 1163.97 1225.63 1176.78Q1214.02 1189.58 1201.8 1201.8Q1189.58 1214.02 1176.78 1225.63Q1163.97 1237.24 1150.61 1248.2Q1137.25 1259.16 1123.37 1269.46Q1109.49 1279.75 1095.12 1289.35Q1080.75 1298.96 1065.93 1307.84Q1051.11 1316.73 1035.86 1324.87Q1020.62 1333.02 1005 1340.41Q989.376 1347.8 973.41 1354.41Q957.443 1361.02 941.171 1366.85Q924.899 1372.67 908.361 1377.69Q891.823 1382.7 875.059 1386.9Q858.294 1391.1 841.344 1394.47Q824.394 1397.84 807.299 1400.38Q790.204 1402.92 773.005 1404.61Q755.806 1406.3 738.545 1407.15Q721.283 1408 704.001 1408L703.999 1408Q686.717 1408 669.455 1407.15Q652.194 1406.3 634.995 1404.61Q617.796 1402.92 600.701 1400.38Q583.606 1397.84 566.656 1394.47Q549.705 1391.1 532.941 1386.9Q516.177 1382.7 499.639 1377.69Q483.101 1372.67 466.829 1366.85Q450.557 1361.02 434.59 1354.41Q418.624 1347.8 403.001 1340.41Q387.378 1333.02 372.136 1324.87Q356.895 1316.73 342.071 1307.84Q327.248 1298.96 312.878 1289.35Q298.508 1279.75 284.627 1269.46Q270.746 1259.16 257.387 1248.2Q244.027 1237.24 231.222 1225.63Q218.417 1214.02 206.197 1201.8Q193.976 1189.58 182.37 1176.78Q170.764 1163.97 159.8 1150.61Q148.837 1137.25 138.542 1123.37Q128.247 1109.49 118.645 1095.12Q109.044 1080.75 100.159 1065.93Q91.2741 1051.11 83.1273 1035.86Q74.9805 1020.62 67.5914 1005Q60.2023 989.376 53.5887 973.41Q46.9751 957.443 41.1529 941.171Q35.3307 924.899 30.314 908.361Q25.2972 891.823 21.098 875.059Q16.8987 858.294 13.5271 841.344Q10.1556 824.394 7.61973 807.299Q5.0839 790.204 3.38995 773.005Q1.696 755.806 0.847998 738.545Q0 721.283 0 704.001L0 703.999Q0 686.717 0.847998 669.455Q1.696 652.194 3.38995 634.995Q5.0839 617.796 7.61973 600.701Q10.1556 583.606 13.5271 566.656Q16.8987 549.705 21.098 532.941Q25.2972 516.177 30.314 499.639Q35.3307 483.101 41.1529 466.829Q46.9751 450.557 53.5887 434.59Q60.2023 418.624 67.5914 403.001Q74.9805 387.378 83.1273 372.136Q91.2741 356.895 100.159 342.071Q109.044 327.248 118.645 312.878Q128.247 298.508 138.542 284.627Q148.837 270.746 159.8 257.387Q170.764 244.027 182.37 231.222Q193.976 218.417 206.197 206.197Q218.417 193.976 231.222 182.37Q244.027 170.764 257.387 159.8Q270.746 148.837 284.627 138.542Q298.508 128.247 312.878 118.645Q327.248 109.044 342.071 100.159Q356.895 91.2741 372.136 83.1273Q387.378 74.9805 403.001 67.5914Q418.624 60.2023 434.59 53.5887Q450.557 46.9751 466.829 41.1529Q483.101 35.3307 499.639 30.314Q516.177 25.2972 532.941 21.098Q549.705 16.8987 566.656 13.5271Q583.606 10.1556 600.701 7.61973Q617.796 5.0839 634.995 3.38995Q652.194 1.696 669.455 0.847998Q686.717 0 703.999 0Z" id="矩形" fill="#E96D3F" fill-rule="evenodd" stroke="none" />
    <g id="编组" transform="translate(150.64807 324.95825)">
      <path d="M116.352 298.321C125.352 283.696 132.352 200.321 155.352 133.321C178.352 66.3208 189.352 61.5709 208.352 30.3209C227.352 -0.929157 231.352 8.32082 231.352 8.32082C231.352 8.32082 239.602 34.6959 242.352 64.8209C245.102 94.9459 242.352 133.321 242.352 133.321L287.852 19.8208C287.852 19.8208 294.477 20.5708 297.852 36.8208C301.227 53.0708 301.352 63.3208 301.352 84.8208C301.352 106.321 297.852 122.821 297.852 122.821C297.852 122.821 299.102 111.446 339.852 99.8209C380.602 88.1959 389.102 80.0708 460.852 76.3208C532.602 72.5708 549.103 67.1958 634.853 84.8208C720.603 102.446 751.603 119.446 803.853 146.821C856.103 174.196 861.352 247.821 861.352 247.821C861.352 247.821 866.227 281.696 851.852 323.321C837.477 364.946 803.853 414.321 803.853 414.321C803.853 414.321 788.228 441.071 768.353 460.321C748.478 479.571 740.227 474.946 724.352 491.321C708.477 507.696 707.078 519.521 704.853 525.821C702.628 532.121 713.852 697.321 713.852 697.321C713.852 697.321 683.602 611.821 682.352 591.321C681.102 570.821 670.852 590.696 666.852 607.321C662.852 623.946 644.977 655.821 634.853 687.821C624.728 719.821 626.353 749.321 626.353 749.321L594.353 572.821C594.353 572.821 589.334 580.403 583.959 582.028C578.584 583.653 495.879 605.998 486.852 607.321C477.826 608.644 467.852 607.321 467.852 607.321L430.852 697.321C430.852 697.321 414.352 679.821 402.352 650.321C390.352 620.821 382.852 579.321 382.852 579.321C382.852 579.321 361.102 600.321 339.852 642.821C318.602 685.321 297.852 749.321 297.852 749.321C297.852 749.321 269.977 674.696 249.852 607.321C229.727 539.946 217.352 479.821 217.352 479.821C217.352 479.821 205.477 488.446 172.852 479.821C140.227 471.196 86.852 445.321 86.852 445.321L68.8519 452.321C68.8519 452.321 88.2269 431.571 75.3519 429.821C62.4769 428.071 17.3518 445.321 17.3518 445.321L8.35193 437.321C8.35193 437.321 19.9768 408.821 24.3518 380.321C28.7268 351.821 25.8519 323.321 25.8519 323.321L17.3518 311.821C17.3518 311.821 72.352 323.321 86.852 323.321C101.352 323.321 75.3519 311.821 75.3519 311.821C75.3519 311.821 107.352 312.946 116.352 298.321Z" id="Pig" fill="#FFD5BF" fill-rule="evenodd" stroke="none" />
      <path d="M410.167 249.783C417.388 249.783 439.116 261.547 439.352 261.783C441.018 263.45 449.727 270.777 451.352 283.283C452.977 295.789 450.791 302.673 448.166 311.808C445.541 320.942 439.59 328.398 439.166 328.821C438.184 329.803 419.41 343.386 397.852 349.321C379.445 354.389 358.566 352.308 349.852 349.321C335.062 344.252 326.44 331.621 324.852 327.136C320.728 315.492 324.103 301.908 326.166 296.783C330.041 287.158 340.166 275.283 340.166 275.283C340.166 275.283 344.633 271.817 346.666 269.783C354.693 261.756 376.956 247.783 379.352 247.783L410.167 249.783Z" id="Eye" fill="#FFFFFF" fill-rule="evenodd" stroke="none" />
      <path d="M25.3266 373.389L89.3266 382.389C91.2407 382.658 92.7794 383.565 93.9426 385.108C95.1058 386.652 95.5528 388.381 95.2836 390.296C95.1543 391.215 94.8541 392.074 94.3829 392.874C93.9117 393.674 93.3054 394.353 92.564 394.911C91.8226 395.47 91.0026 395.866 90.1039 396.098C89.2052 396.33 88.2962 396.382 87.377 396.253L23.377 387.253C21.4628 386.983 19.9242 386.077 18.761 384.533C17.5978 382.989 17.1508 381.26 17.42 379.346C17.5493 378.427 17.8495 377.567 18.3207 376.767C18.7919 375.968 19.3982 375.288 20.1395 374.73C20.8809 374.171 21.701 373.776 22.5997 373.544C23.4984 373.311 24.4074 373.26 25.3266 373.389L25.3266 373.389Z" id="矢量图" fill="#3D3D3D" fill-rule="evenodd" stroke="none" />
      <path d="M261.42 249.436C263.019 249.786 264.785 250.114 266.72 250.421C272.548 251.345 279.9 252.075 288.778 252.611C312.621 254.05 337.923 252.968 364.685 249.365C386.339 246.451 412.449 241.416 443.016 234.261C442.732 233.75 442.473 233.216 442.239 232.659C440.762 229.149 440.746 225.696 442.19 222.302L438.278 223.935C437.666 224.19 437.029 224.319 436.366 224.321C435.703 224.323 435.065 224.198 434.451 223.945C433.838 223.693 433.296 223.334 432.826 222.866C432.356 222.399 431.993 221.859 431.738 221.247C431.302 220.204 431.229 219.136 431.518 218.043C431.807 216.95 432.399 216.057 433.293 215.366L456.289 197.582C450.143 198.813 444.038 200.469 437.975 202.55C431.654 204.719 423.747 208.546 414.254 214.029C403.982 219.963 395.933 223.375 390.106 224.264C382.724 225.39 377.753 224.841 375.196 222.618C373.537 221.176 372.56 219.154 372.265 216.553C372.141 215.46 372.132 213.638 372.239 211.087C372.314 209.276 372.352 207.854 372.352 206.821C372.352 201.505 374.505 194.182 378.812 184.85C379.505 183.349 380.199 181.898 380.894 180.5C382.272 177.728 383.653 175.159 385.037 172.795C385.734 171.603 386.751 170.833 388.087 170.483C389.423 170.134 390.686 170.308 391.878 171.006C392.45 171.341 392.936 171.772 393.337 172.301C393.737 172.829 394.021 173.414 394.189 174.056C394.357 174.697 394.396 175.346 394.305 176.003C394.215 176.66 394.002 177.274 393.667 177.847C391.749 181.123 389.824 184.855 387.892 189.041C384.198 197.043 382.352 202.97 382.352 206.821C382.352 207.993 382.311 209.554 382.23 211.503C382.164 213.082 382.143 214.223 382.168 214.926C382.225 214.93 382.283 214.932 382.343 214.935C383.695 214.993 385.78 214.808 388.598 214.378C393.183 213.678 400.068 210.676 409.252 205.37C419.304 199.564 427.796 195.471 434.729 193.092C443.828 189.969 453.022 187.739 462.312 186.403C467.012 185.727 470.833 185.366 473.776 185.321C474.563 185.309 475.311 185.474 476.021 185.816C476.73 186.157 477.325 186.639 477.807 187.262C478.213 187.787 478.503 188.369 478.677 189.008C478.851 189.648 478.896 190.297 478.811 190.955C478.727 191.612 478.521 192.229 478.191 192.804C477.862 193.38 477.435 193.87 476.911 194.276L469.34 200.131L485.865 193.232L485.926 193.207C487.188 192.68 488.453 192.672 489.722 193.184C490.991 193.695 491.897 194.579 492.44 195.834C492.704 196.443 492.841 197.078 492.851 197.741C492.862 198.404 492.745 199.044 492.501 199.66C492.257 200.277 491.905 200.823 491.443 201.3C490.982 201.776 490.447 202.146 489.839 202.409L489.778 202.435C485.209 204.415 480.251 206.778 474.905 209.522C464.432 214.897 457.427 219.345 453.889 222.865C451.576 225.166 450.766 227.138 451.457 228.781C451.588 229.094 451.738 229.383 451.908 229.65L519.251 214.444C520.539 214.153 521.752 214.342 522.89 215.013C524.028 215.684 524.782 216.653 525.152 217.921C525.337 218.557 525.394 219.205 525.322 219.864C525.25 220.523 525.055 221.144 524.736 221.725C524.417 222.306 523.999 222.805 523.482 223.22C522.965 223.635 522.388 223.935 521.752 224.121C506.69 228.514 488.919 233.27 468.44 238.39C427.426 248.644 393.286 255.605 366.019 259.276C338.614 262.965 312.666 264.071 288.176 262.593C275.834 261.848 266.203 260.719 259.283 259.205C258.636 259.064 258.04 258.803 257.496 258.425C256.951 258.046 256.5 257.577 256.142 257.019C255.785 256.461 255.547 255.855 255.43 255.203C255.313 254.55 255.326 253.9 255.467 253.252C255.762 251.903 256.491 250.856 257.654 250.111C258.816 249.366 260.072 249.141 261.42 249.436L261.42 249.436Z" id="矢量图" fill="#3D3D3D" fill-rule="evenodd" stroke="none" />
      <path d="M758.014 463.963C768.251 459.875 779.759 455.514 792.537 450.881C795.521 449.799 798.572 448.703 801.693 447.592C834.831 435.795 861.251 427.772 880.955 423.523C895.29 420.432 908.204 418.877 919.698 418.859C920.074 418.505 920.454 418.148 920.838 417.789C925.115 413.787 928.128 410.88 929.878 409.068C940.257 398.323 949.633 389.761 958.006 383.383C963.468 379.222 971.951 373.619 983.453 366.572C986.551 364.674 988.938 363.206 990.615 362.168C991.556 361.586 992.473 361.022 993.365 360.478C991.638 345.145 994.638 330.043 1002.37 315.171C1004.98 310.136 1008.37 304.958 1012.53 299.637C1022.52 286.858 1036.95 273.254 1055.84 258.825C1068.97 248.798 1081.27 240.382 1092.77 233.577C1093.79 232.969 1094.9 232.58 1096.08 232.411C1097.26 232.243 1098.43 232.306 1099.59 232.602C1100.74 232.898 1101.8 233.405 1102.75 234.121C1103.71 234.837 1104.49 235.708 1105.1 236.735C1106.36 238.873 1106.69 241.146 1106.07 243.554C1105.45 245.962 1104.08 247.799 1101.94 249.065C1091.06 255.509 1079.33 263.531 1066.77 273.129C1042.15 291.941 1026 308.721 1018.34 323.471C1013.65 332.487 1011.19 341.572 1010.95 350.725C1012.12 350.192 1013.15 349.768 1014.05 349.452C1018.24 347.982 1024.28 347.268 1032.17 347.31C1033.54 347.317 1034.6 347.321 1035.35 347.321C1041.92 347.321 1048 348.616 1053.6 351.207C1061.35 354.791 1066.3 360.119 1068.46 367.192C1069.88 371.852 1069.5 377.503 1067.31 384.144C1064.64 392.255 1060 398.239 1053.39 402.095C1046.93 405.861 1039.75 407.605 1031.84 407.327C1024.66 407.074 1018.41 405.283 1013.08 401.953C1009.91 399.97 1006.7 396.298 1003.46 390.936C1001.2 387.195 999.287 383.194 997.722 378.934C996.356 379.775 994.734 380.77 992.856 381.921C981.872 388.65 973.891 393.91 968.913 397.702C961.316 403.489 952.684 411.38 943.017 421.375C946.217 422.187 948.876 423.17 950.994 424.327C955.583 426.55 960.539 429.476 965.859 433.104C977.094 440.764 985.034 448.689 989.68 456.881C989.712 456.937 989.744 456.994 989.775 457.052C989.806 457.109 989.836 457.167 989.866 457.225C994.739 466.76 996.452 478.466 995.005 492.343C994.053 501.476 992.413 508.679 990.086 513.954C987.288 520.296 982.336 526.897 975.231 533.756C966.878 541.819 958.302 547.208 949.504 549.921C943.271 551.844 934.887 551.836 924.353 549.899C911.409 547.518 901.551 542.708 894.779 535.469C887.807 528.016 883.547 517.529 881.999 504.007C880.993 495.22 881.142 486.388 882.448 477.512C884.256 465.211 889.421 453.387 897.943 442.038C898.848 440.833 899.857 439.565 900.969 438.235C895.838 438.932 890.431 439.893 884.749 441.119C865.807 445.203 840.134 453.014 807.73 464.55C791.451 470.345 777.104 475.721 764.69 480.679C763.581 481.122 762.43 481.335 761.237 481.32C760.044 481.305 758.898 481.062 757.802 480.591C756.705 480.12 755.74 479.458 754.907 478.603C754.074 477.749 753.436 476.767 752.994 475.659C752.072 473.351 752.101 471.055 753.081 468.771C754.062 466.487 755.706 464.884 758.014 463.963L758.014 463.963ZM1018.87 381.625C1016.66 377.972 1014.89 373.941 1013.55 369.532C1016.4 367.98 1018.56 366.948 1020.02 366.435C1022.24 365.654 1026.26 365.279 1032.08 365.31C1033.48 365.317 1034.57 365.321 1035.35 365.321C1039.27 365.321 1042.84 366.062 1046.04 367.544C1048.92 368.874 1050.65 370.509 1051.24 372.45C1051.56 373.467 1051.21 375.487 1050.22 378.51C1048.97 382.303 1047 384.982 1044.32 386.547C1040.86 388.563 1036.91 389.494 1032.47 389.338C1028.51 389.198 1025.22 388.315 1022.62 386.689C1021.88 386.224 1020.63 384.536 1018.87 381.625L1018.87 381.625ZM912.337 452.847C915.491 448.646 920.282 443.391 926.71 437.082C928.227 437.187 929.706 437.327 931.148 437.504C936.761 438.192 940.515 439.073 942.411 440.149C942.5 440.199 942.59 440.248 942.68 440.296C942.771 440.343 942.862 440.389 942.955 440.433C946.797 442.279 951.052 444.793 955.719 447.976C964.564 454.006 970.633 459.878 973.926 465.592C977.112 471.937 978.171 480.232 977.102 490.476C976.345 497.734 975.184 503.138 973.618 506.688C971.77 510.876 968.14 515.582 962.729 520.806C956.437 526.88 950.261 530.851 944.199 532.721C940.778 533.776 935.248 533.601 927.609 532.196C918.555 530.53 911.994 527.523 907.924 523.172C903.66 518.614 900.979 511.543 899.882 501.96C899.055 494.731 899.179 487.455 900.256 480.13C901.621 470.849 905.648 461.755 912.337 452.847L912.337 452.847Z" id="矢量图" fill="#3D3D3D" fill-rule="evenodd" stroke="none" />
      <path d="M110.39 294.652C112.536 291.165 116.249 274.984 121.529 246.11C125.875 222.343 129.509 203.868 132.43 190.683C137.489 167.846 142.923 147.968 148.731 131.048C156.562 108.238 163.986 89.9905 171.005 76.3045C175.35 67.8336 181.534 57.7853 189.557 46.1596C195.01 38.2571 199.282 31.7654 202.371 26.6842C211.013 12.4705 218.217 4.00082 223.982 1.27517C227.57 -0.420804 230.863 -0.425114 233.861 1.26224C235.679 2.28515 236.984 3.71066 237.776 5.53879L237.777 5.54251L237.923 5.88009L238.033 6.23109C239.46 10.794 240.996 16.6137 242.639 23.6902C245.92 37.8148 248.148 51.313 249.323 64.1845C250.168 73.4435 250.632 83.2655 250.714 93.6505L283.34 12.2653L288.64 12.8652C291.451 13.1835 294.136 14.709 296.696 17.4419C300.363 21.3573 303.033 27.3424 304.706 35.3973C306.339 43.2612 307.389 50.9345 307.854 58.4173C308.186 63.751 308.352 72.5522 308.352 84.8208C308.352 91.8492 308.079 98.5018 307.531 104.778C315.194 100.581 325.328 96.6851 337.932 93.0894C343.771 91.4237 351.367 89.0846 360.721 86.072C376.115 81.114 388.762 77.6903 398.662 75.801C414.245 72.827 434.853 70.6701 460.487 69.3304C468.012 68.937 478.1 68.3383 490.75 67.5342C519.044 65.7356 540.275 65.2115 554.443 65.9619C575.481 67.0761 602.753 71.0769 636.262 77.9641C674.493 85.8222 706.556 94.786 732.45 104.856C749.066 111.318 772.576 122.519 802.98 138.46C804.758 139.392 806.132 140.113 807.101 140.62C830.478 152.868 847.704 174.395 858.778 205.202C864.191 220.261 867.371 234.219 868.317 247.075C869.161 253.113 869.385 260.84 868.987 270.257C868.187 289.168 864.681 307.617 858.469 325.606C852.331 343.379 842.345 364.16 828.513 387.949C821.682 399.698 815.435 409.735 809.774 418.062C807.087 422.643 803.59 427.998 799.283 434.127C790.508 446.613 781.822 457.021 773.223 465.349C765.926 472.417 757.361 478.43 747.528 483.39C740.044 487.165 733.994 491.433 729.378 496.193C724.009 501.732 719.904 507.25 717.063 512.749C715.474 515.825 713.991 519.716 712.615 524.423C712.115 526.131 711.728 527.374 711.453 528.152C710.29 531.444 713.418 587.675 720.836 696.846L707.253 699.656C702.188 685.341 697.074 670.174 691.909 654.157C683.726 628.779 678.57 610.53 676.441 599.408C675.443 602.211 674.516 605.394 673.658 608.958C672.288 614.652 667.877 625.89 660.424 642.671C651.281 663.257 644.982 679.011 641.526 689.933C637.472 702.747 634.892 716.465 633.786 731.089C633.236 738.37 633.088 744.319 633.342 748.936L619.465 750.57L589.823 587.077C588.573 587.782 587.294 588.333 585.985 588.728C581.288 590.148 565.483 594.424 538.568 601.554C508.932 609.406 492.032 613.637 487.868 614.247C482.871 614.98 477.697 615.165 472.344 614.804L433.201 710.017L425.759 702.123C422.774 698.957 419.308 694.545 415.361 688.889C407.563 677.71 401.065 665.734 395.868 652.959C390.736 640.341 385.878 624.485 381.296 605.392C380.37 601.536 379.528 597.883 378.768 594.432C377.533 595.964 376.236 597.617 374.877 599.391C364.356 613.121 354.768 628.641 346.113 645.952C337.375 663.428 327.822 686.253 317.453 714.426C312.255 728.549 307.941 740.9 304.511 751.48L298.32 770.577L291.295 751.771C272.657 701.875 256.607 654.393 243.145 609.324C234.732 581.158 226.773 551.394 219.27 520.03C216.441 508.203 214.083 497.946 212.197 489.26C211.008 489.531 209.741 489.769 208.395 489.975C198.04 491.559 185.595 490.43 171.063 486.589C157.145 482.909 138.427 475.977 114.909 465.792C104.385 461.234 94.9337 456.952 86.5556 452.947L71.389 458.845L63.7355 447.544C66.6259 444.448 69.0217 441.311 70.923 438.133C71.2352 437.611 71.5077 437.135 71.7406 436.702C66.4872 437.011 57.1211 439.306 43.6425 443.586C35.1773 446.275 27.2469 449.032 19.8514 451.859L15.8794 453.378L2.00272e-05 439.262L1.87038 434.677C3.74191 430.089 5.80188 424.315 8.05029 417.356C12.5392 403.463 15.6668 390.764 17.4329 379.259C19.1955 367.777 19.9657 355.11 19.7436 341.258C19.6473 335.252 19.4201 330.137 19.0619 325.911L0.803954 301.209L18.7845 304.969C42.9659 310.025 61.1192 313.392 73.2445 315.07L75.5979 304.825C80.4559 304.996 85.6923 304.605 91.307 303.654C101.388 301.945 107.749 298.944 110.39 294.652L110.39 294.652ZM248.85 135.926L289.841 33.6715C290.262 35.0305 290.648 36.5548 290.999 38.2443C292.496 45.4552 293.457 52.4694 293.881 59.2868C294.195 64.3309 294.352 72.8423 294.352 84.8208C294.352 98.3367 293.289 110.269 291.161 120.618C291.036 121.099 290.947 121.579 290.894 122.056L304.696 124.273C304.67 124.379 304.642 124.477 304.611 124.568L304.676 124.481C305.247 123.535 306.331 122.428 307.926 121.16C314.406 116.01 325.688 111.141 341.772 106.552C347.763 104.843 355.51 102.459 365.013 99.3979C379.86 94.616 391.951 91.3343 401.286 89.5528C416.244 86.6983 436.221 84.6178 461.218 83.3113C468.797 82.9152 478.937 82.3134 491.638 81.506C519.389 79.7419 540.077 79.2207 553.703 79.9423C574.041 81.0195 600.621 84.9312 633.443 91.6775C670.904 99.3771 702.215 108.119 727.375 117.904C743.504 124.176 766.539 135.161 796.479 150.859C798.259 151.792 799.634 152.513 800.604 153.021C820.76 163.581 835.759 182.553 845.603 209.938C848.739 218.661 851.145 227.716 852.822 237.103C853.652 241.75 854.168 245.488 854.37 248.319L854.37 248.32L854.388 248.569L854.424 248.818C855.174 254.034 855.366 260.984 854.999 269.666C854.257 287.213 851.002 304.336 845.235 321.036C839.394 337.95 829.786 357.909 816.41 380.912C809.691 392.467 803.577 402.29 798.067 410.381L797.931 410.581L797.808 410.79C795.303 415.08 791.976 420.175 787.829 426.077C779.562 437.841 771.447 447.579 763.483 455.293C757.207 461.371 749.787 466.57 741.223 470.89C732.335 475.373 725.036 480.559 719.326 486.449C712.998 492.976 708.098 499.601 704.625 506.323C702.623 510.198 700.807 514.922 699.178 520.493C698.75 521.953 698.442 522.953 698.252 523.49C696.767 527.696 698.45 567.81 703.302 643.831C694.447 615.971 689.792 598.326 689.339 590.895C688.899 583.677 687.023 579.019 683.712 576.922C678.85 573.841 674.261 575.306 669.947 581.317C665.898 586.959 662.597 595.081 660.047 605.684C658.876 610.55 654.736 620.985 647.629 636.989C638.275 658.051 631.792 674.291 628.179 685.709C626.76 690.193 625.509 694.774 624.425 699.452L598.132 554.427L588.515 568.958C586.099 572.608 583.905 574.731 581.934 575.328C577.391 576.701 561.741 580.932 534.983 588.021C505.86 595.737 489.478 599.862 485.837 600.395C480.464 601.183 474.776 601.178 468.773 600.382L463.428 599.673L428.871 683.731C428.215 682.827 427.539 681.876 426.843 680.878C419.642 670.556 413.64 659.491 408.836 647.683C403.969 635.719 399.327 620.532 394.909 602.125C392.69 592.879 390.967 584.863 389.741 578.076L387.411 565.188L377.99 574.285C374.114 578.027 369.372 583.558 363.765 590.876C352.702 605.313 342.644 621.584 333.591 639.691C324.621 657.631 314.862 680.931 304.314 709.591C301.874 716.221 299.625 722.471 297.566 728.339C281.925 685.482 268.256 644.475 256.559 605.318C248.22 577.4 240.329 547.885 232.886 516.773C229.165 501.217 226.272 488.43 224.208 478.41L224.208 478.409L222.02 467.779L213.238 474.157C212.176 474.929 209.856 475.589 206.278 476.136C197.842 477.427 187.296 476.399 174.641 473.053C161.402 469.554 143.346 462.851 120.473 452.945C108.96 447.959 98.771 443.318 89.9055 439.022L89.9048 439.022L87.1593 437.691L86.1897 438.068C86.5718 436.667 86.7646 435.342 86.7679 434.093C86.776 431.058 85.7965 428.511 83.8294 426.453C81.9658 424.504 79.4543 423.314 76.2947 422.885C69.8897 422.014 57.5931 424.467 39.405 430.243C32.1825 432.537 25.3289 434.883 18.844 437.282L16.6451 435.327C18.1329 431.365 19.7086 426.809 21.3722 421.66C26.0915 407.054 29.391 393.628 31.2708 381.383C33.1529 369.122 33.9765 355.673 33.7418 341.033C33.6243 333.709 33.3159 327.571 32.8166 322.618L32.7656 322.113C60.3035 327.585 78.3323 330.321 86.852 330.321C89.619 330.321 91.8244 329.939 93.4682 329.176C95.3319 328.311 96.6775 327.001 97.505 325.248C98.4413 323.265 98.5197 321.216 97.7402 319.103C97.4725 318.377 97.0671 317.649 96.5243 316.919C109.193 314.318 117.789 309.341 122.314 301.99C124.482 298.466 126.693 291.626 128.948 281.467C130.266 275.527 132.384 264.58 135.301 248.628C139.615 225.033 143.215 206.727 146.098 193.711C151.044 171.388 156.335 152.016 161.973 135.594C169.586 113.417 176.749 95.7836 183.462 82.6934C187.529 74.7638 193.401 65.2365 201.079 54.1114C206.686 45.987 211.104 39.269 214.333 33.9574C219.348 25.7103 223.4 19.9679 226.49 16.7302C227.29 19.7137 228.127 23.0896 229.002 26.8577C232.138 40.3579 234.264 53.2244 235.381 65.4572C237.18 85.1621 237.176 107.617 235.37 132.821L248.85 135.926L248.85 135.926Z" id="矢量图" fill="#3D3D3D" fill-rule="evenodd" stroke="none" />
      <path d="M410.445 242.786C414.537 242.882 421.168 245.071 430.339 249.352C438.441 253.133 443.096 255.627 444.302 256.833C444.349 256.88 444.482 257.008 444.701 257.216C452.552 264.679 457.083 273.068 458.293 282.381C459.077 288.416 459.098 294.055 458.356 299.298C457.905 302.485 456.847 306.966 455.182 312.741C455.054 313.185 454.958 313.519 454.894 313.741C453.614 318.196 451.587 322.693 448.814 327.231C446.885 330.388 445.319 332.568 444.116 333.77C442.048 335.839 437.235 339.016 429.679 343.302C419.363 349.154 409.373 353.409 399.71 356.07C390.62 358.572 380.719 359.662 370.006 359.338C360.855 359.062 353.38 357.93 347.582 355.943C340.015 353.349 333.276 348.992 327.366 342.872C322.769 338.111 319.731 333.645 318.253 329.473C316.084 323.348 315.409 316.447 316.229 308.772C316.814 303.286 317.962 298.418 319.673 294.169C322.54 287.046 327.596 279.237 334.84 270.741L335.306 270.194L335.875 269.753C338.621 267.622 340.568 265.982 341.717 264.833C345.78 260.77 352.304 255.797 361.286 249.916C370.587 243.827 376.609 240.783 379.352 240.783L379.579 240.783L410.445 242.786L410.445 242.786ZM332.66 299.397C334.903 293.826 339.029 287.481 345.038 280.361C347.956 278.076 350.149 276.2 351.616 274.733C354.998 271.35 360.778 266.983 368.955 261.63C372.299 259.44 375.247 257.627 377.797 256.191C378.812 255.62 379.648 255.176 380.302 254.859L409.94 256.783L410.167 256.783C412.162 256.783 416.913 258.535 424.418 262.038C431.03 265.124 434.358 266.689 434.402 266.733C434.533 266.863 434.75 267.074 435.055 267.363C440.508 272.546 443.626 278.154 444.41 284.185C445.031 288.964 445.059 293.347 444.494 297.335C444.135 299.874 443.213 303.717 441.73 308.864C441.594 309.336 441.497 309.673 441.439 309.875C440.507 313.117 438.983 316.469 436.868 319.931C435.518 322.141 434.634 323.454 434.217 323.871C433.043 325.045 429.228 327.463 422.772 331.125C413.464 336.404 404.538 340.219 395.994 342.572C388.259 344.702 379.737 345.626 370.429 345.345C362.687 345.111 356.585 344.229 352.121 342.699C346.681 340.834 341.786 337.65 337.437 333.147C334.247 329.844 332.251 327.061 331.45 324.799C329.989 320.672 329.555 315.825 330.15 310.258C330.597 306.062 331.434 302.442 332.66 299.397L332.66 299.397Z" id="矢量图" fill="#3D3D3D" fill-rule="evenodd" stroke="none" />
      <path d="M398.154 326.769C397.581 327.06 396.859 327.455 395.987 327.953C393.746 329.233 392.142 330.212 391.174 330.889C387.102 333.739 386.747 333.506 381.852 332.642C376.957 331.779 377.702 330.841 374.852 326.769C372.002 322.697 372.988 324.037 373.852 319.142C374.716 314.247 379.78 315.865 383.852 313.014C393.352 306.365 394.637 300.142 400.352 300.142C401.003 300.222 404.163 299.128 407.677 302.642C411.192 306.157 411.352 304.451 411.352 309.422C411.352 313.468 410.127 317.1 407.677 320.32C405.228 323.54 402.053 325.69 398.154 326.769L398.154 326.769Z" id="小路-1" fill="#3D3D3D" fill-rule="evenodd" stroke="none" />
    </g>
  </g>
</svg>