<?xml version="1.0" encoding="utf-8"?>
<svg width="1024px" height="1024px" viewBox="0 0 1024 1024" version="1.1" xmlns:xlink="http://www.w3.org/1999/xlink" xmlns="http://www.w3.org/2000/svg">
  <g id="Logo">
    <path d="M0 0L1024 0L1024 1024L0 1024L0 0Z" id="矩形" fill="none" fill-rule="evenodd" stroke="none" />
    <g id="编组-2" transform="translate(0.7363281 0)">
      <path d="M416.426 990.882L398.078 418.621C397.776 409.179 400.856 401.012 407.318 394.121C413.781 387.23 421.734 383.634 431.176 383.331C440.618 383.028 448.785 386.108 455.676 392.571C462.566 399.034 466.163 406.986 466.466 416.428L484.813 988.69C484.958 993.224 484.23 997.614 482.63 1001.86C481.029 1006.1 478.676 1009.88 475.573 1013.19C472.469 1016.5 468.851 1019.09 464.717 1020.96C460.584 1022.83 456.25 1023.83 451.716 1023.98C442.273 1024.28 434.107 1021.2 427.216 1014.74C420.325 1008.28 416.728 1000.32 416.426 990.882L416.426 990.882Z" id="矢量图" fill="#FF7700" fill-rule="evenodd" stroke="none" />
      <path d="M426.994 598.539L978.382 764.132C987.43 766.849 996.114 765.969 1004.43 761.493C1012.75 757.016 1018.27 750.254 1020.99 741.206C1023.71 732.158 1022.83 723.475 1018.35 715.155C1013.87 706.836 1007.11 701.318 998.062 698.601L446.674 533.008C437.626 530.291 428.942 531.17 420.623 535.647C412.304 540.123 406.785 546.885 404.068 555.933C402.763 560.278 402.339 564.708 402.797 569.221C403.254 573.735 404.557 577.989 406.707 581.984C408.857 585.979 411.689 589.411 415.204 592.279C418.719 595.148 422.649 597.234 426.994 598.539L426.994 598.539Z" id="矢量图" fill="#FF7700" fill-rule="evenodd" stroke="none" />
      <path d="M933.837 157.658L606.081 627.983C600.679 635.734 593.329 640.44 584.029 642.102C574.729 643.763 566.203 641.893 558.453 636.492C550.702 631.09 545.996 623.74 544.334 614.44C542.673 605.14 544.543 596.614 549.944 588.864L877.7 118.538C883.102 110.788 890.452 106.081 899.752 104.42C909.052 102.759 917.578 104.629 925.329 110.03C929.051 112.624 932.135 115.831 934.581 119.652C937.027 123.473 938.649 127.616 939.447 132.082C940.245 136.548 940.157 140.997 939.185 145.428C938.214 149.859 936.431 153.936 933.837 157.658L933.837 157.658Z" id="矢量图" fill="#FF7700" fill-rule="evenodd" stroke="none" />
      <path d="M335.067 13.1021L690.459 466.201C696.29 473.635 698.638 482.041 697.505 491.42C696.371 500.799 692.088 508.404 684.654 514.234C681.085 517.034 677.115 519.044 672.746 520.265C668.376 521.486 663.94 521.824 659.436 521.279C654.932 520.735 650.704 519.35 646.751 517.123C642.798 514.897 639.422 511.999 636.622 508.429L281.229 55.3299C278.43 51.7603 276.419 47.7908 275.199 43.4214C273.978 39.052 273.64 34.6154 274.184 30.1114C274.728 25.6075 276.114 21.3791 278.34 17.4263C280.566 13.4736 283.465 10.0972 287.034 7.29734C290.604 4.49747 294.573 2.48718 298.943 1.26647C303.312 0.0457596 307.749 -0.292446 312.253 0.251854C316.757 0.796157 320.985 2.18153 324.938 4.40798C328.891 6.63443 332.267 9.53247 335.067 13.1021L335.067 13.1021Z" id="矢量图" fill="#FF7700" fill-rule="evenodd" stroke="none" />
      <path d="M22.5361 530.77L558.035 336.331C566.915 333.107 575.634 333.494 584.193 337.493C592.752 341.493 598.644 347.932 601.868 356.812C605.092 365.692 604.705 374.411 600.706 382.97C596.706 391.529 590.267 397.421 581.387 400.645L45.8885 595.084C37.0086 598.308 28.2891 597.921 19.7302 593.922C11.1712 589.923 5.27953 583.483 2.05524 574.603C0.506878 570.339 -0.166612 565.941 0.0347645 561.408C0.236144 556.876 1.29706 552.555 3.21752 548.445C5.13797 544.335 7.77178 540.748 11.1189 537.686C14.4661 534.624 18.2718 532.318 22.5361 530.77L22.5361 530.77Z" id="矢量图" fill="#FF7700" fill-rule="evenodd" stroke="none" />
    </g>
  </g>
</svg>